%TF.GenerationSoftware,KiCad,Pcbnew,10.0.6*%
%TF.CreationDate,2026-09-25T03:19:18-04:00*%
%TF.ProjectId,elicio-v4,656c6963-696f-42d7-9634-2e6b69636164,rev?*%
%TF.SameCoordinates,Original*%
%TF.FileFunction,Copper,L2,Bot*%
%TF.FilePolarity,Positive*%
%FSLAX46Y46*%
G04 Gerber Fmt 4.6, Leading zero omitted, Abs format (unit mm)*
G04 Created by KiCad (PCBNEW 10.0.6) date 2026-09-25 03:19:18*
%MOMM*%
%LPD*%
G01*
G04 APERTURE LIST*
G04 Aperture macros list*
%AMRoundRect*
0 Rectangle with rounded corners*
0 $1 Rounding radius*
0 $2 $3 $4 $5 $6 $7 $8 $9 X,Y pos of 4 corners*
0 Add a 4 corners polygon primitive as box body*
4,1,4,$2,$3,$4,$5,$6,$7,$8,$9,$2,$3,0*
0 Add four circle primitives for the rounded corners*
1,1,$1+$1,$2,$3*
1,1,$1+$1,$4,$5*
1,1,$1+$1,$6,$7*
1,1,$1+$1,$8,$9*
0 Add four rect primitives between the rounded corners*
20,1,$1+$1,$2,$3,$4,$5,0*
20,1,$1+$1,$4,$5,$6,$7,0*
20,1,$1+$1,$6,$7,$8,$9,0*
20,1,$1+$1,$8,$9,$2,$3,0*%
%AMFreePoly0*
4,1,6,0.230000,-0.054289,0.230000,-0.155000,-0.230000,-0.155000,-0.230000,0.155000,0.020711,0.155000,0.230000,-0.054289,0.230000,-0.054289,$1*%
%AMFreePoly1*
4,1,6,0.230000,0.054289,0.020711,-0.155000,-0.230000,-0.155000,-0.230000,0.155000,0.230000,0.155000,0.230000,0.054289,0.230000,0.054289,$1*%
%AMFreePoly2*
4,1,6,0.230000,-0.155000,-0.020711,-0.155000,-0.230000,0.054289,-0.230000,0.155000,0.230000,0.155000,0.230000,-0.155000,0.230000,-0.155000,$1*%
%AMFreePoly3*
4,1,6,0.230000,-0.155000,-0.230000,-0.155000,-0.230000,-0.054289,-0.020711,0.155000,0.230000,0.155000,0.230000,-0.155000,0.230000,-0.155000,$1*%
%AMFreePoly4*
4,1,92,-1.476292,2.255806,-1.185689,2.177939,-0.907736,2.062807,-0.647188,1.912380,-0.408505,1.729232,-0.195768,1.516495,-0.012620,1.277812,0.137807,1.017264,0.252939,0.739311,0.330806,0.448708,0.370076,0.150427,0.370076,-0.150427,0.330806,-0.448708,0.252939,-0.739311,0.137807,-1.017264,-0.012620,-1.277812,-0.195768,-1.516495,-0.408505,-1.729232,-0.647188,-1.912380,-0.907736,-2.062807,
-1.185689,-2.177939,-1.476292,-2.255806,-1.774573,-2.295076,-2.075427,-2.295076,-2.373708,-2.255806,-2.664311,-2.177939,-2.942264,-2.062807,-3.202812,-1.912380,-3.441495,-1.729232,-3.654232,-1.516495,-3.837380,-1.277812,-3.987807,-1.017264,-4.102939,-0.739311,-4.180806,-0.448708,-4.220076,-0.150427,-4.220076,0.121988,-3.475000,0.121988,-3.475000,-0.121988,-3.436834,-0.362959,-3.361441,-0.594994,
-3.250679,-0.812377,-3.107274,-1.009757,-2.934757,-1.182274,-2.737377,-1.325679,-2.519994,-1.436441,-2.287959,-1.511834,-2.046988,-1.550000,-1.803012,-1.550000,-1.562041,-1.511834,-1.330006,-1.436441,-1.112623,-1.325679,-0.915243,-1.182274,-0.742726,-1.009757,-0.599321,-0.812377,-0.488559,-0.594994,-0.413166,-0.362959,-0.375000,-0.121988,-0.375000,0.121988,-0.413166,0.362959,-0.488559,0.594994,
-0.599321,0.812377,-0.742726,1.009757,-0.915243,1.182274,-1.112623,1.325679,-1.330006,1.436441,-1.562041,1.511834,-1.803012,1.550000,-2.046988,1.550000,-2.287959,1.511834,-2.519994,1.436441,-2.737377,1.325679,-2.934757,1.182274,-3.107274,1.009757,-3.250679,0.812377,-3.361441,0.594994,-3.436834,0.362959,-3.475000,0.121988,-4.220076,0.121988,-4.220076,0.150427,-4.180806,0.448708,
-4.102939,0.739311,-3.987807,1.017264,-3.837380,1.277812,-3.654232,1.516495,-3.441495,1.729232,-3.202812,1.912380,-2.942264,2.062807,-2.664311,2.177939,-2.373708,2.255806,-2.075427,2.295076,-1.774573,2.295076,-1.476292,2.255806,-1.476292,2.255806,$1*%
G04 Aperture macros list end*
%TA.AperFunction,ComponentPad*%
%ADD10C,5.000000*%
%TD*%
%TA.AperFunction,ComponentPad*%
%ADD11R,1.700000X1.700000*%
%TD*%
%TA.AperFunction,ComponentPad*%
%ADD12C,1.700000*%
%TD*%
%TA.AperFunction,SMDPad,CuDef*%
%ADD13FreePoly0,180.000000*%
%TD*%
%TA.AperFunction,SMDPad,CuDef*%
%ADD14FreePoly1,180.000000*%
%TD*%
%TA.AperFunction,SMDPad,CuDef*%
%ADD15FreePoly2,180.000000*%
%TD*%
%TA.AperFunction,SMDPad,CuDef*%
%ADD16FreePoly3,180.000000*%
%TD*%
%TA.AperFunction,SMDPad,CuDef*%
%ADD17RoundRect,0.145000X0.205061X0.000000X0.000000X0.205061X-0.205061X0.000000X0.000000X-0.205061X0*%
%TD*%
%TA.AperFunction,SMDPad,CuDef*%
%ADD18RoundRect,0.135000X0.135000X0.185000X-0.135000X0.185000X-0.135000X-0.185000X0.135000X-0.185000X0*%
%TD*%
%TA.AperFunction,SMDPad,CuDef*%
%ADD19RoundRect,0.050000X0.150000X0.075000X-0.150000X0.075000X-0.150000X-0.075000X0.150000X-0.075000X0*%
%TD*%
%TA.AperFunction,SMDPad,CuDef*%
%ADD20RoundRect,0.050000X0.150000X0.300000X-0.150000X0.300000X-0.150000X-0.300000X0.150000X-0.300000X0*%
%TD*%
%TA.AperFunction,SMDPad,CuDef*%
%ADD21RoundRect,0.100000X0.100000X-0.130000X0.100000X0.130000X-0.100000X0.130000X-0.100000X-0.130000X0*%
%TD*%
%TA.AperFunction,SMDPad,CuDef*%
%ADD22FreePoly4,180.000000*%
%TD*%
%TA.AperFunction,SMDPad,CuDef*%
%ADD23RoundRect,0.135000X-0.185000X0.135000X-0.185000X-0.135000X0.185000X-0.135000X0.185000X0.135000X0*%
%TD*%
%TA.AperFunction,SMDPad,CuDef*%
%ADD24RoundRect,0.100000X-0.100000X0.130000X-0.100000X-0.130000X0.100000X-0.130000X0.100000X0.130000X0*%
%TD*%
%TA.AperFunction,BGAPad,CuDef*%
%ADD25C,0.250000*%
%TD*%
%TA.AperFunction,SMDPad,CuDef*%
%ADD26RoundRect,0.100000X0.130000X0.100000X-0.130000X0.100000X-0.130000X-0.100000X0.130000X-0.100000X0*%
%TD*%
%TA.AperFunction,SMDPad,CuDef*%
%ADD27RoundRect,0.100000X-0.130000X-0.100000X0.130000X-0.100000X0.130000X0.100000X-0.130000X0.100000X0*%
%TD*%
%TA.AperFunction,SMDPad,CuDef*%
%ADD28RoundRect,0.140000X0.140000X0.170000X-0.140000X0.170000X-0.140000X-0.170000X0.140000X-0.170000X0*%
%TD*%
%TA.AperFunction,SMDPad,CuDef*%
%ADD29RoundRect,0.050000X-0.150000X-0.075000X0.150000X-0.075000X0.150000X0.075000X-0.150000X0.075000X0*%
%TD*%
%TA.AperFunction,SMDPad,CuDef*%
%ADD30RoundRect,0.050000X-0.150000X-0.300000X0.150000X-0.300000X0.150000X0.300000X-0.150000X0.300000X0*%
%TD*%
%TA.AperFunction,SMDPad,CuDef*%
%ADD31RoundRect,0.140000X-0.140000X-0.170000X0.140000X-0.170000X0.140000X0.170000X-0.140000X0.170000X0*%
%TD*%
%TA.AperFunction,ViaPad*%
%ADD32C,0.400000*%
%TD*%
%TA.AperFunction,Conductor*%
%ADD33C,0.200000*%
%TD*%
%TA.AperFunction,Conductor*%
%ADD34C,0.100000*%
%TD*%
%TA.AperFunction,Conductor*%
%ADD35C,0.150000*%
%TD*%
G04 APERTURE END LIST*
D10*
%TO.P,P3,1*%
%TO.N,REF*%
X8500000Y-43000000D03*
%TD*%
%TO.P,P1,1*%
%TO.N,SIG1*%
X5900000Y-5290000D03*
%TD*%
D11*
%TO.P,J3,1*%
%TO.N,BENCH_SIG1*%
X22400000Y-19400000D03*
D12*
%TO.P,J3,2*%
%TO.N,BENCH_SIG2*%
X22400000Y-21940000D03*
%TO.P,J3,3*%
%TO.N,BENCH_REF*%
X22400000Y-24480000D03*
%TD*%
D10*
%TO.P,P2,1*%
%TO.N,SIG2*%
X10400000Y5810000D03*
%TD*%
D13*
%TO.P,U5,1*%
%TO.N,+VDD*%
X3730000Y-16775000D03*
D14*
%TO.P,U5,2*%
%TO.N,GND*%
X3730000Y-17425000D03*
D15*
%TO.P,U5,3*%
%TO.N,VBAT*%
X2870000Y-17425000D03*
D16*
%TO.P,U5,4*%
X2870000Y-16775000D03*
D17*
%TO.P,U5,5*%
%TO.N,GND*%
X3300000Y-17100000D03*
%TD*%
D18*
%TO.P,R2,1*%
%TO.N,SIG2*%
X9900000Y-17250000D03*
%TO.P,R2,2*%
%TO.N,AFE_IN1N*%
X8880000Y-17250000D03*
%TD*%
D19*
%TO.P,Q3,1*%
%TO.N,AFE_EN_HW*%
X11000000Y-19675000D03*
%TO.P,Q3,2*%
%TO.N,GND*%
X11000000Y-20125000D03*
D20*
%TO.P,Q3,3*%
%TO.N,AFE_GATE*%
X10300000Y-19900000D03*
%TD*%
D21*
%TO.P,C16,1*%
%TO.N,VBAT*%
X4700000Y-17470000D03*
%TO.P,C16,2*%
%TO.N,GND*%
X4700000Y-16830000D03*
%TD*%
D22*
%TO.P,P5,1*%
%TO.N,GND*%
X14589000Y-12100000D03*
%TD*%
D23*
%TO.P,R1,1*%
%TO.N,SIG1*%
X5900000Y-16790000D03*
%TO.P,R1,2*%
%TO.N,AFE_IN1P*%
X5900000Y-17810000D03*
%TD*%
D24*
%TO.P,R34,1*%
%TO.N,AFE_GPIO1*%
X14950000Y-22900000D03*
%TO.P,R34,2*%
%TO.N,GND*%
X14950000Y-23540000D03*
%TD*%
D25*
%TO.P,U3,A1*%
%TO.N,VBAT*%
X14300000Y-17950000D03*
%TO.P,U3,A2*%
%TO.N,VBUS*%
X14300000Y-17550000D03*
%TO.P,U3,B1*%
%TO.N,TS*%
X13900000Y-17950000D03*
%TO.P,U3,B2*%
%TO.N,ISET*%
X13900000Y-17550000D03*
%TO.P,U3,C1*%
%TO.N,PRETERM*%
X13500000Y-17950000D03*
%TO.P,U3,C2*%
%TO.N,GND*%
X13500000Y-17550000D03*
%TD*%
D24*
%TO.P,R15,1*%
%TO.N,VBAT*%
X10800000Y-18280000D03*
%TO.P,R15,2*%
%TO.N,AFE_EN_HW*%
X10800000Y-18920000D03*
%TD*%
%TO.P,R16,1*%
%TO.N,VBUS*%
X13750000Y-19380000D03*
%TO.P,R16,2*%
%TO.N,Q2_G*%
X13750000Y-20020000D03*
%TD*%
D26*
%TO.P,C4,1*%
%TO.N,VBAT*%
X7570000Y-17450000D03*
%TO.P,C4,2*%
%TO.N,GND*%
X6930000Y-17450000D03*
%TD*%
D24*
%TO.P,C3,1*%
%TO.N,VBUS*%
X14550000Y-19280000D03*
%TO.P,C3,2*%
%TO.N,GND*%
X14550000Y-19920000D03*
%TD*%
D26*
%TO.P,R25,1*%
%TO.N,ISET*%
X12270000Y-18350000D03*
%TO.P,R25,2*%
%TO.N,CHG_MON*%
X11630000Y-18350000D03*
%TD*%
D24*
%TO.P,R4,1*%
%TO.N,RLD_FB*%
X13300000Y-21830000D03*
%TO.P,R4,2*%
%TO.N,RLDINV*%
X13300000Y-22470000D03*
%TD*%
D26*
%TO.P,C12,1*%
%TO.N,+VDD*%
X3420000Y-18300000D03*
%TO.P,C12,2*%
%TO.N,GND*%
X2780000Y-18300000D03*
%TD*%
%TO.P,R18,1*%
%TO.N,VBUS*%
X12720000Y-28500000D03*
%TO.P,R18,2*%
%TO.N,VBUS_DET*%
X12080000Y-28500000D03*
%TD*%
D27*
%TO.P,R35,1*%
%TO.N,AFE_GPIO2*%
X14080000Y-24550000D03*
%TO.P,R35,2*%
%TO.N,GND*%
X14720000Y-24550000D03*
%TD*%
D19*
%TO.P,Q2,1*%
%TO.N,Q2_G*%
X12850000Y-19325000D03*
%TO.P,Q2,2*%
%TO.N,GND*%
X12850000Y-19775000D03*
D20*
%TO.P,Q2,3*%
%TO.N,AFE_EN_HW*%
X12150000Y-19550000D03*
%TD*%
D26*
%TO.P,R20,1*%
%TO.N,VBAT*%
X12720000Y-26900000D03*
%TO.P,R20,2*%
%TO.N,VBAT_SENSE*%
X12080000Y-26900000D03*
%TD*%
D20*
%TO.P,D1,1*%
%TO.N,VBUS*%
X14650000Y-28600000D03*
%TO.P,D1,2*%
%TO.N,GND*%
X13950000Y-28600000D03*
%TD*%
D27*
%TO.P,R24,1*%
%TO.N,AFE_START*%
X11130000Y-24700000D03*
%TO.P,R24,2*%
%TO.N,GND*%
X11770000Y-24700000D03*
%TD*%
D26*
%TO.P,C2,1*%
%TO.N,ISET*%
X12270000Y-17550000D03*
%TO.P,C2,2*%
%TO.N,GND*%
X11630000Y-17550000D03*
%TD*%
%TO.P,R11,1*%
%TO.N,ISET*%
X12320000Y-16750000D03*
%TO.P,R11,2*%
%TO.N,GND*%
X11680000Y-16750000D03*
%TD*%
D21*
%TO.P,C1,1*%
%TO.N,RLD_FB*%
X13300000Y-23970000D03*
%TO.P,C1,2*%
%TO.N,RLDINV*%
X13300000Y-23330000D03*
%TD*%
D18*
%TO.P,R3,1*%
%TO.N,REF*%
X15060000Y-25600000D03*
%TO.P,R3,2*%
%TO.N,RLD_FB*%
X14040000Y-25600000D03*
%TD*%
D26*
%TO.P,C13,1*%
%TO.N,+VDD*%
X4920000Y-18300000D03*
%TO.P,C13,2*%
%TO.N,GND*%
X4280000Y-18300000D03*
%TD*%
D13*
%TO.P,U4,1*%
%TO.N,+3V0*%
X12080000Y-20925000D03*
D14*
%TO.P,U4,2*%
%TO.N,GND*%
X12080000Y-21575000D03*
D15*
%TO.P,U4,3*%
%TO.N,AFE_VIN*%
X11220000Y-21575000D03*
D16*
%TO.P,U4,4*%
X11220000Y-20925000D03*
D17*
%TO.P,U4,5*%
%TO.N,GND*%
X11650000Y-21250000D03*
%TD*%
D28*
%TO.P,C8,1*%
%TO.N,+3V0*%
X12130000Y-22550000D03*
%TO.P,C8,2*%
%TO.N,GND*%
X11170000Y-22550000D03*
%TD*%
D27*
%TO.P,R17,1*%
%TO.N,Q2_G*%
X14130000Y-20850000D03*
%TO.P,R17,2*%
%TO.N,GND*%
X14770000Y-20850000D03*
%TD*%
%TO.P,R21,1*%
%TO.N,VBAT_SENSE*%
X12080000Y-27700000D03*
%TO.P,R21,2*%
%TO.N,GND*%
X12720000Y-27700000D03*
%TD*%
D29*
%TO.P,Q1,1*%
%TO.N,AFE_GATE*%
X9500000Y-23025000D03*
%TO.P,Q1,2*%
%TO.N,VBAT*%
X9500000Y-22575000D03*
D30*
%TO.P,Q1,3*%
%TO.N,AFE_VIN*%
X10200000Y-22800000D03*
%TD*%
D27*
%TO.P,R19,1*%
%TO.N,VBUS_DET*%
X12080000Y-29300000D03*
%TO.P,R19,2*%
%TO.N,GND*%
X12720000Y-29300000D03*
%TD*%
%TO.P,R14,1*%
%TO.N,VBAT*%
X9530000Y-21850000D03*
%TO.P,R14,2*%
%TO.N,AFE_GATE*%
X10170000Y-21850000D03*
%TD*%
D31*
%TO.P,C14,1*%
%TO.N,VBAT*%
X13670000Y-27200000D03*
%TO.P,C14,2*%
%TO.N,GND*%
X14630000Y-27200000D03*
%TD*%
D27*
%TO.P,C5,1*%
%TO.N,AFE_VIN*%
X9530000Y-23900000D03*
%TO.P,C5,2*%
%TO.N,GND*%
X10170000Y-23900000D03*
%TD*%
D22*
%TO.P,P4,1*%
%TO.N,VBUS*%
X14589000Y-4350000D03*
%TD*%
D32*
%TO.N,GND*%
X5525000Y-18625000D03*
X13000000Y-17650000D03*
X10680000Y-20850000D03*
X10630000Y-36700000D03*
X11670000Y-17150000D03*
X15200000Y-24050000D03*
X6700000Y-28725000D03*
X7825000Y-18950000D03*
X11650000Y-22000000D03*
X3350000Y-17750000D03*
X6700000Y-33150000D03*
X6700000Y-29375000D03*
X12850000Y-20850000D03*
X5100000Y-17075000D03*
X13500000Y-28580000D03*
X13150000Y-29525000D03*
X12950000Y-25600000D03*
%TO.N,TS*%
X13900000Y-18450000D03*
%TO.N,+3V0*%
X14400000Y-21400000D03*
X9100000Y-23450000D03*
X11550000Y-19500000D03*
X12850000Y-24600000D03*
%TO.N,AFE_DRDY*%
X12550000Y-26275000D03*
X10775000Y-26675000D03*
%TO.N,VBAT*%
X6300000Y-18650000D03*
X8100000Y-18125000D03*
%TO.N,AFE_IN1N*%
X8350000Y-17370000D03*
%TO.N,AFE_IN1P*%
X6380000Y-17450000D03*
%TO.N,AFE_START*%
X10450000Y-24750000D03*
%TO.N,AFE_GPIO2*%
X14450000Y-23850000D03*
%TO.N,AFE_GPIO1*%
X14450000Y-23150000D03*
%TO.N,RLDINV*%
X14400000Y-22300000D03*
%TO.N,RLD_FB*%
X14950000Y-21950000D03*
%TO.N,PRETERM*%
X13350000Y-18450000D03*
%TO.N,+VDD*%
X7175000Y-34150000D03*
X7600000Y-36700000D03*
%TO.N,LED_EN*%
X10625000Y-29725000D03*
X12400000Y-29775000D03*
%TO.N,VBUS_DET*%
X10550000Y-29200000D03*
%TO.N,VBAT_SENSE*%
X10600000Y-28100000D03*
%TO.N,CHG_MON*%
X9750000Y-18500000D03*
X9550000Y-19600000D03*
X10625000Y-27175000D03*
%TO.N,SIG2*%
X10400000Y-16500000D03*
%TO.N,VBUS*%
X18400000Y-17000000D03*
X6700000Y-18300000D03*
X16514000Y-7550000D03*
X14275000Y-17200000D03*
X13425000Y-29075000D03*
%TD*%
%TO.N,GND*%
D33*
X17950000Y-16900000D02*
X14840000Y-16900000D01*
D34*
X3075000Y-18550000D02*
X3100000Y-18575000D01*
X10550000Y-16050000D02*
X10500000Y-16050000D01*
X12950000Y-25600000D02*
X14025000Y-26800000D01*
X6775000Y-33325000D02*
X6800000Y-34300000D01*
X12850000Y-19775000D02*
X12850000Y-20850000D01*
X14050000Y-26850000D02*
X14075000Y-26875000D01*
X7300000Y-17125000D02*
X7275000Y-17150000D01*
X13150000Y-29525000D02*
X12950000Y-29400000D01*
X10625000Y-16100000D02*
X10600000Y-16075000D01*
X14350000Y-16390000D02*
X11800000Y-16390000D01*
X7050000Y-17650000D02*
X7825000Y-18950000D01*
X7025000Y-34500000D02*
X7075000Y-34500000D01*
X10700000Y-16150000D02*
X10675000Y-16125000D01*
X7275000Y-17150000D02*
X7250000Y-17175000D01*
X6950000Y-34450000D02*
X6975000Y-34450000D01*
X10475000Y-16025000D02*
X10125000Y-16025000D01*
X6800000Y-34300000D02*
X6875000Y-34375000D01*
X13500000Y-17550000D02*
X13000000Y-17650000D01*
X11000000Y-20125000D02*
X10680000Y-20850000D01*
X15200000Y-24050000D02*
X14720000Y-24550000D01*
X3350000Y-17750000D02*
X3500000Y-17575000D01*
X7200000Y-17225000D02*
X7125000Y-17275000D01*
X3350000Y-17550000D02*
X3300000Y-17450000D01*
X7225000Y-17200000D02*
X7200000Y-17225000D01*
X10725000Y-16175000D02*
X10700000Y-16150000D01*
X3100000Y-18575000D02*
X3125000Y-18600000D01*
X3225000Y-18650000D02*
X3250000Y-18675000D01*
X10500000Y-16050000D02*
X10475000Y-16025000D01*
X11680000Y-16750000D02*
X11630000Y-17550000D01*
X10170000Y-23900000D02*
X10750000Y-23900000D01*
X14025000Y-26800000D02*
X14050000Y-26825000D01*
X7400000Y-21925000D02*
X5525000Y-18625000D01*
X10775000Y-16225000D02*
X10750000Y-16200000D01*
X14125000Y-26975000D02*
X14125000Y-28225000D01*
X12950000Y-25600000D02*
X12000000Y-24800000D01*
X3150000Y-18625000D02*
X3175000Y-18650000D01*
X15300000Y-23400000D02*
X14950000Y-23540000D01*
X14950000Y-23540000D02*
X15200000Y-24050000D01*
X7400000Y-17075000D02*
X7375000Y-17100000D01*
X11650000Y-22000000D02*
X12080000Y-21575000D01*
X6925000Y-34425000D02*
X6950000Y-34450000D01*
X3125000Y-18600000D02*
X3150000Y-18625000D01*
X11650000Y-22000000D02*
X11170000Y-22550000D01*
X7250000Y-17175000D02*
X7225000Y-17200000D01*
X6875000Y-34375000D02*
X6900000Y-34400000D01*
X13350000Y-28450000D02*
X12900000Y-27875000D01*
X13500000Y-28580000D02*
X13950000Y-28600000D01*
X14100000Y-26950000D02*
X14125000Y-26975000D01*
D33*
X18414000Y-12100000D02*
X17950000Y-13299999D01*
D34*
X11650000Y-22000000D02*
X11650000Y-21250000D01*
X5100000Y-17075000D02*
X4875000Y-17025000D01*
D33*
X17950000Y-13299999D02*
X17950000Y-15750000D01*
D34*
X14840000Y-16900000D02*
X14350000Y-16390000D01*
X3050000Y-18525000D02*
X3075000Y-18550000D01*
X7325000Y-17100000D02*
X7300000Y-17125000D01*
X11800000Y-16390000D02*
X11680000Y-16750000D01*
X10800000Y-16250000D02*
X10775000Y-16225000D01*
X10650000Y-16100000D02*
X10625000Y-16100000D01*
X10750000Y-23900000D02*
X10750000Y-23000000D01*
X3175000Y-18650000D02*
X3225000Y-18650000D01*
X7825000Y-34675000D02*
X10450000Y-36625000D01*
X7550000Y-34575000D02*
X7550000Y-31575000D01*
X7375000Y-17100000D02*
X7325000Y-17100000D01*
X14100000Y-26900000D02*
X14100000Y-26950000D01*
D33*
X17950000Y-15750000D02*
X17950000Y-16900000D01*
D34*
X7100000Y-34525000D02*
X7825000Y-34675000D01*
X14770000Y-20850000D02*
X15300000Y-21200000D01*
X14550000Y-19920000D02*
X14770000Y-20850000D01*
X10750000Y-23000000D02*
X11170000Y-22550000D01*
X3250000Y-18675000D02*
X3775000Y-18675000D01*
X10575000Y-16075000D02*
X10550000Y-16050000D01*
X7550000Y-31575000D02*
X7400000Y-21925000D01*
X6975000Y-34450000D02*
X7000000Y-34475000D01*
X11450000Y-16650000D02*
X10800000Y-16250000D01*
X10125000Y-16025000D02*
X7525000Y-17075000D01*
X14075000Y-26875000D02*
X14100000Y-26900000D01*
X6700000Y-33150000D02*
X6700000Y-29575000D01*
X7000000Y-34475000D02*
X7025000Y-34500000D01*
X7525000Y-17075000D02*
X7400000Y-17075000D01*
X10600000Y-16075000D02*
X10575000Y-16075000D01*
X14125000Y-28225000D02*
X14100000Y-28250000D01*
X6900000Y-34400000D02*
X6925000Y-34425000D01*
X3200000Y-17875000D02*
X2975000Y-18125000D01*
X3775000Y-18675000D02*
X4050000Y-18400000D01*
X10675000Y-16125000D02*
X10650000Y-16100000D01*
X10750000Y-16200000D02*
X10725000Y-16175000D01*
X14050000Y-26825000D02*
X14050000Y-26850000D01*
X2975000Y-18475000D02*
X3050000Y-18525000D01*
X7075000Y-34500000D02*
X7100000Y-34525000D01*
X15300000Y-21200000D02*
X15300000Y-23400000D01*
%TO.N,TS*%
X13900000Y-17950000D02*
X13900000Y-18450000D01*
%TO.N,REF*%
D35*
X8500000Y-43000000D02*
X8500000Y-39400000D01*
X8500000Y-37200000D02*
X15350000Y-37200000D01*
X15350000Y-25600000D02*
X15060000Y-25600000D01*
X8500000Y-39400000D02*
X8500000Y-37200000D01*
X15350000Y-37200000D02*
X15350000Y-25600000D01*
%TO.N,+3V0*%
D34*
X9100000Y-23450000D02*
X9100000Y-24300000D01*
X12500000Y-21100000D02*
X12500000Y-21400000D01*
X14400000Y-21400000D02*
X12500000Y-21400000D01*
X12500000Y-24300000D02*
X12850000Y-24600000D01*
X11600000Y-20550000D02*
X11950000Y-20800000D01*
X12130000Y-24300000D02*
X12500000Y-24300000D01*
X11950000Y-20800000D02*
X12080000Y-20925000D01*
X12080000Y-20925000D02*
X12500000Y-21100000D01*
X11550000Y-19500000D02*
X11600000Y-20550000D01*
X12500000Y-22200000D02*
X12130000Y-22550000D01*
X9100000Y-24300000D02*
X12130000Y-24300000D01*
X12130000Y-24300000D02*
X12130000Y-22550000D01*
X12500000Y-21400000D02*
X12500000Y-22200000D01*
%TO.N,SIG1*%
D35*
X5900000Y-5290000D02*
X5900000Y-8890000D01*
X5900000Y-8890000D02*
X5900000Y-16399999D01*
X5900000Y-16399999D02*
X5900000Y-16790000D01*
%TO.N,AFE_DRDY*%
D34*
X12550000Y-26275000D02*
X10775000Y-26675000D01*
%TO.N,VBAT*%
X12950000Y-27000000D02*
X13400000Y-27000000D01*
X10025000Y-18775000D02*
X10000000Y-18775000D01*
X9175000Y-22825000D02*
X9150000Y-22850000D01*
X12850000Y-26050000D02*
X12850000Y-26075000D01*
X9125000Y-22875000D02*
X9100000Y-22900000D01*
X8925000Y-23100000D02*
X8900000Y-23125000D01*
X8825000Y-23200000D02*
X8800000Y-23225000D01*
X9200000Y-22800000D02*
X9175000Y-22825000D01*
X12725000Y-25950000D02*
X12750000Y-25975000D01*
X9150000Y-22850000D02*
X9125000Y-22875000D01*
X9925000Y-19500000D02*
X9925000Y-19725000D01*
X8900000Y-24400000D02*
X8925000Y-24425000D01*
X8725000Y-23375000D02*
X8725000Y-23525000D01*
X9275000Y-22725000D02*
X9250000Y-22750000D01*
X4225000Y-16975000D02*
X4225000Y-16650000D01*
X4225000Y-16650000D02*
X4125000Y-16550000D01*
X8900000Y-24375000D02*
X8900000Y-24400000D01*
X6300000Y-18650000D02*
X5500000Y-18200000D01*
X12625000Y-25900000D02*
X12650000Y-25925000D01*
X9925000Y-18825000D02*
X9900000Y-18850000D01*
X9530000Y-21850000D02*
X9500000Y-22575000D01*
X12925000Y-26625000D02*
X12850000Y-26700000D01*
X8725000Y-23525000D02*
X8750000Y-23550000D01*
X8850000Y-23175000D02*
X8825000Y-23200000D01*
X8750000Y-23350000D02*
X8725000Y-23375000D01*
X8875000Y-24350000D02*
X8900000Y-24375000D01*
X8900000Y-23125000D02*
X8875000Y-23150000D01*
X14300000Y-17950000D02*
X14300000Y-18850000D01*
X12825000Y-26025000D02*
X12850000Y-26050000D01*
X4025000Y-16475000D02*
X4000000Y-16450000D01*
X8925000Y-24425000D02*
X8950000Y-24450000D01*
X3450000Y-16450000D02*
X3425000Y-16475000D01*
X2650000Y-16925000D02*
X2650000Y-17275000D01*
X9900000Y-18850000D02*
X9925000Y-19500000D01*
X12925000Y-26200000D02*
X12925000Y-26625000D01*
X5500000Y-18200000D02*
X4900000Y-17600000D01*
X4100000Y-16525000D02*
X4075000Y-16500000D01*
X3350000Y-16525000D02*
X3175000Y-16600000D01*
X9950000Y-18800000D02*
X9925000Y-18825000D01*
X12900000Y-26175000D02*
X12925000Y-26200000D01*
X8750000Y-23550000D02*
X8750000Y-23975000D01*
X9125000Y-18875000D02*
X7800000Y-17550000D01*
X9850000Y-18850000D02*
X9825000Y-18875000D01*
X4075000Y-16500000D02*
X4050000Y-16475000D01*
X9075000Y-22925000D02*
X9050000Y-22950000D01*
X12700000Y-25925000D02*
X12725000Y-25950000D01*
X12850000Y-26075000D02*
X12875000Y-26100000D01*
X9300000Y-22700000D02*
X9275000Y-22725000D01*
X9925000Y-19725000D02*
X9725000Y-21675000D01*
X10625000Y-18475000D02*
X10025000Y-18775000D01*
X12750000Y-25975000D02*
X12775000Y-25975000D01*
X12650000Y-25925000D02*
X12700000Y-25925000D01*
X9000000Y-23025000D02*
X8975000Y-23050000D01*
X9000000Y-24500000D02*
X11075000Y-25900000D01*
X11200000Y-18280000D02*
X10800000Y-18280000D01*
X9050000Y-22950000D02*
X9025000Y-22975000D01*
X9325000Y-22675000D02*
X9300000Y-22700000D01*
X14300000Y-18850000D02*
X11200000Y-18850000D01*
X8975000Y-23050000D02*
X8950000Y-23075000D01*
X9825000Y-18875000D02*
X9125000Y-18875000D01*
X12775000Y-25975000D02*
X12800000Y-26000000D01*
X9100000Y-22900000D02*
X9075000Y-22925000D01*
X3175000Y-16600000D02*
X3150000Y-16625000D01*
X8950000Y-24450000D02*
X8975000Y-24475000D01*
X12900000Y-26125000D02*
X12900000Y-26175000D01*
X11200000Y-18850000D02*
X11200000Y-18280000D01*
X4525000Y-17275000D02*
X4225000Y-16975000D01*
X8775000Y-23275000D02*
X8750000Y-23300000D01*
X9000000Y-23000000D02*
X9000000Y-23025000D01*
X10000000Y-18775000D02*
X9975000Y-18800000D01*
X12800000Y-26000000D02*
X12825000Y-26025000D01*
X9975000Y-18800000D02*
X9950000Y-18800000D01*
X4125000Y-16550000D02*
X4100000Y-16525000D01*
X9250000Y-22750000D02*
X9225000Y-22775000D01*
X8800000Y-23250000D02*
X8775000Y-23275000D01*
X11075000Y-25900000D02*
X12625000Y-25900000D01*
X3150000Y-16625000D02*
X3100000Y-16625000D01*
X9225000Y-22775000D02*
X9200000Y-22800000D01*
X4000000Y-16450000D02*
X3450000Y-16450000D01*
X8875000Y-23150000D02*
X8850000Y-23175000D01*
X3400000Y-16475000D02*
X3375000Y-16500000D01*
X8800000Y-23225000D02*
X8800000Y-23250000D01*
X3425000Y-16475000D02*
X3400000Y-16475000D01*
X8225000Y-17975000D02*
X8100000Y-18125000D01*
X8950000Y-23075000D02*
X8925000Y-23100000D01*
X9025000Y-22975000D02*
X9000000Y-23000000D01*
X12875000Y-26100000D02*
X12900000Y-26125000D01*
X4050000Y-16475000D02*
X4025000Y-16475000D01*
X3375000Y-16500000D02*
X3350000Y-16525000D01*
X8750000Y-23300000D02*
X8750000Y-23350000D01*
X9900000Y-18850000D02*
X9850000Y-18850000D01*
X8975000Y-24475000D02*
X9000000Y-24500000D01*
X8750000Y-23975000D02*
X8875000Y-24350000D01*
%TO.N,AFE_IN1N*%
X8350000Y-17370000D02*
X8880000Y-17250000D01*
%TO.N,AFE_IN1P*%
X6380000Y-17450000D02*
X5900000Y-17810000D01*
%TO.N,AFE_START*%
X10450000Y-24750000D02*
X11130000Y-24700000D01*
%TO.N,AFE_GPIO2*%
X14450000Y-23850000D02*
X14080000Y-24550000D01*
%TO.N,AFE_GPIO1*%
X14450000Y-23150000D02*
X14950000Y-22900000D01*
%TO.N,RLDINV*%
X14400000Y-22300000D02*
X13300000Y-22470000D01*
X13300000Y-22470000D02*
X13300000Y-23330000D01*
%TO.N,RLD_FB*%
X13300000Y-21830000D02*
X12850000Y-21830000D01*
X14950000Y-21950000D02*
X13300000Y-21830000D01*
X13400000Y-24200000D02*
X13775000Y-25400000D01*
X12850000Y-23970000D02*
X13300000Y-23970000D01*
X12850000Y-21830000D02*
X12850000Y-23970000D01*
%TO.N,PRETERM*%
X13500000Y-17950000D02*
X13350000Y-18450000D01*
%TO.N,+VDD*%
X7175000Y-34150000D02*
X7000000Y-23975000D01*
X4575000Y-18000000D02*
X4550000Y-17975000D01*
X4075000Y-17150000D02*
X4050000Y-17125000D01*
X4150000Y-17425000D02*
X4125000Y-17200000D01*
X7000000Y-23975000D02*
X6425000Y-21275000D01*
X4525000Y-17950000D02*
X4475000Y-17950000D01*
X3925000Y-17925000D02*
X3650000Y-18200000D01*
X4125000Y-17200000D02*
X4100000Y-17175000D01*
X4100000Y-17175000D02*
X4075000Y-17150000D01*
X4025000Y-17100000D02*
X3950000Y-16925000D01*
X4600000Y-18025000D02*
X4575000Y-18000000D01*
X4725000Y-18125000D02*
X4650000Y-18075000D01*
X4650000Y-18075000D02*
X4625000Y-18050000D01*
X4475000Y-17950000D02*
X4450000Y-17925000D01*
X4100000Y-17925000D02*
X4150000Y-17425000D01*
X4625000Y-18050000D02*
X4600000Y-18025000D01*
X4050000Y-17125000D02*
X4025000Y-17100000D01*
X4550000Y-17975000D02*
X4525000Y-17950000D01*
X6425000Y-21275000D02*
X5050000Y-18500000D01*
X4450000Y-17925000D02*
X3925000Y-17925000D01*
%TO.N,LED_EN*%
X12400000Y-29775000D02*
X10625000Y-29725000D01*
%TO.N,VBUS_DET*%
X11850000Y-29200000D02*
X10550000Y-29200000D01*
X11950000Y-28700000D02*
X11950000Y-29100000D01*
%TO.N,VBAT_SENSE*%
X11950000Y-27100000D02*
X11950000Y-27500000D01*
X11850000Y-27800000D02*
X10600000Y-28100000D01*
%TO.N,CHG_MON*%
X9000000Y-22700000D02*
X8975000Y-22725000D01*
X8975000Y-22725000D02*
X8950000Y-22750000D01*
X8525000Y-23250000D02*
X8525000Y-23300000D01*
X8800000Y-22900000D02*
X8800000Y-22925000D01*
X8775000Y-22950000D02*
X8750000Y-22975000D01*
X8950000Y-22750000D02*
X8925000Y-22775000D01*
X8550000Y-23200000D02*
X8550000Y-23225000D01*
X8525000Y-24400000D02*
X10400000Y-26825000D01*
X8500000Y-24375000D02*
X8525000Y-24400000D01*
X8650000Y-23075000D02*
X8625000Y-23100000D01*
X10400000Y-26825000D02*
X10400000Y-26850000D01*
X8575000Y-23175000D02*
X8550000Y-23200000D01*
X8700000Y-23025000D02*
X8675000Y-23050000D01*
X9150000Y-21625000D02*
X9150000Y-21675000D01*
X8825000Y-22875000D02*
X8800000Y-22900000D01*
X9075000Y-22625000D02*
X9050000Y-22650000D01*
X8900000Y-22800000D02*
X8875000Y-22825000D01*
X10400000Y-26850000D02*
X10425000Y-26875000D01*
X8875000Y-22825000D02*
X8850000Y-22850000D01*
X8725000Y-23000000D02*
X8700000Y-23025000D01*
X9175000Y-21600000D02*
X9150000Y-21625000D01*
X8925000Y-22775000D02*
X8900000Y-22800000D01*
X9050000Y-22650000D02*
X9025000Y-22675000D01*
X11350000Y-17900000D02*
X10300000Y-17900000D01*
X9150000Y-21675000D02*
X9125000Y-21700000D01*
X10450000Y-26925000D02*
X10625000Y-27175000D01*
X8800000Y-22925000D02*
X8775000Y-22950000D01*
X8525000Y-23300000D02*
X8500000Y-23325000D01*
X9025000Y-22675000D02*
X9000000Y-22700000D01*
X10300000Y-17950000D02*
X9750000Y-18500000D01*
X8500000Y-23325000D02*
X8500000Y-24375000D01*
X8850000Y-22850000D02*
X8825000Y-22875000D01*
X8550000Y-23225000D02*
X8525000Y-23250000D01*
X10425000Y-26900000D02*
X10450000Y-26925000D01*
X10425000Y-26875000D02*
X10425000Y-26900000D01*
X9175000Y-21575000D02*
X9175000Y-21600000D01*
X8600000Y-23125000D02*
X8600000Y-23150000D01*
X8625000Y-23100000D02*
X8600000Y-23125000D01*
X11630000Y-17950000D02*
X11350000Y-17900000D01*
X9550000Y-19600000D02*
X9175000Y-21575000D01*
X9125000Y-21700000D02*
X9100000Y-22575000D01*
X9100000Y-22600000D02*
X9075000Y-22625000D01*
X8750000Y-22975000D02*
X8725000Y-23000000D01*
X8600000Y-23150000D02*
X8575000Y-23175000D01*
X11630000Y-18350000D02*
X11630000Y-17950000D01*
X8675000Y-23050000D02*
X8650000Y-23075000D01*
X9100000Y-22575000D02*
X9100000Y-22600000D01*
%TO.N,SIG2*%
D35*
X10400000Y-16500000D02*
X9900000Y-17250000D01*
%TO.N,VBUS*%
D33*
X14650000Y-17550000D02*
X14300000Y-17550000D01*
D34*
X13600000Y-29000000D02*
X13625000Y-29025000D01*
X13725000Y-29100000D02*
X13750000Y-29125000D01*
X12325000Y-28125000D02*
X12525000Y-28325000D01*
X11900000Y-28125000D02*
X12325000Y-28125000D01*
X8275000Y-24425000D02*
X8300000Y-24450000D01*
X10325000Y-28350000D02*
X10350000Y-28375000D01*
X13400000Y-29000000D02*
X13600000Y-29000000D01*
X10450000Y-28450000D02*
X10500000Y-28450000D01*
D33*
X18400000Y-18400000D02*
X14650000Y-18400000D01*
D34*
X6775000Y-18475000D02*
X8275000Y-24425000D01*
X14225000Y-29075000D02*
X14250000Y-29050000D01*
X13700000Y-29100000D02*
X13725000Y-29100000D01*
X13750000Y-29125000D02*
X14150000Y-29125000D01*
X14175000Y-29100000D02*
X14200000Y-29100000D01*
D33*
X14650000Y-18400000D02*
X14650000Y-17550000D01*
D34*
X11800000Y-28150000D02*
X11875000Y-28150000D01*
X10375000Y-28400000D02*
X10400000Y-28400000D01*
X14250000Y-29050000D02*
X14275000Y-29025000D01*
X13650000Y-29050000D02*
X13675000Y-29075000D01*
X10400000Y-28400000D02*
X10425000Y-28425000D01*
X10500000Y-28450000D02*
X10525000Y-28475000D01*
X10300000Y-28300000D02*
X10300000Y-28325000D01*
X13625000Y-29025000D02*
X13650000Y-29050000D01*
X13675000Y-29075000D02*
X13700000Y-29100000D01*
X10425000Y-28425000D02*
X10450000Y-28450000D01*
X8300000Y-24450000D02*
X8300000Y-24475000D01*
X14300000Y-17425000D02*
X14275000Y-17200000D01*
X14275000Y-29025000D02*
X14300000Y-29025000D01*
X10525000Y-28475000D02*
X11300000Y-28475000D01*
X10250000Y-28250000D02*
X10275000Y-28275000D01*
X8325000Y-24550000D02*
X10250000Y-28250000D01*
X11875000Y-28150000D02*
X11900000Y-28125000D01*
X10300000Y-28325000D02*
X10325000Y-28350000D01*
D33*
X16514000Y-6249999D02*
X16514000Y-7550000D01*
D34*
X14550000Y-19280000D02*
X13750000Y-19380000D01*
D33*
X18400000Y-17000000D02*
X18400000Y-18400000D01*
X14650000Y-18400000D02*
X14550000Y-19280000D01*
D34*
X8300000Y-24475000D02*
X8325000Y-24500000D01*
X12925000Y-28650000D02*
X13400000Y-29000000D01*
X10350000Y-28375000D02*
X10375000Y-28400000D01*
X10275000Y-28275000D02*
X10300000Y-28300000D01*
X14300000Y-29025000D02*
X14450000Y-28900000D01*
X8325000Y-24500000D02*
X8325000Y-24550000D01*
X13425000Y-29000000D02*
X13425000Y-29075000D01*
X14200000Y-29100000D02*
X14225000Y-29075000D01*
X14150000Y-29125000D02*
X14175000Y-29100000D01*
X11300000Y-28475000D02*
X11800000Y-28150000D01*
%TO.N,AFE_EN_HW*%
X10800000Y-18920000D02*
X10800000Y-19100000D01*
X11000000Y-19675000D02*
X11000000Y-19100000D01*
X12150000Y-19100000D02*
X12150000Y-19550000D01*
X10800000Y-19100000D02*
X12150000Y-19100000D01*
%TO.N,AFE_GATE*%
X10100000Y-21950000D02*
X9850000Y-22250000D01*
X9850000Y-23025000D02*
X9500000Y-23025000D01*
X10300000Y-19900000D02*
X10300000Y-21850000D01*
X9850000Y-22250000D02*
X9850000Y-23025000D01*
%TO.N,ISET*%
X12270000Y-17150000D02*
X12320000Y-16750000D01*
X13900000Y-17550000D02*
X13900000Y-17150000D01*
X12270000Y-17150000D02*
X12270000Y-18350000D01*
X13900000Y-17150000D02*
X12270000Y-17150000D01*
%TO.N,Q2_G*%
X13250000Y-19325000D02*
X13250000Y-20020000D01*
X13250000Y-20020000D02*
X13750000Y-20020000D01*
X13750000Y-20020000D02*
X14130000Y-20850000D01*
X12850000Y-19325000D02*
X13250000Y-19325000D01*
%TO.N,AFE_VIN*%
X10600000Y-22200000D02*
X10250000Y-22550000D01*
X11100000Y-21650000D02*
X10600000Y-22200000D01*
X11000000Y-21425000D02*
X11000000Y-21075000D01*
X10200000Y-23050000D02*
X9530000Y-23900000D01*
%TD*%
%TA.AperFunction,Conductor*%
%TO.N,GND*%
G36*
X6733278Y-25092224D02*
G01*
X6782877Y-25098746D01*
X6817363Y-25143674D01*
X6819877Y-25161565D01*
X6968939Y-33828443D01*
X6948168Y-33881134D01*
X6947277Y-33882041D01*
X6894528Y-33934791D01*
X6848386Y-34014710D01*
X6848384Y-34014715D01*
X6824500Y-34103853D01*
X6824500Y-34196146D01*
X6848384Y-34285284D01*
X6848386Y-34285289D01*
X6894528Y-34365208D01*
X6894529Y-34365209D01*
X6894531Y-34365212D01*
X6959788Y-34430469D01*
X7039712Y-34476614D01*
X7039713Y-34476614D01*
X7039715Y-34476615D01*
X7084284Y-34488557D01*
X7128853Y-34500499D01*
X7128854Y-34500500D01*
X7128856Y-34500500D01*
X7221146Y-34500500D01*
X7221146Y-34500499D01*
X7310288Y-34476614D01*
X7390212Y-34430469D01*
X7401606Y-34419074D01*
X7453929Y-34397400D01*
X7506255Y-34419072D01*
X7522298Y-34443081D01*
X7588076Y-34601881D01*
X7588076Y-34658518D01*
X7548028Y-34698567D01*
X7519709Y-34704200D01*
X7391470Y-34704200D01*
X7364877Y-34709489D01*
X7257049Y-34730937D01*
X7257038Y-34730940D01*
X7130419Y-34783387D01*
X7016453Y-34859536D01*
X7016452Y-34859538D01*
X6919538Y-34956452D01*
X6919536Y-34956453D01*
X6843387Y-35070419D01*
X6790940Y-35197038D01*
X6790937Y-35197049D01*
X6764200Y-35331470D01*
X6764200Y-35468529D01*
X6790937Y-35602950D01*
X6790940Y-35602961D01*
X6843387Y-35729580D01*
X6843389Y-35729583D01*
X6843390Y-35729585D01*
X6919537Y-35843547D01*
X7016453Y-35940463D01*
X7130415Y-36016610D01*
X7130420Y-36016612D01*
X7130419Y-36016612D01*
X7176408Y-36035661D01*
X7257043Y-36069061D01*
X7391470Y-36095800D01*
X7391471Y-36095800D01*
X7528529Y-36095800D01*
X7528530Y-36095800D01*
X7662957Y-36069061D01*
X7789585Y-36016610D01*
X7903547Y-35940463D01*
X8000463Y-35843547D01*
X8076610Y-35729585D01*
X8129061Y-35602957D01*
X8148385Y-35505805D01*
X8179849Y-35458716D01*
X8235398Y-35447666D01*
X8266010Y-35461536D01*
X8618504Y-35732014D01*
X8800000Y-35871281D01*
X9571779Y-36190962D01*
X10400000Y-36300000D01*
X11228220Y-36190962D01*
X11867455Y-35926183D01*
X11924092Y-35926183D01*
X11964140Y-35966231D01*
X11964140Y-36022869D01*
X11957302Y-36035661D01*
X11923390Y-36086414D01*
X11923387Y-36086419D01*
X11870940Y-36213038D01*
X11870937Y-36213049D01*
X11853642Y-36300000D01*
X11844200Y-36347470D01*
X11844200Y-36484530D01*
X11844252Y-36484791D01*
X11870937Y-36618950D01*
X11870940Y-36618961D01*
X11923387Y-36745580D01*
X11966022Y-36809388D01*
X11977071Y-36864937D01*
X11945605Y-36912029D01*
X11904493Y-36924500D01*
X8554800Y-36924500D01*
X8445200Y-36924500D01*
X8403258Y-36941873D01*
X8343943Y-36966442D01*
X8266442Y-37043943D01*
X8224500Y-37145200D01*
X8224500Y-37526000D01*
X8202826Y-37578326D01*
X8150500Y-37600000D01*
X7617883Y-37600000D01*
X7565557Y-37578326D01*
X7546405Y-37545153D01*
X7530022Y-37484014D01*
X7530020Y-37484009D01*
X7490459Y-37415488D01*
X7434511Y-37359540D01*
X7365990Y-37319979D01*
X7365985Y-37319977D01*
X7289564Y-37299500D01*
X7289562Y-37299500D01*
X6524000Y-37299500D01*
X6471674Y-37277826D01*
X6450000Y-37225500D01*
X6450000Y-36653853D01*
X7249500Y-36653853D01*
X7249500Y-36746146D01*
X7273384Y-36835284D01*
X7273386Y-36835289D01*
X7319528Y-36915208D01*
X7319529Y-36915209D01*
X7319531Y-36915212D01*
X7384788Y-36980469D01*
X7464712Y-37026614D01*
X7464713Y-37026614D01*
X7464715Y-37026615D01*
X7509284Y-37038557D01*
X7553853Y-37050499D01*
X7553854Y-37050500D01*
X7553856Y-37050500D01*
X7646146Y-37050500D01*
X7646146Y-37050499D01*
X7735288Y-37026614D01*
X7815212Y-36980469D01*
X7880469Y-36915212D01*
X7926614Y-36835288D01*
X7950499Y-36746146D01*
X7950500Y-36746146D01*
X7950500Y-36653854D01*
X7950499Y-36653853D01*
X7926615Y-36564715D01*
X7926613Y-36564710D01*
X7880471Y-36484791D01*
X7880470Y-36484790D01*
X7880469Y-36484788D01*
X7815212Y-36419531D01*
X7815209Y-36419529D01*
X7815208Y-36419528D01*
X7735289Y-36373386D01*
X7735284Y-36373384D01*
X7646146Y-36349500D01*
X7646144Y-36349500D01*
X7553856Y-36349500D01*
X7553854Y-36349500D01*
X7464715Y-36373384D01*
X7464710Y-36373386D01*
X7384791Y-36419528D01*
X7319528Y-36484791D01*
X7273386Y-36564710D01*
X7273384Y-36564715D01*
X7249500Y-36653853D01*
X6450000Y-36653853D01*
X6450000Y-25192486D01*
X6471674Y-25140160D01*
X6514339Y-25119119D01*
X6688215Y-25096228D01*
X6733029Y-25090329D01*
X6733278Y-25092224D01*
G37*
%TD.AperFunction*%
%TA.AperFunction,Conductor*%
G36*
X15052826Y-29040929D02*
G01*
X15074500Y-29093255D01*
X15074500Y-36850500D01*
X15052826Y-36902826D01*
X15000500Y-36924500D01*
X13175507Y-36924500D01*
X13123181Y-36902826D01*
X13101507Y-36850500D01*
X13113978Y-36809388D01*
X13156610Y-36745585D01*
X13209061Y-36618957D01*
X13235800Y-36484530D01*
X13235800Y-36347470D01*
X13209061Y-36213043D01*
X13199915Y-36190962D01*
X13156612Y-36086419D01*
X13156611Y-36086417D01*
X13156610Y-36086415D01*
X13080463Y-35972453D01*
X12983547Y-35875537D01*
X12977177Y-35871281D01*
X12935672Y-35843548D01*
X12869585Y-35799390D01*
X12869581Y-35799388D01*
X12869579Y-35799387D01*
X12869580Y-35799387D01*
X12742961Y-35746940D01*
X12742950Y-35746937D01*
X12641680Y-35726793D01*
X12608530Y-35720200D01*
X12471470Y-35720200D01*
X12412074Y-35732014D01*
X12356525Y-35720964D01*
X12325060Y-35673872D01*
X12336110Y-35618323D01*
X12352587Y-35600730D01*
X12662741Y-35362741D01*
X13047204Y-34861698D01*
X13053572Y-34854437D01*
X13080463Y-34827547D01*
X13126646Y-34758427D01*
X13129463Y-34754497D01*
X13171281Y-34700000D01*
X13490962Y-33928220D01*
X13600000Y-33100000D01*
X13490962Y-32271779D01*
X13171281Y-31500000D01*
X12662741Y-30837258D01*
X12000000Y-30328718D01*
X11426977Y-30091364D01*
X11386929Y-30051316D01*
X11386929Y-29994678D01*
X11426977Y-29954630D01*
X11457376Y-29949026D01*
X12066920Y-29966196D01*
X12117161Y-29987841D01*
X12119529Y-29990209D01*
X12119531Y-29990212D01*
X12184788Y-30055469D01*
X12184790Y-30055470D01*
X12184791Y-30055471D01*
X12264710Y-30101613D01*
X12264712Y-30101614D01*
X12264713Y-30101614D01*
X12264715Y-30101615D01*
X12309284Y-30113557D01*
X12353853Y-30125499D01*
X12353854Y-30125500D01*
X12353856Y-30125500D01*
X12446146Y-30125500D01*
X12446146Y-30125499D01*
X12535288Y-30101614D01*
X12615212Y-30055469D01*
X12680469Y-29990212D01*
X12726614Y-29910288D01*
X12750499Y-29821146D01*
X12750500Y-29821146D01*
X12750500Y-29724006D01*
X12754322Y-29724006D01*
X12764283Y-29680988D01*
X12812333Y-29651007D01*
X12824499Y-29650000D01*
X12874622Y-29650000D01*
X12947545Y-29635494D01*
X13030239Y-29580240D01*
X13030240Y-29580239D01*
X13085494Y-29497545D01*
X13100000Y-29424622D01*
X13100000Y-29420255D01*
X13121674Y-29367929D01*
X13174000Y-29346255D01*
X13211000Y-29356169D01*
X13289710Y-29401613D01*
X13289712Y-29401614D01*
X13289713Y-29401614D01*
X13289715Y-29401615D01*
X13334284Y-29413557D01*
X13378853Y-29425499D01*
X13378854Y-29425500D01*
X13378856Y-29425500D01*
X13471146Y-29425500D01*
X13471146Y-29425499D01*
X13560288Y-29401614D01*
X13640212Y-29355469D01*
X13648836Y-29346844D01*
X13701157Y-29325168D01*
X13704523Y-29325500D01*
X13710118Y-29325500D01*
X14189881Y-29325500D01*
X14189882Y-29325500D01*
X14263574Y-29294976D01*
X14263578Y-29294971D01*
X14269632Y-29290927D01*
X14270106Y-29291636D01*
X14284494Y-29282020D01*
X14313574Y-29269976D01*
X14357616Y-29225932D01*
X14387926Y-29207610D01*
X14397719Y-29204560D01*
X14397722Y-29204556D01*
X14403295Y-29201524D01*
X14408311Y-29198492D01*
X14413572Y-29194977D01*
X14413572Y-29194976D01*
X14413574Y-29194976D01*
X14432981Y-29175567D01*
X14437911Y-29171065D01*
X14502010Y-29117651D01*
X14549383Y-29100500D01*
X14819746Y-29100500D01*
X14819748Y-29100500D01*
X14878231Y-29088867D01*
X14944552Y-29044552D01*
X14944556Y-29044545D01*
X14948174Y-29040929D01*
X15000500Y-29019255D01*
X15052826Y-29040929D01*
G37*
%TD.AperFunction*%
%TA.AperFunction,Conductor*%
G36*
X8060646Y-24434354D02*
G01*
X8071473Y-24458247D01*
X8071712Y-24458149D01*
X8074500Y-24464880D01*
X8074500Y-24464882D01*
X8082095Y-24483218D01*
X8085479Y-24493438D01*
X8090331Y-24512682D01*
X8090333Y-24512686D01*
X8093802Y-24517349D01*
X8102797Y-24533199D01*
X8105022Y-24538571D01*
X8109074Y-24544635D01*
X8108366Y-24545107D01*
X8117972Y-24559481D01*
X8118861Y-24561626D01*
X8123062Y-24582737D01*
X8123078Y-24582734D01*
X8125921Y-24597028D01*
X8125875Y-24597037D01*
X8126643Y-24600178D01*
X8126689Y-24600165D01*
X8128726Y-24607159D01*
X8141613Y-24631929D01*
X8144333Y-24637764D01*
X8155023Y-24663572D01*
X8159074Y-24669635D01*
X8159033Y-24669661D01*
X8166648Y-24680049D01*
X10066614Y-28331932D01*
X10069334Y-28337767D01*
X10080024Y-28363574D01*
X10080026Y-28363576D01*
X10084071Y-28369629D01*
X10084030Y-28369656D01*
X10085942Y-28372265D01*
X10085980Y-28372235D01*
X10090540Y-28377920D01*
X10098692Y-28384763D01*
X10119481Y-28413121D01*
X10130024Y-28438574D01*
X10155024Y-28463574D01*
X10180024Y-28488574D01*
X10261426Y-28569976D01*
X10290504Y-28582020D01*
X10314510Y-28598060D01*
X10336426Y-28619976D01*
X10410118Y-28650500D01*
X10410121Y-28650500D01*
X10417267Y-28651922D01*
X10417264Y-28651936D01*
X10438361Y-28656133D01*
X10485118Y-28675500D01*
X11271206Y-28675500D01*
X11286563Y-28677111D01*
X11297409Y-28679412D01*
X11297409Y-28679411D01*
X11297410Y-28679412D01*
X11311766Y-28676745D01*
X11325282Y-28675500D01*
X11339879Y-28675500D01*
X11339882Y-28675500D01*
X11350134Y-28671252D01*
X11364928Y-28666867D01*
X11375831Y-28664843D01*
X11388080Y-28656880D01*
X11400074Y-28650567D01*
X11413574Y-28644976D01*
X11421420Y-28637128D01*
X11433406Y-28627417D01*
X11585172Y-28528770D01*
X11640856Y-28518427D01*
X11687545Y-28550487D01*
X11699500Y-28590816D01*
X11699500Y-28624674D01*
X11714034Y-28697740D01*
X11733851Y-28727398D01*
X11737029Y-28732154D01*
X11749500Y-28773266D01*
X11749500Y-28925500D01*
X11727826Y-28977826D01*
X11675500Y-28999500D01*
X10875833Y-28999500D01*
X10823508Y-28977826D01*
X10765212Y-28919531D01*
X10765209Y-28919529D01*
X10685289Y-28873386D01*
X10685284Y-28873384D01*
X10596146Y-28849500D01*
X10596144Y-28849500D01*
X10503856Y-28849500D01*
X10503854Y-28849500D01*
X10414715Y-28873384D01*
X10414710Y-28873386D01*
X10334791Y-28919528D01*
X10269528Y-28984791D01*
X10223386Y-29064710D01*
X10223384Y-29064715D01*
X10199500Y-29153853D01*
X10199500Y-29246146D01*
X10223384Y-29335284D01*
X10223386Y-29335289D01*
X10269528Y-29415208D01*
X10269529Y-29415209D01*
X10269531Y-29415212D01*
X10311545Y-29457226D01*
X10333219Y-29509551D01*
X10323305Y-29546551D01*
X10298386Y-29589710D01*
X10298384Y-29589715D01*
X10274500Y-29678853D01*
X10274500Y-29771143D01*
X10290287Y-29830063D01*
X10282894Y-29886215D01*
X10237960Y-29920694D01*
X10228467Y-29922582D01*
X9571780Y-30009036D01*
X9571779Y-30009036D01*
X8799998Y-30328718D01*
X8137258Y-30837257D01*
X8137253Y-30837263D01*
X7628718Y-31499999D01*
X7478096Y-31863632D01*
X7438047Y-31903680D01*
X7381410Y-31903680D01*
X7341362Y-31863631D01*
X7335740Y-31836586D01*
X7306311Y-30125499D01*
X7217112Y-24939177D01*
X7237883Y-24886487D01*
X7262779Y-24869540D01*
X7500000Y-24771281D01*
X7956891Y-24420694D01*
X8011597Y-24406036D01*
X8060646Y-24434354D01*
G37*
%TD.AperFunction*%
%TA.AperFunction,Conductor*%
G36*
X12446613Y-24518313D02*
G01*
X12473658Y-24541495D01*
X12499282Y-24592004D01*
X12499500Y-24597680D01*
X12499500Y-24646146D01*
X12523384Y-24735284D01*
X12523386Y-24735289D01*
X12569528Y-24815208D01*
X12569529Y-24815209D01*
X12569531Y-24815212D01*
X12634788Y-24880469D01*
X12634790Y-24880470D01*
X12634791Y-24880471D01*
X12668616Y-24900000D01*
X12714712Y-24926614D01*
X12714713Y-24926614D01*
X12714715Y-24926615D01*
X12743109Y-24934223D01*
X12803853Y-24950499D01*
X12803854Y-24950500D01*
X12803856Y-24950500D01*
X12896146Y-24950500D01*
X12896146Y-24950499D01*
X12985288Y-24926614D01*
X13065212Y-24880469D01*
X13130469Y-24815212D01*
X13176614Y-24735288D01*
X13193961Y-24670546D01*
X13228438Y-24625614D01*
X13284591Y-24618221D01*
X13329525Y-24652699D01*
X13336070Y-24667628D01*
X13595521Y-25497868D01*
X13595522Y-25497870D01*
X13602307Y-25505998D01*
X13619500Y-25553421D01*
X13619500Y-25827622D01*
X13622269Y-25851495D01*
X13622269Y-25851497D01*
X13622270Y-25851498D01*
X13665384Y-25949141D01*
X13740859Y-26024616D01*
X13838502Y-26067730D01*
X13862377Y-26070500D01*
X14217622Y-26070499D01*
X14241498Y-26067730D01*
X14339141Y-26024616D01*
X14414616Y-25949141D01*
X14455380Y-25856818D01*
X14496343Y-25817706D01*
X14552965Y-25819014D01*
X14592078Y-25859977D01*
X14594081Y-25867812D01*
X14594347Y-25867735D01*
X14595931Y-25873170D01*
X14595931Y-25873171D01*
X14595932Y-25873173D01*
X14645935Y-25980404D01*
X14729596Y-26064065D01*
X14836827Y-26114068D01*
X14885684Y-26120500D01*
X15000500Y-26120500D01*
X15052826Y-26142174D01*
X15074500Y-26194500D01*
X15074500Y-26745727D01*
X15052826Y-26798053D01*
X15000500Y-26819727D01*
X14948174Y-26798053D01*
X14936727Y-26786606D01*
X14837549Y-26742814D01*
X14837542Y-26742812D01*
X14813298Y-26740000D01*
X14730000Y-26740000D01*
X14730000Y-27660000D01*
X14813298Y-27660000D01*
X14837542Y-27657187D01*
X14837549Y-27657185D01*
X14936727Y-27613393D01*
X14948174Y-27601947D01*
X15000500Y-27580273D01*
X15052826Y-27601947D01*
X15074500Y-27654273D01*
X15074500Y-28106745D01*
X15052826Y-28159071D01*
X15000500Y-28180745D01*
X14948174Y-28159071D01*
X14944554Y-28155451D01*
X14944552Y-28155448D01*
X14922343Y-28140608D01*
X14878232Y-28111133D01*
X14878233Y-28111133D01*
X14848989Y-28105316D01*
X14819748Y-28099500D01*
X14480252Y-28099500D01*
X14451010Y-28105316D01*
X14421767Y-28111133D01*
X14355448Y-28155448D01*
X14351963Y-28158933D01*
X14299636Y-28180604D01*
X14247314Y-28158930D01*
X14244191Y-28155807D01*
X14178035Y-28111603D01*
X14119697Y-28100000D01*
X14050000Y-28100000D01*
X14050000Y-28526000D01*
X14028326Y-28578326D01*
X14008022Y-28592713D01*
X13950000Y-28620563D01*
X13950000Y-28626000D01*
X13928326Y-28678326D01*
X13876000Y-28700000D01*
X13599999Y-28700000D01*
X13583656Y-28716343D01*
X13531330Y-28738016D01*
X13512179Y-28735495D01*
X13471144Y-28724500D01*
X13388424Y-28724500D01*
X13344527Y-28710074D01*
X13130603Y-28552445D01*
X13101335Y-28503956D01*
X13100500Y-28492871D01*
X13100500Y-28375327D01*
X13098162Y-28363574D01*
X13085966Y-28302260D01*
X13071294Y-28280302D01*
X13600000Y-28280302D01*
X13600000Y-28500000D01*
X13850000Y-28500000D01*
X13850000Y-28100000D01*
X13780303Y-28100000D01*
X13721964Y-28111603D01*
X13655808Y-28155807D01*
X13655807Y-28155808D01*
X13611603Y-28221964D01*
X13600000Y-28280302D01*
X13071294Y-28280302D01*
X13030601Y-28219399D01*
X12947740Y-28164034D01*
X12947739Y-28164033D01*
X12943540Y-28161228D01*
X12912074Y-28114136D01*
X12923123Y-28058587D01*
X12943540Y-28038170D01*
X13030239Y-27980240D01*
X13030240Y-27980239D01*
X13085494Y-27897545D01*
X13100000Y-27824622D01*
X13100000Y-27800000D01*
X12794000Y-27800000D01*
X12741674Y-27778326D01*
X12720000Y-27726000D01*
X12720000Y-27674000D01*
X12741674Y-27621674D01*
X12794000Y-27600000D01*
X13100000Y-27600000D01*
X13100000Y-27575377D01*
X13085494Y-27502454D01*
X13030240Y-27419760D01*
X13030239Y-27419759D01*
X12943540Y-27361829D01*
X12912074Y-27314737D01*
X12923123Y-27259188D01*
X12943542Y-27238770D01*
X12947738Y-27235966D01*
X12947740Y-27235966D01*
X12982157Y-27212970D01*
X13023267Y-27200500D01*
X13165501Y-27200500D01*
X13217827Y-27222174D01*
X13239501Y-27274500D01*
X13239501Y-27413372D01*
X13242317Y-27437659D01*
X13242317Y-27437661D01*
X13242318Y-27437662D01*
X13286187Y-27537016D01*
X13362984Y-27613813D01*
X13462338Y-27657682D01*
X13486627Y-27660500D01*
X13853372Y-27660499D01*
X13877662Y-27657682D01*
X13977016Y-27613813D01*
X14053813Y-27537016D01*
X14082579Y-27471867D01*
X14123541Y-27432755D01*
X14180163Y-27434063D01*
X14217967Y-27471867D01*
X14246606Y-27536727D01*
X14323272Y-27613393D01*
X14422450Y-27657185D01*
X14422457Y-27657187D01*
X14446702Y-27660000D01*
X14530000Y-27660000D01*
X14530000Y-26740000D01*
X14446702Y-26740000D01*
X14422457Y-26742812D01*
X14422450Y-26742814D01*
X14323272Y-26786606D01*
X14246606Y-26863272D01*
X14217967Y-26928132D01*
X14177004Y-26967244D01*
X14120382Y-26965935D01*
X14082578Y-26928131D01*
X14065833Y-26890207D01*
X14053813Y-26862984D01*
X13977016Y-26786187D01*
X13877662Y-26742318D01*
X13877663Y-26742318D01*
X13872804Y-26741754D01*
X13853373Y-26739500D01*
X13853369Y-26739500D01*
X13486627Y-26739500D01*
X13462340Y-26742317D01*
X13362984Y-26786187D01*
X13362453Y-26786551D01*
X13361472Y-26786854D01*
X13356711Y-26788957D01*
X13356467Y-26788404D01*
X13320634Y-26799500D01*
X13180488Y-26799500D01*
X13128162Y-26777826D01*
X13106488Y-26725500D01*
X13112121Y-26697181D01*
X13125500Y-26664881D01*
X13125500Y-26160118D01*
X13125499Y-26160116D01*
X13106133Y-26113361D01*
X13101936Y-26092264D01*
X13101922Y-26092267D01*
X13100500Y-26085121D01*
X13100500Y-26085118D01*
X13085238Y-26048272D01*
X13069977Y-26011428D01*
X13069975Y-26011425D01*
X13048060Y-25989510D01*
X13032020Y-25965504D01*
X13019976Y-25936426D01*
X12963574Y-25880024D01*
X12938574Y-25855024D01*
X12913574Y-25830024D01*
X12888574Y-25805024D01*
X12859493Y-25792978D01*
X12835487Y-25776937D01*
X12813575Y-25755025D01*
X12813571Y-25755022D01*
X12739883Y-25724500D01*
X12732733Y-25723078D01*
X12732735Y-25723063D01*
X12711639Y-25718867D01*
X12664882Y-25699500D01*
X11158942Y-25699500D01*
X11117554Y-25686843D01*
X10449107Y-25235843D01*
X10417853Y-25188610D01*
X10429152Y-25133112D01*
X10476385Y-25101858D01*
X10490495Y-25100500D01*
X10496146Y-25100500D01*
X10496146Y-25100499D01*
X10585288Y-25076614D01*
X10665212Y-25030469D01*
X10714914Y-24980766D01*
X10767239Y-24959093D01*
X10812482Y-24977833D01*
X10813339Y-24976552D01*
X10819399Y-24980601D01*
X10902260Y-25035966D01*
X10975326Y-25050500D01*
X10975328Y-25050500D01*
X11284672Y-25050500D01*
X11284674Y-25050500D01*
X11357740Y-25035966D01*
X11409339Y-25001488D01*
X11464887Y-24990440D01*
X11491562Y-25001489D01*
X11542455Y-25035494D01*
X11615378Y-25050000D01*
X11670000Y-25050000D01*
X11870000Y-25050000D01*
X11924622Y-25050000D01*
X11997545Y-25035494D01*
X12080239Y-24980240D01*
X12080240Y-24980239D01*
X12135494Y-24897545D01*
X12150000Y-24824622D01*
X12150000Y-24800000D01*
X11870000Y-24800000D01*
X11870000Y-25050000D01*
X11670000Y-25050000D01*
X11670000Y-24774000D01*
X11691674Y-24721674D01*
X11711978Y-24707287D01*
X11770000Y-24679436D01*
X11770000Y-24674000D01*
X11791674Y-24621674D01*
X11844000Y-24600000D01*
X12150000Y-24600000D01*
X12150000Y-24574500D01*
X12171674Y-24522174D01*
X12224000Y-24500500D01*
X12398456Y-24500500D01*
X12446613Y-24518313D01*
G37*
%TD.AperFunction*%
%TA.AperFunction,Conductor*%
G36*
X14900434Y-19839077D02*
G01*
X14901640Y-19837507D01*
X14905486Y-19840458D01*
X14956217Y-19869748D01*
X14974011Y-19880021D01*
X14974012Y-19880021D01*
X14974014Y-19880022D01*
X14987065Y-19883519D01*
X15050435Y-19900499D01*
X15050436Y-19900500D01*
X15050438Y-19900500D01*
X15382251Y-19900500D01*
X15434577Y-19922174D01*
X15453729Y-19955347D01*
X15469977Y-20015985D01*
X15469979Y-20015990D01*
X15503831Y-20074622D01*
X15509540Y-20084511D01*
X15565489Y-20140460D01*
X15634011Y-20180021D01*
X15695154Y-20196404D01*
X15740086Y-20230882D01*
X15750000Y-20267882D01*
X15750000Y-22032117D01*
X15728326Y-22084443D01*
X15695153Y-22103595D01*
X15634014Y-22119977D01*
X15634009Y-22119979D01*
X15565488Y-22159540D01*
X15509540Y-22215488D01*
X15469979Y-22284009D01*
X15469977Y-22284014D01*
X15449500Y-22360435D01*
X15449500Y-25047335D01*
X15427826Y-25099661D01*
X15375500Y-25121335D01*
X15344227Y-25114402D01*
X15283173Y-25085932D01*
X15283171Y-25085931D01*
X15247178Y-25081193D01*
X15234316Y-25079500D01*
X14885684Y-25079500D01*
X14874318Y-25080996D01*
X14836828Y-25085931D01*
X14729595Y-25135935D01*
X14645935Y-25219595D01*
X14595931Y-25326829D01*
X14594347Y-25332265D01*
X14591541Y-25331447D01*
X14568108Y-25372011D01*
X14513397Y-25386655D01*
X14464355Y-25358324D01*
X14455382Y-25343184D01*
X14414616Y-25250859D01*
X14339141Y-25175384D01*
X14241498Y-25132270D01*
X14217623Y-25129500D01*
X14217619Y-25129500D01*
X13954935Y-25129500D01*
X13902609Y-25107826D01*
X13884304Y-25077573D01*
X13858991Y-24996573D01*
X13864070Y-24940164D01*
X13907549Y-24903869D01*
X13929622Y-24900500D01*
X14234672Y-24900500D01*
X14234674Y-24900500D01*
X14307740Y-24885966D01*
X14359339Y-24851488D01*
X14414887Y-24840440D01*
X14441562Y-24851489D01*
X14492455Y-24885494D01*
X14565378Y-24900000D01*
X14620000Y-24900000D01*
X14820000Y-24900000D01*
X14874622Y-24900000D01*
X14947545Y-24885494D01*
X15030239Y-24830240D01*
X15030240Y-24830239D01*
X15085494Y-24747545D01*
X15100000Y-24674622D01*
X15100000Y-24650000D01*
X14820000Y-24650000D01*
X14820000Y-24900000D01*
X14620000Y-24900000D01*
X14620000Y-24450000D01*
X14820000Y-24450000D01*
X15100000Y-24450000D01*
X15100000Y-24425377D01*
X15085494Y-24352454D01*
X15030240Y-24269760D01*
X15030239Y-24269759D01*
X14947545Y-24214505D01*
X14874622Y-24200000D01*
X14820000Y-24200000D01*
X14820000Y-24450000D01*
X14620000Y-24450000D01*
X14620000Y-24199296D01*
X14641674Y-24146970D01*
X14657003Y-24135209D01*
X14665207Y-24130472D01*
X14665207Y-24130471D01*
X14665212Y-24130469D01*
X14730469Y-24065212D01*
X14776614Y-23985288D01*
X14779411Y-23974845D01*
X14813890Y-23929914D01*
X14849674Y-23920325D01*
X14850000Y-23920000D01*
X15050000Y-23920000D01*
X15074622Y-23920000D01*
X15147545Y-23905494D01*
X15230239Y-23850240D01*
X15230240Y-23850239D01*
X15285494Y-23767545D01*
X15300000Y-23694622D01*
X15300000Y-23640000D01*
X15050000Y-23640000D01*
X15050000Y-23920000D01*
X14850000Y-23920000D01*
X14850000Y-23614000D01*
X14871674Y-23561674D01*
X14891978Y-23547287D01*
X14950000Y-23519436D01*
X14950000Y-23514000D01*
X14971674Y-23461674D01*
X15024000Y-23440000D01*
X15300000Y-23440000D01*
X15300000Y-23385377D01*
X15285494Y-23312455D01*
X15251489Y-23261562D01*
X15240440Y-23206014D01*
X15251487Y-23179341D01*
X15285966Y-23127740D01*
X15300500Y-23054674D01*
X15300500Y-22745326D01*
X15285966Y-22672260D01*
X15230601Y-22589399D01*
X15223285Y-22584511D01*
X15147740Y-22534034D01*
X15142793Y-22533050D01*
X15074674Y-22519500D01*
X14825326Y-22519500D01*
X14822651Y-22520031D01*
X14813931Y-22521766D01*
X14758383Y-22510713D01*
X14726920Y-22463619D01*
X14728020Y-22430037D01*
X14750500Y-22346144D01*
X14750500Y-22346136D01*
X14750513Y-22346039D01*
X14750541Y-22345989D01*
X14751756Y-22341458D01*
X14752968Y-22341783D01*
X14778820Y-22296983D01*
X14833524Y-22282312D01*
X14843033Y-22284202D01*
X14903853Y-22300499D01*
X14903854Y-22300500D01*
X14903856Y-22300500D01*
X14996146Y-22300500D01*
X14996146Y-22300499D01*
X15085288Y-22276614D01*
X15165212Y-22230469D01*
X15230469Y-22165212D01*
X15276614Y-22085288D01*
X15300499Y-21996146D01*
X15300500Y-21996146D01*
X15300500Y-21903854D01*
X15300499Y-21903853D01*
X15295581Y-21885500D01*
X15288557Y-21859284D01*
X15276615Y-21814715D01*
X15276613Y-21814710D01*
X15230471Y-21734791D01*
X15230470Y-21734790D01*
X15230469Y-21734788D01*
X15165212Y-21669531D01*
X15165209Y-21669529D01*
X15165208Y-21669528D01*
X15085289Y-21623386D01*
X15085284Y-21623384D01*
X14996146Y-21599500D01*
X14996144Y-21599500D01*
X14903856Y-21599500D01*
X14818171Y-21622459D01*
X14762019Y-21615066D01*
X14727540Y-21570132D01*
X14727541Y-21531827D01*
X14750499Y-21446146D01*
X14750500Y-21446146D01*
X14750500Y-21353854D01*
X14750499Y-21353853D01*
X14748811Y-21347555D01*
X14726614Y-21264712D01*
X14726492Y-21264500D01*
X14689253Y-21200000D01*
X14870000Y-21200000D01*
X14924622Y-21200000D01*
X14997545Y-21185494D01*
X15080239Y-21130240D01*
X15080240Y-21130239D01*
X15135494Y-21047545D01*
X15150000Y-20974622D01*
X15150000Y-20950000D01*
X14870000Y-20950000D01*
X14870000Y-21200000D01*
X14689253Y-21200000D01*
X14679914Y-21183825D01*
X14670000Y-21146825D01*
X14670000Y-20750000D01*
X14870000Y-20750000D01*
X15150000Y-20750000D01*
X15150000Y-20725377D01*
X15135494Y-20652454D01*
X15080240Y-20569760D01*
X15080239Y-20569759D01*
X14997545Y-20514505D01*
X14924622Y-20500000D01*
X14870000Y-20500000D01*
X14870000Y-20750000D01*
X14670000Y-20750000D01*
X14670000Y-20500000D01*
X14615378Y-20500000D01*
X14542454Y-20514505D01*
X14491562Y-20548510D01*
X14436013Y-20559559D01*
X14409338Y-20548510D01*
X14357740Y-20514034D01*
X14284674Y-20499500D01*
X14284672Y-20499500D01*
X14237552Y-20499500D01*
X14185226Y-20477826D01*
X14170268Y-20456305D01*
X14092542Y-20286535D01*
X14087248Y-20241294D01*
X14091384Y-20220500D01*
X14095958Y-20197505D01*
X14127422Y-20150416D01*
X14182971Y-20139366D01*
X14230063Y-20170831D01*
X14269758Y-20230238D01*
X14269760Y-20230240D01*
X14352454Y-20285494D01*
X14425378Y-20300000D01*
X14450000Y-20300000D01*
X14650000Y-20300000D01*
X14674622Y-20300000D01*
X14747545Y-20285494D01*
X14830239Y-20230240D01*
X14830240Y-20230239D01*
X14885494Y-20147545D01*
X14900000Y-20074622D01*
X14900000Y-20020000D01*
X14650000Y-20020000D01*
X14650000Y-20300000D01*
X14450000Y-20300000D01*
X14450000Y-19994000D01*
X14471674Y-19941674D01*
X14491978Y-19927287D01*
X14550000Y-19899436D01*
X14550000Y-19894000D01*
X14571674Y-19841674D01*
X14624000Y-19820000D01*
X14854377Y-19820000D01*
X14900434Y-19839077D01*
G37*
%TD.AperFunction*%
%TA.AperFunction,Conductor*%
G36*
X11685539Y-20911209D02*
G01*
X11716901Y-20940579D01*
X11740045Y-20980666D01*
X11949334Y-21189955D01*
X11981539Y-21214667D01*
X12059286Y-21235499D01*
X12059287Y-21235500D01*
X12059289Y-21235500D01*
X12225500Y-21235500D01*
X12277826Y-21257174D01*
X12299500Y-21309500D01*
X12299500Y-22015500D01*
X12277826Y-22067826D01*
X12225500Y-22089500D01*
X11946627Y-22089500D01*
X11922340Y-22092317D01*
X11822983Y-22136187D01*
X11746186Y-22212984D01*
X11717420Y-22278132D01*
X11676457Y-22317244D01*
X11619835Y-22315935D01*
X11582031Y-22278131D01*
X11553392Y-22213271D01*
X11476727Y-22136606D01*
X11377549Y-22092814D01*
X11377542Y-22092812D01*
X11353298Y-22090000D01*
X11270000Y-22090000D01*
X11270000Y-23010000D01*
X11353298Y-23010000D01*
X11377542Y-23007187D01*
X11377549Y-23007185D01*
X11476727Y-22963393D01*
X11553392Y-22886728D01*
X11582031Y-22821868D01*
X11622994Y-22782755D01*
X11679616Y-22784063D01*
X11717420Y-22821866D01*
X11746187Y-22887016D01*
X11822984Y-22963813D01*
X11885391Y-22991368D01*
X11924503Y-23032329D01*
X11929500Y-23059062D01*
X11929500Y-24025500D01*
X11907826Y-24077826D01*
X11855500Y-24099500D01*
X10624000Y-24099500D01*
X10571674Y-24077826D01*
X10550000Y-24025500D01*
X10550000Y-24000000D01*
X10244000Y-24000000D01*
X10191674Y-23978326D01*
X10177287Y-23958022D01*
X10149436Y-23900000D01*
X10144000Y-23900000D01*
X10091674Y-23878326D01*
X10070000Y-23826000D01*
X10070000Y-23800000D01*
X10270000Y-23800000D01*
X10550000Y-23800000D01*
X10550000Y-23775377D01*
X10535494Y-23702454D01*
X10480240Y-23619760D01*
X10480239Y-23619759D01*
X10397545Y-23564505D01*
X10324622Y-23550000D01*
X10270000Y-23550000D01*
X10270000Y-23800000D01*
X10070000Y-23800000D01*
X10070000Y-23564468D01*
X10085884Y-23518659D01*
X10089557Y-23514000D01*
X10235624Y-23328691D01*
X10285038Y-23301013D01*
X10293740Y-23300500D01*
X10369746Y-23300500D01*
X10369748Y-23300500D01*
X10428231Y-23288867D01*
X10494552Y-23244552D01*
X10538867Y-23178231D01*
X10550500Y-23119748D01*
X10550500Y-22763297D01*
X10740000Y-22763297D01*
X10742812Y-22787542D01*
X10742814Y-22787549D01*
X10786606Y-22886727D01*
X10863272Y-22963393D01*
X10962450Y-23007185D01*
X10962457Y-23007187D01*
X10986702Y-23010000D01*
X11070000Y-23010000D01*
X11070000Y-22650000D01*
X10740000Y-22650000D01*
X10740000Y-22763297D01*
X10550500Y-22763297D01*
X10550500Y-22563701D01*
X10572174Y-22511376D01*
X10585115Y-22498433D01*
X10634448Y-22449100D01*
X10686773Y-22427426D01*
X10739099Y-22449100D01*
X10739100Y-22449100D01*
X10740000Y-22450000D01*
X11070000Y-22450000D01*
X11070000Y-22090000D01*
X11068018Y-22088018D01*
X11046344Y-22035692D01*
X11065586Y-21985918D01*
X11134858Y-21909720D01*
X11186094Y-21885584D01*
X11189612Y-21885500D01*
X11450002Y-21885500D01*
X11450002Y-21885499D01*
X11527750Y-21864667D01*
X11584667Y-21807750D01*
X11605499Y-21730002D01*
X11605500Y-21730002D01*
X11605500Y-21629291D01*
X11605500Y-21629289D01*
X11600201Y-21589043D01*
X11559955Y-21519334D01*
X11350666Y-21310045D01*
X11348924Y-21308708D01*
X11320605Y-21259662D01*
X11335261Y-21204954D01*
X11348930Y-21191286D01*
X11350657Y-21189960D01*
X11350666Y-21189955D01*
X11559955Y-20980666D01*
X11584667Y-20948461D01*
X11584668Y-20948454D01*
X11586444Y-20944856D01*
X11629023Y-20907509D01*
X11685539Y-20911209D01*
G37*
%TD.AperFunction*%
%TA.AperFunction,Conductor*%
G36*
X11078326Y-20146674D02*
G01*
X11100000Y-20199000D01*
X11100000Y-20400000D01*
X11169697Y-20400000D01*
X11228035Y-20388396D01*
X11277730Y-20355191D01*
X11333278Y-20344142D01*
X11380371Y-20375608D01*
X11392758Y-20413201D01*
X11397918Y-20521576D01*
X11396097Y-20541779D01*
X11394029Y-20550715D01*
X11392308Y-20550316D01*
X11372399Y-20594434D01*
X11321732Y-20614500D01*
X10989998Y-20614500D01*
X10912250Y-20635332D01*
X10855332Y-20692250D01*
X10834500Y-20769997D01*
X10834500Y-20935900D01*
X10828867Y-20964218D01*
X10799500Y-21035116D01*
X10799500Y-21464883D01*
X10828867Y-21535781D01*
X10834500Y-21564099D01*
X10834500Y-21615374D01*
X10815256Y-21665152D01*
X10679256Y-21814752D01*
X10628020Y-21838890D01*
X10574722Y-21819730D01*
X10550584Y-21768494D01*
X10550500Y-21764974D01*
X10550500Y-21725327D01*
X10549377Y-21719682D01*
X10535966Y-21652260D01*
X10512970Y-21617844D01*
X10500500Y-21576733D01*
X10500500Y-20446950D01*
X10522174Y-20394624D01*
X10533387Y-20385422D01*
X10548074Y-20375608D01*
X10594552Y-20344552D01*
X10594556Y-20344545D01*
X10598030Y-20341072D01*
X10650355Y-20319395D01*
X10702682Y-20341066D01*
X10705808Y-20344192D01*
X10771964Y-20388396D01*
X10830303Y-20400000D01*
X10900000Y-20400000D01*
X10900000Y-20199000D01*
X10921674Y-20146674D01*
X10974000Y-20125000D01*
X11026000Y-20125000D01*
X11078326Y-20146674D01*
G37*
%TD.AperFunction*%
%TA.AperFunction,Conductor*%
G36*
X3367142Y-16796046D02*
G01*
X3378909Y-16811378D01*
X3384164Y-16820480D01*
X3390045Y-16830666D01*
X3599334Y-17039955D01*
X3631539Y-17064667D01*
X3709286Y-17085499D01*
X3709287Y-17085500D01*
X3709289Y-17085500D01*
X3751852Y-17085500D01*
X3804178Y-17107174D01*
X3819869Y-17130350D01*
X3840043Y-17177422D01*
X3840393Y-17178253D01*
X3855051Y-17213639D01*
X3855470Y-17214250D01*
X3855981Y-17215005D01*
X3856370Y-17215588D01*
X3883757Y-17242315D01*
X3884399Y-17242949D01*
X3915138Y-17273688D01*
X3936359Y-17317842D01*
X3947526Y-17418338D01*
X3947612Y-17433873D01*
X3924400Y-17665994D01*
X3897627Y-17715904D01*
X3879086Y-17726998D01*
X3811427Y-17755023D01*
X3811424Y-17755025D01*
X3637903Y-17928545D01*
X3585577Y-17950219D01*
X3578319Y-17949544D01*
X3578289Y-17949856D01*
X3574676Y-17949500D01*
X3574674Y-17949500D01*
X3265326Y-17949500D01*
X3231251Y-17956278D01*
X3192258Y-17964034D01*
X3140660Y-17998510D01*
X3085111Y-18009559D01*
X3058437Y-17998510D01*
X3007545Y-17964505D01*
X2934622Y-17950000D01*
X2880000Y-17950000D01*
X2880000Y-18650000D01*
X2934622Y-18650000D01*
X3007545Y-18635494D01*
X3058436Y-18601490D01*
X3113985Y-18590440D01*
X3140660Y-18601488D01*
X3192260Y-18635966D01*
X3265326Y-18650500D01*
X3265328Y-18650500D01*
X3574672Y-18650500D01*
X3574674Y-18650500D01*
X3647740Y-18635966D01*
X3730601Y-18580601D01*
X3785966Y-18497740D01*
X3785966Y-18497736D01*
X3788770Y-18493541D01*
X3835862Y-18462074D01*
X3891411Y-18473122D01*
X3911829Y-18493540D01*
X3969759Y-18580239D01*
X3969760Y-18580240D01*
X4052454Y-18635494D01*
X4125378Y-18650000D01*
X4180000Y-18650000D01*
X4180000Y-18374000D01*
X4201674Y-18321674D01*
X4254000Y-18300000D01*
X4306000Y-18300000D01*
X4358326Y-18321674D01*
X4380000Y-18374000D01*
X4380000Y-18650000D01*
X4434622Y-18650000D01*
X4507545Y-18635494D01*
X4558436Y-18601490D01*
X4613985Y-18590440D01*
X4640660Y-18601488D01*
X4692260Y-18635966D01*
X4765326Y-18650500D01*
X4854889Y-18650500D01*
X4907215Y-18672174D01*
X4921196Y-18691646D01*
X5001066Y-18852840D01*
X5004877Y-18909348D01*
X4967613Y-18952001D01*
X4963078Y-18954061D01*
X4299998Y-19228718D01*
X3637258Y-19737257D01*
X3637253Y-19737263D01*
X3128718Y-20399999D01*
X2809036Y-21171779D01*
X2809036Y-21171780D01*
X2763280Y-21519334D01*
X2734916Y-21734788D01*
X2734801Y-21735659D01*
X2706482Y-21784708D01*
X2661434Y-21800000D01*
X2624500Y-21800000D01*
X2572174Y-21778326D01*
X2550500Y-21726000D01*
X2550500Y-18724000D01*
X2572174Y-18671674D01*
X2624500Y-18650000D01*
X2680000Y-18650000D01*
X2680000Y-17950000D01*
X2624500Y-17950000D01*
X2572174Y-17928326D01*
X2550500Y-17876000D01*
X2550500Y-17807957D01*
X2572174Y-17755631D01*
X2624500Y-17733957D01*
X2635124Y-17735358D01*
X2635189Y-17734867D01*
X2639998Y-17735500D01*
X2640000Y-17735500D01*
X3100002Y-17735500D01*
X3100002Y-17735499D01*
X3177750Y-17714667D01*
X3234667Y-17657750D01*
X3255499Y-17580002D01*
X3255500Y-17580002D01*
X3255500Y-17479291D01*
X3255500Y-17479289D01*
X3250201Y-17439043D01*
X3209955Y-17369334D01*
X3000666Y-17160045D01*
X2998924Y-17158708D01*
X2970605Y-17109662D01*
X2985261Y-17054954D01*
X2998930Y-17041286D01*
X3000657Y-17039960D01*
X3000666Y-17039955D01*
X3209955Y-16830666D01*
X3213044Y-16826639D01*
X3243434Y-16803317D01*
X3263574Y-16794976D01*
X3263579Y-16794970D01*
X3269637Y-16790925D01*
X3270774Y-16792626D01*
X3314814Y-16774378D01*
X3367142Y-16796046D01*
G37*
%TD.AperFunction*%
%TA.AperFunction,Conductor*%
G36*
X12928326Y-19796674D02*
G01*
X12950000Y-19849000D01*
X12950000Y-20050000D01*
X12995962Y-20050000D01*
X13048288Y-20071674D01*
X13064329Y-20095682D01*
X13080022Y-20133571D01*
X13080023Y-20133573D01*
X13080024Y-20133574D01*
X13136426Y-20189976D01*
X13210118Y-20220500D01*
X13356279Y-20220500D01*
X13408605Y-20242174D01*
X13417808Y-20253388D01*
X13461911Y-20319395D01*
X13469399Y-20330601D01*
X13552260Y-20385966D01*
X13625326Y-20400500D01*
X13656183Y-20400500D01*
X13708509Y-20422174D01*
X13723467Y-20443696D01*
X13779425Y-20565921D01*
X13781500Y-20622520D01*
X13773672Y-20637833D01*
X13764035Y-20652256D01*
X13764033Y-20652261D01*
X13763995Y-20652454D01*
X13749500Y-20725326D01*
X13749500Y-20974674D01*
X13758886Y-21021860D01*
X13764034Y-21047740D01*
X13788521Y-21084388D01*
X13799570Y-21139937D01*
X13768104Y-21187029D01*
X13726992Y-21199500D01*
X12774500Y-21199500D01*
X12722174Y-21177826D01*
X12700500Y-21125500D01*
X12700500Y-21100180D01*
X12700533Y-21084388D01*
X12700583Y-21060538D01*
X12700581Y-21060535D01*
X12700555Y-21060397D01*
X12700516Y-21060199D01*
X12700500Y-21060118D01*
X12685312Y-21023452D01*
X12685252Y-21023307D01*
X12670213Y-20986781D01*
X12670212Y-20986780D01*
X12669977Y-20986427D01*
X12642071Y-20958521D01*
X12613930Y-20930262D01*
X12613927Y-20930260D01*
X12613764Y-20930151D01*
X12613575Y-20930024D01*
X12577187Y-20914952D01*
X12577068Y-20914833D01*
X12577044Y-20914893D01*
X12511038Y-20887390D01*
X12471074Y-20847257D01*
X12465500Y-20819082D01*
X12465500Y-20769998D01*
X12465499Y-20769997D01*
X12444667Y-20692250D01*
X12387749Y-20635332D01*
X12310002Y-20614500D01*
X12310000Y-20614500D01*
X12058967Y-20614500D01*
X12015955Y-20600716D01*
X12014076Y-20599374D01*
X11824845Y-20464208D01*
X11794864Y-20416157D01*
X11793941Y-20407512D01*
X11793607Y-20400500D01*
X11778588Y-20085102D01*
X11797748Y-20031807D01*
X11848984Y-20007669D01*
X11893616Y-20020055D01*
X11921769Y-20038867D01*
X11980252Y-20050500D01*
X11980254Y-20050500D01*
X12319746Y-20050500D01*
X12319748Y-20050500D01*
X12378231Y-20038867D01*
X12444552Y-19994552D01*
X12444556Y-19994545D01*
X12448030Y-19991072D01*
X12500355Y-19969395D01*
X12552682Y-19991066D01*
X12555808Y-19994192D01*
X12621964Y-20038396D01*
X12680303Y-20050000D01*
X12750000Y-20050000D01*
X12750000Y-19849000D01*
X12771674Y-19796674D01*
X12824000Y-19775000D01*
X12876000Y-19775000D01*
X12928326Y-19796674D01*
G37*
%TD.AperFunction*%
%TA.AperFunction,Conductor*%
G36*
X6834443Y-16021674D02*
G01*
X6853595Y-16054847D01*
X6869977Y-16115985D01*
X6869979Y-16115990D01*
X6906658Y-16179520D01*
X6909540Y-16184511D01*
X6965489Y-16240460D01*
X6989090Y-16254086D01*
X7033754Y-16279873D01*
X7034011Y-16280021D01*
X7034012Y-16280021D01*
X7034014Y-16280022D01*
X7072224Y-16290260D01*
X7110435Y-16300499D01*
X7110436Y-16300500D01*
X7110438Y-16300500D01*
X9189564Y-16300500D01*
X9189564Y-16300499D01*
X9265989Y-16280021D01*
X9334511Y-16240460D01*
X9390460Y-16184511D01*
X9430021Y-16115989D01*
X9436140Y-16093153D01*
X9446405Y-16054847D01*
X9480884Y-16009914D01*
X9517883Y-16000000D01*
X10188853Y-16000000D01*
X10241179Y-16021674D01*
X10262853Y-16074000D01*
X10241179Y-16126326D01*
X10225853Y-16138086D01*
X10154086Y-16179520D01*
X10079520Y-16254086D01*
X10026795Y-16345408D01*
X10026791Y-16345417D01*
X9999500Y-16447270D01*
X9999500Y-16552729D01*
X10000650Y-16557022D01*
X9993255Y-16613175D01*
X9990743Y-16617220D01*
X9937858Y-16696548D01*
X9890799Y-16728063D01*
X9876286Y-16729500D01*
X9725684Y-16729500D01*
X9714318Y-16730996D01*
X9676828Y-16735931D01*
X9569595Y-16785935D01*
X9485935Y-16869595D01*
X9435931Y-16976829D01*
X9434347Y-16982265D01*
X9431541Y-16981447D01*
X9408108Y-17022011D01*
X9353397Y-17036655D01*
X9304355Y-17008324D01*
X9295382Y-16993184D01*
X9254616Y-16900859D01*
X9179141Y-16825384D01*
X9081498Y-16782270D01*
X9057623Y-16779500D01*
X9057619Y-16779500D01*
X8702377Y-16779500D01*
X8678504Y-16782269D01*
X8580858Y-16825384D01*
X8505383Y-16900859D01*
X8472266Y-16975861D01*
X8431303Y-17014973D01*
X8400994Y-17018612D01*
X8400994Y-17019500D01*
X8303854Y-17019500D01*
X8214715Y-17043384D01*
X8214710Y-17043386D01*
X8134791Y-17089528D01*
X8069527Y-17154792D01*
X8069527Y-17154793D01*
X8036928Y-17211254D01*
X7991994Y-17245732D01*
X7935842Y-17238338D01*
X7911314Y-17215365D01*
X7880601Y-17169399D01*
X7880600Y-17169398D01*
X7797740Y-17114034D01*
X7776550Y-17109819D01*
X7724674Y-17099500D01*
X7415326Y-17099500D01*
X7378793Y-17106767D01*
X7342258Y-17114034D01*
X7290660Y-17148510D01*
X7235111Y-17159559D01*
X7208437Y-17148510D01*
X7157545Y-17114505D01*
X7084622Y-17100000D01*
X7030000Y-17100000D01*
X7030000Y-17800000D01*
X7084622Y-17800000D01*
X7157545Y-17785494D01*
X7208436Y-17751490D01*
X7263985Y-17740440D01*
X7290660Y-17751488D01*
X7342260Y-17785966D01*
X7415326Y-17800500D01*
X7415328Y-17800500D01*
X7724679Y-17800500D01*
X7728292Y-17800144D01*
X7728593Y-17803201D01*
X7775093Y-17811214D01*
X7787904Y-17821454D01*
X7800136Y-17833686D01*
X7821810Y-17886012D01*
X7811896Y-17923011D01*
X7787940Y-17964505D01*
X7773385Y-17989714D01*
X7773384Y-17989715D01*
X7749500Y-18078853D01*
X7749500Y-18171146D01*
X7773384Y-18260284D01*
X7773386Y-18260289D01*
X7819528Y-18340208D01*
X7819529Y-18340209D01*
X7819531Y-18340212D01*
X7884788Y-18405469D01*
X7884790Y-18405470D01*
X7884791Y-18405471D01*
X7964710Y-18451613D01*
X7964712Y-18451614D01*
X7964713Y-18451614D01*
X7964715Y-18451615D01*
X7973079Y-18453856D01*
X8053853Y-18475499D01*
X8053854Y-18475500D01*
X8053856Y-18475500D01*
X8146146Y-18475500D01*
X8146146Y-18475499D01*
X8235288Y-18451614D01*
X8301988Y-18413103D01*
X8358138Y-18405710D01*
X8391313Y-18424863D01*
X9011425Y-19044975D01*
X9011428Y-19044977D01*
X9029011Y-19052260D01*
X9085118Y-19075500D01*
X9636816Y-19075500D01*
X9689142Y-19097174D01*
X9710761Y-19146657D01*
X9712093Y-19181301D01*
X9692446Y-19234421D01*
X9640991Y-19258089D01*
X9618996Y-19255623D01*
X9596144Y-19249500D01*
X9503856Y-19249500D01*
X9503854Y-19249500D01*
X9414715Y-19273384D01*
X9414710Y-19273386D01*
X9334791Y-19319528D01*
X9269528Y-19384791D01*
X9223386Y-19464710D01*
X9223384Y-19464715D01*
X9199500Y-19553853D01*
X9199500Y-19646146D01*
X9223384Y-19735284D01*
X9223386Y-19735289D01*
X9269528Y-19815208D01*
X9269529Y-19815209D01*
X9269531Y-19815212D01*
X9271709Y-19817390D01*
X9272303Y-19818824D01*
X9272479Y-19819053D01*
X9272417Y-19819100D01*
X9293383Y-19869715D01*
X9292084Y-19883519D01*
X9075943Y-21021860D01*
X9044889Y-21069224D01*
X8989438Y-21080757D01*
X8942074Y-21049703D01*
X8934875Y-21036374D01*
X8929462Y-21023307D01*
X8671281Y-20400000D01*
X8618029Y-20330601D01*
X8162745Y-19737263D01*
X8162740Y-19737257D01*
X7499999Y-19228717D01*
X7167864Y-19091143D01*
X7127815Y-19051095D01*
X7124429Y-19040872D01*
X6995769Y-18530516D01*
X7003438Y-18475427D01*
X7026614Y-18435288D01*
X7050499Y-18346146D01*
X7050500Y-18346146D01*
X7050500Y-18253854D01*
X7050499Y-18253853D01*
X7048120Y-18244976D01*
X7033792Y-18191501D01*
X7026615Y-18164715D01*
X7026613Y-18164710D01*
X6980471Y-18084791D01*
X6980470Y-18084790D01*
X6980469Y-18084788D01*
X6915212Y-18019531D01*
X6915209Y-18019529D01*
X6915208Y-18019528D01*
X6835289Y-17973386D01*
X6835284Y-17973384D01*
X6746146Y-17949500D01*
X6746144Y-17949500D01*
X6653856Y-17949500D01*
X6653854Y-17949500D01*
X6564715Y-17973384D01*
X6564706Y-17973388D01*
X6481498Y-18021428D01*
X6425346Y-18028820D01*
X6380413Y-17994341D01*
X6370499Y-17957345D01*
X6370499Y-17872191D01*
X6392173Y-17819866D01*
X6425347Y-17800713D01*
X6426142Y-17800500D01*
X6426144Y-17800500D01*
X6515288Y-17776614D01*
X6568714Y-17745767D01*
X6624864Y-17738374D01*
X6646825Y-17748324D01*
X6702454Y-17785494D01*
X6775378Y-17800000D01*
X6830000Y-17800000D01*
X6830000Y-17100000D01*
X6775378Y-17100000D01*
X6702453Y-17114505D01*
X6646825Y-17151674D01*
X6591276Y-17162723D01*
X6568714Y-17154231D01*
X6515290Y-17123387D01*
X6515284Y-17123384D01*
X6464658Y-17109819D01*
X6419725Y-17075341D01*
X6412333Y-17019188D01*
X6412768Y-17017630D01*
X6414064Y-17013179D01*
X6414068Y-17013173D01*
X6420500Y-16964316D01*
X6420500Y-16615684D01*
X6414068Y-16566827D01*
X6364065Y-16459596D01*
X6280404Y-16375935D01*
X6280403Y-16375934D01*
X6218226Y-16346940D01*
X6179963Y-16305182D01*
X6175500Y-16279873D01*
X6175500Y-16074000D01*
X6197174Y-16021674D01*
X6249500Y-16000000D01*
X6782117Y-16000000D01*
X6834443Y-16021674D01*
G37*
%TD.AperFunction*%
%TA.AperFunction,Conductor*%
G36*
X5400388Y-18375759D02*
G01*
X5408085Y-18378947D01*
X5416030Y-18382810D01*
X5915266Y-18663630D01*
X5950246Y-18708174D01*
X5943484Y-18764406D01*
X5898940Y-18799386D01*
X5888646Y-18801494D01*
X5504127Y-18852117D01*
X5449420Y-18837458D01*
X5428161Y-18811604D01*
X5370951Y-18696144D01*
X5301683Y-18556347D01*
X5293336Y-18539501D01*
X5287065Y-18492213D01*
X5299501Y-18429691D01*
X5330967Y-18382601D01*
X5386516Y-18371552D01*
X5400388Y-18375759D01*
G37*
%TD.AperFunction*%
%TA.AperFunction,Conductor*%
G36*
X13226555Y-17372174D02*
G01*
X13248229Y-17424500D01*
X13242596Y-17452818D01*
X13225000Y-17495298D01*
X13225000Y-17604702D01*
X13250563Y-17666419D01*
X13286032Y-17690117D01*
X13297081Y-17745666D01*
X13276831Y-17783554D01*
X13266442Y-17793943D01*
X13224500Y-17895200D01*
X13224500Y-18004801D01*
X13237416Y-18035983D01*
X13237416Y-18092620D01*
X13206050Y-18128387D01*
X13134790Y-18169529D01*
X13069528Y-18234791D01*
X13023386Y-18314710D01*
X13023384Y-18314715D01*
X12999500Y-18403853D01*
X12999500Y-18496146D01*
X13015631Y-18556347D01*
X13008239Y-18612500D01*
X12963306Y-18646978D01*
X12944153Y-18649500D01*
X12704564Y-18649500D01*
X12652238Y-18627826D01*
X12630564Y-18575500D01*
X12634659Y-18554911D01*
X12634544Y-18554888D01*
X12639392Y-18530516D01*
X12650500Y-18474674D01*
X12650500Y-18225326D01*
X12635966Y-18152260D01*
X12580601Y-18069399D01*
X12580600Y-18069398D01*
X12503388Y-18017807D01*
X12471922Y-17970715D01*
X12470500Y-17956278D01*
X12470500Y-17943721D01*
X12492174Y-17891395D01*
X12503388Y-17882192D01*
X12580601Y-17830601D01*
X12635966Y-17747740D01*
X12650500Y-17674674D01*
X12650500Y-17425326D01*
X12650500Y-17424500D01*
X12672174Y-17372174D01*
X12724500Y-17350500D01*
X13174229Y-17350500D01*
X13226555Y-17372174D01*
G37*
%TD.AperFunction*%
%TA.AperFunction,Conductor*%
G36*
X14774577Y-16322174D02*
G01*
X14793729Y-16355347D01*
X14809977Y-16415985D01*
X14809979Y-16415990D01*
X14844512Y-16475802D01*
X14849540Y-16484511D01*
X14905489Y-16540460D01*
X14974011Y-16580021D01*
X15035154Y-16596404D01*
X15080086Y-16630882D01*
X15090000Y-16667882D01*
X15090000Y-18075500D01*
X15068326Y-18127826D01*
X15016000Y-18149500D01*
X14974500Y-18149500D01*
X14922174Y-18127826D01*
X14900500Y-18075500D01*
X14900500Y-17500172D01*
X14900499Y-17500170D01*
X14898831Y-17496144D01*
X14869156Y-17424500D01*
X14862365Y-17408105D01*
X14862363Y-17408102D01*
X14791898Y-17337637D01*
X14791894Y-17337634D01*
X14699828Y-17299500D01*
X14699500Y-17299500D01*
X14699197Y-17299374D01*
X14692679Y-17298078D01*
X14692936Y-17296781D01*
X14647174Y-17277826D01*
X14625500Y-17225500D01*
X14625500Y-17153854D01*
X14625499Y-17153853D01*
X14624067Y-17148510D01*
X14601614Y-17064712D01*
X14577172Y-17022378D01*
X14555471Y-16984791D01*
X14555470Y-16984790D01*
X14555469Y-16984788D01*
X14490212Y-16919531D01*
X14490209Y-16919529D01*
X14490208Y-16919528D01*
X14410289Y-16873386D01*
X14410284Y-16873384D01*
X14321146Y-16849500D01*
X14321144Y-16849500D01*
X14228856Y-16849500D01*
X14228854Y-16849500D01*
X14139715Y-16873384D01*
X14139710Y-16873386D01*
X14059788Y-16919530D01*
X14038438Y-16940880D01*
X13986112Y-16962553D01*
X13957797Y-16956920D01*
X13939882Y-16949500D01*
X12774500Y-16949500D01*
X12722174Y-16927826D01*
X12700500Y-16875500D01*
X12700500Y-16625327D01*
X12700500Y-16625326D01*
X12685966Y-16552260D01*
X12630601Y-16469399D01*
X12630598Y-16469396D01*
X12580659Y-16436029D01*
X12549192Y-16388938D01*
X12560241Y-16333389D01*
X12607332Y-16301922D01*
X12621770Y-16300500D01*
X14722251Y-16300500D01*
X14774577Y-16322174D01*
G37*
%TD.AperFunction*%
%TA.AperFunction,Conductor*%
G36*
X5602826Y-16021674D02*
G01*
X5624500Y-16074000D01*
X5624500Y-16279873D01*
X5602826Y-16332199D01*
X5581774Y-16346940D01*
X5519597Y-16375934D01*
X5519596Y-16375934D01*
X5435935Y-16459595D01*
X5385931Y-16566828D01*
X5379500Y-16615685D01*
X5379500Y-16964314D01*
X5385931Y-17013171D01*
X5394059Y-17030601D01*
X5435935Y-17120404D01*
X5519596Y-17204065D01*
X5626827Y-17254068D01*
X5626830Y-17254068D01*
X5632265Y-17255653D01*
X5631444Y-17258467D01*
X5671985Y-17281857D01*
X5686661Y-17336560D01*
X5658358Y-17385618D01*
X5643182Y-17394618D01*
X5550859Y-17435383D01*
X5475385Y-17510857D01*
X5475384Y-17510858D01*
X5475384Y-17510859D01*
X5466359Y-17531297D01*
X5432270Y-17608501D01*
X5429500Y-17632380D01*
X5429500Y-17667298D01*
X5407826Y-17719624D01*
X5355500Y-17741298D01*
X5303174Y-17719624D01*
X5072174Y-17488624D01*
X5050500Y-17436298D01*
X5050500Y-17315327D01*
X5046811Y-17296781D01*
X5035966Y-17242260D01*
X5001488Y-17190660D01*
X4990440Y-17135112D01*
X5001490Y-17108436D01*
X5035494Y-17057545D01*
X5050000Y-16984622D01*
X5050000Y-16930000D01*
X4774000Y-16930000D01*
X4721674Y-16908326D01*
X4707287Y-16888022D01*
X4679436Y-16830000D01*
X4674000Y-16830000D01*
X4621674Y-16808326D01*
X4600000Y-16756000D01*
X4600000Y-16730000D01*
X4800000Y-16730000D01*
X5050000Y-16730000D01*
X5050000Y-16675377D01*
X5035494Y-16602454D01*
X4980240Y-16519760D01*
X4980239Y-16519759D01*
X4897545Y-16464505D01*
X4824622Y-16450000D01*
X4800000Y-16450000D01*
X4800000Y-16730000D01*
X4600000Y-16730000D01*
X4600000Y-16450000D01*
X4575378Y-16450000D01*
X4502453Y-16464505D01*
X4445406Y-16502622D01*
X4389857Y-16513671D01*
X4351969Y-16493419D01*
X4334356Y-16475806D01*
X4334356Y-16475805D01*
X4334352Y-16475802D01*
X4285376Y-16426825D01*
X4263702Y-16374499D01*
X4285377Y-16322174D01*
X4337702Y-16300500D01*
X4689564Y-16300500D01*
X4689564Y-16300499D01*
X4765989Y-16280021D01*
X4834511Y-16240460D01*
X4890460Y-16184511D01*
X4930021Y-16115989D01*
X4936140Y-16093153D01*
X4946405Y-16054847D01*
X4980884Y-16009914D01*
X5017883Y-16000000D01*
X5550500Y-16000000D01*
X5602826Y-16021674D01*
G37*
%TD.AperFunction*%
%TA.AperFunction,Conductor*%
G36*
X11334443Y-16021674D02*
G01*
X11353595Y-16054847D01*
X11369977Y-16115985D01*
X11369979Y-16115990D01*
X11406658Y-16179520D01*
X11409540Y-16184511D01*
X11465489Y-16240460D01*
X11489090Y-16254086D01*
X11516086Y-16269672D01*
X11550564Y-16314605D01*
X11543172Y-16370758D01*
X11498239Y-16405236D01*
X11493523Y-16406336D01*
X11452455Y-16414505D01*
X11369760Y-16469759D01*
X11369759Y-16469760D01*
X11314505Y-16552454D01*
X11300000Y-16625377D01*
X11300000Y-16650000D01*
X11606000Y-16650000D01*
X11658326Y-16671674D01*
X11672713Y-16691978D01*
X11700564Y-16750000D01*
X11706000Y-16750000D01*
X11758326Y-16771674D01*
X11780000Y-16824000D01*
X11780000Y-17126000D01*
X11758326Y-17178326D01*
X11746970Y-17183029D01*
X11730000Y-17200000D01*
X11730000Y-17476000D01*
X11708326Y-17528326D01*
X11656000Y-17550000D01*
X11634652Y-17550000D01*
X11630000Y-17554652D01*
X11630000Y-17576000D01*
X11608326Y-17628326D01*
X11556000Y-17650000D01*
X11250000Y-17650000D01*
X11232676Y-17667323D01*
X11228326Y-17677826D01*
X11176000Y-17699500D01*
X10398002Y-17699500D01*
X10345676Y-17677826D01*
X10324002Y-17625500D01*
X10330935Y-17594226D01*
X10339434Y-17576000D01*
X10364068Y-17523173D01*
X10370500Y-17474316D01*
X10370500Y-17425377D01*
X11250000Y-17425377D01*
X11250000Y-17450000D01*
X11525348Y-17450000D01*
X11530000Y-17445348D01*
X11530000Y-17174000D01*
X11551674Y-17121674D01*
X11563029Y-17116970D01*
X11580000Y-17100000D01*
X11580000Y-16850000D01*
X11300000Y-16850000D01*
X11300000Y-16874622D01*
X11314505Y-16947545D01*
X11369759Y-17030239D01*
X11369760Y-17030240D01*
X11441226Y-17077992D01*
X11472692Y-17125084D01*
X11461643Y-17180633D01*
X11414551Y-17212099D01*
X11402455Y-17214505D01*
X11319760Y-17269759D01*
X11319759Y-17269760D01*
X11264505Y-17352454D01*
X11250000Y-17425377D01*
X10370500Y-17425377D01*
X10370500Y-17063319D01*
X10382927Y-17022272D01*
X10451112Y-16919995D01*
X10493529Y-16889566D01*
X10554587Y-16873207D01*
X10645913Y-16820480D01*
X10720480Y-16745913D01*
X10773207Y-16654587D01*
X10800499Y-16552729D01*
X10800500Y-16552729D01*
X10800500Y-16447271D01*
X10800499Y-16447270D01*
X10792117Y-16415989D01*
X10773207Y-16345413D01*
X10720480Y-16254087D01*
X10645913Y-16179520D01*
X10574146Y-16138085D01*
X10539668Y-16093153D01*
X10547061Y-16037000D01*
X10591994Y-16002521D01*
X10611147Y-16000000D01*
X11282117Y-16000000D01*
X11334443Y-16021674D01*
G37*
%TD.AperFunction*%
%TD*%
M02*
