%TF.GenerationSoftware,KiCad,Pcbnew,10.0.6*%
%TF.CreationDate,2026-09-25T14:28:01-04:00*%
%TF.ProjectId,elicio-v4,656c6963-696f-42d7-9634-2e6b69636164,rev?*%
%TF.SameCoordinates,Original*%
%TF.FileFunction,Paste,Bot*%
%TF.FilePolarity,Positive*%
%FSLAX46Y46*%
G04 Gerber Fmt 4.6, Leading zero omitted, Abs format (unit mm)*
G04 Created by KiCad (PCBNEW 10.0.6) date 2026-09-25 14:28:01*
%MOMM*%
%LPD*%
G01*
G04 APERTURE LIST*
G04 Aperture macros list*
%AMRoundRect*
0 Rectangle with rounded corners*
0 $1 Rounding radius*
0 $2 $3 $4 $5 $6 $7 $8 $9 X,Y pos of 4 corners*
0 Add a 4 corners polygon primitive as box body*
4,1,4,$2,$3,$4,$5,$6,$7,$8,$9,$2,$3,0*
0 Add four circle primitives for the rounded corners*
1,1,$1+$1,$2,$3*
1,1,$1+$1,$4,$5*
1,1,$1+$1,$6,$7*
1,1,$1+$1,$8,$9*
0 Add four rect primitives between the rounded corners*
20,1,$1+$1,$2,$3,$4,$5,0*
20,1,$1+$1,$4,$5,$6,$7,0*
20,1,$1+$1,$6,$7,$8,$9,0*
20,1,$1+$1,$8,$9,$2,$3,0*%
%AMFreePoly0*
4,1,6,0.180000,0.075000,0.000000,-0.105000,-0.220000,-0.105000,-0.220000,0.105000,0.180000,0.105000,0.180000,0.075000,0.180000,0.075000,$1*%
%AMFreePoly1*
4,1,6,0.180000,-0.075000,0.180000,-0.105000,-0.220000,-0.105000,-0.220000,0.105000,0.000000,0.105000,0.180000,-0.075000,0.180000,-0.075000,$1*%
%AMFreePoly2*
4,1,6,0.220000,-0.105000,0.000000,-0.105000,-0.180000,0.075000,-0.180000,0.105000,0.220000,0.105000,0.220000,-0.105000,0.220000,-0.105000,$1*%
%AMFreePoly3*
4,1,6,0.220000,-0.105000,-0.180000,-0.105000,-0.180000,-0.075000,0.000000,0.105000,0.220000,0.105000,0.220000,-0.105000,0.220000,-0.105000,$1*%
G04 Aperture macros list end*
%ADD10RoundRect,0.050000X-0.150000X-0.075000X0.150000X-0.075000X0.150000X0.075000X-0.150000X0.075000X0*%
%ADD11RoundRect,0.050000X-0.150000X-0.300000X0.150000X-0.300000X0.150000X0.300000X-0.150000X0.300000X0*%
%ADD12RoundRect,0.079500X-0.079500X-0.100500X0.079500X-0.100500X0.079500X0.100500X-0.079500X0.100500X0*%
%ADD13RoundRect,0.079500X0.079500X0.100500X-0.079500X0.100500X-0.079500X-0.100500X0.079500X-0.100500X0*%
%ADD14RoundRect,0.050000X0.150000X0.075000X-0.150000X0.075000X-0.150000X-0.075000X0.150000X-0.075000X0*%
%ADD15RoundRect,0.050000X0.150000X0.300000X-0.150000X0.300000X-0.150000X-0.300000X0.150000X-0.300000X0*%
%ADD16RoundRect,0.050000X0.100000X0.250000X-0.100000X0.250000X-0.100000X-0.250000X0.100000X-0.250000X0*%
%ADD17RoundRect,0.079500X0.100500X-0.079500X0.100500X0.079500X-0.100500X0.079500X-0.100500X-0.079500X0*%
%ADD18RoundRect,0.079500X-0.100500X0.079500X-0.100500X-0.079500X0.100500X-0.079500X0.100500X0.079500X0*%
%ADD19RoundRect,0.135000X-0.185000X0.135000X-0.185000X-0.135000X0.185000X-0.135000X0.185000X0.135000X0*%
%ADD20RoundRect,0.135000X0.135000X0.185000X-0.135000X0.185000X-0.135000X-0.185000X0.135000X-0.185000X0*%
%ADD21C,0.250000*%
%ADD22RoundRect,0.140000X-0.170000X0.140000X-0.170000X-0.140000X0.170000X-0.140000X0.170000X0.140000X0*%
%ADD23RoundRect,0.140000X-0.140000X-0.170000X0.140000X-0.170000X0.140000X0.170000X-0.140000X0.170000X0*%
%ADD24FreePoly0,180.000000*%
%ADD25FreePoly1,180.000000*%
%ADD26FreePoly2,180.000000*%
%ADD27FreePoly3,180.000000*%
%ADD28RoundRect,0.080000X0.205061X0.000000X0.000000X0.205061X-0.205061X0.000000X0.000000X-0.205061X0*%
%ADD29RoundRect,0.140000X0.140000X0.170000X-0.140000X0.170000X-0.140000X-0.170000X0.140000X-0.170000X0*%
G04 APERTURE END LIST*
D10*
%TO.C,Q1*%
X9500000Y-23025000D03*
X9500000Y-22575000D03*
D11*
X10200000Y-22800000D03*
%TD*%
D12*
%TO.C,R21*%
X12055000Y-27700000D03*
X12745000Y-27700000D03*
%TD*%
%TO.C,R19*%
X12055000Y-29300000D03*
X12745000Y-29300000D03*
%TD*%
D13*
%TO.C,R20*%
X12745000Y-26900000D03*
X12055000Y-26900000D03*
%TD*%
D12*
%TO.C,R14*%
X9505000Y-21850000D03*
X10195000Y-21850000D03*
%TD*%
D13*
%TO.C,C13*%
X4945000Y-18300000D03*
X4255000Y-18300000D03*
%TD*%
D14*
%TO.C,Q2*%
X12850000Y-19325000D03*
X12850000Y-19775000D03*
D15*
X12150000Y-19550000D03*
%TD*%
D14*
%TO.C,Q3*%
X11000000Y-19675000D03*
X11000000Y-20125000D03*
D15*
X10300000Y-19900000D03*
%TD*%
D16*
%TO.C,D1*%
X14650000Y-28600000D03*
X13950000Y-28600000D03*
%TD*%
D17*
%TO.C,C1*%
X13300000Y-23995000D03*
X13300000Y-23305000D03*
%TD*%
D12*
%TO.C,R17*%
X13355000Y-20850000D03*
X14045000Y-20850000D03*
%TD*%
D18*
%TO.C,R34*%
X14950000Y-22875000D03*
X14950000Y-23565000D03*
%TD*%
D13*
%TO.C,R25*%
X12295000Y-18350000D03*
X11605000Y-18350000D03*
%TD*%
D19*
%TO.C,R1*%
X5900000Y-16790000D03*
X5900000Y-17810000D03*
%TD*%
D20*
%TO.C,R2*%
X9900000Y-17250000D03*
X8880000Y-17250000D03*
%TD*%
D13*
%TO.C,R18*%
X12745000Y-28500000D03*
X12055000Y-28500000D03*
%TD*%
D21*
%TO.C,U3*%
X14300000Y-17950000D03*
X14300000Y-17550000D03*
X13900000Y-17950000D03*
X13900000Y-17550000D03*
X13500000Y-17950000D03*
X13500000Y-17550000D03*
%TD*%
D13*
%TO.C,C12*%
X3445000Y-18300000D03*
X2755000Y-18300000D03*
%TD*%
D20*
%TO.C,R3*%
X15060000Y-25600000D03*
X14040000Y-25600000D03*
%TD*%
D17*
%TO.C,C16*%
X4700000Y-17495000D03*
X4700000Y-16805000D03*
%TD*%
D13*
%TO.C,C2*%
X12295000Y-17550000D03*
X11605000Y-17550000D03*
%TD*%
D22*
%TO.C,C18*%
X15070000Y-20220000D03*
X15070000Y-21180000D03*
%TD*%
D13*
%TO.C,R11*%
X12345000Y-16750000D03*
X11655000Y-16750000D03*
%TD*%
D18*
%TO.C,R16*%
X13750000Y-19355000D03*
X13750000Y-20045000D03*
%TD*%
D13*
%TO.C,C4*%
X7595000Y-17450000D03*
X6905000Y-17450000D03*
%TD*%
D18*
%TO.C,R4*%
X13300000Y-21805000D03*
X13300000Y-22495000D03*
%TD*%
D12*
%TO.C,C5*%
X9505000Y-23900000D03*
X10195000Y-23900000D03*
%TD*%
%TO.C,R35*%
X14055000Y-24550000D03*
X14745000Y-24550000D03*
%TD*%
D23*
%TO.C,C14*%
X13670000Y-27200000D03*
X14630000Y-27200000D03*
%TD*%
D24*
%TO.C,U4*%
X12080000Y-21575000D03*
D25*
X12080000Y-20925000D03*
D26*
X11220000Y-21575000D03*
D27*
X11220000Y-20925000D03*
D28*
X11650000Y-21250000D03*
%TD*%
D29*
%TO.C,C8*%
X12130000Y-22550000D03*
X11170000Y-22550000D03*
%TD*%
D12*
%TO.C,R24*%
X11105000Y-24700000D03*
X11795000Y-24700000D03*
%TD*%
D18*
%TO.C,R15*%
X10800000Y-18255000D03*
X10800000Y-18945000D03*
%TD*%
D24*
%TO.C,U5*%
X3730000Y-17425000D03*
D25*
X3730000Y-16775000D03*
D26*
X2870000Y-17425000D03*
D27*
X2870000Y-16775000D03*
D28*
X3300000Y-17100000D03*
%TD*%
M02*
