%TF.GenerationSoftware,KiCad,Pcbnew,10.0.6*%
%TF.CreationDate,2026-09-25T14:28:01-04:00*%
%TF.ProjectId,elicio-v4,656c6963-696f-42d7-9634-2e6b69636164,rev?*%
%TF.SameCoordinates,Original*%
%TF.FileFunction,Soldermask,Bot*%
%TF.FilePolarity,Negative*%
%FSLAX46Y46*%
G04 Gerber Fmt 4.6, Leading zero omitted, Abs format (unit mm)*
G04 Created by KiCad (PCBNEW 10.0.6) date 2026-09-25 14:28:01*
%MOMM*%
%LPD*%
G01*
G04 APERTURE LIST*
G04 Aperture macros list*
%AMRoundRect*
0 Rectangle with rounded corners*
0 $1 Rounding radius*
0 $2 $3 $4 $5 $6 $7 $8 $9 X,Y pos of 4 corners*
0 Add a 4 corners polygon primitive as box body*
4,1,4,$2,$3,$4,$5,$6,$7,$8,$9,$2,$3,0*
0 Add four circle primitives for the rounded corners*
1,1,$1+$1,$2,$3*
1,1,$1+$1,$4,$5*
1,1,$1+$1,$6,$7*
1,1,$1+$1,$8,$9*
0 Add four rect primitives between the rounded corners*
20,1,$1+$1,$2,$3,$4,$5,0*
20,1,$1+$1,$4,$5,$6,$7,0*
20,1,$1+$1,$6,$7,$8,$9,0*
20,1,$1+$1,$8,$9,$2,$3,0*%
%AMFreePoly0*
4,1,92,-1.476292,2.255806,-1.185689,2.177939,-0.907736,2.062807,-0.647188,1.912380,-0.408505,1.729232,-0.195768,1.516495,-0.012620,1.277812,0.137807,1.017264,0.252939,0.739311,0.330806,0.448708,0.370076,0.150427,0.370076,-0.150427,0.330806,-0.448708,0.252939,-0.739311,0.137807,-1.017264,-0.012620,-1.277812,-0.195768,-1.516495,-0.408505,-1.729232,-0.647188,-1.912380,-0.907736,-2.062807,
-1.185689,-2.177939,-1.476292,-2.255806,-1.774573,-2.295076,-2.075427,-2.295076,-2.373708,-2.255806,-2.664311,-2.177939,-2.942264,-2.062807,-3.202812,-1.912380,-3.441495,-1.729232,-3.654232,-1.516495,-3.837380,-1.277812,-3.987807,-1.017264,-4.102939,-0.739311,-4.180806,-0.448708,-4.220076,-0.150427,-4.220076,0.121988,-3.475000,0.121988,-3.475000,-0.121988,-3.436834,-0.362959,-3.361441,-0.594994,
-3.250679,-0.812377,-3.107274,-1.009757,-2.934757,-1.182274,-2.737377,-1.325679,-2.519994,-1.436441,-2.287959,-1.511834,-2.046988,-1.550000,-1.803012,-1.550000,-1.562041,-1.511834,-1.330006,-1.436441,-1.112623,-1.325679,-0.915243,-1.182274,-0.742726,-1.009757,-0.599321,-0.812377,-0.488559,-0.594994,-0.413166,-0.362959,-0.375000,-0.121988,-0.375000,0.121988,-0.413166,0.362959,-0.488559,0.594994,
-0.599321,0.812377,-0.742726,1.009757,-0.915243,1.182274,-1.112623,1.325679,-1.330006,1.436441,-1.562041,1.511834,-1.803012,1.550000,-2.046988,1.550000,-2.287959,1.511834,-2.519994,1.436441,-2.737377,1.325679,-2.934757,1.182274,-3.107274,1.009757,-3.250679,0.812377,-3.361441,0.594994,-3.436834,0.362959,-3.475000,0.121988,-4.220076,0.121988,-4.220076,0.150427,-4.180806,0.448708,
-4.102939,0.739311,-3.987807,1.017264,-3.837380,1.277812,-3.654232,1.516495,-3.441495,1.729232,-3.202812,1.912380,-2.942264,2.062807,-2.664311,2.177939,-2.373708,2.255806,-2.075427,2.295076,-1.774573,2.295076,-1.476292,2.255806,-1.476292,2.255806,$1*%
%AMFreePoly1*
4,1,6,0.180000,0.075000,0.000000,-0.105000,-0.180000,-0.105000,-0.180000,0.105000,0.180000,0.105000,0.180000,0.075000,0.180000,0.075000,$1*%
%AMFreePoly2*
4,1,6,0.180000,-0.075000,0.180000,-0.105000,-0.180000,-0.105000,-0.180000,0.105000,0.000000,0.105000,0.180000,-0.075000,0.180000,-0.075000,$1*%
%AMFreePoly3*
4,1,6,0.180000,-0.105000,0.000000,-0.105000,-0.180000,0.075000,-0.180000,0.105000,0.180000,0.105000,0.180000,-0.105000,0.180000,-0.105000,$1*%
%AMFreePoly4*
4,1,6,0.180000,-0.105000,-0.180000,-0.105000,-0.180000,-0.075000,0.000000,0.105000,0.180000,0.105000,0.180000,-0.105000,0.180000,-0.105000,$1*%
G04 Aperture macros list end*
%ADD10C,0.990600*%
%ADD11C,5.200000*%
%ADD12R,1.700000X1.700000*%
%ADD13C,1.700000*%
%ADD14RoundRect,0.050000X-0.150000X-0.075000X0.150000X-0.075000X0.150000X0.075000X-0.150000X0.075000X0*%
%ADD15RoundRect,0.050000X-0.150000X-0.300000X0.150000X-0.300000X0.150000X0.300000X-0.150000X0.300000X0*%
%ADD16RoundRect,0.100000X-0.130000X-0.100000X0.130000X-0.100000X0.130000X0.100000X-0.130000X0.100000X0*%
%ADD17RoundRect,0.100000X0.130000X0.100000X-0.130000X0.100000X-0.130000X-0.100000X0.130000X-0.100000X0*%
%ADD18RoundRect,0.050000X0.150000X0.075000X-0.150000X0.075000X-0.150000X-0.075000X0.150000X-0.075000X0*%
%ADD19RoundRect,0.050000X0.150000X0.300000X-0.150000X0.300000X-0.150000X-0.300000X0.150000X-0.300000X0*%
%ADD20RoundRect,0.100000X0.100000X-0.130000X0.100000X0.130000X-0.100000X0.130000X-0.100000X-0.130000X0*%
%ADD21RoundRect,0.100000X-0.100000X0.130000X-0.100000X-0.130000X0.100000X-0.130000X0.100000X0.130000X0*%
%ADD22RoundRect,0.135000X-0.185000X0.135000X-0.185000X-0.135000X0.185000X-0.135000X0.185000X0.135000X0*%
%ADD23C,2.700000*%
%ADD24FreePoly0,180.000000*%
%ADD25RoundRect,0.135000X0.135000X0.185000X-0.135000X0.185000X-0.135000X-0.185000X0.135000X-0.185000X0*%
%ADD26C,0.350000*%
%ADD27RoundRect,0.140000X-0.170000X0.140000X-0.170000X-0.140000X0.170000X-0.140000X0.170000X0.140000X0*%
%ADD28RoundRect,0.140000X-0.140000X-0.170000X0.140000X-0.170000X0.140000X0.170000X-0.140000X0.170000X0*%
%ADD29FreePoly1,180.000000*%
%ADD30FreePoly2,180.000000*%
%ADD31FreePoly3,180.000000*%
%ADD32FreePoly4,180.000000*%
%ADD33RoundRect,0.095000X0.205061X0.000000X0.000000X0.205061X-0.205061X0.000000X0.000000X-0.205061X0*%
%ADD34RoundRect,0.140000X0.140000X0.170000X-0.140000X0.170000X-0.140000X-0.170000X0.140000X-0.170000X0*%
G04 APERTURE END LIST*
D10*
%TO.C,J4*%
X7460000Y-35400000D03*
X12540000Y-34384000D03*
X12540000Y-36416000D03*
%TD*%
D11*
%TO.C,P1*%
X5900000Y-5290000D03*
%TD*%
%TO.C,P2*%
X10400000Y5810000D03*
%TD*%
D12*
%TO.C,J3*%
X22400000Y-19400000D03*
D13*
X22400000Y-21940000D03*
X22400000Y-24480000D03*
%TD*%
D11*
%TO.C,P3*%
X8500000Y-43000000D03*
%TD*%
D14*
%TO.C,Q1*%
X9500000Y-23025000D03*
X9500000Y-22575000D03*
D15*
X10200000Y-22800000D03*
%TD*%
D16*
%TO.C,R21*%
X12080000Y-27700000D03*
X12720000Y-27700000D03*
%TD*%
%TO.C,R19*%
X12080000Y-29300000D03*
X12720000Y-29300000D03*
%TD*%
D17*
%TO.C,R20*%
X12720000Y-26900000D03*
X12080000Y-26900000D03*
%TD*%
D16*
%TO.C,R14*%
X9530000Y-21850000D03*
X10170000Y-21850000D03*
%TD*%
D17*
%TO.C,C13*%
X4920000Y-18300000D03*
X4280000Y-18300000D03*
%TD*%
D18*
%TO.C,Q2*%
X12850000Y-19325000D03*
X12850000Y-19775000D03*
D19*
X12150000Y-19550000D03*
%TD*%
D18*
%TO.C,Q3*%
X11000000Y-19675000D03*
X11000000Y-20125000D03*
D19*
X10300000Y-19900000D03*
%TD*%
%TO.C,D1*%
X14650000Y-28600000D03*
X13950000Y-28600000D03*
%TD*%
D20*
%TO.C,C1*%
X13300000Y-23970000D03*
X13300000Y-23330000D03*
%TD*%
D16*
%TO.C,R17*%
X13380000Y-20850000D03*
X14020000Y-20850000D03*
%TD*%
D21*
%TO.C,R34*%
X14950000Y-22900000D03*
X14950000Y-23540000D03*
%TD*%
D17*
%TO.C,R25*%
X12270000Y-18350000D03*
X11630000Y-18350000D03*
%TD*%
D22*
%TO.C,R1*%
X5900000Y-16790000D03*
X5900000Y-17810000D03*
%TD*%
D23*
%TO.C,P5*%
X16514000Y-12100000D03*
D24*
X14589000Y-12100000D03*
%TD*%
D25*
%TO.C,R2*%
X9900000Y-17250000D03*
X8880000Y-17250000D03*
%TD*%
D17*
%TO.C,R18*%
X12720000Y-28500000D03*
X12080000Y-28500000D03*
%TD*%
D26*
%TO.C,U3*%
X14300000Y-17950000D03*
X14300000Y-17550000D03*
X13900000Y-17950000D03*
X13900000Y-17550000D03*
X13500000Y-17950000D03*
X13500000Y-17550000D03*
%TD*%
D17*
%TO.C,C12*%
X3420000Y-18300000D03*
X2780000Y-18300000D03*
%TD*%
D25*
%TO.C,R3*%
X15060000Y-25600000D03*
X14040000Y-25600000D03*
%TD*%
D20*
%TO.C,C16*%
X4700000Y-17470000D03*
X4700000Y-16830000D03*
%TD*%
D17*
%TO.C,C2*%
X12270000Y-17550000D03*
X11630000Y-17550000D03*
%TD*%
D27*
%TO.C,C18*%
X15070000Y-20220000D03*
X15070000Y-21180000D03*
%TD*%
D17*
%TO.C,R11*%
X12320000Y-16750000D03*
X11680000Y-16750000D03*
%TD*%
D21*
%TO.C,R16*%
X13750000Y-19380000D03*
X13750000Y-20020000D03*
%TD*%
D17*
%TO.C,C4*%
X7570000Y-17450000D03*
X6930000Y-17450000D03*
%TD*%
D23*
%TO.C,P4*%
X16514000Y-4350000D03*
D24*
X14589000Y-4350000D03*
%TD*%
D21*
%TO.C,R4*%
X13300000Y-21830000D03*
X13300000Y-22470000D03*
%TD*%
D16*
%TO.C,C5*%
X9530000Y-23900000D03*
X10170000Y-23900000D03*
%TD*%
%TO.C,R35*%
X14080000Y-24550000D03*
X14720000Y-24550000D03*
%TD*%
D28*
%TO.C,C14*%
X13670000Y-27200000D03*
X14630000Y-27200000D03*
%TD*%
D29*
%TO.C,U4*%
X12080000Y-21575000D03*
D30*
X12080000Y-20925000D03*
D31*
X11220000Y-21575000D03*
D32*
X11220000Y-20925000D03*
D33*
X11650000Y-21250000D03*
%TD*%
D34*
%TO.C,C8*%
X12130000Y-22550000D03*
X11170000Y-22550000D03*
%TD*%
D16*
%TO.C,R24*%
X11130000Y-24700000D03*
X11770000Y-24700000D03*
%TD*%
D21*
%TO.C,R15*%
X10800000Y-18280000D03*
X10800000Y-18920000D03*
%TD*%
D29*
%TO.C,U5*%
X3730000Y-17425000D03*
D30*
X3730000Y-16775000D03*
D31*
X2870000Y-17425000D03*
D32*
X2870000Y-16775000D03*
D33*
X3300000Y-17100000D03*
%TD*%
M02*
