%TF.GenerationSoftware,KiCad,Pcbnew,10.0.6*%
%TF.CreationDate,2026-09-25T04:31:35-04:00*%
%TF.ProjectId,elicio-v4,656c6963-696f-42d7-9634-2e6b69636164,rev?*%
%TF.SameCoordinates,Original*%
%TF.FileFunction,Other,ECO1*%
%FSLAX46Y46*%
G04 Gerber Fmt 4.6, Leading zero omitted, Abs format (unit mm)*
G04 Created by KiCad (PCBNEW 10.0.6) date 2026-09-25 04:31:35*
%MOMM*%
%LPD*%
G01*
G04 APERTURE LIST*
%ADD10C,0.050000*%
%ADD11C,2.925000*%
%ADD12C,0.100000*%
G04 APERTURE END LIST*
D10*
X14214000Y-2049999D02*
X18814000Y-2049999D01*
X18814000Y-14549999D01*
X14214000Y-14549999D01*
X14214000Y-2049999D01*
G36*
X18814000Y-14549999D02*
G01*
X14214000Y-14549999D01*
X14214000Y-2049999D01*
X18814000Y-2049999D01*
X18814000Y-14549999D01*
G37*
D11*
X7362500Y-5290000D02*
G75*
G02*
X4437500Y-5290000I-1462500J0D01*
G01*
X4437500Y-5290000D02*
G75*
G02*
X7362500Y-5290000I1462500J0D01*
G01*
X9962500Y-43000000D02*
G75*
G02*
X7037500Y-43000000I-1462500J0D01*
G01*
X7037500Y-43000000D02*
G75*
G02*
X9962500Y-43000000I1462500J0D01*
G01*
X11862500Y5810000D02*
G75*
G02*
X8937500Y5810000I-1462500J0D01*
G01*
X8937500Y5810000D02*
G75*
G02*
X11862500Y5810000I1462500J0D01*
G01*
D12*
X12035716Y-964204D02*
X12202383Y-964204D01*
X12273811Y-1226109D02*
X12035716Y-1226109D01*
X12035716Y-1226109D02*
X12035716Y-726109D01*
X12035716Y-726109D02*
X12273811Y-726109D01*
X12773811Y-1178490D02*
X12750002Y-1202300D01*
X12750002Y-1202300D02*
X12678573Y-1226109D01*
X12678573Y-1226109D02*
X12630954Y-1226109D01*
X12630954Y-1226109D02*
X12559526Y-1202300D01*
X12559526Y-1202300D02*
X12511907Y-1154680D01*
X12511907Y-1154680D02*
X12488097Y-1107061D01*
X12488097Y-1107061D02*
X12464288Y-1011823D01*
X12464288Y-1011823D02*
X12464288Y-940395D01*
X12464288Y-940395D02*
X12488097Y-845157D01*
X12488097Y-845157D02*
X12511907Y-797538D01*
X12511907Y-797538D02*
X12559526Y-749919D01*
X12559526Y-749919D02*
X12630954Y-726109D01*
X12630954Y-726109D02*
X12678573Y-726109D01*
X12678573Y-726109D02*
X12750002Y-749919D01*
X12750002Y-749919D02*
X12773811Y-773728D01*
X13083335Y-726109D02*
X13178573Y-726109D01*
X13178573Y-726109D02*
X13226192Y-749919D01*
X13226192Y-749919D02*
X13273811Y-797538D01*
X13273811Y-797538D02*
X13297621Y-892776D01*
X13297621Y-892776D02*
X13297621Y-1059442D01*
X13297621Y-1059442D02*
X13273811Y-1154680D01*
X13273811Y-1154680D02*
X13226192Y-1202300D01*
X13226192Y-1202300D02*
X13178573Y-1226109D01*
X13178573Y-1226109D02*
X13083335Y-1226109D01*
X13083335Y-1226109D02*
X13035716Y-1202300D01*
X13035716Y-1202300D02*
X12988097Y-1154680D01*
X12988097Y-1154680D02*
X12964288Y-1059442D01*
X12964288Y-1059442D02*
X12964288Y-892776D01*
X12964288Y-892776D02*
X12988097Y-797538D01*
X12988097Y-797538D02*
X13035716Y-749919D01*
X13035716Y-749919D02*
X13083335Y-726109D01*
X13773812Y-1226109D02*
X13488098Y-1226109D01*
X13630955Y-1226109D02*
X13630955Y-726109D01*
X13630955Y-726109D02*
X13583336Y-797538D01*
X13583336Y-797538D02*
X13535717Y-845157D01*
X13535717Y-845157D02*
X13488098Y-868966D01*
X14369049Y-964204D02*
X14750002Y-964204D01*
X14750002Y-1107061D02*
X14369049Y-1107061D01*
X15535716Y-964204D02*
X15369049Y-964204D01*
X15369049Y-1226109D02*
X15369049Y-726109D01*
X15369049Y-726109D02*
X15607144Y-726109D01*
X16083334Y-1226109D02*
X15916668Y-988014D01*
X15797620Y-1226109D02*
X15797620Y-726109D01*
X15797620Y-726109D02*
X15988096Y-726109D01*
X15988096Y-726109D02*
X16035715Y-749919D01*
X16035715Y-749919D02*
X16059525Y-773728D01*
X16059525Y-773728D02*
X16083334Y-821347D01*
X16083334Y-821347D02*
X16083334Y-892776D01*
X16083334Y-892776D02*
X16059525Y-940395D01*
X16059525Y-940395D02*
X16035715Y-964204D01*
X16035715Y-964204D02*
X15988096Y-988014D01*
X15988096Y-988014D02*
X15797620Y-988014D01*
X16511906Y-892776D02*
X16511906Y-1226109D01*
X16392858Y-702300D02*
X16273811Y-1059442D01*
X16273811Y-1059442D02*
X16583334Y-1059442D01*
X17250000Y-726109D02*
X17297619Y-726109D01*
X17297619Y-726109D02*
X17345238Y-749919D01*
X17345238Y-749919D02*
X17369048Y-773728D01*
X17369048Y-773728D02*
X17392857Y-821347D01*
X17392857Y-821347D02*
X17416667Y-916585D01*
X17416667Y-916585D02*
X17416667Y-1035633D01*
X17416667Y-1035633D02*
X17392857Y-1130871D01*
X17392857Y-1130871D02*
X17369048Y-1178490D01*
X17369048Y-1178490D02*
X17345238Y-1202300D01*
X17345238Y-1202300D02*
X17297619Y-1226109D01*
X17297619Y-1226109D02*
X17250000Y-1226109D01*
X17250000Y-1226109D02*
X17202381Y-1202300D01*
X17202381Y-1202300D02*
X17178572Y-1178490D01*
X17178572Y-1178490D02*
X17154762Y-1130871D01*
X17154762Y-1130871D02*
X17130953Y-1035633D01*
X17130953Y-1035633D02*
X17130953Y-916585D01*
X17130953Y-916585D02*
X17154762Y-821347D01*
X17154762Y-821347D02*
X17178572Y-773728D01*
X17178572Y-773728D02*
X17202381Y-749919D01*
X17202381Y-749919D02*
X17250000Y-726109D01*
X17630952Y-1178490D02*
X17654762Y-1202300D01*
X17654762Y-1202300D02*
X17630952Y-1226109D01*
X17630952Y-1226109D02*
X17607143Y-1202300D01*
X17607143Y-1202300D02*
X17630952Y-1178490D01*
X17630952Y-1178490D02*
X17630952Y-1226109D01*
X17845238Y-773728D02*
X17869047Y-749919D01*
X17869047Y-749919D02*
X17916666Y-726109D01*
X17916666Y-726109D02*
X18035714Y-726109D01*
X18035714Y-726109D02*
X18083333Y-749919D01*
X18083333Y-749919D02*
X18107142Y-773728D01*
X18107142Y-773728D02*
X18130952Y-821347D01*
X18130952Y-821347D02*
X18130952Y-868966D01*
X18130952Y-868966D02*
X18107142Y-940395D01*
X18107142Y-940395D02*
X17821428Y-1226109D01*
X17821428Y-1226109D02*
X18130952Y-1226109D01*
X18892856Y-964204D02*
X18726189Y-964204D01*
X18726189Y-1226109D02*
X18726189Y-726109D01*
X18726189Y-726109D02*
X18964284Y-726109D01*
X19511903Y-1202300D02*
X19583331Y-1226109D01*
X19583331Y-1226109D02*
X19702379Y-1226109D01*
X19702379Y-1226109D02*
X19749998Y-1202300D01*
X19749998Y-1202300D02*
X19773807Y-1178490D01*
X19773807Y-1178490D02*
X19797617Y-1130871D01*
X19797617Y-1130871D02*
X19797617Y-1083252D01*
X19797617Y-1083252D02*
X19773807Y-1035633D01*
X19773807Y-1035633D02*
X19749998Y-1011823D01*
X19749998Y-1011823D02*
X19702379Y-988014D01*
X19702379Y-988014D02*
X19607141Y-964204D01*
X19607141Y-964204D02*
X19559522Y-940395D01*
X19559522Y-940395D02*
X19535712Y-916585D01*
X19535712Y-916585D02*
X19511903Y-868966D01*
X19511903Y-868966D02*
X19511903Y-821347D01*
X19511903Y-821347D02*
X19535712Y-773728D01*
X19535712Y-773728D02*
X19559522Y-749919D01*
X19559522Y-749919D02*
X19607141Y-726109D01*
X19607141Y-726109D02*
X19726188Y-726109D01*
X19726188Y-726109D02*
X19797617Y-749919D01*
X20011902Y-1226109D02*
X20011902Y-726109D01*
X20249997Y-1226109D02*
X20249997Y-726109D01*
X20249997Y-726109D02*
X20369045Y-726109D01*
X20369045Y-726109D02*
X20440473Y-749919D01*
X20440473Y-749919D02*
X20488092Y-797538D01*
X20488092Y-797538D02*
X20511902Y-845157D01*
X20511902Y-845157D02*
X20535711Y-940395D01*
X20535711Y-940395D02*
X20535711Y-1011823D01*
X20535711Y-1011823D02*
X20511902Y-1107061D01*
X20511902Y-1107061D02*
X20488092Y-1154680D01*
X20488092Y-1154680D02*
X20440473Y-1202300D01*
X20440473Y-1202300D02*
X20369045Y-1226109D01*
X20369045Y-1226109D02*
X20249997Y-1226109D01*
X20749997Y-964204D02*
X20916664Y-964204D01*
X20988092Y-1226109D02*
X20749997Y-1226109D01*
X20749997Y-1226109D02*
X20749997Y-726109D01*
X20749997Y-726109D02*
X20988092Y-726109D01*
M02*
