%TF.GenerationSoftware,KiCad,Pcbnew,10.0.6*%
%TF.CreationDate,2026-09-25T14:12:25-04:00*%
%TF.ProjectId,elicio-v4,656c6963-696f-42d7-9634-2e6b69636164,rev?*%
%TF.SameCoordinates,Original*%
%TF.FileFunction,Paste,Top*%
%TF.FilePolarity,Positive*%
%FSLAX46Y46*%
G04 Gerber Fmt 4.6, Leading zero omitted, Abs format (unit mm)*
G04 Created by KiCad (PCBNEW 10.0.6) date 2026-09-25 14:12:25*
%MOMM*%
%LPD*%
G01*
G04 APERTURE LIST*
G04 Aperture macros list*
%AMRoundRect*
0 Rectangle with rounded corners*
0 $1 Rounding radius*
0 $2 $3 $4 $5 $6 $7 $8 $9 X,Y pos of 4 corners*
0 Add a 4 corners polygon primitive as box body*
4,1,4,$2,$3,$4,$5,$6,$7,$8,$9,$2,$3,0*
0 Add four circle primitives for the rounded corners*
1,1,$1+$1,$2,$3*
1,1,$1+$1,$4,$5*
1,1,$1+$1,$6,$7*
1,1,$1+$1,$8,$9*
0 Add four rect primitives between the rounded corners*
20,1,$1+$1,$2,$3,$4,$5,0*
20,1,$1+$1,$4,$5,$6,$7,0*
20,1,$1+$1,$6,$7,$8,$9,0*
20,1,$1+$1,$8,$9,$2,$3,0*%
G04 Aperture macros list end*
%ADD10RoundRect,0.147500X-0.147500X-0.172500X0.147500X-0.172500X0.147500X0.172500X-0.147500X0.172500X0*%
%ADD11RoundRect,0.140000X0.170000X-0.140000X0.170000X0.140000X-0.170000X0.140000X-0.170000X-0.140000X0*%
%ADD12RoundRect,0.175000X-0.250000X0.175000X-0.250000X-0.175000X0.250000X-0.175000X0.250000X0.175000X0*%
%ADD13RoundRect,0.175000X-0.225000X0.175000X-0.225000X-0.175000X0.225000X-0.175000X0.225000X0.175000X0*%
%ADD14RoundRect,0.079500X0.079500X0.100500X-0.079500X0.100500X-0.079500X-0.100500X0.079500X-0.100500X0*%
%ADD15RoundRect,0.079500X-0.100500X0.079500X-0.100500X-0.079500X0.100500X-0.079500X0.100500X0.079500X0*%
%ADD16RoundRect,0.079500X0.100500X-0.079500X0.100500X0.079500X-0.100500X0.079500X-0.100500X-0.079500X0*%
%ADD17RoundRect,0.079500X-0.079500X-0.100500X0.079500X-0.100500X0.079500X0.100500X-0.079500X0.100500X0*%
%ADD18R,0.775000X0.775000*%
%ADD19R,0.400000X0.375000*%
%ADD20R,0.400000X0.400000*%
%ADD21R,0.800000X0.775000*%
%ADD22R,0.375000X0.400000*%
%ADD23R,1.500000X0.550000*%
%ADD24RoundRect,0.135000X-0.135000X-0.185000X0.135000X-0.185000X0.135000X0.185000X-0.135000X0.185000X0*%
%ADD25RoundRect,0.250000X-0.315000X0.315000X-0.315000X-0.315000X0.315000X-0.315000X0.315000X0.315000X0*%
%ADD26RoundRect,0.050000X-0.050000X0.225000X-0.050000X-0.225000X0.050000X-0.225000X0.050000X0.225000X0*%
%ADD27RoundRect,0.050000X-0.225000X0.050000X-0.225000X-0.050000X0.225000X-0.050000X0.225000X0.050000X0*%
%ADD28RoundRect,0.140000X-0.170000X0.140000X-0.170000X-0.140000X0.170000X-0.140000X0.170000X0.140000X0*%
%ADD29RoundRect,0.050000X-0.150000X-0.075000X0.150000X-0.075000X0.150000X0.075000X-0.150000X0.075000X0*%
%ADD30RoundRect,0.050000X-0.150000X-0.300000X0.150000X-0.300000X0.150000X0.300000X-0.150000X0.300000X0*%
G04 APERTURE END LIST*
D10*
%TO.C,D2*%
X14165000Y-26100000D03*
X15135000Y-26100000D03*
%TD*%
D11*
%TO.C,C19*%
X14100000Y-34680000D03*
X14100000Y-33720000D03*
%TD*%
D12*
%TO.C,J2*%
X7450000Y-18300000D03*
X7450000Y-19500000D03*
D13*
X3425000Y-17000000D03*
X3425000Y-20800000D03*
%TD*%
D14*
%TO.C,R12*%
X12945000Y-18150000D03*
X12255000Y-18150000D03*
%TD*%
D15*
%TO.C,C11*%
X15100000Y-22855000D03*
X15100000Y-23545000D03*
%TD*%
D16*
%TO.C,C10*%
X9100000Y-18945000D03*
X9100000Y-18255000D03*
%TD*%
%TO.C,R5*%
X11400000Y-31465000D03*
X11400000Y-30775000D03*
%TD*%
D17*
%TO.C,C15*%
X13255000Y-25150000D03*
X13945000Y-25150000D03*
%TD*%
D15*
%TO.C,R27*%
X12450000Y-25155000D03*
X12450000Y-25845000D03*
%TD*%
D18*
%TO.C,U1*%
X9937500Y-25562500D03*
D19*
X9050000Y-25362500D03*
D20*
X8725000Y-26000000D03*
D19*
X8400000Y-25362500D03*
D20*
X8075000Y-26000000D03*
D19*
X7750000Y-25362500D03*
D21*
X6850000Y-25562500D03*
D20*
X6650000Y-26450000D03*
X7300000Y-26775000D03*
X6650000Y-27100000D03*
X7300000Y-27425000D03*
X6650000Y-27750000D03*
X7300000Y-28075000D03*
X6650000Y-28400000D03*
X7300000Y-28725000D03*
X6650000Y-29050000D03*
X7300000Y-29375000D03*
X6650000Y-29700000D03*
X7300000Y-30025000D03*
X6650000Y-30350000D03*
X7300000Y-30675000D03*
X6650000Y-31000000D03*
X7300000Y-31325000D03*
X6650000Y-31650000D03*
D21*
X6850000Y-32537500D03*
D19*
X7750000Y-32737500D03*
D20*
X8075000Y-32100000D03*
D19*
X8400000Y-32737500D03*
D20*
X8725000Y-32100000D03*
D19*
X9050000Y-32737500D03*
D18*
X9937500Y-32537500D03*
D22*
X10137500Y-31650000D03*
D20*
X9487500Y-31325000D03*
D22*
X10137500Y-31000000D03*
D20*
X9487500Y-30675000D03*
D22*
X10137500Y-30350000D03*
D20*
X9487500Y-30025000D03*
D22*
X10137500Y-29700000D03*
D20*
X9487500Y-29375000D03*
D22*
X10137500Y-29050000D03*
D20*
X9487500Y-28725000D03*
D22*
X10137500Y-28400000D03*
D20*
X9487500Y-28075000D03*
D22*
X10137500Y-27750000D03*
D20*
X9487500Y-27425000D03*
D22*
X10137500Y-27100000D03*
D20*
X9487500Y-26775000D03*
D22*
X10137500Y-26450000D03*
D20*
X8725000Y-31325000D03*
X8725000Y-30675000D03*
X8725000Y-30025000D03*
X8725000Y-29375000D03*
X8725000Y-28725000D03*
X8725000Y-28075000D03*
X8725000Y-27425000D03*
X8725000Y-26775000D03*
X8075000Y-31325000D03*
X8075000Y-30675000D03*
X8075000Y-30025000D03*
X8075000Y-29375000D03*
X8075000Y-28725000D03*
X8075000Y-28075000D03*
X8075000Y-27425000D03*
X8075000Y-26775000D03*
D19*
X5900000Y-25362500D03*
X4900000Y-25362500D03*
X3900000Y-25362500D03*
D18*
X2962500Y-25562500D03*
D22*
X2762500Y-26550000D03*
X2762500Y-27550000D03*
X2762500Y-28550000D03*
X2762500Y-29550000D03*
X2762500Y-30550000D03*
X2762500Y-31550000D03*
D18*
X2962500Y-32537500D03*
D19*
X3900000Y-32737500D03*
X4900000Y-32737500D03*
X5900000Y-32737500D03*
%TD*%
D23*
%TO.C,SW1*%
X14450000Y-32725000D03*
X14450000Y-29475000D03*
%TD*%
D24*
%TO.C,R32*%
X17490000Y-21150000D03*
X18510000Y-21150000D03*
%TD*%
D16*
%TO.C,R8*%
X11400000Y-32955000D03*
X11400000Y-32265000D03*
%TD*%
%TO.C,C7*%
X8780000Y-23005000D03*
X8780000Y-22315000D03*
%TD*%
D24*
%TO.C,R31*%
X21890000Y-16800000D03*
X22910000Y-16800000D03*
%TD*%
D25*
%TO.C,U2*%
X12550000Y-21380000D03*
X11150000Y-21380000D03*
X12550000Y-22780000D03*
X11150000Y-22780000D03*
D26*
X13250000Y-20155000D03*
X12850000Y-20155000D03*
X12450000Y-20155000D03*
X12050000Y-20155000D03*
X11650000Y-20155000D03*
X11250000Y-20155000D03*
X10850000Y-20155000D03*
X10450000Y-20155000D03*
D27*
X9925000Y-20680000D03*
X9925000Y-21080000D03*
X9925000Y-21480000D03*
X9925000Y-21880000D03*
X9925000Y-22280000D03*
X9925000Y-22680000D03*
X9925000Y-23080000D03*
X9925000Y-23480000D03*
D26*
X10450000Y-24005000D03*
X10850000Y-24005000D03*
X11250000Y-24005000D03*
X11650000Y-24005000D03*
X12050000Y-24005000D03*
X12450000Y-24005000D03*
X12850000Y-24005000D03*
X13250000Y-24005000D03*
D27*
X13775000Y-23480000D03*
X13775000Y-23080000D03*
X13775000Y-22680000D03*
X13775000Y-22280000D03*
X13775000Y-21880000D03*
X13775000Y-21480000D03*
X13775000Y-21080000D03*
X13775000Y-20680000D03*
%TD*%
D11*
%TO.C,C6*%
X7750000Y-23140000D03*
X7750000Y-22180000D03*
%TD*%
D28*
%TO.C,C3*%
X14400000Y-16720000D03*
X14400000Y-17680000D03*
%TD*%
D16*
%TO.C,R28*%
X13350000Y-28045000D03*
X13350000Y-27355000D03*
%TD*%
D14*
%TO.C,R22*%
X14945000Y-27020000D03*
X14255000Y-27020000D03*
%TD*%
D16*
%TO.C,R6*%
X11400000Y-29975000D03*
X11400000Y-29285000D03*
%TD*%
D11*
%TO.C,C9*%
X10200000Y-18980000D03*
X10200000Y-18020000D03*
%TD*%
D29*
%TO.C,Q4*%
X14250000Y-27775000D03*
X14250000Y-28225000D03*
D30*
X14950000Y-28000000D03*
%TD*%
D14*
%TO.C,R23*%
X8295000Y-24100000D03*
X7605000Y-24100000D03*
%TD*%
D16*
%TO.C,R7*%
X11050000Y-25845000D03*
X11050000Y-25155000D03*
%TD*%
D24*
%TO.C,R33*%
X21890000Y-27100000D03*
X22910000Y-27100000D03*
%TD*%
D16*
%TO.C,C17*%
X11100000Y-18945000D03*
X11100000Y-18255000D03*
%TD*%
D14*
%TO.C,R13*%
X13595000Y-18970000D03*
X12905000Y-18970000D03*
%TD*%
M02*
