%TF.GenerationSoftware,KiCad,Pcbnew,10.0.6*%
%TF.CreationDate,2026-09-25T03:19:18-04:00*%
%TF.ProjectId,elicio-v4,656c6963-696f-42d7-9634-2e6b69636164,rev?*%
%TF.SameCoordinates,Original*%
%TF.FileFunction,Other,ECO2*%
%FSLAX46Y46*%
G04 Gerber Fmt 4.6, Leading zero omitted, Abs format (unit mm)*
G04 Created by KiCad (PCBNEW 10.0.6) date 2026-09-25 03:19:18*
%MOMM*%
%LPD*%
G01*
G04 APERTURE LIST*
%ADD10C,0.050000*%
%ADD11C,3.225000*%
%ADD12C,0.100000*%
G04 APERTURE END LIST*
D10*
X2450000Y-25050000D02*
X10700000Y-25050000D01*
X10700000Y-29900000D01*
X14800000Y-29900000D01*
X14800000Y-37300000D01*
X6450000Y-37300000D01*
X6450000Y-33049999D01*
X2450000Y-33049999D01*
X2450000Y-25050000D01*
G36*
X10700000Y-29900000D02*
G01*
X14800000Y-29900000D01*
X14800000Y-37300000D01*
X6450000Y-37300000D01*
X6450000Y-33049999D01*
X2450000Y-33049999D01*
X2450000Y-25050000D01*
X10700000Y-25050000D01*
X10700000Y-29900000D01*
G37*
D11*
X7512500Y-22000000D02*
G75*
G02*
X4287500Y-22000000I-1612500J0D01*
G01*
X4287500Y-22000000D02*
G75*
G02*
X7512500Y-22000000I1612500J0D01*
G01*
D12*
X2500002Y-36764204D02*
X2666669Y-36764204D01*
X2738097Y-37026109D02*
X2500002Y-37026109D01*
X2500002Y-37026109D02*
X2500002Y-36526109D01*
X2500002Y-36526109D02*
X2738097Y-36526109D01*
X3238097Y-36978490D02*
X3214288Y-37002300D01*
X3214288Y-37002300D02*
X3142859Y-37026109D01*
X3142859Y-37026109D02*
X3095240Y-37026109D01*
X3095240Y-37026109D02*
X3023812Y-37002300D01*
X3023812Y-37002300D02*
X2976193Y-36954680D01*
X2976193Y-36954680D02*
X2952383Y-36907061D01*
X2952383Y-36907061D02*
X2928574Y-36811823D01*
X2928574Y-36811823D02*
X2928574Y-36740395D01*
X2928574Y-36740395D02*
X2952383Y-36645157D01*
X2952383Y-36645157D02*
X2976193Y-36597538D01*
X2976193Y-36597538D02*
X3023812Y-36549919D01*
X3023812Y-36549919D02*
X3095240Y-36526109D01*
X3095240Y-36526109D02*
X3142859Y-36526109D01*
X3142859Y-36526109D02*
X3214288Y-36549919D01*
X3214288Y-36549919D02*
X3238097Y-36573728D01*
X3547621Y-36526109D02*
X3642859Y-36526109D01*
X3642859Y-36526109D02*
X3690478Y-36549919D01*
X3690478Y-36549919D02*
X3738097Y-36597538D01*
X3738097Y-36597538D02*
X3761907Y-36692776D01*
X3761907Y-36692776D02*
X3761907Y-36859442D01*
X3761907Y-36859442D02*
X3738097Y-36954680D01*
X3738097Y-36954680D02*
X3690478Y-37002300D01*
X3690478Y-37002300D02*
X3642859Y-37026109D01*
X3642859Y-37026109D02*
X3547621Y-37026109D01*
X3547621Y-37026109D02*
X3500002Y-37002300D01*
X3500002Y-37002300D02*
X3452383Y-36954680D01*
X3452383Y-36954680D02*
X3428574Y-36859442D01*
X3428574Y-36859442D02*
X3428574Y-36692776D01*
X3428574Y-36692776D02*
X3452383Y-36597538D01*
X3452383Y-36597538D02*
X3500002Y-36549919D01*
X3500002Y-36549919D02*
X3547621Y-36526109D01*
X3952384Y-36573728D02*
X3976193Y-36549919D01*
X3976193Y-36549919D02*
X4023812Y-36526109D01*
X4023812Y-36526109D02*
X4142860Y-36526109D01*
X4142860Y-36526109D02*
X4190479Y-36549919D01*
X4190479Y-36549919D02*
X4214288Y-36573728D01*
X4214288Y-36573728D02*
X4238098Y-36621347D01*
X4238098Y-36621347D02*
X4238098Y-36668966D01*
X4238098Y-36668966D02*
X4214288Y-36740395D01*
X4214288Y-36740395D02*
X3928574Y-37026109D01*
X3928574Y-37026109D02*
X4238098Y-37026109D01*
X4833335Y-36764204D02*
X5214288Y-36764204D01*
X5214288Y-36907061D02*
X4833335Y-36907061D01*
X6000002Y-36764204D02*
X5833335Y-36764204D01*
X5833335Y-37026109D02*
X5833335Y-36526109D01*
X5833335Y-36526109D02*
X6071430Y-36526109D01*
X6547620Y-37026109D02*
X6380954Y-36788014D01*
X6261906Y-37026109D02*
X6261906Y-36526109D01*
X6261906Y-36526109D02*
X6452382Y-36526109D01*
X6452382Y-36526109D02*
X6500001Y-36549919D01*
X6500001Y-36549919D02*
X6523811Y-36573728D01*
X6523811Y-36573728D02*
X6547620Y-36621347D01*
X6547620Y-36621347D02*
X6547620Y-36692776D01*
X6547620Y-36692776D02*
X6523811Y-36740395D01*
X6523811Y-36740395D02*
X6500001Y-36764204D01*
X6500001Y-36764204D02*
X6452382Y-36788014D01*
X6452382Y-36788014D02*
X6261906Y-36788014D01*
X6976192Y-36692776D02*
X6976192Y-37026109D01*
X6857144Y-36502300D02*
X6738097Y-36859442D01*
X6738097Y-36859442D02*
X7047620Y-36859442D01*
X7714286Y-36526109D02*
X7761905Y-36526109D01*
X7761905Y-36526109D02*
X7809524Y-36549919D01*
X7809524Y-36549919D02*
X7833334Y-36573728D01*
X7833334Y-36573728D02*
X7857143Y-36621347D01*
X7857143Y-36621347D02*
X7880953Y-36716585D01*
X7880953Y-36716585D02*
X7880953Y-36835633D01*
X7880953Y-36835633D02*
X7857143Y-36930871D01*
X7857143Y-36930871D02*
X7833334Y-36978490D01*
X7833334Y-36978490D02*
X7809524Y-37002300D01*
X7809524Y-37002300D02*
X7761905Y-37026109D01*
X7761905Y-37026109D02*
X7714286Y-37026109D01*
X7714286Y-37026109D02*
X7666667Y-37002300D01*
X7666667Y-37002300D02*
X7642858Y-36978490D01*
X7642858Y-36978490D02*
X7619048Y-36930871D01*
X7619048Y-36930871D02*
X7595239Y-36835633D01*
X7595239Y-36835633D02*
X7595239Y-36716585D01*
X7595239Y-36716585D02*
X7619048Y-36621347D01*
X7619048Y-36621347D02*
X7642858Y-36573728D01*
X7642858Y-36573728D02*
X7666667Y-36549919D01*
X7666667Y-36549919D02*
X7714286Y-36526109D01*
X8095238Y-36978490D02*
X8119048Y-37002300D01*
X8119048Y-37002300D02*
X8095238Y-37026109D01*
X8095238Y-37026109D02*
X8071429Y-37002300D01*
X8071429Y-37002300D02*
X8095238Y-36978490D01*
X8095238Y-36978490D02*
X8095238Y-37026109D01*
X8309524Y-36573728D02*
X8333333Y-36549919D01*
X8333333Y-36549919D02*
X8380952Y-36526109D01*
X8380952Y-36526109D02*
X8500000Y-36526109D01*
X8500000Y-36526109D02*
X8547619Y-36549919D01*
X8547619Y-36549919D02*
X8571428Y-36573728D01*
X8571428Y-36573728D02*
X8595238Y-36621347D01*
X8595238Y-36621347D02*
X8595238Y-36668966D01*
X8595238Y-36668966D02*
X8571428Y-36740395D01*
X8571428Y-36740395D02*
X8285714Y-37026109D01*
X8285714Y-37026109D02*
X8595238Y-37026109D01*
X9357142Y-36764204D02*
X9428570Y-36788014D01*
X9428570Y-36788014D02*
X9452380Y-36811823D01*
X9452380Y-36811823D02*
X9476189Y-36859442D01*
X9476189Y-36859442D02*
X9476189Y-36930871D01*
X9476189Y-36930871D02*
X9452380Y-36978490D01*
X9452380Y-36978490D02*
X9428570Y-37002300D01*
X9428570Y-37002300D02*
X9380951Y-37026109D01*
X9380951Y-37026109D02*
X9190475Y-37026109D01*
X9190475Y-37026109D02*
X9190475Y-36526109D01*
X9190475Y-36526109D02*
X9357142Y-36526109D01*
X9357142Y-36526109D02*
X9404761Y-36549919D01*
X9404761Y-36549919D02*
X9428570Y-36573728D01*
X9428570Y-36573728D02*
X9452380Y-36621347D01*
X9452380Y-36621347D02*
X9452380Y-36668966D01*
X9452380Y-36668966D02*
X9428570Y-36716585D01*
X9428570Y-36716585D02*
X9404761Y-36740395D01*
X9404761Y-36740395D02*
X9357142Y-36764204D01*
X9357142Y-36764204D02*
X9190475Y-36764204D01*
X10047618Y-37002300D02*
X10119046Y-37026109D01*
X10119046Y-37026109D02*
X10238094Y-37026109D01*
X10238094Y-37026109D02*
X10285713Y-37002300D01*
X10285713Y-37002300D02*
X10309522Y-36978490D01*
X10309522Y-36978490D02*
X10333332Y-36930871D01*
X10333332Y-36930871D02*
X10333332Y-36883252D01*
X10333332Y-36883252D02*
X10309522Y-36835633D01*
X10309522Y-36835633D02*
X10285713Y-36811823D01*
X10285713Y-36811823D02*
X10238094Y-36788014D01*
X10238094Y-36788014D02*
X10142856Y-36764204D01*
X10142856Y-36764204D02*
X10095237Y-36740395D01*
X10095237Y-36740395D02*
X10071427Y-36716585D01*
X10071427Y-36716585D02*
X10047618Y-36668966D01*
X10047618Y-36668966D02*
X10047618Y-36621347D01*
X10047618Y-36621347D02*
X10071427Y-36573728D01*
X10071427Y-36573728D02*
X10095237Y-36549919D01*
X10095237Y-36549919D02*
X10142856Y-36526109D01*
X10142856Y-36526109D02*
X10261903Y-36526109D01*
X10261903Y-36526109D02*
X10333332Y-36549919D01*
X10547617Y-37026109D02*
X10547617Y-36526109D01*
X10785712Y-37026109D02*
X10785712Y-36526109D01*
X10785712Y-36526109D02*
X10904760Y-36526109D01*
X10904760Y-36526109D02*
X10976188Y-36549919D01*
X10976188Y-36549919D02*
X11023807Y-36597538D01*
X11023807Y-36597538D02*
X11047617Y-36645157D01*
X11047617Y-36645157D02*
X11071426Y-36740395D01*
X11071426Y-36740395D02*
X11071426Y-36811823D01*
X11071426Y-36811823D02*
X11047617Y-36907061D01*
X11047617Y-36907061D02*
X11023807Y-36954680D01*
X11023807Y-36954680D02*
X10976188Y-37002300D01*
X10976188Y-37002300D02*
X10904760Y-37026109D01*
X10904760Y-37026109D02*
X10785712Y-37026109D01*
X11285712Y-36764204D02*
X11452379Y-36764204D01*
X11523807Y-37026109D02*
X11285712Y-37026109D01*
X11285712Y-37026109D02*
X11285712Y-36526109D01*
X11285712Y-36526109D02*
X11523807Y-36526109D01*
M02*
