M48
; DRILL file KiCad 10.0.6 date 2026-09-25T04:31:35
; FORMAT={-:-/ absolute / metric / decimal}
; #@! TF.CreationDate,2026-09-25T04:31:35-04:00
; #@! TF.GenerationSoftware,Kicad,Pcbnew,10.0.6
; #@! TF.FileFunction,Plated,1,2,PTH
FMAT,2
METRIC
; #@! TA.AperFunction,Plated,PTH,ViaDrill
T1C0.150
; #@! TA.AperFunction,Plated,PTH,ComponentDrill
T2C1.000
; #@! TA.AperFunction,Plated,PTH,ComponentDrill
T3C2.700
%
G90
G05
T1
X3.35Y-17.75
X5.1Y-17.075
X5.525Y-18.625
X6.3Y-18.65
X6.38Y-17.45
X6.7Y-18.3
X6.7Y-28.725
X6.7Y-29.375
X6.7Y-33.15
X7.175Y-34.15
X7.6Y-36.7
X7.825Y-18.95
X8.1Y-18.125
X8.35Y-17.37
X9.1Y-23.45
X9.55Y-19.6
X9.75Y-18.5
X10.4Y-16.5
X10.45Y-24.75
X10.55Y-29.2
X10.6Y-28.1
X10.625Y-27.175
X10.625Y-29.725
X10.63Y-36.7
X10.68Y-20.85
X10.775Y-26.675
X11.55Y-19.5
X11.65Y-22.0
X11.67Y-17.15
X12.4Y-29.775
X12.55Y-26.275
X12.85Y-20.85
X12.85Y-24.6
X12.95Y-25.6
X13.0Y-17.65
X13.15Y-29.525
X13.35Y-18.45
X13.425Y-29.075
X13.5Y-28.58
X13.9Y-18.45
X14.275Y-17.2
X14.4Y-21.4
X14.4Y-22.3
X14.45Y-23.15
X14.45Y-23.85
X14.95Y-21.95
X15.2Y-24.05
X16.514Y-7.55
X18.4Y-17.0
T2
X22.4Y-19.4
X22.4Y-21.94
X22.4Y-24.48
T3
X5.9Y-5.29
X8.5Y-43.0
X10.4Y5.81
M30
