%TF.GenerationSoftware,KiCad,Pcbnew,10.0.6*%
%TF.CreationDate,2026-09-23T22:29:20-04:00*%
%TF.ProjectId,elicio-v4,656c6963-696f-42d7-9634-2e6b69636164,rev?*%
%TF.SameCoordinates,Original*%
%TF.FileFunction,Copper,L1,Top*%
%TF.FilePolarity,Positive*%
%FSLAX46Y46*%
G04 Gerber Fmt 4.6, Leading zero omitted, Abs format (unit mm)*
G04 Created by KiCad (PCBNEW 10.0.6) date 2026-09-23 22:29:20*
%MOMM*%
%LPD*%
G01*
G04 APERTURE LIST*
G04 Aperture macros list*
%AMRoundRect*
0 Rectangle with rounded corners*
0 $1 Rounding radius*
0 $2 $3 $4 $5 $6 $7 $8 $9 X,Y pos of 4 corners*
0 Add a 4 corners polygon primitive as box body*
4,1,4,$2,$3,$4,$5,$6,$7,$8,$9,$2,$3,0*
0 Add four circle primitives for the rounded corners*
1,1,$1+$1,$2,$3*
1,1,$1+$1,$4,$5*
1,1,$1+$1,$6,$7*
1,1,$1+$1,$8,$9*
0 Add four rect primitives between the rounded corners*
20,1,$1+$1,$2,$3,$4,$5,0*
20,1,$1+$1,$4,$5,$6,$7,0*
20,1,$1+$1,$6,$7,$8,$9,0*
20,1,$1+$1,$8,$9,$2,$3,0*%
G04 Aperture macros list end*
%TA.AperFunction,ComponentPad*%
%ADD10C,5.000000*%
%TD*%
%TA.AperFunction,SMDPad,CuDef*%
%ADD11RoundRect,0.100000X0.100000X-0.130000X0.100000X0.130000X-0.100000X0.130000X-0.100000X-0.130000X0*%
%TD*%
%TA.AperFunction,SMDPad,CuDef*%
%ADD12RoundRect,0.140000X0.170000X-0.140000X0.170000X0.140000X-0.170000X0.140000X-0.170000X-0.140000X0*%
%TD*%
%TA.AperFunction,SMDPad,CuDef*%
%ADD13R,1.500000X0.550000*%
%TD*%
%TA.AperFunction,SMDPad,CuDef*%
%ADD14RoundRect,0.100000X-0.100000X0.130000X-0.100000X-0.130000X0.100000X-0.130000X0.100000X0.130000X0*%
%TD*%
%TA.AperFunction,SMDPad,CuDef*%
%ADD15RoundRect,0.050000X-0.150000X-0.075000X0.150000X-0.075000X0.150000X0.075000X-0.150000X0.075000X0*%
%TD*%
%TA.AperFunction,SMDPad,CuDef*%
%ADD16RoundRect,0.050000X-0.150000X-0.300000X0.150000X-0.300000X0.150000X0.300000X-0.150000X0.300000X0*%
%TD*%
%TA.AperFunction,SMDPad,CuDef*%
%ADD17RoundRect,0.100000X0.130000X0.100000X-0.130000X0.100000X-0.130000X-0.100000X0.130000X-0.100000X0*%
%TD*%
%TA.AperFunction,SMDPad,CuDef*%
%ADD18RoundRect,0.135000X-0.135000X-0.185000X0.135000X-0.185000X0.135000X0.185000X-0.135000X0.185000X0*%
%TD*%
%TA.AperFunction,SMDPad,CuDef*%
%ADD19R,0.775000X0.775000*%
%TD*%
%TA.AperFunction,SMDPad,CuDef*%
%ADD20R,0.400000X0.375000*%
%TD*%
%TA.AperFunction,SMDPad,CuDef*%
%ADD21R,0.400000X0.400000*%
%TD*%
%TA.AperFunction,SMDPad,CuDef*%
%ADD22R,0.800000X0.775000*%
%TD*%
%TA.AperFunction,SMDPad,CuDef*%
%ADD23R,0.375000X0.400000*%
%TD*%
%TA.AperFunction,ComponentPad*%
%ADD24R,1.700000X1.700000*%
%TD*%
%TA.AperFunction,ComponentPad*%
%ADD25C,1.700000*%
%TD*%
%TA.AperFunction,SMDPad,CuDef*%
%ADD26RoundRect,0.100000X-0.130000X-0.100000X0.130000X-0.100000X0.130000X0.100000X-0.130000X0.100000X0*%
%TD*%
%TA.AperFunction,SMDPad,CuDef*%
%ADD27RoundRect,0.050000X-0.050000X0.225000X-0.050000X-0.225000X0.050000X-0.225000X0.050000X0.225000X0*%
%TD*%
%TA.AperFunction,SMDPad,CuDef*%
%ADD28RoundRect,0.050000X-0.225000X0.050000X-0.225000X-0.050000X0.225000X-0.050000X0.225000X0.050000X0*%
%TD*%
%TA.AperFunction,HeatsinkPad*%
%ADD29R,2.800000X2.800000*%
%TD*%
%TA.AperFunction,SMDPad,CuDef*%
%ADD30RoundRect,0.147500X-0.147500X-0.172500X0.147500X-0.172500X0.147500X0.172500X-0.147500X0.172500X0*%
%TD*%
%TA.AperFunction,ConnectorPad*%
%ADD31C,0.787400*%
%TD*%
%TA.AperFunction,SMDPad,CuDef*%
%ADD32RoundRect,0.175000X-0.250000X0.175000X-0.250000X-0.175000X0.250000X-0.175000X0.250000X0.175000X0*%
%TD*%
%TA.AperFunction,SMDPad,CuDef*%
%ADD33RoundRect,0.175000X-0.225000X0.175000X-0.225000X-0.175000X0.225000X-0.175000X0.225000X0.175000X0*%
%TD*%
%TA.AperFunction,ViaPad*%
%ADD34C,0.400000*%
%TD*%
%TA.AperFunction,Conductor*%
%ADD35C,0.100000*%
%TD*%
%TA.AperFunction,Conductor*%
%ADD36C,0.120000*%
%TD*%
%TA.AperFunction,Conductor*%
%ADD37C,0.150000*%
%TD*%
%TA.AperFunction,Conductor*%
%ADD38C,0.250000*%
%TD*%
%TA.AperFunction,Conductor*%
%ADD39C,0.200000*%
%TD*%
G04 APERTURE END LIST*
D10*
%TO.P,P3,1*%
%TO.N,REF*%
X8500000Y-43000000D03*
%TD*%
D11*
%TO.P,C7,1*%
%TO.N,+3V0*%
X8780000Y-22980000D03*
%TO.P,C7,2*%
%TO.N,GND*%
X8780000Y-22340000D03*
%TD*%
D12*
%TO.P,C9,1*%
%TO.N,VREFP*%
X10200000Y-18980000D03*
%TO.P,C9,2*%
%TO.N,GND*%
X10200000Y-18020000D03*
%TD*%
D13*
%TO.P,SW1,1*%
%TO.N,nRESET*%
X14450000Y-32725000D03*
%TO.P,SW1,2*%
%TO.N,GND*%
X14450000Y-29475000D03*
%TD*%
D14*
%TO.P,R27,1*%
%TO.N,AFE_DRDY_AFE*%
X12450000Y-25180000D03*
%TO.P,R27,2*%
%TO.N,AFE_DRDY*%
X12450000Y-25820000D03*
%TD*%
D11*
%TO.P,R7,1*%
%TO.N,AFE_CS*%
X11050000Y-25820000D03*
%TO.P,R7,2*%
%TO.N,AFE_CS_AFE*%
X11050000Y-25180000D03*
%TD*%
%TO.P,R5,1*%
%TO.N,AFE_SCLK*%
X11400000Y-31440000D03*
%TO.P,R5,2*%
%TO.N,AFE_SCLK_AFE*%
X11400000Y-30800000D03*
%TD*%
D15*
%TO.P,Q4,1*%
%TO.N,LED_EN*%
X14250000Y-27775000D03*
%TO.P,Q4,2*%
%TO.N,GND*%
X14250000Y-28225000D03*
D16*
%TO.P,Q4,3*%
%TO.N,CHG_LED_K*%
X14950000Y-28000000D03*
%TD*%
D12*
%TO.P,C6,1*%
%TO.N,+3V0*%
X7750000Y-23140000D03*
%TO.P,C6,2*%
%TO.N,GND*%
X7750000Y-22180000D03*
%TD*%
D17*
%TO.P,R12,1*%
%TO.N,PRETERM*%
X12920000Y-18150000D03*
%TO.P,R12,2*%
%TO.N,GND*%
X12280000Y-18150000D03*
%TD*%
D11*
%TO.P,R8,1*%
%TO.N,AFE_MISO_AFE*%
X11400000Y-32930000D03*
%TO.P,R8,2*%
%TO.N,AFE_MISO*%
X11400000Y-32290000D03*
%TD*%
D18*
%TO.P,R31,1*%
%TO.N,AFE_IN1P*%
X21890000Y-16800000D03*
%TO.P,R31,2*%
%TO.N,BENCH_SIG1*%
X22910000Y-16800000D03*
%TD*%
D11*
%TO.P,C10,1*%
%TO.N,VCAP1*%
X9100000Y-18920000D03*
%TO.P,C10,2*%
%TO.N,GND*%
X9100000Y-18280000D03*
%TD*%
D19*
%TO.P,U1,1*%
%TO.N,GND*%
X9937500Y-25562500D03*
D20*
%TO.P,U1,2*%
%TO.N,unconnected-(U1-P0.09{slash}NFC1-Pad2)*%
X9050000Y-25362500D03*
D21*
%TO.P,U1,3*%
%TO.N,unconnected-(U1-P0.12-Pad3)*%
X8725000Y-26000000D03*
D20*
%TO.P,U1,4*%
%TO.N,AFE_START*%
X8400000Y-25362500D03*
D21*
%TO.P,U1,5*%
%TO.N,unconnected-(U1-P0.14-Pad5)*%
X8075000Y-26000000D03*
D20*
%TO.P,U1,6*%
%TO.N,AFE_RESET*%
X7750000Y-25362500D03*
D22*
%TO.P,U1,7*%
%TO.N,GND*%
X6850000Y-25562500D03*
D21*
%TO.P,U1,8*%
%TO.N,unconnected-(U1-D+-Pad8)*%
X6650000Y-26450000D03*
%TO.P,U1,9*%
%TO.N,unconnected-(U1-P0.16-Pad9)*%
X7300000Y-26775000D03*
%TO.P,U1,10*%
%TO.N,unconnected-(U1-D--Pad10)*%
X6650000Y-27100000D03*
%TO.P,U1,11*%
%TO.N,unconnected-(U1-P0.21-Pad11)*%
X7300000Y-27425000D03*
%TO.P,U1,12*%
%TO.N,unconnected-(U1-VBUS-Pad12)*%
X6650000Y-27750000D03*
%TO.P,U1,13*%
%TO.N,nRESET*%
X7300000Y-28075000D03*
%TO.P,U1,14*%
%TO.N,GND*%
X6650000Y-28400000D03*
%TO.P,U1,15*%
%TO.N,unconnected-(U1-P0.20-Pad15)*%
X7300000Y-28725000D03*
%TO.P,U1,16*%
%TO.N,GND*%
X6650000Y-29050000D03*
%TO.P,U1,17*%
%TO.N,unconnected-(U1-P0.22-Pad17)*%
X7300000Y-29375000D03*
%TO.P,U1,18*%
%TO.N,GND*%
X6650000Y-29700000D03*
%TO.P,U1,19*%
%TO.N,unconnected-(U1-P0.24-Pad19)*%
X7300000Y-30025000D03*
%TO.P,U1,20*%
%TO.N,RF_ANT*%
X6650000Y-30350000D03*
%TO.P,U1,21*%
%TO.N,GND*%
X7300000Y-30675000D03*
%TO.P,U1,22*%
%TO.N,RF_ANT*%
X6650000Y-31000000D03*
%TO.P,U1,23*%
%TO.N,GND*%
X7300000Y-31325000D03*
%TO.P,U1,24*%
X6650000Y-31650000D03*
D22*
%TO.P,U1,25*%
X6850000Y-32537500D03*
D20*
%TO.P,U1,26*%
%TO.N,+VDD*%
X7750000Y-32737500D03*
D21*
%TO.P,U1,27*%
%TO.N,unconnected-(U1-P0.17-Pad27)*%
X8075000Y-32100000D03*
D20*
%TO.P,U1,28*%
%TO.N,SWDIO*%
X8400000Y-32737500D03*
D21*
%TO.P,U1,29*%
%TO.N,unconnected-(U1-P0.13-Pad29)*%
X8725000Y-32100000D03*
D20*
%TO.P,U1,30*%
%TO.N,SWDCLK*%
X9050000Y-32737500D03*
D19*
%TO.P,U1,31*%
%TO.N,GND*%
X9937500Y-32537500D03*
D23*
%TO.P,U1,32*%
%TO.N,AFE_MISO*%
X10137500Y-31650000D03*
D21*
%TO.P,U1,33*%
%TO.N,unconnected-(U1-P0.07-Pad33)*%
X9487500Y-31325000D03*
D23*
%TO.P,U1,34*%
%TO.N,AFE_SCLK*%
X10137500Y-31000000D03*
D21*
%TO.P,U1,35*%
%TO.N,unconnected-(U1-P0.04{slash}AIN2-Pad35)*%
X9487500Y-30675000D03*
D23*
%TO.P,U1,36*%
%TO.N,AFE_MOSI*%
X10137500Y-30350000D03*
D21*
%TO.P,U1,37*%
%TO.N,unconnected-(U1-P0.15-Pad37)*%
X9487500Y-30025000D03*
D23*
%TO.P,U1,38*%
%TO.N,LED_EN*%
X10137500Y-29700000D03*
D21*
%TO.P,U1,39*%
%TO.N,unconnected-(U1-P0.27-Pad39)*%
X9487500Y-29375000D03*
D23*
%TO.P,U1,40*%
%TO.N,VBUS_DET*%
X10137500Y-29050000D03*
D21*
%TO.P,U1,41*%
%TO.N,unconnected-(U1-P0.25-Pad41)*%
X9487500Y-28725000D03*
D23*
%TO.P,U1,42*%
%TO.N,VBAT_SENSE*%
X10137500Y-28400000D03*
D21*
%TO.P,U1,43*%
%TO.N,unconnected-(U1-P0.11-Pad43)*%
X9487500Y-28075000D03*
D23*
%TO.P,U1,44*%
%TO.N,CHG_MON*%
X10137500Y-27750000D03*
D21*
%TO.P,U1,45*%
%TO.N,unconnected-(U1-P0.19-Pad45)*%
X9487500Y-27425000D03*
D23*
%TO.P,U1,46*%
%TO.N,AFE_DRDY*%
X10137500Y-27100000D03*
D21*
%TO.P,U1,47*%
%TO.N,unconnected-(U1-P0.23-Pad47)*%
X9487500Y-26775000D03*
D23*
%TO.P,U1,48*%
%TO.N,AFE_CS*%
X10137500Y-26450000D03*
D21*
%TO.P,U1,49*%
%TO.N,unconnected-(U1-P1.02-Pad49)*%
X8725000Y-31325000D03*
%TO.P,U1,50*%
%TO.N,unconnected-(U1-P1.06-Pad50)*%
X8725000Y-30675000D03*
%TO.P,U1,51*%
%TO.N,unconnected-(U1-P1.15-Pad51)*%
X8725000Y-30025000D03*
%TO.P,U1,52*%
%TO.N,unconnected-(U1-P1.14-Pad52)*%
X8725000Y-29375000D03*
%TO.P,U1,53*%
%TO.N,unconnected-(U1-P1.13-Pad53)*%
X8725000Y-28725000D03*
%TO.P,U1,54*%
%TO.N,unconnected-(U1-P1.05-Pad54)*%
X8725000Y-28075000D03*
%TO.P,U1,55*%
%TO.N,unconnected-(U1-P1.08-Pad55)*%
X8725000Y-27425000D03*
%TO.P,U1,56*%
%TO.N,unconnected-(U1-P1.09-Pad56)*%
X8725000Y-26775000D03*
%TO.P,U1,57*%
%TO.N,unconnected-(U1-P1.00-Pad57)*%
X8075000Y-31325000D03*
%TO.P,U1,58*%
%TO.N,unconnected-(U1-P1.03-Pad58)*%
X8075000Y-30675000D03*
%TO.P,U1,59*%
%TO.N,unconnected-(U1-P1.12-Pad59)*%
X8075000Y-30025000D03*
%TO.P,U1,60*%
%TO.N,unconnected-(U1-P1.10-Pad60)*%
X8075000Y-29375000D03*
%TO.P,U1,61*%
%TO.N,unconnected-(U1-P1.11-Pad61)*%
X8075000Y-28725000D03*
%TO.P,U1,62*%
%TO.N,unconnected-(U1-P1.07-Pad62)*%
X8075000Y-28075000D03*
%TO.P,U1,63*%
%TO.N,unconnected-(U1-P1.04-Pad63)*%
X8075000Y-27425000D03*
%TO.P,U1,64*%
%TO.N,unconnected-(U1-P1.01-Pad64)*%
X8075000Y-26775000D03*
D20*
%TO.P,U1,65*%
%TO.N,unconnected-(U1-NC-Pad65)*%
X5900000Y-25362500D03*
%TO.P,U1,66*%
%TO.N,unconnected-(U1-NC-Pad66)*%
X4900000Y-25362500D03*
%TO.P,U1,67*%
%TO.N,unconnected-(U1-NC-Pad67)*%
X3900000Y-25362500D03*
D19*
%TO.P,U1,68*%
%TO.N,unconnected-(U1-NC-Pad68)*%
X2962500Y-25562500D03*
D23*
%TO.P,U1,69*%
%TO.N,unconnected-(U1-NC-Pad69)*%
X2762500Y-26550000D03*
%TO.P,U1,70*%
%TO.N,unconnected-(U1-NC-Pad70)*%
X2762500Y-27550000D03*
%TO.P,U1,71*%
%TO.N,unconnected-(U1-NC-Pad71)*%
X2762500Y-28550000D03*
%TO.P,U1,72*%
%TO.N,unconnected-(U1-NC-Pad72)*%
X2762500Y-29550000D03*
%TO.P,U1,73*%
%TO.N,unconnected-(U1-NC-Pad73)*%
X2762500Y-30550000D03*
%TO.P,U1,74*%
%TO.N,unconnected-(U1-NC-Pad74)*%
X2762500Y-31550000D03*
D19*
%TO.P,U1,75*%
%TO.N,unconnected-(U1-NC-Pad75)*%
X2962500Y-32537500D03*
D20*
%TO.P,U1,76*%
%TO.N,unconnected-(U1-NC-Pad76)*%
X3900000Y-32737500D03*
%TO.P,U1,77*%
%TO.N,unconnected-(U1-NC-Pad77)*%
X4900000Y-32737500D03*
%TO.P,U1,78*%
%TO.N,unconnected-(U1-NC-Pad78)*%
X5900000Y-32737500D03*
%TD*%
D24*
%TO.P,J3,1*%
%TO.N,BENCH_SIG1*%
X22400000Y-19400000D03*
D25*
%TO.P,J3,2*%
%TO.N,BENCH_SIG2*%
X22400000Y-21940000D03*
%TO.P,J3,3*%
%TO.N,BENCH_REF*%
X22400000Y-24480000D03*
%TD*%
D17*
%TO.P,R23,1*%
%TO.N,AFE_RESET*%
X8270000Y-24100000D03*
%TO.P,R23,2*%
%TO.N,GND*%
X7630000Y-24100000D03*
%TD*%
D26*
%TO.P,R13,1*%
%TO.N,TS*%
X12280000Y-18950000D03*
%TO.P,R13,2*%
%TO.N,GND*%
X12920000Y-18950000D03*
%TD*%
D27*
%TO.P,U2,1*%
%TO.N,unconnected-(U2-PGA1N-Pad1)*%
X13250000Y-20155000D03*
%TO.P,U2,2*%
%TO.N,unconnected-(U2-PGA1P-Pad2)*%
X12850000Y-20155000D03*
%TO.P,U2,3*%
%TO.N,AFE_IN1N*%
X12450000Y-20155000D03*
%TO.P,U2,4*%
%TO.N,AFE_IN1P*%
X12050000Y-20155000D03*
%TO.P,U2,5*%
%TO.N,+3V0*%
X11650000Y-20155000D03*
%TO.P,U2,6*%
X11250000Y-20155000D03*
%TO.P,U2,7*%
%TO.N,unconnected-(U2-PGA2N-Pad7)*%
X10850000Y-20155000D03*
%TO.P,U2,8*%
%TO.N,unconnected-(U2-PGA2P-Pad8)*%
X10450000Y-20155000D03*
D28*
%TO.P,U2,9*%
%TO.N,VREFP*%
X9925000Y-20680000D03*
%TO.P,U2,10*%
%TO.N,GND*%
X9925000Y-21080000D03*
%TO.P,U2,11*%
%TO.N,VCAP1*%
X9925000Y-21480000D03*
%TO.P,U2,12*%
%TO.N,+3V0*%
X9925000Y-21880000D03*
%TO.P,U2,13*%
%TO.N,GND*%
X9925000Y-22280000D03*
%TO.P,U2,14*%
%TO.N,+3V0*%
X9925000Y-22680000D03*
%TO.P,U2,15*%
%TO.N,AFE_RESET*%
X9925000Y-23080000D03*
%TO.P,U2,16*%
%TO.N,AFE_START*%
X9925000Y-23480000D03*
D27*
%TO.P,U2,17*%
%TO.N,unconnected-(U2-CLK-Pad17)*%
X10450000Y-24005000D03*
%TO.P,U2,18*%
%TO.N,AFE_CS_AFE*%
X10850000Y-24005000D03*
%TO.P,U2,19*%
%TO.N,AFE_MOSI_AFE*%
X11250000Y-24005000D03*
%TO.P,U2,20*%
%TO.N,AFE_SCLK_AFE*%
X11650000Y-24005000D03*
%TO.P,U2,21*%
%TO.N,AFE_MISO_AFE*%
X12050000Y-24005000D03*
%TO.P,U2,22*%
%TO.N,AFE_DRDY_AFE*%
X12450000Y-24005000D03*
%TO.P,U2,23*%
%TO.N,+3V0*%
X12850000Y-24005000D03*
%TO.P,U2,24*%
%TO.N,GND*%
X13250000Y-24005000D03*
D28*
%TO.P,U2,25*%
%TO.N,unconnected-(U2-GPIO2-Pad25)*%
X13775000Y-23480000D03*
%TO.P,U2,26*%
%TO.N,unconnected-(U2-GPIO1-Pad26)*%
X13775000Y-23080000D03*
%TO.P,U2,27*%
%TO.N,VCAP2*%
X13775000Y-22680000D03*
%TO.P,U2,28*%
%TO.N,RLDINV*%
X13775000Y-22280000D03*
%TO.P,U2,29*%
%TO.N,RLD_FB*%
X13775000Y-21880000D03*
%TO.P,U2,30*%
X13775000Y-21480000D03*
%TO.P,U2,31*%
%TO.N,+3V0*%
X13775000Y-21080000D03*
%TO.P,U2,32*%
X13775000Y-20680000D03*
D29*
%TO.P,U2,33*%
%TO.N,GND*%
X11850000Y-22080000D03*
%TD*%
D17*
%TO.P,R22,1*%
%TO.N,VBUS*%
X14920000Y-27020000D03*
%TO.P,R22,2*%
%TO.N,D2_A*%
X14280000Y-27020000D03*
%TD*%
D30*
%TO.P,D2,1*%
%TO.N,CHG_LED_K*%
X14165000Y-26100000D03*
%TO.P,D2,2*%
%TO.N,D2_A*%
X15135000Y-26100000D03*
%TD*%
D10*
%TO.P,P2,1*%
%TO.N,SIG2*%
X10400000Y5810000D03*
%TD*%
D18*
%TO.P,R32,1*%
%TO.N,AFE_IN1N*%
X17490000Y-21150000D03*
%TO.P,R32,2*%
%TO.N,BENCH_SIG2*%
X18510000Y-21150000D03*
%TD*%
D26*
%TO.P,C15,1*%
%TO.N,+3V0*%
X13280000Y-25150000D03*
%TO.P,C15,2*%
%TO.N,GND*%
X13920000Y-25150000D03*
%TD*%
D31*
%TO.P,J4,1*%
%TO.N,+VDD*%
X8730000Y-36035000D03*
%TO.P,J4,2*%
%TO.N,SWDIO*%
X8730000Y-34765000D03*
%TO.P,J4,3*%
%TO.N,GND*%
X10000000Y-36035000D03*
%TO.P,J4,4*%
%TO.N,SWDCLK*%
X10000000Y-34765000D03*
%TO.P,J4,5*%
%TO.N,GND*%
X11270000Y-36035000D03*
%TO.P,J4,6*%
%TO.N,nRESET*%
X11270000Y-34765000D03*
%TD*%
D11*
%TO.P,R28,1*%
%TO.N,LED_EN*%
X13350000Y-28020000D03*
%TO.P,R28,2*%
%TO.N,GND*%
X13350000Y-27380000D03*
%TD*%
D10*
%TO.P,P1,1*%
%TO.N,SIG1*%
X5900000Y-5290000D03*
%TD*%
D32*
%TO.P,J2,1*%
%TO.N,VBAT*%
X7450000Y-18300000D03*
%TO.P,J2,2*%
%TO.N,GND*%
X7450000Y-19500000D03*
D33*
%TO.P,J2,MP*%
X3425000Y-17000000D03*
X3425000Y-20800000D03*
%TD*%
D11*
%TO.P,R6,1*%
%TO.N,AFE_MOSI*%
X11400000Y-29950000D03*
%TO.P,R6,2*%
%TO.N,AFE_MOSI_AFE*%
X11400000Y-29310000D03*
%TD*%
D18*
%TO.P,R33,1*%
%TO.N,RLD_FB*%
X21890000Y-27100000D03*
%TO.P,R33,2*%
%TO.N,BENCH_REF*%
X22910000Y-27100000D03*
%TD*%
D34*
%TO.N,+3V0*%
X13650000Y-20350000D03*
X9100000Y-23350000D03*
X12725000Y-24500000D03*
X11275000Y-19650000D03*
%TO.N,GND*%
X10630000Y-36700000D03*
X8875000Y-20175000D03*
X15150000Y-22350000D03*
X4975000Y-16400000D03*
X6775000Y-17875000D03*
X6700000Y-28725000D03*
X14350000Y-19175000D03*
X13375000Y-26925000D03*
X11175000Y-17575000D03*
X6700000Y-29375000D03*
X2750000Y-18725000D03*
X13150000Y-17650000D03*
X10100000Y-24950000D03*
X6700000Y-33150000D03*
X14175000Y-28750000D03*
X13375000Y-19025000D03*
%TO.N,AFE_SCLK_AFE*%
X13400000Y-30225000D03*
X11950000Y-29950000D03*
%TO.N,LED_EN*%
X10600000Y-29375000D03*
X13000000Y-28375000D03*
%TO.N,PRETERM*%
X13375000Y-18275000D03*
%TO.N,AFE_MISO_AFE*%
X12200000Y-29500000D03*
X12900000Y-30200000D03*
%TO.N,AFE_IN1P*%
X5350000Y-17675000D03*
X9800000Y-16450000D03*
X11150000Y-16600000D03*
X9700000Y-18525000D03*
%TO.N,AFE_START*%
X9800000Y-24225000D03*
%TO.N,+VDD*%
X7175000Y-34150000D03*
X7600000Y-36700000D03*
%TO.N,VBUS_DET*%
X10625000Y-28575000D03*
%TO.N,VBAT_SENSE*%
X10850000Y-28125000D03*
%TO.N,CHG_MON*%
X10600000Y-27450000D03*
X10575000Y-17175000D03*
X6400000Y-18650000D03*
%TO.N,TS*%
X13875000Y-18300000D03*
%TO.N,AFE_IN1N*%
X10925000Y-18400000D03*
%TO.N,VCAP2*%
X13275000Y-24600000D03*
%TO.N,RLDINV*%
X14275000Y-22250000D03*
%TO.N,RLD_FB*%
X14500000Y-22700000D03*
%TO.N,VBUS*%
X18400000Y-17000000D03*
X16514000Y-7550000D03*
X14475000Y-25100000D03*
%TO.N,SIG2*%
X10400000Y-16500000D03*
%TO.N,VBAT*%
X7925000Y-17800000D03*
X12375000Y-29025000D03*
X5100000Y-17225000D03*
X5750000Y-18600000D03*
X12450000Y-26750000D03*
%TD*%
%TO.N,+3V0*%
D35*
X9500000Y-22125000D02*
X9525000Y-22100000D01*
X9600000Y-22525000D02*
X9575000Y-22500000D01*
X8600000Y-22950000D02*
X8050000Y-22950000D01*
X12725000Y-24500000D02*
X12800000Y-24275000D01*
X11275000Y-19650000D02*
X11275000Y-19900000D01*
X9475000Y-22375000D02*
X9475000Y-22175000D01*
X13650000Y-20350000D02*
X13650000Y-20600000D01*
X9525000Y-22450000D02*
X9500000Y-22425000D01*
X13550000Y-20775000D02*
X13550000Y-21000000D01*
X12725000Y-24500000D02*
X13000000Y-24875000D01*
X9525000Y-22100000D02*
X9550000Y-22075000D01*
X9575000Y-22500000D02*
X9550000Y-22475000D01*
X9100000Y-23350000D02*
X8950000Y-23175000D01*
X9550000Y-22075000D02*
X9575000Y-22050000D01*
X9500000Y-22425000D02*
X9500000Y-22400000D01*
X11350000Y-19950000D02*
X11550000Y-19950000D01*
X9575000Y-22050000D02*
X9600000Y-22025000D01*
X13000000Y-24875000D02*
X13100000Y-24975000D01*
X9475000Y-22175000D02*
X9500000Y-22150000D01*
X8975000Y-22825000D02*
X9650000Y-22725000D01*
X9600000Y-22025000D02*
X9675000Y-21950000D01*
X9500000Y-22150000D02*
X9500000Y-22125000D01*
X9675000Y-22600000D02*
X9600000Y-22525000D01*
X9550000Y-22475000D02*
X9525000Y-22450000D01*
X9500000Y-22400000D02*
X9475000Y-22375000D01*
%TO.N,GND*%
X6675000Y-18900000D02*
X6650000Y-18925000D01*
X14175000Y-18100000D02*
X14200000Y-18125000D01*
X14150000Y-28750000D02*
X14175000Y-28750000D01*
X13750000Y-30325000D02*
X13775000Y-30300000D01*
X6625000Y-18950000D02*
X6600000Y-18950000D01*
X13650000Y-18800000D02*
X13625000Y-18825000D01*
X9050000Y-26300000D02*
X9025000Y-26325000D01*
X10000000Y-36035000D02*
X10630000Y-36700000D01*
X9550000Y-25950000D02*
X9075000Y-26275000D01*
X14225000Y-18200000D02*
X14250000Y-18225000D01*
X13250000Y-27150000D02*
X13225000Y-26950000D01*
X13525000Y-18850000D02*
X13500000Y-18875000D01*
X13175000Y-23750000D02*
X13100000Y-23550000D01*
X9875000Y-17625000D02*
X9900000Y-17600000D01*
X10550000Y-34825000D02*
X10575000Y-34800000D01*
X14250000Y-18450000D02*
X14175000Y-18525000D01*
X13950000Y-18750000D02*
X14350000Y-19175000D01*
X8825000Y-17950000D02*
X8850000Y-17925000D01*
X6550000Y-29500000D02*
X6550000Y-29275000D01*
X14100000Y-29200000D02*
X14100000Y-28350000D01*
X8825000Y-18600000D02*
X8850000Y-18575000D01*
X8775000Y-18650000D02*
X8800000Y-18625000D01*
X13700000Y-30425000D02*
X13725000Y-30400000D01*
X8975000Y-26350000D02*
X8950000Y-26375000D01*
X7825000Y-26350000D02*
X7800000Y-26350000D01*
X10325000Y-35225000D02*
X10350000Y-35200000D01*
X13675000Y-30475000D02*
X13700000Y-30450000D01*
X8725000Y-18725000D02*
X8750000Y-18675000D01*
X7300000Y-22875000D02*
X7300000Y-22850000D01*
X14100000Y-18000000D02*
X14125000Y-18025000D01*
X14150000Y-18050000D02*
X14175000Y-18075000D01*
X13775000Y-30300000D02*
X13775000Y-29750000D01*
X6575000Y-18975000D02*
X6550000Y-19000000D01*
X7500000Y-23900000D02*
X7300000Y-23450000D01*
X13650000Y-30500000D02*
X13675000Y-30475000D01*
X9950000Y-17575000D02*
X10575000Y-17575000D01*
X10500000Y-35000000D02*
X10525000Y-34975000D01*
X7250000Y-25175000D02*
X7500000Y-24300000D01*
X10100000Y-25175000D02*
X10100000Y-24950000D01*
X6600000Y-18950000D02*
X6575000Y-18975000D01*
X14125000Y-18025000D02*
X14150000Y-18050000D01*
X14225000Y-18150000D02*
X14225000Y-18200000D01*
X7300000Y-23450000D02*
X7300000Y-23400000D01*
X9800000Y-17675000D02*
X9825000Y-17650000D01*
X14200000Y-18125000D02*
X14225000Y-18150000D01*
X8775000Y-18000000D02*
X8800000Y-17975000D01*
X13725000Y-25325000D02*
X13450000Y-27150000D01*
X9925000Y-17600000D02*
X9950000Y-17575000D01*
X8050000Y-22150000D02*
X8600000Y-22150000D01*
X10575000Y-17575000D02*
X12050000Y-18050000D01*
X7775000Y-26325000D02*
X7750000Y-26300000D01*
X7850000Y-26375000D02*
X7825000Y-26350000D01*
D36*
X7300000Y-30675000D02*
X7300000Y-31325000D01*
D35*
X10575000Y-34800000D02*
X10575000Y-33175000D01*
X13575000Y-18850000D02*
X13525000Y-18850000D01*
X13625000Y-18825000D02*
X13600000Y-18825000D01*
X8750000Y-18025000D02*
X8775000Y-18000000D01*
X7125000Y-19175000D02*
X6800000Y-18475000D01*
X13500000Y-18875000D02*
X13150000Y-18875000D01*
X10525000Y-34950000D02*
X10550000Y-34925000D01*
X8375000Y-19075000D02*
X8875000Y-20175000D01*
X10525000Y-34975000D02*
X10525000Y-34950000D01*
X10200000Y-21050000D02*
X10400000Y-21050000D01*
X11575000Y-33325000D02*
X11600000Y-33300000D01*
X13725000Y-18750000D02*
X13700000Y-18775000D01*
X10475000Y-35075000D02*
X10475000Y-35050000D01*
X7800000Y-26350000D02*
X7775000Y-26325000D01*
X10350000Y-35200000D02*
X10375000Y-35175000D01*
X10375000Y-35175000D02*
X10400000Y-35150000D01*
X13625000Y-17925000D02*
X13950000Y-17925000D01*
X8750000Y-18675000D02*
X8775000Y-18650000D01*
X6700000Y-18875000D02*
X6675000Y-18900000D01*
X13750000Y-30375000D02*
X13750000Y-30325000D01*
X14075000Y-18000000D02*
X14100000Y-18000000D01*
X9300000Y-18150000D02*
X9900000Y-18150000D01*
X14125000Y-18575000D02*
X14100000Y-18600000D01*
X5625000Y-19025000D02*
X5425000Y-18825000D01*
X10475000Y-35050000D02*
X10500000Y-35025000D01*
X11700000Y-33225000D02*
X11725000Y-33200000D01*
X10550000Y-34925000D02*
X10550000Y-34825000D01*
X10450000Y-35100000D02*
X10475000Y-35075000D01*
X9775000Y-17700000D02*
X9800000Y-17675000D01*
X7325000Y-22825000D02*
X7325000Y-22800000D01*
X7725000Y-26275000D02*
X7250000Y-25950000D01*
X6800000Y-18475000D02*
X6775000Y-17875000D01*
X11175000Y-17675000D02*
X11175000Y-17575000D01*
X10200000Y-22250000D02*
X10400000Y-22250000D01*
X13150000Y-17650000D02*
X13625000Y-17925000D01*
X9125000Y-31725000D02*
X9550000Y-32150000D01*
X7300000Y-22850000D02*
X7325000Y-22825000D01*
X14100000Y-18600000D02*
X13925000Y-18750000D01*
X11600000Y-33300000D02*
X11625000Y-33300000D01*
X8800000Y-18625000D02*
X8825000Y-18600000D01*
X8950000Y-26375000D02*
X7850000Y-26375000D01*
X8925000Y-17900000D02*
X8950000Y-17875000D01*
X13600000Y-18825000D02*
X13575000Y-18850000D01*
X7300000Y-23400000D02*
X7275000Y-23375000D01*
X11650000Y-33275000D02*
X11675000Y-33250000D01*
X9000000Y-26350000D02*
X8975000Y-26350000D01*
X6650000Y-18925000D02*
X6625000Y-18950000D01*
X12475000Y-17975000D02*
X12775000Y-17675000D01*
X13975000Y-17950000D02*
X14025000Y-17950000D01*
X11725000Y-33200000D02*
X11750000Y-33175000D01*
X9075000Y-26275000D02*
X9050000Y-26300000D01*
X6700000Y-32925000D02*
X6700000Y-33150000D01*
X13625000Y-30525000D02*
X13650000Y-30500000D01*
X13525000Y-27075000D02*
X13375000Y-26925000D01*
X9125000Y-26500000D02*
X9125000Y-31725000D01*
X8850000Y-18575000D02*
X8875000Y-18550000D01*
X8875000Y-18550000D02*
X8925000Y-18475000D01*
D36*
X6650000Y-31650000D02*
X6850000Y-32537500D01*
D35*
X7275000Y-23375000D02*
X7275000Y-22900000D01*
X12775000Y-17675000D02*
X13150000Y-17650000D01*
X11675000Y-33250000D02*
X11700000Y-33225000D01*
X6725000Y-18875000D02*
X6700000Y-18875000D01*
X13675000Y-18775000D02*
X13650000Y-18800000D01*
X7775000Y-19175000D02*
X8750000Y-18025000D01*
X13925000Y-18750000D02*
X13725000Y-18750000D01*
X9825000Y-17650000D02*
X9850000Y-17625000D01*
X13700000Y-18775000D02*
X13675000Y-18775000D01*
X7325000Y-22800000D02*
X7550000Y-22450000D01*
X13950000Y-17925000D02*
X13975000Y-17950000D01*
X14175000Y-18075000D02*
X14175000Y-18100000D01*
X6550000Y-19000000D02*
X6500000Y-19000000D01*
X9900000Y-17600000D02*
X9925000Y-17600000D01*
X6550000Y-28600000D02*
X6550000Y-28825000D01*
X8950000Y-17875000D02*
X9775000Y-17700000D01*
X10400000Y-35150000D02*
X10425000Y-35125000D01*
X13725000Y-30400000D02*
X13750000Y-30375000D01*
X6475000Y-19025000D02*
X5625000Y-19025000D01*
X13700000Y-30450000D02*
X13700000Y-30425000D01*
X14175000Y-18525000D02*
X14150000Y-18550000D01*
X10300000Y-35250000D02*
X10325000Y-35225000D01*
X10575000Y-33175000D02*
X10325000Y-32925000D01*
X7975000Y-21925000D02*
X8725000Y-18725000D01*
X9850000Y-17625000D02*
X9875000Y-17625000D01*
D36*
X7300000Y-31325000D02*
X6850000Y-32537500D01*
D35*
X10625000Y-33325000D02*
X11575000Y-33325000D01*
X11625000Y-33300000D02*
X11650000Y-33275000D01*
X14150000Y-18550000D02*
X14125000Y-18575000D01*
X14025000Y-17950000D02*
X14050000Y-17975000D01*
X10150000Y-35675000D02*
X10300000Y-35250000D01*
X14250000Y-18225000D02*
X14250000Y-18450000D01*
X7750000Y-26300000D02*
X7725000Y-26275000D01*
X13375000Y-18875000D02*
X13375000Y-19025000D01*
X8800000Y-17975000D02*
X8825000Y-17950000D01*
X8875000Y-17900000D02*
X8925000Y-17900000D01*
X11270000Y-36035000D02*
X10000000Y-36035000D01*
X8850000Y-17925000D02*
X8875000Y-17900000D01*
X11750000Y-33175000D02*
X13625000Y-30525000D01*
X6500000Y-19000000D02*
X6475000Y-19025000D01*
X10500000Y-35025000D02*
X10500000Y-35000000D01*
X7275000Y-22900000D02*
X7300000Y-22875000D01*
X10425000Y-35125000D02*
X10450000Y-35100000D01*
X9025000Y-26325000D02*
X9000000Y-26350000D01*
X14050000Y-17975000D02*
X14075000Y-18000000D01*
%TO.N,VREFP*%
X10000000Y-19250000D02*
X10000000Y-20600000D01*
%TO.N,nRESET*%
X7687499Y-28075000D02*
X7687499Y-31850000D01*
X6700000Y-36900000D02*
X7050000Y-37250000D01*
X14950000Y-35400000D02*
X12000000Y-35400000D01*
X7687499Y-31850000D02*
X7399999Y-31850000D01*
X14950000Y-36900000D02*
X14950000Y-35400000D01*
X6700000Y-34100000D02*
X6700000Y-36900000D01*
X14600000Y-37250000D02*
X14950000Y-36900000D01*
X7050000Y-37250000D02*
X14600000Y-37250000D01*
X12000000Y-35400000D02*
X11270000Y-34765000D01*
X7399999Y-33400000D02*
X6700000Y-34100000D01*
X7300000Y-28075000D02*
X7687499Y-28075000D01*
X7399999Y-31850000D02*
X7399999Y-33400000D01*
X14950000Y-35400000D02*
X14950000Y-32825000D01*
%TO.N,AFE_DRDY_AFE*%
X12350000Y-24950000D02*
X12350000Y-24325000D01*
X12350000Y-24325000D02*
X12400000Y-24275000D01*
%TO.N,AFE_DRDY*%
X11225000Y-28200000D02*
X11225000Y-28050000D01*
X11000000Y-29950000D02*
X11025000Y-28475000D01*
X11150000Y-28325000D02*
X11175000Y-28300000D01*
X12125000Y-30275000D02*
X12100000Y-30300000D01*
X11125000Y-28375000D02*
X11150000Y-28350000D01*
X11600000Y-30325000D02*
X11575000Y-30350000D01*
X11175000Y-28300000D02*
X11200000Y-28275000D01*
X12625000Y-28275000D02*
X12625000Y-28750000D01*
X12825000Y-26825000D02*
X12800000Y-26850000D01*
X11375000Y-30400000D02*
X11350000Y-30400000D01*
X12250000Y-30175000D02*
X12225000Y-30200000D01*
X12675000Y-28800000D02*
X12675000Y-28825000D01*
X11200000Y-28025000D02*
X11200000Y-27975000D01*
X12600000Y-26025000D02*
X12825000Y-26625000D01*
X12475000Y-29750000D02*
X12450000Y-29775000D01*
X10900000Y-27225000D02*
X10875000Y-27200000D01*
X12200000Y-30225000D02*
X12175000Y-30250000D01*
X11125000Y-27875000D02*
X11100000Y-27850000D01*
X11025000Y-28475000D02*
X11075000Y-28425000D01*
X10950000Y-27350000D02*
X10950000Y-27300000D01*
X12150000Y-30250000D02*
X12125000Y-30275000D01*
X11425000Y-30375000D02*
X11400000Y-30400000D01*
X11150000Y-28350000D02*
X11150000Y-28325000D01*
X11200000Y-27975000D02*
X11175000Y-27950000D01*
X10975000Y-27375000D02*
X10950000Y-27350000D01*
X11175000Y-27950000D02*
X11150000Y-27925000D01*
X12675000Y-28825000D02*
X12700000Y-28850000D01*
X12725000Y-28875000D02*
X12725000Y-28925000D01*
X11150000Y-27925000D02*
X11150000Y-27900000D01*
X12800000Y-26900000D02*
X12775000Y-26925000D01*
X12225000Y-30200000D02*
X12200000Y-30225000D01*
X10900000Y-27250000D02*
X10900000Y-27225000D01*
X12725000Y-28925000D02*
X12750000Y-28950000D01*
X12500000Y-29725000D02*
X12475000Y-29750000D01*
X11400000Y-30400000D02*
X11375000Y-30400000D01*
X12500000Y-29700000D02*
X12500000Y-29725000D01*
X12525000Y-29675000D02*
X12500000Y-29700000D01*
X12300000Y-30100000D02*
X12275000Y-30125000D01*
X12650000Y-28775000D02*
X12675000Y-28800000D01*
X12825000Y-26625000D02*
X12825000Y-26825000D01*
X12325000Y-30025000D02*
X12300000Y-30050000D01*
X10950000Y-27300000D02*
X10925000Y-27275000D01*
X10700000Y-27100000D02*
X10675000Y-27075000D01*
X12250000Y-30150000D02*
X12250000Y-30175000D01*
X12775000Y-27525000D02*
X12625000Y-28275000D01*
X10775000Y-27125000D02*
X10750000Y-27100000D01*
X12700000Y-28850000D02*
X12725000Y-28875000D01*
X12425000Y-29800000D02*
X12350000Y-29900000D01*
X12325000Y-30000000D02*
X12325000Y-30025000D01*
X11100000Y-27850000D02*
X11075000Y-27825000D01*
X11200000Y-28275000D02*
X11200000Y-28225000D01*
X10875000Y-27200000D02*
X10850000Y-27175000D01*
X12750000Y-29150000D02*
X12575000Y-29575000D01*
X11225000Y-28050000D02*
X11200000Y-28025000D01*
X12350000Y-29975000D02*
X12325000Y-30000000D01*
X11200000Y-28225000D02*
X11225000Y-28200000D01*
X10675000Y-27075000D02*
X10325000Y-27050000D01*
X12050000Y-30300000D02*
X12025000Y-30325000D01*
X11100000Y-28400000D02*
X11125000Y-28375000D01*
X12550000Y-29600000D02*
X12550000Y-29650000D01*
X12550000Y-29650000D02*
X12525000Y-29675000D01*
X12625000Y-28750000D02*
X12650000Y-28775000D01*
X11150000Y-27900000D02*
X11125000Y-27875000D01*
X12275000Y-30125000D02*
X12250000Y-30150000D01*
X10850000Y-27175000D02*
X10825000Y-27150000D01*
X12350000Y-29900000D02*
X12350000Y-29975000D01*
X12750000Y-28950000D02*
X12750000Y-29150000D01*
X12800000Y-26850000D02*
X12800000Y-26900000D01*
X11575000Y-30350000D02*
X11450000Y-30350000D01*
X12575000Y-29575000D02*
X12550000Y-29600000D01*
X10750000Y-27100000D02*
X10700000Y-27100000D01*
X11075000Y-27825000D02*
X10975000Y-27375000D01*
X12300000Y-30050000D02*
X12300000Y-30100000D01*
X12025000Y-30325000D02*
X11600000Y-30325000D01*
X12450000Y-29775000D02*
X12425000Y-29800000D01*
X10825000Y-27150000D02*
X10800000Y-27125000D01*
X10800000Y-27125000D02*
X10775000Y-27125000D01*
X12775000Y-26925000D02*
X12775000Y-27525000D01*
X11075000Y-28425000D02*
X11100000Y-28400000D01*
X12100000Y-30300000D02*
X12050000Y-30300000D01*
X11450000Y-30350000D02*
X11425000Y-30375000D01*
X12175000Y-30250000D02*
X12150000Y-30250000D01*
X10925000Y-27275000D02*
X10900000Y-27250000D01*
%TO.N,AFE_CS*%
X11000000Y-26050000D02*
X10325000Y-26550000D01*
%TO.N,AFE_CS_AFE*%
X10975000Y-24950000D02*
X10900000Y-24275000D01*
%TO.N,AFE_SCLK*%
X11250000Y-31650000D02*
X10325000Y-31200000D01*
%TO.N,AFE_SCLK_AFE*%
X11950000Y-29775000D02*
X11925000Y-29750000D01*
X12425000Y-30300000D02*
X12450000Y-30275000D01*
X11875000Y-29675000D02*
X11850000Y-29650000D01*
X11800000Y-29225000D02*
X11800000Y-29175000D01*
X12650000Y-29925000D02*
X12675000Y-29900000D01*
X13175000Y-29950000D02*
X13200000Y-29975000D01*
X11775000Y-29150000D02*
X11775000Y-26350000D01*
X12375000Y-30350000D02*
X12400000Y-30325000D01*
X11900000Y-29700000D02*
X11875000Y-29675000D01*
X11600000Y-30675000D02*
X12075000Y-30550000D01*
X13050000Y-29825000D02*
X13125000Y-29900000D01*
X13200000Y-29975000D02*
X13200000Y-30000000D01*
X12625000Y-29950000D02*
X12650000Y-29925000D01*
X11825000Y-29575000D02*
X11825000Y-29250000D01*
X12275000Y-30450000D02*
X12300000Y-30425000D01*
X12475000Y-30225000D02*
X12500000Y-30200000D01*
X12575000Y-30025000D02*
X12575000Y-30000000D01*
X12550000Y-30100000D02*
X12550000Y-30050000D01*
X11775000Y-26350000D02*
X11675000Y-24275000D01*
X12525000Y-30125000D02*
X12550000Y-30100000D01*
X12450000Y-30250000D02*
X12475000Y-30225000D01*
X12250000Y-30450000D02*
X12275000Y-30450000D01*
X12225000Y-30475000D02*
X12250000Y-30450000D01*
X12100000Y-30525000D02*
X12150000Y-30525000D01*
X11800000Y-29175000D02*
X11775000Y-29150000D01*
X12500000Y-30200000D02*
X12500000Y-30175000D01*
X12750000Y-29825000D02*
X13050000Y-29825000D01*
X13225000Y-30025000D02*
X13250000Y-30050000D01*
X12175000Y-30500000D02*
X12200000Y-30500000D01*
X12675000Y-29900000D02*
X12750000Y-29825000D01*
X12600000Y-29975000D02*
X12625000Y-29950000D01*
X12400000Y-30325000D02*
X12425000Y-30300000D01*
X11950000Y-29950000D02*
X11950000Y-29775000D01*
X12200000Y-30500000D02*
X12225000Y-30475000D01*
X13125000Y-29900000D02*
X13150000Y-29925000D01*
X12300000Y-30425000D02*
X12325000Y-30400000D01*
X13250000Y-30050000D02*
X13400000Y-30225000D01*
X13200000Y-30000000D02*
X13225000Y-30025000D01*
X12150000Y-30525000D02*
X12175000Y-30500000D01*
X11850000Y-29650000D02*
X11850000Y-29600000D01*
X12325000Y-30400000D02*
X12350000Y-30375000D01*
X12525000Y-30150000D02*
X12525000Y-30125000D01*
X12350000Y-30375000D02*
X12375000Y-30350000D01*
X12550000Y-30050000D02*
X12575000Y-30025000D01*
X11900000Y-29725000D02*
X11900000Y-29700000D01*
X11850000Y-29600000D02*
X11825000Y-29575000D01*
X12075000Y-30550000D02*
X12100000Y-30525000D01*
X11925000Y-29750000D02*
X11900000Y-29725000D01*
X13150000Y-29925000D02*
X13175000Y-29950000D01*
X12450000Y-30275000D02*
X12450000Y-30250000D01*
X11825000Y-29250000D02*
X11800000Y-29225000D01*
X12575000Y-30000000D02*
X12600000Y-29975000D01*
X12500000Y-30175000D02*
X12525000Y-30150000D01*
%TO.N,LED_EN*%
X10600000Y-29375000D02*
X10325000Y-29500000D01*
X13175000Y-28200000D02*
X13000000Y-28375000D01*
X13550000Y-27900000D02*
X14050000Y-27850000D01*
%TO.N,CHG_LED_K*%
X14000000Y-27350000D02*
X14025000Y-27350000D01*
X14050000Y-27375000D02*
X14100000Y-27375000D01*
X13850000Y-27100000D02*
X13875000Y-27175000D01*
X14525000Y-27525000D02*
X14550000Y-27550000D01*
X13925000Y-27275000D02*
X13950000Y-27300000D01*
X14100000Y-27375000D02*
X14125000Y-27400000D01*
X13875000Y-27175000D02*
X13900000Y-27200000D01*
X14625000Y-27600000D02*
X14750000Y-27700000D01*
X13950000Y-27300000D02*
X13975000Y-27325000D01*
X14550000Y-27550000D02*
X14575000Y-27575000D01*
X14450000Y-27475000D02*
X14475000Y-27500000D01*
X13900000Y-27225000D02*
X13925000Y-27250000D01*
X14600000Y-27575000D02*
X14625000Y-27600000D01*
X13900000Y-26350000D02*
X13850000Y-27100000D01*
X14125000Y-27400000D02*
X14450000Y-27475000D01*
X13925000Y-27250000D02*
X13925000Y-27275000D01*
X14025000Y-27350000D02*
X14050000Y-27375000D01*
X14500000Y-27500000D02*
X14525000Y-27525000D01*
X14575000Y-27575000D02*
X14600000Y-27575000D01*
X14475000Y-27500000D02*
X14500000Y-27500000D01*
X13900000Y-27200000D02*
X13900000Y-27225000D01*
X13975000Y-27325000D02*
X14000000Y-27350000D01*
%TO.N,PRETERM*%
X13150000Y-18250000D02*
X13375000Y-18275000D01*
%TO.N,AFE_MISO_AFE*%
X12000000Y-29100000D02*
X12000000Y-28950000D01*
X12025000Y-29175000D02*
X12025000Y-29125000D01*
X12025000Y-29125000D02*
X12000000Y-29100000D01*
X12200000Y-29500000D02*
X12150000Y-29325000D01*
X12775000Y-30825000D02*
X12900000Y-30200000D01*
X12125000Y-29300000D02*
X12100000Y-29275000D01*
X12025000Y-28925000D02*
X12025000Y-24275000D01*
X11600000Y-32800000D02*
X12775000Y-30825000D01*
X12075000Y-29250000D02*
X12075000Y-29225000D01*
X12075000Y-29225000D02*
X12050000Y-29200000D01*
X12100000Y-29275000D02*
X12075000Y-29250000D01*
X12000000Y-28950000D02*
X12025000Y-28925000D01*
X12050000Y-29200000D02*
X12025000Y-29175000D01*
X12150000Y-29325000D02*
X12125000Y-29300000D01*
%TO.N,AFE_MISO*%
X11200000Y-32300000D02*
X10325000Y-31850000D01*
%TO.N,AFE_IN1P*%
X11375000Y-19300000D02*
X11425000Y-19300000D01*
X5350000Y-17675000D02*
X7325000Y-17050000D01*
X14375000Y-17975000D02*
X14725000Y-18400000D01*
X13400000Y-17375000D02*
X13425000Y-17400000D01*
X11575000Y-19425000D02*
X12000000Y-19900000D01*
X21890000Y-16800000D02*
X20500000Y-16800000D01*
X14200000Y-17800000D02*
X14225000Y-17825000D01*
X14225000Y-17825000D02*
X14250000Y-17850000D01*
X14175000Y-17800000D02*
X14200000Y-17800000D01*
X11475000Y-19350000D02*
X11500000Y-19350000D01*
X14775000Y-19800000D02*
X14800000Y-19825000D01*
X14275000Y-17875000D02*
X14300000Y-17900000D01*
X13250000Y-17300000D02*
X13300000Y-17300000D01*
X7325000Y-17050000D02*
X9800000Y-16450000D01*
X14250000Y-17850000D02*
X14275000Y-17875000D01*
X11525000Y-19375000D02*
X11550000Y-19400000D01*
X14800000Y-19825000D02*
X14825000Y-19850000D01*
X20500000Y-20400000D02*
X15750000Y-20400000D01*
X9700000Y-18525000D02*
X10425000Y-18525000D01*
X10425000Y-18525000D02*
X10450000Y-18550000D01*
X11425000Y-19300000D02*
X11450000Y-19325000D01*
X10525000Y-18575000D02*
X10550000Y-18600000D01*
X11550000Y-19400000D02*
X11575000Y-19425000D01*
X13225000Y-17275000D02*
X13250000Y-17300000D01*
X13325000Y-17325000D02*
X13350000Y-17350000D01*
X14825000Y-19850000D02*
X14850000Y-19875000D01*
X14775000Y-19775000D02*
X14775000Y-19800000D01*
X14075000Y-17725000D02*
X14100000Y-17750000D01*
X14875000Y-19900000D02*
X14900000Y-19925000D01*
X14350000Y-17950000D02*
X14375000Y-17975000D01*
X14725000Y-18400000D02*
X14725000Y-19700000D01*
X11500000Y-19350000D02*
X11525000Y-19375000D01*
X14900000Y-19925000D02*
X15150000Y-20100000D01*
X14850000Y-19875000D02*
X14875000Y-19900000D01*
X13450000Y-17425000D02*
X14075000Y-17725000D01*
X11325000Y-19275000D02*
X11350000Y-19275000D01*
X13300000Y-17300000D02*
X13325000Y-17325000D01*
X11450000Y-19325000D02*
X11475000Y-19350000D01*
X10575000Y-18600000D02*
X10600000Y-18625000D01*
X20500000Y-16800000D02*
X20500000Y-20400000D01*
X11350000Y-19275000D02*
X11375000Y-19300000D01*
X10600000Y-18625000D02*
X11325000Y-19275000D01*
X10500000Y-18550000D02*
X10525000Y-18575000D01*
X14100000Y-17750000D02*
X14125000Y-17750000D01*
X14750000Y-19725000D02*
X14750000Y-19750000D01*
X15150000Y-20100000D02*
X15700000Y-20400000D01*
X10450000Y-18550000D02*
X10500000Y-18550000D01*
X11150000Y-16600000D02*
X13225000Y-17275000D01*
X10550000Y-18600000D02*
X10575000Y-18600000D01*
X14325000Y-17925000D02*
X14350000Y-17950000D01*
X14150000Y-17775000D02*
X14175000Y-17800000D01*
X14725000Y-19700000D02*
X14750000Y-19725000D01*
X13425000Y-17400000D02*
X13450000Y-17425000D01*
X14750000Y-19750000D02*
X14775000Y-19775000D01*
X14300000Y-17900000D02*
X14325000Y-17925000D01*
X13350000Y-17350000D02*
X13375000Y-17350000D01*
X13375000Y-17350000D02*
X13400000Y-17375000D01*
X14125000Y-17750000D02*
X14150000Y-17775000D01*
%TO.N,BENCH_SIG1*%
D37*
X22400000Y-19400000D02*
X22910000Y-18299999D01*
X22910000Y-18299999D02*
X22910000Y-16800000D01*
%TO.N,VCAP1*%
D35*
X9100000Y-19350000D02*
X9450000Y-21300000D01*
X9100000Y-18920000D02*
X9100000Y-19350000D01*
X9450000Y-21300000D02*
X9925000Y-21480000D01*
%TO.N,AFE_START*%
X8600000Y-25150000D02*
X8600000Y-25175000D01*
X9800000Y-24200000D02*
X8600000Y-25150000D01*
X9800000Y-24225000D02*
X9800000Y-23575000D01*
%TO.N,AFE_RESET*%
X8500000Y-24000000D02*
X9175000Y-23725000D01*
X9400000Y-23575000D02*
X9475000Y-23500000D01*
X9175000Y-23725000D02*
X9200000Y-23700000D01*
X9575000Y-23250000D02*
X9600000Y-23225000D01*
X9200000Y-23700000D02*
X9250000Y-23700000D01*
X9250000Y-23700000D02*
X9275000Y-23675000D01*
X9525000Y-23300000D02*
X9550000Y-23275000D01*
X9600000Y-23225000D02*
X9675000Y-23150000D01*
X9500000Y-23350000D02*
X9500000Y-23325000D01*
X9475000Y-23500000D02*
X9475000Y-23375000D01*
X8150000Y-24300000D02*
X7950000Y-25175000D01*
X9300000Y-23650000D02*
X9325000Y-23650000D01*
X9475000Y-23375000D02*
X9500000Y-23350000D01*
X9275000Y-23675000D02*
X9300000Y-23650000D01*
X9325000Y-23650000D02*
X9350000Y-23625000D01*
X9350000Y-23625000D02*
X9375000Y-23600000D01*
X9550000Y-23275000D02*
X9575000Y-23250000D01*
X9375000Y-23600000D02*
X9400000Y-23575000D01*
X9500000Y-23325000D02*
X9525000Y-23300000D01*
%TO.N,RF_ANT*%
D38*
X6650000Y-30350000D02*
X6650000Y-31000000D01*
%TO.N,+VDD*%
D35*
X7750000Y-32737499D02*
X7750000Y-33549999D01*
X7750000Y-33549999D02*
X8100000Y-35000000D01*
X8100000Y-35000000D02*
X8730000Y-36035000D01*
X7850000Y-34150000D02*
X7175000Y-34150000D01*
X8730000Y-36035000D02*
X7600000Y-36700000D01*
%TO.N,SWDIO*%
X8600000Y-34400000D02*
X8600000Y-32925000D01*
%TO.N,SWDCLK*%
X9875000Y-34400000D02*
X9250000Y-32925000D01*
%TO.N,AFE_MOSI*%
X11225000Y-30225000D02*
X11250000Y-30200000D01*
X11050000Y-30500000D02*
X10325000Y-30525000D01*
X11175000Y-30275000D02*
X11200000Y-30250000D01*
X11125000Y-30325000D02*
X11150000Y-30300000D01*
X11050000Y-30450000D02*
X11125000Y-30325000D01*
X11250000Y-30200000D02*
X11275000Y-30175000D01*
X11150000Y-30300000D02*
X11175000Y-30275000D01*
X11200000Y-30250000D02*
X11225000Y-30225000D01*
%TO.N,VBUS_DET*%
X10625000Y-28575000D02*
X10325000Y-28850000D01*
%TO.N,VBAT_SENSE*%
X10850000Y-28125000D02*
X10325000Y-28200000D01*
%TO.N,CHG_MON*%
X6500000Y-17625000D02*
X6475000Y-17650000D01*
X6525000Y-17600000D02*
X6500000Y-17625000D01*
X6700000Y-17500000D02*
X6675000Y-17525000D01*
X6675000Y-17525000D02*
X6625000Y-17525000D01*
X6425000Y-17725000D02*
X6425000Y-17775000D01*
X6550000Y-17575000D02*
X6525000Y-17600000D01*
X6425000Y-17775000D02*
X6400000Y-17800000D01*
X6575000Y-17575000D02*
X6550000Y-17575000D01*
X6475000Y-17675000D02*
X6450000Y-17700000D01*
X6450000Y-17700000D02*
X6425000Y-17725000D01*
X10575000Y-17175000D02*
X6700000Y-17500000D01*
X6625000Y-17525000D02*
X6600000Y-17550000D01*
X6600000Y-17550000D02*
X6575000Y-17575000D01*
X6400000Y-17800000D02*
X6400000Y-18650000D01*
X6475000Y-17650000D02*
X6475000Y-17675000D01*
X10600000Y-27450000D02*
X10325000Y-27575000D01*
%TO.N,BENCH_SIG2*%
D37*
X21610000Y-21150000D02*
X18510000Y-21150000D01*
X22400000Y-21940000D02*
X21610000Y-21150000D01*
%TO.N,BENCH_REF*%
X22400000Y-24480000D02*
X22910000Y-25580000D01*
X22910000Y-25580000D02*
X22910000Y-27100000D01*
%TO.N,TS*%
D35*
X13175000Y-18575000D02*
X13200000Y-18600000D01*
X13300000Y-18650000D02*
X13450000Y-18650000D01*
X13575000Y-18575000D02*
X13600000Y-18575000D01*
X13675000Y-18500000D02*
X13875000Y-18300000D01*
X13450000Y-18650000D02*
X13475000Y-18625000D01*
X13200000Y-18600000D02*
X13225000Y-18625000D01*
X12475000Y-18775000D02*
X12675000Y-18575000D01*
X13275000Y-18625000D02*
X13300000Y-18650000D01*
X12675000Y-18575000D02*
X13175000Y-18575000D01*
X13600000Y-18575000D02*
X13625000Y-18550000D01*
X13625000Y-18550000D02*
X13650000Y-18525000D01*
X13225000Y-18625000D02*
X13275000Y-18625000D01*
X13650000Y-18525000D02*
X13675000Y-18500000D01*
X13550000Y-18600000D02*
X13575000Y-18575000D01*
X13525000Y-18625000D02*
X13550000Y-18600000D01*
X13475000Y-18625000D02*
X13525000Y-18625000D01*
%TO.N,AFE_IN1N*%
X12725000Y-19625000D02*
X14000000Y-19775000D01*
X14000000Y-19775000D02*
X15700000Y-21150000D01*
X17490000Y-21150000D02*
X15750000Y-21150000D01*
X12400000Y-19875000D02*
X12400000Y-19900000D01*
X12525000Y-19900000D02*
X12725000Y-19625000D01*
X10925000Y-18400000D02*
X12400000Y-19875000D01*
%TO.N,AFE_MOSI_AFE*%
X11425000Y-24425000D02*
X11300000Y-24275000D01*
X11550000Y-29100000D02*
X11425000Y-25650000D01*
X11425000Y-25650000D02*
X11425000Y-24425000D01*
%TO.N,VCAP2*%
X14225000Y-22975000D02*
X14200000Y-22950000D01*
X14200000Y-23600000D02*
X14225000Y-23575000D01*
X14125000Y-23700000D02*
X14150000Y-23675000D01*
X14225000Y-23575000D02*
X14225000Y-22975000D01*
X13275000Y-24600000D02*
X14100000Y-23725000D01*
X14175000Y-23650000D02*
X14200000Y-23625000D01*
X14175000Y-22900000D02*
X14150000Y-22875000D01*
X14150000Y-23675000D02*
X14175000Y-23650000D01*
X14150000Y-22875000D02*
X14125000Y-22850000D01*
X14200000Y-22950000D02*
X14200000Y-22925000D01*
X14100000Y-23725000D02*
X14125000Y-23700000D01*
X14100000Y-22825000D02*
X14025000Y-22750000D01*
X14200000Y-22925000D02*
X14175000Y-22900000D01*
X14125000Y-22850000D02*
X14100000Y-22825000D01*
X14200000Y-23625000D02*
X14200000Y-23600000D01*
%TO.N,RLDINV*%
X14275000Y-22250000D02*
X14050000Y-22250000D01*
%TO.N,RLD_FB*%
X14575000Y-22025000D02*
X14550000Y-22000000D01*
X14500000Y-21950000D02*
X14475000Y-21925000D01*
X14600000Y-22425000D02*
X14625000Y-22400000D01*
X14450000Y-21925000D02*
X14425000Y-21900000D01*
X14625000Y-22075000D02*
X15700000Y-21900000D01*
X20900000Y-21900000D02*
X15750000Y-21900000D01*
X14375000Y-21875000D02*
X14050000Y-21875000D01*
X21890000Y-27100000D02*
X20900000Y-27100000D01*
X14575000Y-22500000D02*
X14575000Y-22450000D01*
X14575000Y-22450000D02*
X14600000Y-22425000D01*
X14550000Y-22000000D02*
X14525000Y-21975000D01*
X14625000Y-22075000D02*
X14575000Y-22025000D01*
X13550000Y-21800000D02*
X13550000Y-21575000D01*
X14475000Y-21925000D02*
X14450000Y-21925000D01*
X20900000Y-27100000D02*
X20900000Y-21900000D01*
X14650000Y-22325000D02*
X14650000Y-22175000D01*
X14525000Y-21975000D02*
X14500000Y-21950000D01*
X14425000Y-21900000D02*
X14375000Y-21875000D01*
X14500000Y-22700000D02*
X14575000Y-22500000D01*
X14625000Y-22400000D02*
X14625000Y-22350000D01*
X14625000Y-22150000D02*
X14625000Y-22075000D01*
X14650000Y-22175000D02*
X14625000Y-22150000D01*
X14625000Y-22350000D02*
X14650000Y-22325000D01*
%TO.N,VBUS*%
X14625000Y-25825000D02*
X14675000Y-26425000D01*
X14600000Y-25800000D02*
X14625000Y-25825000D01*
X14600000Y-25775000D02*
X14600000Y-25800000D01*
X14675000Y-26425000D02*
X14800000Y-26825000D01*
X14475000Y-25650000D02*
X14500000Y-25675000D01*
X14525000Y-25700000D02*
X14550000Y-25725000D01*
D39*
X18400000Y-8550000D02*
X18400000Y-15750000D01*
D35*
X14475000Y-25100000D02*
X14475000Y-25650000D01*
X14500000Y-25675000D02*
X14525000Y-25700000D01*
X14575000Y-25750000D02*
X14600000Y-25775000D01*
D39*
X18400000Y-15750000D02*
X18400000Y-17000000D01*
D35*
X14550000Y-25725000D02*
X14575000Y-25750000D01*
D39*
X16514000Y-7550000D02*
X18400000Y-8550000D01*
%TO.N,D2_A*%
D35*
X15075000Y-27400000D02*
X14775000Y-27400000D01*
X15200000Y-27350000D02*
X15175000Y-27350000D01*
X14650000Y-27350000D02*
X14625000Y-27325000D01*
X14775000Y-27400000D02*
X14750000Y-27375000D01*
X15275000Y-27275000D02*
X15250000Y-27300000D01*
X15250000Y-27300000D02*
X15225000Y-27325000D01*
X14750000Y-27375000D02*
X14675000Y-27375000D01*
X15100000Y-27375000D02*
X15075000Y-27400000D01*
X15150000Y-27375000D02*
X15100000Y-27375000D01*
X15325000Y-27175000D02*
X15300000Y-27200000D01*
X14600000Y-27300000D02*
X14575000Y-27275000D01*
X14550000Y-27250000D02*
X14475000Y-27175000D01*
X14675000Y-27375000D02*
X14650000Y-27350000D01*
X15325000Y-26400000D02*
X15325000Y-27175000D01*
X15275000Y-27250000D02*
X15275000Y-27275000D01*
X15300000Y-27200000D02*
X15300000Y-27225000D01*
X15300000Y-27225000D02*
X15275000Y-27250000D01*
X15225000Y-27325000D02*
X15200000Y-27350000D01*
X15175000Y-27350000D02*
X15150000Y-27375000D01*
X14625000Y-27325000D02*
X14600000Y-27300000D01*
X14575000Y-27275000D02*
X14550000Y-27250000D01*
%TO.N,SIG2*%
D37*
X10400000Y2209999D02*
X10400000Y-16500000D01*
X10400000Y5810000D02*
X10400000Y2209999D01*
%TO.N,VBAT*%
D35*
X5100000Y-17225000D02*
X5100000Y-17400000D01*
X5025000Y-17850000D02*
X5050000Y-17875000D01*
X5125000Y-17975000D02*
X5750000Y-18600000D01*
X5025000Y-17500000D02*
X5000000Y-17525000D01*
X5050000Y-17450000D02*
X5050000Y-17475000D01*
X5000000Y-17525000D02*
X5000000Y-17575000D01*
X5075000Y-17925000D02*
X5100000Y-17950000D01*
X7775000Y-17975000D02*
X7925000Y-17800000D01*
X4975000Y-17600000D02*
X4975000Y-17750000D01*
X5075000Y-17425000D02*
X5050000Y-17450000D01*
X12425000Y-26900000D02*
X12450000Y-26750000D01*
X5050000Y-17475000D02*
X5025000Y-17500000D01*
X5100000Y-17950000D02*
X5125000Y-17975000D01*
X4975000Y-17750000D02*
X5000000Y-17775000D01*
X5050000Y-17900000D02*
X5075000Y-17925000D01*
X5000000Y-17775000D02*
X5000000Y-17825000D01*
X5000000Y-17825000D02*
X5025000Y-17850000D01*
X5050000Y-17875000D02*
X5050000Y-17900000D01*
X12375000Y-29025000D02*
X12425000Y-26900000D01*
X5100000Y-17400000D02*
X5075000Y-17425000D01*
X5000000Y-17575000D02*
X4975000Y-17600000D01*
%TD*%
%TA.AperFunction,Conductor*%
%TO.N,GND*%
G36*
X9361548Y-36103881D02*
G01*
X9433601Y-36133726D01*
X9473649Y-36173774D01*
X9476761Y-36182940D01*
X9493352Y-36244861D01*
X9550219Y-36343358D01*
X9661590Y-36231987D01*
X9713916Y-36210313D01*
X9723568Y-36210945D01*
X9788560Y-36219502D01*
X9837608Y-36247819D01*
X9852267Y-36302527D01*
X9831226Y-36345194D01*
X9691639Y-36484780D01*
X9790134Y-36541645D01*
X9790143Y-36541649D01*
X9928417Y-36578699D01*
X9928418Y-36578700D01*
X10071582Y-36578700D01*
X10071582Y-36578699D01*
X10209856Y-36541649D01*
X10209865Y-36541645D01*
X10308358Y-36484779D01*
X10235816Y-36412237D01*
X10214142Y-36359911D01*
X10235816Y-36307585D01*
X10288142Y-36285911D01*
X10297783Y-36286542D01*
X10382492Y-36297695D01*
X10425157Y-36318736D01*
X10449779Y-36343358D01*
X10462719Y-36320945D01*
X10507651Y-36286465D01*
X10517129Y-36284579D01*
X10718248Y-36258101D01*
X10772954Y-36272760D01*
X10791992Y-36294468D01*
X10820218Y-36343358D01*
X10916100Y-36247477D01*
X10958765Y-36226436D01*
X11043457Y-36215286D01*
X11098162Y-36229945D01*
X11126481Y-36278994D01*
X11111822Y-36333701D01*
X11105440Y-36340979D01*
X10961639Y-36484779D01*
X10961639Y-36484780D01*
X11060134Y-36541645D01*
X11060143Y-36541649D01*
X11198417Y-36578699D01*
X11198418Y-36578700D01*
X11341582Y-36578700D01*
X11341582Y-36578699D01*
X11479856Y-36541649D01*
X11479865Y-36541645D01*
X11578358Y-36484779D01*
X11346356Y-36252777D01*
X11324682Y-36200451D01*
X11346356Y-36148125D01*
X11370364Y-36132084D01*
X11383638Y-36126586D01*
X11422364Y-36110545D01*
X11479001Y-36110545D01*
X11503008Y-36126586D01*
X11719780Y-36343359D01*
X11740517Y-36340629D01*
X11751046Y-36332550D01*
X11807198Y-36339941D01*
X11841678Y-36384874D01*
X11844200Y-36404028D01*
X11844200Y-36484530D01*
X11844252Y-36484791D01*
X11870937Y-36618950D01*
X11870940Y-36618961D01*
X11923387Y-36745580D01*
X11923389Y-36745583D01*
X11923390Y-36745585D01*
X11950594Y-36786298D01*
X11999536Y-36859546D01*
X12063164Y-36923174D01*
X12084838Y-36975500D01*
X12063164Y-37027826D01*
X12010838Y-37049500D01*
X7924832Y-37049500D01*
X7872506Y-37027826D01*
X7850832Y-36975500D01*
X7872505Y-36923175D01*
X7880469Y-36915212D01*
X7926614Y-36835288D01*
X7948948Y-36751932D01*
X7982894Y-36707311D01*
X8353377Y-36489283D01*
X8409464Y-36481425D01*
X8427904Y-36488972D01*
X8519947Y-36542114D01*
X8658352Y-36579199D01*
X8658353Y-36579200D01*
X8658355Y-36579200D01*
X8801647Y-36579200D01*
X8801647Y-36579199D01*
X8940053Y-36542114D01*
X9064147Y-36470468D01*
X9165468Y-36369147D01*
X9237114Y-36245053D01*
X9261754Y-36153096D01*
X9296232Y-36108163D01*
X9352385Y-36100771D01*
X9361548Y-36103881D01*
G37*
%TD.AperFunction*%
%TA.AperFunction,Conductor*%
G36*
X6928326Y-32559174D02*
G01*
X6950000Y-32611500D01*
X6950000Y-33074999D01*
X7125499Y-33074999D01*
X7177825Y-33096673D01*
X7199499Y-33148999D01*
X7199499Y-33286298D01*
X7177825Y-33338624D01*
X6586426Y-33930024D01*
X6576326Y-33940124D01*
X6524000Y-33961798D01*
X6471674Y-33940124D01*
X6450000Y-33887798D01*
X6450000Y-33148999D01*
X6471674Y-33096673D01*
X6524000Y-33074999D01*
X6750000Y-33074999D01*
X6750000Y-32611500D01*
X6771674Y-32559174D01*
X6824000Y-32537500D01*
X6876000Y-32537500D01*
X6928326Y-32559174D01*
G37*
%TD.AperFunction*%
%TA.AperFunction,Conductor*%
G36*
X15427826Y-27510376D02*
G01*
X15449500Y-27562702D01*
X15449500Y-29059464D01*
X15427826Y-29111790D01*
X15375500Y-29133464D01*
X15323174Y-29111790D01*
X15313972Y-29100577D01*
X15308145Y-29091857D01*
X15308143Y-29091855D01*
X15258527Y-29058703D01*
X15214773Y-29050000D01*
X14550000Y-29050000D01*
X14550000Y-29899999D01*
X15214779Y-29899999D01*
X15258524Y-29891298D01*
X15308143Y-29858144D01*
X15308146Y-29858141D01*
X15313971Y-29849424D01*
X15361062Y-29817957D01*
X15416611Y-29829006D01*
X15448078Y-29876097D01*
X15449500Y-29890535D01*
X15449500Y-32308565D01*
X15427826Y-32360891D01*
X15375500Y-32382565D01*
X15323174Y-32360891D01*
X15313972Y-32349679D01*
X15308504Y-32341496D01*
X15308503Y-32341495D01*
X15258722Y-32308233D01*
X15214820Y-32299500D01*
X13685180Y-32299500D01*
X13641278Y-32308233D01*
X13606472Y-32331489D01*
X13550923Y-32342537D01*
X13503831Y-32311070D01*
X13491994Y-32279617D01*
X13490962Y-32271780D01*
X13490962Y-32271779D01*
X13171281Y-31500000D01*
X12883804Y-31125353D01*
X12869146Y-31070647D01*
X12878915Y-31042474D01*
X12943564Y-30933809D01*
X12945666Y-30930484D01*
X12963783Y-30903432D01*
X12963783Y-30903431D01*
X12963785Y-30903429D01*
X12963785Y-30903425D01*
X12965879Y-30898386D01*
X12967700Y-30893242D01*
X12967699Y-30893242D01*
X12967702Y-30893239D01*
X12972378Y-30860981D01*
X12973033Y-30857181D01*
X13033085Y-30556923D01*
X13064599Y-30509866D01*
X13068619Y-30507369D01*
X13094299Y-30492542D01*
X13150450Y-30485151D01*
X13180820Y-30502685D01*
X13180947Y-30502521D01*
X13182193Y-30503477D01*
X13183620Y-30504301D01*
X13184788Y-30505469D01*
X13184790Y-30505470D01*
X13184791Y-30505471D01*
X13242126Y-30538574D01*
X13264712Y-30551614D01*
X13264713Y-30551614D01*
X13264715Y-30551615D01*
X13284533Y-30556925D01*
X13353853Y-30575499D01*
X13353854Y-30575500D01*
X13353856Y-30575500D01*
X13446146Y-30575500D01*
X13446146Y-30575499D01*
X13535288Y-30551614D01*
X13615212Y-30505469D01*
X13680469Y-30440212D01*
X13726614Y-30360288D01*
X13750499Y-30271146D01*
X13750500Y-30271146D01*
X13750500Y-30178854D01*
X13750499Y-30178853D01*
X13726615Y-30089715D01*
X13726613Y-30089710D01*
X13681169Y-30010999D01*
X13673776Y-29954846D01*
X13708255Y-29909913D01*
X13745255Y-29899999D01*
X14350000Y-29899999D01*
X14350000Y-29575000D01*
X13550001Y-29575000D01*
X13550001Y-29764778D01*
X13555685Y-29793358D01*
X13544635Y-29848907D01*
X13497542Y-29880371D01*
X13463956Y-29879272D01*
X13446145Y-29874500D01*
X13446144Y-29874500D01*
X13413702Y-29874500D01*
X13361376Y-29852826D01*
X13163575Y-29655025D01*
X13163571Y-29655022D01*
X13089882Y-29624500D01*
X12881948Y-29624500D01*
X12829622Y-29602826D01*
X12807948Y-29550500D01*
X12813522Y-29522324D01*
X12935381Y-29226383D01*
X12950500Y-29189882D01*
X12950500Y-29189664D01*
X12950583Y-29189463D01*
X12950574Y-29185226D01*
X13550000Y-29185226D01*
X13550000Y-29375000D01*
X14350000Y-29375000D01*
X14350000Y-29050000D01*
X13685229Y-29050000D01*
X13641473Y-29058703D01*
X13591856Y-29091855D01*
X13591855Y-29091856D01*
X13558703Y-29141472D01*
X13550000Y-29185226D01*
X12950574Y-29185226D01*
X12950500Y-29149819D01*
X12950500Y-28910118D01*
X12931133Y-28863361D01*
X12926936Y-28842264D01*
X12926922Y-28842267D01*
X12925500Y-28835122D01*
X12925500Y-28835118D01*
X12922476Y-28827819D01*
X12922475Y-28771183D01*
X12962523Y-28731134D01*
X12990843Y-28725500D01*
X13046146Y-28725500D01*
X13046146Y-28725499D01*
X13135288Y-28701614D01*
X13215212Y-28655469D01*
X13280469Y-28590212D01*
X13326614Y-28510288D01*
X13332480Y-28488396D01*
X13341336Y-28455347D01*
X13375814Y-28410414D01*
X13412814Y-28400500D01*
X13474672Y-28400500D01*
X13474674Y-28400500D01*
X13547740Y-28385966D01*
X13630601Y-28330601D01*
X13634343Y-28325000D01*
X13901055Y-28325000D01*
X13911603Y-28378035D01*
X13955807Y-28444191D01*
X13955808Y-28444192D01*
X14021964Y-28488396D01*
X14080303Y-28500000D01*
X14150000Y-28500000D01*
X14150000Y-28325000D01*
X13901055Y-28325000D01*
X13634343Y-28325000D01*
X13685966Y-28247740D01*
X13700500Y-28174674D01*
X13700500Y-28153418D01*
X13722174Y-28101092D01*
X13767135Y-28079785D01*
X13817178Y-28074781D01*
X13871400Y-28091141D01*
X13881742Y-28101468D01*
X13901055Y-28125000D01*
X14176000Y-28125000D01*
X14228326Y-28146674D01*
X14242713Y-28166978D01*
X14270564Y-28225000D01*
X14276000Y-28225000D01*
X14328326Y-28246674D01*
X14350000Y-28299000D01*
X14350000Y-28500000D01*
X14419697Y-28500000D01*
X14478035Y-28488396D01*
X14544189Y-28444193D01*
X14547311Y-28441072D01*
X14599636Y-28419395D01*
X14651963Y-28441066D01*
X14655445Y-28444548D01*
X14655448Y-28444552D01*
X14671604Y-28455347D01*
X14721767Y-28488866D01*
X14721768Y-28488866D01*
X14721769Y-28488867D01*
X14780252Y-28500500D01*
X14780254Y-28500500D01*
X15119746Y-28500500D01*
X15119748Y-28500500D01*
X15178231Y-28488867D01*
X15244552Y-28444552D01*
X15288867Y-28378231D01*
X15300500Y-28319748D01*
X15300500Y-27680252D01*
X15288867Y-27621769D01*
X15288866Y-27621768D01*
X15288866Y-27621766D01*
X15286077Y-27615032D01*
X15288531Y-27614015D01*
X15279531Y-27568798D01*
X15308587Y-27525297D01*
X15308420Y-27525130D01*
X15309261Y-27524288D01*
X15310990Y-27521701D01*
X15311007Y-27521690D01*
X15313567Y-27519978D01*
X15313574Y-27519976D01*
X15323174Y-27510376D01*
X15375500Y-27488702D01*
X15427826Y-27510376D01*
G37*
%TD.AperFunction*%
%TA.AperFunction,Conductor*%
G36*
X7081578Y-31674966D02*
G01*
X7081610Y-31674644D01*
X7085222Y-31674999D01*
X7144717Y-31674999D01*
X7197043Y-31696672D01*
X7218718Y-31748998D01*
X7213085Y-31777317D01*
X7199499Y-31810116D01*
X7199499Y-31926000D01*
X7177825Y-31978326D01*
X7125499Y-32000000D01*
X7063271Y-32000000D01*
X7010945Y-31978326D01*
X6989271Y-31926000D01*
X6990693Y-31911563D01*
X6999999Y-31864773D01*
X6999999Y-31748217D01*
X7021673Y-31695891D01*
X7073998Y-31674216D01*
X7081578Y-31674966D01*
G37*
%TD.AperFunction*%
%TA.AperFunction,Conductor*%
G36*
X7378326Y-30696674D02*
G01*
X7400000Y-30749000D01*
X7400000Y-31251000D01*
X7378326Y-31303326D01*
X7326000Y-31325000D01*
X7274000Y-31325000D01*
X7221674Y-31303326D01*
X7200000Y-31251000D01*
X7200000Y-30749000D01*
X7221674Y-30696674D01*
X7274000Y-30675000D01*
X7326000Y-30675000D01*
X7378326Y-30696674D01*
G37*
%TD.AperFunction*%
%TA.AperFunction,Conductor*%
G36*
X6728326Y-28421674D02*
G01*
X6750000Y-28474000D01*
X6750000Y-29626000D01*
X6728326Y-29678326D01*
X6676000Y-29700000D01*
X6624000Y-29700000D01*
X6571674Y-29678326D01*
X6550000Y-29626000D01*
X6550000Y-28474000D01*
X6571674Y-28421674D01*
X6624000Y-28400000D01*
X6676000Y-28400000D01*
X6728326Y-28421674D01*
G37*
%TD.AperFunction*%
%TA.AperFunction,Conductor*%
G36*
X15462525Y-22163756D02*
G01*
X15492326Y-22211920D01*
X15483374Y-22260808D01*
X15469980Y-22284007D01*
X15469977Y-22284014D01*
X15449500Y-22360435D01*
X15449500Y-25562119D01*
X15427826Y-25614445D01*
X15375500Y-25636119D01*
X15356079Y-25633525D01*
X15351913Y-25632392D01*
X15351910Y-25632391D01*
X15351909Y-25632391D01*
X15326991Y-25629500D01*
X15326987Y-25629500D01*
X14943009Y-25629500D01*
X14918097Y-25632389D01*
X14918088Y-25632392D01*
X14841572Y-25666176D01*
X14784950Y-25667483D01*
X14759357Y-25650807D01*
X14697174Y-25588624D01*
X14675500Y-25536298D01*
X14675500Y-25425832D01*
X14697173Y-25373507D01*
X14755469Y-25315212D01*
X14801614Y-25235288D01*
X14825499Y-25146146D01*
X14825500Y-25146146D01*
X14825500Y-25053854D01*
X14825499Y-25053853D01*
X14801615Y-24964715D01*
X14801613Y-24964710D01*
X14755471Y-24884791D01*
X14755470Y-24884790D01*
X14755469Y-24884788D01*
X14690212Y-24819531D01*
X14690209Y-24819529D01*
X14690208Y-24819528D01*
X14610289Y-24773386D01*
X14610284Y-24773384D01*
X14521146Y-24749500D01*
X14521144Y-24749500D01*
X14428856Y-24749500D01*
X14428854Y-24749500D01*
X14339715Y-24773384D01*
X14339710Y-24773386D01*
X14259788Y-24819530D01*
X14255942Y-24822482D01*
X14254813Y-24821011D01*
X14208444Y-24840207D01*
X14167348Y-24827736D01*
X14147546Y-24814505D01*
X14074622Y-24800000D01*
X14020000Y-24800000D01*
X14020000Y-25500000D01*
X14023176Y-25503176D01*
X14044850Y-25555502D01*
X14023176Y-25607828D01*
X13975133Y-25629378D01*
X13973007Y-25629501D01*
X13948097Y-25632389D01*
X13948091Y-25632391D01*
X13846171Y-25677392D01*
X13767392Y-25756171D01*
X13722391Y-25858090D01*
X13719500Y-25883012D01*
X13719500Y-26245389D01*
X13711834Y-26278189D01*
X13702597Y-26296869D01*
X13658696Y-26955362D01*
X13633589Y-27006130D01*
X13579937Y-27024275D01*
X13554912Y-27015765D01*
X13554279Y-27017294D01*
X13547546Y-27014505D01*
X13474622Y-27000000D01*
X13450000Y-27000000D01*
X13450000Y-27306000D01*
X13428326Y-27358326D01*
X13376000Y-27380000D01*
X13324000Y-27380000D01*
X13271674Y-27358326D01*
X13250000Y-27306000D01*
X13250000Y-27000000D01*
X13225378Y-27000000D01*
X13152453Y-27014505D01*
X13102442Y-27047921D01*
X13046893Y-27058970D01*
X12999802Y-27027503D01*
X12988753Y-26971954D01*
X12992965Y-26958072D01*
X13000500Y-26939882D01*
X13000500Y-26939876D01*
X13001922Y-26932733D01*
X13001936Y-26932735D01*
X13006133Y-26911637D01*
X13025500Y-26864882D01*
X13025500Y-26785118D01*
X13025500Y-26629640D01*
X13025543Y-26627129D01*
X13026737Y-26591942D01*
X13026474Y-26590334D01*
X13026429Y-26589791D01*
X13026421Y-26589747D01*
X13025971Y-26587269D01*
X13025964Y-26587232D01*
X13025817Y-26586714D01*
X13025500Y-26585121D01*
X13025500Y-26585118D01*
X13012006Y-26552543D01*
X13011088Y-26550213D01*
X12998362Y-26516278D01*
X12805212Y-26001209D01*
X12800500Y-25975226D01*
X12800500Y-25665327D01*
X12797352Y-25649500D01*
X12785966Y-25592260D01*
X12751789Y-25541110D01*
X12740741Y-25485563D01*
X12751790Y-25458889D01*
X12785966Y-25407740D01*
X12789688Y-25389024D01*
X12821152Y-25341933D01*
X12876701Y-25330883D01*
X12923794Y-25362347D01*
X12923795Y-25362349D01*
X12966212Y-25425832D01*
X12969399Y-25430601D01*
X13052260Y-25485966D01*
X13125326Y-25500500D01*
X13125328Y-25500500D01*
X13434672Y-25500500D01*
X13434674Y-25500500D01*
X13507740Y-25485966D01*
X13559339Y-25451488D01*
X13614887Y-25440440D01*
X13641562Y-25451489D01*
X13692455Y-25485494D01*
X13765378Y-25500000D01*
X13820000Y-25500000D01*
X13820000Y-24800000D01*
X13765376Y-24800000D01*
X13690792Y-24814835D01*
X13635243Y-24803785D01*
X13603778Y-24756693D01*
X13604877Y-24723107D01*
X13620971Y-24663043D01*
X13625500Y-24646145D01*
X13625500Y-24549909D01*
X13645657Y-24499145D01*
X14243160Y-23865430D01*
X14244609Y-23863939D01*
X14294976Y-23813574D01*
X14319976Y-23788574D01*
X14344976Y-23763574D01*
X14369976Y-23738574D01*
X14382020Y-23709496D01*
X14391636Y-23695106D01*
X14390927Y-23694632D01*
X14394971Y-23688578D01*
X14394976Y-23688574D01*
X14425500Y-23614882D01*
X14425500Y-23535118D01*
X14425500Y-23124500D01*
X14447174Y-23072174D01*
X14499500Y-23050500D01*
X14546146Y-23050500D01*
X14546146Y-23050499D01*
X14635288Y-23026614D01*
X14715212Y-22980469D01*
X14780469Y-22915212D01*
X14826614Y-22835288D01*
X14850499Y-22746146D01*
X14850500Y-22746146D01*
X14850500Y-22653854D01*
X14850499Y-22653853D01*
X14846910Y-22640460D01*
X14826614Y-22564712D01*
X14814104Y-22543046D01*
X14806711Y-22486896D01*
X14809817Y-22477742D01*
X14825500Y-22439882D01*
X14825500Y-22439878D01*
X14826922Y-22432733D01*
X14826936Y-22432735D01*
X14831133Y-22411637D01*
X14850500Y-22364882D01*
X14850500Y-22304358D01*
X14872174Y-22252032D01*
X14912610Y-22231319D01*
X15407399Y-22150771D01*
X15462525Y-22163756D01*
G37*
%TD.AperFunction*%
%TA.AperFunction,Conductor*%
G36*
X7488437Y-25691201D02*
G01*
X7491276Y-25691765D01*
X7491278Y-25691767D01*
X7535180Y-25700500D01*
X7651194Y-25700500D01*
X7703520Y-25722174D01*
X7725194Y-25774500D01*
X7724837Y-25781756D01*
X7724500Y-25785176D01*
X7724500Y-26214819D01*
X7733233Y-26258722D01*
X7766495Y-26308503D01*
X7766496Y-26308504D01*
X7792637Y-26325971D01*
X7824103Y-26373063D01*
X7813054Y-26428612D01*
X7792637Y-26449029D01*
X7766496Y-26466495D01*
X7766495Y-26466496D01*
X7749029Y-26492637D01*
X7701937Y-26524103D01*
X7646388Y-26513054D01*
X7625971Y-26492637D01*
X7608504Y-26466496D01*
X7608503Y-26466495D01*
X7558722Y-26433233D01*
X7514820Y-26424500D01*
X7085180Y-26424500D01*
X7085177Y-26424500D01*
X7081756Y-26424837D01*
X7027557Y-26408398D01*
X7000857Y-26358450D01*
X7000500Y-26351194D01*
X7000500Y-26235180D01*
X6991202Y-26188436D01*
X7002251Y-26132887D01*
X7049343Y-26101421D01*
X7063780Y-26099999D01*
X7264779Y-26099999D01*
X7308524Y-26091298D01*
X7358143Y-26058144D01*
X7358144Y-26058143D01*
X7391296Y-26008527D01*
X7399999Y-25964773D01*
X7399999Y-25763779D01*
X7421673Y-25711453D01*
X7473999Y-25689779D01*
X7488437Y-25691201D01*
G37*
%TD.AperFunction*%
%TA.AperFunction,Conductor*%
G36*
X9367111Y-25702249D02*
G01*
X9398578Y-25749341D01*
X9400000Y-25763779D01*
X9400000Y-25964769D01*
X9408703Y-26008526D01*
X9441855Y-26058143D01*
X9441856Y-26058144D01*
X9491472Y-26091296D01*
X9535226Y-26099999D01*
X9736220Y-26099999D01*
X9788546Y-26121673D01*
X9810220Y-26173999D01*
X9808798Y-26188436D01*
X9799500Y-26235180D01*
X9799500Y-26353661D01*
X9777826Y-26405987D01*
X9725500Y-26427661D01*
X9711065Y-26426239D01*
X9702322Y-26424500D01*
X9702320Y-26424500D01*
X9272680Y-26424500D01*
X9263938Y-26426239D01*
X9228777Y-26433233D01*
X9178996Y-26466495D01*
X9178995Y-26466496D01*
X9167779Y-26483283D01*
X9120686Y-26514749D01*
X9065138Y-26503700D01*
X9044721Y-26483283D01*
X9033504Y-26466496D01*
X9033501Y-26466493D01*
X9007363Y-26449029D01*
X8975896Y-26401938D01*
X8986945Y-26346389D01*
X9007363Y-26325971D01*
X9033501Y-26308506D01*
X9033500Y-26308506D01*
X9033504Y-26308504D01*
X9066767Y-26258722D01*
X9075500Y-26214820D01*
X9075500Y-25785180D01*
X9075500Y-25785176D01*
X9075163Y-25781756D01*
X9091602Y-25727557D01*
X9141550Y-25700857D01*
X9148806Y-25700500D01*
X9264818Y-25700500D01*
X9264820Y-25700500D01*
X9308722Y-25691767D01*
X9308724Y-25691765D01*
X9311562Y-25691201D01*
X9367111Y-25702249D01*
G37*
%TD.AperFunction*%
%TA.AperFunction,Conductor*%
G36*
X10223500Y-24340475D02*
G01*
X10248027Y-24363446D01*
X10255448Y-24374552D01*
X10296368Y-24401894D01*
X10321767Y-24418866D01*
X10321768Y-24418866D01*
X10321769Y-24418867D01*
X10380252Y-24430500D01*
X10380254Y-24430500D01*
X10519746Y-24430500D01*
X10519748Y-24430500D01*
X10578231Y-24418867D01*
X10603633Y-24401893D01*
X10659180Y-24390842D01*
X10706273Y-24422306D01*
X10718293Y-24455249D01*
X10762054Y-24849093D01*
X10750036Y-24898376D01*
X10714034Y-24952260D01*
X10699665Y-25024500D01*
X10699500Y-25025327D01*
X10699500Y-25334672D01*
X10714034Y-25407741D01*
X10748209Y-25458889D01*
X10759258Y-25514438D01*
X10748209Y-25541111D01*
X10714034Y-25592258D01*
X10699500Y-25665327D01*
X10699500Y-25974679D01*
X10699831Y-25978043D01*
X10683386Y-26032240D01*
X10670234Y-26044753D01*
X10560610Y-26125957D01*
X10505662Y-26139687D01*
X10457100Y-26110541D01*
X10443370Y-26055593D01*
X10455035Y-26025381D01*
X10466296Y-26008527D01*
X10475000Y-25964773D01*
X10475000Y-25662500D01*
X10011500Y-25662500D01*
X9959174Y-25640826D01*
X9944787Y-25620522D01*
X9916936Y-25562500D01*
X9911500Y-25562500D01*
X9859174Y-25540826D01*
X9837500Y-25488500D01*
X9837500Y-25462500D01*
X10037500Y-25462500D01*
X10474999Y-25462500D01*
X10474999Y-25160221D01*
X10466298Y-25116475D01*
X10433144Y-25066856D01*
X10433143Y-25066855D01*
X10383527Y-25033703D01*
X10339773Y-25025000D01*
X10037500Y-25025000D01*
X10037500Y-25462500D01*
X9837500Y-25462500D01*
X9837500Y-25025000D01*
X9535229Y-25025000D01*
X9491471Y-25033703D01*
X9441560Y-25067052D01*
X9386011Y-25078101D01*
X9359338Y-25067052D01*
X9308723Y-25033233D01*
X9308724Y-25033233D01*
X9275357Y-25026596D01*
X9228266Y-24995129D01*
X9217217Y-24939580D01*
X9243862Y-24895999D01*
X9646134Y-24577533D01*
X9700612Y-24562048D01*
X9711215Y-24564074D01*
X9727501Y-24568438D01*
X9753855Y-24575500D01*
X9753856Y-24575500D01*
X9846146Y-24575500D01*
X9846146Y-24575499D01*
X9935288Y-24551614D01*
X10015212Y-24505469D01*
X10080469Y-24440212D01*
X10122415Y-24367559D01*
X10167347Y-24333083D01*
X10223500Y-24340475D01*
G37*
%TD.AperFunction*%
%TA.AperFunction,Conductor*%
G36*
X7849000Y-24596756D02*
G01*
X7863659Y-24651464D01*
X7862432Y-24658294D01*
X7791874Y-24966989D01*
X7759085Y-25013170D01*
X7719734Y-25024500D01*
X7535180Y-25024500D01*
X7491278Y-25033233D01*
X7440661Y-25067053D01*
X7385112Y-25078101D01*
X7358438Y-25067052D01*
X7308527Y-25033703D01*
X7264773Y-25025000D01*
X7259490Y-25025000D01*
X7207164Y-25003326D01*
X7185490Y-24951000D01*
X7207164Y-24898674D01*
X7231172Y-24882633D01*
X7312145Y-24849093D01*
X7500000Y-24771281D01*
X7745246Y-24583096D01*
X7799951Y-24568438D01*
X7849000Y-24596756D01*
G37*
%TD.AperFunction*%
%TA.AperFunction,Conductor*%
G36*
X13091111Y-20548381D02*
G01*
X13121769Y-20568867D01*
X13180252Y-20580500D01*
X13180254Y-20580500D01*
X13275500Y-20580500D01*
X13327826Y-20602174D01*
X13349500Y-20654500D01*
X13349500Y-20735118D01*
X13349500Y-21010252D01*
X13349500Y-21149748D01*
X13355518Y-21180000D01*
X13361133Y-21208232D01*
X13381617Y-21238888D01*
X13392666Y-21294436D01*
X13381617Y-21321112D01*
X13361133Y-21351767D01*
X13355510Y-21380037D01*
X13349500Y-21410252D01*
X13349500Y-21535118D01*
X13349500Y-21810252D01*
X13349500Y-21949748D01*
X13357255Y-21988736D01*
X13361133Y-22008232D01*
X13381617Y-22038888D01*
X13392666Y-22094436D01*
X13381617Y-22121112D01*
X13361133Y-22151767D01*
X13353812Y-22188574D01*
X13349500Y-22210252D01*
X13349500Y-22349748D01*
X13355518Y-22380000D01*
X13361133Y-22408232D01*
X13381617Y-22438888D01*
X13392666Y-22494436D01*
X13381617Y-22521112D01*
X13361133Y-22551767D01*
X13349500Y-22610253D01*
X13349500Y-22749746D01*
X13361133Y-22808232D01*
X13381617Y-22838888D01*
X13392666Y-22894436D01*
X13381617Y-22921112D01*
X13361133Y-22951767D01*
X13361133Y-22951769D01*
X13349500Y-23010252D01*
X13349500Y-23149748D01*
X13357255Y-23188736D01*
X13361133Y-23208232D01*
X13381617Y-23238888D01*
X13392666Y-23294436D01*
X13381617Y-23321112D01*
X13361133Y-23351767D01*
X13361133Y-23351769D01*
X13350493Y-23405263D01*
X13349500Y-23410253D01*
X13349500Y-23549748D01*
X13349643Y-23551200D01*
X13350000Y-23558457D01*
X13350000Y-23931000D01*
X13328326Y-23983326D01*
X13276000Y-24005000D01*
X13224000Y-24005000D01*
X13171674Y-23983326D01*
X13150000Y-23931000D01*
X13150000Y-23586027D01*
X13121964Y-23591603D01*
X13091562Y-23611918D01*
X13036013Y-23622967D01*
X13009337Y-23611917D01*
X12978233Y-23591133D01*
X12948989Y-23585316D01*
X12919748Y-23579500D01*
X12780252Y-23579500D01*
X12751010Y-23585316D01*
X12721767Y-23591133D01*
X12691112Y-23611617D01*
X12635564Y-23622666D01*
X12608888Y-23611617D01*
X12578231Y-23591133D01*
X12578233Y-23591133D01*
X12548989Y-23585316D01*
X12519748Y-23579500D01*
X12380252Y-23579500D01*
X12351010Y-23585316D01*
X12321767Y-23591133D01*
X12291112Y-23611617D01*
X12235564Y-23622666D01*
X12208888Y-23611617D01*
X12178231Y-23591133D01*
X12178233Y-23591133D01*
X12148989Y-23585316D01*
X12119748Y-23579500D01*
X11980252Y-23579500D01*
X11951010Y-23585316D01*
X11921767Y-23591133D01*
X11891112Y-23611617D01*
X11835564Y-23622666D01*
X11808888Y-23611617D01*
X11778231Y-23591133D01*
X11778233Y-23591133D01*
X11748989Y-23585316D01*
X11719748Y-23579500D01*
X11580252Y-23579500D01*
X11551010Y-23585316D01*
X11521767Y-23591133D01*
X11491112Y-23611617D01*
X11435564Y-23622666D01*
X11408888Y-23611617D01*
X11378231Y-23591133D01*
X11378233Y-23591133D01*
X11348989Y-23585316D01*
X11319748Y-23579500D01*
X11180252Y-23579500D01*
X11151010Y-23585316D01*
X11121767Y-23591133D01*
X11091112Y-23611617D01*
X11035564Y-23622666D01*
X11008888Y-23611617D01*
X10978231Y-23591133D01*
X10978233Y-23591133D01*
X10948989Y-23585316D01*
X10919748Y-23579500D01*
X10780252Y-23579500D01*
X10751010Y-23585316D01*
X10721767Y-23591133D01*
X10691112Y-23611617D01*
X10635564Y-23622666D01*
X10608888Y-23611617D01*
X10578231Y-23591133D01*
X10578233Y-23591133D01*
X10548989Y-23585316D01*
X10519748Y-23579500D01*
X10424500Y-23579500D01*
X10372174Y-23557826D01*
X10350500Y-23505500D01*
X10350500Y-23410253D01*
X10350500Y-23410252D01*
X10338867Y-23351769D01*
X10318382Y-23321112D01*
X10307333Y-23265565D01*
X10318381Y-23238888D01*
X10338867Y-23208231D01*
X10350500Y-23149748D01*
X10350500Y-23010252D01*
X10338867Y-22951769D01*
X10318382Y-22921112D01*
X10307333Y-22865565D01*
X10318381Y-22838888D01*
X10338867Y-22808231D01*
X10350500Y-22749748D01*
X10350500Y-22610252D01*
X10338867Y-22551769D01*
X10333040Y-22543048D01*
X10318082Y-22520662D01*
X10307032Y-22465113D01*
X10318082Y-22438435D01*
X10338396Y-22408034D01*
X10343973Y-22380000D01*
X9999000Y-22380000D01*
X9946674Y-22358326D01*
X9925000Y-22306000D01*
X9925000Y-22254000D01*
X9946674Y-22201674D01*
X9999000Y-22180000D01*
X10343972Y-22180000D01*
X10338396Y-22151964D01*
X10318081Y-22121561D01*
X10307032Y-22066013D01*
X10318080Y-22039339D01*
X10338867Y-22008231D01*
X10350500Y-21949748D01*
X10350500Y-21810252D01*
X10338867Y-21751769D01*
X10318382Y-21721112D01*
X10307333Y-21665565D01*
X10318381Y-21638888D01*
X10338867Y-21608231D01*
X10350500Y-21549748D01*
X10350500Y-21410252D01*
X10338867Y-21351769D01*
X10334994Y-21345972D01*
X10318082Y-21320662D01*
X10307032Y-21265113D01*
X10318082Y-21238435D01*
X10338396Y-21208034D01*
X10343973Y-21180000D01*
X9999000Y-21180000D01*
X9946674Y-21158326D01*
X9925000Y-21106000D01*
X9925000Y-21054000D01*
X9946674Y-21001674D01*
X9999000Y-20980000D01*
X10343972Y-20980000D01*
X10338396Y-20951964D01*
X10318081Y-20921561D01*
X10307032Y-20866013D01*
X10318080Y-20839339D01*
X10338867Y-20808231D01*
X10350500Y-20749748D01*
X10350500Y-20654500D01*
X10372174Y-20602174D01*
X10424500Y-20580500D01*
X10519746Y-20580500D01*
X10519748Y-20580500D01*
X10578231Y-20568867D01*
X10608887Y-20548382D01*
X10664435Y-20537333D01*
X10691111Y-20548381D01*
X10721769Y-20568867D01*
X10780252Y-20580500D01*
X10780254Y-20580500D01*
X10919746Y-20580500D01*
X10919748Y-20580500D01*
X10978231Y-20568867D01*
X11008887Y-20548382D01*
X11064435Y-20537333D01*
X11091111Y-20548381D01*
X11121769Y-20568867D01*
X11180252Y-20580500D01*
X11180254Y-20580500D01*
X11319746Y-20580500D01*
X11319748Y-20580500D01*
X11378231Y-20568867D01*
X11408887Y-20548382D01*
X11464435Y-20537333D01*
X11491111Y-20548381D01*
X11521769Y-20568867D01*
X11580252Y-20580500D01*
X11580254Y-20580500D01*
X11719746Y-20580500D01*
X11719748Y-20580500D01*
X11778231Y-20568867D01*
X11808887Y-20548382D01*
X11864435Y-20537333D01*
X11891111Y-20548381D01*
X11921769Y-20568867D01*
X11980252Y-20580500D01*
X11980254Y-20580500D01*
X12119746Y-20580500D01*
X12119748Y-20580500D01*
X12178231Y-20568867D01*
X12208887Y-20548382D01*
X12264435Y-20537333D01*
X12291111Y-20548381D01*
X12321769Y-20568867D01*
X12380252Y-20580500D01*
X12380254Y-20580500D01*
X12519746Y-20580500D01*
X12519748Y-20580500D01*
X12578231Y-20568867D01*
X12608887Y-20548382D01*
X12664435Y-20537333D01*
X12691111Y-20548381D01*
X12721769Y-20568867D01*
X12780252Y-20580500D01*
X12780254Y-20580500D01*
X12919746Y-20580500D01*
X12919748Y-20580500D01*
X12978231Y-20568867D01*
X13008887Y-20548382D01*
X13064435Y-20537333D01*
X13091111Y-20548381D01*
G37*
%TD.AperFunction*%
%TA.AperFunction,Conductor*%
G36*
X11396135Y-16890909D02*
G01*
X11505892Y-16926613D01*
X13100354Y-17445294D01*
X13129788Y-17463338D01*
X13136425Y-17469975D01*
X13136428Y-17469977D01*
X13164950Y-17481790D01*
X13208181Y-17499697D01*
X13232188Y-17515738D01*
X13236426Y-17519976D01*
X13265504Y-17532020D01*
X13289510Y-17548060D01*
X13302914Y-17561464D01*
X13305703Y-17564411D01*
X13319691Y-17580024D01*
X13327283Y-17588497D01*
X13327285Y-17588498D01*
X13331768Y-17591863D01*
X13336422Y-17594972D01*
X13336426Y-17594976D01*
X13347348Y-17599500D01*
X13366321Y-17607359D01*
X13370010Y-17609006D01*
X13809476Y-17819949D01*
X13847270Y-17862132D01*
X13844167Y-17918684D01*
X13801984Y-17956478D01*
X13796607Y-17958140D01*
X13739715Y-17973384D01*
X13739706Y-17973388D01*
X13680700Y-18007455D01*
X13624548Y-18014847D01*
X13594179Y-17997314D01*
X13594053Y-17997479D01*
X13592802Y-17996518D01*
X13591377Y-17995696D01*
X13590212Y-17994531D01*
X13590209Y-17994529D01*
X13590208Y-17994528D01*
X13510289Y-17948386D01*
X13510284Y-17948384D01*
X13421146Y-17924500D01*
X13421144Y-17924500D01*
X13328856Y-17924500D01*
X13328851Y-17924500D01*
X13327961Y-17924739D01*
X13327500Y-17924678D01*
X13324047Y-17925133D01*
X13323925Y-17924207D01*
X13271809Y-17917341D01*
X13247286Y-17894371D01*
X13230601Y-17869399D01*
X13223842Y-17864883D01*
X13147740Y-17814034D01*
X13139777Y-17812450D01*
X13074674Y-17799500D01*
X12765326Y-17799500D01*
X12733951Y-17805741D01*
X12692258Y-17814034D01*
X12640660Y-17848510D01*
X12585111Y-17859559D01*
X12558437Y-17848510D01*
X12507545Y-17814505D01*
X12434622Y-17800000D01*
X12380000Y-17800000D01*
X12380000Y-18076000D01*
X12358326Y-18128326D01*
X12338022Y-18142713D01*
X12280000Y-18170563D01*
X12280000Y-18176000D01*
X12258326Y-18228326D01*
X12206000Y-18250000D01*
X11900000Y-18250000D01*
X11900000Y-18274622D01*
X11914505Y-18347545D01*
X11969759Y-18430239D01*
X11969760Y-18430240D01*
X12056459Y-18488170D01*
X12087925Y-18535262D01*
X12076876Y-18590811D01*
X12056459Y-18611228D01*
X11969399Y-18669398D01*
X11969398Y-18669399D01*
X11914034Y-18752259D01*
X11914034Y-18752260D01*
X11902243Y-18811539D01*
X11899500Y-18825327D01*
X11899500Y-18912298D01*
X11877826Y-18964624D01*
X11825500Y-18986298D01*
X11773174Y-18964624D01*
X11297174Y-18488624D01*
X11275500Y-18436298D01*
X11275500Y-18353854D01*
X11275499Y-18353853D01*
X11273433Y-18346144D01*
X11254283Y-18274674D01*
X11251615Y-18264715D01*
X11251613Y-18264710D01*
X11205471Y-18184791D01*
X11205470Y-18184790D01*
X11205469Y-18184788D01*
X11140212Y-18119531D01*
X11140209Y-18119529D01*
X11140208Y-18119528D01*
X11060289Y-18073386D01*
X11060284Y-18073384D01*
X10971146Y-18049500D01*
X10971144Y-18049500D01*
X10878856Y-18049500D01*
X10878854Y-18049500D01*
X10789715Y-18073384D01*
X10789710Y-18073386D01*
X10726146Y-18110086D01*
X10689146Y-18120000D01*
X9740000Y-18120000D01*
X9726211Y-18133788D01*
X9718326Y-18152826D01*
X9666000Y-18174500D01*
X9653854Y-18174500D01*
X9564715Y-18198384D01*
X9564710Y-18198386D01*
X9561000Y-18200529D01*
X9504847Y-18207922D01*
X9459914Y-18173443D01*
X9450000Y-18136443D01*
X9450000Y-18125377D01*
X9435494Y-18052454D01*
X9417402Y-18025377D01*
X11900000Y-18025377D01*
X11900000Y-18050000D01*
X12180000Y-18050000D01*
X12180000Y-17800000D01*
X12125378Y-17800000D01*
X12052454Y-17814505D01*
X11969760Y-17869759D01*
X11969759Y-17869760D01*
X11914505Y-17952454D01*
X11900000Y-18025377D01*
X9417402Y-18025377D01*
X9380240Y-17969760D01*
X9380239Y-17969759D01*
X9297545Y-17914505D01*
X9260533Y-17907143D01*
X9224622Y-17900000D01*
X9200000Y-17900000D01*
X9200000Y-18206000D01*
X9178326Y-18258326D01*
X9158022Y-18272713D01*
X9100000Y-18300563D01*
X9100000Y-18306000D01*
X9078326Y-18358326D01*
X9026000Y-18380000D01*
X8750000Y-18380000D01*
X8750000Y-18434622D01*
X8764505Y-18507545D01*
X8798510Y-18558437D01*
X8809559Y-18613986D01*
X8798510Y-18640660D01*
X8764034Y-18692258D01*
X8764034Y-18692260D01*
X8749500Y-18765326D01*
X8749500Y-19074674D01*
X8757619Y-19115489D01*
X8764034Y-19147740D01*
X8819157Y-19230240D01*
X8819399Y-19230601D01*
X8865979Y-19261724D01*
X8897446Y-19308815D01*
X8897164Y-19339043D01*
X8895608Y-19346166D01*
X8898336Y-19361363D01*
X8899500Y-19374438D01*
X8899500Y-19389882D01*
X8903422Y-19399352D01*
X8907889Y-19414591D01*
X9092140Y-20441133D01*
X9223281Y-21171779D01*
X9249079Y-21315508D01*
X9250209Y-21326326D01*
X9250807Y-21345970D01*
X9250808Y-21345972D01*
X9253275Y-21351450D01*
X9258636Y-21368757D01*
X9259698Y-21374675D01*
X9270311Y-21391222D01*
X9275492Y-21400781D01*
X9283562Y-21418698D01*
X9287936Y-21422813D01*
X9299518Y-21436759D01*
X9302759Y-21441813D01*
X9302760Y-21441813D01*
X9302762Y-21441816D01*
X9318893Y-21453037D01*
X9327341Y-21459887D01*
X9341657Y-21473357D01*
X9347272Y-21475484D01*
X9363308Y-21483935D01*
X9368241Y-21487367D01*
X9387451Y-21491564D01*
X9397859Y-21494654D01*
X9457581Y-21517286D01*
X9498830Y-21556095D01*
X9503935Y-21572045D01*
X9511133Y-21608232D01*
X9531617Y-21638888D01*
X9542666Y-21694436D01*
X9531617Y-21721112D01*
X9511133Y-21751767D01*
X9499500Y-21810253D01*
X9499500Y-21811298D01*
X9499364Y-21811625D01*
X9499143Y-21813873D01*
X9498461Y-21813805D01*
X9477826Y-21863624D01*
X9461426Y-21880024D01*
X9436426Y-21905024D01*
X9411426Y-21930024D01*
X9386426Y-21955024D01*
X9386425Y-21955023D01*
X9330025Y-22011424D01*
X9330020Y-22011432D01*
X9317976Y-22040508D01*
X9312941Y-22046081D01*
X9307875Y-22054570D01*
X9309071Y-22055369D01*
X9305022Y-22061428D01*
X9274500Y-22135116D01*
X9274500Y-22160493D01*
X9252826Y-22212819D01*
X9200500Y-22234493D01*
X9148174Y-22212819D01*
X9127922Y-22174930D01*
X9115494Y-22112454D01*
X9105656Y-22097730D01*
X9104775Y-22093953D01*
X9102044Y-22091728D01*
X9100323Y-22074859D01*
X9093817Y-22046959D01*
X9100000Y-22000000D01*
X8990962Y-21171779D01*
X8671281Y-20400000D01*
X8374766Y-20013574D01*
X8162743Y-19737260D01*
X8162738Y-19737255D01*
X8053952Y-19653781D01*
X8025633Y-19604732D01*
X8025345Y-19600346D01*
X8025000Y-19600000D01*
X8008982Y-19600000D01*
X7963935Y-19584708D01*
X7896165Y-19532706D01*
X7867848Y-19483659D01*
X7882507Y-19428951D01*
X7931556Y-19400633D01*
X7941215Y-19400000D01*
X8024999Y-19400000D01*
X8024999Y-19286916D01*
X8018769Y-19239587D01*
X8018768Y-19239584D01*
X7970331Y-19135711D01*
X7889286Y-19054666D01*
X7785414Y-19006231D01*
X7785412Y-19006230D01*
X7738083Y-19000000D01*
X7550000Y-19000000D01*
X7550000Y-19138679D01*
X7528326Y-19191005D01*
X7476000Y-19212679D01*
X7447682Y-19207046D01*
X7395682Y-19185507D01*
X7355633Y-19145459D01*
X7350000Y-19117140D01*
X7350000Y-19000000D01*
X7161916Y-19000000D01*
X7114588Y-19006230D01*
X7114582Y-19006232D01*
X7072721Y-19025751D01*
X7016138Y-19028219D01*
X7013132Y-19027050D01*
X6747224Y-18916908D01*
X6707175Y-18876860D01*
X6707175Y-18820223D01*
X6711452Y-18811547D01*
X6726614Y-18785288D01*
X6750499Y-18696146D01*
X6750500Y-18696146D01*
X6750500Y-18622981D01*
X6750500Y-18603856D01*
X6726614Y-18514712D01*
X6680469Y-18434788D01*
X6651810Y-18406129D01*
X6622174Y-18376492D01*
X6600500Y-18324167D01*
X6600500Y-17889956D01*
X6606133Y-17861638D01*
X6616211Y-17837307D01*
X6624698Y-17816816D01*
X6640738Y-17792811D01*
X6644976Y-17788574D01*
X6646012Y-17786071D01*
X6647929Y-17784153D01*
X6649026Y-17782513D01*
X6649352Y-17782730D01*
X6682726Y-17749346D01*
X6682513Y-17749026D01*
X6684121Y-17747951D01*
X6686051Y-17746020D01*
X6688574Y-17744976D01*
X6692811Y-17740738D01*
X6716813Y-17724699D01*
X6781567Y-17697878D01*
X6803689Y-17692507D01*
X7064834Y-17670604D01*
X7118788Y-17687829D01*
X7144759Y-17738160D01*
X7127534Y-17792115D01*
X7102292Y-17811412D01*
X7010421Y-17854253D01*
X7010420Y-17854253D01*
X6929253Y-17935420D01*
X6880740Y-18039456D01*
X6874500Y-18086862D01*
X6874500Y-18496601D01*
X6874500Y-18496605D01*
X6874501Y-18513138D01*
X6880741Y-18560545D01*
X6895058Y-18591249D01*
X6895059Y-18591251D01*
X6922687Y-18650499D01*
X6929253Y-18664579D01*
X7010421Y-18745747D01*
X7114455Y-18794259D01*
X7161861Y-18800500D01*
X7738138Y-18800499D01*
X7785545Y-18794259D01*
X7889579Y-18745747D01*
X7970747Y-18664579D01*
X8019259Y-18560545D01*
X8025500Y-18513139D01*
X8025499Y-18189422D01*
X8047173Y-18137097D01*
X8062445Y-18125377D01*
X8750000Y-18125377D01*
X8750000Y-18180000D01*
X9000000Y-18180000D01*
X9000000Y-17900000D01*
X8975378Y-17900000D01*
X8902454Y-17914505D01*
X8819760Y-17969759D01*
X8819759Y-17969760D01*
X8764505Y-18052454D01*
X8750000Y-18125377D01*
X8062445Y-18125377D01*
X8062496Y-18125338D01*
X8140212Y-18080469D01*
X8205469Y-18015212D01*
X8251614Y-17935288D01*
X8275499Y-17846146D01*
X8275500Y-17846146D01*
X8275500Y-17836702D01*
X9740000Y-17836702D01*
X9740000Y-17920000D01*
X10100000Y-17920000D01*
X10100000Y-17590000D01*
X9986702Y-17590000D01*
X9962457Y-17592812D01*
X9962450Y-17592814D01*
X9863272Y-17636606D01*
X9786606Y-17713272D01*
X9742814Y-17812450D01*
X9742812Y-17812457D01*
X9740000Y-17836702D01*
X8275500Y-17836702D01*
X8275500Y-17753854D01*
X8275499Y-17753853D01*
X8274291Y-17749346D01*
X8264626Y-17713272D01*
X8250359Y-17660027D01*
X8252895Y-17659347D01*
X8252894Y-17611170D01*
X8292940Y-17571120D01*
X8315071Y-17565746D01*
X10269084Y-17401860D01*
X10323038Y-17419085D01*
X10327593Y-17423274D01*
X10359788Y-17455469D01*
X10359790Y-17455470D01*
X10362169Y-17457296D01*
X10362924Y-17458604D01*
X10363217Y-17458897D01*
X10363138Y-17458975D01*
X10390483Y-17506348D01*
X10375819Y-17561054D01*
X10326767Y-17589368D01*
X10317115Y-17590000D01*
X10300000Y-17590000D01*
X10300000Y-17920000D01*
X10660000Y-17920000D01*
X10660000Y-17836702D01*
X10657187Y-17812457D01*
X10657185Y-17812450D01*
X10613393Y-17713272D01*
X10551947Y-17651826D01*
X10530273Y-17599500D01*
X10551947Y-17547174D01*
X10604273Y-17525500D01*
X10621146Y-17525500D01*
X10621146Y-17525499D01*
X10710288Y-17501614D01*
X10790212Y-17455469D01*
X10855469Y-17390212D01*
X10901614Y-17310288D01*
X10925499Y-17221146D01*
X10925500Y-17221146D01*
X10925500Y-17128854D01*
X10925499Y-17128853D01*
X10901615Y-17039715D01*
X10901613Y-17039710D01*
X10885205Y-17011291D01*
X10877812Y-16955139D01*
X10912291Y-16910205D01*
X10968443Y-16902812D01*
X10986291Y-16910205D01*
X11014705Y-16926610D01*
X11014712Y-16926614D01*
X11014713Y-16926614D01*
X11014715Y-16926615D01*
X11059284Y-16938557D01*
X11103853Y-16950499D01*
X11103854Y-16950500D01*
X11103856Y-16950500D01*
X11196146Y-16950500D01*
X11196146Y-16950499D01*
X11285288Y-16926614D01*
X11285290Y-16926612D01*
X11285297Y-16926610D01*
X11336241Y-16897195D01*
X11392393Y-16889800D01*
X11396135Y-16890909D01*
G37*
%TD.AperFunction*%
%TA.AperFunction,Conductor*%
G36*
X6834443Y-16021674D02*
G01*
X6853595Y-16054847D01*
X6869977Y-16115985D01*
X6869979Y-16115990D01*
X6900891Y-16169531D01*
X6909540Y-16184511D01*
X6965489Y-16240460D01*
X7034011Y-16280021D01*
X7034012Y-16280021D01*
X7034014Y-16280022D01*
X7061336Y-16287343D01*
X7110435Y-16300499D01*
X7110436Y-16300500D01*
X8946324Y-16300500D01*
X8998650Y-16322174D01*
X9020324Y-16374500D01*
X8998650Y-16426826D01*
X8963758Y-16446417D01*
X7321360Y-16844573D01*
X7309710Y-16845460D01*
X7309771Y-16846010D01*
X7302529Y-16846810D01*
X7273505Y-16855995D01*
X7268618Y-16857359D01*
X7239004Y-16864538D01*
X7232392Y-16867605D01*
X7232159Y-16867103D01*
X7221729Y-16872380D01*
X5598607Y-17386025D01*
X5542181Y-17381148D01*
X5539281Y-17379559D01*
X5486327Y-17348986D01*
X5451848Y-17304053D01*
X5449961Y-17275236D01*
X5450500Y-17271144D01*
X5450500Y-17178854D01*
X5450499Y-17178853D01*
X5426615Y-17089715D01*
X5426613Y-17089710D01*
X5380471Y-17009791D01*
X5380470Y-17009790D01*
X5380469Y-17009788D01*
X5315212Y-16944531D01*
X5315209Y-16944529D01*
X5315208Y-16944528D01*
X5235289Y-16898386D01*
X5235284Y-16898384D01*
X5146146Y-16874500D01*
X5146144Y-16874500D01*
X5053856Y-16874500D01*
X5053854Y-16874500D01*
X4964715Y-16898384D01*
X4964710Y-16898386D01*
X4884791Y-16944528D01*
X4819528Y-17009791D01*
X4773386Y-17089710D01*
X4773384Y-17089715D01*
X4749500Y-17178853D01*
X4749500Y-17271146D01*
X4773384Y-17360284D01*
X4773386Y-17360289D01*
X4800451Y-17407166D01*
X4807844Y-17463319D01*
X4804733Y-17472481D01*
X4799500Y-17485114D01*
X4798078Y-17492267D01*
X4798063Y-17492264D01*
X4793867Y-17513361D01*
X4774500Y-17560116D01*
X4774500Y-17560118D01*
X4774500Y-17710118D01*
X4774500Y-17789882D01*
X4793867Y-17836637D01*
X4798063Y-17857735D01*
X4798078Y-17857733D01*
X4799500Y-17864883D01*
X4830022Y-17938571D01*
X4830025Y-17938575D01*
X4851937Y-17960487D01*
X4867978Y-17984493D01*
X4880024Y-18013574D01*
X5377826Y-18511376D01*
X5399500Y-18563702D01*
X5399500Y-18646146D01*
X5423384Y-18735284D01*
X5423386Y-18735289D01*
X5436401Y-18757831D01*
X5443793Y-18813984D01*
X5409315Y-18858917D01*
X5381974Y-18868198D01*
X5071780Y-18909036D01*
X5071779Y-18909036D01*
X4299998Y-19228718D01*
X3637258Y-19737257D01*
X3637253Y-19737263D01*
X3128718Y-20399999D01*
X2809036Y-21171779D01*
X2809036Y-21171780D01*
X2768627Y-21478721D01*
X2735010Y-21734074D01*
X2734801Y-21735659D01*
X2706482Y-21784708D01*
X2661434Y-21800000D01*
X2624500Y-21800000D01*
X2572174Y-21778326D01*
X2550500Y-21726000D01*
X2550500Y-16374500D01*
X2572174Y-16322174D01*
X2624500Y-16300500D01*
X4689564Y-16300500D01*
X4689564Y-16300499D01*
X4765989Y-16280021D01*
X4834511Y-16240460D01*
X4890460Y-16184511D01*
X4930021Y-16115989D01*
X4934439Y-16099500D01*
X4946405Y-16054847D01*
X4980884Y-16009914D01*
X5017883Y-16000000D01*
X6782117Y-16000000D01*
X6834443Y-16021674D01*
G37*
%TD.AperFunction*%
%TA.AperFunction,Conductor*%
G36*
X14351826Y-18262797D02*
G01*
X14356614Y-18268072D01*
X14493910Y-18434788D01*
X14507623Y-18451439D01*
X14524500Y-18498481D01*
X14524500Y-19660118D01*
X14524500Y-19739882D01*
X14532626Y-19759502D01*
X14538628Y-19773991D01*
X14538627Y-19830628D01*
X14498577Y-19870676D01*
X14441940Y-19870675D01*
X14423724Y-19859844D01*
X14413740Y-19851769D01*
X14221332Y-19696144D01*
X14149921Y-19638385D01*
X14138374Y-19626701D01*
X14132656Y-19619457D01*
X14118295Y-19611428D01*
X14107874Y-19604376D01*
X14107231Y-19603856D01*
X14095080Y-19594028D01*
X14095078Y-19594027D01*
X14086220Y-19591408D01*
X14071097Y-19585039D01*
X14063037Y-19580534D01*
X14063035Y-19580533D01*
X14046693Y-19578610D01*
X14034371Y-19576083D01*
X14018589Y-19571419D01*
X14018588Y-19571419D01*
X14014602Y-19571840D01*
X14009406Y-19572389D01*
X13992987Y-19572291D01*
X12851500Y-19437998D01*
X12802065Y-19410359D01*
X12786653Y-19355859D01*
X12807821Y-19312178D01*
X12819999Y-19300000D01*
X13020000Y-19300000D01*
X13074622Y-19300000D01*
X13147545Y-19285494D01*
X13230239Y-19230240D01*
X13230240Y-19230239D01*
X13285494Y-19147545D01*
X13300000Y-19074622D01*
X13300000Y-19050000D01*
X13020000Y-19050000D01*
X13020000Y-19300000D01*
X12819999Y-19300000D01*
X12820000Y-19299999D01*
X12820000Y-19024000D01*
X12841674Y-18971674D01*
X12861978Y-18957287D01*
X12920000Y-18929436D01*
X12920000Y-18924000D01*
X12941674Y-18871674D01*
X12994000Y-18850000D01*
X13250315Y-18850000D01*
X13255391Y-18850500D01*
X13260118Y-18850500D01*
X13489881Y-18850500D01*
X13489882Y-18850500D01*
X13536639Y-18831133D01*
X13557735Y-18826936D01*
X13557733Y-18826922D01*
X13564878Y-18825500D01*
X13564882Y-18825500D01*
X13638574Y-18794976D01*
X13660488Y-18773060D01*
X13684492Y-18757021D01*
X13713574Y-18744976D01*
X13786376Y-18672174D01*
X13838702Y-18650500D01*
X13921146Y-18650500D01*
X13921146Y-18650499D01*
X14010288Y-18626614D01*
X14090212Y-18580469D01*
X14155469Y-18515212D01*
X14201614Y-18435288D01*
X14225499Y-18346146D01*
X14225500Y-18346146D01*
X14225500Y-18315123D01*
X14247174Y-18262797D01*
X14299500Y-18241123D01*
X14351826Y-18262797D01*
G37*
%TD.AperFunction*%
%TD*%
M02*
