M48
; DRILL file KiCad 10.0.6 date 2026-09-23T22:29:20
; FORMAT={-:-/ absolute / metric / decimal}
; #@! TF.CreationDate,2026-09-23T22:29:20-04:00
; #@! TF.GenerationSoftware,Kicad,Pcbnew,10.0.6
; #@! TF.FileFunction,Plated,1,2,PTH
FMAT,2
METRIC
; #@! TA.AperFunction,Plated,PTH,ViaDrill
T1C0.150
; #@! TA.AperFunction,Plated,PTH,ComponentDrill
T2C1.000
; #@! TA.AperFunction,Plated,PTH,ComponentDrill
T3C2.700
%
G90
G05
T1
X2.75Y-18.725
X4.975Y-16.4
X5.1Y-17.225
X5.35Y-17.675
X5.75Y-18.6
X6.4Y-18.65
X6.7Y-28.725
X6.7Y-29.375
X6.7Y-33.15
X6.775Y-17.875
X7.175Y-34.15
X7.6Y-36.7
X7.925Y-17.8
X8.875Y-20.175
X9.1Y-23.35
X9.7Y-18.525
X9.8Y-16.45
X9.8Y-24.225
X10.1Y-24.95
X10.4Y-16.5
X10.575Y-17.175
X10.6Y-27.45
X10.6Y-29.375
X10.625Y-28.575
X10.63Y-36.7
X10.85Y-28.125
X10.925Y-18.4
X11.15Y-16.6
X11.175Y-17.575
X11.275Y-19.65
X11.95Y-29.95
X12.2Y-29.5
X12.375Y-29.025
X12.45Y-26.75
X12.725Y-24.5
X12.9Y-30.2
X13.0Y-28.375
X13.15Y-17.65
X13.275Y-24.6
X13.375Y-18.275
X13.375Y-19.025
X13.375Y-26.925
X13.4Y-30.225
X13.65Y-20.35
X13.875Y-18.3
X14.175Y-28.75
X14.275Y-22.25
X14.35Y-19.175
X14.475Y-25.1
X14.5Y-22.7
X15.15Y-22.35
X16.514Y-7.55
X18.4Y-17.0
T2
X22.4Y-19.4
X22.4Y-21.94
X22.4Y-24.48
T3
X5.9Y-5.29
X8.5Y-43.0
X10.4Y5.81
M30
