%TF.GenerationSoftware,KiCad,Pcbnew,10.0.6*%
%TF.CreationDate,2026-09-25T04:31:35-04:00*%
%TF.ProjectId,elicio-v4,656c6963-696f-42d7-9634-2e6b69636164,rev?*%
%TF.SameCoordinates,Original*%
%TF.FileFunction,OtherDrawing,Comment*%
%FSLAX46Y46*%
G04 Gerber Fmt 4.6, Leading zero omitted, Abs format (unit mm)*
G04 Created by KiCad (PCBNEW 10.0.6) date 2026-09-25 04:31:35*
%MOMM*%
%LPD*%
G01*
G04 APERTURE LIST*
%ADD10C,0.050000*%
%ADD11C,0.120000*%
%ADD12C,0.087500*%
%ADD13C,0.100000*%
G04 APERTURE END LIST*
D10*
X4900000Y-23000000D02*
X4934074Y-22741180D01*
X4934074Y-22741180D02*
X5033974Y-22500000D01*
X4934074Y-23258819D02*
X4900000Y-23000000D01*
X5033974Y-22500000D02*
X5192893Y-22292893D01*
X5033974Y-23500000D02*
X4934074Y-23258819D01*
X5192893Y-22292893D02*
X5400000Y-22133974D01*
X5192893Y-23707106D02*
X5033974Y-23500000D01*
X5400000Y-22133974D02*
X5641180Y-22034074D01*
X5400000Y-23866025D02*
X5192893Y-23707106D01*
X5641180Y-22034074D02*
X5900000Y-22000000D01*
X5641180Y-23965925D02*
X5400000Y-23866025D01*
X5900000Y-22000000D02*
X6158819Y-22034074D01*
X5900000Y-24000000D02*
X5641180Y-23965925D01*
X6158819Y-22034074D02*
X6400000Y-22133974D01*
X6158819Y-23965925D02*
X5900000Y-24000000D01*
X6400000Y-22133974D02*
X6607106Y-22292893D01*
X6400000Y-23866025D02*
X6158819Y-23965925D01*
X6607106Y-22292893D02*
X6766025Y-22500000D01*
X6607106Y-23707106D02*
X6400000Y-23866025D01*
X6766025Y-22500000D02*
X6865925Y-22741180D01*
X6766025Y-23500000D02*
X6607106Y-23707106D01*
X6865925Y-22741180D02*
X6900000Y-23000000D01*
X6865925Y-23258819D02*
X6766025Y-23500000D01*
X6900000Y-23000000D02*
X6865925Y-23258819D01*
X8400000Y-32100000D02*
X8434074Y-31841180D01*
X8434074Y-31841180D02*
X8533974Y-31600000D01*
X8434074Y-32358819D02*
X8400000Y-32100000D01*
X8533974Y-31600000D02*
X8692893Y-31392893D01*
X8533974Y-32600000D02*
X8434074Y-32358819D01*
X8692893Y-31392893D02*
X8900000Y-31233974D01*
X8692893Y-32807106D02*
X8533974Y-32600000D01*
X8900000Y-31233974D02*
X9141180Y-31134074D01*
X8900000Y-32966025D02*
X8692893Y-32807106D01*
X9141180Y-31134074D02*
X9400000Y-31100000D01*
X9141180Y-33065925D02*
X8900000Y-32966025D01*
X9400000Y-31100000D02*
X9658819Y-31134074D01*
X9400000Y-33100000D02*
X9141180Y-33065925D01*
X9658819Y-31134074D02*
X9900000Y-31233974D01*
X9658819Y-33065925D02*
X9400000Y-33100000D01*
X9900000Y-31233974D02*
X10107106Y-31392893D01*
X9900000Y-32966025D02*
X9658819Y-33065925D01*
X10107106Y-31392893D02*
X10266025Y-31600000D01*
X10107106Y-32807106D02*
X9900000Y-32966025D01*
X10266025Y-31600000D02*
X10365925Y-31841180D01*
X10266025Y-32600000D02*
X10107106Y-32807106D01*
X10365925Y-31841180D02*
X10400000Y-32100000D01*
X10365925Y-32358819D02*
X10266025Y-32600000D01*
X10400000Y-32100000D02*
X10365925Y-32358819D01*
D11*
X16200000Y-19500000D02*
X16200000Y-22799999D01*
D12*
X4483333Y-21557366D02*
X4316666Y-21557366D01*
X4316666Y-21557366D02*
X4316666Y-21207366D01*
X4599999Y-21557366D02*
X4599999Y-21207366D01*
X4766666Y-21557366D02*
X4766666Y-21207366D01*
X4766666Y-21207366D02*
X4849999Y-21207366D01*
X4849999Y-21207366D02*
X4899999Y-21224033D01*
X4899999Y-21224033D02*
X4933333Y-21257366D01*
X4933333Y-21257366D02*
X4949999Y-21290700D01*
X4949999Y-21290700D02*
X4966666Y-21357366D01*
X4966666Y-21357366D02*
X4966666Y-21407366D01*
X4966666Y-21407366D02*
X4949999Y-21474033D01*
X4949999Y-21474033D02*
X4933333Y-21507366D01*
X4933333Y-21507366D02*
X4899999Y-21540700D01*
X4899999Y-21540700D02*
X4849999Y-21557366D01*
X4849999Y-21557366D02*
X4766666Y-21557366D01*
X5383333Y-21557366D02*
X5383333Y-21207366D01*
X5383333Y-21207366D02*
X5516666Y-21207366D01*
X5516666Y-21207366D02*
X5550000Y-21224033D01*
X5550000Y-21224033D02*
X5566666Y-21240700D01*
X5566666Y-21240700D02*
X5583333Y-21274033D01*
X5583333Y-21274033D02*
X5583333Y-21324033D01*
X5583333Y-21324033D02*
X5566666Y-21357366D01*
X5566666Y-21357366D02*
X5550000Y-21374033D01*
X5550000Y-21374033D02*
X5516666Y-21390700D01*
X5516666Y-21390700D02*
X5383333Y-21390700D01*
X5800000Y-21207366D02*
X5866666Y-21207366D01*
X5866666Y-21207366D02*
X5900000Y-21224033D01*
X5900000Y-21224033D02*
X5933333Y-21257366D01*
X5933333Y-21257366D02*
X5950000Y-21324033D01*
X5950000Y-21324033D02*
X5950000Y-21440700D01*
X5950000Y-21440700D02*
X5933333Y-21507366D01*
X5933333Y-21507366D02*
X5900000Y-21540700D01*
X5900000Y-21540700D02*
X5866666Y-21557366D01*
X5866666Y-21557366D02*
X5800000Y-21557366D01*
X5800000Y-21557366D02*
X5766666Y-21540700D01*
X5766666Y-21540700D02*
X5733333Y-21507366D01*
X5733333Y-21507366D02*
X5716666Y-21440700D01*
X5716666Y-21440700D02*
X5716666Y-21324033D01*
X5716666Y-21324033D02*
X5733333Y-21257366D01*
X5733333Y-21257366D02*
X5766666Y-21224033D01*
X5766666Y-21224033D02*
X5800000Y-21207366D01*
X6083333Y-21540700D02*
X6133333Y-21557366D01*
X6133333Y-21557366D02*
X6216667Y-21557366D01*
X6216667Y-21557366D02*
X6250000Y-21540700D01*
X6250000Y-21540700D02*
X6266667Y-21524033D01*
X6266667Y-21524033D02*
X6283333Y-21490700D01*
X6283333Y-21490700D02*
X6283333Y-21457366D01*
X6283333Y-21457366D02*
X6266667Y-21424033D01*
X6266667Y-21424033D02*
X6250000Y-21407366D01*
X6250000Y-21407366D02*
X6216667Y-21390700D01*
X6216667Y-21390700D02*
X6150000Y-21374033D01*
X6150000Y-21374033D02*
X6116667Y-21357366D01*
X6116667Y-21357366D02*
X6100000Y-21340700D01*
X6100000Y-21340700D02*
X6083333Y-21307366D01*
X6083333Y-21307366D02*
X6083333Y-21274033D01*
X6083333Y-21274033D02*
X6100000Y-21240700D01*
X6100000Y-21240700D02*
X6116667Y-21224033D01*
X6116667Y-21224033D02*
X6150000Y-21207366D01*
X6150000Y-21207366D02*
X6233333Y-21207366D01*
X6233333Y-21207366D02*
X6283333Y-21224033D01*
X6383333Y-21207366D02*
X6583333Y-21207366D01*
X6483333Y-21557366D02*
X6483333Y-21207366D01*
X6966667Y-21557366D02*
X6966667Y-21207366D01*
X6966667Y-21207366D02*
X7100000Y-21207366D01*
X7100000Y-21207366D02*
X7133334Y-21224033D01*
X7133334Y-21224033D02*
X7150000Y-21240700D01*
X7150000Y-21240700D02*
X7166667Y-21274033D01*
X7166667Y-21274033D02*
X7166667Y-21324033D01*
X7166667Y-21324033D02*
X7150000Y-21357366D01*
X7150000Y-21357366D02*
X7133334Y-21374033D01*
X7133334Y-21374033D02*
X7100000Y-21390700D01*
X7100000Y-21390700D02*
X6966667Y-21390700D01*
X7500000Y-21557366D02*
X7300000Y-21557366D01*
X7400000Y-21557366D02*
X7400000Y-21207366D01*
X7400000Y-21207366D02*
X7366667Y-21257366D01*
X7366667Y-21257366D02*
X7333334Y-21290700D01*
X7333334Y-21290700D02*
X7300000Y-21307366D01*
X7983333Y-30657366D02*
X7816666Y-30657366D01*
X7816666Y-30657366D02*
X7816666Y-30307366D01*
X8099999Y-30657366D02*
X8099999Y-30307366D01*
X8266666Y-30657366D02*
X8266666Y-30307366D01*
X8266666Y-30307366D02*
X8349999Y-30307366D01*
X8349999Y-30307366D02*
X8399999Y-30324033D01*
X8399999Y-30324033D02*
X8433333Y-30357366D01*
X8433333Y-30357366D02*
X8449999Y-30390700D01*
X8449999Y-30390700D02*
X8466666Y-30457366D01*
X8466666Y-30457366D02*
X8466666Y-30507366D01*
X8466666Y-30507366D02*
X8449999Y-30574033D01*
X8449999Y-30574033D02*
X8433333Y-30607366D01*
X8433333Y-30607366D02*
X8399999Y-30640700D01*
X8399999Y-30640700D02*
X8349999Y-30657366D01*
X8349999Y-30657366D02*
X8266666Y-30657366D01*
X8883333Y-30657366D02*
X8883333Y-30307366D01*
X8883333Y-30307366D02*
X9016666Y-30307366D01*
X9016666Y-30307366D02*
X9050000Y-30324033D01*
X9050000Y-30324033D02*
X9066666Y-30340700D01*
X9066666Y-30340700D02*
X9083333Y-30374033D01*
X9083333Y-30374033D02*
X9083333Y-30424033D01*
X9083333Y-30424033D02*
X9066666Y-30457366D01*
X9066666Y-30457366D02*
X9050000Y-30474033D01*
X9050000Y-30474033D02*
X9016666Y-30490700D01*
X9016666Y-30490700D02*
X8883333Y-30490700D01*
X9300000Y-30307366D02*
X9366666Y-30307366D01*
X9366666Y-30307366D02*
X9400000Y-30324033D01*
X9400000Y-30324033D02*
X9433333Y-30357366D01*
X9433333Y-30357366D02*
X9450000Y-30424033D01*
X9450000Y-30424033D02*
X9450000Y-30540700D01*
X9450000Y-30540700D02*
X9433333Y-30607366D01*
X9433333Y-30607366D02*
X9400000Y-30640700D01*
X9400000Y-30640700D02*
X9366666Y-30657366D01*
X9366666Y-30657366D02*
X9300000Y-30657366D01*
X9300000Y-30657366D02*
X9266666Y-30640700D01*
X9266666Y-30640700D02*
X9233333Y-30607366D01*
X9233333Y-30607366D02*
X9216666Y-30540700D01*
X9216666Y-30540700D02*
X9216666Y-30424033D01*
X9216666Y-30424033D02*
X9233333Y-30357366D01*
X9233333Y-30357366D02*
X9266666Y-30324033D01*
X9266666Y-30324033D02*
X9300000Y-30307366D01*
X9583333Y-30640700D02*
X9633333Y-30657366D01*
X9633333Y-30657366D02*
X9716667Y-30657366D01*
X9716667Y-30657366D02*
X9750000Y-30640700D01*
X9750000Y-30640700D02*
X9766667Y-30624033D01*
X9766667Y-30624033D02*
X9783333Y-30590700D01*
X9783333Y-30590700D02*
X9783333Y-30557366D01*
X9783333Y-30557366D02*
X9766667Y-30524033D01*
X9766667Y-30524033D02*
X9750000Y-30507366D01*
X9750000Y-30507366D02*
X9716667Y-30490700D01*
X9716667Y-30490700D02*
X9650000Y-30474033D01*
X9650000Y-30474033D02*
X9616667Y-30457366D01*
X9616667Y-30457366D02*
X9600000Y-30440700D01*
X9600000Y-30440700D02*
X9583333Y-30407366D01*
X9583333Y-30407366D02*
X9583333Y-30374033D01*
X9583333Y-30374033D02*
X9600000Y-30340700D01*
X9600000Y-30340700D02*
X9616667Y-30324033D01*
X9616667Y-30324033D02*
X9650000Y-30307366D01*
X9650000Y-30307366D02*
X9733333Y-30307366D01*
X9733333Y-30307366D02*
X9783333Y-30324033D01*
X9883333Y-30307366D02*
X10083333Y-30307366D01*
X9983333Y-30657366D02*
X9983333Y-30307366D01*
X10466667Y-30657366D02*
X10466667Y-30307366D01*
X10466667Y-30307366D02*
X10600000Y-30307366D01*
X10600000Y-30307366D02*
X10633334Y-30324033D01*
X10633334Y-30324033D02*
X10650000Y-30340700D01*
X10650000Y-30340700D02*
X10666667Y-30374033D01*
X10666667Y-30374033D02*
X10666667Y-30424033D01*
X10666667Y-30424033D02*
X10650000Y-30457366D01*
X10650000Y-30457366D02*
X10633334Y-30474033D01*
X10633334Y-30474033D02*
X10600000Y-30490700D01*
X10600000Y-30490700D02*
X10466667Y-30490700D01*
X10800000Y-30340700D02*
X10816667Y-30324033D01*
X10816667Y-30324033D02*
X10850000Y-30307366D01*
X10850000Y-30307366D02*
X10933334Y-30307366D01*
X10933334Y-30307366D02*
X10966667Y-30324033D01*
X10966667Y-30324033D02*
X10983334Y-30340700D01*
X10983334Y-30340700D02*
X11000000Y-30374033D01*
X11000000Y-30374033D02*
X11000000Y-30407366D01*
X11000000Y-30407366D02*
X10983334Y-30457366D01*
X10983334Y-30457366D02*
X10783334Y-30657366D01*
X10783334Y-30657366D02*
X11000000Y-30657366D01*
D13*
X3000000Y-12160800D02*
X3057143Y-12179847D01*
X3057143Y-12179847D02*
X3152381Y-12179847D01*
X3152381Y-12179847D02*
X3190476Y-12160800D01*
X3190476Y-12160800D02*
X3209524Y-12141752D01*
X3209524Y-12141752D02*
X3228571Y-12103657D01*
X3228571Y-12103657D02*
X3228571Y-12065561D01*
X3228571Y-12065561D02*
X3209524Y-12027466D01*
X3209524Y-12027466D02*
X3190476Y-12008419D01*
X3190476Y-12008419D02*
X3152381Y-11989371D01*
X3152381Y-11989371D02*
X3076190Y-11970323D01*
X3076190Y-11970323D02*
X3038095Y-11951276D01*
X3038095Y-11951276D02*
X3019048Y-11932228D01*
X3019048Y-11932228D02*
X3000000Y-11894133D01*
X3000000Y-11894133D02*
X3000000Y-11856038D01*
X3000000Y-11856038D02*
X3019048Y-11817942D01*
X3019048Y-11817942D02*
X3038095Y-11798895D01*
X3038095Y-11798895D02*
X3076190Y-11779847D01*
X3076190Y-11779847D02*
X3171429Y-11779847D01*
X3171429Y-11779847D02*
X3228571Y-11798895D01*
X3400000Y-12179847D02*
X3400000Y-11779847D01*
X3799999Y-11798895D02*
X3761904Y-11779847D01*
X3761904Y-11779847D02*
X3704761Y-11779847D01*
X3704761Y-11779847D02*
X3647618Y-11798895D01*
X3647618Y-11798895D02*
X3609523Y-11836990D01*
X3609523Y-11836990D02*
X3590476Y-11875085D01*
X3590476Y-11875085D02*
X3571428Y-11951276D01*
X3571428Y-11951276D02*
X3571428Y-12008419D01*
X3571428Y-12008419D02*
X3590476Y-12084609D01*
X3590476Y-12084609D02*
X3609523Y-12122704D01*
X3609523Y-12122704D02*
X3647618Y-12160800D01*
X3647618Y-12160800D02*
X3704761Y-12179847D01*
X3704761Y-12179847D02*
X3742857Y-12179847D01*
X3742857Y-12179847D02*
X3799999Y-12160800D01*
X3799999Y-12160800D02*
X3819047Y-12141752D01*
X3819047Y-12141752D02*
X3819047Y-12008419D01*
X3819047Y-12008419D02*
X3742857Y-12008419D01*
X4428571Y-11970323D02*
X4295238Y-11970323D01*
X4295238Y-12179847D02*
X4295238Y-11779847D01*
X4295238Y-11779847D02*
X4485714Y-11779847D01*
X4714285Y-11779847D02*
X4790476Y-11779847D01*
X4790476Y-11779847D02*
X4828571Y-11798895D01*
X4828571Y-11798895D02*
X4866666Y-11836990D01*
X4866666Y-11836990D02*
X4885714Y-11913180D01*
X4885714Y-11913180D02*
X4885714Y-12046514D01*
X4885714Y-12046514D02*
X4866666Y-12122704D01*
X4866666Y-12122704D02*
X4828571Y-12160800D01*
X4828571Y-12160800D02*
X4790476Y-12179847D01*
X4790476Y-12179847D02*
X4714285Y-12179847D01*
X4714285Y-12179847D02*
X4676190Y-12160800D01*
X4676190Y-12160800D02*
X4638095Y-12122704D01*
X4638095Y-12122704D02*
X4619047Y-12046514D01*
X4619047Y-12046514D02*
X4619047Y-11913180D01*
X4619047Y-11913180D02*
X4638095Y-11836990D01*
X4638095Y-11836990D02*
X4676190Y-11798895D01*
X4676190Y-11798895D02*
X4714285Y-11779847D01*
X5247619Y-12179847D02*
X5057143Y-12179847D01*
X5057143Y-12179847D02*
X5057143Y-11779847D01*
X5380953Y-12179847D02*
X5380953Y-11779847D01*
X5380953Y-11779847D02*
X5476191Y-11779847D01*
X5476191Y-11779847D02*
X5533334Y-11798895D01*
X5533334Y-11798895D02*
X5571429Y-11836990D01*
X5571429Y-11836990D02*
X5590476Y-11875085D01*
X5590476Y-11875085D02*
X5609524Y-11951276D01*
X5609524Y-11951276D02*
X5609524Y-12008419D01*
X5609524Y-12008419D02*
X5590476Y-12084609D01*
X5590476Y-12084609D02*
X5571429Y-12122704D01*
X5571429Y-12122704D02*
X5533334Y-12160800D01*
X5533334Y-12160800D02*
X5476191Y-12179847D01*
X5476191Y-12179847D02*
X5380953Y-12179847D01*
X5761905Y-12160800D02*
X5819048Y-12179847D01*
X5819048Y-12179847D02*
X5914286Y-12179847D01*
X5914286Y-12179847D02*
X5952381Y-12160800D01*
X5952381Y-12160800D02*
X5971429Y-12141752D01*
X5971429Y-12141752D02*
X5990476Y-12103657D01*
X5990476Y-12103657D02*
X5990476Y-12065561D01*
X5990476Y-12065561D02*
X5971429Y-12027466D01*
X5971429Y-12027466D02*
X5952381Y-12008419D01*
X5952381Y-12008419D02*
X5914286Y-11989371D01*
X5914286Y-11989371D02*
X5838095Y-11970323D01*
X5838095Y-11970323D02*
X5800000Y-11951276D01*
X5800000Y-11951276D02*
X5780953Y-11932228D01*
X5780953Y-11932228D02*
X5761905Y-11894133D01*
X5761905Y-11894133D02*
X5761905Y-11856038D01*
X5761905Y-11856038D02*
X5780953Y-11817942D01*
X5780953Y-11817942D02*
X5800000Y-11798895D01*
X5800000Y-11798895D02*
X5838095Y-11779847D01*
X5838095Y-11779847D02*
X5933334Y-11779847D01*
X5933334Y-11779847D02*
X5990476Y-11798895D01*
X6676190Y-12179847D02*
X6447619Y-12179847D01*
X6561905Y-12179847D02*
X6561905Y-11779847D01*
X6561905Y-11779847D02*
X6523809Y-11836990D01*
X6523809Y-11836990D02*
X6485714Y-11875085D01*
X6485714Y-11875085D02*
X6447619Y-11894133D01*
X6904761Y-11951276D02*
X6866666Y-11932228D01*
X6866666Y-11932228D02*
X6847619Y-11913180D01*
X6847619Y-11913180D02*
X6828571Y-11875085D01*
X6828571Y-11875085D02*
X6828571Y-11856038D01*
X6828571Y-11856038D02*
X6847619Y-11817942D01*
X6847619Y-11817942D02*
X6866666Y-11798895D01*
X6866666Y-11798895D02*
X6904761Y-11779847D01*
X6904761Y-11779847D02*
X6980952Y-11779847D01*
X6980952Y-11779847D02*
X7019047Y-11798895D01*
X7019047Y-11798895D02*
X7038095Y-11817942D01*
X7038095Y-11817942D02*
X7057142Y-11856038D01*
X7057142Y-11856038D02*
X7057142Y-11875085D01*
X7057142Y-11875085D02*
X7038095Y-11913180D01*
X7038095Y-11913180D02*
X7019047Y-11932228D01*
X7019047Y-11932228D02*
X6980952Y-11951276D01*
X6980952Y-11951276D02*
X6904761Y-11951276D01*
X6904761Y-11951276D02*
X6866666Y-11970323D01*
X6866666Y-11970323D02*
X6847619Y-11989371D01*
X6847619Y-11989371D02*
X6828571Y-12027466D01*
X6828571Y-12027466D02*
X6828571Y-12103657D01*
X6828571Y-12103657D02*
X6847619Y-12141752D01*
X6847619Y-12141752D02*
X6866666Y-12160800D01*
X6866666Y-12160800D02*
X6904761Y-12179847D01*
X6904761Y-12179847D02*
X6980952Y-12179847D01*
X6980952Y-12179847D02*
X7019047Y-12160800D01*
X7019047Y-12160800D02*
X7038095Y-12141752D01*
X7038095Y-12141752D02*
X7057142Y-12103657D01*
X7057142Y-12103657D02*
X7057142Y-12027466D01*
X7057142Y-12027466D02*
X7038095Y-11989371D01*
X7038095Y-11989371D02*
X7019047Y-11970323D01*
X7019047Y-11970323D02*
X6980952Y-11951276D01*
X7304761Y-11779847D02*
X7342856Y-11779847D01*
X7342856Y-11779847D02*
X7380952Y-11798895D01*
X7380952Y-11798895D02*
X7399999Y-11817942D01*
X7399999Y-11817942D02*
X7419047Y-11856038D01*
X7419047Y-11856038D02*
X7438094Y-11932228D01*
X7438094Y-11932228D02*
X7438094Y-12027466D01*
X7438094Y-12027466D02*
X7419047Y-12103657D01*
X7419047Y-12103657D02*
X7399999Y-12141752D01*
X7399999Y-12141752D02*
X7380952Y-12160800D01*
X7380952Y-12160800D02*
X7342856Y-12179847D01*
X7342856Y-12179847D02*
X7304761Y-12179847D01*
X7304761Y-12179847D02*
X7266666Y-12160800D01*
X7266666Y-12160800D02*
X7247618Y-12141752D01*
X7247618Y-12141752D02*
X7228571Y-12103657D01*
X7228571Y-12103657D02*
X7209523Y-12027466D01*
X7209523Y-12027466D02*
X7209523Y-11932228D01*
X7209523Y-11932228D02*
X7228571Y-11856038D01*
X7228571Y-11856038D02*
X7247618Y-11817942D01*
X7247618Y-11817942D02*
X7266666Y-11798895D01*
X7266666Y-11798895D02*
X7304761Y-11779847D01*
X7914285Y-12179847D02*
X7914285Y-11779847D01*
X7914285Y-11779847D02*
X8009523Y-11779847D01*
X8009523Y-11779847D02*
X8066666Y-11798895D01*
X8066666Y-11798895D02*
X8104761Y-11836990D01*
X8104761Y-11836990D02*
X8123808Y-11875085D01*
X8123808Y-11875085D02*
X8142856Y-11951276D01*
X8142856Y-11951276D02*
X8142856Y-12008419D01*
X8142856Y-12008419D02*
X8123808Y-12084609D01*
X8123808Y-12084609D02*
X8104761Y-12122704D01*
X8104761Y-12122704D02*
X8066666Y-12160800D01*
X8066666Y-12160800D02*
X8009523Y-12179847D01*
X8009523Y-12179847D02*
X7914285Y-12179847D01*
X8314285Y-11970323D02*
X8447618Y-11970323D01*
X8504761Y-12179847D02*
X8314285Y-12179847D01*
X8314285Y-12179847D02*
X8314285Y-11779847D01*
X8314285Y-11779847D02*
X8504761Y-11779847D01*
X8885713Y-11798895D02*
X8847618Y-11779847D01*
X8847618Y-11779847D02*
X8790475Y-11779847D01*
X8790475Y-11779847D02*
X8733332Y-11798895D01*
X8733332Y-11798895D02*
X8695237Y-11836990D01*
X8695237Y-11836990D02*
X8676190Y-11875085D01*
X8676190Y-11875085D02*
X8657142Y-11951276D01*
X8657142Y-11951276D02*
X8657142Y-12008419D01*
X8657142Y-12008419D02*
X8676190Y-12084609D01*
X8676190Y-12084609D02*
X8695237Y-12122704D01*
X8695237Y-12122704D02*
X8733332Y-12160800D01*
X8733332Y-12160800D02*
X8790475Y-12179847D01*
X8790475Y-12179847D02*
X8828571Y-12179847D01*
X8828571Y-12179847D02*
X8885713Y-12160800D01*
X8885713Y-12160800D02*
X8904761Y-12141752D01*
X8904761Y-12141752D02*
X8904761Y-12008419D01*
X8904761Y-12008419D02*
X8828571Y-12008419D01*
X9609523Y-12179847D02*
X9476190Y-11989371D01*
X9380952Y-12179847D02*
X9380952Y-11779847D01*
X9380952Y-11779847D02*
X9533333Y-11779847D01*
X9533333Y-11779847D02*
X9571428Y-11798895D01*
X9571428Y-11798895D02*
X9590475Y-11817942D01*
X9590475Y-11817942D02*
X9609523Y-11856038D01*
X9609523Y-11856038D02*
X9609523Y-11913180D01*
X9609523Y-11913180D02*
X9590475Y-11951276D01*
X9590475Y-11951276D02*
X9571428Y-11970323D01*
X9571428Y-11970323D02*
X9533333Y-11989371D01*
X9533333Y-11989371D02*
X9380952Y-11989371D01*
X9990475Y-12179847D02*
X9761904Y-12179847D01*
X9876190Y-12179847D02*
X9876190Y-11779847D01*
X9876190Y-11779847D02*
X9838094Y-11836990D01*
X9838094Y-11836990D02*
X9799999Y-11875085D01*
X9799999Y-11875085D02*
X9761904Y-11894133D01*
X10161904Y-12141752D02*
X10180951Y-12160800D01*
X10180951Y-12160800D02*
X10161904Y-12179847D01*
X10161904Y-12179847D02*
X10142856Y-12160800D01*
X10142856Y-12160800D02*
X10161904Y-12141752D01*
X10161904Y-12141752D02*
X10161904Y-12179847D01*
X10542856Y-11779847D02*
X10352380Y-11779847D01*
X10352380Y-11779847D02*
X10333332Y-11970323D01*
X10333332Y-11970323D02*
X10352380Y-11951276D01*
X10352380Y-11951276D02*
X10390475Y-11932228D01*
X10390475Y-11932228D02*
X10485713Y-11932228D01*
X10485713Y-11932228D02*
X10523808Y-11951276D01*
X10523808Y-11951276D02*
X10542856Y-11970323D01*
X10542856Y-11970323D02*
X10561903Y-12008419D01*
X10561903Y-12008419D02*
X10561903Y-12103657D01*
X10561903Y-12103657D02*
X10542856Y-12141752D01*
X10542856Y-12141752D02*
X10523808Y-12160800D01*
X10523808Y-12160800D02*
X10485713Y-12179847D01*
X10485713Y-12179847D02*
X10390475Y-12179847D01*
X10390475Y-12179847D02*
X10352380Y-12160800D01*
X10352380Y-12160800D02*
X10333332Y-12141752D01*
X11019046Y-12065561D02*
X11209522Y-12065561D01*
X10980951Y-12179847D02*
X11114284Y-11779847D01*
X11114284Y-11779847D02*
X11247617Y-12179847D01*
X11323808Y-11779847D02*
X11552379Y-11779847D01*
X11438093Y-12179847D02*
X11438093Y-11779847D01*
X11971427Y-12160800D02*
X12009522Y-12179847D01*
X12009522Y-12179847D02*
X12085713Y-12179847D01*
X12085713Y-12179847D02*
X12123808Y-12160800D01*
X12123808Y-12160800D02*
X12142856Y-12122704D01*
X12142856Y-12122704D02*
X12142856Y-12103657D01*
X12142856Y-12103657D02*
X12123808Y-12065561D01*
X12123808Y-12065561D02*
X12085713Y-12046514D01*
X12085713Y-12046514D02*
X12028570Y-12046514D01*
X12028570Y-12046514D02*
X11990475Y-12027466D01*
X11990475Y-12027466D02*
X11971427Y-11989371D01*
X11971427Y-11989371D02*
X11971427Y-11970323D01*
X11971427Y-11970323D02*
X11990475Y-11932228D01*
X11990475Y-11932228D02*
X12028570Y-11913180D01*
X12028570Y-11913180D02*
X12085713Y-11913180D01*
X12085713Y-11913180D02*
X12123808Y-11932228D01*
X12314285Y-11970323D02*
X12619047Y-11970323D01*
X12619047Y-12084609D02*
X12314285Y-12084609D01*
X13019046Y-12179847D02*
X12790475Y-12179847D01*
X12904761Y-12179847D02*
X12904761Y-11779847D01*
X12904761Y-11779847D02*
X12866665Y-11836990D01*
X12866665Y-11836990D02*
X12828570Y-11875085D01*
X12828570Y-11875085D02*
X12790475Y-11894133D01*
X13361903Y-11779847D02*
X13285713Y-11779847D01*
X13285713Y-11779847D02*
X13247617Y-11798895D01*
X13247617Y-11798895D02*
X13228570Y-11817942D01*
X13228570Y-11817942D02*
X13190475Y-11875085D01*
X13190475Y-11875085D02*
X13171427Y-11951276D01*
X13171427Y-11951276D02*
X13171427Y-12103657D01*
X13171427Y-12103657D02*
X13190475Y-12141752D01*
X13190475Y-12141752D02*
X13209522Y-12160800D01*
X13209522Y-12160800D02*
X13247617Y-12179847D01*
X13247617Y-12179847D02*
X13323808Y-12179847D01*
X13323808Y-12179847D02*
X13361903Y-12160800D01*
X13361903Y-12160800D02*
X13380951Y-12141752D01*
X13380951Y-12141752D02*
X13399998Y-12103657D01*
X13399998Y-12103657D02*
X13399998Y-12008419D01*
X13399998Y-12008419D02*
X13380951Y-11970323D01*
X13380951Y-11970323D02*
X13361903Y-11951276D01*
X13361903Y-11951276D02*
X13323808Y-11932228D01*
X13323808Y-11932228D02*
X13247617Y-11932228D01*
X13247617Y-11932228D02*
X13209522Y-11951276D01*
X13209522Y-11951276D02*
X13190475Y-11970323D01*
X13190475Y-11970323D02*
X13171427Y-12008419D01*
X10828573Y-17979847D02*
X10904764Y-17979847D01*
X10904764Y-17979847D02*
X10942859Y-17960800D01*
X10942859Y-17960800D02*
X10961907Y-17941752D01*
X10961907Y-17941752D02*
X11000002Y-17884609D01*
X11000002Y-17884609D02*
X11019049Y-17808419D01*
X11019049Y-17808419D02*
X11019049Y-17656038D01*
X11019049Y-17656038D02*
X11000002Y-17617942D01*
X11000002Y-17617942D02*
X10980954Y-17598895D01*
X10980954Y-17598895D02*
X10942859Y-17579847D01*
X10942859Y-17579847D02*
X10866668Y-17579847D01*
X10866668Y-17579847D02*
X10828573Y-17598895D01*
X10828573Y-17598895D02*
X10809526Y-17617942D01*
X10809526Y-17617942D02*
X10790478Y-17656038D01*
X10790478Y-17656038D02*
X10790478Y-17751276D01*
X10790478Y-17751276D02*
X10809526Y-17789371D01*
X10809526Y-17789371D02*
X10828573Y-17808419D01*
X10828573Y-17808419D02*
X10866668Y-17827466D01*
X10866668Y-17827466D02*
X10942859Y-17827466D01*
X10942859Y-17827466D02*
X10980954Y-17808419D01*
X10980954Y-17808419D02*
X11000002Y-17789371D01*
X11000002Y-17789371D02*
X11019049Y-17751276D01*
X11266668Y-17579847D02*
X11304763Y-17579847D01*
X11304763Y-17579847D02*
X11342859Y-17598895D01*
X11342859Y-17598895D02*
X11361906Y-17617942D01*
X11361906Y-17617942D02*
X11380954Y-17656038D01*
X11380954Y-17656038D02*
X11400001Y-17732228D01*
X11400001Y-17732228D02*
X11400001Y-17827466D01*
X11400001Y-17827466D02*
X11380954Y-17903657D01*
X11380954Y-17903657D02*
X11361906Y-17941752D01*
X11361906Y-17941752D02*
X11342859Y-17960800D01*
X11342859Y-17960800D02*
X11304763Y-17979847D01*
X11304763Y-17979847D02*
X11266668Y-17979847D01*
X11266668Y-17979847D02*
X11228573Y-17960800D01*
X11228573Y-17960800D02*
X11209525Y-17941752D01*
X11209525Y-17941752D02*
X11190478Y-17903657D01*
X11190478Y-17903657D02*
X11171430Y-17827466D01*
X11171430Y-17827466D02*
X11171430Y-17732228D01*
X11171430Y-17732228D02*
X11190478Y-17656038D01*
X11190478Y-17656038D02*
X11209525Y-17617942D01*
X11209525Y-17617942D02*
X11228573Y-17598895D01*
X11228573Y-17598895D02*
X11266668Y-17579847D01*
X11876192Y-17979847D02*
X11876192Y-17579847D01*
X11876192Y-17579847D02*
X11971430Y-17579847D01*
X11971430Y-17579847D02*
X12028573Y-17598895D01*
X12028573Y-17598895D02*
X12066668Y-17636990D01*
X12066668Y-17636990D02*
X12085715Y-17675085D01*
X12085715Y-17675085D02*
X12104763Y-17751276D01*
X12104763Y-17751276D02*
X12104763Y-17808419D01*
X12104763Y-17808419D02*
X12085715Y-17884609D01*
X12085715Y-17884609D02*
X12066668Y-17922704D01*
X12066668Y-17922704D02*
X12028573Y-17960800D01*
X12028573Y-17960800D02*
X11971430Y-17979847D01*
X11971430Y-17979847D02*
X11876192Y-17979847D01*
X12276192Y-17770323D02*
X12409525Y-17770323D01*
X12466668Y-17979847D02*
X12276192Y-17979847D01*
X12276192Y-17979847D02*
X12276192Y-17579847D01*
X12276192Y-17579847D02*
X12466668Y-17579847D01*
X12847620Y-17598895D02*
X12809525Y-17579847D01*
X12809525Y-17579847D02*
X12752382Y-17579847D01*
X12752382Y-17579847D02*
X12695239Y-17598895D01*
X12695239Y-17598895D02*
X12657144Y-17636990D01*
X12657144Y-17636990D02*
X12638097Y-17675085D01*
X12638097Y-17675085D02*
X12619049Y-17751276D01*
X12619049Y-17751276D02*
X12619049Y-17808419D01*
X12619049Y-17808419D02*
X12638097Y-17884609D01*
X12638097Y-17884609D02*
X12657144Y-17922704D01*
X12657144Y-17922704D02*
X12695239Y-17960800D01*
X12695239Y-17960800D02*
X12752382Y-17979847D01*
X12752382Y-17979847D02*
X12790478Y-17979847D01*
X12790478Y-17979847D02*
X12847620Y-17960800D01*
X12847620Y-17960800D02*
X12866668Y-17941752D01*
X12866668Y-17941752D02*
X12866668Y-17808419D01*
X12866668Y-17808419D02*
X12790478Y-17808419D01*
X13476192Y-17770323D02*
X13342859Y-17770323D01*
X13342859Y-17979847D02*
X13342859Y-17579847D01*
X13342859Y-17579847D02*
X13533335Y-17579847D01*
X13761906Y-17579847D02*
X13838097Y-17579847D01*
X13838097Y-17579847D02*
X13876192Y-17598895D01*
X13876192Y-17598895D02*
X13914287Y-17636990D01*
X13914287Y-17636990D02*
X13933335Y-17713180D01*
X13933335Y-17713180D02*
X13933335Y-17846514D01*
X13933335Y-17846514D02*
X13914287Y-17922704D01*
X13914287Y-17922704D02*
X13876192Y-17960800D01*
X13876192Y-17960800D02*
X13838097Y-17979847D01*
X13838097Y-17979847D02*
X13761906Y-17979847D01*
X13761906Y-17979847D02*
X13723811Y-17960800D01*
X13723811Y-17960800D02*
X13685716Y-17922704D01*
X13685716Y-17922704D02*
X13666668Y-17846514D01*
X13666668Y-17846514D02*
X13666668Y-17713180D01*
X13666668Y-17713180D02*
X13685716Y-17636990D01*
X13685716Y-17636990D02*
X13723811Y-17598895D01*
X13723811Y-17598895D02*
X13761906Y-17579847D01*
X14295240Y-17979847D02*
X14104764Y-17979847D01*
X14104764Y-17979847D02*
X14104764Y-17579847D01*
X14428574Y-17979847D02*
X14428574Y-17579847D01*
X14428574Y-17579847D02*
X14523812Y-17579847D01*
X14523812Y-17579847D02*
X14580955Y-17598895D01*
X14580955Y-17598895D02*
X14619050Y-17636990D01*
X14619050Y-17636990D02*
X14638097Y-17675085D01*
X14638097Y-17675085D02*
X14657145Y-17751276D01*
X14657145Y-17751276D02*
X14657145Y-17808419D01*
X14657145Y-17808419D02*
X14638097Y-17884609D01*
X14638097Y-17884609D02*
X14619050Y-17922704D01*
X14619050Y-17922704D02*
X14580955Y-17960800D01*
X14580955Y-17960800D02*
X14523812Y-17979847D01*
X14523812Y-17979847D02*
X14428574Y-17979847D01*
X15361907Y-17979847D02*
X15228574Y-17789371D01*
X15133336Y-17979847D02*
X15133336Y-17579847D01*
X15133336Y-17579847D02*
X15285717Y-17579847D01*
X15285717Y-17579847D02*
X15323812Y-17598895D01*
X15323812Y-17598895D02*
X15342859Y-17617942D01*
X15342859Y-17617942D02*
X15361907Y-17656038D01*
X15361907Y-17656038D02*
X15361907Y-17713180D01*
X15361907Y-17713180D02*
X15342859Y-17751276D01*
X15342859Y-17751276D02*
X15323812Y-17770323D01*
X15323812Y-17770323D02*
X15285717Y-17789371D01*
X15285717Y-17789371D02*
X15133336Y-17789371D01*
X15742859Y-17979847D02*
X15514288Y-17979847D01*
X15628574Y-17979847D02*
X15628574Y-17579847D01*
X15628574Y-17579847D02*
X15590478Y-17636990D01*
X15590478Y-17636990D02*
X15552383Y-17675085D01*
X15552383Y-17675085D02*
X15514288Y-17694133D01*
X15914288Y-17941752D02*
X15933335Y-17960800D01*
X15933335Y-17960800D02*
X15914288Y-17979847D01*
X15914288Y-17979847D02*
X15895240Y-17960800D01*
X15895240Y-17960800D02*
X15914288Y-17941752D01*
X15914288Y-17941752D02*
X15914288Y-17979847D01*
X16314287Y-17979847D02*
X16085716Y-17979847D01*
X16200002Y-17979847D02*
X16200002Y-17579847D01*
X16200002Y-17579847D02*
X16161906Y-17636990D01*
X16161906Y-17636990D02*
X16123811Y-17675085D01*
X16123811Y-17675085D02*
X16085716Y-17694133D01*
X16961906Y-17713180D02*
X16961906Y-17979847D01*
X16790478Y-17713180D02*
X16790478Y-17922704D01*
X16790478Y-17922704D02*
X16809525Y-17960800D01*
X16809525Y-17960800D02*
X16847620Y-17979847D01*
X16847620Y-17979847D02*
X16904763Y-17979847D01*
X16904763Y-17979847D02*
X16942859Y-17960800D01*
X16942859Y-17960800D02*
X16961906Y-17941752D01*
X17666668Y-17979847D02*
X17438097Y-17979847D01*
X17552383Y-17979847D02*
X17552383Y-17579847D01*
X17552383Y-17579847D02*
X17514287Y-17636990D01*
X17514287Y-17636990D02*
X17476192Y-17675085D01*
X17476192Y-17675085D02*
X17438097Y-17694133D01*
X18028573Y-17579847D02*
X17838097Y-17579847D01*
X17838097Y-17579847D02*
X17819049Y-17770323D01*
X17819049Y-17770323D02*
X17838097Y-17751276D01*
X17838097Y-17751276D02*
X17876192Y-17732228D01*
X17876192Y-17732228D02*
X17971430Y-17732228D01*
X17971430Y-17732228D02*
X18009525Y-17751276D01*
X18009525Y-17751276D02*
X18028573Y-17770323D01*
X18028573Y-17770323D02*
X18047620Y-17808419D01*
X18047620Y-17808419D02*
X18047620Y-17903657D01*
X18047620Y-17903657D02*
X18028573Y-17941752D01*
X18028573Y-17941752D02*
X18009525Y-17960800D01*
X18009525Y-17960800D02*
X17971430Y-17979847D01*
X17971430Y-17979847D02*
X17876192Y-17979847D01*
X17876192Y-17979847D02*
X17838097Y-17960800D01*
X17838097Y-17960800D02*
X17819049Y-17941752D01*
X18219049Y-17941752D02*
X18238096Y-17960800D01*
X18238096Y-17960800D02*
X18219049Y-17979847D01*
X18219049Y-17979847D02*
X18200001Y-17960800D01*
X18200001Y-17960800D02*
X18219049Y-17941752D01*
X18219049Y-17941752D02*
X18219049Y-17979847D01*
X18485715Y-17579847D02*
X18523810Y-17579847D01*
X18523810Y-17579847D02*
X18561906Y-17598895D01*
X18561906Y-17598895D02*
X18580953Y-17617942D01*
X18580953Y-17617942D02*
X18600001Y-17656038D01*
X18600001Y-17656038D02*
X18619048Y-17732228D01*
X18619048Y-17732228D02*
X18619048Y-17827466D01*
X18619048Y-17827466D02*
X18600001Y-17903657D01*
X18600001Y-17903657D02*
X18580953Y-17941752D01*
X18580953Y-17941752D02*
X18561906Y-17960800D01*
X18561906Y-17960800D02*
X18523810Y-17979847D01*
X18523810Y-17979847D02*
X18485715Y-17979847D01*
X18485715Y-17979847D02*
X18447620Y-17960800D01*
X18447620Y-17960800D02*
X18428572Y-17941752D01*
X18428572Y-17941752D02*
X18409525Y-17903657D01*
X18409525Y-17903657D02*
X18390477Y-17827466D01*
X18390477Y-17827466D02*
X18390477Y-17732228D01*
X18390477Y-17732228D02*
X18409525Y-17656038D01*
X18409525Y-17656038D02*
X18428572Y-17617942D01*
X18428572Y-17617942D02*
X18447620Y-17598895D01*
X18447620Y-17598895D02*
X18485715Y-17579847D01*
X18809524Y-17979847D02*
X18885715Y-17979847D01*
X18885715Y-17979847D02*
X18923810Y-17960800D01*
X18923810Y-17960800D02*
X18942858Y-17941752D01*
X18942858Y-17941752D02*
X18980953Y-17884609D01*
X18980953Y-17884609D02*
X19000000Y-17808419D01*
X19000000Y-17808419D02*
X19000000Y-17656038D01*
X19000000Y-17656038D02*
X18980953Y-17617942D01*
X18980953Y-17617942D02*
X18961905Y-17598895D01*
X18961905Y-17598895D02*
X18923810Y-17579847D01*
X18923810Y-17579847D02*
X18847619Y-17579847D01*
X18847619Y-17579847D02*
X18809524Y-17598895D01*
X18809524Y-17598895D02*
X18790477Y-17617942D01*
X18790477Y-17617942D02*
X18771429Y-17656038D01*
X18771429Y-17656038D02*
X18771429Y-17751276D01*
X18771429Y-17751276D02*
X18790477Y-17789371D01*
X18790477Y-17789371D02*
X18809524Y-17808419D01*
X18809524Y-17808419D02*
X18847619Y-17827466D01*
X18847619Y-17827466D02*
X18923810Y-17827466D01*
X18923810Y-17827466D02*
X18961905Y-17808419D01*
X18961905Y-17808419D02*
X18980953Y-17789371D01*
X18980953Y-17789371D02*
X19000000Y-17751276D01*
X19171429Y-17827466D02*
X19476191Y-17827466D01*
X19876190Y-17979847D02*
X19647619Y-17979847D01*
X19761905Y-17979847D02*
X19761905Y-17579847D01*
X19761905Y-17579847D02*
X19723809Y-17636990D01*
X19723809Y-17636990D02*
X19685714Y-17675085D01*
X19685714Y-17675085D02*
X19647619Y-17694133D01*
X20219047Y-17579847D02*
X20142857Y-17579847D01*
X20142857Y-17579847D02*
X20104761Y-17598895D01*
X20104761Y-17598895D02*
X20085714Y-17617942D01*
X20085714Y-17617942D02*
X20047619Y-17675085D01*
X20047619Y-17675085D02*
X20028571Y-17751276D01*
X20028571Y-17751276D02*
X20028571Y-17903657D01*
X20028571Y-17903657D02*
X20047619Y-17941752D01*
X20047619Y-17941752D02*
X20066666Y-17960800D01*
X20066666Y-17960800D02*
X20104761Y-17979847D01*
X20104761Y-17979847D02*
X20180952Y-17979847D01*
X20180952Y-17979847D02*
X20219047Y-17960800D01*
X20219047Y-17960800D02*
X20238095Y-17941752D01*
X20238095Y-17941752D02*
X20257142Y-17903657D01*
X20257142Y-17903657D02*
X20257142Y-17808419D01*
X20257142Y-17808419D02*
X20238095Y-17770323D01*
X20238095Y-17770323D02*
X20219047Y-17751276D01*
X20219047Y-17751276D02*
X20180952Y-17732228D01*
X20180952Y-17732228D02*
X20104761Y-17732228D01*
X20104761Y-17732228D02*
X20066666Y-17751276D01*
X20066666Y-17751276D02*
X20047619Y-17770323D01*
X20047619Y-17770323D02*
X20028571Y-17808419D01*
X20428571Y-17941752D02*
X20447618Y-17960800D01*
X20447618Y-17960800D02*
X20428571Y-17979847D01*
X20428571Y-17979847D02*
X20409523Y-17960800D01*
X20409523Y-17960800D02*
X20428571Y-17941752D01*
X20428571Y-17941752D02*
X20428571Y-17979847D01*
X20638094Y-17979847D02*
X20714285Y-17979847D01*
X20714285Y-17979847D02*
X20752380Y-17960800D01*
X20752380Y-17960800D02*
X20771428Y-17941752D01*
X20771428Y-17941752D02*
X20809523Y-17884609D01*
X20809523Y-17884609D02*
X20828570Y-17808419D01*
X20828570Y-17808419D02*
X20828570Y-17656038D01*
X20828570Y-17656038D02*
X20809523Y-17617942D01*
X20809523Y-17617942D02*
X20790475Y-17598895D01*
X20790475Y-17598895D02*
X20752380Y-17579847D01*
X20752380Y-17579847D02*
X20676189Y-17579847D01*
X20676189Y-17579847D02*
X20638094Y-17598895D01*
X20638094Y-17598895D02*
X20619047Y-17617942D01*
X20619047Y-17617942D02*
X20599999Y-17656038D01*
X20599999Y-17656038D02*
X20599999Y-17751276D01*
X20599999Y-17751276D02*
X20619047Y-17789371D01*
X20619047Y-17789371D02*
X20638094Y-17808419D01*
X20638094Y-17808419D02*
X20676189Y-17827466D01*
X20676189Y-17827466D02*
X20752380Y-17827466D01*
X20752380Y-17827466D02*
X20790475Y-17808419D01*
X20790475Y-17808419D02*
X20809523Y-17789371D01*
X20809523Y-17789371D02*
X20828570Y-17751276D01*
X21076189Y-17579847D02*
X21114284Y-17579847D01*
X21114284Y-17579847D02*
X21152380Y-17598895D01*
X21152380Y-17598895D02*
X21171427Y-17617942D01*
X21171427Y-17617942D02*
X21190475Y-17656038D01*
X21190475Y-17656038D02*
X21209522Y-17732228D01*
X21209522Y-17732228D02*
X21209522Y-17827466D01*
X21209522Y-17827466D02*
X21190475Y-17903657D01*
X21190475Y-17903657D02*
X21171427Y-17941752D01*
X21171427Y-17941752D02*
X21152380Y-17960800D01*
X21152380Y-17960800D02*
X21114284Y-17979847D01*
X21114284Y-17979847D02*
X21076189Y-17979847D01*
X21076189Y-17979847D02*
X21038094Y-17960800D01*
X21038094Y-17960800D02*
X21019046Y-17941752D01*
X21019046Y-17941752D02*
X20999999Y-17903657D01*
X20999999Y-17903657D02*
X20980951Y-17827466D01*
X20980951Y-17827466D02*
X20980951Y-17732228D01*
X20980951Y-17732228D02*
X20999999Y-17656038D01*
X20999999Y-17656038D02*
X21019046Y-17617942D01*
X21019046Y-17617942D02*
X21038094Y-17598895D01*
X21038094Y-17598895D02*
X21076189Y-17579847D01*
X973809Y-30226109D02*
X807143Y-29988014D01*
X688095Y-30226109D02*
X688095Y-29726109D01*
X688095Y-29726109D02*
X878571Y-29726109D01*
X878571Y-29726109D02*
X926190Y-29749919D01*
X926190Y-29749919D02*
X950000Y-29773728D01*
X950000Y-29773728D02*
X973809Y-29821347D01*
X973809Y-29821347D02*
X973809Y-29892776D01*
X973809Y-29892776D02*
X950000Y-29940395D01*
X950000Y-29940395D02*
X926190Y-29964204D01*
X926190Y-29964204D02*
X878571Y-29988014D01*
X878571Y-29988014D02*
X688095Y-29988014D01*
X1354762Y-29964204D02*
X1188095Y-29964204D01*
X1188095Y-30226109D02*
X1188095Y-29726109D01*
X1188095Y-29726109D02*
X1426190Y-29726109D01*
X1997618Y-30226109D02*
X1997618Y-29726109D01*
X2283332Y-30226109D02*
X2069047Y-29940395D01*
X2283332Y-29726109D02*
X1997618Y-30011823D01*
X2497618Y-29964204D02*
X2664285Y-29964204D01*
X2735713Y-30226109D02*
X2497618Y-30226109D01*
X2497618Y-30226109D02*
X2497618Y-29726109D01*
X2497618Y-29726109D02*
X2735713Y-29726109D01*
X2949999Y-29964204D02*
X3116666Y-29964204D01*
X3188094Y-30226109D02*
X2949999Y-30226109D01*
X2949999Y-30226109D02*
X2949999Y-29726109D01*
X2949999Y-29726109D02*
X3188094Y-29726109D01*
X3402380Y-30226109D02*
X3402380Y-29726109D01*
X3402380Y-29726109D02*
X3592856Y-29726109D01*
X3592856Y-29726109D02*
X3640475Y-29749919D01*
X3640475Y-29749919D02*
X3664285Y-29773728D01*
X3664285Y-29773728D02*
X3688094Y-29821347D01*
X3688094Y-29821347D02*
X3688094Y-29892776D01*
X3688094Y-29892776D02*
X3664285Y-29940395D01*
X3664285Y-29940395D02*
X3640475Y-29964204D01*
X3640475Y-29964204D02*
X3592856Y-29988014D01*
X3592856Y-29988014D02*
X3402380Y-29988014D01*
X3902380Y-30035633D02*
X4283333Y-30035633D01*
X4616666Y-29726109D02*
X4711904Y-29726109D01*
X4711904Y-29726109D02*
X4759523Y-29749919D01*
X4759523Y-29749919D02*
X4807142Y-29797538D01*
X4807142Y-29797538D02*
X4830952Y-29892776D01*
X4830952Y-29892776D02*
X4830952Y-30059442D01*
X4830952Y-30059442D02*
X4807142Y-30154680D01*
X4807142Y-30154680D02*
X4759523Y-30202300D01*
X4759523Y-30202300D02*
X4711904Y-30226109D01*
X4711904Y-30226109D02*
X4616666Y-30226109D01*
X4616666Y-30226109D02*
X4569047Y-30202300D01*
X4569047Y-30202300D02*
X4521428Y-30154680D01*
X4521428Y-30154680D02*
X4497619Y-30059442D01*
X4497619Y-30059442D02*
X4497619Y-29892776D01*
X4497619Y-29892776D02*
X4521428Y-29797538D01*
X4521428Y-29797538D02*
X4569047Y-29749919D01*
X4569047Y-29749919D02*
X4616666Y-29726109D01*
X5045238Y-29726109D02*
X5045238Y-30130871D01*
X5045238Y-30130871D02*
X5069048Y-30178490D01*
X5069048Y-30178490D02*
X5092857Y-30202300D01*
X5092857Y-30202300D02*
X5140476Y-30226109D01*
X5140476Y-30226109D02*
X5235714Y-30226109D01*
X5235714Y-30226109D02*
X5283333Y-30202300D01*
X5283333Y-30202300D02*
X5307143Y-30178490D01*
X5307143Y-30178490D02*
X5330952Y-30130871D01*
X5330952Y-30130871D02*
X5330952Y-29726109D01*
X5497620Y-29726109D02*
X5783334Y-29726109D01*
X5640477Y-30226109D02*
X5640477Y-29726109D01*
X23142859Y-27026109D02*
X23142859Y-27383252D01*
X23142859Y-27383252D02*
X23119050Y-27454680D01*
X23119050Y-27454680D02*
X23071431Y-27502300D01*
X23071431Y-27502300D02*
X23000002Y-27526109D01*
X23000002Y-27526109D02*
X22952383Y-27526109D01*
X23333335Y-27026109D02*
X23642859Y-27026109D01*
X23642859Y-27026109D02*
X23476192Y-27216585D01*
X23476192Y-27216585D02*
X23547621Y-27216585D01*
X23547621Y-27216585D02*
X23595240Y-27240395D01*
X23595240Y-27240395D02*
X23619049Y-27264204D01*
X23619049Y-27264204D02*
X23642859Y-27311823D01*
X23642859Y-27311823D02*
X23642859Y-27430871D01*
X23642859Y-27430871D02*
X23619049Y-27478490D01*
X23619049Y-27478490D02*
X23595240Y-27502300D01*
X23595240Y-27502300D02*
X23547621Y-27526109D01*
X23547621Y-27526109D02*
X23404764Y-27526109D01*
X23404764Y-27526109D02*
X23357145Y-27502300D01*
X23357145Y-27502300D02*
X23333335Y-27478490D01*
X24404763Y-27264204D02*
X24476191Y-27288014D01*
X24476191Y-27288014D02*
X24500001Y-27311823D01*
X24500001Y-27311823D02*
X24523810Y-27359442D01*
X24523810Y-27359442D02*
X24523810Y-27430871D01*
X24523810Y-27430871D02*
X24500001Y-27478490D01*
X24500001Y-27478490D02*
X24476191Y-27502300D01*
X24476191Y-27502300D02*
X24428572Y-27526109D01*
X24428572Y-27526109D02*
X24238096Y-27526109D01*
X24238096Y-27526109D02*
X24238096Y-27026109D01*
X24238096Y-27026109D02*
X24404763Y-27026109D01*
X24404763Y-27026109D02*
X24452382Y-27049919D01*
X24452382Y-27049919D02*
X24476191Y-27073728D01*
X24476191Y-27073728D02*
X24500001Y-27121347D01*
X24500001Y-27121347D02*
X24500001Y-27168966D01*
X24500001Y-27168966D02*
X24476191Y-27216585D01*
X24476191Y-27216585D02*
X24452382Y-27240395D01*
X24452382Y-27240395D02*
X24404763Y-27264204D01*
X24404763Y-27264204D02*
X24238096Y-27264204D01*
X25023810Y-27526109D02*
X24857144Y-27288014D01*
X24738096Y-27526109D02*
X24738096Y-27026109D01*
X24738096Y-27026109D02*
X24928572Y-27026109D01*
X24928572Y-27026109D02*
X24976191Y-27049919D01*
X24976191Y-27049919D02*
X25000001Y-27073728D01*
X25000001Y-27073728D02*
X25023810Y-27121347D01*
X25023810Y-27121347D02*
X25023810Y-27192776D01*
X25023810Y-27192776D02*
X25000001Y-27240395D01*
X25000001Y-27240395D02*
X24976191Y-27264204D01*
X24976191Y-27264204D02*
X24928572Y-27288014D01*
X24928572Y-27288014D02*
X24738096Y-27288014D01*
X25238096Y-27264204D02*
X25404763Y-27264204D01*
X25476191Y-27526109D02*
X25238096Y-27526109D01*
X25238096Y-27526109D02*
X25238096Y-27026109D01*
X25238096Y-27026109D02*
X25476191Y-27026109D01*
X25666668Y-27383252D02*
X25904763Y-27383252D01*
X25619049Y-27526109D02*
X25785715Y-27026109D01*
X25785715Y-27026109D02*
X25952382Y-27526109D01*
X26119048Y-27526109D02*
X26119048Y-27026109D01*
X26404762Y-27526109D02*
X26190477Y-27240395D01*
X26404762Y-27026109D02*
X26119048Y-27311823D01*
X26619048Y-27335633D02*
X27000001Y-27335633D01*
X27333334Y-27026109D02*
X27428572Y-27026109D01*
X27428572Y-27026109D02*
X27476191Y-27049919D01*
X27476191Y-27049919D02*
X27523810Y-27097538D01*
X27523810Y-27097538D02*
X27547620Y-27192776D01*
X27547620Y-27192776D02*
X27547620Y-27359442D01*
X27547620Y-27359442D02*
X27523810Y-27454680D01*
X27523810Y-27454680D02*
X27476191Y-27502300D01*
X27476191Y-27502300D02*
X27428572Y-27526109D01*
X27428572Y-27526109D02*
X27333334Y-27526109D01*
X27333334Y-27526109D02*
X27285715Y-27502300D01*
X27285715Y-27502300D02*
X27238096Y-27454680D01*
X27238096Y-27454680D02*
X27214287Y-27359442D01*
X27214287Y-27359442D02*
X27214287Y-27192776D01*
X27214287Y-27192776D02*
X27238096Y-27097538D01*
X27238096Y-27097538D02*
X27285715Y-27049919D01*
X27285715Y-27049919D02*
X27333334Y-27026109D01*
X27928573Y-27264204D02*
X27761906Y-27264204D01*
X27761906Y-27526109D02*
X27761906Y-27026109D01*
X27761906Y-27026109D02*
X28000001Y-27026109D01*
X28357144Y-27264204D02*
X28190477Y-27264204D01*
X28190477Y-27526109D02*
X28190477Y-27026109D01*
X28190477Y-27026109D02*
X28428572Y-27026109D01*
X28619048Y-27478490D02*
X28642858Y-27502300D01*
X28642858Y-27502300D02*
X28619048Y-27526109D01*
X28619048Y-27526109D02*
X28595239Y-27502300D01*
X28595239Y-27502300D02*
X28619048Y-27478490D01*
X28619048Y-27478490D02*
X28619048Y-27526109D01*
X28619048Y-27216585D02*
X28642858Y-27240395D01*
X28642858Y-27240395D02*
X28619048Y-27264204D01*
X28619048Y-27264204D02*
X28595239Y-27240395D01*
X28595239Y-27240395D02*
X28619048Y-27216585D01*
X28619048Y-27216585D02*
X28619048Y-27264204D01*
X29523809Y-27478490D02*
X29500000Y-27502300D01*
X29500000Y-27502300D02*
X29428571Y-27526109D01*
X29428571Y-27526109D02*
X29380952Y-27526109D01*
X29380952Y-27526109D02*
X29309524Y-27502300D01*
X29309524Y-27502300D02*
X29261905Y-27454680D01*
X29261905Y-27454680D02*
X29238095Y-27407061D01*
X29238095Y-27407061D02*
X29214286Y-27311823D01*
X29214286Y-27311823D02*
X29214286Y-27240395D01*
X29214286Y-27240395D02*
X29238095Y-27145157D01*
X29238095Y-27145157D02*
X29261905Y-27097538D01*
X29261905Y-27097538D02*
X29309524Y-27049919D01*
X29309524Y-27049919D02*
X29380952Y-27026109D01*
X29380952Y-27026109D02*
X29428571Y-27026109D01*
X29428571Y-27026109D02*
X29500000Y-27049919D01*
X29500000Y-27049919D02*
X29523809Y-27073728D01*
X29738095Y-27026109D02*
X29738095Y-27430871D01*
X29738095Y-27430871D02*
X29761905Y-27478490D01*
X29761905Y-27478490D02*
X29785714Y-27502300D01*
X29785714Y-27502300D02*
X29833333Y-27526109D01*
X29833333Y-27526109D02*
X29928571Y-27526109D01*
X29928571Y-27526109D02*
X29976190Y-27502300D01*
X29976190Y-27502300D02*
X30000000Y-27478490D01*
X30000000Y-27478490D02*
X30023809Y-27430871D01*
X30023809Y-27430871D02*
X30023809Y-27026109D01*
X30190477Y-27026109D02*
X30476191Y-27026109D01*
X30333334Y-27526109D02*
X30333334Y-27026109D01*
X31238095Y-27192776D02*
X31238095Y-27526109D01*
X31023809Y-27192776D02*
X31023809Y-27454680D01*
X31023809Y-27454680D02*
X31047619Y-27502300D01*
X31047619Y-27502300D02*
X31095238Y-27526109D01*
X31095238Y-27526109D02*
X31166666Y-27526109D01*
X31166666Y-27526109D02*
X31214285Y-27502300D01*
X31214285Y-27502300D02*
X31238095Y-27478490D01*
X31476190Y-27264204D02*
X31857143Y-27264204D01*
X31857143Y-27407061D02*
X31476190Y-27407061D01*
X32357143Y-27526109D02*
X32071429Y-27526109D01*
X32214286Y-27526109D02*
X32214286Y-27026109D01*
X32214286Y-27026109D02*
X32166667Y-27097538D01*
X32166667Y-27097538D02*
X32119048Y-27145157D01*
X32119048Y-27145157D02*
X32071429Y-27168966D01*
X32785714Y-27026109D02*
X32690476Y-27026109D01*
X32690476Y-27026109D02*
X32642857Y-27049919D01*
X32642857Y-27049919D02*
X32619047Y-27073728D01*
X32619047Y-27073728D02*
X32571428Y-27145157D01*
X32571428Y-27145157D02*
X32547619Y-27240395D01*
X32547619Y-27240395D02*
X32547619Y-27430871D01*
X32547619Y-27430871D02*
X32571428Y-27478490D01*
X32571428Y-27478490D02*
X32595238Y-27502300D01*
X32595238Y-27502300D02*
X32642857Y-27526109D01*
X32642857Y-27526109D02*
X32738095Y-27526109D01*
X32738095Y-27526109D02*
X32785714Y-27502300D01*
X32785714Y-27502300D02*
X32809523Y-27478490D01*
X32809523Y-27478490D02*
X32833333Y-27430871D01*
X32833333Y-27430871D02*
X32833333Y-27311823D01*
X32833333Y-27311823D02*
X32809523Y-27264204D01*
X32809523Y-27264204D02*
X32785714Y-27240395D01*
X32785714Y-27240395D02*
X32738095Y-27216585D01*
X32738095Y-27216585D02*
X32642857Y-27216585D01*
X32642857Y-27216585D02*
X32595238Y-27240395D01*
X32595238Y-27240395D02*
X32571428Y-27264204D01*
X32571428Y-27264204D02*
X32547619Y-27311823D01*
X33047618Y-27478490D02*
X33071428Y-27502300D01*
X33071428Y-27502300D02*
X33047618Y-27526109D01*
X33047618Y-27526109D02*
X33023809Y-27502300D01*
X33023809Y-27502300D02*
X33047618Y-27478490D01*
X33047618Y-27478490D02*
X33047618Y-27526109D01*
X33261904Y-27073728D02*
X33285713Y-27049919D01*
X33285713Y-27049919D02*
X33333332Y-27026109D01*
X33333332Y-27026109D02*
X33452380Y-27026109D01*
X33452380Y-27026109D02*
X33499999Y-27049919D01*
X33499999Y-27049919D02*
X33523808Y-27073728D01*
X33523808Y-27073728D02*
X33547618Y-27121347D01*
X33547618Y-27121347D02*
X33547618Y-27168966D01*
X33547618Y-27168966D02*
X33523808Y-27240395D01*
X33523808Y-27240395D02*
X33238094Y-27526109D01*
X33238094Y-27526109D02*
X33547618Y-27526109D01*
X33857141Y-27026109D02*
X33904760Y-27026109D01*
X33904760Y-27026109D02*
X33952379Y-27049919D01*
X33952379Y-27049919D02*
X33976189Y-27073728D01*
X33976189Y-27073728D02*
X33999998Y-27121347D01*
X33999998Y-27121347D02*
X34023808Y-27216585D01*
X34023808Y-27216585D02*
X34023808Y-27335633D01*
X34023808Y-27335633D02*
X33999998Y-27430871D01*
X33999998Y-27430871D02*
X33976189Y-27478490D01*
X33976189Y-27478490D02*
X33952379Y-27502300D01*
X33952379Y-27502300D02*
X33904760Y-27526109D01*
X33904760Y-27526109D02*
X33857141Y-27526109D01*
X33857141Y-27526109D02*
X33809522Y-27502300D01*
X33809522Y-27502300D02*
X33785713Y-27478490D01*
X33785713Y-27478490D02*
X33761903Y-27430871D01*
X33761903Y-27430871D02*
X33738094Y-27335633D01*
X33738094Y-27335633D02*
X33738094Y-27216585D01*
X33738094Y-27216585D02*
X33761903Y-27121347D01*
X33761903Y-27121347D02*
X33785713Y-27073728D01*
X33785713Y-27073728D02*
X33809522Y-27049919D01*
X33809522Y-27049919D02*
X33857141Y-27026109D01*
M02*
