%TF.GenerationSoftware,KiCad,Pcbnew,10.0.6*%
%TF.CreationDate,2026-09-23T10:07:27-04:00*%
%TF.ProjectId,elicio-v2,656c6963-696f-42d7-9632-2e6b69636164,rev?*%
%TF.SameCoordinates,Original*%
%TF.FileFunction,Paste,Top*%
%TF.FilePolarity,Positive*%
%FSLAX46Y46*%
G04 Gerber Fmt 4.6, Leading zero omitted, Abs format (unit mm)*
G04 Created by KiCad (PCBNEW 10.0.6) date 2026-09-23 10:07:27*
%MOMM*%
%LPD*%
G01*
G04 APERTURE LIST*
G04 Aperture macros list*
%AMRoundRect*
0 Rectangle with rounded corners*
0 $1 Rounding radius*
0 $2 $3 $4 $5 $6 $7 $8 $9 X,Y pos of 4 corners*
0 Add a 4 corners polygon primitive as box body*
4,1,4,$2,$3,$4,$5,$6,$7,$8,$9,$2,$3,0*
0 Add four circle primitives for the rounded corners*
1,1,$1+$1,$2,$3*
1,1,$1+$1,$4,$5*
1,1,$1+$1,$6,$7*
1,1,$1+$1,$8,$9*
0 Add four rect primitives between the rounded corners*
20,1,$1+$1,$2,$3,$4,$5,0*
20,1,$1+$1,$4,$5,$6,$7,0*
20,1,$1+$1,$6,$7,$8,$9,0*
20,1,$1+$1,$8,$9,$2,$3,0*%
G04 Aperture macros list end*
%ADD10RoundRect,0.140000X0.170000X-0.140000X0.170000X0.140000X-0.170000X0.140000X-0.170000X-0.140000X0*%
%ADD11RoundRect,0.218750X-0.218750X-0.256250X0.218750X-0.256250X0.218750X0.256250X-0.218750X0.256250X0*%
%ADD12RoundRect,0.150000X-0.150000X-0.625000X0.150000X-0.625000X0.150000X0.625000X-0.150000X0.625000X0*%
%ADD13RoundRect,0.250000X-0.350000X-0.650000X0.350000X-0.650000X0.350000X0.650000X-0.350000X0.650000X0*%
%ADD14RoundRect,0.150000X-0.512500X-0.150000X0.512500X-0.150000X0.512500X0.150000X-0.512500X0.150000X0*%
%ADD15RoundRect,0.135000X0.185000X-0.135000X0.185000X0.135000X-0.185000X0.135000X-0.185000X-0.135000X0*%
%ADD16C,0.250000*%
%ADD17R,1.000000X0.750000*%
%ADD18R,0.600000X0.400000*%
%ADD19R,0.400000X0.600000*%
%ADD20RoundRect,0.150000X0.150000X0.200000X-0.150000X0.200000X-0.150000X-0.200000X0.150000X-0.200000X0*%
%ADD21RoundRect,0.140000X-0.140000X-0.170000X0.140000X-0.170000X0.140000X0.170000X-0.140000X0.170000X0*%
%ADD22RoundRect,0.147500X-0.147500X-0.172500X0.147500X-0.172500X0.147500X0.172500X-0.147500X0.172500X0*%
%ADD23RoundRect,0.135000X-0.135000X-0.185000X0.135000X-0.185000X0.135000X0.185000X-0.135000X0.185000X0*%
G04 APERTURE END LIST*
D10*
%TO.C,C3*%
X18960000Y-9040000D03*
X18960000Y-8080000D03*
%TD*%
D11*
%TO.C,L1*%
X6192500Y-17180000D03*
X7767500Y-17180000D03*
%TD*%
D10*
%TO.C,C4*%
X18960000Y-11040000D03*
X18960000Y-10080000D03*
%TD*%
D12*
%TO.C,J2*%
X14650000Y-9350000D03*
X15650000Y-9350000D03*
D13*
X13350000Y-13225000D03*
X16950000Y-13225000D03*
%TD*%
D14*
%TO.C,U4*%
X15512500Y-34650000D03*
X15512500Y-35600000D03*
X15512500Y-36550000D03*
X17787500Y-36550000D03*
X17787500Y-34650000D03*
%TD*%
D15*
%TO.C,R2*%
X19070000Y-33340000D03*
X19070000Y-32320000D03*
%TD*%
D16*
%TO.C,U3*%
X15880000Y-30850000D03*
X16280000Y-30850000D03*
X15880000Y-31250000D03*
X16280000Y-31250000D03*
X15880000Y-31650000D03*
X16280000Y-31650000D03*
%TD*%
D17*
%TO.C,SW1*%
X12970000Y-2575000D03*
X18970000Y-2575000D03*
X12970000Y-6325000D03*
X18970000Y-6325000D03*
%TD*%
D18*
%TO.C,U1*%
X3350000Y-25600000D03*
X3350000Y-26700000D03*
X3350000Y-27500000D03*
X3350000Y-29100000D03*
X4250000Y-29500000D03*
X3350000Y-29900000D03*
X4250000Y-30300000D03*
X3350000Y-30700000D03*
X4250000Y-31100000D03*
X3350000Y-31500000D03*
X4250000Y-31900000D03*
X3350000Y-32300000D03*
X4250000Y-32700000D03*
X3350000Y-33100000D03*
D19*
X3200000Y-36500000D03*
X4000000Y-36500000D03*
X4800000Y-36500000D03*
X5600000Y-36500000D03*
X6000000Y-35600000D03*
X6400000Y-36500000D03*
X6800000Y-35600000D03*
X7200000Y-36500000D03*
X7600000Y-35600000D03*
X8000000Y-36500000D03*
X8400000Y-35600000D03*
X8800000Y-36500000D03*
X9200000Y-35600000D03*
X9600000Y-36500000D03*
X10000000Y-35600000D03*
X10400000Y-36500000D03*
X11200000Y-36500000D03*
X12000000Y-36500000D03*
X12800000Y-36500000D03*
D18*
X12650000Y-35500000D03*
X12650000Y-34700000D03*
X11750000Y-34300000D03*
X12650000Y-33900000D03*
X11750000Y-33500000D03*
X12650000Y-33100000D03*
X11750000Y-32700000D03*
X12650000Y-32300000D03*
X11750000Y-31900000D03*
X11750000Y-31100000D03*
X12650000Y-30700000D03*
X11750000Y-30300000D03*
X12650000Y-29900000D03*
X11750000Y-29500000D03*
X12650000Y-29100000D03*
X11750000Y-28700000D03*
X11750000Y-27900000D03*
X12650000Y-27500000D03*
X11750000Y-27100000D03*
X12650000Y-26700000D03*
X11750000Y-26300000D03*
X12650000Y-25600000D03*
D19*
X6000000Y-29900000D03*
X6800000Y-29900000D03*
X7600000Y-29900000D03*
X8400000Y-29900000D03*
X9200000Y-29900000D03*
X10000000Y-29900000D03*
%TD*%
D20*
%TO.C,D1*%
X3250000Y-17150000D03*
X4650000Y-17150000D03*
%TD*%
D21*
%TO.C,C2*%
X12330000Y-20110000D03*
X13290000Y-20110000D03*
%TD*%
D22*
%TO.C,D2*%
X9145000Y-16920000D03*
X10115000Y-16920000D03*
%TD*%
D21*
%TO.C,C1*%
X9930000Y-18110000D03*
X10890000Y-18110000D03*
%TD*%
D15*
%TO.C,R3*%
X19070000Y-31340000D03*
X19070000Y-30320000D03*
%TD*%
D10*
%TO.C,C5*%
X18960000Y-13040000D03*
X18960000Y-12080000D03*
%TD*%
D23*
%TO.C,R1*%
X10190000Y-20120000D03*
X11210000Y-20120000D03*
%TD*%
M02*
