%TF.GenerationSoftware,KiCad,Pcbnew,10.0.6*%
%TF.CreationDate,2026-09-17T21:07:23-04:00*%
%TF.ProjectId,elicio-v2,656c6963-696f-42d7-9632-2e6b69636164,rev?*%
%TF.SameCoordinates,Original*%
%TF.FileFunction,Other,ECO1*%
%FSLAX46Y46*%
G04 Gerber Fmt 4.6, Leading zero omitted, Abs format (unit mm)*
G04 Created by KiCad (PCBNEW 10.0.6) date 2026-09-17 21:07:23*
%MOMM*%
%LPD*%
G01*
G04 APERTURE LIST*
%ADD10C,0.050000*%
%ADD11C,0.120000*%
G04 APERTURE END LIST*
D10*
X2550000Y-19100000D02*
X17450000Y-19100000D01*
X17450000Y-37300000D01*
X2550000Y-37300000D01*
X2550000Y-19100000D01*
G36*
X2550000Y-19100000D02*
G01*
X17450000Y-19100000D01*
X17450000Y-37300000D01*
X2550000Y-37300000D01*
X2550000Y-19100000D01*
G37*
X4700000Y7400000D02*
X15300000Y7400000D01*
X15300000Y-1300000D01*
X4700000Y-1300000D01*
X4700000Y7400000D01*
G36*
X4700000Y7400000D02*
G01*
X15300000Y7400000D01*
X15300000Y-1300000D01*
X4700000Y-1300000D01*
X4700000Y7400000D01*
G37*
X12700000Y-1300000D02*
X17450000Y-1300000D01*
X17450000Y-12000000D01*
X12700000Y-12000000D01*
X12700000Y-1300000D01*
G36*
X12700000Y-1300000D02*
G01*
X17450000Y-1300000D01*
X17450000Y-12000000D01*
X12700000Y-12000000D01*
X12700000Y-1300000D01*
G37*
D11*
X3828570Y-36357045D02*
X4028570Y-36357045D01*
X4114284Y-36671331D02*
X3828570Y-36671331D01*
X3828570Y-36671331D02*
X3828570Y-36071331D01*
X3828570Y-36071331D02*
X4114284Y-36071331D01*
X4628570Y-36642760D02*
X4571427Y-36671331D01*
X4571427Y-36671331D02*
X4457141Y-36671331D01*
X4457141Y-36671331D02*
X4399998Y-36642760D01*
X4399998Y-36642760D02*
X4371427Y-36614188D01*
X4371427Y-36614188D02*
X4342855Y-36557045D01*
X4342855Y-36557045D02*
X4342855Y-36385617D01*
X4342855Y-36385617D02*
X4371427Y-36328474D01*
X4371427Y-36328474D02*
X4399998Y-36299902D01*
X4399998Y-36299902D02*
X4457141Y-36271331D01*
X4457141Y-36271331D02*
X4571427Y-36271331D01*
X4571427Y-36271331D02*
X4628570Y-36299902D01*
X4971427Y-36671331D02*
X4914284Y-36642760D01*
X4914284Y-36642760D02*
X4885713Y-36614188D01*
X4885713Y-36614188D02*
X4857141Y-36557045D01*
X4857141Y-36557045D02*
X4857141Y-36385617D01*
X4857141Y-36385617D02*
X4885713Y-36328474D01*
X4885713Y-36328474D02*
X4914284Y-36299902D01*
X4914284Y-36299902D02*
X4971427Y-36271331D01*
X4971427Y-36271331D02*
X5057141Y-36271331D01*
X5057141Y-36271331D02*
X5114284Y-36299902D01*
X5114284Y-36299902D02*
X5142856Y-36328474D01*
X5142856Y-36328474D02*
X5171427Y-36385617D01*
X5171427Y-36385617D02*
X5171427Y-36557045D01*
X5171427Y-36557045D02*
X5142856Y-36614188D01*
X5142856Y-36614188D02*
X5114284Y-36642760D01*
X5114284Y-36642760D02*
X5057141Y-36671331D01*
X5057141Y-36671331D02*
X4971427Y-36671331D01*
X5742855Y-36671331D02*
X5399998Y-36671331D01*
X5571427Y-36671331D02*
X5571427Y-36071331D01*
X5571427Y-36071331D02*
X5514284Y-36157045D01*
X5514284Y-36157045D02*
X5457141Y-36214188D01*
X5457141Y-36214188D02*
X5399998Y-36242760D01*
X6657142Y-36357045D02*
X6457142Y-36357045D01*
X6457142Y-36671331D02*
X6457142Y-36071331D01*
X6457142Y-36071331D02*
X6742856Y-36071331D01*
X7314285Y-36671331D02*
X7114285Y-36385617D01*
X6971428Y-36671331D02*
X6971428Y-36071331D01*
X6971428Y-36071331D02*
X7199999Y-36071331D01*
X7199999Y-36071331D02*
X7257142Y-36099902D01*
X7257142Y-36099902D02*
X7285713Y-36128474D01*
X7285713Y-36128474D02*
X7314285Y-36185617D01*
X7314285Y-36185617D02*
X7314285Y-36271331D01*
X7314285Y-36271331D02*
X7285713Y-36328474D01*
X7285713Y-36328474D02*
X7257142Y-36357045D01*
X7257142Y-36357045D02*
X7199999Y-36385617D01*
X7199999Y-36385617D02*
X6971428Y-36385617D01*
X7828571Y-36271331D02*
X7828571Y-36671331D01*
X7685713Y-36042760D02*
X7542856Y-36471331D01*
X7542856Y-36471331D02*
X7914285Y-36471331D01*
X8714285Y-36071331D02*
X8771428Y-36071331D01*
X8771428Y-36071331D02*
X8828571Y-36099902D01*
X8828571Y-36099902D02*
X8857143Y-36128474D01*
X8857143Y-36128474D02*
X8885714Y-36185617D01*
X8885714Y-36185617D02*
X8914285Y-36299902D01*
X8914285Y-36299902D02*
X8914285Y-36442760D01*
X8914285Y-36442760D02*
X8885714Y-36557045D01*
X8885714Y-36557045D02*
X8857143Y-36614188D01*
X8857143Y-36614188D02*
X8828571Y-36642760D01*
X8828571Y-36642760D02*
X8771428Y-36671331D01*
X8771428Y-36671331D02*
X8714285Y-36671331D01*
X8714285Y-36671331D02*
X8657143Y-36642760D01*
X8657143Y-36642760D02*
X8628571Y-36614188D01*
X8628571Y-36614188D02*
X8600000Y-36557045D01*
X8600000Y-36557045D02*
X8571428Y-36442760D01*
X8571428Y-36442760D02*
X8571428Y-36299902D01*
X8571428Y-36299902D02*
X8600000Y-36185617D01*
X8600000Y-36185617D02*
X8628571Y-36128474D01*
X8628571Y-36128474D02*
X8657143Y-36099902D01*
X8657143Y-36099902D02*
X8714285Y-36071331D01*
X9171429Y-36614188D02*
X9200000Y-36642760D01*
X9200000Y-36642760D02*
X9171429Y-36671331D01*
X9171429Y-36671331D02*
X9142857Y-36642760D01*
X9142857Y-36642760D02*
X9171429Y-36614188D01*
X9171429Y-36614188D02*
X9171429Y-36671331D01*
X9400000Y-36071331D02*
X9771428Y-36071331D01*
X9771428Y-36071331D02*
X9571428Y-36299902D01*
X9571428Y-36299902D02*
X9657143Y-36299902D01*
X9657143Y-36299902D02*
X9714286Y-36328474D01*
X9714286Y-36328474D02*
X9742857Y-36357045D01*
X9742857Y-36357045D02*
X9771428Y-36414188D01*
X9771428Y-36414188D02*
X9771428Y-36557045D01*
X9771428Y-36557045D02*
X9742857Y-36614188D01*
X9742857Y-36614188D02*
X9714286Y-36642760D01*
X9714286Y-36642760D02*
X9657143Y-36671331D01*
X9657143Y-36671331D02*
X9485714Y-36671331D01*
X9485714Y-36671331D02*
X9428571Y-36642760D01*
X9428571Y-36642760D02*
X9400000Y-36614188D01*
X10485715Y-36271331D02*
X10485715Y-36871331D01*
X10485715Y-36299902D02*
X10542858Y-36271331D01*
X10542858Y-36271331D02*
X10657143Y-36271331D01*
X10657143Y-36271331D02*
X10714286Y-36299902D01*
X10714286Y-36299902D02*
X10742858Y-36328474D01*
X10742858Y-36328474D02*
X10771429Y-36385617D01*
X10771429Y-36385617D02*
X10771429Y-36557045D01*
X10771429Y-36557045D02*
X10742858Y-36614188D01*
X10742858Y-36614188D02*
X10714286Y-36642760D01*
X10714286Y-36642760D02*
X10657143Y-36671331D01*
X10657143Y-36671331D02*
X10542858Y-36671331D01*
X10542858Y-36671331D02*
X10485715Y-36642760D01*
X11285715Y-36671331D02*
X11285715Y-36357045D01*
X11285715Y-36357045D02*
X11257143Y-36299902D01*
X11257143Y-36299902D02*
X11200000Y-36271331D01*
X11200000Y-36271331D02*
X11085715Y-36271331D01*
X11085715Y-36271331D02*
X11028572Y-36299902D01*
X11285715Y-36642760D02*
X11228572Y-36671331D01*
X11228572Y-36671331D02*
X11085715Y-36671331D01*
X11085715Y-36671331D02*
X11028572Y-36642760D01*
X11028572Y-36642760D02*
X11000000Y-36585617D01*
X11000000Y-36585617D02*
X11000000Y-36528474D01*
X11000000Y-36528474D02*
X11028572Y-36471331D01*
X11028572Y-36471331D02*
X11085715Y-36442760D01*
X11085715Y-36442760D02*
X11228572Y-36442760D01*
X11228572Y-36442760D02*
X11285715Y-36414188D01*
X11571429Y-36671331D02*
X11571429Y-36271331D01*
X11571429Y-36385617D02*
X11600000Y-36328474D01*
X11600000Y-36328474D02*
X11628572Y-36299902D01*
X11628572Y-36299902D02*
X11685714Y-36271331D01*
X11685714Y-36271331D02*
X11742857Y-36271331D01*
X11857143Y-36271331D02*
X12085715Y-36271331D01*
X11942858Y-36071331D02*
X11942858Y-36585617D01*
X11942858Y-36585617D02*
X11971429Y-36642760D01*
X11971429Y-36642760D02*
X12028572Y-36671331D01*
X12028572Y-36671331D02*
X12085715Y-36671331D01*
X12257143Y-36642760D02*
X12314286Y-36671331D01*
X12314286Y-36671331D02*
X12428572Y-36671331D01*
X12428572Y-36671331D02*
X12485715Y-36642760D01*
X12485715Y-36642760D02*
X12514286Y-36585617D01*
X12514286Y-36585617D02*
X12514286Y-36557045D01*
X12514286Y-36557045D02*
X12485715Y-36499902D01*
X12485715Y-36499902D02*
X12428572Y-36471331D01*
X12428572Y-36471331D02*
X12342858Y-36471331D01*
X12342858Y-36471331D02*
X12285715Y-36442760D01*
X12285715Y-36442760D02*
X12257143Y-36385617D01*
X12257143Y-36385617D02*
X12257143Y-36357045D01*
X12257143Y-36357045D02*
X12285715Y-36299902D01*
X12285715Y-36299902D02*
X12342858Y-36271331D01*
X12342858Y-36271331D02*
X12428572Y-36271331D01*
X12428572Y-36271331D02*
X12485715Y-36299902D01*
X13400000Y-36899902D02*
X13371429Y-36871331D01*
X13371429Y-36871331D02*
X13314286Y-36785617D01*
X13314286Y-36785617D02*
X13285715Y-36728474D01*
X13285715Y-36728474D02*
X13257143Y-36642760D01*
X13257143Y-36642760D02*
X13228572Y-36499902D01*
X13228572Y-36499902D02*
X13228572Y-36385617D01*
X13228572Y-36385617D02*
X13257143Y-36242760D01*
X13257143Y-36242760D02*
X13285715Y-36157045D01*
X13285715Y-36157045D02*
X13314286Y-36099902D01*
X13314286Y-36099902D02*
X13371429Y-36014188D01*
X13371429Y-36014188D02*
X13400000Y-35985617D01*
X13571429Y-36071331D02*
X13714286Y-36671331D01*
X13714286Y-36671331D02*
X13828572Y-36242760D01*
X13828572Y-36242760D02*
X13942857Y-36671331D01*
X13942857Y-36671331D02*
X14085715Y-36071331D01*
X14314286Y-36671331D02*
X14314286Y-36071331D01*
X14314286Y-36071331D02*
X14542857Y-36071331D01*
X14542857Y-36071331D02*
X14600000Y-36099902D01*
X14600000Y-36099902D02*
X14628571Y-36128474D01*
X14628571Y-36128474D02*
X14657143Y-36185617D01*
X14657143Y-36185617D02*
X14657143Y-36271331D01*
X14657143Y-36271331D02*
X14628571Y-36328474D01*
X14628571Y-36328474D02*
X14600000Y-36357045D01*
X14600000Y-36357045D02*
X14542857Y-36385617D01*
X14542857Y-36385617D02*
X14314286Y-36385617D01*
X15228571Y-36671331D02*
X14885714Y-36671331D01*
X15057143Y-36671331D02*
X15057143Y-36071331D01*
X15057143Y-36071331D02*
X15000000Y-36157045D01*
X15000000Y-36157045D02*
X14942857Y-36214188D01*
X14942857Y-36214188D02*
X14885714Y-36242760D01*
X15800000Y-36671331D02*
X15457143Y-36671331D01*
X15628572Y-36671331D02*
X15628572Y-36071331D01*
X15628572Y-36071331D02*
X15571429Y-36157045D01*
X15571429Y-36157045D02*
X15514286Y-36214188D01*
X15514286Y-36214188D02*
X15457143Y-36242760D01*
X16000001Y-36899902D02*
X16028572Y-36871331D01*
X16028572Y-36871331D02*
X16085715Y-36785617D01*
X16085715Y-36785617D02*
X16114287Y-36728474D01*
X16114287Y-36728474D02*
X16142858Y-36642760D01*
X16142858Y-36642760D02*
X16171429Y-36499902D01*
X16171429Y-36499902D02*
X16171429Y-36385617D01*
X16171429Y-36385617D02*
X16142858Y-36242760D01*
X16142858Y-36242760D02*
X16114287Y-36157045D01*
X16114287Y-36157045D02*
X16085715Y-36099902D01*
X16085715Y-36099902D02*
X16028572Y-36014188D01*
X16028572Y-36014188D02*
X16000001Y-35985617D01*
M02*
