%TF.GenerationSoftware,KiCad,Pcbnew,10.0.6*%
%TF.CreationDate,2026-09-17T21:07:23-04:00*%
%TF.ProjectId,elicio-v2,656c6963-696f-42d7-9632-2e6b69636164,rev?*%
%TF.SameCoordinates,Original*%
%TF.FileFunction,Profile,NP*%
%FSLAX46Y46*%
G04 Gerber Fmt 4.6, Leading zero omitted, Abs format (unit mm)*
G04 Created by KiCad (PCBNEW 10.0.6) date 2026-09-17 21:07:23*
%MOMM*%
%LPD*%
G01*
G04 APERTURE LIST*
%TA.AperFunction,Profile*%
%ADD10C,0.050000*%
%TD*%
G04 APERTURE END LIST*
D10*
X-7750000Y-22000000D02*
X-7614842Y-21109677D01*
X-7614842Y-21109677D02*
X-7221549Y-20299576D01*
X-7614842Y-22890322D02*
X-7750000Y-22000000D01*
X-7221549Y-20299576D02*
X-6605558Y-19642691D01*
X-7221549Y-23700423D02*
X-7614842Y-22890322D01*
X-6605558Y-19642691D02*
X-5822372Y-19198211D01*
X-6605558Y-24357308D02*
X-7221549Y-23700423D01*
X-5822372Y-19198211D02*
X-4942561Y-19006186D01*
X-5822372Y-24801788D02*
X-6605558Y-24357308D01*
X-4942561Y-19006186D02*
X-4045398Y-19083917D01*
X-4942561Y-24993813D02*
X-5822372Y-24801788D01*
X-4045398Y-19083917D02*
X-3211724Y-19424401D01*
X-4045398Y-24916082D02*
X-4942561Y-24993813D01*
X-3211724Y-19424401D02*
X-2516655Y-19996959D01*
X-3211724Y-24575598D02*
X-4045398Y-24916082D01*
X-2516655Y-19996959D02*
X-2022821Y-20750000D01*
X-2516655Y-24003040D02*
X-3211724Y-24575598D01*
X-2022821Y-20750000D02*
X2250000Y-20750000D01*
X-2022821Y-23250000D02*
X-2516655Y-24003040D01*
X2250000Y-18600000D02*
X12500000Y-18600000D01*
X2250000Y-20750000D02*
X2250000Y-18600000D01*
X2250000Y-23250000D02*
X-2022821Y-23250000D01*
X2250000Y-37600000D02*
X2250000Y-23250000D01*
X4500000Y7700000D02*
X15500000Y7700000D01*
X4500000Y-1500000D02*
X4500000Y7700000D01*
X5506186Y-43192561D02*
X5583917Y-42295398D01*
X5583917Y-42295398D02*
X5924401Y-41461724D01*
X5698211Y-44072372D02*
X5506186Y-43192561D01*
X5924401Y-41461724D02*
X6496959Y-40766655D01*
X6142691Y-44855558D02*
X5698211Y-44072372D01*
X6496959Y-40766655D02*
X7250000Y-40272821D01*
X6799576Y-45471549D02*
X6142691Y-44855558D01*
X7250000Y-37600000D02*
X2250000Y-37600000D01*
X7250000Y-40272821D02*
X7250000Y-37600000D01*
X7609677Y-45864842D02*
X6799576Y-45471549D01*
X8500000Y-46000000D02*
X7609677Y-45864842D01*
X9390322Y-45864842D02*
X8500000Y-46000000D01*
X9750000Y-37600000D02*
X9750000Y-40272821D01*
X9750000Y-40272821D02*
X10503040Y-40766655D01*
X10200423Y-45471549D02*
X9390322Y-45864842D01*
X10503040Y-40766655D02*
X11075598Y-41461724D01*
X10857308Y-44855558D02*
X10200423Y-45471549D01*
X11075598Y-41461724D02*
X11416082Y-42295398D01*
X11301788Y-44072372D02*
X10857308Y-44855558D01*
X11416082Y-42295398D02*
X11493813Y-43192561D01*
X11493813Y-43192561D02*
X11301788Y-44072372D01*
X12500000Y-1500000D02*
X4500000Y-1500000D01*
X12500000Y-18600000D02*
X12500000Y-1500000D01*
X15500000Y7700000D02*
X15500000Y-1500000D01*
X15500000Y-1500000D02*
X17750000Y-1500000D01*
X17750000Y-1500000D02*
X17750000Y-31850000D01*
X17750000Y-31850000D02*
X22022821Y-31850000D01*
X17750000Y-34350000D02*
X17750000Y-37600000D01*
X17750000Y-37600000D02*
X9750000Y-37600000D01*
X22022821Y-31850000D02*
X22516655Y-31096959D01*
X22022821Y-34350000D02*
X17750000Y-34350000D01*
X22516655Y-31096959D02*
X23211724Y-30524401D01*
X22516655Y-35103040D02*
X22022821Y-34350000D01*
X23211724Y-30524401D02*
X24045398Y-30183917D01*
X23211724Y-35675598D02*
X22516655Y-35103040D01*
X24045398Y-30183917D02*
X24942561Y-30106186D01*
X24045398Y-36016082D02*
X23211724Y-35675598D01*
X24942561Y-30106186D02*
X25822372Y-30298211D01*
X24942561Y-36093813D02*
X24045398Y-36016082D01*
X25822372Y-30298211D02*
X26605558Y-30742691D01*
X25822372Y-35901788D02*
X24942561Y-36093813D01*
X26605558Y-30742691D02*
X27221549Y-31399576D01*
X26605558Y-35457308D02*
X25822372Y-35901788D01*
X27221549Y-31399576D02*
X27614842Y-32209677D01*
X27221549Y-34800423D02*
X26605558Y-35457308D01*
X27614842Y-32209677D02*
X27750000Y-33100000D01*
X27614842Y-33990322D02*
X27221549Y-34800423D01*
X27750000Y-33100000D02*
X27614842Y-33990322D01*
M02*
