%TF.GenerationSoftware,KiCad,Pcbnew,10.0.6*%
%TF.CreationDate,2026-09-17T21:07:23-04:00*%
%TF.ProjectId,elicio-v2,656c6963-696f-42d7-9632-2e6b69636164,rev?*%
%TF.SameCoordinates,Original*%
%TF.FileFunction,Copper,L1,Top*%
%TF.FilePolarity,Positive*%
%FSLAX46Y46*%
G04 Gerber Fmt 4.6, Leading zero omitted, Abs format (unit mm)*
G04 Created by KiCad (PCBNEW 10.0.6) date 2026-09-17 21:07:23*
%MOMM*%
%LPD*%
G01*
G04 APERTURE LIST*
G04 Aperture macros list*
%AMRoundRect*
0 Rectangle with rounded corners*
0 $1 Rounding radius*
0 $2 $3 $4 $5 $6 $7 $8 $9 X,Y pos of 4 corners*
0 Add a 4 corners polygon primitive as box body*
4,1,4,$2,$3,$4,$5,$6,$7,$8,$9,$2,$3,0*
0 Add four circle primitives for the rounded corners*
1,1,$1+$1,$2,$3*
1,1,$1+$1,$4,$5*
1,1,$1+$1,$6,$7*
1,1,$1+$1,$8,$9*
0 Add four rect primitives between the rounded corners*
20,1,$1+$1,$2,$3,$4,$5,0*
20,1,$1+$1,$4,$5,$6,$7,0*
20,1,$1+$1,$6,$7,$8,$9,0*
20,1,$1+$1,$8,$9,$2,$3,0*%
G04 Aperture macros list end*
%TA.AperFunction,SMDPad,CuDef*%
%ADD10RoundRect,0.050000X-0.337500X-0.050000X0.337500X-0.050000X0.337500X0.050000X-0.337500X0.050000X0*%
%TD*%
%TA.AperFunction,SMDPad,CuDef*%
%ADD11RoundRect,0.050000X-0.050000X-0.337500X0.050000X-0.337500X0.050000X0.337500X-0.050000X0.337500X0*%
%TD*%
%TA.AperFunction,HeatsinkPad*%
%ADD12R,2.800000X2.800000*%
%TD*%
%TA.AperFunction,SMDPad,CuDef*%
%ADD13RoundRect,0.150000X0.150000X0.200000X-0.150000X0.200000X-0.150000X-0.200000X0.150000X-0.200000X0*%
%TD*%
%TA.AperFunction,SMDPad,CuDef*%
%ADD14RoundRect,0.135000X-0.135000X-0.185000X0.135000X-0.185000X0.135000X0.185000X-0.135000X0.185000X0*%
%TD*%
%TA.AperFunction,SMDPad,CuDef*%
%ADD15RoundRect,0.225000X-0.225000X-0.250000X0.225000X-0.250000X0.225000X0.250000X-0.225000X0.250000X0*%
%TD*%
%TA.AperFunction,SMDPad,CuDef*%
%ADD16RoundRect,0.140000X-0.140000X-0.170000X0.140000X-0.170000X0.140000X0.170000X-0.140000X0.170000X0*%
%TD*%
%TA.AperFunction,ConnectorPad*%
%ADD17C,0.787400*%
%TD*%
%TA.AperFunction,SMDPad,CuDef*%
%ADD18RoundRect,0.150000X-0.587500X-0.150000X0.587500X-0.150000X0.587500X0.150000X-0.587500X0.150000X0*%
%TD*%
%TA.AperFunction,SMDPad,CuDef*%
%ADD19RoundRect,0.218750X-0.218750X-0.256250X0.218750X-0.256250X0.218750X0.256250X-0.218750X0.256250X0*%
%TD*%
%TA.AperFunction,ComponentPad*%
%ADD20C,5.000000*%
%TD*%
%TA.AperFunction,SMDPad,CuDef*%
%ADD21RoundRect,0.150000X-0.512500X-0.150000X0.512500X-0.150000X0.512500X0.150000X-0.512500X0.150000X0*%
%TD*%
%TA.AperFunction,ComponentPad*%
%ADD22R,1.700000X1.700000*%
%TD*%
%TA.AperFunction,ComponentPad*%
%ADD23C,1.700000*%
%TD*%
%TA.AperFunction,SMDPad,CuDef*%
%ADD24R,1.000000X0.750000*%
%TD*%
%TA.AperFunction,SMDPad,CuDef*%
%ADD25RoundRect,0.150000X-0.150000X-0.575000X0.150000X-0.575000X0.150000X0.575000X-0.150000X0.575000X0*%
%TD*%
%TA.AperFunction,SMDPad,CuDef*%
%ADD26RoundRect,0.075000X-0.075000X-0.650000X0.075000X-0.650000X0.075000X0.650000X-0.075000X0.650000X0*%
%TD*%
%TA.AperFunction,ComponentPad*%
%ADD27O,1.000000X2.100000*%
%TD*%
%TA.AperFunction,ComponentPad*%
%ADD28O,1.000000X1.600000*%
%TD*%
%TA.AperFunction,SMDPad,CuDef*%
%ADD29RoundRect,0.150000X0.625000X-0.150000X0.625000X0.150000X-0.625000X0.150000X-0.625000X-0.150000X0*%
%TD*%
%TA.AperFunction,SMDPad,CuDef*%
%ADD30RoundRect,0.250000X0.650000X-0.350000X0.650000X0.350000X-0.650000X0.350000X-0.650000X-0.350000X0*%
%TD*%
%TA.AperFunction,BGAPad,CuDef*%
%ADD31C,0.250000*%
%TD*%
%TA.AperFunction,SMDPad,CuDef*%
%ADD32RoundRect,0.147500X-0.147500X-0.172500X0.147500X-0.172500X0.147500X0.172500X-0.147500X0.172500X0*%
%TD*%
%TA.AperFunction,SMDPad,CuDef*%
%ADD33R,0.400000X0.600000*%
%TD*%
%TA.AperFunction,SMDPad,CuDef*%
%ADD34R,0.600000X0.400000*%
%TD*%
G04 APERTURE END LIST*
D10*
%TO.P,U2,1*%
%TO.N,N/C*%
X9212500Y-19850000D03*
%TO.P,U2,2*%
X9212500Y-20250000D03*
%TO.P,U2,3*%
X9212500Y-20650000D03*
%TO.P,U2,4*%
X9212500Y-21050000D03*
%TO.P,U2,5*%
X9212500Y-21450000D03*
%TO.P,U2,6*%
X9212500Y-21850000D03*
%TO.P,U2,7*%
X9212500Y-22250000D03*
%TO.P,U2,8*%
X9212500Y-22650000D03*
D11*
%TO.P,U2,9*%
X9800000Y-23237500D03*
%TO.P,U2,10*%
X10200000Y-23237500D03*
%TO.P,U2,11*%
X10600000Y-23237500D03*
%TO.P,U2,12*%
X11000000Y-23237500D03*
%TO.P,U2,13*%
X11400000Y-23237500D03*
%TO.P,U2,14*%
X11800000Y-23237500D03*
%TO.P,U2,15*%
X12200000Y-23237500D03*
%TO.P,U2,16*%
X12600000Y-23237500D03*
D10*
%TO.P,U2,17*%
X13187500Y-22650000D03*
%TO.P,U2,18*%
X13187500Y-22250000D03*
%TO.P,U2,19*%
X13187500Y-21850000D03*
%TO.P,U2,20*%
X13187500Y-21450000D03*
%TO.P,U2,21*%
X13187500Y-21050000D03*
%TO.P,U2,22*%
X13187500Y-20650000D03*
%TO.P,U2,23*%
X13187500Y-20250000D03*
%TO.P,U2,24*%
X13187500Y-19850000D03*
D11*
%TO.P,U2,25*%
X12600000Y-19262500D03*
%TO.P,U2,26*%
X12200000Y-19262500D03*
%TO.P,U2,27*%
X11800000Y-19262500D03*
%TO.P,U2,28*%
X11400000Y-19262500D03*
%TO.P,U2,29*%
X11000000Y-19262500D03*
%TO.P,U2,30*%
X10600000Y-19262500D03*
%TO.P,U2,31*%
X10200000Y-19262500D03*
%TO.P,U2,32*%
X9800000Y-19262500D03*
D12*
%TO.P,U2,33*%
X11200000Y-21250000D03*
%TD*%
D13*
%TO.P,D1,1*%
%TO.N,N/C*%
X13100000Y5200000D03*
%TO.P,D1,2*%
X14500000Y5200000D03*
%TD*%
D14*
%TO.P,R15,1*%
%TO.N,N/C*%
X16290000Y-7400000D03*
%TO.P,R15,2*%
X17310000Y-7400000D03*
%TD*%
D15*
%TO.P,C9,1*%
%TO.N,N/C*%
X12625000Y-19000000D03*
%TO.P,C9,2*%
X14175000Y-19000000D03*
%TD*%
D16*
%TO.P,C10,1*%
%TO.N,N/C*%
X8520000Y-19400000D03*
%TO.P,C10,2*%
X9480000Y-19400000D03*
%TD*%
D17*
%TO.P,J4,1*%
%TO.N,N/C*%
X13930000Y-11135000D03*
%TO.P,J4,2*%
X13930000Y-9865000D03*
%TO.P,J4,3*%
X15200000Y-11135000D03*
%TO.P,J4,4*%
X15200000Y-9865000D03*
%TO.P,J4,5*%
X16470000Y-11135000D03*
%TO.P,J4,6*%
X16470000Y-9865000D03*
%TD*%
D14*
%TO.P,R5,1*%
%TO.N,N/C*%
X12690000Y-6200000D03*
%TO.P,R5,2*%
X13710000Y-6200000D03*
%TD*%
D18*
%TO.P,Q2,1*%
%TO.N,N/C*%
X14162500Y-15250000D03*
%TO.P,Q2,2*%
X14162500Y-17150000D03*
%TO.P,Q2,3*%
X16037500Y-16200000D03*
%TD*%
D16*
%TO.P,C6,1*%
%TO.N,N/C*%
X8220000Y-21200000D03*
%TO.P,C6,2*%
X9180000Y-21200000D03*
%TD*%
D14*
%TO.P,R25,1*%
%TO.N,N/C*%
X13890000Y-11000000D03*
%TO.P,R25,2*%
X14910000Y-11000000D03*
%TD*%
%TO.P,R28,1*%
%TO.N,N/C*%
X16290000Y-11000000D03*
%TO.P,R28,2*%
X17310000Y-11000000D03*
%TD*%
D19*
%TO.P,L1,1*%
%TO.N,N/C*%
X15412500Y-25200000D03*
%TO.P,L1,2*%
X16987500Y-25200000D03*
%TD*%
D14*
%TO.P,R6,1*%
%TO.N,N/C*%
X13890000Y-6200000D03*
%TO.P,R6,2*%
X14910000Y-6200000D03*
%TD*%
D16*
%TO.P,C2,1*%
%TO.N,N/C*%
X6220000Y-26800000D03*
%TO.P,C2,2*%
X7180000Y-26800000D03*
%TD*%
D14*
%TO.P,R10,1*%
%TO.N,N/C*%
X7090000Y400000D03*
%TO.P,R10,2*%
X8110000Y400000D03*
%TD*%
%TO.P,R12,1*%
%TO.N,N/C*%
X3990000Y-26800000D03*
%TO.P,R12,2*%
X5010000Y-26800000D03*
%TD*%
D20*
%TO.P,P1,1*%
%TO.N,SIG1*%
X-4750000Y-22000000D03*
%TD*%
%TO.P,P3,1*%
%TO.N,REF*%
X8500000Y-43000000D03*
%TD*%
D14*
%TO.P,R4,1*%
%TO.N,N/C*%
X8690000Y-23400000D03*
%TO.P,R4,2*%
X9710000Y-23400000D03*
%TD*%
D21*
%TO.P,U5,1*%
%TO.N,N/C*%
X5262500Y6150000D03*
%TO.P,U5,2*%
X5262500Y5200000D03*
%TO.P,U5,3*%
X5262500Y4250000D03*
%TO.P,U5,4*%
X7537500Y4250000D03*
%TO.P,U5,5*%
X7537500Y5200000D03*
%TO.P,U5,6*%
X7537500Y6150000D03*
%TD*%
D22*
%TO.P,J3,1*%
%TO.N,N/C*%
X15400000Y-22600000D03*
D23*
%TO.P,J3,2*%
X17940000Y-22600000D03*
%TO.P,J3,3*%
X20480000Y-22600000D03*
%TD*%
D14*
%TO.P,R14,1*%
%TO.N,N/C*%
X15090000Y-7400000D03*
%TO.P,R14,2*%
X16110000Y-7400000D03*
%TD*%
%TO.P,R13,1*%
%TO.N,N/C*%
X5090000Y-26800000D03*
%TO.P,R13,2*%
X6110000Y-26800000D03*
%TD*%
D24*
%TO.P,SW1,1*%
%TO.N,N/C*%
X1800000Y-19275000D03*
X7800000Y-19275000D03*
%TO.P,SW1,2*%
X1800000Y-23025000D03*
X7800000Y-23025000D03*
%TD*%
D14*
%TO.P,R26,1*%
%TO.N,N/C*%
X6290000Y-21200000D03*
%TO.P,R26,2*%
X7310000Y-21200000D03*
%TD*%
%TO.P,R2,1*%
%TO.N,N/C*%
X13890000Y-21000000D03*
%TO.P,R2,2*%
X14910000Y-21000000D03*
%TD*%
%TO.P,R23,1*%
%TO.N,N/C*%
X16290000Y-9800000D03*
%TO.P,R23,2*%
X17310000Y-9800000D03*
%TD*%
D16*
%TO.P,C4,1*%
%TO.N,N/C*%
X4020000Y-23800000D03*
%TO.P,C4,2*%
X4980000Y-23800000D03*
%TD*%
D14*
%TO.P,R20,1*%
%TO.N,N/C*%
X12690000Y-9800000D03*
%TO.P,R20,2*%
X13710000Y-9800000D03*
%TD*%
D18*
%TO.P,Q3,1*%
%TO.N,N/C*%
X15662500Y-15250000D03*
%TO.P,Q3,2*%
X15662500Y-17150000D03*
%TO.P,Q3,3*%
X17537500Y-16200000D03*
%TD*%
D14*
%TO.P,R18,1*%
%TO.N,N/C*%
X8290000Y400000D03*
%TO.P,R18,2*%
X9310000Y400000D03*
%TD*%
D16*
%TO.P,C3,1*%
%TO.N,N/C*%
X2920000Y-23800000D03*
%TO.P,C3,2*%
X3880000Y-23800000D03*
%TD*%
D14*
%TO.P,R16,1*%
%TO.N,N/C*%
X12690000Y-8600000D03*
%TO.P,R16,2*%
X13710000Y-8600000D03*
%TD*%
D16*
%TO.P,C1,1*%
%TO.N,N/C*%
X9820000Y-23400000D03*
%TO.P,C1,2*%
X10780000Y-23400000D03*
%TD*%
D18*
%TO.P,Q5,1*%
%TO.N,N/C*%
X14162500Y-13450000D03*
%TO.P,Q5,2*%
X14162500Y-15350000D03*
%TO.P,Q5,3*%
X16037500Y-14400000D03*
%TD*%
%TO.P,Q4,1*%
%TO.N,N/C*%
X12662500Y-13450000D03*
%TO.P,Q4,2*%
X12662500Y-15350000D03*
%TO.P,Q4,3*%
X14537500Y-14400000D03*
%TD*%
D20*
%TO.P,P2,1*%
%TO.N,SIG2*%
X24750000Y-33100000D03*
%TD*%
D25*
%TO.P,J1,A1*%
%TO.N,N/C*%
X6750000Y6195000D03*
%TO.P,J1,A4*%
X7550000Y6195000D03*
D26*
%TO.P,J1,A5*%
X8750000Y6195000D03*
%TO.P,J1,A6*%
X9750000Y6195000D03*
%TO.P,J1,A7*%
X10250000Y6195000D03*
%TO.P,J1,A8*%
X11250000Y6195000D03*
D25*
%TO.P,J1,A9*%
X12450000Y6195000D03*
%TO.P,J1,A12*%
X13250000Y6195000D03*
%TO.P,J1,B1*%
X13250000Y6195000D03*
%TO.P,J1,B4*%
X12450000Y6195000D03*
D26*
%TO.P,J1,B5*%
X11750000Y6195000D03*
%TO.P,J1,B6*%
X10750000Y6195000D03*
%TO.P,J1,B7*%
X9250000Y6195000D03*
%TO.P,J1,B8*%
X8250000Y6195000D03*
D25*
%TO.P,J1,B9*%
X7550000Y6195000D03*
%TO.P,J1,B12*%
X6750000Y6195000D03*
D27*
%TO.P,J1,SH*%
X5680000Y5280000D03*
D28*
X5680000Y1100000D03*
D27*
X14320000Y5280000D03*
D28*
X14320000Y1100000D03*
%TD*%
D14*
%TO.P,R3,1*%
%TO.N,N/C*%
X14890000Y-21000000D03*
%TO.P,R3,2*%
X15910000Y-21000000D03*
%TD*%
%TO.P,R11,1*%
%TO.N,N/C*%
X2890000Y-26800000D03*
%TO.P,R11,2*%
X3910000Y-26800000D03*
%TD*%
D16*
%TO.P,C5,1*%
%TO.N,N/C*%
X6220000Y-23800000D03*
%TO.P,C5,2*%
X7180000Y-23800000D03*
%TD*%
D29*
%TO.P,J2,1*%
%TO.N,N/C*%
X12400000Y-5150000D03*
%TO.P,J2,2*%
X12400000Y-4150000D03*
D30*
%TO.P,J2,MP*%
X16275000Y-6450000D03*
X16275000Y-2850000D03*
%TD*%
D14*
%TO.P,R1,1*%
%TO.N,N/C*%
X12890000Y-21000000D03*
%TO.P,R1,2*%
X13910000Y-21000000D03*
%TD*%
D31*
%TO.P,U3,A1*%
%TO.N,N/C*%
X3250000Y-24900000D03*
%TO.P,U3,A2*%
X3650000Y-24900000D03*
%TO.P,U3,B1*%
X3250000Y-25300000D03*
%TO.P,U3,B2*%
X3650000Y-25300000D03*
%TO.P,U3,C1*%
X3250000Y-25700000D03*
%TO.P,U3,C2*%
X3650000Y-25700000D03*
%TD*%
D16*
%TO.P,C7,1*%
%TO.N,N/C*%
X8220000Y-22200000D03*
%TO.P,C7,2*%
X9180000Y-22200000D03*
%TD*%
D14*
%TO.P,R24,1*%
%TO.N,N/C*%
X12690000Y-11000000D03*
%TO.P,R24,2*%
X13710000Y-11000000D03*
%TD*%
%TO.P,R9,1*%
%TO.N,N/C*%
X5890000Y400000D03*
%TO.P,R9,2*%
X6910000Y400000D03*
%TD*%
D16*
%TO.P,C11,1*%
%TO.N,N/C*%
X9620000Y-19400000D03*
%TO.P,C11,2*%
X10580000Y-19400000D03*
%TD*%
D32*
%TO.P,D2,1*%
%TO.N,N/C*%
X16015000Y-12600000D03*
%TO.P,D2,2*%
X16985000Y-12600000D03*
%TD*%
D14*
%TO.P,R22,1*%
%TO.N,N/C*%
X15090000Y-9800000D03*
%TO.P,R22,2*%
X16110000Y-9800000D03*
%TD*%
%TO.P,R17,1*%
%TO.N,N/C*%
X13890000Y-8600000D03*
%TO.P,R17,2*%
X14910000Y-8600000D03*
%TD*%
D33*
%TO.P,U1,1*%
%TO.N,N/C*%
X6250000Y-37000000D03*
%TO.P,U1,2*%
X7350000Y-37000000D03*
%TO.P,U1,3*%
X8150000Y-37000000D03*
%TO.P,U1,4*%
X9750000Y-37000000D03*
%TO.P,U1,5*%
X10150000Y-36100000D03*
%TO.P,U1,6*%
X10550000Y-37000000D03*
%TO.P,U1,7*%
X10950000Y-36100000D03*
%TO.P,U1,8*%
X11350000Y-37000000D03*
%TO.P,U1,9*%
X11750000Y-36100000D03*
%TO.P,U1,10*%
X12150000Y-37000000D03*
%TO.P,U1,11*%
X12550000Y-36100000D03*
%TO.P,U1,12*%
X12950000Y-37000000D03*
%TO.P,U1,13*%
X13350000Y-36100000D03*
%TO.P,U1,14*%
X13750000Y-37000000D03*
D34*
%TO.P,U1,15*%
X17150000Y-37150000D03*
%TO.P,U1,16*%
X17150000Y-36350000D03*
%TO.P,U1,17*%
X17150000Y-35550000D03*
%TO.P,U1,18*%
X17150000Y-34750000D03*
%TO.P,U1,19*%
X16250000Y-34350000D03*
%TO.P,U1,20*%
X17150000Y-33950000D03*
%TO.P,U1,21*%
X16250000Y-33550000D03*
%TO.P,U1,22*%
X17150000Y-33150000D03*
%TO.P,U1,23*%
X16250000Y-32750000D03*
%TO.P,U1,24*%
X17150000Y-32350000D03*
%TO.P,U1,25*%
X16250000Y-31950000D03*
%TO.P,U1,26*%
X17150000Y-31550000D03*
%TO.P,U1,27*%
X16250000Y-31150000D03*
%TO.P,U1,28*%
X17150000Y-30750000D03*
%TO.P,U1,29*%
X16250000Y-30350000D03*
%TO.P,U1,30*%
X17150000Y-29950000D03*
%TO.P,U1,31*%
X17150000Y-29150000D03*
%TO.P,U1,32*%
X17150000Y-28350000D03*
%TO.P,U1,33*%
X17150000Y-27550000D03*
D33*
%TO.P,U1,34*%
X16150000Y-27700000D03*
%TO.P,U1,35*%
X15350000Y-27700000D03*
%TO.P,U1,36*%
X14950000Y-28600000D03*
%TO.P,U1,37*%
X14550000Y-27700000D03*
%TO.P,U1,38*%
X14150000Y-28600000D03*
%TO.P,U1,39*%
X13750000Y-27700000D03*
%TO.P,U1,40*%
X13350000Y-28600000D03*
%TO.P,U1,41*%
X12950000Y-27700000D03*
%TO.P,U1,42*%
X12550000Y-28600000D03*
%TO.P,U1,43*%
X11750000Y-28600000D03*
%TO.P,U1,44*%
X11350000Y-27700000D03*
%TO.P,U1,45*%
X10950000Y-28600000D03*
%TO.P,U1,46*%
X10550000Y-27700000D03*
%TO.P,U1,47*%
X10150000Y-28600000D03*
%TO.P,U1,48*%
X9750000Y-27700000D03*
%TO.P,U1,49*%
X9350000Y-28600000D03*
%TO.P,U1,50*%
X8550000Y-28600000D03*
%TO.P,U1,51*%
X8150000Y-27700000D03*
%TO.P,U1,52*%
X7750000Y-28600000D03*
%TO.P,U1,53*%
X7350000Y-27700000D03*
%TO.P,U1,54*%
X6950000Y-28600000D03*
%TO.P,U1,55*%
X6250000Y-27700000D03*
D34*
%TO.P,U1,56*%
X10550000Y-34350000D03*
%TO.P,U1,57*%
X10550000Y-33550000D03*
%TO.P,U1,58*%
X10550000Y-32750000D03*
%TO.P,U1,59*%
X10550000Y-31950000D03*
%TO.P,U1,60*%
X10550000Y-31150000D03*
%TO.P,U1,61*%
X10550000Y-30350000D03*
%TD*%
D14*
%TO.P,R8,1*%
%TO.N,N/C*%
X16290000Y-6200000D03*
%TO.P,R8,2*%
X17310000Y-6200000D03*
%TD*%
D18*
%TO.P,Q1,1*%
%TO.N,N/C*%
X12662500Y-15250000D03*
%TO.P,Q1,2*%
X12662500Y-17150000D03*
%TO.P,Q1,3*%
X14537500Y-16200000D03*
%TD*%
D14*
%TO.P,R7,1*%
%TO.N,N/C*%
X15090000Y-6200000D03*
%TO.P,R7,2*%
X16110000Y-6200000D03*
%TD*%
%TO.P,R19,1*%
%TO.N,N/C*%
X13090000Y400000D03*
%TO.P,R19,2*%
X14110000Y400000D03*
%TD*%
D21*
%TO.P,U4,1*%
%TO.N,N/C*%
X4262500Y-24400000D03*
%TO.P,U4,2*%
X4262500Y-25350000D03*
%TO.P,U4,3*%
X4262500Y-26300000D03*
%TO.P,U4,4*%
X6537500Y-26300000D03*
%TO.P,U4,5*%
X6537500Y-24400000D03*
%TD*%
D16*
%TO.P,C8,1*%
%TO.N,N/C*%
X12920000Y-20000000D03*
%TO.P,C8,2*%
X13880000Y-20000000D03*
%TD*%
D14*
%TO.P,R21,1*%
%TO.N,N/C*%
X13890000Y-9800000D03*
%TO.P,R21,2*%
X14910000Y-9800000D03*
%TD*%
%TO.P,R27,1*%
%TO.N,N/C*%
X15090000Y-11000000D03*
%TO.P,R27,2*%
X16110000Y-11000000D03*
%TD*%
M02*
