%TF.GenerationSoftware,KiCad,Pcbnew,10.0.6*%
%TF.CreationDate,2026-09-23T10:07:27-04:00*%
%TF.ProjectId,elicio-v2,656c6963-696f-42d7-9632-2e6b69636164,rev?*%
%TF.SameCoordinates,Original*%
%TF.FileFunction,OtherDrawing,Comment*%
%FSLAX46Y46*%
G04 Gerber Fmt 4.6, Leading zero omitted, Abs format (unit mm)*
G04 Created by KiCad (PCBNEW 10.0.6) date 2026-09-23 10:07:27*
%MOMM*%
%LPD*%
G01*
G04 APERTURE LIST*
%ADD10C,0.120000*%
%ADD11C,0.100000*%
G04 APERTURE END LIST*
D10*
X22250000Y-22140000D02*
X22250000Y-32980000D01*
D11*
X20192858Y-26526109D02*
X20192858Y-26883252D01*
X20192858Y-26883252D02*
X20169049Y-26954680D01*
X20169049Y-26954680D02*
X20121430Y-27002300D01*
X20121430Y-27002300D02*
X20050001Y-27026109D01*
X20050001Y-27026109D02*
X20002382Y-27026109D01*
X20383334Y-26526109D02*
X20692858Y-26526109D01*
X20692858Y-26526109D02*
X20526191Y-26716585D01*
X20526191Y-26716585D02*
X20597620Y-26716585D01*
X20597620Y-26716585D02*
X20645239Y-26740395D01*
X20645239Y-26740395D02*
X20669048Y-26764204D01*
X20669048Y-26764204D02*
X20692858Y-26811823D01*
X20692858Y-26811823D02*
X20692858Y-26930871D01*
X20692858Y-26930871D02*
X20669048Y-26978490D01*
X20669048Y-26978490D02*
X20645239Y-27002300D01*
X20645239Y-27002300D02*
X20597620Y-27026109D01*
X20597620Y-27026109D02*
X20454763Y-27026109D01*
X20454763Y-27026109D02*
X20407144Y-27002300D01*
X20407144Y-27002300D02*
X20383334Y-26978490D01*
X21573809Y-26978490D02*
X21550000Y-27002300D01*
X21550000Y-27002300D02*
X21478571Y-27026109D01*
X21478571Y-27026109D02*
X21430952Y-27026109D01*
X21430952Y-27026109D02*
X21359524Y-27002300D01*
X21359524Y-27002300D02*
X21311905Y-26954680D01*
X21311905Y-26954680D02*
X21288095Y-26907061D01*
X21288095Y-26907061D02*
X21264286Y-26811823D01*
X21264286Y-26811823D02*
X21264286Y-26740395D01*
X21264286Y-26740395D02*
X21288095Y-26645157D01*
X21288095Y-26645157D02*
X21311905Y-26597538D01*
X21311905Y-26597538D02*
X21359524Y-26549919D01*
X21359524Y-26549919D02*
X21430952Y-26526109D01*
X21430952Y-26526109D02*
X21478571Y-26526109D01*
X21478571Y-26526109D02*
X21550000Y-26549919D01*
X21550000Y-26549919D02*
X21573809Y-26573728D01*
X21788095Y-26526109D02*
X21788095Y-26930871D01*
X21788095Y-26930871D02*
X21811905Y-26978490D01*
X21811905Y-26978490D02*
X21835714Y-27002300D01*
X21835714Y-27002300D02*
X21883333Y-27026109D01*
X21883333Y-27026109D02*
X21978571Y-27026109D01*
X21978571Y-27026109D02*
X22026190Y-27002300D01*
X22026190Y-27002300D02*
X22050000Y-26978490D01*
X22050000Y-26978490D02*
X22073809Y-26930871D01*
X22073809Y-26930871D02*
X22073809Y-26526109D01*
X22240477Y-26526109D02*
X22526191Y-26526109D01*
X22383334Y-27026109D02*
X22383334Y-26526109D01*
X23288095Y-26692776D02*
X23288095Y-27026109D01*
X23073809Y-26692776D02*
X23073809Y-26954680D01*
X23073809Y-26954680D02*
X23097619Y-27002300D01*
X23097619Y-27002300D02*
X23145238Y-27026109D01*
X23145238Y-27026109D02*
X23216666Y-27026109D01*
X23216666Y-27026109D02*
X23264285Y-27002300D01*
X23264285Y-27002300D02*
X23288095Y-26978490D01*
X23526190Y-26764204D02*
X23907143Y-26764204D01*
X23907143Y-26907061D02*
X23526190Y-26907061D01*
X24121429Y-26573728D02*
X24145238Y-26549919D01*
X24145238Y-26549919D02*
X24192857Y-26526109D01*
X24192857Y-26526109D02*
X24311905Y-26526109D01*
X24311905Y-26526109D02*
X24359524Y-26549919D01*
X24359524Y-26549919D02*
X24383333Y-26573728D01*
X24383333Y-26573728D02*
X24407143Y-26621347D01*
X24407143Y-26621347D02*
X24407143Y-26668966D01*
X24407143Y-26668966D02*
X24383333Y-26740395D01*
X24383333Y-26740395D02*
X24097619Y-27026109D01*
X24097619Y-27026109D02*
X24407143Y-27026109D01*
X24597619Y-26573728D02*
X24621428Y-26549919D01*
X24621428Y-26549919D02*
X24669047Y-26526109D01*
X24669047Y-26526109D02*
X24788095Y-26526109D01*
X24788095Y-26526109D02*
X24835714Y-26549919D01*
X24835714Y-26549919D02*
X24859523Y-26573728D01*
X24859523Y-26573728D02*
X24883333Y-26621347D01*
X24883333Y-26621347D02*
X24883333Y-26668966D01*
X24883333Y-26668966D02*
X24859523Y-26740395D01*
X24859523Y-26740395D02*
X24573809Y-27026109D01*
X24573809Y-27026109D02*
X24883333Y-27026109D01*
X25097618Y-26978490D02*
X25121428Y-27002300D01*
X25121428Y-27002300D02*
X25097618Y-27026109D01*
X25097618Y-27026109D02*
X25073809Y-27002300D01*
X25073809Y-27002300D02*
X25097618Y-26978490D01*
X25097618Y-26978490D02*
X25097618Y-27026109D01*
X25311904Y-26573728D02*
X25335713Y-26549919D01*
X25335713Y-26549919D02*
X25383332Y-26526109D01*
X25383332Y-26526109D02*
X25502380Y-26526109D01*
X25502380Y-26526109D02*
X25549999Y-26549919D01*
X25549999Y-26549919D02*
X25573808Y-26573728D01*
X25573808Y-26573728D02*
X25597618Y-26621347D01*
X25597618Y-26621347D02*
X25597618Y-26668966D01*
X25597618Y-26668966D02*
X25573808Y-26740395D01*
X25573808Y-26740395D02*
X25288094Y-27026109D01*
X25288094Y-27026109D02*
X25597618Y-27026109D01*
X26049998Y-26526109D02*
X25811903Y-26526109D01*
X25811903Y-26526109D02*
X25788094Y-26764204D01*
X25788094Y-26764204D02*
X25811903Y-26740395D01*
X25811903Y-26740395D02*
X25859522Y-26716585D01*
X25859522Y-26716585D02*
X25978570Y-26716585D01*
X25978570Y-26716585D02*
X26026189Y-26740395D01*
X26026189Y-26740395D02*
X26049998Y-26764204D01*
X26049998Y-26764204D02*
X26073808Y-26811823D01*
X26073808Y-26811823D02*
X26073808Y-26930871D01*
X26073808Y-26930871D02*
X26049998Y-26978490D01*
X26049998Y-26978490D02*
X26026189Y-27002300D01*
X26026189Y-27002300D02*
X25978570Y-27026109D01*
X25978570Y-27026109D02*
X25859522Y-27026109D01*
X25859522Y-27026109D02*
X25811903Y-27002300D01*
X25811903Y-27002300D02*
X25788094Y-26978490D01*
X2385715Y-15158085D02*
X2471429Y-15186657D01*
X2471429Y-15186657D02*
X2500000Y-15215228D01*
X2500000Y-15215228D02*
X2528572Y-15272371D01*
X2528572Y-15272371D02*
X2528572Y-15358085D01*
X2528572Y-15358085D02*
X2500000Y-15415228D01*
X2500000Y-15415228D02*
X2471429Y-15443800D01*
X2471429Y-15443800D02*
X2414286Y-15472371D01*
X2414286Y-15472371D02*
X2185715Y-15472371D01*
X2185715Y-15472371D02*
X2185715Y-14872371D01*
X2185715Y-14872371D02*
X2385715Y-14872371D01*
X2385715Y-14872371D02*
X2442858Y-14900942D01*
X2442858Y-14900942D02*
X2471429Y-14929514D01*
X2471429Y-14929514D02*
X2500000Y-14986657D01*
X2500000Y-14986657D02*
X2500000Y-15043800D01*
X2500000Y-15043800D02*
X2471429Y-15100942D01*
X2471429Y-15100942D02*
X2442858Y-15129514D01*
X2442858Y-15129514D02*
X2385715Y-15158085D01*
X2385715Y-15158085D02*
X2185715Y-15158085D01*
X2785715Y-15158085D02*
X2985715Y-15158085D01*
X3071429Y-15472371D02*
X2785715Y-15472371D01*
X2785715Y-15472371D02*
X2785715Y-14872371D01*
X2785715Y-14872371D02*
X3071429Y-14872371D01*
X3328572Y-15472371D02*
X3328572Y-14872371D01*
X3328572Y-14872371D02*
X3671429Y-15472371D01*
X3671429Y-15472371D02*
X3671429Y-14872371D01*
X3957143Y-15472371D02*
X3957143Y-14872371D01*
X3957143Y-14872371D02*
X4100000Y-14872371D01*
X4100000Y-14872371D02*
X4185714Y-14900942D01*
X4185714Y-14900942D02*
X4242857Y-14958085D01*
X4242857Y-14958085D02*
X4271428Y-15015228D01*
X4271428Y-15015228D02*
X4300000Y-15129514D01*
X4300000Y-15129514D02*
X4300000Y-15215228D01*
X4300000Y-15215228D02*
X4271428Y-15329514D01*
X4271428Y-15329514D02*
X4242857Y-15386657D01*
X4242857Y-15386657D02*
X4185714Y-15443800D01*
X4185714Y-15443800D02*
X4100000Y-15472371D01*
X4100000Y-15472371D02*
X3957143Y-15472371D01*
X5357143Y-15472371D02*
X5157143Y-15186657D01*
X5014286Y-15472371D02*
X5014286Y-14872371D01*
X5014286Y-14872371D02*
X5242857Y-14872371D01*
X5242857Y-14872371D02*
X5300000Y-14900942D01*
X5300000Y-14900942D02*
X5328571Y-14929514D01*
X5328571Y-14929514D02*
X5357143Y-14986657D01*
X5357143Y-14986657D02*
X5357143Y-15072371D01*
X5357143Y-15072371D02*
X5328571Y-15129514D01*
X5328571Y-15129514D02*
X5300000Y-15158085D01*
X5300000Y-15158085D02*
X5242857Y-15186657D01*
X5242857Y-15186657D02*
X5014286Y-15186657D01*
X5614286Y-15072371D02*
X6071429Y-15243800D01*
X6071429Y-15243800D02*
X5614286Y-15415228D01*
X6357143Y-15158085D02*
X6814286Y-15158085D01*
X6814286Y-15329514D02*
X6357143Y-15329514D01*
X7414285Y-15472371D02*
X7071428Y-15472371D01*
X7242857Y-15472371D02*
X7242857Y-14872371D01*
X7242857Y-14872371D02*
X7185714Y-14958085D01*
X7185714Y-14958085D02*
X7128571Y-15015228D01*
X7128571Y-15015228D02*
X7071428Y-15043800D01*
X7671429Y-15415228D02*
X7700000Y-15443800D01*
X7700000Y-15443800D02*
X7671429Y-15472371D01*
X7671429Y-15472371D02*
X7642857Y-15443800D01*
X7642857Y-15443800D02*
X7671429Y-15415228D01*
X7671429Y-15415228D02*
X7671429Y-15472371D01*
X8242857Y-14872371D02*
X7957143Y-14872371D01*
X7957143Y-14872371D02*
X7928571Y-15158085D01*
X7928571Y-15158085D02*
X7957143Y-15129514D01*
X7957143Y-15129514D02*
X8014286Y-15100942D01*
X8014286Y-15100942D02*
X8157143Y-15100942D01*
X8157143Y-15100942D02*
X8214286Y-15129514D01*
X8214286Y-15129514D02*
X8242857Y-15158085D01*
X8242857Y-15158085D02*
X8271428Y-15215228D01*
X8271428Y-15215228D02*
X8271428Y-15358085D01*
X8271428Y-15358085D02*
X8242857Y-15415228D01*
X8242857Y-15415228D02*
X8214286Y-15443800D01*
X8214286Y-15443800D02*
X8157143Y-15472371D01*
X8157143Y-15472371D02*
X8014286Y-15472371D01*
X8014286Y-15472371D02*
X7957143Y-15443800D01*
X7957143Y-15443800D02*
X7928571Y-15415228D01*
X8985715Y-15472371D02*
X8985715Y-14872371D01*
X8985715Y-14872371D02*
X9328572Y-15472371D01*
X9328572Y-15472371D02*
X9328572Y-14872371D01*
X9728571Y-14872371D02*
X9842857Y-14872371D01*
X9842857Y-14872371D02*
X9900000Y-14900942D01*
X9900000Y-14900942D02*
X9957143Y-14958085D01*
X9957143Y-14958085D02*
X9985714Y-15072371D01*
X9985714Y-15072371D02*
X9985714Y-15272371D01*
X9985714Y-15272371D02*
X9957143Y-15386657D01*
X9957143Y-15386657D02*
X9900000Y-15443800D01*
X9900000Y-15443800D02*
X9842857Y-15472371D01*
X9842857Y-15472371D02*
X9728571Y-15472371D01*
X9728571Y-15472371D02*
X9671429Y-15443800D01*
X9671429Y-15443800D02*
X9614286Y-15386657D01*
X9614286Y-15386657D02*
X9585714Y-15272371D01*
X9585714Y-15272371D02*
X9585714Y-15072371D01*
X9585714Y-15072371D02*
X9614286Y-14958085D01*
X9614286Y-14958085D02*
X9671429Y-14900942D01*
X9671429Y-14900942D02*
X9728571Y-14872371D01*
X10614285Y-14872371D02*
X10814285Y-15472371D01*
X10814285Y-15472371D02*
X11014285Y-14872371D01*
X11214286Y-15472371D02*
X11214286Y-14872371D01*
X11471428Y-15300942D02*
X11757143Y-15300942D01*
X11414285Y-15472371D02*
X11614285Y-14872371D01*
X11614285Y-14872371D02*
X11814285Y-15472371D01*
X12442857Y-14843800D02*
X11928571Y-15615228D01*
X12642857Y-15472371D02*
X12642857Y-14872371D01*
X12642857Y-14872371D02*
X12871428Y-14872371D01*
X12871428Y-14872371D02*
X12928571Y-14900942D01*
X12928571Y-14900942D02*
X12957142Y-14929514D01*
X12957142Y-14929514D02*
X12985714Y-14986657D01*
X12985714Y-14986657D02*
X12985714Y-15072371D01*
X12985714Y-15072371D02*
X12957142Y-15129514D01*
X12957142Y-15129514D02*
X12928571Y-15158085D01*
X12928571Y-15158085D02*
X12871428Y-15186657D01*
X12871428Y-15186657D02*
X12642857Y-15186657D01*
X13214285Y-15300942D02*
X13500000Y-15300942D01*
X13157142Y-15472371D02*
X13357142Y-14872371D01*
X13357142Y-14872371D02*
X13557142Y-15472371D01*
X14100000Y-15472371D02*
X13900000Y-15186657D01*
X13757143Y-15472371D02*
X13757143Y-14872371D01*
X13757143Y-14872371D02*
X13985714Y-14872371D01*
X13985714Y-14872371D02*
X14042857Y-14900942D01*
X14042857Y-14900942D02*
X14071428Y-14929514D01*
X14071428Y-14929514D02*
X14100000Y-14986657D01*
X14100000Y-14986657D02*
X14100000Y-15072371D01*
X14100000Y-15072371D02*
X14071428Y-15129514D01*
X14071428Y-15129514D02*
X14042857Y-15158085D01*
X14042857Y-15158085D02*
X13985714Y-15186657D01*
X13985714Y-15186657D02*
X13757143Y-15186657D01*
X14271428Y-14872371D02*
X14614286Y-14872371D01*
X14442857Y-15472371D02*
X14442857Y-14872371D01*
X15242857Y-14843800D02*
X14728571Y-15615228D01*
X15414285Y-15443800D02*
X15500000Y-15472371D01*
X15500000Y-15472371D02*
X15642857Y-15472371D01*
X15642857Y-15472371D02*
X15700000Y-15443800D01*
X15700000Y-15443800D02*
X15728571Y-15415228D01*
X15728571Y-15415228D02*
X15757142Y-15358085D01*
X15757142Y-15358085D02*
X15757142Y-15300942D01*
X15757142Y-15300942D02*
X15728571Y-15243800D01*
X15728571Y-15243800D02*
X15700000Y-15215228D01*
X15700000Y-15215228D02*
X15642857Y-15186657D01*
X15642857Y-15186657D02*
X15528571Y-15158085D01*
X15528571Y-15158085D02*
X15471428Y-15129514D01*
X15471428Y-15129514D02*
X15442857Y-15100942D01*
X15442857Y-15100942D02*
X15414285Y-15043800D01*
X15414285Y-15043800D02*
X15414285Y-14986657D01*
X15414285Y-14986657D02*
X15442857Y-14929514D01*
X15442857Y-14929514D02*
X15471428Y-14900942D01*
X15471428Y-14900942D02*
X15528571Y-14872371D01*
X15528571Y-14872371D02*
X15671428Y-14872371D01*
X15671428Y-14872371D02*
X15757142Y-14900942D01*
X15928571Y-14872371D02*
X16271429Y-14872371D01*
X16100000Y-15472371D02*
X16100000Y-14872371D01*
X16471429Y-15472371D02*
X16471429Y-14872371D01*
X16957143Y-15158085D02*
X16757143Y-15158085D01*
X16757143Y-15472371D02*
X16757143Y-14872371D01*
X16757143Y-14872371D02*
X17042857Y-14872371D01*
X17471429Y-15158085D02*
X17271429Y-15158085D01*
X17271429Y-15472371D02*
X17271429Y-14872371D01*
X17271429Y-14872371D02*
X17557143Y-14872371D01*
X17785715Y-15158085D02*
X17985715Y-15158085D01*
X18071429Y-15472371D02*
X17785715Y-15472371D01*
X17785715Y-15472371D02*
X17785715Y-14872371D01*
X17785715Y-14872371D02*
X18071429Y-14872371D01*
X18328572Y-15472371D02*
X18328572Y-14872371D01*
X18328572Y-14872371D02*
X18671429Y-15472371D01*
X18671429Y-15472371D02*
X18671429Y-14872371D01*
X18957143Y-15158085D02*
X19157143Y-15158085D01*
X19242857Y-15472371D02*
X18957143Y-15472371D01*
X18957143Y-15472371D02*
X18957143Y-14872371D01*
X18957143Y-14872371D02*
X19242857Y-14872371D01*
X19842857Y-15472371D02*
X19642857Y-15186657D01*
X19500000Y-15472371D02*
X19500000Y-14872371D01*
X19500000Y-14872371D02*
X19728571Y-14872371D01*
X19728571Y-14872371D02*
X19785714Y-14900942D01*
X19785714Y-14900942D02*
X19814285Y-14929514D01*
X19814285Y-14929514D02*
X19842857Y-14986657D01*
X19842857Y-14986657D02*
X19842857Y-15072371D01*
X19842857Y-15072371D02*
X19814285Y-15129514D01*
X19814285Y-15129514D02*
X19785714Y-15158085D01*
X19785714Y-15158085D02*
X19728571Y-15186657D01*
X19728571Y-15186657D02*
X19500000Y-15186657D01*
M02*
