%TF.GenerationSoftware,KiCad,Pcbnew,10.0.6*%
%TF.CreationDate,2026-09-17T21:07:23-04:00*%
%TF.ProjectId,elicio-v2,656c6963-696f-42d7-9632-2e6b69636164,rev?*%
%TF.SameCoordinates,Original*%
%TF.FileFunction,Legend,Top*%
%TF.FilePolarity,Positive*%
%FSLAX46Y46*%
G04 Gerber Fmt 4.6, Leading zero omitted, Abs format (unit mm)*
G04 Created by KiCad (PCBNEW 10.0.6) date 2026-09-17 21:07:23*
%MOMM*%
%LPD*%
G01*
G04 APERTURE LIST*
%ADD10C,0.120000*%
%ADD11C,0.150000*%
%ADD12C,0.100000*%
G04 APERTURE END LIST*
D10*
X-6716666Y-26717593D02*
X-6716666Y-26017593D01*
X-6716666Y-26017593D02*
X-6449999Y-26017593D01*
X-6449999Y-26017593D02*
X-6383333Y-26050926D01*
X-6383333Y-26050926D02*
X-6349999Y-26084260D01*
X-6349999Y-26084260D02*
X-6316666Y-26150926D01*
X-6316666Y-26150926D02*
X-6316666Y-26250926D01*
X-6316666Y-26250926D02*
X-6349999Y-26317593D01*
X-6349999Y-26317593D02*
X-6383333Y-26350926D01*
X-6383333Y-26350926D02*
X-6449999Y-26384260D01*
X-6449999Y-26384260D02*
X-6716666Y-26384260D01*
X-5649999Y-26717593D02*
X-6049999Y-26717593D01*
X-5849999Y-26717593D02*
X-5849999Y-26017593D01*
X-5849999Y-26017593D02*
X-5916666Y-26117593D01*
X-5916666Y-26117593D02*
X-5983333Y-26184260D01*
X-5983333Y-26184260D02*
X-6049999Y-26217593D01*
X-4849999Y-26684260D02*
X-4749999Y-26717593D01*
X-4749999Y-26717593D02*
X-4583333Y-26717593D01*
X-4583333Y-26717593D02*
X-4516666Y-26684260D01*
X-4516666Y-26684260D02*
X-4483333Y-26650926D01*
X-4483333Y-26650926D02*
X-4449999Y-26584260D01*
X-4449999Y-26584260D02*
X-4449999Y-26517593D01*
X-4449999Y-26517593D02*
X-4483333Y-26450926D01*
X-4483333Y-26450926D02*
X-4516666Y-26417593D01*
X-4516666Y-26417593D02*
X-4583333Y-26384260D01*
X-4583333Y-26384260D02*
X-4716666Y-26350926D01*
X-4716666Y-26350926D02*
X-4783333Y-26317593D01*
X-4783333Y-26317593D02*
X-4816666Y-26284260D01*
X-4816666Y-26284260D02*
X-4849999Y-26217593D01*
X-4849999Y-26217593D02*
X-4849999Y-26150926D01*
X-4849999Y-26150926D02*
X-4816666Y-26084260D01*
X-4816666Y-26084260D02*
X-4783333Y-26050926D01*
X-4783333Y-26050926D02*
X-4716666Y-26017593D01*
X-4716666Y-26017593D02*
X-4549999Y-26017593D01*
X-4549999Y-26017593D02*
X-4449999Y-26050926D01*
X-4149999Y-26717593D02*
X-4149999Y-26017593D01*
X-3449999Y-26050926D02*
X-3516666Y-26017593D01*
X-3516666Y-26017593D02*
X-3616666Y-26017593D01*
X-3616666Y-26017593D02*
X-3716666Y-26050926D01*
X-3716666Y-26050926D02*
X-3783333Y-26117593D01*
X-3783333Y-26117593D02*
X-3816666Y-26184260D01*
X-3816666Y-26184260D02*
X-3849999Y-26317593D01*
X-3849999Y-26317593D02*
X-3849999Y-26417593D01*
X-3849999Y-26417593D02*
X-3816666Y-26550926D01*
X-3816666Y-26550926D02*
X-3783333Y-26617593D01*
X-3783333Y-26617593D02*
X-3716666Y-26684260D01*
X-3716666Y-26684260D02*
X-3616666Y-26717593D01*
X-3616666Y-26717593D02*
X-3549999Y-26717593D01*
X-3549999Y-26717593D02*
X-3449999Y-26684260D01*
X-3449999Y-26684260D02*
X-3416666Y-26650926D01*
X-3416666Y-26650926D02*
X-3416666Y-26417593D01*
X-3416666Y-26417593D02*
X-3549999Y-26417593D01*
X-2749999Y-26717593D02*
X-3149999Y-26717593D01*
X-2949999Y-26717593D02*
X-2949999Y-26017593D01*
X-2949999Y-26017593D02*
X-3016666Y-26117593D01*
X-3016666Y-26117593D02*
X-3083333Y-26184260D01*
X-3083333Y-26184260D02*
X-3149999Y-26217593D01*
X5150000Y7182406D02*
X5150000Y6615740D01*
X5150000Y6615740D02*
X5183334Y6549073D01*
X5183334Y6549073D02*
X5216667Y6515740D01*
X5216667Y6515740D02*
X5283334Y6482406D01*
X5283334Y6482406D02*
X5416667Y6482406D01*
X5416667Y6482406D02*
X5483334Y6515740D01*
X5483334Y6515740D02*
X5516667Y6549073D01*
X5516667Y6549073D02*
X5550000Y6615740D01*
X5550000Y6615740D02*
X5550000Y7182406D01*
X5850000Y6515740D02*
X5950000Y6482406D01*
X5950000Y6482406D02*
X6116667Y6482406D01*
X6116667Y6482406D02*
X6183333Y6515740D01*
X6183333Y6515740D02*
X6216667Y6549073D01*
X6216667Y6549073D02*
X6250000Y6615740D01*
X6250000Y6615740D02*
X6250000Y6682406D01*
X6250000Y6682406D02*
X6216667Y6749073D01*
X6216667Y6749073D02*
X6183333Y6782406D01*
X6183333Y6782406D02*
X6116667Y6815740D01*
X6116667Y6815740D02*
X5983333Y6849073D01*
X5983333Y6849073D02*
X5916667Y6882406D01*
X5916667Y6882406D02*
X5883333Y6915740D01*
X5883333Y6915740D02*
X5850000Y6982406D01*
X5850000Y6982406D02*
X5850000Y7049073D01*
X5850000Y7049073D02*
X5883333Y7115740D01*
X5883333Y7115740D02*
X5916667Y7149073D01*
X5916667Y7149073D02*
X5983333Y7182406D01*
X5983333Y7182406D02*
X6150000Y7182406D01*
X6150000Y7182406D02*
X6250000Y7149073D01*
X6783334Y6849073D02*
X6883334Y6815740D01*
X6883334Y6815740D02*
X6916667Y6782406D01*
X6916667Y6782406D02*
X6950000Y6715740D01*
X6950000Y6715740D02*
X6950000Y6615740D01*
X6950000Y6615740D02*
X6916667Y6549073D01*
X6916667Y6549073D02*
X6883334Y6515740D01*
X6883334Y6515740D02*
X6816667Y6482406D01*
X6816667Y6482406D02*
X6550000Y6482406D01*
X6550000Y6482406D02*
X6550000Y7182406D01*
X6550000Y7182406D02*
X6783334Y7182406D01*
X6783334Y7182406D02*
X6850000Y7149073D01*
X6850000Y7149073D02*
X6883334Y7115740D01*
X6883334Y7115740D02*
X6916667Y7049073D01*
X6916667Y7049073D02*
X6916667Y6982406D01*
X6916667Y6982406D02*
X6883334Y6915740D01*
X6883334Y6915740D02*
X6850000Y6882406D01*
X6850000Y6882406D02*
X6783334Y6849073D01*
X6783334Y6849073D02*
X6550000Y6849073D01*
X7250000Y6749073D02*
X7783334Y6749073D01*
X8516667Y6549073D02*
X8483334Y6515740D01*
X8483334Y6515740D02*
X8383334Y6482406D01*
X8383334Y6482406D02*
X8316667Y6482406D01*
X8316667Y6482406D02*
X8216667Y6515740D01*
X8216667Y6515740D02*
X8150001Y6582406D01*
X8150001Y6582406D02*
X8116667Y6649073D01*
X8116667Y6649073D02*
X8083334Y6782406D01*
X8083334Y6782406D02*
X8083334Y6882406D01*
X8083334Y6882406D02*
X8116667Y7015740D01*
X8116667Y7015740D02*
X8150001Y7082406D01*
X8150001Y7082406D02*
X8216667Y7149073D01*
X8216667Y7149073D02*
X8316667Y7182406D01*
X8316667Y7182406D02*
X8383334Y7182406D01*
X8383334Y7182406D02*
X8483334Y7149073D01*
X8483334Y7149073D02*
X8516667Y7115740D01*
X9350000Y6482406D02*
X9350000Y7182406D01*
X9350000Y6849073D02*
X9750000Y6849073D01*
X9750000Y6482406D02*
X9750000Y7182406D01*
X10216667Y7182406D02*
X10350000Y7182406D01*
X10350000Y7182406D02*
X10416667Y7149073D01*
X10416667Y7149073D02*
X10483333Y7082406D01*
X10483333Y7082406D02*
X10516667Y6949073D01*
X10516667Y6949073D02*
X10516667Y6715740D01*
X10516667Y6715740D02*
X10483333Y6582406D01*
X10483333Y6582406D02*
X10416667Y6515740D01*
X10416667Y6515740D02*
X10350000Y6482406D01*
X10350000Y6482406D02*
X10216667Y6482406D01*
X10216667Y6482406D02*
X10150000Y6515740D01*
X10150000Y6515740D02*
X10083333Y6582406D01*
X10083333Y6582406D02*
X10050000Y6715740D01*
X10050000Y6715740D02*
X10050000Y6949073D01*
X10050000Y6949073D02*
X10083333Y7082406D01*
X10083333Y7082406D02*
X10150000Y7149073D01*
X10150000Y7149073D02*
X10216667Y7182406D01*
X10950000Y7182406D02*
X11083333Y7182406D01*
X11083333Y7182406D02*
X11150000Y7149073D01*
X11150000Y7149073D02*
X11216666Y7082406D01*
X11216666Y7082406D02*
X11250000Y6949073D01*
X11250000Y6949073D02*
X11250000Y6715740D01*
X11250000Y6715740D02*
X11216666Y6582406D01*
X11216666Y6582406D02*
X11150000Y6515740D01*
X11150000Y6515740D02*
X11083333Y6482406D01*
X11083333Y6482406D02*
X10950000Y6482406D01*
X10950000Y6482406D02*
X10883333Y6515740D01*
X10883333Y6515740D02*
X10816666Y6582406D01*
X10816666Y6582406D02*
X10783333Y6715740D01*
X10783333Y6715740D02*
X10783333Y6949073D01*
X10783333Y6949073D02*
X10816666Y7082406D01*
X10816666Y7082406D02*
X10883333Y7149073D01*
X10883333Y7149073D02*
X10950000Y7182406D01*
X11549999Y6482406D02*
X11549999Y7182406D01*
X11949999Y6482406D02*
X11649999Y6882406D01*
X11949999Y7182406D02*
X11549999Y6782406D01*
X12249999Y6749073D02*
X12783333Y6749073D01*
X13116666Y6849073D02*
X13350000Y6849073D01*
X13450000Y6482406D02*
X13116666Y6482406D01*
X13116666Y6482406D02*
X13116666Y7182406D01*
X13116666Y7182406D02*
X13450000Y7182406D01*
X13749999Y6482406D02*
X13749999Y7182406D01*
X13749999Y7182406D02*
X14149999Y6482406D01*
X14149999Y6482406D02*
X14149999Y7182406D01*
X14483332Y6482406D02*
X14483332Y7182406D01*
X14483332Y7182406D02*
X14649999Y7182406D01*
X14649999Y7182406D02*
X14749999Y7149073D01*
X14749999Y7149073D02*
X14816666Y7082406D01*
X14816666Y7082406D02*
X14849999Y7015740D01*
X14849999Y7015740D02*
X14883332Y6882406D01*
X14883332Y6882406D02*
X14883332Y6782406D01*
X14883332Y6782406D02*
X14849999Y6649073D01*
X14849999Y6649073D02*
X14816666Y6582406D01*
X14816666Y6582406D02*
X14749999Y6515740D01*
X14749999Y6515740D02*
X14649999Y6482406D01*
X14649999Y6482406D02*
X14483332Y6482406D01*
X3866669Y-30317593D02*
X4200002Y-30317593D01*
X3800002Y-30517593D02*
X4033336Y-29817593D01*
X4033336Y-29817593D02*
X4266669Y-30517593D01*
X4500002Y-30517593D02*
X4500002Y-29817593D01*
X4500002Y-29817593D02*
X4900002Y-30517593D01*
X4900002Y-30517593D02*
X4900002Y-29817593D01*
X5133335Y-29817593D02*
X5533335Y-29817593D01*
X5333335Y-30517593D02*
X5333335Y-29817593D01*
X5766668Y-30150926D02*
X6000002Y-30150926D01*
X6100002Y-30517593D02*
X5766668Y-30517593D01*
X5766668Y-30517593D02*
X5766668Y-29817593D01*
X5766668Y-29817593D02*
X6100002Y-29817593D01*
X6400001Y-30517593D02*
X6400001Y-29817593D01*
X6400001Y-29817593D02*
X6800001Y-30517593D01*
X6800001Y-30517593D02*
X6800001Y-29817593D01*
X7133334Y-30517593D02*
X7133334Y-29817593D01*
X7133334Y-29817593D02*
X7533334Y-30517593D01*
X7533334Y-30517593D02*
X7533334Y-29817593D01*
X7833334Y-30317593D02*
X8166667Y-30317593D01*
X7766667Y-30517593D02*
X8000001Y-29817593D01*
X8000001Y-29817593D02*
X8233334Y-30517593D01*
X9500000Y-29784260D02*
X8900000Y-30684260D01*
X10266666Y-30517593D02*
X10266666Y-29817593D01*
X10266666Y-29817593D02*
X10666666Y-30517593D01*
X10666666Y-30517593D02*
X10666666Y-29817593D01*
X11133333Y-29817593D02*
X11266666Y-29817593D01*
X11266666Y-29817593D02*
X11333333Y-29850926D01*
X11333333Y-29850926D02*
X11399999Y-29917593D01*
X11399999Y-29917593D02*
X11433333Y-30050926D01*
X11433333Y-30050926D02*
X11433333Y-30284260D01*
X11433333Y-30284260D02*
X11399999Y-30417593D01*
X11399999Y-30417593D02*
X11333333Y-30484260D01*
X11333333Y-30484260D02*
X11266666Y-30517593D01*
X11266666Y-30517593D02*
X11133333Y-30517593D01*
X11133333Y-30517593D02*
X11066666Y-30484260D01*
X11066666Y-30484260D02*
X10999999Y-30417593D01*
X10999999Y-30417593D02*
X10966666Y-30284260D01*
X10966666Y-30284260D02*
X10966666Y-30050926D01*
X10966666Y-30050926D02*
X10999999Y-29917593D01*
X10999999Y-29917593D02*
X11066666Y-29850926D01*
X11066666Y-29850926D02*
X11133333Y-29817593D01*
X12666665Y-30450926D02*
X12633332Y-30484260D01*
X12633332Y-30484260D02*
X12533332Y-30517593D01*
X12533332Y-30517593D02*
X12466665Y-30517593D01*
X12466665Y-30517593D02*
X12366665Y-30484260D01*
X12366665Y-30484260D02*
X12299999Y-30417593D01*
X12299999Y-30417593D02*
X12266665Y-30350926D01*
X12266665Y-30350926D02*
X12233332Y-30217593D01*
X12233332Y-30217593D02*
X12233332Y-30117593D01*
X12233332Y-30117593D02*
X12266665Y-29984260D01*
X12266665Y-29984260D02*
X12299999Y-29917593D01*
X12299999Y-29917593D02*
X12366665Y-29850926D01*
X12366665Y-29850926D02*
X12466665Y-29817593D01*
X12466665Y-29817593D02*
X12533332Y-29817593D01*
X12533332Y-29817593D02*
X12633332Y-29850926D01*
X12633332Y-29850926D02*
X12666665Y-29884260D01*
X13099999Y-29817593D02*
X13233332Y-29817593D01*
X13233332Y-29817593D02*
X13299999Y-29850926D01*
X13299999Y-29850926D02*
X13366665Y-29917593D01*
X13366665Y-29917593D02*
X13399999Y-30050926D01*
X13399999Y-30050926D02*
X13399999Y-30284260D01*
X13399999Y-30284260D02*
X13366665Y-30417593D01*
X13366665Y-30417593D02*
X13299999Y-30484260D01*
X13299999Y-30484260D02*
X13233332Y-30517593D01*
X13233332Y-30517593D02*
X13099999Y-30517593D01*
X13099999Y-30517593D02*
X13033332Y-30484260D01*
X13033332Y-30484260D02*
X12966665Y-30417593D01*
X12966665Y-30417593D02*
X12933332Y-30284260D01*
X12933332Y-30284260D02*
X12933332Y-30050926D01*
X12933332Y-30050926D02*
X12966665Y-29917593D01*
X12966665Y-29917593D02*
X13033332Y-29850926D01*
X13033332Y-29850926D02*
X13099999Y-29817593D01*
X13699998Y-30517593D02*
X13699998Y-29817593D01*
X13699998Y-29817593D02*
X13966665Y-29817593D01*
X13966665Y-29817593D02*
X14033332Y-29850926D01*
X14033332Y-29850926D02*
X14066665Y-29884260D01*
X14066665Y-29884260D02*
X14099998Y-29950926D01*
X14099998Y-29950926D02*
X14099998Y-30050926D01*
X14099998Y-30050926D02*
X14066665Y-30117593D01*
X14066665Y-30117593D02*
X14033332Y-30150926D01*
X14033332Y-30150926D02*
X13966665Y-30184260D01*
X13966665Y-30184260D02*
X13699998Y-30184260D01*
X14399998Y-30517593D02*
X14399998Y-29817593D01*
X14399998Y-29817593D02*
X14666665Y-29817593D01*
X14666665Y-29817593D02*
X14733332Y-29850926D01*
X14733332Y-29850926D02*
X14766665Y-29884260D01*
X14766665Y-29884260D02*
X14799998Y-29950926D01*
X14799998Y-29950926D02*
X14799998Y-30050926D01*
X14799998Y-30050926D02*
X14766665Y-30117593D01*
X14766665Y-30117593D02*
X14733332Y-30150926D01*
X14733332Y-30150926D02*
X14666665Y-30184260D01*
X14666665Y-30184260D02*
X14399998Y-30184260D01*
X15099998Y-30150926D02*
X15333332Y-30150926D01*
X15433332Y-30517593D02*
X15099998Y-30517593D01*
X15099998Y-30517593D02*
X15099998Y-29817593D01*
X15099998Y-29817593D02*
X15433332Y-29817593D01*
X16133331Y-30517593D02*
X15899998Y-30184260D01*
X15733331Y-30517593D02*
X15733331Y-29817593D01*
X15733331Y-29817593D02*
X15999998Y-29817593D01*
X15999998Y-29817593D02*
X16066665Y-29850926D01*
X16066665Y-29850926D02*
X16099998Y-29884260D01*
X16099998Y-29884260D02*
X16133331Y-29950926D01*
X16133331Y-29950926D02*
X16133331Y-30050926D01*
X16133331Y-30050926D02*
X16099998Y-30117593D01*
X16099998Y-30117593D02*
X16066665Y-30150926D01*
X16066665Y-30150926D02*
X15999998Y-30184260D01*
X15999998Y-30184260D02*
X15733331Y-30184260D01*
X11350000Y-43317593D02*
X11350000Y-42617593D01*
X11350000Y-42617593D02*
X11616667Y-42617593D01*
X11616667Y-42617593D02*
X11683334Y-42650926D01*
X11683334Y-42650926D02*
X11716667Y-42684260D01*
X11716667Y-42684260D02*
X11750000Y-42750926D01*
X11750000Y-42750926D02*
X11750000Y-42850926D01*
X11750000Y-42850926D02*
X11716667Y-42917593D01*
X11716667Y-42917593D02*
X11683334Y-42950926D01*
X11683334Y-42950926D02*
X11616667Y-42984260D01*
X11616667Y-42984260D02*
X11350000Y-42984260D01*
X11983334Y-42617593D02*
X12416667Y-42617593D01*
X12416667Y-42617593D02*
X12183334Y-42884260D01*
X12183334Y-42884260D02*
X12283334Y-42884260D01*
X12283334Y-42884260D02*
X12350000Y-42917593D01*
X12350000Y-42917593D02*
X12383334Y-42950926D01*
X12383334Y-42950926D02*
X12416667Y-43017593D01*
X12416667Y-43017593D02*
X12416667Y-43184260D01*
X12416667Y-43184260D02*
X12383334Y-43250926D01*
X12383334Y-43250926D02*
X12350000Y-43284260D01*
X12350000Y-43284260D02*
X12283334Y-43317593D01*
X12283334Y-43317593D02*
X12083334Y-43317593D01*
X12083334Y-43317593D02*
X12016667Y-43284260D01*
X12016667Y-43284260D02*
X11983334Y-43250926D01*
X13650000Y-43317593D02*
X13416667Y-42984260D01*
X13250000Y-43317593D02*
X13250000Y-42617593D01*
X13250000Y-42617593D02*
X13516667Y-42617593D01*
X13516667Y-42617593D02*
X13583334Y-42650926D01*
X13583334Y-42650926D02*
X13616667Y-42684260D01*
X13616667Y-42684260D02*
X13650000Y-42750926D01*
X13650000Y-42750926D02*
X13650000Y-42850926D01*
X13650000Y-42850926D02*
X13616667Y-42917593D01*
X13616667Y-42917593D02*
X13583334Y-42950926D01*
X13583334Y-42950926D02*
X13516667Y-42984260D01*
X13516667Y-42984260D02*
X13250000Y-42984260D01*
X13950000Y-42950926D02*
X14183334Y-42950926D01*
X14283334Y-43317593D02*
X13950000Y-43317593D01*
X13950000Y-43317593D02*
X13950000Y-42617593D01*
X13950000Y-42617593D02*
X14283334Y-42617593D01*
X14816667Y-42950926D02*
X14583333Y-42950926D01*
X14583333Y-43317593D02*
X14583333Y-42617593D01*
X14583333Y-42617593D02*
X14916667Y-42617593D01*
X11150000Y-6017593D02*
X11150000Y-6517593D01*
X11150000Y-6517593D02*
X11116667Y-6617593D01*
X11116667Y-6617593D02*
X11050000Y-6684260D01*
X11050000Y-6684260D02*
X10950000Y-6717593D01*
X10950000Y-6717593D02*
X10883334Y-6717593D01*
X11450000Y-6084260D02*
X11483333Y-6050926D01*
X11483333Y-6050926D02*
X11550000Y-6017593D01*
X11550000Y-6017593D02*
X11716667Y-6017593D01*
X11716667Y-6017593D02*
X11783333Y-6050926D01*
X11783333Y-6050926D02*
X11816667Y-6084260D01*
X11816667Y-6084260D02*
X11850000Y-6150926D01*
X11850000Y-6150926D02*
X11850000Y-6217593D01*
X11850000Y-6217593D02*
X11816667Y-6317593D01*
X11816667Y-6317593D02*
X11416667Y-6717593D01*
X11416667Y-6717593D02*
X11850000Y-6717593D01*
X12916667Y-6350926D02*
X13016667Y-6384260D01*
X13016667Y-6384260D02*
X13050000Y-6417593D01*
X13050000Y-6417593D02*
X13083333Y-6484260D01*
X13083333Y-6484260D02*
X13083333Y-6584260D01*
X13083333Y-6584260D02*
X13050000Y-6650926D01*
X13050000Y-6650926D02*
X13016667Y-6684260D01*
X13016667Y-6684260D02*
X12950000Y-6717593D01*
X12950000Y-6717593D02*
X12683333Y-6717593D01*
X12683333Y-6717593D02*
X12683333Y-6017593D01*
X12683333Y-6017593D02*
X12916667Y-6017593D01*
X12916667Y-6017593D02*
X12983333Y-6050926D01*
X12983333Y-6050926D02*
X13016667Y-6084260D01*
X13016667Y-6084260D02*
X13050000Y-6150926D01*
X13050000Y-6150926D02*
X13050000Y-6217593D01*
X13050000Y-6217593D02*
X13016667Y-6284260D01*
X13016667Y-6284260D02*
X12983333Y-6317593D01*
X12983333Y-6317593D02*
X12916667Y-6350926D01*
X12916667Y-6350926D02*
X12683333Y-6350926D01*
X13350000Y-6517593D02*
X13683333Y-6517593D01*
X13283333Y-6717593D02*
X13516667Y-6017593D01*
X13516667Y-6017593D02*
X13750000Y-6717593D01*
X13883333Y-6017593D02*
X14283333Y-6017593D01*
X14083333Y-6717593D02*
X14083333Y-6017593D01*
X14516666Y-6450926D02*
X15050000Y-6450926D01*
X14783333Y-6717593D02*
X14783333Y-6184260D01*
X15916666Y-6250926D02*
X15916666Y-6950926D01*
X15916666Y-6284260D02*
X15983333Y-6250926D01*
X15983333Y-6250926D02*
X16116666Y-6250926D01*
X16116666Y-6250926D02*
X16183333Y-6284260D01*
X16183333Y-6284260D02*
X16216666Y-6317593D01*
X16216666Y-6317593D02*
X16250000Y-6384260D01*
X16250000Y-6384260D02*
X16250000Y-6584260D01*
X16250000Y-6584260D02*
X16216666Y-6650926D01*
X16216666Y-6650926D02*
X16183333Y-6684260D01*
X16183333Y-6684260D02*
X16116666Y-6717593D01*
X16116666Y-6717593D02*
X15983333Y-6717593D01*
X15983333Y-6717593D02*
X15916666Y-6684260D01*
X16549999Y-6717593D02*
X16549999Y-6250926D01*
X16549999Y-6017593D02*
X16516666Y-6050926D01*
X16516666Y-6050926D02*
X16549999Y-6084260D01*
X16549999Y-6084260D02*
X16583333Y-6050926D01*
X16583333Y-6050926D02*
X16549999Y-6017593D01*
X16549999Y-6017593D02*
X16549999Y-6084260D01*
X16883332Y-6250926D02*
X16883332Y-6717593D01*
X16883332Y-6317593D02*
X16916666Y-6284260D01*
X16916666Y-6284260D02*
X16983332Y-6250926D01*
X16983332Y-6250926D02*
X17083332Y-6250926D01*
X17083332Y-6250926D02*
X17149999Y-6284260D01*
X17149999Y-6284260D02*
X17183332Y-6350926D01*
X17183332Y-6350926D02*
X17183332Y-6717593D01*
X17883332Y-6717593D02*
X17483332Y-6717593D01*
X17683332Y-6717593D02*
X17683332Y-6017593D01*
X17683332Y-6017593D02*
X17616665Y-6117593D01*
X17616665Y-6117593D02*
X17549999Y-6184260D01*
X17549999Y-6184260D02*
X17483332Y-6217593D01*
X22783333Y-37817593D02*
X22783333Y-37117593D01*
X22783333Y-37117593D02*
X23050000Y-37117593D01*
X23050000Y-37117593D02*
X23116667Y-37150926D01*
X23116667Y-37150926D02*
X23150000Y-37184260D01*
X23150000Y-37184260D02*
X23183333Y-37250926D01*
X23183333Y-37250926D02*
X23183333Y-37350926D01*
X23183333Y-37350926D02*
X23150000Y-37417593D01*
X23150000Y-37417593D02*
X23116667Y-37450926D01*
X23116667Y-37450926D02*
X23050000Y-37484260D01*
X23050000Y-37484260D02*
X22783333Y-37484260D01*
X23450000Y-37184260D02*
X23483333Y-37150926D01*
X23483333Y-37150926D02*
X23550000Y-37117593D01*
X23550000Y-37117593D02*
X23716667Y-37117593D01*
X23716667Y-37117593D02*
X23783333Y-37150926D01*
X23783333Y-37150926D02*
X23816667Y-37184260D01*
X23816667Y-37184260D02*
X23850000Y-37250926D01*
X23850000Y-37250926D02*
X23850000Y-37317593D01*
X23850000Y-37317593D02*
X23816667Y-37417593D01*
X23816667Y-37417593D02*
X23416667Y-37817593D01*
X23416667Y-37817593D02*
X23850000Y-37817593D01*
X24650000Y-37784260D02*
X24750000Y-37817593D01*
X24750000Y-37817593D02*
X24916667Y-37817593D01*
X24916667Y-37817593D02*
X24983333Y-37784260D01*
X24983333Y-37784260D02*
X25016667Y-37750926D01*
X25016667Y-37750926D02*
X25050000Y-37684260D01*
X25050000Y-37684260D02*
X25050000Y-37617593D01*
X25050000Y-37617593D02*
X25016667Y-37550926D01*
X25016667Y-37550926D02*
X24983333Y-37517593D01*
X24983333Y-37517593D02*
X24916667Y-37484260D01*
X24916667Y-37484260D02*
X24783333Y-37450926D01*
X24783333Y-37450926D02*
X24716667Y-37417593D01*
X24716667Y-37417593D02*
X24683333Y-37384260D01*
X24683333Y-37384260D02*
X24650000Y-37317593D01*
X24650000Y-37317593D02*
X24650000Y-37250926D01*
X24650000Y-37250926D02*
X24683333Y-37184260D01*
X24683333Y-37184260D02*
X24716667Y-37150926D01*
X24716667Y-37150926D02*
X24783333Y-37117593D01*
X24783333Y-37117593D02*
X24950000Y-37117593D01*
X24950000Y-37117593D02*
X25050000Y-37150926D01*
X25350000Y-37817593D02*
X25350000Y-37117593D01*
X26050000Y-37150926D02*
X25983333Y-37117593D01*
X25983333Y-37117593D02*
X25883333Y-37117593D01*
X25883333Y-37117593D02*
X25783333Y-37150926D01*
X25783333Y-37150926D02*
X25716667Y-37217593D01*
X25716667Y-37217593D02*
X25683333Y-37284260D01*
X25683333Y-37284260D02*
X25650000Y-37417593D01*
X25650000Y-37417593D02*
X25650000Y-37517593D01*
X25650000Y-37517593D02*
X25683333Y-37650926D01*
X25683333Y-37650926D02*
X25716667Y-37717593D01*
X25716667Y-37717593D02*
X25783333Y-37784260D01*
X25783333Y-37784260D02*
X25883333Y-37817593D01*
X25883333Y-37817593D02*
X25950000Y-37817593D01*
X25950000Y-37817593D02*
X26050000Y-37784260D01*
X26050000Y-37784260D02*
X26083333Y-37750926D01*
X26083333Y-37750926D02*
X26083333Y-37517593D01*
X26083333Y-37517593D02*
X25950000Y-37517593D01*
X26350000Y-37184260D02*
X26383333Y-37150926D01*
X26383333Y-37150926D02*
X26450000Y-37117593D01*
X26450000Y-37117593D02*
X26616667Y-37117593D01*
X26616667Y-37117593D02*
X26683333Y-37150926D01*
X26683333Y-37150926D02*
X26716667Y-37184260D01*
X26716667Y-37184260D02*
X26750000Y-37250926D01*
X26750000Y-37250926D02*
X26750000Y-37317593D01*
X26750000Y-37317593D02*
X26716667Y-37417593D01*
X26716667Y-37417593D02*
X26316667Y-37817593D01*
X26316667Y-37817593D02*
X26750000Y-37817593D01*
D11*
X10438095Y-17374819D02*
X10438095Y-18184342D01*
X10438095Y-18184342D02*
X10485714Y-18279580D01*
X10485714Y-18279580D02*
X10533333Y-18327200D01*
X10533333Y-18327200D02*
X10628571Y-18374819D01*
X10628571Y-18374819D02*
X10819047Y-18374819D01*
X10819047Y-18374819D02*
X10914285Y-18327200D01*
X10914285Y-18327200D02*
X10961904Y-18279580D01*
X10961904Y-18279580D02*
X11009523Y-18184342D01*
X11009523Y-18184342D02*
X11009523Y-17374819D01*
X11438095Y-17470057D02*
X11485714Y-17422438D01*
X11485714Y-17422438D02*
X11580952Y-17374819D01*
X11580952Y-17374819D02*
X11819047Y-17374819D01*
X11819047Y-17374819D02*
X11914285Y-17422438D01*
X11914285Y-17422438D02*
X11961904Y-17470057D01*
X11961904Y-17470057D02*
X12009523Y-17565295D01*
X12009523Y-17565295D02*
X12009523Y-17660533D01*
X12009523Y-17660533D02*
X11961904Y-17803390D01*
X11961904Y-17803390D02*
X11390476Y-18374819D01*
X11390476Y-18374819D02*
X12009523Y-18374819D01*
X13061905Y6045180D02*
X13061905Y7045180D01*
X13061905Y7045180D02*
X13300000Y7045180D01*
X13300000Y7045180D02*
X13442857Y6997561D01*
X13442857Y6997561D02*
X13538095Y6902323D01*
X13538095Y6902323D02*
X13585714Y6807085D01*
X13585714Y6807085D02*
X13633333Y6616609D01*
X13633333Y6616609D02*
X13633333Y6473752D01*
X13633333Y6473752D02*
X13585714Y6283276D01*
X13585714Y6283276D02*
X13538095Y6188038D01*
X13538095Y6188038D02*
X13442857Y6092800D01*
X13442857Y6092800D02*
X13300000Y6045180D01*
X13300000Y6045180D02*
X13061905Y6045180D01*
X14585714Y6045180D02*
X14014286Y6045180D01*
X14300000Y6045180D02*
X14300000Y7045180D01*
X14300000Y7045180D02*
X14204762Y6902323D01*
X14204762Y6902323D02*
X14109524Y6807085D01*
X14109524Y6807085D02*
X14014286Y6759466D01*
X16157142Y-6684819D02*
X15823809Y-6208628D01*
X15585714Y-6684819D02*
X15585714Y-5684819D01*
X15585714Y-5684819D02*
X15966666Y-5684819D01*
X15966666Y-5684819D02*
X16061904Y-5732438D01*
X16061904Y-5732438D02*
X16109523Y-5780057D01*
X16109523Y-5780057D02*
X16157142Y-5875295D01*
X16157142Y-5875295D02*
X16157142Y-6018152D01*
X16157142Y-6018152D02*
X16109523Y-6113390D01*
X16109523Y-6113390D02*
X16061904Y-6161009D01*
X16061904Y-6161009D02*
X15966666Y-6208628D01*
X15966666Y-6208628D02*
X15585714Y-6208628D01*
X17109523Y-6684819D02*
X16538095Y-6684819D01*
X16823809Y-6684819D02*
X16823809Y-5684819D01*
X16823809Y-5684819D02*
X16728571Y-5827676D01*
X16728571Y-5827676D02*
X16633333Y-5922914D01*
X16633333Y-5922914D02*
X16538095Y-5970533D01*
X18014285Y-5684819D02*
X17538095Y-5684819D01*
X17538095Y-5684819D02*
X17490476Y-6161009D01*
X17490476Y-6161009D02*
X17538095Y-6113390D01*
X17538095Y-6113390D02*
X17633333Y-6065771D01*
X17633333Y-6065771D02*
X17871428Y-6065771D01*
X17871428Y-6065771D02*
X17966666Y-6113390D01*
X17966666Y-6113390D02*
X18014285Y-6161009D01*
X18014285Y-6161009D02*
X18061904Y-6256247D01*
X18061904Y-6256247D02*
X18061904Y-6494342D01*
X18061904Y-6494342D02*
X18014285Y-6589580D01*
X18014285Y-6589580D02*
X17966666Y-6637200D01*
X17966666Y-6637200D02*
X17871428Y-6684819D01*
X17871428Y-6684819D02*
X17633333Y-6684819D01*
X17633333Y-6684819D02*
X17538095Y-6637200D01*
X17538095Y-6637200D02*
X17490476Y-6589580D01*
X13233333Y-17929580D02*
X13185714Y-17977200D01*
X13185714Y-17977200D02*
X13042857Y-18024819D01*
X13042857Y-18024819D02*
X12947619Y-18024819D01*
X12947619Y-18024819D02*
X12804762Y-17977200D01*
X12804762Y-17977200D02*
X12709524Y-17881961D01*
X12709524Y-17881961D02*
X12661905Y-17786723D01*
X12661905Y-17786723D02*
X12614286Y-17596247D01*
X12614286Y-17596247D02*
X12614286Y-17453390D01*
X12614286Y-17453390D02*
X12661905Y-17262914D01*
X12661905Y-17262914D02*
X12709524Y-17167676D01*
X12709524Y-17167676D02*
X12804762Y-17072438D01*
X12804762Y-17072438D02*
X12947619Y-17024819D01*
X12947619Y-17024819D02*
X13042857Y-17024819D01*
X13042857Y-17024819D02*
X13185714Y-17072438D01*
X13185714Y-17072438D02*
X13233333Y-17120057D01*
X13709524Y-18024819D02*
X13900000Y-18024819D01*
X13900000Y-18024819D02*
X13995238Y-17977200D01*
X13995238Y-17977200D02*
X14042857Y-17929580D01*
X14042857Y-17929580D02*
X14138095Y-17786723D01*
X14138095Y-17786723D02*
X14185714Y-17596247D01*
X14185714Y-17596247D02*
X14185714Y-17215295D01*
X14185714Y-17215295D02*
X14138095Y-17120057D01*
X14138095Y-17120057D02*
X14090476Y-17072438D01*
X14090476Y-17072438D02*
X13995238Y-17024819D01*
X13995238Y-17024819D02*
X13804762Y-17024819D01*
X13804762Y-17024819D02*
X13709524Y-17072438D01*
X13709524Y-17072438D02*
X13661905Y-17120057D01*
X13661905Y-17120057D02*
X13614286Y-17215295D01*
X13614286Y-17215295D02*
X13614286Y-17453390D01*
X13614286Y-17453390D02*
X13661905Y-17548628D01*
X13661905Y-17548628D02*
X13709524Y-17596247D01*
X13709524Y-17596247D02*
X13804762Y-17643866D01*
X13804762Y-17643866D02*
X13995238Y-17643866D01*
X13995238Y-17643866D02*
X14090476Y-17596247D01*
X14090476Y-17596247D02*
X14138095Y-17548628D01*
X14138095Y-17548628D02*
X14185714Y-17453390D01*
X8357142Y-18599580D02*
X8309523Y-18647200D01*
X8309523Y-18647200D02*
X8166666Y-18694819D01*
X8166666Y-18694819D02*
X8071428Y-18694819D01*
X8071428Y-18694819D02*
X7928571Y-18647200D01*
X7928571Y-18647200D02*
X7833333Y-18551961D01*
X7833333Y-18551961D02*
X7785714Y-18456723D01*
X7785714Y-18456723D02*
X7738095Y-18266247D01*
X7738095Y-18266247D02*
X7738095Y-18123390D01*
X7738095Y-18123390D02*
X7785714Y-17932914D01*
X7785714Y-17932914D02*
X7833333Y-17837676D01*
X7833333Y-17837676D02*
X7928571Y-17742438D01*
X7928571Y-17742438D02*
X8071428Y-17694819D01*
X8071428Y-17694819D02*
X8166666Y-17694819D01*
X8166666Y-17694819D02*
X8309523Y-17742438D01*
X8309523Y-17742438D02*
X8357142Y-17790057D01*
X9309523Y-18694819D02*
X8738095Y-18694819D01*
X9023809Y-18694819D02*
X9023809Y-17694819D01*
X9023809Y-17694819D02*
X8928571Y-17837676D01*
X8928571Y-17837676D02*
X8833333Y-17932914D01*
X8833333Y-17932914D02*
X8738095Y-17980533D01*
X9928571Y-17694819D02*
X10023809Y-17694819D01*
X10023809Y-17694819D02*
X10119047Y-17742438D01*
X10119047Y-17742438D02*
X10166666Y-17790057D01*
X10166666Y-17790057D02*
X10214285Y-17885295D01*
X10214285Y-17885295D02*
X10261904Y-18075771D01*
X10261904Y-18075771D02*
X10261904Y-18313866D01*
X10261904Y-18313866D02*
X10214285Y-18504342D01*
X10214285Y-18504342D02*
X10166666Y-18599580D01*
X10166666Y-18599580D02*
X10119047Y-18647200D01*
X10119047Y-18647200D02*
X10023809Y-18694819D01*
X10023809Y-18694819D02*
X9928571Y-18694819D01*
X9928571Y-18694819D02*
X9833333Y-18647200D01*
X9833333Y-18647200D02*
X9785714Y-18599580D01*
X9785714Y-18599580D02*
X9738095Y-18504342D01*
X9738095Y-18504342D02*
X9690476Y-18313866D01*
X9690476Y-18313866D02*
X9690476Y-18075771D01*
X9690476Y-18075771D02*
X9738095Y-17885295D01*
X9738095Y-17885295D02*
X9785714Y-17790057D01*
X9785714Y-17790057D02*
X9833333Y-17742438D01*
X9833333Y-17742438D02*
X9928571Y-17694819D01*
X14866666Y-12654819D02*
X14866666Y-13369104D01*
X14866666Y-13369104D02*
X14819047Y-13511961D01*
X14819047Y-13511961D02*
X14723809Y-13607200D01*
X14723809Y-13607200D02*
X14580952Y-13654819D01*
X14580952Y-13654819D02*
X14485714Y-13654819D01*
X15771428Y-12988152D02*
X15771428Y-13654819D01*
X15533333Y-12607200D02*
X15295238Y-13321485D01*
X15295238Y-13321485D02*
X15914285Y-13321485D01*
X13033333Y-5484819D02*
X12700000Y-5008628D01*
X12461905Y-5484819D02*
X12461905Y-4484819D01*
X12461905Y-4484819D02*
X12842857Y-4484819D01*
X12842857Y-4484819D02*
X12938095Y-4532438D01*
X12938095Y-4532438D02*
X12985714Y-4580057D01*
X12985714Y-4580057D02*
X13033333Y-4675295D01*
X13033333Y-4675295D02*
X13033333Y-4818152D01*
X13033333Y-4818152D02*
X12985714Y-4913390D01*
X12985714Y-4913390D02*
X12938095Y-4961009D01*
X12938095Y-4961009D02*
X12842857Y-5008628D01*
X12842857Y-5008628D02*
X12461905Y-5008628D01*
X13938095Y-4484819D02*
X13461905Y-4484819D01*
X13461905Y-4484819D02*
X13414286Y-4961009D01*
X13414286Y-4961009D02*
X13461905Y-4913390D01*
X13461905Y-4913390D02*
X13557143Y-4865771D01*
X13557143Y-4865771D02*
X13795238Y-4865771D01*
X13795238Y-4865771D02*
X13890476Y-4913390D01*
X13890476Y-4913390D02*
X13938095Y-4961009D01*
X13938095Y-4961009D02*
X13985714Y-5056247D01*
X13985714Y-5056247D02*
X13985714Y-5294342D01*
X13985714Y-5294342D02*
X13938095Y-5389580D01*
X13938095Y-5389580D02*
X13890476Y-5437200D01*
X13890476Y-5437200D02*
X13795238Y-5484819D01*
X13795238Y-5484819D02*
X13557143Y-5484819D01*
X13557143Y-5484819D02*
X13461905Y-5437200D01*
X13461905Y-5437200D02*
X13414286Y-5389580D01*
X15004761Y-14350057D02*
X14909523Y-14302438D01*
X14909523Y-14302438D02*
X14814285Y-14207200D01*
X14814285Y-14207200D02*
X14671428Y-14064342D01*
X14671428Y-14064342D02*
X14576190Y-14016723D01*
X14576190Y-14016723D02*
X14480952Y-14016723D01*
X14528571Y-14254819D02*
X14433333Y-14207200D01*
X14433333Y-14207200D02*
X14338095Y-14111961D01*
X14338095Y-14111961D02*
X14290476Y-13921485D01*
X14290476Y-13921485D02*
X14290476Y-13588152D01*
X14290476Y-13588152D02*
X14338095Y-13397676D01*
X14338095Y-13397676D02*
X14433333Y-13302438D01*
X14433333Y-13302438D02*
X14528571Y-13254819D01*
X14528571Y-13254819D02*
X14719047Y-13254819D01*
X14719047Y-13254819D02*
X14814285Y-13302438D01*
X14814285Y-13302438D02*
X14909523Y-13397676D01*
X14909523Y-13397676D02*
X14957142Y-13588152D01*
X14957142Y-13588152D02*
X14957142Y-13921485D01*
X14957142Y-13921485D02*
X14909523Y-14111961D01*
X14909523Y-14111961D02*
X14814285Y-14207200D01*
X14814285Y-14207200D02*
X14719047Y-14254819D01*
X14719047Y-14254819D02*
X14528571Y-14254819D01*
X15338095Y-13350057D02*
X15385714Y-13302438D01*
X15385714Y-13302438D02*
X15480952Y-13254819D01*
X15480952Y-13254819D02*
X15719047Y-13254819D01*
X15719047Y-13254819D02*
X15814285Y-13302438D01*
X15814285Y-13302438D02*
X15861904Y-13350057D01*
X15861904Y-13350057D02*
X15909523Y-13445295D01*
X15909523Y-13445295D02*
X15909523Y-13540533D01*
X15909523Y-13540533D02*
X15861904Y-13683390D01*
X15861904Y-13683390D02*
X15290476Y-14254819D01*
X15290476Y-14254819D02*
X15909523Y-14254819D01*
X8533333Y-20399580D02*
X8485714Y-20447200D01*
X8485714Y-20447200D02*
X8342857Y-20494819D01*
X8342857Y-20494819D02*
X8247619Y-20494819D01*
X8247619Y-20494819D02*
X8104762Y-20447200D01*
X8104762Y-20447200D02*
X8009524Y-20351961D01*
X8009524Y-20351961D02*
X7961905Y-20256723D01*
X7961905Y-20256723D02*
X7914286Y-20066247D01*
X7914286Y-20066247D02*
X7914286Y-19923390D01*
X7914286Y-19923390D02*
X7961905Y-19732914D01*
X7961905Y-19732914D02*
X8009524Y-19637676D01*
X8009524Y-19637676D02*
X8104762Y-19542438D01*
X8104762Y-19542438D02*
X8247619Y-19494819D01*
X8247619Y-19494819D02*
X8342857Y-19494819D01*
X8342857Y-19494819D02*
X8485714Y-19542438D01*
X8485714Y-19542438D02*
X8533333Y-19590057D01*
X9390476Y-19494819D02*
X9200000Y-19494819D01*
X9200000Y-19494819D02*
X9104762Y-19542438D01*
X9104762Y-19542438D02*
X9057143Y-19590057D01*
X9057143Y-19590057D02*
X8961905Y-19732914D01*
X8961905Y-19732914D02*
X8914286Y-19923390D01*
X8914286Y-19923390D02*
X8914286Y-20304342D01*
X8914286Y-20304342D02*
X8961905Y-20399580D01*
X8961905Y-20399580D02*
X9009524Y-20447200D01*
X9009524Y-20447200D02*
X9104762Y-20494819D01*
X9104762Y-20494819D02*
X9295238Y-20494819D01*
X9295238Y-20494819D02*
X9390476Y-20447200D01*
X9390476Y-20447200D02*
X9438095Y-20399580D01*
X9438095Y-20399580D02*
X9485714Y-20304342D01*
X9485714Y-20304342D02*
X9485714Y-20066247D01*
X9485714Y-20066247D02*
X9438095Y-19971009D01*
X9438095Y-19971009D02*
X9390476Y-19923390D01*
X9390476Y-19923390D02*
X9295238Y-19875771D01*
X9295238Y-19875771D02*
X9104762Y-19875771D01*
X9104762Y-19875771D02*
X9009524Y-19923390D01*
X9009524Y-19923390D02*
X8961905Y-19971009D01*
X8961905Y-19971009D02*
X8914286Y-20066247D01*
X13757142Y-10284819D02*
X13423809Y-9808628D01*
X13185714Y-10284819D02*
X13185714Y-9284819D01*
X13185714Y-9284819D02*
X13566666Y-9284819D01*
X13566666Y-9284819D02*
X13661904Y-9332438D01*
X13661904Y-9332438D02*
X13709523Y-9380057D01*
X13709523Y-9380057D02*
X13757142Y-9475295D01*
X13757142Y-9475295D02*
X13757142Y-9618152D01*
X13757142Y-9618152D02*
X13709523Y-9713390D01*
X13709523Y-9713390D02*
X13661904Y-9761009D01*
X13661904Y-9761009D02*
X13566666Y-9808628D01*
X13566666Y-9808628D02*
X13185714Y-9808628D01*
X14138095Y-9380057D02*
X14185714Y-9332438D01*
X14185714Y-9332438D02*
X14280952Y-9284819D01*
X14280952Y-9284819D02*
X14519047Y-9284819D01*
X14519047Y-9284819D02*
X14614285Y-9332438D01*
X14614285Y-9332438D02*
X14661904Y-9380057D01*
X14661904Y-9380057D02*
X14709523Y-9475295D01*
X14709523Y-9475295D02*
X14709523Y-9570533D01*
X14709523Y-9570533D02*
X14661904Y-9713390D01*
X14661904Y-9713390D02*
X14090476Y-10284819D01*
X14090476Y-10284819D02*
X14709523Y-10284819D01*
X15614285Y-9284819D02*
X15138095Y-9284819D01*
X15138095Y-9284819D02*
X15090476Y-9761009D01*
X15090476Y-9761009D02*
X15138095Y-9713390D01*
X15138095Y-9713390D02*
X15233333Y-9665771D01*
X15233333Y-9665771D02*
X15471428Y-9665771D01*
X15471428Y-9665771D02*
X15566666Y-9713390D01*
X15566666Y-9713390D02*
X15614285Y-9761009D01*
X15614285Y-9761009D02*
X15661904Y-9856247D01*
X15661904Y-9856247D02*
X15661904Y-10094342D01*
X15661904Y-10094342D02*
X15614285Y-10189580D01*
X15614285Y-10189580D02*
X15566666Y-10237200D01*
X15566666Y-10237200D02*
X15471428Y-10284819D01*
X15471428Y-10284819D02*
X15233333Y-10284819D01*
X15233333Y-10284819D02*
X15138095Y-10237200D01*
X15138095Y-10237200D02*
X15090476Y-10189580D01*
X16157142Y-10284819D02*
X15823809Y-9808628D01*
X15585714Y-10284819D02*
X15585714Y-9284819D01*
X15585714Y-9284819D02*
X15966666Y-9284819D01*
X15966666Y-9284819D02*
X16061904Y-9332438D01*
X16061904Y-9332438D02*
X16109523Y-9380057D01*
X16109523Y-9380057D02*
X16157142Y-9475295D01*
X16157142Y-9475295D02*
X16157142Y-9618152D01*
X16157142Y-9618152D02*
X16109523Y-9713390D01*
X16109523Y-9713390D02*
X16061904Y-9761009D01*
X16061904Y-9761009D02*
X15966666Y-9808628D01*
X15966666Y-9808628D02*
X15585714Y-9808628D01*
X16538095Y-9380057D02*
X16585714Y-9332438D01*
X16585714Y-9332438D02*
X16680952Y-9284819D01*
X16680952Y-9284819D02*
X16919047Y-9284819D01*
X16919047Y-9284819D02*
X17014285Y-9332438D01*
X17014285Y-9332438D02*
X17061904Y-9380057D01*
X17061904Y-9380057D02*
X17109523Y-9475295D01*
X17109523Y-9475295D02*
X17109523Y-9570533D01*
X17109523Y-9570533D02*
X17061904Y-9713390D01*
X17061904Y-9713390D02*
X16490476Y-10284819D01*
X16490476Y-10284819D02*
X17109523Y-10284819D01*
X17680952Y-9713390D02*
X17585714Y-9665771D01*
X17585714Y-9665771D02*
X17538095Y-9618152D01*
X17538095Y-9618152D02*
X17490476Y-9522914D01*
X17490476Y-9522914D02*
X17490476Y-9475295D01*
X17490476Y-9475295D02*
X17538095Y-9380057D01*
X17538095Y-9380057D02*
X17585714Y-9332438D01*
X17585714Y-9332438D02*
X17680952Y-9284819D01*
X17680952Y-9284819D02*
X17871428Y-9284819D01*
X17871428Y-9284819D02*
X17966666Y-9332438D01*
X17966666Y-9332438D02*
X18014285Y-9380057D01*
X18014285Y-9380057D02*
X18061904Y-9475295D01*
X18061904Y-9475295D02*
X18061904Y-9522914D01*
X18061904Y-9522914D02*
X18014285Y-9618152D01*
X18014285Y-9618152D02*
X17966666Y-9665771D01*
X17966666Y-9665771D02*
X17871428Y-9713390D01*
X17871428Y-9713390D02*
X17680952Y-9713390D01*
X17680952Y-9713390D02*
X17585714Y-9761009D01*
X17585714Y-9761009D02*
X17538095Y-9808628D01*
X17538095Y-9808628D02*
X17490476Y-9903866D01*
X17490476Y-9903866D02*
X17490476Y-10094342D01*
X17490476Y-10094342D02*
X17538095Y-10189580D01*
X17538095Y-10189580D02*
X17585714Y-10237200D01*
X17585714Y-10237200D02*
X17680952Y-10284819D01*
X17680952Y-10284819D02*
X17871428Y-10284819D01*
X17871428Y-10284819D02*
X17966666Y-10237200D01*
X17966666Y-10237200D02*
X18014285Y-10189580D01*
X18014285Y-10189580D02*
X18061904Y-10094342D01*
X18061904Y-10094342D02*
X18061904Y-9903866D01*
X18061904Y-9903866D02*
X18014285Y-9808628D01*
X18014285Y-9808628D02*
X17966666Y-9761009D01*
X17966666Y-9761009D02*
X17871428Y-9713390D01*
X16033333Y-24224819D02*
X15557143Y-24224819D01*
X15557143Y-24224819D02*
X15557143Y-23224819D01*
X16890476Y-24224819D02*
X16319048Y-24224819D01*
X16604762Y-24224819D02*
X16604762Y-23224819D01*
X16604762Y-23224819D02*
X16509524Y-23367676D01*
X16509524Y-23367676D02*
X16414286Y-23462914D01*
X16414286Y-23462914D02*
X16319048Y-23510533D01*
X14233333Y-5484819D02*
X13900000Y-5008628D01*
X13661905Y-5484819D02*
X13661905Y-4484819D01*
X13661905Y-4484819D02*
X14042857Y-4484819D01*
X14042857Y-4484819D02*
X14138095Y-4532438D01*
X14138095Y-4532438D02*
X14185714Y-4580057D01*
X14185714Y-4580057D02*
X14233333Y-4675295D01*
X14233333Y-4675295D02*
X14233333Y-4818152D01*
X14233333Y-4818152D02*
X14185714Y-4913390D01*
X14185714Y-4913390D02*
X14138095Y-4961009D01*
X14138095Y-4961009D02*
X14042857Y-5008628D01*
X14042857Y-5008628D02*
X13661905Y-5008628D01*
X15090476Y-4484819D02*
X14900000Y-4484819D01*
X14900000Y-4484819D02*
X14804762Y-4532438D01*
X14804762Y-4532438D02*
X14757143Y-4580057D01*
X14757143Y-4580057D02*
X14661905Y-4722914D01*
X14661905Y-4722914D02*
X14614286Y-4913390D01*
X14614286Y-4913390D02*
X14614286Y-5294342D01*
X14614286Y-5294342D02*
X14661905Y-5389580D01*
X14661905Y-5389580D02*
X14709524Y-5437200D01*
X14709524Y-5437200D02*
X14804762Y-5484819D01*
X14804762Y-5484819D02*
X14995238Y-5484819D01*
X14995238Y-5484819D02*
X15090476Y-5437200D01*
X15090476Y-5437200D02*
X15138095Y-5389580D01*
X15138095Y-5389580D02*
X15185714Y-5294342D01*
X15185714Y-5294342D02*
X15185714Y-5056247D01*
X15185714Y-5056247D02*
X15138095Y-4961009D01*
X15138095Y-4961009D02*
X15090476Y-4913390D01*
X15090476Y-4913390D02*
X14995238Y-4865771D01*
X14995238Y-4865771D02*
X14804762Y-4865771D01*
X14804762Y-4865771D02*
X14709524Y-4913390D01*
X14709524Y-4913390D02*
X14661905Y-4961009D01*
X14661905Y-4961009D02*
X14614286Y-5056247D01*
X6533333Y-25999580D02*
X6485714Y-26047200D01*
X6485714Y-26047200D02*
X6342857Y-26094819D01*
X6342857Y-26094819D02*
X6247619Y-26094819D01*
X6247619Y-26094819D02*
X6104762Y-26047200D01*
X6104762Y-26047200D02*
X6009524Y-25951961D01*
X6009524Y-25951961D02*
X5961905Y-25856723D01*
X5961905Y-25856723D02*
X5914286Y-25666247D01*
X5914286Y-25666247D02*
X5914286Y-25523390D01*
X5914286Y-25523390D02*
X5961905Y-25332914D01*
X5961905Y-25332914D02*
X6009524Y-25237676D01*
X6009524Y-25237676D02*
X6104762Y-25142438D01*
X6104762Y-25142438D02*
X6247619Y-25094819D01*
X6247619Y-25094819D02*
X6342857Y-25094819D01*
X6342857Y-25094819D02*
X6485714Y-25142438D01*
X6485714Y-25142438D02*
X6533333Y-25190057D01*
X6914286Y-25190057D02*
X6961905Y-25142438D01*
X6961905Y-25142438D02*
X7057143Y-25094819D01*
X7057143Y-25094819D02*
X7295238Y-25094819D01*
X7295238Y-25094819D02*
X7390476Y-25142438D01*
X7390476Y-25142438D02*
X7438095Y-25190057D01*
X7438095Y-25190057D02*
X7485714Y-25285295D01*
X7485714Y-25285295D02*
X7485714Y-25380533D01*
X7485714Y-25380533D02*
X7438095Y-25523390D01*
X7438095Y-25523390D02*
X6866667Y-26094819D01*
X6866667Y-26094819D02*
X7485714Y-26094819D01*
X6957142Y1115180D02*
X6623809Y1591371D01*
X6385714Y1115180D02*
X6385714Y2115180D01*
X6385714Y2115180D02*
X6766666Y2115180D01*
X6766666Y2115180D02*
X6861904Y2067561D01*
X6861904Y2067561D02*
X6909523Y2019942D01*
X6909523Y2019942D02*
X6957142Y1924704D01*
X6957142Y1924704D02*
X6957142Y1781847D01*
X6957142Y1781847D02*
X6909523Y1686609D01*
X6909523Y1686609D02*
X6861904Y1638990D01*
X6861904Y1638990D02*
X6766666Y1591371D01*
X6766666Y1591371D02*
X6385714Y1591371D01*
X7909523Y1115180D02*
X7338095Y1115180D01*
X7623809Y1115180D02*
X7623809Y2115180D01*
X7623809Y2115180D02*
X7528571Y1972323D01*
X7528571Y1972323D02*
X7433333Y1877085D01*
X7433333Y1877085D02*
X7338095Y1829466D01*
X8528571Y2115180D02*
X8623809Y2115180D01*
X8623809Y2115180D02*
X8719047Y2067561D01*
X8719047Y2067561D02*
X8766666Y2019942D01*
X8766666Y2019942D02*
X8814285Y1924704D01*
X8814285Y1924704D02*
X8861904Y1734228D01*
X8861904Y1734228D02*
X8861904Y1496133D01*
X8861904Y1496133D02*
X8814285Y1305657D01*
X8814285Y1305657D02*
X8766666Y1210419D01*
X8766666Y1210419D02*
X8719047Y1162800D01*
X8719047Y1162800D02*
X8623809Y1115180D01*
X8623809Y1115180D02*
X8528571Y1115180D01*
X8528571Y1115180D02*
X8433333Y1162800D01*
X8433333Y1162800D02*
X8385714Y1210419D01*
X8385714Y1210419D02*
X8338095Y1305657D01*
X8338095Y1305657D02*
X8290476Y1496133D01*
X8290476Y1496133D02*
X8290476Y1734228D01*
X8290476Y1734228D02*
X8338095Y1924704D01*
X8338095Y1924704D02*
X8385714Y2019942D01*
X8385714Y2019942D02*
X8433333Y2067561D01*
X8433333Y2067561D02*
X8528571Y2115180D01*
X3857142Y-26084819D02*
X3523809Y-25608628D01*
X3285714Y-26084819D02*
X3285714Y-25084819D01*
X3285714Y-25084819D02*
X3666666Y-25084819D01*
X3666666Y-25084819D02*
X3761904Y-25132438D01*
X3761904Y-25132438D02*
X3809523Y-25180057D01*
X3809523Y-25180057D02*
X3857142Y-25275295D01*
X3857142Y-25275295D02*
X3857142Y-25418152D01*
X3857142Y-25418152D02*
X3809523Y-25513390D01*
X3809523Y-25513390D02*
X3761904Y-25561009D01*
X3761904Y-25561009D02*
X3666666Y-25608628D01*
X3666666Y-25608628D02*
X3285714Y-25608628D01*
X4809523Y-26084819D02*
X4238095Y-26084819D01*
X4523809Y-26084819D02*
X4523809Y-25084819D01*
X4523809Y-25084819D02*
X4428571Y-25227676D01*
X4428571Y-25227676D02*
X4333333Y-25322914D01*
X4333333Y-25322914D02*
X4238095Y-25370533D01*
X5190476Y-25180057D02*
X5238095Y-25132438D01*
X5238095Y-25132438D02*
X5333333Y-25084819D01*
X5333333Y-25084819D02*
X5571428Y-25084819D01*
X5571428Y-25084819D02*
X5666666Y-25132438D01*
X5666666Y-25132438D02*
X5714285Y-25180057D01*
X5714285Y-25180057D02*
X5761904Y-25275295D01*
X5761904Y-25275295D02*
X5761904Y-25370533D01*
X5761904Y-25370533D02*
X5714285Y-25513390D01*
X5714285Y-25513390D02*
X5142857Y-26084819D01*
X5142857Y-26084819D02*
X5761904Y-26084819D01*
D10*
X-5340475Y-26563855D02*
X-5340475Y-25763855D01*
X-5340475Y-25763855D02*
X-5035713Y-25763855D01*
X-5035713Y-25763855D02*
X-4959523Y-25801950D01*
X-4959523Y-25801950D02*
X-4921428Y-25840045D01*
X-4921428Y-25840045D02*
X-4883332Y-25916236D01*
X-4883332Y-25916236D02*
X-4883332Y-26030521D01*
X-4883332Y-26030521D02*
X-4921428Y-26106712D01*
X-4921428Y-26106712D02*
X-4959523Y-26144807D01*
X-4959523Y-26144807D02*
X-5035713Y-26182902D01*
X-5035713Y-26182902D02*
X-5340475Y-26182902D01*
X-4121428Y-26563855D02*
X-4578571Y-26563855D01*
X-4349999Y-26563855D02*
X-4349999Y-25763855D01*
X-4349999Y-25763855D02*
X-4426190Y-25878140D01*
X-4426190Y-25878140D02*
X-4502380Y-25954331D01*
X-4502380Y-25954331D02*
X-4578571Y-25992426D01*
X7909524Y-47563855D02*
X7909524Y-46763855D01*
X7909524Y-46763855D02*
X8214286Y-46763855D01*
X8214286Y-46763855D02*
X8290476Y-46801950D01*
X8290476Y-46801950D02*
X8328571Y-46840045D01*
X8328571Y-46840045D02*
X8366667Y-46916236D01*
X8366667Y-46916236D02*
X8366667Y-47030521D01*
X8366667Y-47030521D02*
X8328571Y-47106712D01*
X8328571Y-47106712D02*
X8290476Y-47144807D01*
X8290476Y-47144807D02*
X8214286Y-47182902D01*
X8214286Y-47182902D02*
X7909524Y-47182902D01*
X8633333Y-46763855D02*
X9128571Y-46763855D01*
X9128571Y-46763855D02*
X8861905Y-47068617D01*
X8861905Y-47068617D02*
X8976190Y-47068617D01*
X8976190Y-47068617D02*
X9052381Y-47106712D01*
X9052381Y-47106712D02*
X9090476Y-47144807D01*
X9090476Y-47144807D02*
X9128571Y-47220998D01*
X9128571Y-47220998D02*
X9128571Y-47411474D01*
X9128571Y-47411474D02*
X9090476Y-47487664D01*
X9090476Y-47487664D02*
X9052381Y-47525760D01*
X9052381Y-47525760D02*
X8976190Y-47563855D01*
X8976190Y-47563855D02*
X8747619Y-47563855D01*
X8747619Y-47563855D02*
X8671428Y-47525760D01*
X8671428Y-47525760D02*
X8633333Y-47487664D01*
D11*
X9033333Y-22684819D02*
X8700000Y-22208628D01*
X8461905Y-22684819D02*
X8461905Y-21684819D01*
X8461905Y-21684819D02*
X8842857Y-21684819D01*
X8842857Y-21684819D02*
X8938095Y-21732438D01*
X8938095Y-21732438D02*
X8985714Y-21780057D01*
X8985714Y-21780057D02*
X9033333Y-21875295D01*
X9033333Y-21875295D02*
X9033333Y-22018152D01*
X9033333Y-22018152D02*
X8985714Y-22113390D01*
X8985714Y-22113390D02*
X8938095Y-22161009D01*
X8938095Y-22161009D02*
X8842857Y-22208628D01*
X8842857Y-22208628D02*
X8461905Y-22208628D01*
X9890476Y-22018152D02*
X9890476Y-22684819D01*
X9652381Y-21637200D02*
X9414286Y-22351485D01*
X9414286Y-22351485D02*
X10033333Y-22351485D01*
X5638095Y8145180D02*
X5638095Y7335657D01*
X5638095Y7335657D02*
X5685714Y7240419D01*
X5685714Y7240419D02*
X5733333Y7192800D01*
X5733333Y7192800D02*
X5828571Y7145180D01*
X5828571Y7145180D02*
X6019047Y7145180D01*
X6019047Y7145180D02*
X6114285Y7192800D01*
X6114285Y7192800D02*
X6161904Y7240419D01*
X6161904Y7240419D02*
X6209523Y7335657D01*
X6209523Y7335657D02*
X6209523Y8145180D01*
X7161904Y8145180D02*
X6685714Y8145180D01*
X6685714Y8145180D02*
X6638095Y7668990D01*
X6638095Y7668990D02*
X6685714Y7716609D01*
X6685714Y7716609D02*
X6780952Y7764228D01*
X6780952Y7764228D02*
X7019047Y7764228D01*
X7019047Y7764228D02*
X7114285Y7716609D01*
X7114285Y7716609D02*
X7161904Y7668990D01*
X7161904Y7668990D02*
X7209523Y7573752D01*
X7209523Y7573752D02*
X7209523Y7335657D01*
X7209523Y7335657D02*
X7161904Y7240419D01*
X7161904Y7240419D02*
X7114285Y7192800D01*
X7114285Y7192800D02*
X7019047Y7145180D01*
X7019047Y7145180D02*
X6780952Y7145180D01*
X6780952Y7145180D02*
X6685714Y7192800D01*
X6685714Y7192800D02*
X6638095Y7240419D01*
X12584819Y-18548333D02*
X13299104Y-18548333D01*
X13299104Y-18548333D02*
X13441961Y-18595952D01*
X13441961Y-18595952D02*
X13537200Y-18691190D01*
X13537200Y-18691190D02*
X13584819Y-18834047D01*
X13584819Y-18834047D02*
X13584819Y-18929285D01*
X12584819Y-18167380D02*
X12584819Y-17548333D01*
X12584819Y-17548333D02*
X12965771Y-17881666D01*
X12965771Y-17881666D02*
X12965771Y-17738809D01*
X12965771Y-17738809D02*
X13013390Y-17643571D01*
X13013390Y-17643571D02*
X13061009Y-17595952D01*
X13061009Y-17595952D02*
X13156247Y-17548333D01*
X13156247Y-17548333D02*
X13394342Y-17548333D01*
X13394342Y-17548333D02*
X13489580Y-17595952D01*
X13489580Y-17595952D02*
X13537200Y-17643571D01*
X13537200Y-17643571D02*
X13584819Y-17738809D01*
X13584819Y-17738809D02*
X13584819Y-18024523D01*
X13584819Y-18024523D02*
X13537200Y-18119761D01*
X13537200Y-18119761D02*
X13489580Y-18167380D01*
X14957142Y-6684819D02*
X14623809Y-6208628D01*
X14385714Y-6684819D02*
X14385714Y-5684819D01*
X14385714Y-5684819D02*
X14766666Y-5684819D01*
X14766666Y-5684819D02*
X14861904Y-5732438D01*
X14861904Y-5732438D02*
X14909523Y-5780057D01*
X14909523Y-5780057D02*
X14957142Y-5875295D01*
X14957142Y-5875295D02*
X14957142Y-6018152D01*
X14957142Y-6018152D02*
X14909523Y-6113390D01*
X14909523Y-6113390D02*
X14861904Y-6161009D01*
X14861904Y-6161009D02*
X14766666Y-6208628D01*
X14766666Y-6208628D02*
X14385714Y-6208628D01*
X15909523Y-6684819D02*
X15338095Y-6684819D01*
X15623809Y-6684819D02*
X15623809Y-5684819D01*
X15623809Y-5684819D02*
X15528571Y-5827676D01*
X15528571Y-5827676D02*
X15433333Y-5922914D01*
X15433333Y-5922914D02*
X15338095Y-5970533D01*
X16766666Y-6018152D02*
X16766666Y-6684819D01*
X16528571Y-5637200D02*
X16290476Y-6351485D01*
X16290476Y-6351485D02*
X16909523Y-6351485D01*
X4957142Y-26084819D02*
X4623809Y-25608628D01*
X4385714Y-26084819D02*
X4385714Y-25084819D01*
X4385714Y-25084819D02*
X4766666Y-25084819D01*
X4766666Y-25084819D02*
X4861904Y-25132438D01*
X4861904Y-25132438D02*
X4909523Y-25180057D01*
X4909523Y-25180057D02*
X4957142Y-25275295D01*
X4957142Y-25275295D02*
X4957142Y-25418152D01*
X4957142Y-25418152D02*
X4909523Y-25513390D01*
X4909523Y-25513390D02*
X4861904Y-25561009D01*
X4861904Y-25561009D02*
X4766666Y-25608628D01*
X4766666Y-25608628D02*
X4385714Y-25608628D01*
X5909523Y-26084819D02*
X5338095Y-26084819D01*
X5623809Y-26084819D02*
X5623809Y-25084819D01*
X5623809Y-25084819D02*
X5528571Y-25227676D01*
X5528571Y-25227676D02*
X5433333Y-25322914D01*
X5433333Y-25322914D02*
X5338095Y-25370533D01*
X6242857Y-25084819D02*
X6861904Y-25084819D01*
X6861904Y-25084819D02*
X6528571Y-25465771D01*
X6528571Y-25465771D02*
X6671428Y-25465771D01*
X6671428Y-25465771D02*
X6766666Y-25513390D01*
X6766666Y-25513390D02*
X6814285Y-25561009D01*
X6814285Y-25561009D02*
X6861904Y-25656247D01*
X6861904Y-25656247D02*
X6861904Y-25894342D01*
X6861904Y-25894342D02*
X6814285Y-25989580D01*
X6814285Y-25989580D02*
X6766666Y-26037200D01*
X6766666Y-26037200D02*
X6671428Y-26084819D01*
X6671428Y-26084819D02*
X6385714Y-26084819D01*
X6385714Y-26084819D02*
X6290476Y-26037200D01*
X6290476Y-26037200D02*
X6242857Y-25989580D01*
X3466667Y-17807200D02*
X3609524Y-17854819D01*
X3609524Y-17854819D02*
X3847619Y-17854819D01*
X3847619Y-17854819D02*
X3942857Y-17807200D01*
X3942857Y-17807200D02*
X3990476Y-17759580D01*
X3990476Y-17759580D02*
X4038095Y-17664342D01*
X4038095Y-17664342D02*
X4038095Y-17569104D01*
X4038095Y-17569104D02*
X3990476Y-17473866D01*
X3990476Y-17473866D02*
X3942857Y-17426247D01*
X3942857Y-17426247D02*
X3847619Y-17378628D01*
X3847619Y-17378628D02*
X3657143Y-17331009D01*
X3657143Y-17331009D02*
X3561905Y-17283390D01*
X3561905Y-17283390D02*
X3514286Y-17235771D01*
X3514286Y-17235771D02*
X3466667Y-17140533D01*
X3466667Y-17140533D02*
X3466667Y-17045295D01*
X3466667Y-17045295D02*
X3514286Y-16950057D01*
X3514286Y-16950057D02*
X3561905Y-16902438D01*
X3561905Y-16902438D02*
X3657143Y-16854819D01*
X3657143Y-16854819D02*
X3895238Y-16854819D01*
X3895238Y-16854819D02*
X4038095Y-16902438D01*
X4371429Y-16854819D02*
X4609524Y-17854819D01*
X4609524Y-17854819D02*
X4800000Y-17140533D01*
X4800000Y-17140533D02*
X4990476Y-17854819D01*
X4990476Y-17854819D02*
X5228572Y-16854819D01*
X6133333Y-17854819D02*
X5561905Y-17854819D01*
X5847619Y-17854819D02*
X5847619Y-16854819D01*
X5847619Y-16854819D02*
X5752381Y-16997676D01*
X5752381Y-16997676D02*
X5657143Y-17092914D01*
X5657143Y-17092914D02*
X5561905Y-17140533D01*
X6157142Y-20484819D02*
X5823809Y-20008628D01*
X5585714Y-20484819D02*
X5585714Y-19484819D01*
X5585714Y-19484819D02*
X5966666Y-19484819D01*
X5966666Y-19484819D02*
X6061904Y-19532438D01*
X6061904Y-19532438D02*
X6109523Y-19580057D01*
X6109523Y-19580057D02*
X6157142Y-19675295D01*
X6157142Y-19675295D02*
X6157142Y-19818152D01*
X6157142Y-19818152D02*
X6109523Y-19913390D01*
X6109523Y-19913390D02*
X6061904Y-19961009D01*
X6061904Y-19961009D02*
X5966666Y-20008628D01*
X5966666Y-20008628D02*
X5585714Y-20008628D01*
X6538095Y-19580057D02*
X6585714Y-19532438D01*
X6585714Y-19532438D02*
X6680952Y-19484819D01*
X6680952Y-19484819D02*
X6919047Y-19484819D01*
X6919047Y-19484819D02*
X7014285Y-19532438D01*
X7014285Y-19532438D02*
X7061904Y-19580057D01*
X7061904Y-19580057D02*
X7109523Y-19675295D01*
X7109523Y-19675295D02*
X7109523Y-19770533D01*
X7109523Y-19770533D02*
X7061904Y-19913390D01*
X7061904Y-19913390D02*
X6490476Y-20484819D01*
X6490476Y-20484819D02*
X7109523Y-20484819D01*
X7966666Y-19484819D02*
X7776190Y-19484819D01*
X7776190Y-19484819D02*
X7680952Y-19532438D01*
X7680952Y-19532438D02*
X7633333Y-19580057D01*
X7633333Y-19580057D02*
X7538095Y-19722914D01*
X7538095Y-19722914D02*
X7490476Y-19913390D01*
X7490476Y-19913390D02*
X7490476Y-20294342D01*
X7490476Y-20294342D02*
X7538095Y-20389580D01*
X7538095Y-20389580D02*
X7585714Y-20437200D01*
X7585714Y-20437200D02*
X7680952Y-20484819D01*
X7680952Y-20484819D02*
X7871428Y-20484819D01*
X7871428Y-20484819D02*
X7966666Y-20437200D01*
X7966666Y-20437200D02*
X8014285Y-20389580D01*
X8014285Y-20389580D02*
X8061904Y-20294342D01*
X8061904Y-20294342D02*
X8061904Y-20056247D01*
X8061904Y-20056247D02*
X8014285Y-19961009D01*
X8014285Y-19961009D02*
X7966666Y-19913390D01*
X7966666Y-19913390D02*
X7871428Y-19865771D01*
X7871428Y-19865771D02*
X7680952Y-19865771D01*
X7680952Y-19865771D02*
X7585714Y-19913390D01*
X7585714Y-19913390D02*
X7538095Y-19961009D01*
X7538095Y-19961009D02*
X7490476Y-20056247D01*
X14233333Y-20284819D02*
X13900000Y-19808628D01*
X13661905Y-20284819D02*
X13661905Y-19284819D01*
X13661905Y-19284819D02*
X14042857Y-19284819D01*
X14042857Y-19284819D02*
X14138095Y-19332438D01*
X14138095Y-19332438D02*
X14185714Y-19380057D01*
X14185714Y-19380057D02*
X14233333Y-19475295D01*
X14233333Y-19475295D02*
X14233333Y-19618152D01*
X14233333Y-19618152D02*
X14185714Y-19713390D01*
X14185714Y-19713390D02*
X14138095Y-19761009D01*
X14138095Y-19761009D02*
X14042857Y-19808628D01*
X14042857Y-19808628D02*
X13661905Y-19808628D01*
X14614286Y-19380057D02*
X14661905Y-19332438D01*
X14661905Y-19332438D02*
X14757143Y-19284819D01*
X14757143Y-19284819D02*
X14995238Y-19284819D01*
X14995238Y-19284819D02*
X15090476Y-19332438D01*
X15090476Y-19332438D02*
X15138095Y-19380057D01*
X15138095Y-19380057D02*
X15185714Y-19475295D01*
X15185714Y-19475295D02*
X15185714Y-19570533D01*
X15185714Y-19570533D02*
X15138095Y-19713390D01*
X15138095Y-19713390D02*
X14566667Y-20284819D01*
X14566667Y-20284819D02*
X15185714Y-20284819D01*
X16157142Y-9084819D02*
X15823809Y-8608628D01*
X15585714Y-9084819D02*
X15585714Y-8084819D01*
X15585714Y-8084819D02*
X15966666Y-8084819D01*
X15966666Y-8084819D02*
X16061904Y-8132438D01*
X16061904Y-8132438D02*
X16109523Y-8180057D01*
X16109523Y-8180057D02*
X16157142Y-8275295D01*
X16157142Y-8275295D02*
X16157142Y-8418152D01*
X16157142Y-8418152D02*
X16109523Y-8513390D01*
X16109523Y-8513390D02*
X16061904Y-8561009D01*
X16061904Y-8561009D02*
X15966666Y-8608628D01*
X15966666Y-8608628D02*
X15585714Y-8608628D01*
X16538095Y-8180057D02*
X16585714Y-8132438D01*
X16585714Y-8132438D02*
X16680952Y-8084819D01*
X16680952Y-8084819D02*
X16919047Y-8084819D01*
X16919047Y-8084819D02*
X17014285Y-8132438D01*
X17014285Y-8132438D02*
X17061904Y-8180057D01*
X17061904Y-8180057D02*
X17109523Y-8275295D01*
X17109523Y-8275295D02*
X17109523Y-8370533D01*
X17109523Y-8370533D02*
X17061904Y-8513390D01*
X17061904Y-8513390D02*
X16490476Y-9084819D01*
X16490476Y-9084819D02*
X17109523Y-9084819D01*
X17442857Y-8084819D02*
X18061904Y-8084819D01*
X18061904Y-8084819D02*
X17728571Y-8465771D01*
X17728571Y-8465771D02*
X17871428Y-8465771D01*
X17871428Y-8465771D02*
X17966666Y-8513390D01*
X17966666Y-8513390D02*
X18014285Y-8561009D01*
X18014285Y-8561009D02*
X18061904Y-8656247D01*
X18061904Y-8656247D02*
X18061904Y-8894342D01*
X18061904Y-8894342D02*
X18014285Y-8989580D01*
X18014285Y-8989580D02*
X17966666Y-9037200D01*
X17966666Y-9037200D02*
X17871428Y-9084819D01*
X17871428Y-9084819D02*
X17585714Y-9084819D01*
X17585714Y-9084819D02*
X17490476Y-9037200D01*
X17490476Y-9037200D02*
X17442857Y-8989580D01*
X4333333Y-22999580D02*
X4285714Y-23047200D01*
X4285714Y-23047200D02*
X4142857Y-23094819D01*
X4142857Y-23094819D02*
X4047619Y-23094819D01*
X4047619Y-23094819D02*
X3904762Y-23047200D01*
X3904762Y-23047200D02*
X3809524Y-22951961D01*
X3809524Y-22951961D02*
X3761905Y-22856723D01*
X3761905Y-22856723D02*
X3714286Y-22666247D01*
X3714286Y-22666247D02*
X3714286Y-22523390D01*
X3714286Y-22523390D02*
X3761905Y-22332914D01*
X3761905Y-22332914D02*
X3809524Y-22237676D01*
X3809524Y-22237676D02*
X3904762Y-22142438D01*
X3904762Y-22142438D02*
X4047619Y-22094819D01*
X4047619Y-22094819D02*
X4142857Y-22094819D01*
X4142857Y-22094819D02*
X4285714Y-22142438D01*
X4285714Y-22142438D02*
X4333333Y-22190057D01*
X5190476Y-22428152D02*
X5190476Y-23094819D01*
X4952381Y-22047200D02*
X4714286Y-22761485D01*
X4714286Y-22761485D02*
X5333333Y-22761485D01*
X12557142Y-9084819D02*
X12223809Y-8608628D01*
X11985714Y-9084819D02*
X11985714Y-8084819D01*
X11985714Y-8084819D02*
X12366666Y-8084819D01*
X12366666Y-8084819D02*
X12461904Y-8132438D01*
X12461904Y-8132438D02*
X12509523Y-8180057D01*
X12509523Y-8180057D02*
X12557142Y-8275295D01*
X12557142Y-8275295D02*
X12557142Y-8418152D01*
X12557142Y-8418152D02*
X12509523Y-8513390D01*
X12509523Y-8513390D02*
X12461904Y-8561009D01*
X12461904Y-8561009D02*
X12366666Y-8608628D01*
X12366666Y-8608628D02*
X11985714Y-8608628D01*
X12938095Y-8180057D02*
X12985714Y-8132438D01*
X12985714Y-8132438D02*
X13080952Y-8084819D01*
X13080952Y-8084819D02*
X13319047Y-8084819D01*
X13319047Y-8084819D02*
X13414285Y-8132438D01*
X13414285Y-8132438D02*
X13461904Y-8180057D01*
X13461904Y-8180057D02*
X13509523Y-8275295D01*
X13509523Y-8275295D02*
X13509523Y-8370533D01*
X13509523Y-8370533D02*
X13461904Y-8513390D01*
X13461904Y-8513390D02*
X12890476Y-9084819D01*
X12890476Y-9084819D02*
X13509523Y-9084819D01*
X14128571Y-8084819D02*
X14223809Y-8084819D01*
X14223809Y-8084819D02*
X14319047Y-8132438D01*
X14319047Y-8132438D02*
X14366666Y-8180057D01*
X14366666Y-8180057D02*
X14414285Y-8275295D01*
X14414285Y-8275295D02*
X14461904Y-8465771D01*
X14461904Y-8465771D02*
X14461904Y-8703866D01*
X14461904Y-8703866D02*
X14414285Y-8894342D01*
X14414285Y-8894342D02*
X14366666Y-8989580D01*
X14366666Y-8989580D02*
X14319047Y-9037200D01*
X14319047Y-9037200D02*
X14223809Y-9084819D01*
X14223809Y-9084819D02*
X14128571Y-9084819D01*
X14128571Y-9084819D02*
X14033333Y-9037200D01*
X14033333Y-9037200D02*
X13985714Y-8989580D01*
X13985714Y-8989580D02*
X13938095Y-8894342D01*
X13938095Y-8894342D02*
X13890476Y-8703866D01*
X13890476Y-8703866D02*
X13890476Y-8465771D01*
X13890476Y-8465771D02*
X13938095Y-8275295D01*
X13938095Y-8275295D02*
X13985714Y-8180057D01*
X13985714Y-8180057D02*
X14033333Y-8132438D01*
X14033333Y-8132438D02*
X14128571Y-8084819D01*
X16504761Y-14350057D02*
X16409523Y-14302438D01*
X16409523Y-14302438D02*
X16314285Y-14207200D01*
X16314285Y-14207200D02*
X16171428Y-14064342D01*
X16171428Y-14064342D02*
X16076190Y-14016723D01*
X16076190Y-14016723D02*
X15980952Y-14016723D01*
X16028571Y-14254819D02*
X15933333Y-14207200D01*
X15933333Y-14207200D02*
X15838095Y-14111961D01*
X15838095Y-14111961D02*
X15790476Y-13921485D01*
X15790476Y-13921485D02*
X15790476Y-13588152D01*
X15790476Y-13588152D02*
X15838095Y-13397676D01*
X15838095Y-13397676D02*
X15933333Y-13302438D01*
X15933333Y-13302438D02*
X16028571Y-13254819D01*
X16028571Y-13254819D02*
X16219047Y-13254819D01*
X16219047Y-13254819D02*
X16314285Y-13302438D01*
X16314285Y-13302438D02*
X16409523Y-13397676D01*
X16409523Y-13397676D02*
X16457142Y-13588152D01*
X16457142Y-13588152D02*
X16457142Y-13921485D01*
X16457142Y-13921485D02*
X16409523Y-14111961D01*
X16409523Y-14111961D02*
X16314285Y-14207200D01*
X16314285Y-14207200D02*
X16219047Y-14254819D01*
X16219047Y-14254819D02*
X16028571Y-14254819D01*
X16790476Y-13254819D02*
X17409523Y-13254819D01*
X17409523Y-13254819D02*
X17076190Y-13635771D01*
X17076190Y-13635771D02*
X17219047Y-13635771D01*
X17219047Y-13635771D02*
X17314285Y-13683390D01*
X17314285Y-13683390D02*
X17361904Y-13731009D01*
X17361904Y-13731009D02*
X17409523Y-13826247D01*
X17409523Y-13826247D02*
X17409523Y-14064342D01*
X17409523Y-14064342D02*
X17361904Y-14159580D01*
X17361904Y-14159580D02*
X17314285Y-14207200D01*
X17314285Y-14207200D02*
X17219047Y-14254819D01*
X17219047Y-14254819D02*
X16933333Y-14254819D01*
X16933333Y-14254819D02*
X16838095Y-14207200D01*
X16838095Y-14207200D02*
X16790476Y-14159580D01*
X8157142Y1115180D02*
X7823809Y1591371D01*
X7585714Y1115180D02*
X7585714Y2115180D01*
X7585714Y2115180D02*
X7966666Y2115180D01*
X7966666Y2115180D02*
X8061904Y2067561D01*
X8061904Y2067561D02*
X8109523Y2019942D01*
X8109523Y2019942D02*
X8157142Y1924704D01*
X8157142Y1924704D02*
X8157142Y1781847D01*
X8157142Y1781847D02*
X8109523Y1686609D01*
X8109523Y1686609D02*
X8061904Y1638990D01*
X8061904Y1638990D02*
X7966666Y1591371D01*
X7966666Y1591371D02*
X7585714Y1591371D01*
X9109523Y1115180D02*
X8538095Y1115180D01*
X8823809Y1115180D02*
X8823809Y2115180D01*
X8823809Y2115180D02*
X8728571Y1972323D01*
X8728571Y1972323D02*
X8633333Y1877085D01*
X8633333Y1877085D02*
X8538095Y1829466D01*
X9680952Y1686609D02*
X9585714Y1734228D01*
X9585714Y1734228D02*
X9538095Y1781847D01*
X9538095Y1781847D02*
X9490476Y1877085D01*
X9490476Y1877085D02*
X9490476Y1924704D01*
X9490476Y1924704D02*
X9538095Y2019942D01*
X9538095Y2019942D02*
X9585714Y2067561D01*
X9585714Y2067561D02*
X9680952Y2115180D01*
X9680952Y2115180D02*
X9871428Y2115180D01*
X9871428Y2115180D02*
X9966666Y2067561D01*
X9966666Y2067561D02*
X10014285Y2019942D01*
X10014285Y2019942D02*
X10061904Y1924704D01*
X10061904Y1924704D02*
X10061904Y1877085D01*
X10061904Y1877085D02*
X10014285Y1781847D01*
X10014285Y1781847D02*
X9966666Y1734228D01*
X9966666Y1734228D02*
X9871428Y1686609D01*
X9871428Y1686609D02*
X9680952Y1686609D01*
X9680952Y1686609D02*
X9585714Y1638990D01*
X9585714Y1638990D02*
X9538095Y1591371D01*
X9538095Y1591371D02*
X9490476Y1496133D01*
X9490476Y1496133D02*
X9490476Y1305657D01*
X9490476Y1305657D02*
X9538095Y1210419D01*
X9538095Y1210419D02*
X9585714Y1162800D01*
X9585714Y1162800D02*
X9680952Y1115180D01*
X9680952Y1115180D02*
X9871428Y1115180D01*
X9871428Y1115180D02*
X9966666Y1162800D01*
X9966666Y1162800D02*
X10014285Y1210419D01*
X10014285Y1210419D02*
X10061904Y1305657D01*
X10061904Y1305657D02*
X10061904Y1496133D01*
X10061904Y1496133D02*
X10014285Y1591371D01*
X10014285Y1591371D02*
X9966666Y1638990D01*
X9966666Y1638990D02*
X9871428Y1686609D01*
X3233333Y-22999580D02*
X3185714Y-23047200D01*
X3185714Y-23047200D02*
X3042857Y-23094819D01*
X3042857Y-23094819D02*
X2947619Y-23094819D01*
X2947619Y-23094819D02*
X2804762Y-23047200D01*
X2804762Y-23047200D02*
X2709524Y-22951961D01*
X2709524Y-22951961D02*
X2661905Y-22856723D01*
X2661905Y-22856723D02*
X2614286Y-22666247D01*
X2614286Y-22666247D02*
X2614286Y-22523390D01*
X2614286Y-22523390D02*
X2661905Y-22332914D01*
X2661905Y-22332914D02*
X2709524Y-22237676D01*
X2709524Y-22237676D02*
X2804762Y-22142438D01*
X2804762Y-22142438D02*
X2947619Y-22094819D01*
X2947619Y-22094819D02*
X3042857Y-22094819D01*
X3042857Y-22094819D02*
X3185714Y-22142438D01*
X3185714Y-22142438D02*
X3233333Y-22190057D01*
X3566667Y-22094819D02*
X4185714Y-22094819D01*
X4185714Y-22094819D02*
X3852381Y-22475771D01*
X3852381Y-22475771D02*
X3995238Y-22475771D01*
X3995238Y-22475771D02*
X4090476Y-22523390D01*
X4090476Y-22523390D02*
X4138095Y-22571009D01*
X4138095Y-22571009D02*
X4185714Y-22666247D01*
X4185714Y-22666247D02*
X4185714Y-22904342D01*
X4185714Y-22904342D02*
X4138095Y-22999580D01*
X4138095Y-22999580D02*
X4090476Y-23047200D01*
X4090476Y-23047200D02*
X3995238Y-23094819D01*
X3995238Y-23094819D02*
X3709524Y-23094819D01*
X3709524Y-23094819D02*
X3614286Y-23047200D01*
X3614286Y-23047200D02*
X3566667Y-22999580D01*
X12557142Y-7884819D02*
X12223809Y-7408628D01*
X11985714Y-7884819D02*
X11985714Y-6884819D01*
X11985714Y-6884819D02*
X12366666Y-6884819D01*
X12366666Y-6884819D02*
X12461904Y-6932438D01*
X12461904Y-6932438D02*
X12509523Y-6980057D01*
X12509523Y-6980057D02*
X12557142Y-7075295D01*
X12557142Y-7075295D02*
X12557142Y-7218152D01*
X12557142Y-7218152D02*
X12509523Y-7313390D01*
X12509523Y-7313390D02*
X12461904Y-7361009D01*
X12461904Y-7361009D02*
X12366666Y-7408628D01*
X12366666Y-7408628D02*
X11985714Y-7408628D01*
X13509523Y-7884819D02*
X12938095Y-7884819D01*
X13223809Y-7884819D02*
X13223809Y-6884819D01*
X13223809Y-6884819D02*
X13128571Y-7027676D01*
X13128571Y-7027676D02*
X13033333Y-7122914D01*
X13033333Y-7122914D02*
X12938095Y-7170533D01*
X14366666Y-6884819D02*
X14176190Y-6884819D01*
X14176190Y-6884819D02*
X14080952Y-6932438D01*
X14080952Y-6932438D02*
X14033333Y-6980057D01*
X14033333Y-6980057D02*
X13938095Y-7122914D01*
X13938095Y-7122914D02*
X13890476Y-7313390D01*
X13890476Y-7313390D02*
X13890476Y-7694342D01*
X13890476Y-7694342D02*
X13938095Y-7789580D01*
X13938095Y-7789580D02*
X13985714Y-7837200D01*
X13985714Y-7837200D02*
X14080952Y-7884819D01*
X14080952Y-7884819D02*
X14271428Y-7884819D01*
X14271428Y-7884819D02*
X14366666Y-7837200D01*
X14366666Y-7837200D02*
X14414285Y-7789580D01*
X14414285Y-7789580D02*
X14461904Y-7694342D01*
X14461904Y-7694342D02*
X14461904Y-7456247D01*
X14461904Y-7456247D02*
X14414285Y-7361009D01*
X14414285Y-7361009D02*
X14366666Y-7313390D01*
X14366666Y-7313390D02*
X14271428Y-7265771D01*
X14271428Y-7265771D02*
X14080952Y-7265771D01*
X14080952Y-7265771D02*
X13985714Y-7313390D01*
X13985714Y-7313390D02*
X13938095Y-7361009D01*
X13938095Y-7361009D02*
X13890476Y-7456247D01*
X10133333Y-22599580D02*
X10085714Y-22647200D01*
X10085714Y-22647200D02*
X9942857Y-22694819D01*
X9942857Y-22694819D02*
X9847619Y-22694819D01*
X9847619Y-22694819D02*
X9704762Y-22647200D01*
X9704762Y-22647200D02*
X9609524Y-22551961D01*
X9609524Y-22551961D02*
X9561905Y-22456723D01*
X9561905Y-22456723D02*
X9514286Y-22266247D01*
X9514286Y-22266247D02*
X9514286Y-22123390D01*
X9514286Y-22123390D02*
X9561905Y-21932914D01*
X9561905Y-21932914D02*
X9609524Y-21837676D01*
X9609524Y-21837676D02*
X9704762Y-21742438D01*
X9704762Y-21742438D02*
X9847619Y-21694819D01*
X9847619Y-21694819D02*
X9942857Y-21694819D01*
X9942857Y-21694819D02*
X10085714Y-21742438D01*
X10085714Y-21742438D02*
X10133333Y-21790057D01*
X11085714Y-22694819D02*
X10514286Y-22694819D01*
X10800000Y-22694819D02*
X10800000Y-21694819D01*
X10800000Y-21694819D02*
X10704762Y-21837676D01*
X10704762Y-21837676D02*
X10609524Y-21932914D01*
X10609524Y-21932914D02*
X10514286Y-21980533D01*
X15004761Y-12550057D02*
X14909523Y-12502438D01*
X14909523Y-12502438D02*
X14814285Y-12407200D01*
X14814285Y-12407200D02*
X14671428Y-12264342D01*
X14671428Y-12264342D02*
X14576190Y-12216723D01*
X14576190Y-12216723D02*
X14480952Y-12216723D01*
X14528571Y-12454819D02*
X14433333Y-12407200D01*
X14433333Y-12407200D02*
X14338095Y-12311961D01*
X14338095Y-12311961D02*
X14290476Y-12121485D01*
X14290476Y-12121485D02*
X14290476Y-11788152D01*
X14290476Y-11788152D02*
X14338095Y-11597676D01*
X14338095Y-11597676D02*
X14433333Y-11502438D01*
X14433333Y-11502438D02*
X14528571Y-11454819D01*
X14528571Y-11454819D02*
X14719047Y-11454819D01*
X14719047Y-11454819D02*
X14814285Y-11502438D01*
X14814285Y-11502438D02*
X14909523Y-11597676D01*
X14909523Y-11597676D02*
X14957142Y-11788152D01*
X14957142Y-11788152D02*
X14957142Y-12121485D01*
X14957142Y-12121485D02*
X14909523Y-12311961D01*
X14909523Y-12311961D02*
X14814285Y-12407200D01*
X14814285Y-12407200D02*
X14719047Y-12454819D01*
X14719047Y-12454819D02*
X14528571Y-12454819D01*
X15861904Y-11454819D02*
X15385714Y-11454819D01*
X15385714Y-11454819D02*
X15338095Y-11931009D01*
X15338095Y-11931009D02*
X15385714Y-11883390D01*
X15385714Y-11883390D02*
X15480952Y-11835771D01*
X15480952Y-11835771D02*
X15719047Y-11835771D01*
X15719047Y-11835771D02*
X15814285Y-11883390D01*
X15814285Y-11883390D02*
X15861904Y-11931009D01*
X15861904Y-11931009D02*
X15909523Y-12026247D01*
X15909523Y-12026247D02*
X15909523Y-12264342D01*
X15909523Y-12264342D02*
X15861904Y-12359580D01*
X15861904Y-12359580D02*
X15814285Y-12407200D01*
X15814285Y-12407200D02*
X15719047Y-12454819D01*
X15719047Y-12454819D02*
X15480952Y-12454819D01*
X15480952Y-12454819D02*
X15385714Y-12407200D01*
X15385714Y-12407200D02*
X15338095Y-12359580D01*
X13504761Y-12550057D02*
X13409523Y-12502438D01*
X13409523Y-12502438D02*
X13314285Y-12407200D01*
X13314285Y-12407200D02*
X13171428Y-12264342D01*
X13171428Y-12264342D02*
X13076190Y-12216723D01*
X13076190Y-12216723D02*
X12980952Y-12216723D01*
X13028571Y-12454819D02*
X12933333Y-12407200D01*
X12933333Y-12407200D02*
X12838095Y-12311961D01*
X12838095Y-12311961D02*
X12790476Y-12121485D01*
X12790476Y-12121485D02*
X12790476Y-11788152D01*
X12790476Y-11788152D02*
X12838095Y-11597676D01*
X12838095Y-11597676D02*
X12933333Y-11502438D01*
X12933333Y-11502438D02*
X13028571Y-11454819D01*
X13028571Y-11454819D02*
X13219047Y-11454819D01*
X13219047Y-11454819D02*
X13314285Y-11502438D01*
X13314285Y-11502438D02*
X13409523Y-11597676D01*
X13409523Y-11597676D02*
X13457142Y-11788152D01*
X13457142Y-11788152D02*
X13457142Y-12121485D01*
X13457142Y-12121485D02*
X13409523Y-12311961D01*
X13409523Y-12311961D02*
X13314285Y-12407200D01*
X13314285Y-12407200D02*
X13219047Y-12454819D01*
X13219047Y-12454819D02*
X13028571Y-12454819D01*
X14314285Y-11788152D02*
X14314285Y-12454819D01*
X14076190Y-11407200D02*
X13838095Y-12121485D01*
X13838095Y-12121485D02*
X14457142Y-12121485D01*
D10*
X24159524Y-37663855D02*
X24159524Y-36863855D01*
X24159524Y-36863855D02*
X24464286Y-36863855D01*
X24464286Y-36863855D02*
X24540476Y-36901950D01*
X24540476Y-36901950D02*
X24578571Y-36940045D01*
X24578571Y-36940045D02*
X24616667Y-37016236D01*
X24616667Y-37016236D02*
X24616667Y-37130521D01*
X24616667Y-37130521D02*
X24578571Y-37206712D01*
X24578571Y-37206712D02*
X24540476Y-37244807D01*
X24540476Y-37244807D02*
X24464286Y-37282902D01*
X24464286Y-37282902D02*
X24159524Y-37282902D01*
X24921428Y-36940045D02*
X24959524Y-36901950D01*
X24959524Y-36901950D02*
X25035714Y-36863855D01*
X25035714Y-36863855D02*
X25226190Y-36863855D01*
X25226190Y-36863855D02*
X25302381Y-36901950D01*
X25302381Y-36901950D02*
X25340476Y-36940045D01*
X25340476Y-36940045D02*
X25378571Y-37016236D01*
X25378571Y-37016236D02*
X25378571Y-37092426D01*
X25378571Y-37092426D02*
X25340476Y-37206712D01*
X25340476Y-37206712D02*
X24883333Y-37663855D01*
X24883333Y-37663855D02*
X25378571Y-37663855D01*
D11*
X9666666Y8340180D02*
X9666666Y7625895D01*
X9666666Y7625895D02*
X9619047Y7483038D01*
X9619047Y7483038D02*
X9523809Y7387800D01*
X9523809Y7387800D02*
X9380952Y7340180D01*
X9380952Y7340180D02*
X9285714Y7340180D01*
X10666666Y7340180D02*
X10095238Y7340180D01*
X10380952Y7340180D02*
X10380952Y8340180D01*
X10380952Y8340180D02*
X10285714Y8197323D01*
X10285714Y8197323D02*
X10190476Y8102085D01*
X10190476Y8102085D02*
X10095238Y8054466D01*
X15233333Y-20284819D02*
X14900000Y-19808628D01*
X14661905Y-20284819D02*
X14661905Y-19284819D01*
X14661905Y-19284819D02*
X15042857Y-19284819D01*
X15042857Y-19284819D02*
X15138095Y-19332438D01*
X15138095Y-19332438D02*
X15185714Y-19380057D01*
X15185714Y-19380057D02*
X15233333Y-19475295D01*
X15233333Y-19475295D02*
X15233333Y-19618152D01*
X15233333Y-19618152D02*
X15185714Y-19713390D01*
X15185714Y-19713390D02*
X15138095Y-19761009D01*
X15138095Y-19761009D02*
X15042857Y-19808628D01*
X15042857Y-19808628D02*
X14661905Y-19808628D01*
X15566667Y-19284819D02*
X16185714Y-19284819D01*
X16185714Y-19284819D02*
X15852381Y-19665771D01*
X15852381Y-19665771D02*
X15995238Y-19665771D01*
X15995238Y-19665771D02*
X16090476Y-19713390D01*
X16090476Y-19713390D02*
X16138095Y-19761009D01*
X16138095Y-19761009D02*
X16185714Y-19856247D01*
X16185714Y-19856247D02*
X16185714Y-20094342D01*
X16185714Y-20094342D02*
X16138095Y-20189580D01*
X16138095Y-20189580D02*
X16090476Y-20237200D01*
X16090476Y-20237200D02*
X15995238Y-20284819D01*
X15995238Y-20284819D02*
X15709524Y-20284819D01*
X15709524Y-20284819D02*
X15614286Y-20237200D01*
X15614286Y-20237200D02*
X15566667Y-20189580D01*
X2757142Y-26084819D02*
X2423809Y-25608628D01*
X2185714Y-26084819D02*
X2185714Y-25084819D01*
X2185714Y-25084819D02*
X2566666Y-25084819D01*
X2566666Y-25084819D02*
X2661904Y-25132438D01*
X2661904Y-25132438D02*
X2709523Y-25180057D01*
X2709523Y-25180057D02*
X2757142Y-25275295D01*
X2757142Y-25275295D02*
X2757142Y-25418152D01*
X2757142Y-25418152D02*
X2709523Y-25513390D01*
X2709523Y-25513390D02*
X2661904Y-25561009D01*
X2661904Y-25561009D02*
X2566666Y-25608628D01*
X2566666Y-25608628D02*
X2185714Y-25608628D01*
X3709523Y-26084819D02*
X3138095Y-26084819D01*
X3423809Y-26084819D02*
X3423809Y-25084819D01*
X3423809Y-25084819D02*
X3328571Y-25227676D01*
X3328571Y-25227676D02*
X3233333Y-25322914D01*
X3233333Y-25322914D02*
X3138095Y-25370533D01*
X4661904Y-26084819D02*
X4090476Y-26084819D01*
X4376190Y-26084819D02*
X4376190Y-25084819D01*
X4376190Y-25084819D02*
X4280952Y-25227676D01*
X4280952Y-25227676D02*
X4185714Y-25322914D01*
X4185714Y-25322914D02*
X4090476Y-25370533D01*
X6533333Y-22999580D02*
X6485714Y-23047200D01*
X6485714Y-23047200D02*
X6342857Y-23094819D01*
X6342857Y-23094819D02*
X6247619Y-23094819D01*
X6247619Y-23094819D02*
X6104762Y-23047200D01*
X6104762Y-23047200D02*
X6009524Y-22951961D01*
X6009524Y-22951961D02*
X5961905Y-22856723D01*
X5961905Y-22856723D02*
X5914286Y-22666247D01*
X5914286Y-22666247D02*
X5914286Y-22523390D01*
X5914286Y-22523390D02*
X5961905Y-22332914D01*
X5961905Y-22332914D02*
X6009524Y-22237676D01*
X6009524Y-22237676D02*
X6104762Y-22142438D01*
X6104762Y-22142438D02*
X6247619Y-22094819D01*
X6247619Y-22094819D02*
X6342857Y-22094819D01*
X6342857Y-22094819D02*
X6485714Y-22142438D01*
X6485714Y-22142438D02*
X6533333Y-22190057D01*
X7438095Y-22094819D02*
X6961905Y-22094819D01*
X6961905Y-22094819D02*
X6914286Y-22571009D01*
X6914286Y-22571009D02*
X6961905Y-22523390D01*
X6961905Y-22523390D02*
X7057143Y-22475771D01*
X7057143Y-22475771D02*
X7295238Y-22475771D01*
X7295238Y-22475771D02*
X7390476Y-22523390D01*
X7390476Y-22523390D02*
X7438095Y-22571009D01*
X7438095Y-22571009D02*
X7485714Y-22666247D01*
X7485714Y-22666247D02*
X7485714Y-22904342D01*
X7485714Y-22904342D02*
X7438095Y-22999580D01*
X7438095Y-22999580D02*
X7390476Y-23047200D01*
X7390476Y-23047200D02*
X7295238Y-23094819D01*
X7295238Y-23094819D02*
X7057143Y-23094819D01*
X7057143Y-23094819D02*
X6961905Y-23047200D01*
X6961905Y-23047200D02*
X6914286Y-22999580D01*
X9874819Y-4983333D02*
X10589104Y-4983333D01*
X10589104Y-4983333D02*
X10731961Y-5030952D01*
X10731961Y-5030952D02*
X10827200Y-5126190D01*
X10827200Y-5126190D02*
X10874819Y-5269047D01*
X10874819Y-5269047D02*
X10874819Y-5364285D01*
X9970057Y-4554761D02*
X9922438Y-4507142D01*
X9922438Y-4507142D02*
X9874819Y-4411904D01*
X9874819Y-4411904D02*
X9874819Y-4173809D01*
X9874819Y-4173809D02*
X9922438Y-4078571D01*
X9922438Y-4078571D02*
X9970057Y-4030952D01*
X9970057Y-4030952D02*
X10065295Y-3983333D01*
X10065295Y-3983333D02*
X10160533Y-3983333D01*
X10160533Y-3983333D02*
X10303390Y-4030952D01*
X10303390Y-4030952D02*
X10874819Y-4602380D01*
X10874819Y-4602380D02*
X10874819Y-3983333D01*
X13233333Y-20284819D02*
X12900000Y-19808628D01*
X12661905Y-20284819D02*
X12661905Y-19284819D01*
X12661905Y-19284819D02*
X13042857Y-19284819D01*
X13042857Y-19284819D02*
X13138095Y-19332438D01*
X13138095Y-19332438D02*
X13185714Y-19380057D01*
X13185714Y-19380057D02*
X13233333Y-19475295D01*
X13233333Y-19475295D02*
X13233333Y-19618152D01*
X13233333Y-19618152D02*
X13185714Y-19713390D01*
X13185714Y-19713390D02*
X13138095Y-19761009D01*
X13138095Y-19761009D02*
X13042857Y-19808628D01*
X13042857Y-19808628D02*
X12661905Y-19808628D01*
X14185714Y-20284819D02*
X13614286Y-20284819D01*
X13900000Y-20284819D02*
X13900000Y-19284819D01*
X13900000Y-19284819D02*
X13804762Y-19427676D01*
X13804762Y-19427676D02*
X13709524Y-19522914D01*
X13709524Y-19522914D02*
X13614286Y-19570533D01*
X2688095Y-23010819D02*
X2688095Y-23820342D01*
X2688095Y-23820342D02*
X2735714Y-23915580D01*
X2735714Y-23915580D02*
X2783333Y-23963200D01*
X2783333Y-23963200D02*
X2878571Y-24010819D01*
X2878571Y-24010819D02*
X3069047Y-24010819D01*
X3069047Y-24010819D02*
X3164285Y-23963200D01*
X3164285Y-23963200D02*
X3211904Y-23915580D01*
X3211904Y-23915580D02*
X3259523Y-23820342D01*
X3259523Y-23820342D02*
X3259523Y-23010819D01*
X3640476Y-23010819D02*
X4259523Y-23010819D01*
X4259523Y-23010819D02*
X3926190Y-23391771D01*
X3926190Y-23391771D02*
X4069047Y-23391771D01*
X4069047Y-23391771D02*
X4164285Y-23439390D01*
X4164285Y-23439390D02*
X4211904Y-23487009D01*
X4211904Y-23487009D02*
X4259523Y-23582247D01*
X4259523Y-23582247D02*
X4259523Y-23820342D01*
X4259523Y-23820342D02*
X4211904Y-23915580D01*
X4211904Y-23915580D02*
X4164285Y-23963200D01*
X4164285Y-23963200D02*
X4069047Y-24010819D01*
X4069047Y-24010819D02*
X3783333Y-24010819D01*
X3783333Y-24010819D02*
X3688095Y-23963200D01*
X3688095Y-23963200D02*
X3640476Y-23915580D01*
X8533333Y-21399580D02*
X8485714Y-21447200D01*
X8485714Y-21447200D02*
X8342857Y-21494819D01*
X8342857Y-21494819D02*
X8247619Y-21494819D01*
X8247619Y-21494819D02*
X8104762Y-21447200D01*
X8104762Y-21447200D02*
X8009524Y-21351961D01*
X8009524Y-21351961D02*
X7961905Y-21256723D01*
X7961905Y-21256723D02*
X7914286Y-21066247D01*
X7914286Y-21066247D02*
X7914286Y-20923390D01*
X7914286Y-20923390D02*
X7961905Y-20732914D01*
X7961905Y-20732914D02*
X8009524Y-20637676D01*
X8009524Y-20637676D02*
X8104762Y-20542438D01*
X8104762Y-20542438D02*
X8247619Y-20494819D01*
X8247619Y-20494819D02*
X8342857Y-20494819D01*
X8342857Y-20494819D02*
X8485714Y-20542438D01*
X8485714Y-20542438D02*
X8533333Y-20590057D01*
X8866667Y-20494819D02*
X9533333Y-20494819D01*
X9533333Y-20494819D02*
X9104762Y-21494819D01*
X12557142Y-10284819D02*
X12223809Y-9808628D01*
X11985714Y-10284819D02*
X11985714Y-9284819D01*
X11985714Y-9284819D02*
X12366666Y-9284819D01*
X12366666Y-9284819D02*
X12461904Y-9332438D01*
X12461904Y-9332438D02*
X12509523Y-9380057D01*
X12509523Y-9380057D02*
X12557142Y-9475295D01*
X12557142Y-9475295D02*
X12557142Y-9618152D01*
X12557142Y-9618152D02*
X12509523Y-9713390D01*
X12509523Y-9713390D02*
X12461904Y-9761009D01*
X12461904Y-9761009D02*
X12366666Y-9808628D01*
X12366666Y-9808628D02*
X11985714Y-9808628D01*
X12938095Y-9380057D02*
X12985714Y-9332438D01*
X12985714Y-9332438D02*
X13080952Y-9284819D01*
X13080952Y-9284819D02*
X13319047Y-9284819D01*
X13319047Y-9284819D02*
X13414285Y-9332438D01*
X13414285Y-9332438D02*
X13461904Y-9380057D01*
X13461904Y-9380057D02*
X13509523Y-9475295D01*
X13509523Y-9475295D02*
X13509523Y-9570533D01*
X13509523Y-9570533D02*
X13461904Y-9713390D01*
X13461904Y-9713390D02*
X12890476Y-10284819D01*
X12890476Y-10284819D02*
X13509523Y-10284819D01*
X14366666Y-9618152D02*
X14366666Y-10284819D01*
X14128571Y-9237200D02*
X13890476Y-9951485D01*
X13890476Y-9951485D02*
X14509523Y-9951485D01*
X6233333Y1115180D02*
X5900000Y1591371D01*
X5661905Y1115180D02*
X5661905Y2115180D01*
X5661905Y2115180D02*
X6042857Y2115180D01*
X6042857Y2115180D02*
X6138095Y2067561D01*
X6138095Y2067561D02*
X6185714Y2019942D01*
X6185714Y2019942D02*
X6233333Y1924704D01*
X6233333Y1924704D02*
X6233333Y1781847D01*
X6233333Y1781847D02*
X6185714Y1686609D01*
X6185714Y1686609D02*
X6138095Y1638990D01*
X6138095Y1638990D02*
X6042857Y1591371D01*
X6042857Y1591371D02*
X5661905Y1591371D01*
X6709524Y1115180D02*
X6900000Y1115180D01*
X6900000Y1115180D02*
X6995238Y1162800D01*
X6995238Y1162800D02*
X7042857Y1210419D01*
X7042857Y1210419D02*
X7138095Y1353276D01*
X7138095Y1353276D02*
X7185714Y1543752D01*
X7185714Y1543752D02*
X7185714Y1924704D01*
X7185714Y1924704D02*
X7138095Y2019942D01*
X7138095Y2019942D02*
X7090476Y2067561D01*
X7090476Y2067561D02*
X6995238Y2115180D01*
X6995238Y2115180D02*
X6804762Y2115180D01*
X6804762Y2115180D02*
X6709524Y2067561D01*
X6709524Y2067561D02*
X6661905Y2019942D01*
X6661905Y2019942D02*
X6614286Y1924704D01*
X6614286Y1924704D02*
X6614286Y1686609D01*
X6614286Y1686609D02*
X6661905Y1591371D01*
X6661905Y1591371D02*
X6709524Y1543752D01*
X6709524Y1543752D02*
X6804762Y1496133D01*
X6804762Y1496133D02*
X6995238Y1496133D01*
X6995238Y1496133D02*
X7090476Y1543752D01*
X7090476Y1543752D02*
X7138095Y1591371D01*
X7138095Y1591371D02*
X7185714Y1686609D01*
X9457142Y-18599580D02*
X9409523Y-18647200D01*
X9409523Y-18647200D02*
X9266666Y-18694819D01*
X9266666Y-18694819D02*
X9171428Y-18694819D01*
X9171428Y-18694819D02*
X9028571Y-18647200D01*
X9028571Y-18647200D02*
X8933333Y-18551961D01*
X8933333Y-18551961D02*
X8885714Y-18456723D01*
X8885714Y-18456723D02*
X8838095Y-18266247D01*
X8838095Y-18266247D02*
X8838095Y-18123390D01*
X8838095Y-18123390D02*
X8885714Y-17932914D01*
X8885714Y-17932914D02*
X8933333Y-17837676D01*
X8933333Y-17837676D02*
X9028571Y-17742438D01*
X9028571Y-17742438D02*
X9171428Y-17694819D01*
X9171428Y-17694819D02*
X9266666Y-17694819D01*
X9266666Y-17694819D02*
X9409523Y-17742438D01*
X9409523Y-17742438D02*
X9457142Y-17790057D01*
X10409523Y-18694819D02*
X9838095Y-18694819D01*
X10123809Y-18694819D02*
X10123809Y-17694819D01*
X10123809Y-17694819D02*
X10028571Y-17837676D01*
X10028571Y-17837676D02*
X9933333Y-17932914D01*
X9933333Y-17932914D02*
X9838095Y-17980533D01*
X11361904Y-18694819D02*
X10790476Y-18694819D01*
X11076190Y-18694819D02*
X11076190Y-17694819D01*
X11076190Y-17694819D02*
X10980952Y-17837676D01*
X10980952Y-17837676D02*
X10885714Y-17932914D01*
X10885714Y-17932914D02*
X10790476Y-17980533D01*
X15761905Y-11884819D02*
X15761905Y-10884819D01*
X15761905Y-10884819D02*
X16000000Y-10884819D01*
X16000000Y-10884819D02*
X16142857Y-10932438D01*
X16142857Y-10932438D02*
X16238095Y-11027676D01*
X16238095Y-11027676D02*
X16285714Y-11122914D01*
X16285714Y-11122914D02*
X16333333Y-11313390D01*
X16333333Y-11313390D02*
X16333333Y-11456247D01*
X16333333Y-11456247D02*
X16285714Y-11646723D01*
X16285714Y-11646723D02*
X16238095Y-11741961D01*
X16238095Y-11741961D02*
X16142857Y-11837200D01*
X16142857Y-11837200D02*
X16000000Y-11884819D01*
X16000000Y-11884819D02*
X15761905Y-11884819D01*
X16714286Y-10980057D02*
X16761905Y-10932438D01*
X16761905Y-10932438D02*
X16857143Y-10884819D01*
X16857143Y-10884819D02*
X17095238Y-10884819D01*
X17095238Y-10884819D02*
X17190476Y-10932438D01*
X17190476Y-10932438D02*
X17238095Y-10980057D01*
X17238095Y-10980057D02*
X17285714Y-11075295D01*
X17285714Y-11075295D02*
X17285714Y-11170533D01*
X17285714Y-11170533D02*
X17238095Y-11313390D01*
X17238095Y-11313390D02*
X16666667Y-11884819D01*
X16666667Y-11884819D02*
X17285714Y-11884819D01*
X14957142Y-9084819D02*
X14623809Y-8608628D01*
X14385714Y-9084819D02*
X14385714Y-8084819D01*
X14385714Y-8084819D02*
X14766666Y-8084819D01*
X14766666Y-8084819D02*
X14861904Y-8132438D01*
X14861904Y-8132438D02*
X14909523Y-8180057D01*
X14909523Y-8180057D02*
X14957142Y-8275295D01*
X14957142Y-8275295D02*
X14957142Y-8418152D01*
X14957142Y-8418152D02*
X14909523Y-8513390D01*
X14909523Y-8513390D02*
X14861904Y-8561009D01*
X14861904Y-8561009D02*
X14766666Y-8608628D01*
X14766666Y-8608628D02*
X14385714Y-8608628D01*
X15338095Y-8180057D02*
X15385714Y-8132438D01*
X15385714Y-8132438D02*
X15480952Y-8084819D01*
X15480952Y-8084819D02*
X15719047Y-8084819D01*
X15719047Y-8084819D02*
X15814285Y-8132438D01*
X15814285Y-8132438D02*
X15861904Y-8180057D01*
X15861904Y-8180057D02*
X15909523Y-8275295D01*
X15909523Y-8275295D02*
X15909523Y-8370533D01*
X15909523Y-8370533D02*
X15861904Y-8513390D01*
X15861904Y-8513390D02*
X15290476Y-9084819D01*
X15290476Y-9084819D02*
X15909523Y-9084819D01*
X16290476Y-8180057D02*
X16338095Y-8132438D01*
X16338095Y-8132438D02*
X16433333Y-8084819D01*
X16433333Y-8084819D02*
X16671428Y-8084819D01*
X16671428Y-8084819D02*
X16766666Y-8132438D01*
X16766666Y-8132438D02*
X16814285Y-8180057D01*
X16814285Y-8180057D02*
X16861904Y-8275295D01*
X16861904Y-8275295D02*
X16861904Y-8370533D01*
X16861904Y-8370533D02*
X16814285Y-8513390D01*
X16814285Y-8513390D02*
X16242857Y-9084819D01*
X16242857Y-9084819D02*
X16861904Y-9084819D01*
X13757142Y-7884819D02*
X13423809Y-7408628D01*
X13185714Y-7884819D02*
X13185714Y-6884819D01*
X13185714Y-6884819D02*
X13566666Y-6884819D01*
X13566666Y-6884819D02*
X13661904Y-6932438D01*
X13661904Y-6932438D02*
X13709523Y-6980057D01*
X13709523Y-6980057D02*
X13757142Y-7075295D01*
X13757142Y-7075295D02*
X13757142Y-7218152D01*
X13757142Y-7218152D02*
X13709523Y-7313390D01*
X13709523Y-7313390D02*
X13661904Y-7361009D01*
X13661904Y-7361009D02*
X13566666Y-7408628D01*
X13566666Y-7408628D02*
X13185714Y-7408628D01*
X14709523Y-7884819D02*
X14138095Y-7884819D01*
X14423809Y-7884819D02*
X14423809Y-6884819D01*
X14423809Y-6884819D02*
X14328571Y-7027676D01*
X14328571Y-7027676D02*
X14233333Y-7122914D01*
X14233333Y-7122914D02*
X14138095Y-7170533D01*
X15042857Y-6884819D02*
X15709523Y-6884819D01*
X15709523Y-6884819D02*
X15280952Y-7884819D01*
X9238095Y-37804819D02*
X9238095Y-38614342D01*
X9238095Y-38614342D02*
X9285714Y-38709580D01*
X9285714Y-38709580D02*
X9333333Y-38757200D01*
X9333333Y-38757200D02*
X9428571Y-38804819D01*
X9428571Y-38804819D02*
X9619047Y-38804819D01*
X9619047Y-38804819D02*
X9714285Y-38757200D01*
X9714285Y-38757200D02*
X9761904Y-38709580D01*
X9761904Y-38709580D02*
X9809523Y-38614342D01*
X9809523Y-38614342D02*
X9809523Y-37804819D01*
X10809523Y-38804819D02*
X10238095Y-38804819D01*
X10523809Y-38804819D02*
X10523809Y-37804819D01*
X10523809Y-37804819D02*
X10428571Y-37947676D01*
X10428571Y-37947676D02*
X10333333Y-38042914D01*
X10333333Y-38042914D02*
X10238095Y-38090533D01*
X16633333Y-5484819D02*
X16300000Y-5008628D01*
X16061905Y-5484819D02*
X16061905Y-4484819D01*
X16061905Y-4484819D02*
X16442857Y-4484819D01*
X16442857Y-4484819D02*
X16538095Y-4532438D01*
X16538095Y-4532438D02*
X16585714Y-4580057D01*
X16585714Y-4580057D02*
X16633333Y-4675295D01*
X16633333Y-4675295D02*
X16633333Y-4818152D01*
X16633333Y-4818152D02*
X16585714Y-4913390D01*
X16585714Y-4913390D02*
X16538095Y-4961009D01*
X16538095Y-4961009D02*
X16442857Y-5008628D01*
X16442857Y-5008628D02*
X16061905Y-5008628D01*
X17204762Y-4913390D02*
X17109524Y-4865771D01*
X17109524Y-4865771D02*
X17061905Y-4818152D01*
X17061905Y-4818152D02*
X17014286Y-4722914D01*
X17014286Y-4722914D02*
X17014286Y-4675295D01*
X17014286Y-4675295D02*
X17061905Y-4580057D01*
X17061905Y-4580057D02*
X17109524Y-4532438D01*
X17109524Y-4532438D02*
X17204762Y-4484819D01*
X17204762Y-4484819D02*
X17395238Y-4484819D01*
X17395238Y-4484819D02*
X17490476Y-4532438D01*
X17490476Y-4532438D02*
X17538095Y-4580057D01*
X17538095Y-4580057D02*
X17585714Y-4675295D01*
X17585714Y-4675295D02*
X17585714Y-4722914D01*
X17585714Y-4722914D02*
X17538095Y-4818152D01*
X17538095Y-4818152D02*
X17490476Y-4865771D01*
X17490476Y-4865771D02*
X17395238Y-4913390D01*
X17395238Y-4913390D02*
X17204762Y-4913390D01*
X17204762Y-4913390D02*
X17109524Y-4961009D01*
X17109524Y-4961009D02*
X17061905Y-5008628D01*
X17061905Y-5008628D02*
X17014286Y-5103866D01*
X17014286Y-5103866D02*
X17014286Y-5294342D01*
X17014286Y-5294342D02*
X17061905Y-5389580D01*
X17061905Y-5389580D02*
X17109524Y-5437200D01*
X17109524Y-5437200D02*
X17204762Y-5484819D01*
X17204762Y-5484819D02*
X17395238Y-5484819D01*
X17395238Y-5484819D02*
X17490476Y-5437200D01*
X17490476Y-5437200D02*
X17538095Y-5389580D01*
X17538095Y-5389580D02*
X17585714Y-5294342D01*
X17585714Y-5294342D02*
X17585714Y-5103866D01*
X17585714Y-5103866D02*
X17538095Y-5008628D01*
X17538095Y-5008628D02*
X17490476Y-4961009D01*
X17490476Y-4961009D02*
X17395238Y-4913390D01*
X13504761Y-14350057D02*
X13409523Y-14302438D01*
X13409523Y-14302438D02*
X13314285Y-14207200D01*
X13314285Y-14207200D02*
X13171428Y-14064342D01*
X13171428Y-14064342D02*
X13076190Y-14016723D01*
X13076190Y-14016723D02*
X12980952Y-14016723D01*
X13028571Y-14254819D02*
X12933333Y-14207200D01*
X12933333Y-14207200D02*
X12838095Y-14111961D01*
X12838095Y-14111961D02*
X12790476Y-13921485D01*
X12790476Y-13921485D02*
X12790476Y-13588152D01*
X12790476Y-13588152D02*
X12838095Y-13397676D01*
X12838095Y-13397676D02*
X12933333Y-13302438D01*
X12933333Y-13302438D02*
X13028571Y-13254819D01*
X13028571Y-13254819D02*
X13219047Y-13254819D01*
X13219047Y-13254819D02*
X13314285Y-13302438D01*
X13314285Y-13302438D02*
X13409523Y-13397676D01*
X13409523Y-13397676D02*
X13457142Y-13588152D01*
X13457142Y-13588152D02*
X13457142Y-13921485D01*
X13457142Y-13921485D02*
X13409523Y-14111961D01*
X13409523Y-14111961D02*
X13314285Y-14207200D01*
X13314285Y-14207200D02*
X13219047Y-14254819D01*
X13219047Y-14254819D02*
X13028571Y-14254819D01*
X14409523Y-14254819D02*
X13838095Y-14254819D01*
X14123809Y-14254819D02*
X14123809Y-13254819D01*
X14123809Y-13254819D02*
X14028571Y-13397676D01*
X14028571Y-13397676D02*
X13933333Y-13492914D01*
X13933333Y-13492914D02*
X13838095Y-13540533D01*
X15433333Y-5484819D02*
X15100000Y-5008628D01*
X14861905Y-5484819D02*
X14861905Y-4484819D01*
X14861905Y-4484819D02*
X15242857Y-4484819D01*
X15242857Y-4484819D02*
X15338095Y-4532438D01*
X15338095Y-4532438D02*
X15385714Y-4580057D01*
X15385714Y-4580057D02*
X15433333Y-4675295D01*
X15433333Y-4675295D02*
X15433333Y-4818152D01*
X15433333Y-4818152D02*
X15385714Y-4913390D01*
X15385714Y-4913390D02*
X15338095Y-4961009D01*
X15338095Y-4961009D02*
X15242857Y-5008628D01*
X15242857Y-5008628D02*
X14861905Y-5008628D01*
X15766667Y-4484819D02*
X16433333Y-4484819D01*
X16433333Y-4484819D02*
X16004762Y-5484819D01*
X12957142Y1115180D02*
X12623809Y1591371D01*
X12385714Y1115180D02*
X12385714Y2115180D01*
X12385714Y2115180D02*
X12766666Y2115180D01*
X12766666Y2115180D02*
X12861904Y2067561D01*
X12861904Y2067561D02*
X12909523Y2019942D01*
X12909523Y2019942D02*
X12957142Y1924704D01*
X12957142Y1924704D02*
X12957142Y1781847D01*
X12957142Y1781847D02*
X12909523Y1686609D01*
X12909523Y1686609D02*
X12861904Y1638990D01*
X12861904Y1638990D02*
X12766666Y1591371D01*
X12766666Y1591371D02*
X12385714Y1591371D01*
X13909523Y1115180D02*
X13338095Y1115180D01*
X13623809Y1115180D02*
X13623809Y2115180D01*
X13623809Y2115180D02*
X13528571Y1972323D01*
X13528571Y1972323D02*
X13433333Y1877085D01*
X13433333Y1877085D02*
X13338095Y1829466D01*
X14385714Y1115180D02*
X14576190Y1115180D01*
X14576190Y1115180D02*
X14671428Y1162800D01*
X14671428Y1162800D02*
X14719047Y1210419D01*
X14719047Y1210419D02*
X14814285Y1353276D01*
X14814285Y1353276D02*
X14861904Y1543752D01*
X14861904Y1543752D02*
X14861904Y1924704D01*
X14861904Y1924704D02*
X14814285Y2019942D01*
X14814285Y2019942D02*
X14766666Y2067561D01*
X14766666Y2067561D02*
X14671428Y2115180D01*
X14671428Y2115180D02*
X14480952Y2115180D01*
X14480952Y2115180D02*
X14385714Y2067561D01*
X14385714Y2067561D02*
X14338095Y2019942D01*
X14338095Y2019942D02*
X14290476Y1924704D01*
X14290476Y1924704D02*
X14290476Y1686609D01*
X14290476Y1686609D02*
X14338095Y1591371D01*
X14338095Y1591371D02*
X14385714Y1543752D01*
X14385714Y1543752D02*
X14480952Y1496133D01*
X14480952Y1496133D02*
X14671428Y1496133D01*
X14671428Y1496133D02*
X14766666Y1543752D01*
X14766666Y1543752D02*
X14814285Y1591371D01*
X14814285Y1591371D02*
X14861904Y1686609D01*
X4638095Y-22404819D02*
X4638095Y-23214342D01*
X4638095Y-23214342D02*
X4685714Y-23309580D01*
X4685714Y-23309580D02*
X4733333Y-23357200D01*
X4733333Y-23357200D02*
X4828571Y-23404819D01*
X4828571Y-23404819D02*
X5019047Y-23404819D01*
X5019047Y-23404819D02*
X5114285Y-23357200D01*
X5114285Y-23357200D02*
X5161904Y-23309580D01*
X5161904Y-23309580D02*
X5209523Y-23214342D01*
X5209523Y-23214342D02*
X5209523Y-22404819D01*
X6114285Y-22738152D02*
X6114285Y-23404819D01*
X5876190Y-22357200D02*
X5638095Y-23071485D01*
X5638095Y-23071485D02*
X6257142Y-23071485D01*
X13233333Y-19199580D02*
X13185714Y-19247200D01*
X13185714Y-19247200D02*
X13042857Y-19294819D01*
X13042857Y-19294819D02*
X12947619Y-19294819D01*
X12947619Y-19294819D02*
X12804762Y-19247200D01*
X12804762Y-19247200D02*
X12709524Y-19151961D01*
X12709524Y-19151961D02*
X12661905Y-19056723D01*
X12661905Y-19056723D02*
X12614286Y-18866247D01*
X12614286Y-18866247D02*
X12614286Y-18723390D01*
X12614286Y-18723390D02*
X12661905Y-18532914D01*
X12661905Y-18532914D02*
X12709524Y-18437676D01*
X12709524Y-18437676D02*
X12804762Y-18342438D01*
X12804762Y-18342438D02*
X12947619Y-18294819D01*
X12947619Y-18294819D02*
X13042857Y-18294819D01*
X13042857Y-18294819D02*
X13185714Y-18342438D01*
X13185714Y-18342438D02*
X13233333Y-18390057D01*
X13804762Y-18723390D02*
X13709524Y-18675771D01*
X13709524Y-18675771D02*
X13661905Y-18628152D01*
X13661905Y-18628152D02*
X13614286Y-18532914D01*
X13614286Y-18532914D02*
X13614286Y-18485295D01*
X13614286Y-18485295D02*
X13661905Y-18390057D01*
X13661905Y-18390057D02*
X13709524Y-18342438D01*
X13709524Y-18342438D02*
X13804762Y-18294819D01*
X13804762Y-18294819D02*
X13995238Y-18294819D01*
X13995238Y-18294819D02*
X14090476Y-18342438D01*
X14090476Y-18342438D02*
X14138095Y-18390057D01*
X14138095Y-18390057D02*
X14185714Y-18485295D01*
X14185714Y-18485295D02*
X14185714Y-18532914D01*
X14185714Y-18532914D02*
X14138095Y-18628152D01*
X14138095Y-18628152D02*
X14090476Y-18675771D01*
X14090476Y-18675771D02*
X13995238Y-18723390D01*
X13995238Y-18723390D02*
X13804762Y-18723390D01*
X13804762Y-18723390D02*
X13709524Y-18771009D01*
X13709524Y-18771009D02*
X13661905Y-18818628D01*
X13661905Y-18818628D02*
X13614286Y-18913866D01*
X13614286Y-18913866D02*
X13614286Y-19104342D01*
X13614286Y-19104342D02*
X13661905Y-19199580D01*
X13661905Y-19199580D02*
X13709524Y-19247200D01*
X13709524Y-19247200D02*
X13804762Y-19294819D01*
X13804762Y-19294819D02*
X13995238Y-19294819D01*
X13995238Y-19294819D02*
X14090476Y-19247200D01*
X14090476Y-19247200D02*
X14138095Y-19199580D01*
X14138095Y-19199580D02*
X14185714Y-19104342D01*
X14185714Y-19104342D02*
X14185714Y-18913866D01*
X14185714Y-18913866D02*
X14138095Y-18818628D01*
X14138095Y-18818628D02*
X14090476Y-18771009D01*
X14090476Y-18771009D02*
X13995238Y-18723390D01*
X13757142Y-9084819D02*
X13423809Y-8608628D01*
X13185714Y-9084819D02*
X13185714Y-8084819D01*
X13185714Y-8084819D02*
X13566666Y-8084819D01*
X13566666Y-8084819D02*
X13661904Y-8132438D01*
X13661904Y-8132438D02*
X13709523Y-8180057D01*
X13709523Y-8180057D02*
X13757142Y-8275295D01*
X13757142Y-8275295D02*
X13757142Y-8418152D01*
X13757142Y-8418152D02*
X13709523Y-8513390D01*
X13709523Y-8513390D02*
X13661904Y-8561009D01*
X13661904Y-8561009D02*
X13566666Y-8608628D01*
X13566666Y-8608628D02*
X13185714Y-8608628D01*
X14138095Y-8180057D02*
X14185714Y-8132438D01*
X14185714Y-8132438D02*
X14280952Y-8084819D01*
X14280952Y-8084819D02*
X14519047Y-8084819D01*
X14519047Y-8084819D02*
X14614285Y-8132438D01*
X14614285Y-8132438D02*
X14661904Y-8180057D01*
X14661904Y-8180057D02*
X14709523Y-8275295D01*
X14709523Y-8275295D02*
X14709523Y-8370533D01*
X14709523Y-8370533D02*
X14661904Y-8513390D01*
X14661904Y-8513390D02*
X14090476Y-9084819D01*
X14090476Y-9084819D02*
X14709523Y-9084819D01*
X15661904Y-9084819D02*
X15090476Y-9084819D01*
X15376190Y-9084819D02*
X15376190Y-8084819D01*
X15376190Y-8084819D02*
X15280952Y-8227676D01*
X15280952Y-8227676D02*
X15185714Y-8322914D01*
X15185714Y-8322914D02*
X15090476Y-8370533D01*
X14957142Y-10284819D02*
X14623809Y-9808628D01*
X14385714Y-10284819D02*
X14385714Y-9284819D01*
X14385714Y-9284819D02*
X14766666Y-9284819D01*
X14766666Y-9284819D02*
X14861904Y-9332438D01*
X14861904Y-9332438D02*
X14909523Y-9380057D01*
X14909523Y-9380057D02*
X14957142Y-9475295D01*
X14957142Y-9475295D02*
X14957142Y-9618152D01*
X14957142Y-9618152D02*
X14909523Y-9713390D01*
X14909523Y-9713390D02*
X14861904Y-9761009D01*
X14861904Y-9761009D02*
X14766666Y-9808628D01*
X14766666Y-9808628D02*
X14385714Y-9808628D01*
X15338095Y-9380057D02*
X15385714Y-9332438D01*
X15385714Y-9332438D02*
X15480952Y-9284819D01*
X15480952Y-9284819D02*
X15719047Y-9284819D01*
X15719047Y-9284819D02*
X15814285Y-9332438D01*
X15814285Y-9332438D02*
X15861904Y-9380057D01*
X15861904Y-9380057D02*
X15909523Y-9475295D01*
X15909523Y-9475295D02*
X15909523Y-9570533D01*
X15909523Y-9570533D02*
X15861904Y-9713390D01*
X15861904Y-9713390D02*
X15290476Y-10284819D01*
X15290476Y-10284819D02*
X15909523Y-10284819D01*
X16242857Y-9284819D02*
X16909523Y-9284819D01*
X16909523Y-9284819D02*
X16480952Y-10284819D01*
%TO.C,U2*%
D10*
X9090000Y-19140000D02*
X9440000Y-19140000D01*
X9090000Y-19490000D02*
X9090000Y-19140000D01*
X9090000Y-23360000D02*
X9090000Y-23010000D01*
X9440000Y-23360000D02*
X9090000Y-23360000D01*
X12960000Y-19140000D02*
X13310000Y-19140000D01*
X13310000Y-19140000D02*
X13310000Y-19490000D01*
X13310000Y-23010000D02*
X13310000Y-23360000D01*
X13310000Y-23360000D02*
X12960000Y-23360000D01*
X8560000Y-19850000D02*
X8230000Y-20090000D01*
X8230000Y-19610000D01*
X8560000Y-19850000D01*
G36*
X8560000Y-19850000D02*
G01*
X8230000Y-20090000D01*
X8230000Y-19610000D01*
X8560000Y-19850000D01*
G37*
%TO.C,D1*%
X12540000Y5800000D02*
X12540000Y4600000D01*
X14500000Y5800000D02*
X12540000Y5800000D01*
X14500000Y4600000D02*
X12540000Y4600000D01*
%TO.C,R15*%
X16646359Y-7020000D02*
X16953641Y-7020000D01*
X16646359Y-7780000D02*
X16953641Y-7780000D01*
%TO.C,C9*%
X13259420Y-18490000D02*
X13540580Y-18490000D01*
X13259420Y-19510000D02*
X13540580Y-19510000D01*
%TO.C,C10*%
X8892164Y-19040000D02*
X9107836Y-19040000D01*
X8892164Y-19760000D02*
X9107836Y-19760000D01*
%TO.C,J4*%
X13295000Y-11770000D02*
X13295000Y-11135000D01*
X13930000Y-11770000D02*
X13295000Y-11770000D01*
%TO.C,R5*%
X13046359Y-5820000D02*
X13353641Y-5820000D01*
X13046359Y-6580000D02*
X13353641Y-6580000D01*
%TO.C,Q2*%
X14340000Y-14640000D02*
X15860000Y-14640000D01*
X14340000Y-14690000D02*
X14340000Y-14640000D01*
X14340000Y-16590000D02*
X14340000Y-15810000D01*
X14340000Y-17760000D02*
X14340000Y-17710000D01*
X15860000Y-14640000D02*
X15860000Y-15640000D01*
X15860000Y-16760000D02*
X15860000Y-17760000D01*
X15860000Y-17760000D02*
X14340000Y-17760000D01*
X13800000Y-15820000D02*
X14040000Y-16150000D01*
X13560000Y-16150000D01*
X13800000Y-15820000D01*
G36*
X14040000Y-16150000D02*
G01*
X13560000Y-16150000D01*
X13800000Y-15820000D01*
X14040000Y-16150000D01*
G37*
%TO.C,C6*%
X8592164Y-20840000D02*
X8807836Y-20840000D01*
X8592164Y-21560000D02*
X8807836Y-21560000D01*
%TO.C,R25*%
X14246359Y-10620000D02*
X14553641Y-10620000D01*
X14246359Y-11380000D02*
X14553641Y-11380000D01*
%TO.C,R28*%
X16646359Y-10620000D02*
X16953641Y-10620000D01*
X16646359Y-11380000D02*
X16953641Y-11380000D01*
%TO.C,L1*%
X16037221Y-24690000D02*
X16362779Y-24690000D01*
X16037221Y-25710000D02*
X16362779Y-25710000D01*
%TO.C,R6*%
X14246359Y-5820000D02*
X14553641Y-5820000D01*
X14246359Y-6580000D02*
X14553641Y-6580000D01*
%TO.C,C2*%
X6592164Y-26440000D02*
X6807836Y-26440000D01*
X6592164Y-27160000D02*
X6807836Y-27160000D01*
%TO.C,R10*%
X7446359Y780000D02*
X7753641Y780000D01*
X7446359Y20000D02*
X7753641Y20000D01*
%TO.C,R12*%
X4346359Y-26420000D02*
X4653641Y-26420000D01*
X4346359Y-27180000D02*
X4653641Y-27180000D01*
%TO.C,R4*%
X9046359Y-23020000D02*
X9353641Y-23020000D01*
X9046359Y-23780000D02*
X9353641Y-23780000D01*
%TO.C,U5*%
X5490000Y6760000D02*
X7310000Y6760000D01*
X5490000Y6710000D02*
X5490000Y6760000D01*
X5490000Y3640000D02*
X5490000Y3690000D01*
X7310000Y6760000D02*
X7310000Y6710000D01*
X7310000Y3690000D02*
X7310000Y3640000D01*
X7310000Y3640000D02*
X5490000Y3640000D01*
X4950000Y6710000D02*
X4710000Y7040000D01*
X5190000Y7040000D01*
X4950000Y6710000D01*
G36*
X4950000Y6710000D02*
G01*
X4710000Y7040000D01*
X5190000Y7040000D01*
X4950000Y6710000D01*
G37*
%TO.C,J3*%
X14130000Y-23870000D02*
X14130000Y-22600000D01*
X14970000Y-21440000D02*
X14970000Y-21210000D01*
X15400000Y-23870000D02*
X14130000Y-23870000D01*
X15830000Y-21440000D02*
X15830000Y-21210000D01*
X16670000Y-21210000D02*
X16670000Y-18450000D01*
X17510000Y-12450000D02*
X18370000Y-12450000D01*
X17510000Y-18450000D02*
X17510000Y-12450000D01*
X17510000Y-21522642D02*
X17510000Y-21210000D01*
X18370000Y-12450000D02*
X18370000Y-18450000D01*
X18370000Y-21522642D02*
X18370000Y-21210000D01*
X19210000Y-21210000D02*
X19210000Y-18450000D01*
X20050000Y-12450000D02*
X20910000Y-12450000D01*
X20050000Y-18450000D02*
X20050000Y-12450000D01*
X20050000Y-21522642D02*
X20050000Y-21210000D01*
X20910000Y-12450000D02*
X20910000Y-18450000D01*
X20910000Y-21522642D02*
X20910000Y-21210000D01*
X14020000Y-18450000D02*
X21860000Y-18450000D01*
X21860000Y-21210000D01*
X14020000Y-21210000D01*
X14020000Y-18450000D01*
X14970000Y-12450000D02*
X15830000Y-12450000D01*
X15830000Y-18450000D01*
X14970000Y-18450000D01*
X14970000Y-12450000D01*
G36*
X14970000Y-12450000D02*
G01*
X15830000Y-12450000D01*
X15830000Y-18450000D01*
X14970000Y-18450000D01*
X14970000Y-12450000D01*
G37*
%TO.C,R14*%
X15446359Y-7020000D02*
X15753641Y-7020000D01*
X15446359Y-7780000D02*
X15753641Y-7780000D01*
%TO.C,R13*%
X5446359Y-26420000D02*
X5753641Y-26420000D01*
X5446359Y-27180000D02*
X5753641Y-27180000D01*
%TO.C,SW1*%
X2050000Y-20150000D02*
X2050000Y-22150000D01*
X3050000Y-18850000D02*
X3500000Y-18400000D01*
X3050000Y-23450000D02*
X3500000Y-23900000D01*
X3500000Y-18400000D02*
X6100000Y-18400000D01*
X3500000Y-23900000D02*
X6100000Y-23900000D01*
X6550000Y-18850000D02*
X6100000Y-18400000D01*
X6550000Y-23450000D02*
X6100000Y-23900000D01*
X7550000Y-20150000D02*
X7550000Y-22150000D01*
%TO.C,R26*%
X6646359Y-20820000D02*
X6953641Y-20820000D01*
X6646359Y-21580000D02*
X6953641Y-21580000D01*
%TO.C,R2*%
X14246359Y-20620000D02*
X14553641Y-20620000D01*
X14246359Y-21380000D02*
X14553641Y-21380000D01*
%TO.C,R23*%
X16646359Y-9420000D02*
X16953641Y-9420000D01*
X16646359Y-10180000D02*
X16953641Y-10180000D01*
%TO.C,C4*%
X4392164Y-23440000D02*
X4607836Y-23440000D01*
X4392164Y-24160000D02*
X4607836Y-24160000D01*
%TO.C,R20*%
X13046359Y-9420000D02*
X13353641Y-9420000D01*
X13046359Y-10180000D02*
X13353641Y-10180000D01*
%TO.C,Q3*%
X15840000Y-14640000D02*
X17360000Y-14640000D01*
X15840000Y-14690000D02*
X15840000Y-14640000D01*
X15840000Y-16590000D02*
X15840000Y-15810000D01*
X15840000Y-17760000D02*
X15840000Y-17710000D01*
X17360000Y-14640000D02*
X17360000Y-15640000D01*
X17360000Y-16760000D02*
X17360000Y-17760000D01*
X17360000Y-17760000D02*
X15840000Y-17760000D01*
X15300000Y-15820000D02*
X15540000Y-16150000D01*
X15060000Y-16150000D01*
X15300000Y-15820000D01*
G36*
X15540000Y-16150000D02*
G01*
X15060000Y-16150000D01*
X15300000Y-15820000D01*
X15540000Y-16150000D01*
G37*
%TO.C,R18*%
X8646359Y780000D02*
X8953641Y780000D01*
X8646359Y20000D02*
X8953641Y20000D01*
%TO.C,C3*%
X3292164Y-23440000D02*
X3507836Y-23440000D01*
X3292164Y-24160000D02*
X3507836Y-24160000D01*
%TO.C,R16*%
X13046359Y-8220000D02*
X13353641Y-8220000D01*
X13046359Y-8980000D02*
X13353641Y-8980000D01*
%TO.C,C1*%
X10192164Y-23040000D02*
X10407836Y-23040000D01*
X10192164Y-23760000D02*
X10407836Y-23760000D01*
%TO.C,Q5*%
X14340000Y-12840000D02*
X15860000Y-12840000D01*
X14340000Y-12890000D02*
X14340000Y-12840000D01*
X14340000Y-14790000D02*
X14340000Y-14010000D01*
X14340000Y-15960000D02*
X14340000Y-15910000D01*
X15860000Y-12840000D02*
X15860000Y-13840000D01*
X15860000Y-14960000D02*
X15860000Y-15960000D01*
X15860000Y-15960000D02*
X14340000Y-15960000D01*
X13800000Y-14020000D02*
X14040000Y-14350000D01*
X13560000Y-14350000D01*
X13800000Y-14020000D01*
G36*
X14040000Y-14350000D02*
G01*
X13560000Y-14350000D01*
X13800000Y-14020000D01*
X14040000Y-14350000D01*
G37*
%TO.C,Q4*%
X12840000Y-12840000D02*
X14360000Y-12840000D01*
X12840000Y-12890000D02*
X12840000Y-12840000D01*
X12840000Y-14790000D02*
X12840000Y-14010000D01*
X12840000Y-15960000D02*
X12840000Y-15910000D01*
X14360000Y-12840000D02*
X14360000Y-13840000D01*
X14360000Y-14960000D02*
X14360000Y-15960000D01*
X14360000Y-15960000D02*
X12840000Y-15960000D01*
X12300000Y-14020000D02*
X12540000Y-14350000D01*
X12060000Y-14350000D01*
X12300000Y-14020000D01*
G36*
X12540000Y-14350000D02*
G01*
X12060000Y-14350000D01*
X12300000Y-14020000D01*
X12540000Y-14350000D01*
G37*
%TO.C,J1*%
X5300000Y4050000D02*
X5300000Y2050000D01*
X5300000Y150000D02*
X5300000Y-1750000D01*
X5300000Y-1750000D02*
X14700000Y-1750000D01*
X14700000Y4050000D02*
X14700000Y2050000D01*
X14700000Y150000D02*
X14700000Y-1750000D01*
%TO.C,R3*%
X15246359Y-20620000D02*
X15553641Y-20620000D01*
X15246359Y-21380000D02*
X15553641Y-21380000D01*
%TO.C,R11*%
X3246359Y-26420000D02*
X3553641Y-26420000D01*
X3246359Y-27180000D02*
X3553641Y-27180000D01*
%TO.C,C5*%
X6592164Y-23440000D02*
X6807836Y-23440000D01*
X6592164Y-24160000D02*
X6807836Y-24160000D01*
%TO.C,J2*%
X12615000Y-2540000D02*
X12615000Y-3590000D01*
X12615000Y-5710000D02*
X11625000Y-5710000D01*
X12615000Y-6760000D02*
X12615000Y-5710000D01*
X15115000Y-2540000D02*
X12615000Y-2540000D01*
X15115000Y-6760000D02*
X12615000Y-6760000D01*
X17085000Y-5590000D02*
X17085000Y-3710000D01*
%TO.C,R1*%
X13246359Y-20620000D02*
X13553641Y-20620000D01*
X13246359Y-21380000D02*
X13553641Y-21380000D01*
%TO.C,U3*%
X2865000Y-26154000D02*
X2865000Y-24683500D01*
X3102500Y-24446000D02*
X4035000Y-24446000D01*
X4035000Y-24446000D02*
X4035000Y-26154000D01*
X4035000Y-26154000D02*
X2865000Y-26154000D01*
X2865000Y-24446000D02*
X2365000Y-24446000D01*
X2865000Y-23946000D01*
X2865000Y-24446000D01*
G36*
X2865000Y-24446000D02*
G01*
X2365000Y-24446000D01*
X2865000Y-23946000D01*
X2865000Y-24446000D01*
G37*
%TO.C,C7*%
X8592164Y-21840000D02*
X8807836Y-21840000D01*
X8592164Y-22560000D02*
X8807836Y-22560000D01*
%TO.C,R24*%
X13046359Y-10620000D02*
X13353641Y-10620000D01*
X13046359Y-11380000D02*
X13353641Y-11380000D01*
%TO.C,R9*%
X6246359Y780000D02*
X6553641Y780000D01*
X6246359Y20000D02*
X6553641Y20000D01*
%TO.C,C11*%
X9992164Y-19040000D02*
X10207836Y-19040000D01*
X9992164Y-19760000D02*
X10207836Y-19760000D01*
%TO.C,D2*%
D12*
X15460000Y-12600000D02*
G75*
G02*
X15360000Y-12600000I-50000J0D01*
G01*
X15360000Y-12600000D02*
G75*
G02*
X15460000Y-12600000I50000J0D01*
G01*
%TO.C,R22*%
D10*
X15446359Y-9420000D02*
X15753641Y-9420000D01*
X15446359Y-10180000D02*
X15753641Y-10180000D01*
%TO.C,R17*%
X14246359Y-8220000D02*
X14553641Y-8220000D01*
X14246359Y-8980000D02*
X14553641Y-8980000D01*
%TO.C,U1*%
X2150000Y-27000000D02*
X3250000Y-27000000D01*
X2150000Y-28100000D02*
X2150000Y-27000000D01*
X2150000Y-36600000D02*
X2150000Y-37700000D01*
X2150000Y-37700000D02*
X3250000Y-37700000D01*
X16750000Y-27000000D02*
X17850000Y-27000000D01*
X16750000Y-37700000D02*
X17850000Y-37700000D01*
X17850000Y-27000000D02*
X17850000Y-28100000D01*
X17850000Y-37700000D02*
X17850000Y-36600000D01*
X6250000Y-37725000D02*
X6490000Y-38061000D01*
X6010000Y-38061000D01*
X6250000Y-37725000D01*
G36*
X6490000Y-38061000D02*
G01*
X6010000Y-38061000D01*
X6250000Y-37725000D01*
X6490000Y-38061000D01*
G37*
%TO.C,R8*%
X16646359Y-5820000D02*
X16953641Y-5820000D01*
X16646359Y-6580000D02*
X16953641Y-6580000D01*
%TO.C,Q1*%
X12840000Y-14640000D02*
X14360000Y-14640000D01*
X12840000Y-14690000D02*
X12840000Y-14640000D01*
X12840000Y-16590000D02*
X12840000Y-15810000D01*
X12840000Y-17760000D02*
X12840000Y-17710000D01*
X14360000Y-14640000D02*
X14360000Y-15640000D01*
X14360000Y-16760000D02*
X14360000Y-17760000D01*
X14360000Y-17760000D02*
X12840000Y-17760000D01*
X12300000Y-15820000D02*
X12540000Y-16150000D01*
X12060000Y-16150000D01*
X12300000Y-15820000D01*
G36*
X12540000Y-16150000D02*
G01*
X12060000Y-16150000D01*
X12300000Y-15820000D01*
X12540000Y-16150000D01*
G37*
%TO.C,R7*%
X15446359Y-5820000D02*
X15753641Y-5820000D01*
X15446359Y-6580000D02*
X15753641Y-6580000D01*
%TO.C,R19*%
X13446359Y780000D02*
X13753641Y780000D01*
X13446359Y20000D02*
X13753641Y20000D01*
%TO.C,U4*%
X4490000Y-23790000D02*
X6310000Y-23790000D01*
X4490000Y-23840000D02*
X4490000Y-23790000D01*
X4490000Y-26910000D02*
X4490000Y-26860000D01*
X6310000Y-23790000D02*
X6310000Y-23840000D01*
X6310000Y-24960000D02*
X6310000Y-25740000D01*
X6310000Y-26860000D02*
X6310000Y-26910000D01*
X6310000Y-26910000D02*
X4490000Y-26910000D01*
X3950000Y-23840000D02*
X3710000Y-23510000D01*
X4190000Y-23510000D01*
X3950000Y-23840000D01*
G36*
X3950000Y-23840000D02*
G01*
X3710000Y-23510000D01*
X4190000Y-23510000D01*
X3950000Y-23840000D01*
G37*
%TO.C,C8*%
X13292164Y-19640000D02*
X13507836Y-19640000D01*
X13292164Y-20360000D02*
X13507836Y-20360000D01*
%TO.C,R21*%
X14246359Y-9420000D02*
X14553641Y-9420000D01*
X14246359Y-10180000D02*
X14553641Y-10180000D01*
%TO.C,R27*%
X15446359Y-10620000D02*
X15753641Y-10620000D01*
X15446359Y-11380000D02*
X15753641Y-11380000D01*
%TD*%
M02*
