M48
; DRILL file KiCad 10.0.6 date 2026-09-23T10:07:27
; FORMAT={-:-/ absolute / metric / decimal}
; #@! TF.CreationDate,2026-09-23T10:07:27-04:00
; #@! TF.GenerationSoftware,Kicad,Pcbnew,10.0.6
; #@! TF.FileFunction,Plated,1,2,PTH
FMAT,2
METRIC
; #@! TA.AperFunction,Plated,PTH,ViaDrill
T1C0.300
; #@! TA.AperFunction,Plated,PTH,ComponentDrill
T2C1.000
; #@! TA.AperFunction,Plated,PTH,ComponentDrill
T3C2.700
%
G90
G05
T1
X3.01Y-17.881
X3.45Y-17.39
X4.081Y-17.739
X4.702Y-22.645
X5.73Y-31.399
X6.342Y-18.033
X7.179Y-20.053
X7.2Y-32.997
X7.658Y-25.633
X7.768Y-18.581
X8.0Y-33.422
X8.295Y-30.822
X9.6Y-25.042
X10.4Y-33.248
X10.725Y-27.832
X12.15Y-21.371
X12.64Y-23.842
X12.85Y-2.39
X13.102Y-31.287
X13.361Y-21.182
X13.462Y-29.301
X15.591Y-10.577
X18.75Y-2.39
X18.79Y-29.66
X18.95Y-8.79
X19.15Y-12.19
T2
X28.41Y-26.8
X28.41Y-29.34
X28.41Y-31.88
T3
X5.9Y-5.29
X8.5Y-43.0
X10.4Y5.81
X23.32Y-4.35
X23.32Y-12.35
M30
