%TF.GenerationSoftware,KiCad,Pcbnew,10.0.6*%
%TF.CreationDate,2026-09-23T10:07:27-04:00*%
%TF.ProjectId,elicio-v2,656c6963-696f-42d7-9632-2e6b69636164,rev?*%
%TF.SameCoordinates,Original*%
%TF.FileFunction,Copper,L1,Top*%
%TF.FilePolarity,Positive*%
%FSLAX46Y46*%
G04 Gerber Fmt 4.6, Leading zero omitted, Abs format (unit mm)*
G04 Created by KiCad (PCBNEW 10.0.6) date 2026-09-23 10:07:27*
%MOMM*%
%LPD*%
G01*
G04 APERTURE LIST*
G04 Aperture macros list*
%AMRoundRect*
0 Rectangle with rounded corners*
0 $1 Rounding radius*
0 $2 $3 $4 $5 $6 $7 $8 $9 X,Y pos of 4 corners*
0 Add a 4 corners polygon primitive as box body*
4,1,4,$2,$3,$4,$5,$6,$7,$8,$9,$2,$3,0*
0 Add four circle primitives for the rounded corners*
1,1,$1+$1,$2,$3*
1,1,$1+$1,$4,$5*
1,1,$1+$1,$6,$7*
1,1,$1+$1,$8,$9*
0 Add four rect primitives between the rounded corners*
20,1,$1+$1,$2,$3,$4,$5,0*
20,1,$1+$1,$4,$5,$6,$7,0*
20,1,$1+$1,$6,$7,$8,$9,0*
20,1,$1+$1,$8,$9,$2,$3,0*%
G04 Aperture macros list end*
%TA.AperFunction,SMDPad,CuDef*%
%ADD10RoundRect,0.140000X0.170000X-0.140000X0.170000X0.140000X-0.170000X0.140000X-0.170000X-0.140000X0*%
%TD*%
%TA.AperFunction,SMDPad,CuDef*%
%ADD11RoundRect,0.218750X-0.218750X-0.256250X0.218750X-0.256250X0.218750X0.256250X-0.218750X0.256250X0*%
%TD*%
%TA.AperFunction,SMDPad,CuDef*%
%ADD12RoundRect,0.150000X-0.150000X-0.625000X0.150000X-0.625000X0.150000X0.625000X-0.150000X0.625000X0*%
%TD*%
%TA.AperFunction,SMDPad,CuDef*%
%ADD13RoundRect,0.250000X-0.350000X-0.650000X0.350000X-0.650000X0.350000X0.650000X-0.350000X0.650000X0*%
%TD*%
%TA.AperFunction,SMDPad,CuDef*%
%ADD14RoundRect,0.150000X-0.512500X-0.150000X0.512500X-0.150000X0.512500X0.150000X-0.512500X0.150000X0*%
%TD*%
%TA.AperFunction,SMDPad,CuDef*%
%ADD15RoundRect,0.135000X0.185000X-0.135000X0.185000X0.135000X-0.185000X0.135000X-0.185000X-0.135000X0*%
%TD*%
%TA.AperFunction,BGAPad,CuDef*%
%ADD16C,0.250000*%
%TD*%
%TA.AperFunction,ComponentPad*%
%ADD17R,1.500000X1.500000*%
%TD*%
%TA.AperFunction,ComponentPad*%
%ADD18C,1.500000*%
%TD*%
%TA.AperFunction,ComponentPad*%
%ADD19C,5.000000*%
%TD*%
%TA.AperFunction,SMDPad,CuDef*%
%ADD20R,1.000000X0.750000*%
%TD*%
%TA.AperFunction,SMDPad,CuDef*%
%ADD21R,0.600000X0.400000*%
%TD*%
%TA.AperFunction,SMDPad,CuDef*%
%ADD22R,0.400000X0.600000*%
%TD*%
%TA.AperFunction,SMDPad,CuDef*%
%ADD23RoundRect,0.150000X0.150000X0.200000X-0.150000X0.200000X-0.150000X-0.200000X0.150000X-0.200000X0*%
%TD*%
%TA.AperFunction,SMDPad,CuDef*%
%ADD24RoundRect,0.140000X-0.140000X-0.170000X0.140000X-0.170000X0.140000X0.170000X-0.140000X0.170000X0*%
%TD*%
%TA.AperFunction,SMDPad,CuDef*%
%ADD25RoundRect,0.147500X-0.147500X-0.172500X0.147500X-0.172500X0.147500X0.172500X-0.147500X0.172500X0*%
%TD*%
%TA.AperFunction,ConnectorPad*%
%ADD26C,0.787400*%
%TD*%
%TA.AperFunction,SMDPad,CuDef*%
%ADD27RoundRect,0.135000X-0.135000X-0.185000X0.135000X-0.185000X0.135000X0.185000X-0.135000X0.185000X0*%
%TD*%
%TA.AperFunction,ViaPad*%
%ADD28C,0.550000*%
%TD*%
%TA.AperFunction,Conductor*%
%ADD29C,0.100000*%
%TD*%
%TA.AperFunction,Conductor*%
%ADD30C,0.150000*%
%TD*%
G04 APERTURE END LIST*
D10*
%TO.P,C3,1*%
%TO.N,VBUS*%
X18960000Y-9040000D03*
%TO.P,C3,2*%
%TO.N,GND*%
X18960000Y-8080000D03*
%TD*%
D11*
%TO.P,L1,1*%
%TO.N,DCCH*%
X6192500Y-17180000D03*
%TO.P,L1,2*%
%TO.N,+VDD*%
X7767500Y-17180000D03*
%TD*%
D10*
%TO.P,C4,1*%
%TO.N,VBAT*%
X18960000Y-11040000D03*
%TO.P,C4,2*%
%TO.N,GND*%
X18960000Y-10080000D03*
%TD*%
D12*
%TO.P,J2,1*%
%TO.N,VBAT*%
X14650000Y-9350000D03*
%TO.P,J2,2*%
%TO.N,GND*%
X15650000Y-9350000D03*
D13*
%TO.P,J2,MP*%
X13350000Y-13225000D03*
X16950000Y-13225000D03*
%TD*%
D14*
%TO.P,U4,1*%
%TO.N,AFE_VIN*%
X15512500Y-34650000D03*
%TO.P,U4,2*%
%TO.N,GND*%
X15512500Y-35600000D03*
%TO.P,U4,3*%
%TO.N,AFE_VIN*%
X15512500Y-36550000D03*
%TO.P,U4,4*%
%TO.N,unconnected-(U4-NC-Pad4)*%
X17787500Y-36550000D03*
%TO.P,U4,5*%
%TO.N,+3V0*%
X17787500Y-34650000D03*
%TD*%
D15*
%TO.P,R2,1*%
%TO.N,SIG2*%
X19070000Y-33340000D03*
%TO.P,R2,2*%
%TO.N,AFE_IN1N*%
X19070000Y-32320000D03*
%TD*%
D16*
%TO.P,U3,A1*%
%TO.N,VBAT*%
X15880000Y-30850000D03*
%TO.P,U3,A2*%
%TO.N,VBUS*%
X16280000Y-30850000D03*
%TO.P,U3,B1*%
%TO.N,TS*%
X15880000Y-31250000D03*
%TO.P,U3,B2*%
%TO.N,ISET*%
X16280000Y-31250000D03*
%TO.P,U3,C1*%
%TO.N,PRETERM*%
X15880000Y-31650000D03*
%TO.P,U3,C2*%
%TO.N,GND*%
X16280000Y-31650000D03*
%TD*%
D17*
%TO.P,J3,1*%
%TO.N,SIG1*%
X28410000Y-26800000D03*
D18*
%TO.P,J3,2*%
%TO.N,SIG2*%
X28410000Y-29340000D03*
%TO.P,J3,3*%
%TO.N,REF*%
X28410000Y-31880000D03*
%TD*%
D19*
%TO.P,P4,1*%
%TO.N,VBUS*%
X23320000Y-4350000D03*
%TD*%
D20*
%TO.P,SW1,1*%
%TO.N,nRESET*%
X12970000Y-2575000D03*
X18970000Y-2575000D03*
%TO.P,SW1,2*%
%TO.N,GND*%
X12970000Y-6325000D03*
X18970000Y-6325000D03*
%TD*%
D19*
%TO.P,P1,1*%
%TO.N,SIG1*%
X5900000Y-5290000D03*
%TD*%
D21*
%TO.P,U1,1*%
%TO.N,GND*%
X3350000Y-25600000D03*
%TO.P,U1,2*%
X3350000Y-26700000D03*
%TO.P,U1,3*%
%TO.N,unconnected-(U1-P1.10-Pad3)*%
X3350000Y-27500000D03*
%TO.P,U1,4*%
%TO.N,unconnected-(U1-P1.11-Pad4)*%
X3350000Y-29100000D03*
%TO.P,U1,5*%
%TO.N,unconnected-(U1-P1.12-Pad5)*%
X4250000Y-29500000D03*
%TO.P,U1,6*%
%TO.N,unconnected-(U1-P1.13-Pad6)*%
X3350000Y-29900000D03*
%TO.P,U1,7*%
%TO.N,unconnected-(U1-P1.14-Pad7)*%
X4250000Y-30300000D03*
%TO.P,U1,8*%
%TO.N,unconnected-(U1-P1.15-Pad8)*%
X3350000Y-30700000D03*
%TO.P,U1,9*%
%TO.N,BAT_MEAS_EN*%
X4250000Y-31100000D03*
%TO.P,U1,10*%
%TO.N,unconnected-(U1-P0.29-Pad10)*%
X3350000Y-31500000D03*
%TO.P,U1,11*%
%TO.N,VBAT_SENSE*%
X4250000Y-31900000D03*
%TO.P,U1,12*%
%TO.N,CHG_MON*%
X3350000Y-32300000D03*
%TO.P,U1,13*%
%TO.N,unconnected-(U1-P0.28-Pad13)*%
X4250000Y-32700000D03*
%TO.P,U1,14*%
%TO.N,unconnected-(U1-P0.30-Pad14)*%
X3350000Y-33100000D03*
D22*
%TO.P,U1,15*%
%TO.N,GND*%
X3200000Y-36500000D03*
%TO.P,U1,16*%
%TO.N,unconnected-(U1-P0.27-Pad16)*%
X4000000Y-36500000D03*
%TO.P,U1,17*%
%TO.N,unconnected-(U1-P0.00-Pad17)*%
X4800000Y-36500000D03*
%TO.P,U1,18*%
%TO.N,unconnected-(U1-P0.01-Pad18)*%
X5600000Y-36500000D03*
%TO.P,U1,19*%
%TO.N,unconnected-(U1-P0.26-Pad19)*%
X6000000Y-35600000D03*
%TO.P,U1,20*%
%TO.N,LED_EN*%
X6400000Y-36500000D03*
%TO.P,U1,21*%
%TO.N,unconnected-(U1-P0.05-Pad21)*%
X6800000Y-35600000D03*
%TO.P,U1,22*%
%TO.N,AFE_MOSI*%
X7200000Y-36500000D03*
%TO.P,U1,23*%
%TO.N,unconnected-(U1-P0.07-Pad23)*%
X7600000Y-35600000D03*
%TO.P,U1,24*%
%TO.N,AFE_SCLK*%
X8000000Y-36500000D03*
%TO.P,U1,25*%
%TO.N,unconnected-(U1-P1.08-Pad25)*%
X8400000Y-35600000D03*
%TO.P,U1,26*%
%TO.N,unconnected-(U1-P1.09-Pad26)*%
X8800000Y-36500000D03*
%TO.P,U1,27*%
%TO.N,unconnected-(U1-P0.11-Pad27)*%
X9200000Y-35600000D03*
%TO.P,U1,28*%
%TO.N,+VDD*%
X9600000Y-36500000D03*
%TO.P,U1,29*%
%TO.N,unconnected-(U1-P0.12-Pad29)*%
X10000000Y-35600000D03*
%TO.P,U1,30*%
%TO.N,VBAT*%
X10400000Y-36500000D03*
%TO.P,U1,31*%
%TO.N,DCCH*%
X11200000Y-36500000D03*
%TO.P,U1,32*%
%TO.N,VBUS*%
X12000000Y-36500000D03*
%TO.P,U1,33*%
%TO.N,GND*%
X12800000Y-36500000D03*
D21*
%TO.P,U1,34*%
%TO.N,unconnected-(U1-D--Pad34)*%
X12650000Y-35500000D03*
%TO.P,U1,35*%
%TO.N,unconnected-(U1-D+-Pad35)*%
X12650000Y-34700000D03*
%TO.P,U1,36*%
%TO.N,unconnected-(U1-P0.14-Pad36)*%
X11750000Y-34300000D03*
%TO.P,U1,37*%
%TO.N,AFE_CS*%
X12650000Y-33900000D03*
%TO.P,U1,38*%
%TO.N,unconnected-(U1-P0.16-Pad38)*%
X11750000Y-33500000D03*
%TO.P,U1,39*%
%TO.N,AFE_MISO*%
X12650000Y-33100000D03*
%TO.P,U1,40*%
%TO.N,nRESET*%
X11750000Y-32700000D03*
%TO.P,U1,41*%
%TO.N,AFE_DRDY*%
X12650000Y-32300000D03*
%TO.P,U1,42*%
%TO.N,unconnected-(U1-P0.19-Pad42)*%
X11750000Y-31900000D03*
%TO.P,U1,43*%
%TO.N,unconnected-(U1-P0.21-Pad43)*%
X11750000Y-31100000D03*
%TO.P,U1,44*%
%TO.N,AFE_START*%
X12650000Y-30700000D03*
%TO.P,U1,45*%
%TO.N,unconnected-(U1-P0.23-Pad45)*%
X11750000Y-30300000D03*
%TO.P,U1,46*%
%TO.N,AFE_RESET*%
X12650000Y-29900000D03*
%TO.P,U1,47*%
%TO.N,unconnected-(U1-P1.00-Pad47)*%
X11750000Y-29500000D03*
%TO.P,U1,48*%
%TO.N,VBUS_DET*%
X12650000Y-29100000D03*
%TO.P,U1,49*%
%TO.N,unconnected-(U1-P0.25-Pad49)*%
X11750000Y-28700000D03*
%TO.P,U1,50*%
%TO.N,unconnected-(U1-P1.02-Pad50)*%
X11750000Y-27900000D03*
%TO.P,U1,51*%
%TO.N,SWDIO*%
X12650000Y-27500000D03*
%TO.P,U1,52*%
%TO.N,unconnected-(U1-P0.09-Pad52)*%
X11750000Y-27100000D03*
%TO.P,U1,53*%
%TO.N,SWDCLK*%
X12650000Y-26700000D03*
%TO.P,U1,54*%
%TO.N,unconnected-(U1-P0.10-Pad54)*%
X11750000Y-26300000D03*
%TO.P,U1,55*%
%TO.N,GND*%
X12650000Y-25600000D03*
D22*
%TO.P,U1,56*%
%TO.N,unconnected-(U1-P1.04-Pad56)*%
X6000000Y-29900000D03*
%TO.P,U1,57*%
%TO.N,unconnected-(U1-P1.06-Pad57)*%
X6800000Y-29900000D03*
%TO.P,U1,58*%
%TO.N,unconnected-(U1-P1.07-Pad58)*%
X7600000Y-29900000D03*
%TO.P,U1,59*%
%TO.N,unconnected-(U1-P1.05-Pad59)*%
X8400000Y-29900000D03*
%TO.P,U1,60*%
%TO.N,unconnected-(U1-P1.03-Pad60)*%
X9200000Y-29900000D03*
%TO.P,U1,61*%
%TO.N,unconnected-(U1-P1.01-Pad61)*%
X10000000Y-29900000D03*
%TD*%
D23*
%TO.P,D1,1*%
%TO.N,VBUS*%
X3250000Y-17150000D03*
%TO.P,D1,2*%
%TO.N,GND*%
X4650000Y-17150000D03*
%TD*%
D19*
%TO.P,P2,1*%
%TO.N,SIG2*%
X10400000Y5810000D03*
%TD*%
D24*
%TO.P,C2,1*%
%TO.N,ISET*%
X12330000Y-20110000D03*
%TO.P,C2,2*%
%TO.N,GND*%
X13290000Y-20110000D03*
%TD*%
D19*
%TO.P,P3,1*%
%TO.N,REF*%
X8500000Y-43000000D03*
%TD*%
D25*
%TO.P,D2,1*%
%TO.N,CHG_LED_K*%
X9145000Y-16920000D03*
%TO.P,D2,2*%
%TO.N,D2_A*%
X10115000Y-16920000D03*
%TD*%
D19*
%TO.P,P5,1*%
%TO.N,GND*%
X23320000Y-12350000D03*
%TD*%
D24*
%TO.P,C1,1*%
%TO.N,RLD_FB*%
X9930000Y-18110000D03*
%TO.P,C1,2*%
%TO.N,RLDINV*%
X10890000Y-18110000D03*
%TD*%
D15*
%TO.P,R3,1*%
%TO.N,REF*%
X19070000Y-31340000D03*
%TO.P,R3,2*%
%TO.N,RLD_FB*%
X19070000Y-30320000D03*
%TD*%
D26*
%TO.P,J4,1*%
%TO.N,+VDD*%
X17155000Y-25870000D03*
%TO.P,J4,2*%
%TO.N,SWDIO*%
X15885000Y-25870000D03*
%TO.P,J4,3*%
%TO.N,GND*%
X17155000Y-24600000D03*
%TO.P,J4,4*%
%TO.N,SWDCLK*%
X15885000Y-24600000D03*
%TO.P,J4,5*%
%TO.N,GND*%
X17155000Y-23330000D03*
%TO.P,J4,6*%
%TO.N,nRESET*%
X15885000Y-23330000D03*
%TD*%
D10*
%TO.P,C5,1*%
%TO.N,AFE_VIN*%
X18960000Y-13040000D03*
%TO.P,C5,2*%
%TO.N,GND*%
X18960000Y-12080000D03*
%TD*%
D27*
%TO.P,R1,1*%
%TO.N,SIG1*%
X10190000Y-20120000D03*
%TO.P,R1,2*%
%TO.N,AFE_IN1P*%
X11210000Y-20120000D03*
%TD*%
D28*
%TO.N,VBUS*%
X3450000Y-17390000D03*
X18950000Y-8790000D03*
%TO.N,GND*%
X19150000Y-12190000D03*
X15591300Y-10577400D03*
X4081300Y-17739200D03*
X3009600Y-17881300D03*
X13361500Y-21181700D03*
%TO.N,DCCH*%
X6342000Y-18032600D03*
%TO.N,+VDD*%
X7767500Y-18581200D03*
X9600000Y-25042000D03*
%TO.N,VBAT*%
X10400000Y-33248200D03*
X18790000Y-29660400D03*
%TO.N,AFE_VIN*%
X10725200Y-27831700D03*
%TO.N,+3V0*%
X13461700Y-29300900D03*
X12639600Y-23842100D03*
%TO.N,ISET*%
X12149900Y-21370800D03*
%TO.N,nRESET*%
X12850000Y-2390000D03*
X18750000Y-2390000D03*
%TO.N,BAT_MEAS_EN*%
X4701700Y-22644800D03*
%TO.N,VBAT_SENSE*%
X7179000Y-20053500D03*
%TO.N,LED_EN*%
X8295300Y-30822000D03*
%TO.N,AFE_MOSI*%
X7200000Y-32997400D03*
%TO.N,AFE_SCLK*%
X8000000Y-33422500D03*
%TO.N,VBUS_DET*%
X13101700Y-31287000D03*
%TO.N,CHG_LED_K*%
X7658000Y-25633000D03*
%TO.N,Q2_G*%
X5730400Y-31399500D03*
%TD*%
%TO.N,VBUS*%
D29*
X18960000Y-9040000D02*
X18950000Y-8790000D01*
X3250000Y-17150000D02*
X3450000Y-17390000D01*
%TO.N,GND*%
X4081300Y-17718700D02*
X4081300Y-17739200D01*
X12858100Y-37009800D02*
X12800000Y-36951700D01*
X13361500Y-20181500D02*
X13290000Y-20110000D01*
X15350400Y-11625300D02*
X16950000Y-13225000D01*
X13101700Y-25600000D02*
X13101700Y-21441500D01*
X17150000Y-23490000D02*
X17150000Y-24390000D01*
X18960000Y-8080000D02*
X18970000Y-8070000D01*
X17155000Y-23330000D02*
X17150000Y-23490000D01*
X15726400Y-35600000D02*
X16371600Y-36245200D01*
X4650000Y-17150000D02*
X4081300Y-17718700D01*
X3350000Y-26700000D02*
X2898300Y-26700000D01*
X19545300Y-11045700D02*
X19545300Y-10665300D01*
X18960000Y-10080000D02*
X19469100Y-9570900D01*
X15490000Y-11485700D02*
X15490000Y-11085000D01*
X18960000Y-12080000D02*
X19000000Y-12040000D01*
X3200000Y-36500000D02*
X3200000Y-36048300D01*
X18095000Y-12080000D02*
X16950000Y-13225000D01*
X19000000Y-12040000D02*
X19420700Y-12040000D01*
X3350000Y-26700000D02*
X3750900Y-26700000D01*
X3801700Y-25600000D02*
X3801700Y-26700000D01*
X4081300Y-17739200D02*
X4038400Y-17739200D01*
X13101700Y-21441500D02*
X13361500Y-21181700D01*
X19545300Y-10665300D02*
X18960000Y-10080000D01*
X3750900Y-26700000D02*
X3800000Y-26700000D01*
X18970000Y-8070000D02*
X18970000Y-6325000D01*
X15591300Y-10983700D02*
X15591300Y-10577400D01*
X12800000Y-36500000D02*
X12800000Y-36951700D01*
X12650000Y-25600000D02*
X13101700Y-25600000D01*
X19420700Y-11170300D02*
X19545300Y-11045700D01*
X18960000Y-12080000D02*
X18095000Y-12080000D01*
X19469100Y-9570900D02*
X19469100Y-8589100D01*
X3009600Y-17881300D02*
X3707100Y-17881300D01*
X16371600Y-36828600D02*
X16190400Y-37009800D01*
X13350000Y-13225000D02*
X14862900Y-11712100D01*
X15350400Y-11625300D02*
X15490000Y-11485700D01*
X15650000Y-10518700D02*
X15591300Y-10577400D01*
X3801700Y-17975900D02*
X3801700Y-25600000D01*
X15263600Y-11712100D02*
X15350400Y-11625300D01*
X3350000Y-25600000D02*
X3801700Y-25600000D01*
X17155000Y-24600000D02*
X17150000Y-24390000D01*
X19469100Y-8589100D02*
X18960000Y-8080000D01*
X15512500Y-35600000D02*
X15726400Y-35600000D01*
X16371600Y-36245200D02*
X16371600Y-36828600D01*
X19420700Y-12040000D02*
X19420700Y-11170300D01*
X3707100Y-17881300D02*
X3801700Y-17975900D01*
X19000000Y-12040000D02*
X19150000Y-12190000D01*
X2898300Y-35746600D02*
X3200000Y-36048300D01*
X16190400Y-37009800D02*
X12858100Y-37009800D01*
X15490000Y-11085000D02*
X15591300Y-10983700D01*
X15650000Y-9350000D02*
X15650000Y-10518700D01*
X4038400Y-17739200D02*
X3801700Y-17975900D01*
X2898300Y-26700000D02*
X2898300Y-35746600D01*
X3800000Y-26700000D02*
X3801700Y-26700000D01*
X14862900Y-11712100D02*
X15263600Y-11712100D01*
X13361500Y-21181700D02*
X13361500Y-20181500D01*
%TO.N,DCCH*%
X6192500Y-17180000D02*
X6342000Y-17329500D01*
X6342000Y-17329500D02*
X6342000Y-18032600D01*
%TO.N,+VDD*%
X9600000Y-36500000D02*
X9600000Y-25042000D01*
X7767500Y-18581200D02*
X9781700Y-18581200D01*
X9781700Y-18581200D02*
X10750000Y-19549500D01*
X7767500Y-18581200D02*
X7767500Y-17180000D01*
X10750000Y-19549500D02*
X10750000Y-23892000D01*
X10750000Y-23892000D02*
X9600000Y-25042000D01*
%TO.N,VBAT*%
X18960000Y-11040000D02*
X16342700Y-8422700D01*
X15298100Y-8422700D02*
X14650000Y-9070800D01*
X10400000Y-36500000D02*
X10400000Y-33248200D01*
X14650000Y-9070800D02*
X14650000Y-9350000D01*
X16342700Y-8422700D02*
X15298100Y-8422700D01*
%TO.N,AFE_VIN*%
X15512500Y-35147700D02*
X15512500Y-34650000D01*
X14697700Y-35929000D02*
X15318700Y-36550000D01*
X11777300Y-35051700D02*
X11134900Y-34409300D01*
X14424600Y-35051700D02*
X11777300Y-35051700D01*
X14874800Y-35147700D02*
X14697700Y-35324800D01*
X14697700Y-35324800D02*
X14697700Y-35929000D01*
X15512500Y-35147700D02*
X14874800Y-35147700D01*
X14697700Y-35324800D02*
X14424600Y-35051700D01*
X15318700Y-36550000D02*
X15512500Y-36550000D01*
X11134900Y-28241400D02*
X10725200Y-27831700D01*
X11134900Y-34409300D02*
X11134900Y-28241400D01*
%TO.N,+3V0*%
X12198300Y-24283400D02*
X12198300Y-25948300D01*
X12639600Y-23842100D02*
X12198300Y-24283400D01*
X12198300Y-25948300D02*
X12225000Y-25975000D01*
X13461700Y-26797200D02*
X13461700Y-29300900D01*
X17040600Y-33903100D02*
X14067100Y-33903100D01*
X17787500Y-34650000D02*
X17040600Y-33903100D01*
X14067100Y-33903100D02*
X13810400Y-33646400D01*
X12225000Y-25975000D02*
X12639500Y-25975000D01*
X12639500Y-25975000D02*
X13461700Y-26797200D01*
X13810400Y-33646400D02*
X13810400Y-29649600D01*
X13810400Y-29649600D02*
X13461700Y-29300900D01*
%TO.N,SIG2*%
D30*
X10400000Y-15500000D02*
X11270000Y-15500000D01*
X11270000Y-16500000D02*
X11500000Y-16500000D01*
X11270000Y-15500000D02*
X11270000Y-16500000D01*
X10400000Y5810000D02*
X10400000Y-15500000D01*
%TO.N,ISET*%
D29*
X12149900Y-20290100D02*
X12149900Y-21370800D01*
X12330000Y-20110000D02*
X12149900Y-20290100D01*
%TO.N,SIG1*%
D30*
X5380000Y-15500000D02*
X5380000Y-19500000D01*
X5900000Y-5290000D02*
X5900000Y-15500000D01*
X5380000Y-19500000D02*
X10190000Y-19500000D01*
X10190000Y-19500000D02*
X10190000Y-20120000D01*
X5900000Y-15500000D02*
X5380000Y-15500000D01*
%TO.N,REF*%
X8500000Y-43000000D02*
X8500000Y-39350000D01*
X8500000Y-39350000D02*
X8500000Y-37200000D01*
%TO.N,nRESET*%
D29*
X12970000Y-2575000D02*
X12850000Y-2390000D01*
X18970000Y-2575000D02*
X18750000Y-2390000D01*
%TO.N,BAT_MEAS_EN*%
X4701700Y-22644800D02*
X4701700Y-31100000D01*
X4250000Y-31100000D02*
X4701700Y-31100000D01*
%TO.N,VBAT_SENSE*%
X7179000Y-30267800D02*
X6487600Y-30959200D01*
X7179000Y-20053500D02*
X7179000Y-30267800D01*
X6487600Y-30959200D02*
X5559000Y-30959200D01*
X4250000Y-31900000D02*
X4618200Y-31900000D01*
X5559000Y-30959200D02*
X4618200Y-31900000D01*
%TO.N,LED_EN*%
X6400000Y-32717300D02*
X8295300Y-30822000D01*
X6400000Y-36500000D02*
X6400000Y-32717300D01*
%TO.N,AFE_MOSI*%
X7200000Y-32997400D02*
X7200000Y-36500000D01*
%TO.N,AFE_SCLK*%
X8000000Y-36500000D02*
X8000000Y-33422500D01*
%TO.N,VBUS_DET*%
X13101700Y-29551700D02*
X13101700Y-31287000D01*
X12650000Y-29100000D02*
X13101700Y-29551700D01*
%TD*%
M02*
