%TF.GenerationSoftware,KiCad,Pcbnew,10.0.6*%
%TF.CreationDate,2026-09-17T21:07:23-04:00*%
%TF.ProjectId,elicio-v2,656c6963-696f-42d7-9632-2e6b69636164,rev?*%
%TF.SameCoordinates,Original*%
%TF.FileFunction,Other,Comment*%
%FSLAX46Y46*%
G04 Gerber Fmt 4.6, Leading zero omitted, Abs format (unit mm)*
G04 Created by KiCad (PCBNEW 10.0.6) date 2026-09-17 21:07:23*
%MOMM*%
%LPD*%
G01*
G04 APERTURE LIST*
%ADD10C,0.050000*%
%ADD11C,0.120000*%
%ADD12C,0.070000*%
%ADD13C,0.150000*%
%ADD14C,0.040000*%
G04 APERTURE END LIST*
D10*
X12500000Y-12000000D02*
X17750000Y-12000000D01*
X17750000Y-18600000D01*
X12500000Y-18600000D01*
X12500000Y-12000000D01*
G36*
X12500000Y-12000000D02*
G01*
X17750000Y-12000000D01*
X17750000Y-18600000D01*
X12500000Y-18600000D01*
X12500000Y-12000000D01*
G37*
D11*
X12642858Y-15571331D02*
X12642858Y-14971331D01*
X12642858Y-14971331D02*
X12985715Y-15571331D01*
X12985715Y-15571331D02*
X12985715Y-14971331D01*
X13271429Y-15257045D02*
X13471429Y-15257045D01*
X13557143Y-15571331D02*
X13271429Y-15571331D01*
X13271429Y-15571331D02*
X13271429Y-14971331D01*
X13271429Y-14971331D02*
X13557143Y-14971331D01*
X14157143Y-15514188D02*
X14128571Y-15542760D01*
X14128571Y-15542760D02*
X14042857Y-15571331D01*
X14042857Y-15571331D02*
X13985714Y-15571331D01*
X13985714Y-15571331D02*
X13900000Y-15542760D01*
X13900000Y-15542760D02*
X13842857Y-15485617D01*
X13842857Y-15485617D02*
X13814286Y-15428474D01*
X13814286Y-15428474D02*
X13785714Y-15314188D01*
X13785714Y-15314188D02*
X13785714Y-15228474D01*
X13785714Y-15228474D02*
X13814286Y-15114188D01*
X13814286Y-15114188D02*
X13842857Y-15057045D01*
X13842857Y-15057045D02*
X13900000Y-14999902D01*
X13900000Y-14999902D02*
X13985714Y-14971331D01*
X13985714Y-14971331D02*
X14042857Y-14971331D01*
X14042857Y-14971331D02*
X14128571Y-14999902D01*
X14128571Y-14999902D02*
X14157143Y-15028474D01*
X14414286Y-15571331D02*
X14414286Y-14971331D01*
X14757143Y-15571331D02*
X14500000Y-15228474D01*
X14757143Y-14971331D02*
X14414286Y-15314188D01*
X15671429Y-15257045D02*
X15757143Y-15285617D01*
X15757143Y-15285617D02*
X15785714Y-15314188D01*
X15785714Y-15314188D02*
X15814286Y-15371331D01*
X15814286Y-15371331D02*
X15814286Y-15457045D01*
X15814286Y-15457045D02*
X15785714Y-15514188D01*
X15785714Y-15514188D02*
X15757143Y-15542760D01*
X15757143Y-15542760D02*
X15700000Y-15571331D01*
X15700000Y-15571331D02*
X15471429Y-15571331D01*
X15471429Y-15571331D02*
X15471429Y-14971331D01*
X15471429Y-14971331D02*
X15671429Y-14971331D01*
X15671429Y-14971331D02*
X15728572Y-14999902D01*
X15728572Y-14999902D02*
X15757143Y-15028474D01*
X15757143Y-15028474D02*
X15785714Y-15085617D01*
X15785714Y-15085617D02*
X15785714Y-15142760D01*
X15785714Y-15142760D02*
X15757143Y-15199902D01*
X15757143Y-15199902D02*
X15728572Y-15228474D01*
X15728572Y-15228474D02*
X15671429Y-15257045D01*
X15671429Y-15257045D02*
X15471429Y-15257045D01*
X16071429Y-15257045D02*
X16271429Y-15257045D01*
X16357143Y-15571331D02*
X16071429Y-15571331D01*
X16071429Y-15571331D02*
X16071429Y-14971331D01*
X16071429Y-14971331D02*
X16357143Y-14971331D01*
X16614286Y-15571331D02*
X16614286Y-14971331D01*
X16614286Y-14971331D02*
X16957143Y-15571331D01*
X16957143Y-15571331D02*
X16957143Y-14971331D01*
X17242857Y-15571331D02*
X17242857Y-14971331D01*
X17242857Y-14971331D02*
X17385714Y-14971331D01*
X17385714Y-14971331D02*
X17471428Y-14999902D01*
X17471428Y-14999902D02*
X17528571Y-15057045D01*
X17528571Y-15057045D02*
X17557142Y-15114188D01*
X17557142Y-15114188D02*
X17585714Y-15228474D01*
X17585714Y-15228474D02*
X17585714Y-15314188D01*
X17585714Y-15314188D02*
X17557142Y-15428474D01*
X17557142Y-15428474D02*
X17528571Y-15485617D01*
X17528571Y-15485617D02*
X17471428Y-15542760D01*
X17471428Y-15542760D02*
X17385714Y-15571331D01*
X17385714Y-15571331D02*
X17242857Y-15571331D01*
D12*
X13961904Y-10681407D02*
X13961904Y-10281407D01*
X14190475Y-10681407D02*
X14019046Y-10452836D01*
X14190475Y-10281407D02*
X13961904Y-10509979D01*
X14361904Y-10471883D02*
X14495237Y-10471883D01*
X14552380Y-10681407D02*
X14361904Y-10681407D01*
X14361904Y-10681407D02*
X14361904Y-10281407D01*
X14361904Y-10281407D02*
X14552380Y-10281407D01*
X14723809Y-10471883D02*
X14857142Y-10471883D01*
X14914285Y-10681407D02*
X14723809Y-10681407D01*
X14723809Y-10681407D02*
X14723809Y-10281407D01*
X14723809Y-10281407D02*
X14914285Y-10281407D01*
X15085714Y-10681407D02*
X15085714Y-10281407D01*
X15085714Y-10281407D02*
X15238095Y-10281407D01*
X15238095Y-10281407D02*
X15276190Y-10300455D01*
X15276190Y-10300455D02*
X15295237Y-10319502D01*
X15295237Y-10319502D02*
X15314285Y-10357598D01*
X15314285Y-10357598D02*
X15314285Y-10414740D01*
X15314285Y-10414740D02*
X15295237Y-10452836D01*
X15295237Y-10452836D02*
X15276190Y-10471883D01*
X15276190Y-10471883D02*
X15238095Y-10490931D01*
X15238095Y-10490931D02*
X15085714Y-10490931D01*
X15561904Y-10281407D02*
X15638095Y-10281407D01*
X15638095Y-10281407D02*
X15676190Y-10300455D01*
X15676190Y-10300455D02*
X15714285Y-10338550D01*
X15714285Y-10338550D02*
X15733333Y-10414740D01*
X15733333Y-10414740D02*
X15733333Y-10548074D01*
X15733333Y-10548074D02*
X15714285Y-10624264D01*
X15714285Y-10624264D02*
X15676190Y-10662360D01*
X15676190Y-10662360D02*
X15638095Y-10681407D01*
X15638095Y-10681407D02*
X15561904Y-10681407D01*
X15561904Y-10681407D02*
X15523809Y-10662360D01*
X15523809Y-10662360D02*
X15485714Y-10624264D01*
X15485714Y-10624264D02*
X15466666Y-10548074D01*
X15466666Y-10548074D02*
X15466666Y-10414740D01*
X15466666Y-10414740D02*
X15485714Y-10338550D01*
X15485714Y-10338550D02*
X15523809Y-10300455D01*
X15523809Y-10300455D02*
X15561904Y-10281407D01*
X15904762Y-10281407D02*
X15904762Y-10605217D01*
X15904762Y-10605217D02*
X15923809Y-10643312D01*
X15923809Y-10643312D02*
X15942857Y-10662360D01*
X15942857Y-10662360D02*
X15980952Y-10681407D01*
X15980952Y-10681407D02*
X16057143Y-10681407D01*
X16057143Y-10681407D02*
X16095238Y-10662360D01*
X16095238Y-10662360D02*
X16114285Y-10643312D01*
X16114285Y-10643312D02*
X16133333Y-10605217D01*
X16133333Y-10605217D02*
X16133333Y-10281407D01*
X16266667Y-10281407D02*
X16495238Y-10281407D01*
X16380952Y-10681407D02*
X16380952Y-10281407D01*
D13*
X4612295Y-36966666D02*
X3812295Y-36966666D01*
X4612295Y-36509523D02*
X4155152Y-36852381D01*
X3812295Y-36509523D02*
X4269438Y-36966666D01*
X4193247Y-36166666D02*
X4193247Y-35900000D01*
X4612295Y-35785714D02*
X4612295Y-36166666D01*
X4612295Y-36166666D02*
X3812295Y-36166666D01*
X3812295Y-36166666D02*
X3812295Y-35785714D01*
X4193247Y-35442856D02*
X4193247Y-35176190D01*
X4612295Y-35061904D02*
X4612295Y-35442856D01*
X4612295Y-35442856D02*
X3812295Y-35442856D01*
X3812295Y-35442856D02*
X3812295Y-35061904D01*
X4612295Y-34719046D02*
X3812295Y-34719046D01*
X3812295Y-34719046D02*
X3812295Y-34414284D01*
X3812295Y-34414284D02*
X3850390Y-34338094D01*
X3850390Y-34338094D02*
X3888485Y-34299999D01*
X3888485Y-34299999D02*
X3964676Y-34261903D01*
X3964676Y-34261903D02*
X4078961Y-34261903D01*
X4078961Y-34261903D02*
X4155152Y-34299999D01*
X4155152Y-34299999D02*
X4193247Y-34338094D01*
X4193247Y-34338094D02*
X4231342Y-34414284D01*
X4231342Y-34414284D02*
X4231342Y-34719046D01*
X3812295Y-33157141D02*
X3812295Y-33004760D01*
X3812295Y-33004760D02*
X3850390Y-32928570D01*
X3850390Y-32928570D02*
X3926580Y-32852379D01*
X3926580Y-32852379D02*
X4078961Y-32814284D01*
X4078961Y-32814284D02*
X4345628Y-32814284D01*
X4345628Y-32814284D02*
X4498009Y-32852379D01*
X4498009Y-32852379D02*
X4574200Y-32928570D01*
X4574200Y-32928570D02*
X4612295Y-33004760D01*
X4612295Y-33004760D02*
X4612295Y-33157141D01*
X4612295Y-33157141D02*
X4574200Y-33233332D01*
X4574200Y-33233332D02*
X4498009Y-33309522D01*
X4498009Y-33309522D02*
X4345628Y-33347618D01*
X4345628Y-33347618D02*
X4078961Y-33347618D01*
X4078961Y-33347618D02*
X3926580Y-33309522D01*
X3926580Y-33309522D02*
X3850390Y-33233332D01*
X3850390Y-33233332D02*
X3812295Y-33157141D01*
X3812295Y-32471427D02*
X4459914Y-32471427D01*
X4459914Y-32471427D02*
X4536104Y-32433332D01*
X4536104Y-32433332D02*
X4574200Y-32395237D01*
X4574200Y-32395237D02*
X4612295Y-32319046D01*
X4612295Y-32319046D02*
X4612295Y-32166665D01*
X4612295Y-32166665D02*
X4574200Y-32090475D01*
X4574200Y-32090475D02*
X4536104Y-32052380D01*
X4536104Y-32052380D02*
X4459914Y-32014284D01*
X4459914Y-32014284D02*
X3812295Y-32014284D01*
X3812295Y-31747618D02*
X3812295Y-31290475D01*
X4612295Y-31519047D02*
X3812295Y-31519047D01*
X3812295Y-30490475D02*
X3812295Y-29957141D01*
X3812295Y-29957141D02*
X4612295Y-30490475D01*
X4612295Y-30490475D02*
X4612295Y-29957141D01*
X3812295Y-29499998D02*
X3812295Y-29347617D01*
X3812295Y-29347617D02*
X3850390Y-29271427D01*
X3850390Y-29271427D02*
X3926580Y-29195236D01*
X3926580Y-29195236D02*
X4078961Y-29157141D01*
X4078961Y-29157141D02*
X4345628Y-29157141D01*
X4345628Y-29157141D02*
X4498009Y-29195236D01*
X4498009Y-29195236D02*
X4574200Y-29271427D01*
X4574200Y-29271427D02*
X4612295Y-29347617D01*
X4612295Y-29347617D02*
X4612295Y-29499998D01*
X4612295Y-29499998D02*
X4574200Y-29576189D01*
X4574200Y-29576189D02*
X4498009Y-29652379D01*
X4498009Y-29652379D02*
X4345628Y-29690475D01*
X4345628Y-29690475D02*
X4078961Y-29690475D01*
X4078961Y-29690475D02*
X3926580Y-29652379D01*
X3926580Y-29652379D02*
X3850390Y-29576189D01*
X3850390Y-29576189D02*
X3812295Y-29499998D01*
X4612295Y-28814284D02*
X3812295Y-28814284D01*
X3812295Y-28814284D02*
X4612295Y-28357141D01*
X4612295Y-28357141D02*
X3812295Y-28357141D01*
X4193247Y-27976189D02*
X4193247Y-27709523D01*
X4612295Y-27595237D02*
X4612295Y-27976189D01*
X4612295Y-27976189D02*
X3812295Y-27976189D01*
X3812295Y-27976189D02*
X3812295Y-27595237D01*
D14*
X6182967Y-35511904D02*
X6182967Y-35283333D01*
X6582967Y-35397619D02*
X6182967Y-35397619D01*
X6182967Y-35073809D02*
X6182967Y-34997618D01*
X6182967Y-34997618D02*
X6202015Y-34959523D01*
X6202015Y-34959523D02*
X6240110Y-34921428D01*
X6240110Y-34921428D02*
X6316300Y-34902380D01*
X6316300Y-34902380D02*
X6449634Y-34902380D01*
X6449634Y-34902380D02*
X6525824Y-34921428D01*
X6525824Y-34921428D02*
X6563920Y-34959523D01*
X6563920Y-34959523D02*
X6582967Y-34997618D01*
X6582967Y-34997618D02*
X6582967Y-35073809D01*
X6582967Y-35073809D02*
X6563920Y-35111904D01*
X6563920Y-35111904D02*
X6525824Y-35149999D01*
X6525824Y-35149999D02*
X6449634Y-35169047D01*
X6449634Y-35169047D02*
X6316300Y-35169047D01*
X6316300Y-35169047D02*
X6240110Y-35149999D01*
X6240110Y-35149999D02*
X6202015Y-35111904D01*
X6202015Y-35111904D02*
X6182967Y-35073809D01*
X6582967Y-34730951D02*
X6182967Y-34730951D01*
X6182967Y-34730951D02*
X6182967Y-34578570D01*
X6182967Y-34578570D02*
X6202015Y-34540475D01*
X6202015Y-34540475D02*
X6221062Y-34521428D01*
X6221062Y-34521428D02*
X6259158Y-34502380D01*
X6259158Y-34502380D02*
X6316300Y-34502380D01*
X6316300Y-34502380D02*
X6354396Y-34521428D01*
X6354396Y-34521428D02*
X6373443Y-34540475D01*
X6373443Y-34540475D02*
X6392491Y-34578570D01*
X6392491Y-34578570D02*
X6392491Y-34730951D01*
X6582967Y-33835713D02*
X6582967Y-34026189D01*
X6582967Y-34026189D02*
X6182967Y-34026189D01*
X6468681Y-33721427D02*
X6468681Y-33530951D01*
X6582967Y-33759522D02*
X6182967Y-33626189D01*
X6182967Y-33626189D02*
X6582967Y-33492856D01*
X6392491Y-33283332D02*
X6582967Y-33283332D01*
X6182967Y-33416665D02*
X6392491Y-33283332D01*
X6392491Y-33283332D02*
X6182967Y-33149999D01*
X6373443Y-33016665D02*
X6373443Y-32883332D01*
X6582967Y-32826189D02*
X6582967Y-33016665D01*
X6582967Y-33016665D02*
X6182967Y-33016665D01*
X6182967Y-33016665D02*
X6182967Y-32826189D01*
X6582967Y-32426189D02*
X6392491Y-32559522D01*
X6582967Y-32654760D02*
X6182967Y-32654760D01*
X6182967Y-32654760D02*
X6182967Y-32502379D01*
X6182967Y-32502379D02*
X6202015Y-32464284D01*
X6202015Y-32464284D02*
X6221062Y-32445237D01*
X6221062Y-32445237D02*
X6259158Y-32426189D01*
X6259158Y-32426189D02*
X6316300Y-32426189D01*
X6316300Y-32426189D02*
X6354396Y-32445237D01*
X6354396Y-32445237D02*
X6373443Y-32464284D01*
X6373443Y-32464284D02*
X6392491Y-32502379D01*
X6392491Y-32502379D02*
X6392491Y-32654760D01*
X7082967Y-35240476D02*
X6682967Y-35240476D01*
X7082967Y-35011905D02*
X6854396Y-35183334D01*
X6682967Y-35011905D02*
X6911539Y-35240476D01*
X6873443Y-34840476D02*
X6873443Y-34707143D01*
X7082967Y-34650000D02*
X7082967Y-34840476D01*
X7082967Y-34840476D02*
X6682967Y-34840476D01*
X6682967Y-34840476D02*
X6682967Y-34650000D01*
X6873443Y-34478571D02*
X6873443Y-34345238D01*
X7082967Y-34288095D02*
X7082967Y-34478571D01*
X7082967Y-34478571D02*
X6682967Y-34478571D01*
X6682967Y-34478571D02*
X6682967Y-34288095D01*
X7082967Y-34116666D02*
X6682967Y-34116666D01*
X6682967Y-34116666D02*
X6682967Y-33964285D01*
X6682967Y-33964285D02*
X6702015Y-33926190D01*
X6702015Y-33926190D02*
X6721062Y-33907143D01*
X6721062Y-33907143D02*
X6759158Y-33888095D01*
X6759158Y-33888095D02*
X6816300Y-33888095D01*
X6816300Y-33888095D02*
X6854396Y-33907143D01*
X6854396Y-33907143D02*
X6873443Y-33926190D01*
X6873443Y-33926190D02*
X6892491Y-33964285D01*
X6892491Y-33964285D02*
X6892491Y-34116666D01*
X6682967Y-33335714D02*
X6682967Y-33259523D01*
X6682967Y-33259523D02*
X6702015Y-33221428D01*
X6702015Y-33221428D02*
X6740110Y-33183333D01*
X6740110Y-33183333D02*
X6816300Y-33164285D01*
X6816300Y-33164285D02*
X6949634Y-33164285D01*
X6949634Y-33164285D02*
X7025824Y-33183333D01*
X7025824Y-33183333D02*
X7063920Y-33221428D01*
X7063920Y-33221428D02*
X7082967Y-33259523D01*
X7082967Y-33259523D02*
X7082967Y-33335714D01*
X7082967Y-33335714D02*
X7063920Y-33373809D01*
X7063920Y-33373809D02*
X7025824Y-33411904D01*
X7025824Y-33411904D02*
X6949634Y-33430952D01*
X6949634Y-33430952D02*
X6816300Y-33430952D01*
X6816300Y-33430952D02*
X6740110Y-33411904D01*
X6740110Y-33411904D02*
X6702015Y-33373809D01*
X6702015Y-33373809D02*
X6682967Y-33335714D01*
X6682967Y-32992856D02*
X7006777Y-32992856D01*
X7006777Y-32992856D02*
X7044872Y-32973809D01*
X7044872Y-32973809D02*
X7063920Y-32954761D01*
X7063920Y-32954761D02*
X7082967Y-32916666D01*
X7082967Y-32916666D02*
X7082967Y-32840475D01*
X7082967Y-32840475D02*
X7063920Y-32802380D01*
X7063920Y-32802380D02*
X7044872Y-32783333D01*
X7044872Y-32783333D02*
X7006777Y-32764285D01*
X7006777Y-32764285D02*
X6682967Y-32764285D01*
X6682967Y-32630951D02*
X6682967Y-32402380D01*
X7082967Y-32516666D02*
X6682967Y-32516666D01*
M02*
