%TF.GenerationSoftware,KiCad,Pcbnew,10.0.6*%
%TF.CreationDate,2026-09-23T10:07:27-04:00*%
%TF.ProjectId,elicio-v2,656c6963-696f-42d7-9632-2e6b69636164,rev?*%
%TF.SameCoordinates,Original*%
%TF.FileFunction,Other,ECO2*%
%FSLAX46Y46*%
G04 Gerber Fmt 4.6, Leading zero omitted, Abs format (unit mm)*
G04 Created by KiCad (PCBNEW 10.0.6) date 2026-09-23 10:07:27*
%MOMM*%
%LPD*%
G01*
G04 APERTURE LIST*
%ADD10C,3.225000*%
%ADD11C,0.100000*%
G04 APERTURE END LIST*
D10*
X7512500Y-5290000D02*
G75*
G02*
X4287500Y-5290000I-1612500J0D01*
G01*
X4287500Y-5290000D02*
G75*
G02*
X7512500Y-5290000I1612500J0D01*
G01*
X10112500Y-43000000D02*
G75*
G02*
X6887500Y-43000000I-1612500J0D01*
G01*
X6887500Y-43000000D02*
G75*
G02*
X10112500Y-43000000I1612500J0D01*
G01*
X12012500Y5810000D02*
G75*
G02*
X8787500Y5810000I-1612500J0D01*
G01*
X8787500Y5810000D02*
G75*
G02*
X12012500Y5810000I1612500J0D01*
G01*
X24932500Y-4350000D02*
G75*
G02*
X21707500Y-4350000I-1612500J0D01*
G01*
X21707500Y-4350000D02*
G75*
G02*
X24932500Y-4350000I1612500J0D01*
G01*
X24932500Y-12350000D02*
G75*
G02*
X21707500Y-12350000I-1612500J0D01*
G01*
X21707500Y-12350000D02*
G75*
G02*
X24932500Y-12350000I1612500J0D01*
G01*
D11*
X3385715Y-5260323D02*
X3519048Y-5260323D01*
X3576191Y-5469847D02*
X3385715Y-5469847D01*
X3385715Y-5469847D02*
X3385715Y-5069847D01*
X3385715Y-5069847D02*
X3576191Y-5069847D01*
X3919048Y-5450800D02*
X3880953Y-5469847D01*
X3880953Y-5469847D02*
X3804762Y-5469847D01*
X3804762Y-5469847D02*
X3766667Y-5450800D01*
X3766667Y-5450800D02*
X3747620Y-5431752D01*
X3747620Y-5431752D02*
X3728572Y-5393657D01*
X3728572Y-5393657D02*
X3728572Y-5279371D01*
X3728572Y-5279371D02*
X3747620Y-5241276D01*
X3747620Y-5241276D02*
X3766667Y-5222228D01*
X3766667Y-5222228D02*
X3804762Y-5203180D01*
X3804762Y-5203180D02*
X3880953Y-5203180D01*
X3880953Y-5203180D02*
X3919048Y-5222228D01*
X4147619Y-5469847D02*
X4109524Y-5450800D01*
X4109524Y-5450800D02*
X4090477Y-5431752D01*
X4090477Y-5431752D02*
X4071429Y-5393657D01*
X4071429Y-5393657D02*
X4071429Y-5279371D01*
X4071429Y-5279371D02*
X4090477Y-5241276D01*
X4090477Y-5241276D02*
X4109524Y-5222228D01*
X4109524Y-5222228D02*
X4147619Y-5203180D01*
X4147619Y-5203180D02*
X4204762Y-5203180D01*
X4204762Y-5203180D02*
X4242858Y-5222228D01*
X4242858Y-5222228D02*
X4261905Y-5241276D01*
X4261905Y-5241276D02*
X4280953Y-5279371D01*
X4280953Y-5279371D02*
X4280953Y-5393657D01*
X4280953Y-5393657D02*
X4261905Y-5431752D01*
X4261905Y-5431752D02*
X4242858Y-5450800D01*
X4242858Y-5450800D02*
X4204762Y-5469847D01*
X4204762Y-5469847D02*
X4147619Y-5469847D01*
X4433334Y-5107942D02*
X4452382Y-5088895D01*
X4452382Y-5088895D02*
X4490477Y-5069847D01*
X4490477Y-5069847D02*
X4585715Y-5069847D01*
X4585715Y-5069847D02*
X4623810Y-5088895D01*
X4623810Y-5088895D02*
X4642858Y-5107942D01*
X4642858Y-5107942D02*
X4661905Y-5146038D01*
X4661905Y-5146038D02*
X4661905Y-5184133D01*
X4661905Y-5184133D02*
X4642858Y-5241276D01*
X4642858Y-5241276D02*
X4414286Y-5469847D01*
X4414286Y-5469847D02*
X4661905Y-5469847D01*
X5271429Y-5260323D02*
X5138096Y-5260323D01*
X5138096Y-5469847D02*
X5138096Y-5069847D01*
X5138096Y-5069847D02*
X5328572Y-5069847D01*
X5709524Y-5469847D02*
X5576191Y-5279371D01*
X5480953Y-5469847D02*
X5480953Y-5069847D01*
X5480953Y-5069847D02*
X5633334Y-5069847D01*
X5633334Y-5069847D02*
X5671429Y-5088895D01*
X5671429Y-5088895D02*
X5690476Y-5107942D01*
X5690476Y-5107942D02*
X5709524Y-5146038D01*
X5709524Y-5146038D02*
X5709524Y-5203180D01*
X5709524Y-5203180D02*
X5690476Y-5241276D01*
X5690476Y-5241276D02*
X5671429Y-5260323D01*
X5671429Y-5260323D02*
X5633334Y-5279371D01*
X5633334Y-5279371D02*
X5480953Y-5279371D01*
X6052381Y-5203180D02*
X6052381Y-5469847D01*
X5957143Y-5050800D02*
X5861905Y-5336514D01*
X5861905Y-5336514D02*
X6109524Y-5336514D01*
X6642857Y-5069847D02*
X6680952Y-5069847D01*
X6680952Y-5069847D02*
X6719048Y-5088895D01*
X6719048Y-5088895D02*
X6738095Y-5107942D01*
X6738095Y-5107942D02*
X6757143Y-5146038D01*
X6757143Y-5146038D02*
X6776190Y-5222228D01*
X6776190Y-5222228D02*
X6776190Y-5317466D01*
X6776190Y-5317466D02*
X6757143Y-5393657D01*
X6757143Y-5393657D02*
X6738095Y-5431752D01*
X6738095Y-5431752D02*
X6719048Y-5450800D01*
X6719048Y-5450800D02*
X6680952Y-5469847D01*
X6680952Y-5469847D02*
X6642857Y-5469847D01*
X6642857Y-5469847D02*
X6604762Y-5450800D01*
X6604762Y-5450800D02*
X6585714Y-5431752D01*
X6585714Y-5431752D02*
X6566667Y-5393657D01*
X6566667Y-5393657D02*
X6547619Y-5317466D01*
X6547619Y-5317466D02*
X6547619Y-5222228D01*
X6547619Y-5222228D02*
X6566667Y-5146038D01*
X6566667Y-5146038D02*
X6585714Y-5107942D01*
X6585714Y-5107942D02*
X6604762Y-5088895D01*
X6604762Y-5088895D02*
X6642857Y-5069847D01*
X6947619Y-5431752D02*
X6966666Y-5450800D01*
X6966666Y-5450800D02*
X6947619Y-5469847D01*
X6947619Y-5469847D02*
X6928571Y-5450800D01*
X6928571Y-5450800D02*
X6947619Y-5431752D01*
X6947619Y-5431752D02*
X6947619Y-5469847D01*
X7119047Y-5107942D02*
X7138095Y-5088895D01*
X7138095Y-5088895D02*
X7176190Y-5069847D01*
X7176190Y-5069847D02*
X7271428Y-5069847D01*
X7271428Y-5069847D02*
X7309523Y-5088895D01*
X7309523Y-5088895D02*
X7328571Y-5107942D01*
X7328571Y-5107942D02*
X7347618Y-5146038D01*
X7347618Y-5146038D02*
X7347618Y-5184133D01*
X7347618Y-5184133D02*
X7328571Y-5241276D01*
X7328571Y-5241276D02*
X7099999Y-5469847D01*
X7099999Y-5469847D02*
X7347618Y-5469847D01*
X7823809Y-5469847D02*
X7823809Y-5069847D01*
X7823809Y-5069847D02*
X7976190Y-5069847D01*
X7976190Y-5069847D02*
X8014285Y-5088895D01*
X8014285Y-5088895D02*
X8033332Y-5107942D01*
X8033332Y-5107942D02*
X8052380Y-5146038D01*
X8052380Y-5146038D02*
X8052380Y-5203180D01*
X8052380Y-5203180D02*
X8033332Y-5241276D01*
X8033332Y-5241276D02*
X8014285Y-5260323D01*
X8014285Y-5260323D02*
X7976190Y-5279371D01*
X7976190Y-5279371D02*
X7823809Y-5279371D01*
X8433332Y-5469847D02*
X8204761Y-5469847D01*
X8319047Y-5469847D02*
X8319047Y-5069847D01*
X8319047Y-5069847D02*
X8280951Y-5126990D01*
X8280951Y-5126990D02*
X8242856Y-5165085D01*
X8242856Y-5165085D02*
X8204761Y-5184133D01*
X5985715Y-42970323D02*
X6119048Y-42970323D01*
X6176191Y-43179847D02*
X5985715Y-43179847D01*
X5985715Y-43179847D02*
X5985715Y-42779847D01*
X5985715Y-42779847D02*
X6176191Y-42779847D01*
X6519048Y-43160800D02*
X6480953Y-43179847D01*
X6480953Y-43179847D02*
X6404762Y-43179847D01*
X6404762Y-43179847D02*
X6366667Y-43160800D01*
X6366667Y-43160800D02*
X6347620Y-43141752D01*
X6347620Y-43141752D02*
X6328572Y-43103657D01*
X6328572Y-43103657D02*
X6328572Y-42989371D01*
X6328572Y-42989371D02*
X6347620Y-42951276D01*
X6347620Y-42951276D02*
X6366667Y-42932228D01*
X6366667Y-42932228D02*
X6404762Y-42913180D01*
X6404762Y-42913180D02*
X6480953Y-42913180D01*
X6480953Y-42913180D02*
X6519048Y-42932228D01*
X6747619Y-43179847D02*
X6709524Y-43160800D01*
X6709524Y-43160800D02*
X6690477Y-43141752D01*
X6690477Y-43141752D02*
X6671429Y-43103657D01*
X6671429Y-43103657D02*
X6671429Y-42989371D01*
X6671429Y-42989371D02*
X6690477Y-42951276D01*
X6690477Y-42951276D02*
X6709524Y-42932228D01*
X6709524Y-42932228D02*
X6747619Y-42913180D01*
X6747619Y-42913180D02*
X6804762Y-42913180D01*
X6804762Y-42913180D02*
X6842858Y-42932228D01*
X6842858Y-42932228D02*
X6861905Y-42951276D01*
X6861905Y-42951276D02*
X6880953Y-42989371D01*
X6880953Y-42989371D02*
X6880953Y-43103657D01*
X6880953Y-43103657D02*
X6861905Y-43141752D01*
X6861905Y-43141752D02*
X6842858Y-43160800D01*
X6842858Y-43160800D02*
X6804762Y-43179847D01*
X6804762Y-43179847D02*
X6747619Y-43179847D01*
X7033334Y-42817942D02*
X7052382Y-42798895D01*
X7052382Y-42798895D02*
X7090477Y-42779847D01*
X7090477Y-42779847D02*
X7185715Y-42779847D01*
X7185715Y-42779847D02*
X7223810Y-42798895D01*
X7223810Y-42798895D02*
X7242858Y-42817942D01*
X7242858Y-42817942D02*
X7261905Y-42856038D01*
X7261905Y-42856038D02*
X7261905Y-42894133D01*
X7261905Y-42894133D02*
X7242858Y-42951276D01*
X7242858Y-42951276D02*
X7014286Y-43179847D01*
X7014286Y-43179847D02*
X7261905Y-43179847D01*
X7871429Y-42970323D02*
X7738096Y-42970323D01*
X7738096Y-43179847D02*
X7738096Y-42779847D01*
X7738096Y-42779847D02*
X7928572Y-42779847D01*
X8309524Y-43179847D02*
X8176191Y-42989371D01*
X8080953Y-43179847D02*
X8080953Y-42779847D01*
X8080953Y-42779847D02*
X8233334Y-42779847D01*
X8233334Y-42779847D02*
X8271429Y-42798895D01*
X8271429Y-42798895D02*
X8290476Y-42817942D01*
X8290476Y-42817942D02*
X8309524Y-42856038D01*
X8309524Y-42856038D02*
X8309524Y-42913180D01*
X8309524Y-42913180D02*
X8290476Y-42951276D01*
X8290476Y-42951276D02*
X8271429Y-42970323D01*
X8271429Y-42970323D02*
X8233334Y-42989371D01*
X8233334Y-42989371D02*
X8080953Y-42989371D01*
X8652381Y-42913180D02*
X8652381Y-43179847D01*
X8557143Y-42760800D02*
X8461905Y-43046514D01*
X8461905Y-43046514D02*
X8709524Y-43046514D01*
X9242857Y-42779847D02*
X9280952Y-42779847D01*
X9280952Y-42779847D02*
X9319048Y-42798895D01*
X9319048Y-42798895D02*
X9338095Y-42817942D01*
X9338095Y-42817942D02*
X9357143Y-42856038D01*
X9357143Y-42856038D02*
X9376190Y-42932228D01*
X9376190Y-42932228D02*
X9376190Y-43027466D01*
X9376190Y-43027466D02*
X9357143Y-43103657D01*
X9357143Y-43103657D02*
X9338095Y-43141752D01*
X9338095Y-43141752D02*
X9319048Y-43160800D01*
X9319048Y-43160800D02*
X9280952Y-43179847D01*
X9280952Y-43179847D02*
X9242857Y-43179847D01*
X9242857Y-43179847D02*
X9204762Y-43160800D01*
X9204762Y-43160800D02*
X9185714Y-43141752D01*
X9185714Y-43141752D02*
X9166667Y-43103657D01*
X9166667Y-43103657D02*
X9147619Y-43027466D01*
X9147619Y-43027466D02*
X9147619Y-42932228D01*
X9147619Y-42932228D02*
X9166667Y-42856038D01*
X9166667Y-42856038D02*
X9185714Y-42817942D01*
X9185714Y-42817942D02*
X9204762Y-42798895D01*
X9204762Y-42798895D02*
X9242857Y-42779847D01*
X9547619Y-43141752D02*
X9566666Y-43160800D01*
X9566666Y-43160800D02*
X9547619Y-43179847D01*
X9547619Y-43179847D02*
X9528571Y-43160800D01*
X9528571Y-43160800D02*
X9547619Y-43141752D01*
X9547619Y-43141752D02*
X9547619Y-43179847D01*
X9719047Y-42817942D02*
X9738095Y-42798895D01*
X9738095Y-42798895D02*
X9776190Y-42779847D01*
X9776190Y-42779847D02*
X9871428Y-42779847D01*
X9871428Y-42779847D02*
X9909523Y-42798895D01*
X9909523Y-42798895D02*
X9928571Y-42817942D01*
X9928571Y-42817942D02*
X9947618Y-42856038D01*
X9947618Y-42856038D02*
X9947618Y-42894133D01*
X9947618Y-42894133D02*
X9928571Y-42951276D01*
X9928571Y-42951276D02*
X9699999Y-43179847D01*
X9699999Y-43179847D02*
X9947618Y-43179847D01*
X10423809Y-43179847D02*
X10423809Y-42779847D01*
X10423809Y-42779847D02*
X10576190Y-42779847D01*
X10576190Y-42779847D02*
X10614285Y-42798895D01*
X10614285Y-42798895D02*
X10633332Y-42817942D01*
X10633332Y-42817942D02*
X10652380Y-42856038D01*
X10652380Y-42856038D02*
X10652380Y-42913180D01*
X10652380Y-42913180D02*
X10633332Y-42951276D01*
X10633332Y-42951276D02*
X10614285Y-42970323D01*
X10614285Y-42970323D02*
X10576190Y-42989371D01*
X10576190Y-42989371D02*
X10423809Y-42989371D01*
X10785713Y-42779847D02*
X11033332Y-42779847D01*
X11033332Y-42779847D02*
X10899999Y-42932228D01*
X10899999Y-42932228D02*
X10957142Y-42932228D01*
X10957142Y-42932228D02*
X10995237Y-42951276D01*
X10995237Y-42951276D02*
X11014285Y-42970323D01*
X11014285Y-42970323D02*
X11033332Y-43008419D01*
X11033332Y-43008419D02*
X11033332Y-43103657D01*
X11033332Y-43103657D02*
X11014285Y-43141752D01*
X11014285Y-43141752D02*
X10995237Y-43160800D01*
X10995237Y-43160800D02*
X10957142Y-43179847D01*
X10957142Y-43179847D02*
X10842856Y-43179847D01*
X10842856Y-43179847D02*
X10804761Y-43160800D01*
X10804761Y-43160800D02*
X10785713Y-43141752D01*
X7885715Y5839676D02*
X8019048Y5839676D01*
X8076191Y5630152D02*
X7885715Y5630152D01*
X7885715Y5630152D02*
X7885715Y6030152D01*
X7885715Y6030152D02*
X8076191Y6030152D01*
X8419048Y5649200D02*
X8380953Y5630152D01*
X8380953Y5630152D02*
X8304762Y5630152D01*
X8304762Y5630152D02*
X8266667Y5649200D01*
X8266667Y5649200D02*
X8247620Y5668247D01*
X8247620Y5668247D02*
X8228572Y5706342D01*
X8228572Y5706342D02*
X8228572Y5820628D01*
X8228572Y5820628D02*
X8247620Y5858723D01*
X8247620Y5858723D02*
X8266667Y5877771D01*
X8266667Y5877771D02*
X8304762Y5896819D01*
X8304762Y5896819D02*
X8380953Y5896819D01*
X8380953Y5896819D02*
X8419048Y5877771D01*
X8647619Y5630152D02*
X8609524Y5649200D01*
X8609524Y5649200D02*
X8590477Y5668247D01*
X8590477Y5668247D02*
X8571429Y5706342D01*
X8571429Y5706342D02*
X8571429Y5820628D01*
X8571429Y5820628D02*
X8590477Y5858723D01*
X8590477Y5858723D02*
X8609524Y5877771D01*
X8609524Y5877771D02*
X8647619Y5896819D01*
X8647619Y5896819D02*
X8704762Y5896819D01*
X8704762Y5896819D02*
X8742858Y5877771D01*
X8742858Y5877771D02*
X8761905Y5858723D01*
X8761905Y5858723D02*
X8780953Y5820628D01*
X8780953Y5820628D02*
X8780953Y5706342D01*
X8780953Y5706342D02*
X8761905Y5668247D01*
X8761905Y5668247D02*
X8742858Y5649200D01*
X8742858Y5649200D02*
X8704762Y5630152D01*
X8704762Y5630152D02*
X8647619Y5630152D01*
X8933334Y5992057D02*
X8952382Y6011104D01*
X8952382Y6011104D02*
X8990477Y6030152D01*
X8990477Y6030152D02*
X9085715Y6030152D01*
X9085715Y6030152D02*
X9123810Y6011104D01*
X9123810Y6011104D02*
X9142858Y5992057D01*
X9142858Y5992057D02*
X9161905Y5953961D01*
X9161905Y5953961D02*
X9161905Y5915866D01*
X9161905Y5915866D02*
X9142858Y5858723D01*
X9142858Y5858723D02*
X8914286Y5630152D01*
X8914286Y5630152D02*
X9161905Y5630152D01*
X9771429Y5839676D02*
X9638096Y5839676D01*
X9638096Y5630152D02*
X9638096Y6030152D01*
X9638096Y6030152D02*
X9828572Y6030152D01*
X10209524Y5630152D02*
X10076191Y5820628D01*
X9980953Y5630152D02*
X9980953Y6030152D01*
X9980953Y6030152D02*
X10133334Y6030152D01*
X10133334Y6030152D02*
X10171429Y6011104D01*
X10171429Y6011104D02*
X10190476Y5992057D01*
X10190476Y5992057D02*
X10209524Y5953961D01*
X10209524Y5953961D02*
X10209524Y5896819D01*
X10209524Y5896819D02*
X10190476Y5858723D01*
X10190476Y5858723D02*
X10171429Y5839676D01*
X10171429Y5839676D02*
X10133334Y5820628D01*
X10133334Y5820628D02*
X9980953Y5820628D01*
X10552381Y5896819D02*
X10552381Y5630152D01*
X10457143Y6049200D02*
X10361905Y5763485D01*
X10361905Y5763485D02*
X10609524Y5763485D01*
X11142857Y6030152D02*
X11180952Y6030152D01*
X11180952Y6030152D02*
X11219048Y6011104D01*
X11219048Y6011104D02*
X11238095Y5992057D01*
X11238095Y5992057D02*
X11257143Y5953961D01*
X11257143Y5953961D02*
X11276190Y5877771D01*
X11276190Y5877771D02*
X11276190Y5782533D01*
X11276190Y5782533D02*
X11257143Y5706342D01*
X11257143Y5706342D02*
X11238095Y5668247D01*
X11238095Y5668247D02*
X11219048Y5649200D01*
X11219048Y5649200D02*
X11180952Y5630152D01*
X11180952Y5630152D02*
X11142857Y5630152D01*
X11142857Y5630152D02*
X11104762Y5649200D01*
X11104762Y5649200D02*
X11085714Y5668247D01*
X11085714Y5668247D02*
X11066667Y5706342D01*
X11066667Y5706342D02*
X11047619Y5782533D01*
X11047619Y5782533D02*
X11047619Y5877771D01*
X11047619Y5877771D02*
X11066667Y5953961D01*
X11066667Y5953961D02*
X11085714Y5992057D01*
X11085714Y5992057D02*
X11104762Y6011104D01*
X11104762Y6011104D02*
X11142857Y6030152D01*
X11447619Y5668247D02*
X11466666Y5649200D01*
X11466666Y5649200D02*
X11447619Y5630152D01*
X11447619Y5630152D02*
X11428571Y5649200D01*
X11428571Y5649200D02*
X11447619Y5668247D01*
X11447619Y5668247D02*
X11447619Y5630152D01*
X11619047Y5992057D02*
X11638095Y6011104D01*
X11638095Y6011104D02*
X11676190Y6030152D01*
X11676190Y6030152D02*
X11771428Y6030152D01*
X11771428Y6030152D02*
X11809523Y6011104D01*
X11809523Y6011104D02*
X11828571Y5992057D01*
X11828571Y5992057D02*
X11847618Y5953961D01*
X11847618Y5953961D02*
X11847618Y5915866D01*
X11847618Y5915866D02*
X11828571Y5858723D01*
X11828571Y5858723D02*
X11599999Y5630152D01*
X11599999Y5630152D02*
X11847618Y5630152D01*
X12323809Y5630152D02*
X12323809Y6030152D01*
X12323809Y6030152D02*
X12476190Y6030152D01*
X12476190Y6030152D02*
X12514285Y6011104D01*
X12514285Y6011104D02*
X12533332Y5992057D01*
X12533332Y5992057D02*
X12552380Y5953961D01*
X12552380Y5953961D02*
X12552380Y5896819D01*
X12552380Y5896819D02*
X12533332Y5858723D01*
X12533332Y5858723D02*
X12514285Y5839676D01*
X12514285Y5839676D02*
X12476190Y5820628D01*
X12476190Y5820628D02*
X12323809Y5820628D01*
X12704761Y5992057D02*
X12723809Y6011104D01*
X12723809Y6011104D02*
X12761904Y6030152D01*
X12761904Y6030152D02*
X12857142Y6030152D01*
X12857142Y6030152D02*
X12895237Y6011104D01*
X12895237Y6011104D02*
X12914285Y5992057D01*
X12914285Y5992057D02*
X12933332Y5953961D01*
X12933332Y5953961D02*
X12933332Y5915866D01*
X12933332Y5915866D02*
X12914285Y5858723D01*
X12914285Y5858723D02*
X12685713Y5630152D01*
X12685713Y5630152D02*
X12933332Y5630152D01*
X20805715Y-4320323D02*
X20939048Y-4320323D01*
X20996191Y-4529847D02*
X20805715Y-4529847D01*
X20805715Y-4529847D02*
X20805715Y-4129847D01*
X20805715Y-4129847D02*
X20996191Y-4129847D01*
X21339048Y-4510800D02*
X21300953Y-4529847D01*
X21300953Y-4529847D02*
X21224762Y-4529847D01*
X21224762Y-4529847D02*
X21186667Y-4510800D01*
X21186667Y-4510800D02*
X21167620Y-4491752D01*
X21167620Y-4491752D02*
X21148572Y-4453657D01*
X21148572Y-4453657D02*
X21148572Y-4339371D01*
X21148572Y-4339371D02*
X21167620Y-4301276D01*
X21167620Y-4301276D02*
X21186667Y-4282228D01*
X21186667Y-4282228D02*
X21224762Y-4263180D01*
X21224762Y-4263180D02*
X21300953Y-4263180D01*
X21300953Y-4263180D02*
X21339048Y-4282228D01*
X21567619Y-4529847D02*
X21529524Y-4510800D01*
X21529524Y-4510800D02*
X21510477Y-4491752D01*
X21510477Y-4491752D02*
X21491429Y-4453657D01*
X21491429Y-4453657D02*
X21491429Y-4339371D01*
X21491429Y-4339371D02*
X21510477Y-4301276D01*
X21510477Y-4301276D02*
X21529524Y-4282228D01*
X21529524Y-4282228D02*
X21567619Y-4263180D01*
X21567619Y-4263180D02*
X21624762Y-4263180D01*
X21624762Y-4263180D02*
X21662858Y-4282228D01*
X21662858Y-4282228D02*
X21681905Y-4301276D01*
X21681905Y-4301276D02*
X21700953Y-4339371D01*
X21700953Y-4339371D02*
X21700953Y-4453657D01*
X21700953Y-4453657D02*
X21681905Y-4491752D01*
X21681905Y-4491752D02*
X21662858Y-4510800D01*
X21662858Y-4510800D02*
X21624762Y-4529847D01*
X21624762Y-4529847D02*
X21567619Y-4529847D01*
X21853334Y-4167942D02*
X21872382Y-4148895D01*
X21872382Y-4148895D02*
X21910477Y-4129847D01*
X21910477Y-4129847D02*
X22005715Y-4129847D01*
X22005715Y-4129847D02*
X22043810Y-4148895D01*
X22043810Y-4148895D02*
X22062858Y-4167942D01*
X22062858Y-4167942D02*
X22081905Y-4206038D01*
X22081905Y-4206038D02*
X22081905Y-4244133D01*
X22081905Y-4244133D02*
X22062858Y-4301276D01*
X22062858Y-4301276D02*
X21834286Y-4529847D01*
X21834286Y-4529847D02*
X22081905Y-4529847D01*
X22691429Y-4320323D02*
X22558096Y-4320323D01*
X22558096Y-4529847D02*
X22558096Y-4129847D01*
X22558096Y-4129847D02*
X22748572Y-4129847D01*
X23129524Y-4529847D02*
X22996191Y-4339371D01*
X22900953Y-4529847D02*
X22900953Y-4129847D01*
X22900953Y-4129847D02*
X23053334Y-4129847D01*
X23053334Y-4129847D02*
X23091429Y-4148895D01*
X23091429Y-4148895D02*
X23110476Y-4167942D01*
X23110476Y-4167942D02*
X23129524Y-4206038D01*
X23129524Y-4206038D02*
X23129524Y-4263180D01*
X23129524Y-4263180D02*
X23110476Y-4301276D01*
X23110476Y-4301276D02*
X23091429Y-4320323D01*
X23091429Y-4320323D02*
X23053334Y-4339371D01*
X23053334Y-4339371D02*
X22900953Y-4339371D01*
X23472381Y-4263180D02*
X23472381Y-4529847D01*
X23377143Y-4110800D02*
X23281905Y-4396514D01*
X23281905Y-4396514D02*
X23529524Y-4396514D01*
X24062857Y-4129847D02*
X24100952Y-4129847D01*
X24100952Y-4129847D02*
X24139048Y-4148895D01*
X24139048Y-4148895D02*
X24158095Y-4167942D01*
X24158095Y-4167942D02*
X24177143Y-4206038D01*
X24177143Y-4206038D02*
X24196190Y-4282228D01*
X24196190Y-4282228D02*
X24196190Y-4377466D01*
X24196190Y-4377466D02*
X24177143Y-4453657D01*
X24177143Y-4453657D02*
X24158095Y-4491752D01*
X24158095Y-4491752D02*
X24139048Y-4510800D01*
X24139048Y-4510800D02*
X24100952Y-4529847D01*
X24100952Y-4529847D02*
X24062857Y-4529847D01*
X24062857Y-4529847D02*
X24024762Y-4510800D01*
X24024762Y-4510800D02*
X24005714Y-4491752D01*
X24005714Y-4491752D02*
X23986667Y-4453657D01*
X23986667Y-4453657D02*
X23967619Y-4377466D01*
X23967619Y-4377466D02*
X23967619Y-4282228D01*
X23967619Y-4282228D02*
X23986667Y-4206038D01*
X23986667Y-4206038D02*
X24005714Y-4167942D01*
X24005714Y-4167942D02*
X24024762Y-4148895D01*
X24024762Y-4148895D02*
X24062857Y-4129847D01*
X24367619Y-4491752D02*
X24386666Y-4510800D01*
X24386666Y-4510800D02*
X24367619Y-4529847D01*
X24367619Y-4529847D02*
X24348571Y-4510800D01*
X24348571Y-4510800D02*
X24367619Y-4491752D01*
X24367619Y-4491752D02*
X24367619Y-4529847D01*
X24539047Y-4167942D02*
X24558095Y-4148895D01*
X24558095Y-4148895D02*
X24596190Y-4129847D01*
X24596190Y-4129847D02*
X24691428Y-4129847D01*
X24691428Y-4129847D02*
X24729523Y-4148895D01*
X24729523Y-4148895D02*
X24748571Y-4167942D01*
X24748571Y-4167942D02*
X24767618Y-4206038D01*
X24767618Y-4206038D02*
X24767618Y-4244133D01*
X24767618Y-4244133D02*
X24748571Y-4301276D01*
X24748571Y-4301276D02*
X24519999Y-4529847D01*
X24519999Y-4529847D02*
X24767618Y-4529847D01*
X25243809Y-4529847D02*
X25243809Y-4129847D01*
X25243809Y-4129847D02*
X25396190Y-4129847D01*
X25396190Y-4129847D02*
X25434285Y-4148895D01*
X25434285Y-4148895D02*
X25453332Y-4167942D01*
X25453332Y-4167942D02*
X25472380Y-4206038D01*
X25472380Y-4206038D02*
X25472380Y-4263180D01*
X25472380Y-4263180D02*
X25453332Y-4301276D01*
X25453332Y-4301276D02*
X25434285Y-4320323D01*
X25434285Y-4320323D02*
X25396190Y-4339371D01*
X25396190Y-4339371D02*
X25243809Y-4339371D01*
X25815237Y-4263180D02*
X25815237Y-4529847D01*
X25719999Y-4110800D02*
X25624761Y-4396514D01*
X25624761Y-4396514D02*
X25872380Y-4396514D01*
X20805715Y-12320323D02*
X20939048Y-12320323D01*
X20996191Y-12529847D02*
X20805715Y-12529847D01*
X20805715Y-12529847D02*
X20805715Y-12129847D01*
X20805715Y-12129847D02*
X20996191Y-12129847D01*
X21339048Y-12510800D02*
X21300953Y-12529847D01*
X21300953Y-12529847D02*
X21224762Y-12529847D01*
X21224762Y-12529847D02*
X21186667Y-12510800D01*
X21186667Y-12510800D02*
X21167620Y-12491752D01*
X21167620Y-12491752D02*
X21148572Y-12453657D01*
X21148572Y-12453657D02*
X21148572Y-12339371D01*
X21148572Y-12339371D02*
X21167620Y-12301276D01*
X21167620Y-12301276D02*
X21186667Y-12282228D01*
X21186667Y-12282228D02*
X21224762Y-12263180D01*
X21224762Y-12263180D02*
X21300953Y-12263180D01*
X21300953Y-12263180D02*
X21339048Y-12282228D01*
X21567619Y-12529847D02*
X21529524Y-12510800D01*
X21529524Y-12510800D02*
X21510477Y-12491752D01*
X21510477Y-12491752D02*
X21491429Y-12453657D01*
X21491429Y-12453657D02*
X21491429Y-12339371D01*
X21491429Y-12339371D02*
X21510477Y-12301276D01*
X21510477Y-12301276D02*
X21529524Y-12282228D01*
X21529524Y-12282228D02*
X21567619Y-12263180D01*
X21567619Y-12263180D02*
X21624762Y-12263180D01*
X21624762Y-12263180D02*
X21662858Y-12282228D01*
X21662858Y-12282228D02*
X21681905Y-12301276D01*
X21681905Y-12301276D02*
X21700953Y-12339371D01*
X21700953Y-12339371D02*
X21700953Y-12453657D01*
X21700953Y-12453657D02*
X21681905Y-12491752D01*
X21681905Y-12491752D02*
X21662858Y-12510800D01*
X21662858Y-12510800D02*
X21624762Y-12529847D01*
X21624762Y-12529847D02*
X21567619Y-12529847D01*
X21853334Y-12167942D02*
X21872382Y-12148895D01*
X21872382Y-12148895D02*
X21910477Y-12129847D01*
X21910477Y-12129847D02*
X22005715Y-12129847D01*
X22005715Y-12129847D02*
X22043810Y-12148895D01*
X22043810Y-12148895D02*
X22062858Y-12167942D01*
X22062858Y-12167942D02*
X22081905Y-12206038D01*
X22081905Y-12206038D02*
X22081905Y-12244133D01*
X22081905Y-12244133D02*
X22062858Y-12301276D01*
X22062858Y-12301276D02*
X21834286Y-12529847D01*
X21834286Y-12529847D02*
X22081905Y-12529847D01*
X22691429Y-12320323D02*
X22558096Y-12320323D01*
X22558096Y-12529847D02*
X22558096Y-12129847D01*
X22558096Y-12129847D02*
X22748572Y-12129847D01*
X23129524Y-12529847D02*
X22996191Y-12339371D01*
X22900953Y-12529847D02*
X22900953Y-12129847D01*
X22900953Y-12129847D02*
X23053334Y-12129847D01*
X23053334Y-12129847D02*
X23091429Y-12148895D01*
X23091429Y-12148895D02*
X23110476Y-12167942D01*
X23110476Y-12167942D02*
X23129524Y-12206038D01*
X23129524Y-12206038D02*
X23129524Y-12263180D01*
X23129524Y-12263180D02*
X23110476Y-12301276D01*
X23110476Y-12301276D02*
X23091429Y-12320323D01*
X23091429Y-12320323D02*
X23053334Y-12339371D01*
X23053334Y-12339371D02*
X22900953Y-12339371D01*
X23472381Y-12263180D02*
X23472381Y-12529847D01*
X23377143Y-12110800D02*
X23281905Y-12396514D01*
X23281905Y-12396514D02*
X23529524Y-12396514D01*
X24062857Y-12129847D02*
X24100952Y-12129847D01*
X24100952Y-12129847D02*
X24139048Y-12148895D01*
X24139048Y-12148895D02*
X24158095Y-12167942D01*
X24158095Y-12167942D02*
X24177143Y-12206038D01*
X24177143Y-12206038D02*
X24196190Y-12282228D01*
X24196190Y-12282228D02*
X24196190Y-12377466D01*
X24196190Y-12377466D02*
X24177143Y-12453657D01*
X24177143Y-12453657D02*
X24158095Y-12491752D01*
X24158095Y-12491752D02*
X24139048Y-12510800D01*
X24139048Y-12510800D02*
X24100952Y-12529847D01*
X24100952Y-12529847D02*
X24062857Y-12529847D01*
X24062857Y-12529847D02*
X24024762Y-12510800D01*
X24024762Y-12510800D02*
X24005714Y-12491752D01*
X24005714Y-12491752D02*
X23986667Y-12453657D01*
X23986667Y-12453657D02*
X23967619Y-12377466D01*
X23967619Y-12377466D02*
X23967619Y-12282228D01*
X23967619Y-12282228D02*
X23986667Y-12206038D01*
X23986667Y-12206038D02*
X24005714Y-12167942D01*
X24005714Y-12167942D02*
X24024762Y-12148895D01*
X24024762Y-12148895D02*
X24062857Y-12129847D01*
X24367619Y-12491752D02*
X24386666Y-12510800D01*
X24386666Y-12510800D02*
X24367619Y-12529847D01*
X24367619Y-12529847D02*
X24348571Y-12510800D01*
X24348571Y-12510800D02*
X24367619Y-12491752D01*
X24367619Y-12491752D02*
X24367619Y-12529847D01*
X24539047Y-12167942D02*
X24558095Y-12148895D01*
X24558095Y-12148895D02*
X24596190Y-12129847D01*
X24596190Y-12129847D02*
X24691428Y-12129847D01*
X24691428Y-12129847D02*
X24729523Y-12148895D01*
X24729523Y-12148895D02*
X24748571Y-12167942D01*
X24748571Y-12167942D02*
X24767618Y-12206038D01*
X24767618Y-12206038D02*
X24767618Y-12244133D01*
X24767618Y-12244133D02*
X24748571Y-12301276D01*
X24748571Y-12301276D02*
X24519999Y-12529847D01*
X24519999Y-12529847D02*
X24767618Y-12529847D01*
X25243809Y-12529847D02*
X25243809Y-12129847D01*
X25243809Y-12129847D02*
X25396190Y-12129847D01*
X25396190Y-12129847D02*
X25434285Y-12148895D01*
X25434285Y-12148895D02*
X25453332Y-12167942D01*
X25453332Y-12167942D02*
X25472380Y-12206038D01*
X25472380Y-12206038D02*
X25472380Y-12263180D01*
X25472380Y-12263180D02*
X25453332Y-12301276D01*
X25453332Y-12301276D02*
X25434285Y-12320323D01*
X25434285Y-12320323D02*
X25396190Y-12339371D01*
X25396190Y-12339371D02*
X25243809Y-12339371D01*
X25834285Y-12129847D02*
X25643809Y-12129847D01*
X25643809Y-12129847D02*
X25624761Y-12320323D01*
X25624761Y-12320323D02*
X25643809Y-12301276D01*
X25643809Y-12301276D02*
X25681904Y-12282228D01*
X25681904Y-12282228D02*
X25777142Y-12282228D01*
X25777142Y-12282228D02*
X25815237Y-12301276D01*
X25815237Y-12301276D02*
X25834285Y-12320323D01*
X25834285Y-12320323D02*
X25853332Y-12358419D01*
X25853332Y-12358419D02*
X25853332Y-12453657D01*
X25853332Y-12453657D02*
X25834285Y-12491752D01*
X25834285Y-12491752D02*
X25815237Y-12510800D01*
X25815237Y-12510800D02*
X25777142Y-12529847D01*
X25777142Y-12529847D02*
X25681904Y-12529847D01*
X25681904Y-12529847D02*
X25643809Y-12510800D01*
X25643809Y-12510800D02*
X25624761Y-12491752D01*
M02*
