%TF.GenerationSoftware,KiCad,Pcbnew,10.0.6*%
%TF.CreationDate,2026-09-23T10:07:27-04:00*%
%TF.ProjectId,elicio-v2,656c6963-696f-42d7-9632-2e6b69636164,rev?*%
%TF.SameCoordinates,Original*%
%TF.FileFunction,Other,ECO1*%
%FSLAX46Y46*%
G04 Gerber Fmt 4.6, Leading zero omitted, Abs format (unit mm)*
G04 Created by KiCad (PCBNEW 10.0.6) date 2026-09-23 10:07:27*
%MOMM*%
%LPD*%
G01*
G04 APERTURE LIST*
%ADD10C,0.050000*%
%ADD11C,0.100000*%
G04 APERTURE END LIST*
D10*
X2550000Y-20200000D02*
X8000000Y-20200000D01*
X8000000Y-25700000D01*
X2550000Y-25700000D01*
X2550000Y-20200000D01*
G36*
X2550000Y-20200000D02*
G01*
X8000000Y-20200000D01*
X8000000Y-25700000D01*
X2550000Y-25700000D01*
X2550000Y-20200000D01*
G37*
X8000000Y-29500000D02*
X13900000Y-29500000D01*
X13900000Y-37300000D01*
X8000000Y-37300000D01*
X8000000Y-29500000D01*
G36*
X8000000Y-29500000D02*
G01*
X13900000Y-29500000D01*
X13900000Y-37300000D01*
X8000000Y-37300000D01*
X8000000Y-29500000D01*
G37*
X17700000Y-1550000D02*
X19900000Y-1550000D01*
X19900000Y-15800000D01*
X17700000Y-15800000D01*
X17700000Y-1550000D01*
G36*
X17700000Y-1550000D02*
G01*
X19900000Y-1550000D01*
X19900000Y-15800000D01*
X17700000Y-15800000D01*
X17700000Y-1550000D01*
G37*
D11*
X1038096Y-22770323D02*
X1171429Y-22770323D01*
X1228572Y-22979847D02*
X1038096Y-22979847D01*
X1038096Y-22979847D02*
X1038096Y-22579847D01*
X1038096Y-22579847D02*
X1228572Y-22579847D01*
X1571429Y-22960800D02*
X1533334Y-22979847D01*
X1533334Y-22979847D02*
X1457143Y-22979847D01*
X1457143Y-22979847D02*
X1419048Y-22960800D01*
X1419048Y-22960800D02*
X1400001Y-22941752D01*
X1400001Y-22941752D02*
X1380953Y-22903657D01*
X1380953Y-22903657D02*
X1380953Y-22789371D01*
X1380953Y-22789371D02*
X1400001Y-22751276D01*
X1400001Y-22751276D02*
X1419048Y-22732228D01*
X1419048Y-22732228D02*
X1457143Y-22713180D01*
X1457143Y-22713180D02*
X1533334Y-22713180D01*
X1533334Y-22713180D02*
X1571429Y-22732228D01*
X1800000Y-22979847D02*
X1761905Y-22960800D01*
X1761905Y-22960800D02*
X1742858Y-22941752D01*
X1742858Y-22941752D02*
X1723810Y-22903657D01*
X1723810Y-22903657D02*
X1723810Y-22789371D01*
X1723810Y-22789371D02*
X1742858Y-22751276D01*
X1742858Y-22751276D02*
X1761905Y-22732228D01*
X1761905Y-22732228D02*
X1800000Y-22713180D01*
X1800000Y-22713180D02*
X1857143Y-22713180D01*
X1857143Y-22713180D02*
X1895239Y-22732228D01*
X1895239Y-22732228D02*
X1914286Y-22751276D01*
X1914286Y-22751276D02*
X1933334Y-22789371D01*
X1933334Y-22789371D02*
X1933334Y-22903657D01*
X1933334Y-22903657D02*
X1914286Y-22941752D01*
X1914286Y-22941752D02*
X1895239Y-22960800D01*
X1895239Y-22960800D02*
X1857143Y-22979847D01*
X1857143Y-22979847D02*
X1800000Y-22979847D01*
X2314286Y-22979847D02*
X2085715Y-22979847D01*
X2200001Y-22979847D02*
X2200001Y-22579847D01*
X2200001Y-22579847D02*
X2161905Y-22636990D01*
X2161905Y-22636990D02*
X2123810Y-22675085D01*
X2123810Y-22675085D02*
X2085715Y-22694133D01*
X2923810Y-22770323D02*
X2790477Y-22770323D01*
X2790477Y-22979847D02*
X2790477Y-22579847D01*
X2790477Y-22579847D02*
X2980953Y-22579847D01*
X3361905Y-22979847D02*
X3228572Y-22789371D01*
X3133334Y-22979847D02*
X3133334Y-22579847D01*
X3133334Y-22579847D02*
X3285715Y-22579847D01*
X3285715Y-22579847D02*
X3323810Y-22598895D01*
X3323810Y-22598895D02*
X3342857Y-22617942D01*
X3342857Y-22617942D02*
X3361905Y-22656038D01*
X3361905Y-22656038D02*
X3361905Y-22713180D01*
X3361905Y-22713180D02*
X3342857Y-22751276D01*
X3342857Y-22751276D02*
X3323810Y-22770323D01*
X3323810Y-22770323D02*
X3285715Y-22789371D01*
X3285715Y-22789371D02*
X3133334Y-22789371D01*
X3704762Y-22713180D02*
X3704762Y-22979847D01*
X3609524Y-22560800D02*
X3514286Y-22846514D01*
X3514286Y-22846514D02*
X3761905Y-22846514D01*
X4295238Y-22579847D02*
X4333333Y-22579847D01*
X4333333Y-22579847D02*
X4371429Y-22598895D01*
X4371429Y-22598895D02*
X4390476Y-22617942D01*
X4390476Y-22617942D02*
X4409524Y-22656038D01*
X4409524Y-22656038D02*
X4428571Y-22732228D01*
X4428571Y-22732228D02*
X4428571Y-22827466D01*
X4428571Y-22827466D02*
X4409524Y-22903657D01*
X4409524Y-22903657D02*
X4390476Y-22941752D01*
X4390476Y-22941752D02*
X4371429Y-22960800D01*
X4371429Y-22960800D02*
X4333333Y-22979847D01*
X4333333Y-22979847D02*
X4295238Y-22979847D01*
X4295238Y-22979847D02*
X4257143Y-22960800D01*
X4257143Y-22960800D02*
X4238095Y-22941752D01*
X4238095Y-22941752D02*
X4219048Y-22903657D01*
X4219048Y-22903657D02*
X4200000Y-22827466D01*
X4200000Y-22827466D02*
X4200000Y-22732228D01*
X4200000Y-22732228D02*
X4219048Y-22656038D01*
X4219048Y-22656038D02*
X4238095Y-22617942D01*
X4238095Y-22617942D02*
X4257143Y-22598895D01*
X4257143Y-22598895D02*
X4295238Y-22579847D01*
X4600000Y-22941752D02*
X4619047Y-22960800D01*
X4619047Y-22960800D02*
X4600000Y-22979847D01*
X4600000Y-22979847D02*
X4580952Y-22960800D01*
X4580952Y-22960800D02*
X4600000Y-22941752D01*
X4600000Y-22941752D02*
X4600000Y-22979847D01*
X4961904Y-22713180D02*
X4961904Y-22979847D01*
X4866666Y-22560800D02*
X4771428Y-22846514D01*
X4771428Y-22846514D02*
X5019047Y-22846514D01*
X5476190Y-22579847D02*
X5476190Y-22903657D01*
X5476190Y-22903657D02*
X5495237Y-22941752D01*
X5495237Y-22941752D02*
X5514285Y-22960800D01*
X5514285Y-22960800D02*
X5552380Y-22979847D01*
X5552380Y-22979847D02*
X5628571Y-22979847D01*
X5628571Y-22979847D02*
X5666666Y-22960800D01*
X5666666Y-22960800D02*
X5685713Y-22941752D01*
X5685713Y-22941752D02*
X5704761Y-22903657D01*
X5704761Y-22903657D02*
X5704761Y-22579847D01*
X6104761Y-22979847D02*
X5876190Y-22979847D01*
X5990476Y-22979847D02*
X5990476Y-22579847D01*
X5990476Y-22579847D02*
X5952380Y-22636990D01*
X5952380Y-22636990D02*
X5914285Y-22675085D01*
X5914285Y-22675085D02*
X5876190Y-22694133D01*
X6542856Y-22713180D02*
X6619047Y-22979847D01*
X6619047Y-22979847D02*
X6695237Y-22789371D01*
X6695237Y-22789371D02*
X6771428Y-22979847D01*
X6771428Y-22979847D02*
X6847618Y-22713180D01*
X7152381Y-22960800D02*
X7114285Y-22979847D01*
X7114285Y-22979847D02*
X7038095Y-22979847D01*
X7038095Y-22979847D02*
X7000000Y-22960800D01*
X7000000Y-22960800D02*
X6980952Y-22922704D01*
X6980952Y-22922704D02*
X6980952Y-22770323D01*
X6980952Y-22770323D02*
X7000000Y-22732228D01*
X7000000Y-22732228D02*
X7038095Y-22713180D01*
X7038095Y-22713180D02*
X7114285Y-22713180D01*
X7114285Y-22713180D02*
X7152381Y-22732228D01*
X7152381Y-22732228D02*
X7171428Y-22770323D01*
X7171428Y-22770323D02*
X7171428Y-22808419D01*
X7171428Y-22808419D02*
X6980952Y-22846514D01*
X7323809Y-22960800D02*
X7361904Y-22979847D01*
X7361904Y-22979847D02*
X7438095Y-22979847D01*
X7438095Y-22979847D02*
X7476190Y-22960800D01*
X7476190Y-22960800D02*
X7495238Y-22922704D01*
X7495238Y-22922704D02*
X7495238Y-22903657D01*
X7495238Y-22903657D02*
X7476190Y-22865561D01*
X7476190Y-22865561D02*
X7438095Y-22846514D01*
X7438095Y-22846514D02*
X7380952Y-22846514D01*
X7380952Y-22846514D02*
X7342857Y-22827466D01*
X7342857Y-22827466D02*
X7323809Y-22789371D01*
X7323809Y-22789371D02*
X7323809Y-22770323D01*
X7323809Y-22770323D02*
X7342857Y-22732228D01*
X7342857Y-22732228D02*
X7380952Y-22713180D01*
X7380952Y-22713180D02*
X7438095Y-22713180D01*
X7438095Y-22713180D02*
X7476190Y-22732228D01*
X7609524Y-22713180D02*
X7761905Y-22713180D01*
X7666667Y-22579847D02*
X7666667Y-22922704D01*
X7666667Y-22922704D02*
X7685714Y-22960800D01*
X7685714Y-22960800D02*
X7723809Y-22979847D01*
X7723809Y-22979847D02*
X7761905Y-22979847D01*
X8333333Y-22770323D02*
X8390476Y-22789371D01*
X8390476Y-22789371D02*
X8409523Y-22808419D01*
X8409523Y-22808419D02*
X8428571Y-22846514D01*
X8428571Y-22846514D02*
X8428571Y-22903657D01*
X8428571Y-22903657D02*
X8409523Y-22941752D01*
X8409523Y-22941752D02*
X8390476Y-22960800D01*
X8390476Y-22960800D02*
X8352381Y-22979847D01*
X8352381Y-22979847D02*
X8200000Y-22979847D01*
X8200000Y-22979847D02*
X8200000Y-22579847D01*
X8200000Y-22579847D02*
X8333333Y-22579847D01*
X8333333Y-22579847D02*
X8371428Y-22598895D01*
X8371428Y-22598895D02*
X8390476Y-22617942D01*
X8390476Y-22617942D02*
X8409523Y-22656038D01*
X8409523Y-22656038D02*
X8409523Y-22694133D01*
X8409523Y-22694133D02*
X8390476Y-22732228D01*
X8390476Y-22732228D02*
X8371428Y-22751276D01*
X8371428Y-22751276D02*
X8333333Y-22770323D01*
X8333333Y-22770323D02*
X8200000Y-22770323D01*
X8600000Y-22941752D02*
X8619047Y-22960800D01*
X8619047Y-22960800D02*
X8600000Y-22979847D01*
X8600000Y-22979847D02*
X8580952Y-22960800D01*
X8580952Y-22960800D02*
X8600000Y-22941752D01*
X8600000Y-22941752D02*
X8600000Y-22979847D01*
X9019047Y-22941752D02*
X8999999Y-22960800D01*
X8999999Y-22960800D02*
X8942857Y-22979847D01*
X8942857Y-22979847D02*
X8904761Y-22979847D01*
X8904761Y-22979847D02*
X8847618Y-22960800D01*
X8847618Y-22960800D02*
X8809523Y-22922704D01*
X8809523Y-22922704D02*
X8790476Y-22884609D01*
X8790476Y-22884609D02*
X8771428Y-22808419D01*
X8771428Y-22808419D02*
X8771428Y-22751276D01*
X8771428Y-22751276D02*
X8790476Y-22675085D01*
X8790476Y-22675085D02*
X8809523Y-22636990D01*
X8809523Y-22636990D02*
X8847618Y-22598895D01*
X8847618Y-22598895D02*
X8904761Y-22579847D01*
X8904761Y-22579847D02*
X8942857Y-22579847D01*
X8942857Y-22579847D02*
X8999999Y-22598895D01*
X8999999Y-22598895D02*
X9019047Y-22617942D01*
X9361904Y-22713180D02*
X9361904Y-22979847D01*
X9190476Y-22713180D02*
X9190476Y-22922704D01*
X9190476Y-22922704D02*
X9209523Y-22960800D01*
X9209523Y-22960800D02*
X9247618Y-22979847D01*
X9247618Y-22979847D02*
X9304761Y-22979847D01*
X9304761Y-22979847D02*
X9342857Y-22960800D01*
X9342857Y-22960800D02*
X9361904Y-22941752D01*
X6923810Y-33370323D02*
X7057143Y-33370323D01*
X7114286Y-33579847D02*
X6923810Y-33579847D01*
X6923810Y-33579847D02*
X6923810Y-33179847D01*
X6923810Y-33179847D02*
X7114286Y-33179847D01*
X7457143Y-33560800D02*
X7419048Y-33579847D01*
X7419048Y-33579847D02*
X7342857Y-33579847D01*
X7342857Y-33579847D02*
X7304762Y-33560800D01*
X7304762Y-33560800D02*
X7285715Y-33541752D01*
X7285715Y-33541752D02*
X7266667Y-33503657D01*
X7266667Y-33503657D02*
X7266667Y-33389371D01*
X7266667Y-33389371D02*
X7285715Y-33351276D01*
X7285715Y-33351276D02*
X7304762Y-33332228D01*
X7304762Y-33332228D02*
X7342857Y-33313180D01*
X7342857Y-33313180D02*
X7419048Y-33313180D01*
X7419048Y-33313180D02*
X7457143Y-33332228D01*
X7685714Y-33579847D02*
X7647619Y-33560800D01*
X7647619Y-33560800D02*
X7628572Y-33541752D01*
X7628572Y-33541752D02*
X7609524Y-33503657D01*
X7609524Y-33503657D02*
X7609524Y-33389371D01*
X7609524Y-33389371D02*
X7628572Y-33351276D01*
X7628572Y-33351276D02*
X7647619Y-33332228D01*
X7647619Y-33332228D02*
X7685714Y-33313180D01*
X7685714Y-33313180D02*
X7742857Y-33313180D01*
X7742857Y-33313180D02*
X7780953Y-33332228D01*
X7780953Y-33332228D02*
X7800000Y-33351276D01*
X7800000Y-33351276D02*
X7819048Y-33389371D01*
X7819048Y-33389371D02*
X7819048Y-33503657D01*
X7819048Y-33503657D02*
X7800000Y-33541752D01*
X7800000Y-33541752D02*
X7780953Y-33560800D01*
X7780953Y-33560800D02*
X7742857Y-33579847D01*
X7742857Y-33579847D02*
X7685714Y-33579847D01*
X8200000Y-33579847D02*
X7971429Y-33579847D01*
X8085715Y-33579847D02*
X8085715Y-33179847D01*
X8085715Y-33179847D02*
X8047619Y-33236990D01*
X8047619Y-33236990D02*
X8009524Y-33275085D01*
X8009524Y-33275085D02*
X7971429Y-33294133D01*
X8809524Y-33370323D02*
X8676191Y-33370323D01*
X8676191Y-33579847D02*
X8676191Y-33179847D01*
X8676191Y-33179847D02*
X8866667Y-33179847D01*
X9247619Y-33579847D02*
X9114286Y-33389371D01*
X9019048Y-33579847D02*
X9019048Y-33179847D01*
X9019048Y-33179847D02*
X9171429Y-33179847D01*
X9171429Y-33179847D02*
X9209524Y-33198895D01*
X9209524Y-33198895D02*
X9228571Y-33217942D01*
X9228571Y-33217942D02*
X9247619Y-33256038D01*
X9247619Y-33256038D02*
X9247619Y-33313180D01*
X9247619Y-33313180D02*
X9228571Y-33351276D01*
X9228571Y-33351276D02*
X9209524Y-33370323D01*
X9209524Y-33370323D02*
X9171429Y-33389371D01*
X9171429Y-33389371D02*
X9019048Y-33389371D01*
X9590476Y-33313180D02*
X9590476Y-33579847D01*
X9495238Y-33160800D02*
X9400000Y-33446514D01*
X9400000Y-33446514D02*
X9647619Y-33446514D01*
X10180952Y-33179847D02*
X10219047Y-33179847D01*
X10219047Y-33179847D02*
X10257143Y-33198895D01*
X10257143Y-33198895D02*
X10276190Y-33217942D01*
X10276190Y-33217942D02*
X10295238Y-33256038D01*
X10295238Y-33256038D02*
X10314285Y-33332228D01*
X10314285Y-33332228D02*
X10314285Y-33427466D01*
X10314285Y-33427466D02*
X10295238Y-33503657D01*
X10295238Y-33503657D02*
X10276190Y-33541752D01*
X10276190Y-33541752D02*
X10257143Y-33560800D01*
X10257143Y-33560800D02*
X10219047Y-33579847D01*
X10219047Y-33579847D02*
X10180952Y-33579847D01*
X10180952Y-33579847D02*
X10142857Y-33560800D01*
X10142857Y-33560800D02*
X10123809Y-33541752D01*
X10123809Y-33541752D02*
X10104762Y-33503657D01*
X10104762Y-33503657D02*
X10085714Y-33427466D01*
X10085714Y-33427466D02*
X10085714Y-33332228D01*
X10085714Y-33332228D02*
X10104762Y-33256038D01*
X10104762Y-33256038D02*
X10123809Y-33217942D01*
X10123809Y-33217942D02*
X10142857Y-33198895D01*
X10142857Y-33198895D02*
X10180952Y-33179847D01*
X10485714Y-33541752D02*
X10504761Y-33560800D01*
X10504761Y-33560800D02*
X10485714Y-33579847D01*
X10485714Y-33579847D02*
X10466666Y-33560800D01*
X10466666Y-33560800D02*
X10485714Y-33541752D01*
X10485714Y-33541752D02*
X10485714Y-33579847D01*
X10847618Y-33313180D02*
X10847618Y-33579847D01*
X10752380Y-33160800D02*
X10657142Y-33446514D01*
X10657142Y-33446514D02*
X10904761Y-33446514D01*
X11361904Y-33179847D02*
X11361904Y-33503657D01*
X11361904Y-33503657D02*
X11380951Y-33541752D01*
X11380951Y-33541752D02*
X11399999Y-33560800D01*
X11399999Y-33560800D02*
X11438094Y-33579847D01*
X11438094Y-33579847D02*
X11514285Y-33579847D01*
X11514285Y-33579847D02*
X11552380Y-33560800D01*
X11552380Y-33560800D02*
X11571427Y-33541752D01*
X11571427Y-33541752D02*
X11590475Y-33503657D01*
X11590475Y-33503657D02*
X11590475Y-33179847D01*
X11990475Y-33579847D02*
X11761904Y-33579847D01*
X11876190Y-33579847D02*
X11876190Y-33179847D01*
X11876190Y-33179847D02*
X11838094Y-33236990D01*
X11838094Y-33236990D02*
X11799999Y-33275085D01*
X11799999Y-33275085D02*
X11761904Y-33294133D01*
X12695237Y-33579847D02*
X12561904Y-33389371D01*
X12466666Y-33579847D02*
X12466666Y-33179847D01*
X12466666Y-33179847D02*
X12619047Y-33179847D01*
X12619047Y-33179847D02*
X12657142Y-33198895D01*
X12657142Y-33198895D02*
X12676189Y-33217942D01*
X12676189Y-33217942D02*
X12695237Y-33256038D01*
X12695237Y-33256038D02*
X12695237Y-33313180D01*
X12695237Y-33313180D02*
X12676189Y-33351276D01*
X12676189Y-33351276D02*
X12657142Y-33370323D01*
X12657142Y-33370323D02*
X12619047Y-33389371D01*
X12619047Y-33389371D02*
X12466666Y-33389371D01*
X12999999Y-33370323D02*
X12866666Y-33370323D01*
X12866666Y-33579847D02*
X12866666Y-33179847D01*
X12866666Y-33179847D02*
X13057142Y-33179847D01*
X13647618Y-33370323D02*
X13704761Y-33389371D01*
X13704761Y-33389371D02*
X13723808Y-33408419D01*
X13723808Y-33408419D02*
X13742856Y-33446514D01*
X13742856Y-33446514D02*
X13742856Y-33503657D01*
X13742856Y-33503657D02*
X13723808Y-33541752D01*
X13723808Y-33541752D02*
X13704761Y-33560800D01*
X13704761Y-33560800D02*
X13666666Y-33579847D01*
X13666666Y-33579847D02*
X13514285Y-33579847D01*
X13514285Y-33579847D02*
X13514285Y-33179847D01*
X13514285Y-33179847D02*
X13647618Y-33179847D01*
X13647618Y-33179847D02*
X13685713Y-33198895D01*
X13685713Y-33198895D02*
X13704761Y-33217942D01*
X13704761Y-33217942D02*
X13723808Y-33256038D01*
X13723808Y-33256038D02*
X13723808Y-33294133D01*
X13723808Y-33294133D02*
X13704761Y-33332228D01*
X13704761Y-33332228D02*
X13685713Y-33351276D01*
X13685713Y-33351276D02*
X13647618Y-33370323D01*
X13647618Y-33370323D02*
X13514285Y-33370323D01*
X13914285Y-33541752D02*
X13933332Y-33560800D01*
X13933332Y-33560800D02*
X13914285Y-33579847D01*
X13914285Y-33579847D02*
X13895237Y-33560800D01*
X13895237Y-33560800D02*
X13914285Y-33541752D01*
X13914285Y-33541752D02*
X13914285Y-33579847D01*
X14333332Y-33541752D02*
X14314284Y-33560800D01*
X14314284Y-33560800D02*
X14257142Y-33579847D01*
X14257142Y-33579847D02*
X14219046Y-33579847D01*
X14219046Y-33579847D02*
X14161903Y-33560800D01*
X14161903Y-33560800D02*
X14123808Y-33522704D01*
X14123808Y-33522704D02*
X14104761Y-33484609D01*
X14104761Y-33484609D02*
X14085713Y-33408419D01*
X14085713Y-33408419D02*
X14085713Y-33351276D01*
X14085713Y-33351276D02*
X14104761Y-33275085D01*
X14104761Y-33275085D02*
X14123808Y-33236990D01*
X14123808Y-33236990D02*
X14161903Y-33198895D01*
X14161903Y-33198895D02*
X14219046Y-33179847D01*
X14219046Y-33179847D02*
X14257142Y-33179847D01*
X14257142Y-33179847D02*
X14314284Y-33198895D01*
X14314284Y-33198895D02*
X14333332Y-33217942D01*
X14676189Y-33313180D02*
X14676189Y-33579847D01*
X14504761Y-33313180D02*
X14504761Y-33522704D01*
X14504761Y-33522704D02*
X14523808Y-33560800D01*
X14523808Y-33560800D02*
X14561903Y-33579847D01*
X14561903Y-33579847D02*
X14619046Y-33579847D01*
X14619046Y-33579847D02*
X14657142Y-33560800D01*
X14657142Y-33560800D02*
X14676189Y-33541752D01*
X2314287Y-37117942D02*
X2276192Y-37098895D01*
X2276192Y-37098895D02*
X2238097Y-37060800D01*
X2238097Y-37060800D02*
X2180954Y-37003657D01*
X2180954Y-37003657D02*
X2142859Y-36984609D01*
X2142859Y-36984609D02*
X2104763Y-36984609D01*
X2123811Y-37079847D02*
X2085716Y-37060800D01*
X2085716Y-37060800D02*
X2047621Y-37022704D01*
X2047621Y-37022704D02*
X2028573Y-36946514D01*
X2028573Y-36946514D02*
X2028573Y-36813180D01*
X2028573Y-36813180D02*
X2047621Y-36736990D01*
X2047621Y-36736990D02*
X2085716Y-36698895D01*
X2085716Y-36698895D02*
X2123811Y-36679847D01*
X2123811Y-36679847D02*
X2200002Y-36679847D01*
X2200002Y-36679847D02*
X2238097Y-36698895D01*
X2238097Y-36698895D02*
X2276192Y-36736990D01*
X2276192Y-36736990D02*
X2295240Y-36813180D01*
X2295240Y-36813180D02*
X2295240Y-36946514D01*
X2295240Y-36946514D02*
X2276192Y-37022704D01*
X2276192Y-37022704D02*
X2238097Y-37060800D01*
X2238097Y-37060800D02*
X2200002Y-37079847D01*
X2200002Y-37079847D02*
X2123811Y-37079847D01*
X2485716Y-37079847D02*
X2561907Y-37079847D01*
X2561907Y-37079847D02*
X2600002Y-37060800D01*
X2600002Y-37060800D02*
X2619050Y-37041752D01*
X2619050Y-37041752D02*
X2657145Y-36984609D01*
X2657145Y-36984609D02*
X2676192Y-36908419D01*
X2676192Y-36908419D02*
X2676192Y-36756038D01*
X2676192Y-36756038D02*
X2657145Y-36717942D01*
X2657145Y-36717942D02*
X2638097Y-36698895D01*
X2638097Y-36698895D02*
X2600002Y-36679847D01*
X2600002Y-36679847D02*
X2523811Y-36679847D01*
X2523811Y-36679847D02*
X2485716Y-36698895D01*
X2485716Y-36698895D02*
X2466669Y-36717942D01*
X2466669Y-36717942D02*
X2447621Y-36756038D01*
X2447621Y-36756038D02*
X2447621Y-36851276D01*
X2447621Y-36851276D02*
X2466669Y-36889371D01*
X2466669Y-36889371D02*
X2485716Y-36908419D01*
X2485716Y-36908419D02*
X2523811Y-36927466D01*
X2523811Y-36927466D02*
X2600002Y-36927466D01*
X2600002Y-36927466D02*
X2638097Y-36908419D01*
X2638097Y-36908419D02*
X2657145Y-36889371D01*
X2657145Y-36889371D02*
X2676192Y-36851276D01*
X3019049Y-36813180D02*
X3019049Y-37079847D01*
X2923811Y-36660800D02*
X2828573Y-36946514D01*
X2828573Y-36946514D02*
X3076192Y-36946514D01*
X3514287Y-37060800D02*
X3552382Y-37079847D01*
X3552382Y-37079847D02*
X3628573Y-37079847D01*
X3628573Y-37079847D02*
X3666668Y-37060800D01*
X3666668Y-37060800D02*
X3685716Y-37022704D01*
X3685716Y-37022704D02*
X3685716Y-37003657D01*
X3685716Y-37003657D02*
X3666668Y-36965561D01*
X3666668Y-36965561D02*
X3628573Y-36946514D01*
X3628573Y-36946514D02*
X3571430Y-36946514D01*
X3571430Y-36946514D02*
X3533335Y-36927466D01*
X3533335Y-36927466D02*
X3514287Y-36889371D01*
X3514287Y-36889371D02*
X3514287Y-36870323D01*
X3514287Y-36870323D02*
X3533335Y-36832228D01*
X3533335Y-36832228D02*
X3571430Y-36813180D01*
X3571430Y-36813180D02*
X3628573Y-36813180D01*
X3628573Y-36813180D02*
X3666668Y-36832228D01*
X3800002Y-36813180D02*
X3952383Y-36813180D01*
X3857145Y-36679847D02*
X3857145Y-37022704D01*
X3857145Y-37022704D02*
X3876192Y-37060800D01*
X3876192Y-37060800D02*
X3914287Y-37079847D01*
X3914287Y-37079847D02*
X3952383Y-37079847D01*
X4085716Y-37079847D02*
X4085716Y-36813180D01*
X4085716Y-36679847D02*
X4066668Y-36698895D01*
X4066668Y-36698895D02*
X4085716Y-36717942D01*
X4085716Y-36717942D02*
X4104763Y-36698895D01*
X4104763Y-36698895D02*
X4085716Y-36679847D01*
X4085716Y-36679847D02*
X4085716Y-36717942D01*
X4219049Y-36813180D02*
X4371430Y-36813180D01*
X4276192Y-37079847D02*
X4276192Y-36736990D01*
X4276192Y-36736990D02*
X4295239Y-36698895D01*
X4295239Y-36698895D02*
X4333334Y-36679847D01*
X4333334Y-36679847D02*
X4371430Y-36679847D01*
X4447620Y-36813180D02*
X4600001Y-36813180D01*
X4504763Y-37079847D02*
X4504763Y-36736990D01*
X4504763Y-36736990D02*
X4523810Y-36698895D01*
X4523810Y-36698895D02*
X4561905Y-36679847D01*
X4561905Y-36679847D02*
X4600001Y-36679847D01*
X4885715Y-37060800D02*
X4847619Y-37079847D01*
X4847619Y-37079847D02*
X4771429Y-37079847D01*
X4771429Y-37079847D02*
X4733334Y-37060800D01*
X4733334Y-37060800D02*
X4714286Y-37022704D01*
X4714286Y-37022704D02*
X4714286Y-36870323D01*
X4714286Y-36870323D02*
X4733334Y-36832228D01*
X4733334Y-36832228D02*
X4771429Y-36813180D01*
X4771429Y-36813180D02*
X4847619Y-36813180D01*
X4847619Y-36813180D02*
X4885715Y-36832228D01*
X4885715Y-36832228D02*
X4904762Y-36870323D01*
X4904762Y-36870323D02*
X4904762Y-36908419D01*
X4904762Y-36908419D02*
X4714286Y-36946514D01*
X5076191Y-36813180D02*
X5076191Y-37079847D01*
X5076191Y-36851276D02*
X5095238Y-36832228D01*
X5095238Y-36832228D02*
X5133333Y-36813180D01*
X5133333Y-36813180D02*
X5190476Y-36813180D01*
X5190476Y-36813180D02*
X5228572Y-36832228D01*
X5228572Y-36832228D02*
X5247619Y-36870323D01*
X5247619Y-36870323D02*
X5247619Y-37079847D01*
X5590477Y-37060800D02*
X5552381Y-37079847D01*
X5552381Y-37079847D02*
X5476191Y-37079847D01*
X5476191Y-37079847D02*
X5438096Y-37060800D01*
X5438096Y-37060800D02*
X5419048Y-37022704D01*
X5419048Y-37022704D02*
X5419048Y-36870323D01*
X5419048Y-36870323D02*
X5438096Y-36832228D01*
X5438096Y-36832228D02*
X5476191Y-36813180D01*
X5476191Y-36813180D02*
X5552381Y-36813180D01*
X5552381Y-36813180D02*
X5590477Y-36832228D01*
X5590477Y-36832228D02*
X5609524Y-36870323D01*
X5609524Y-36870323D02*
X5609524Y-36908419D01*
X5609524Y-36908419D02*
X5419048Y-36946514D01*
X5780953Y-37079847D02*
X5780953Y-36813180D01*
X5780953Y-36889371D02*
X5800000Y-36851276D01*
X5800000Y-36851276D02*
X5819048Y-36832228D01*
X5819048Y-36832228D02*
X5857143Y-36813180D01*
X5857143Y-36813180D02*
X5895238Y-36813180D01*
X6009524Y-37060800D02*
X6047619Y-37079847D01*
X6047619Y-37079847D02*
X6123810Y-37079847D01*
X6123810Y-37079847D02*
X6161905Y-37060800D01*
X6161905Y-37060800D02*
X6180953Y-37022704D01*
X6180953Y-37022704D02*
X6180953Y-37003657D01*
X6180953Y-37003657D02*
X6161905Y-36965561D01*
X6161905Y-36965561D02*
X6123810Y-36946514D01*
X6123810Y-36946514D02*
X6066667Y-36946514D01*
X6066667Y-36946514D02*
X6028572Y-36927466D01*
X6028572Y-36927466D02*
X6009524Y-36889371D01*
X6009524Y-36889371D02*
X6009524Y-36870323D01*
X6009524Y-36870323D02*
X6028572Y-36832228D01*
X6028572Y-36832228D02*
X6066667Y-36813180D01*
X6066667Y-36813180D02*
X6123810Y-36813180D01*
X6123810Y-36813180D02*
X6161905Y-36832228D01*
X6676191Y-37079847D02*
X6752382Y-37079847D01*
X6752382Y-37079847D02*
X6790477Y-37060800D01*
X6790477Y-37060800D02*
X6809525Y-37041752D01*
X6809525Y-37041752D02*
X6847620Y-36984609D01*
X6847620Y-36984609D02*
X6866667Y-36908419D01*
X6866667Y-36908419D02*
X6866667Y-36756038D01*
X6866667Y-36756038D02*
X6847620Y-36717942D01*
X6847620Y-36717942D02*
X6828572Y-36698895D01*
X6828572Y-36698895D02*
X6790477Y-36679847D01*
X6790477Y-36679847D02*
X6714286Y-36679847D01*
X6714286Y-36679847D02*
X6676191Y-36698895D01*
X6676191Y-36698895D02*
X6657144Y-36717942D01*
X6657144Y-36717942D02*
X6638096Y-36756038D01*
X6638096Y-36756038D02*
X6638096Y-36851276D01*
X6638096Y-36851276D02*
X6657144Y-36889371D01*
X6657144Y-36889371D02*
X6676191Y-36908419D01*
X6676191Y-36908419D02*
X6714286Y-36927466D01*
X6714286Y-36927466D02*
X6790477Y-36927466D01*
X6790477Y-36927466D02*
X6828572Y-36908419D01*
X6828572Y-36908419D02*
X6847620Y-36889371D01*
X6847620Y-36889371D02*
X6866667Y-36851276D01*
X7342858Y-36813180D02*
X7342858Y-37213180D01*
X7342858Y-36832228D02*
X7380953Y-36813180D01*
X7380953Y-36813180D02*
X7457143Y-36813180D01*
X7457143Y-36813180D02*
X7495239Y-36832228D01*
X7495239Y-36832228D02*
X7514286Y-36851276D01*
X7514286Y-36851276D02*
X7533334Y-36889371D01*
X7533334Y-36889371D02*
X7533334Y-37003657D01*
X7533334Y-37003657D02*
X7514286Y-37041752D01*
X7514286Y-37041752D02*
X7495239Y-37060800D01*
X7495239Y-37060800D02*
X7457143Y-37079847D01*
X7457143Y-37079847D02*
X7380953Y-37079847D01*
X7380953Y-37079847D02*
X7342858Y-37060800D01*
X7876191Y-37060800D02*
X7838096Y-37079847D01*
X7838096Y-37079847D02*
X7761905Y-37079847D01*
X7761905Y-37079847D02*
X7723810Y-37060800D01*
X7723810Y-37060800D02*
X7704763Y-37041752D01*
X7704763Y-37041752D02*
X7685715Y-37003657D01*
X7685715Y-37003657D02*
X7685715Y-36889371D01*
X7685715Y-36889371D02*
X7704763Y-36851276D01*
X7704763Y-36851276D02*
X7723810Y-36832228D01*
X7723810Y-36832228D02*
X7761905Y-36813180D01*
X7761905Y-36813180D02*
X7838096Y-36813180D01*
X7838096Y-36813180D02*
X7876191Y-36832228D01*
X8028572Y-37060800D02*
X8066667Y-37079847D01*
X8066667Y-37079847D02*
X8142858Y-37079847D01*
X8142858Y-37079847D02*
X8180953Y-37060800D01*
X8180953Y-37060800D02*
X8200001Y-37022704D01*
X8200001Y-37022704D02*
X8200001Y-37003657D01*
X8200001Y-37003657D02*
X8180953Y-36965561D01*
X8180953Y-36965561D02*
X8142858Y-36946514D01*
X8142858Y-36946514D02*
X8085715Y-36946514D01*
X8085715Y-36946514D02*
X8047620Y-36927466D01*
X8047620Y-36927466D02*
X8028572Y-36889371D01*
X8028572Y-36889371D02*
X8028572Y-36870323D01*
X8028572Y-36870323D02*
X8047620Y-36832228D01*
X8047620Y-36832228D02*
X8085715Y-36813180D01*
X8085715Y-36813180D02*
X8142858Y-36813180D01*
X8142858Y-36813180D02*
X8180953Y-36832228D01*
X8790477Y-37232228D02*
X8771430Y-37213180D01*
X8771430Y-37213180D02*
X8733334Y-37156038D01*
X8733334Y-37156038D02*
X8714287Y-37117942D01*
X8714287Y-37117942D02*
X8695239Y-37060800D01*
X8695239Y-37060800D02*
X8676192Y-36965561D01*
X8676192Y-36965561D02*
X8676192Y-36889371D01*
X8676192Y-36889371D02*
X8695239Y-36794133D01*
X8695239Y-36794133D02*
X8714287Y-36736990D01*
X8714287Y-36736990D02*
X8733334Y-36698895D01*
X8733334Y-36698895D02*
X8771430Y-36641752D01*
X8771430Y-36641752D02*
X8790477Y-36622704D01*
X8904763Y-36679847D02*
X9152382Y-36679847D01*
X9152382Y-36679847D02*
X9019049Y-36832228D01*
X9019049Y-36832228D02*
X9076192Y-36832228D01*
X9076192Y-36832228D02*
X9114287Y-36851276D01*
X9114287Y-36851276D02*
X9133335Y-36870323D01*
X9133335Y-36870323D02*
X9152382Y-36908419D01*
X9152382Y-36908419D02*
X9152382Y-37003657D01*
X9152382Y-37003657D02*
X9133335Y-37041752D01*
X9133335Y-37041752D02*
X9114287Y-37060800D01*
X9114287Y-37060800D02*
X9076192Y-37079847D01*
X9076192Y-37079847D02*
X8961906Y-37079847D01*
X8961906Y-37079847D02*
X8923811Y-37060800D01*
X8923811Y-37060800D02*
X8904763Y-37041752D01*
X9285715Y-37079847D02*
X9495239Y-36813180D01*
X9285715Y-36813180D02*
X9495239Y-37079847D01*
X9780954Y-36870323D02*
X9647621Y-36870323D01*
X9647621Y-37079847D02*
X9647621Y-36679847D01*
X9647621Y-36679847D02*
X9838097Y-36679847D01*
X10219049Y-37079847D02*
X10085716Y-36889371D01*
X9990478Y-37079847D02*
X9990478Y-36679847D01*
X9990478Y-36679847D02*
X10142859Y-36679847D01*
X10142859Y-36679847D02*
X10180954Y-36698895D01*
X10180954Y-36698895D02*
X10200001Y-36717942D01*
X10200001Y-36717942D02*
X10219049Y-36756038D01*
X10219049Y-36756038D02*
X10219049Y-36813180D01*
X10219049Y-36813180D02*
X10200001Y-36851276D01*
X10200001Y-36851276D02*
X10180954Y-36870323D01*
X10180954Y-36870323D02*
X10142859Y-36889371D01*
X10142859Y-36889371D02*
X9990478Y-36889371D01*
X10561906Y-36813180D02*
X10561906Y-37079847D01*
X10466668Y-36660800D02*
X10371430Y-36946514D01*
X10371430Y-36946514D02*
X10619049Y-36946514D01*
X11152382Y-36679847D02*
X11190477Y-36679847D01*
X11190477Y-36679847D02*
X11228573Y-36698895D01*
X11228573Y-36698895D02*
X11247620Y-36717942D01*
X11247620Y-36717942D02*
X11266668Y-36756038D01*
X11266668Y-36756038D02*
X11285715Y-36832228D01*
X11285715Y-36832228D02*
X11285715Y-36927466D01*
X11285715Y-36927466D02*
X11266668Y-37003657D01*
X11266668Y-37003657D02*
X11247620Y-37041752D01*
X11247620Y-37041752D02*
X11228573Y-37060800D01*
X11228573Y-37060800D02*
X11190477Y-37079847D01*
X11190477Y-37079847D02*
X11152382Y-37079847D01*
X11152382Y-37079847D02*
X11114287Y-37060800D01*
X11114287Y-37060800D02*
X11095239Y-37041752D01*
X11095239Y-37041752D02*
X11076192Y-37003657D01*
X11076192Y-37003657D02*
X11057144Y-36927466D01*
X11057144Y-36927466D02*
X11057144Y-36832228D01*
X11057144Y-36832228D02*
X11076192Y-36756038D01*
X11076192Y-36756038D02*
X11095239Y-36717942D01*
X11095239Y-36717942D02*
X11114287Y-36698895D01*
X11114287Y-36698895D02*
X11152382Y-36679847D01*
X11457144Y-37041752D02*
X11476191Y-37060800D01*
X11476191Y-37060800D02*
X11457144Y-37079847D01*
X11457144Y-37079847D02*
X11438096Y-37060800D01*
X11438096Y-37060800D02*
X11457144Y-37041752D01*
X11457144Y-37041752D02*
X11457144Y-37079847D01*
X11819048Y-36813180D02*
X11819048Y-37079847D01*
X11723810Y-36660800D02*
X11628572Y-36946514D01*
X11628572Y-36946514D02*
X11876191Y-36946514D01*
X12333334Y-36927466D02*
X12638096Y-36927466D01*
X12485715Y-37079847D02*
X12485715Y-36775085D01*
X13342857Y-37079847D02*
X13114286Y-37079847D01*
X13228572Y-37079847D02*
X13228572Y-36679847D01*
X13228572Y-36679847D02*
X13190476Y-36736990D01*
X13190476Y-36736990D02*
X13152381Y-36775085D01*
X13152381Y-36775085D02*
X13114286Y-36794133D01*
X13476190Y-37079847D02*
X13685714Y-36813180D01*
X13476190Y-36813180D02*
X13685714Y-37079847D01*
X13838096Y-37079847D02*
X13838096Y-36679847D01*
X13838096Y-36679847D02*
X13990477Y-36679847D01*
X13990477Y-36679847D02*
X14028572Y-36698895D01*
X14028572Y-36698895D02*
X14047619Y-36717942D01*
X14047619Y-36717942D02*
X14066667Y-36756038D01*
X14066667Y-36756038D02*
X14066667Y-36813180D01*
X14066667Y-36813180D02*
X14047619Y-36851276D01*
X14047619Y-36851276D02*
X14028572Y-36870323D01*
X14028572Y-36870323D02*
X13990477Y-36889371D01*
X13990477Y-36889371D02*
X13838096Y-36889371D01*
X14238096Y-37079847D02*
X14238096Y-36679847D01*
X14809524Y-36679847D02*
X14847619Y-36679847D01*
X14847619Y-36679847D02*
X14885715Y-36698895D01*
X14885715Y-36698895D02*
X14904762Y-36717942D01*
X14904762Y-36717942D02*
X14923810Y-36756038D01*
X14923810Y-36756038D02*
X14942857Y-36832228D01*
X14942857Y-36832228D02*
X14942857Y-36927466D01*
X14942857Y-36927466D02*
X14923810Y-37003657D01*
X14923810Y-37003657D02*
X14904762Y-37041752D01*
X14904762Y-37041752D02*
X14885715Y-37060800D01*
X14885715Y-37060800D02*
X14847619Y-37079847D01*
X14847619Y-37079847D02*
X14809524Y-37079847D01*
X14809524Y-37079847D02*
X14771429Y-37060800D01*
X14771429Y-37060800D02*
X14752381Y-37041752D01*
X14752381Y-37041752D02*
X14733334Y-37003657D01*
X14733334Y-37003657D02*
X14714286Y-36927466D01*
X14714286Y-36927466D02*
X14714286Y-36832228D01*
X14714286Y-36832228D02*
X14733334Y-36756038D01*
X14733334Y-36756038D02*
X14752381Y-36717942D01*
X14752381Y-36717942D02*
X14771429Y-36698895D01*
X14771429Y-36698895D02*
X14809524Y-36679847D01*
X15114286Y-37041752D02*
X15133333Y-37060800D01*
X15133333Y-37060800D02*
X15114286Y-37079847D01*
X15114286Y-37079847D02*
X15095238Y-37060800D01*
X15095238Y-37060800D02*
X15114286Y-37041752D01*
X15114286Y-37041752D02*
X15114286Y-37079847D01*
X15514285Y-37079847D02*
X15285714Y-37079847D01*
X15400000Y-37079847D02*
X15400000Y-36679847D01*
X15400000Y-36679847D02*
X15361904Y-36736990D01*
X15361904Y-36736990D02*
X15323809Y-36775085D01*
X15323809Y-36775085D02*
X15285714Y-36794133D01*
X15990476Y-36927466D02*
X16295238Y-36927466D01*
X16142857Y-37079847D02*
X16142857Y-36775085D01*
X16980952Y-36679847D02*
X16790476Y-36679847D01*
X16790476Y-36679847D02*
X16771428Y-36870323D01*
X16771428Y-36870323D02*
X16790476Y-36851276D01*
X16790476Y-36851276D02*
X16828571Y-36832228D01*
X16828571Y-36832228D02*
X16923809Y-36832228D01*
X16923809Y-36832228D02*
X16961904Y-36851276D01*
X16961904Y-36851276D02*
X16980952Y-36870323D01*
X16980952Y-36870323D02*
X16999999Y-36908419D01*
X16999999Y-36908419D02*
X16999999Y-37003657D01*
X16999999Y-37003657D02*
X16980952Y-37041752D01*
X16980952Y-37041752D02*
X16961904Y-37060800D01*
X16961904Y-37060800D02*
X16923809Y-37079847D01*
X16923809Y-37079847D02*
X16828571Y-37079847D01*
X16828571Y-37079847D02*
X16790476Y-37060800D01*
X16790476Y-37060800D02*
X16771428Y-37041752D01*
X17133332Y-37079847D02*
X17342856Y-36813180D01*
X17133332Y-36813180D02*
X17342856Y-37079847D01*
X17628571Y-36870323D02*
X17495238Y-36870323D01*
X17495238Y-37079847D02*
X17495238Y-36679847D01*
X17495238Y-36679847D02*
X17685714Y-36679847D01*
X18066666Y-37079847D02*
X17933333Y-36889371D01*
X17838095Y-37079847D02*
X17838095Y-36679847D01*
X17838095Y-36679847D02*
X17990476Y-36679847D01*
X17990476Y-36679847D02*
X18028571Y-36698895D01*
X18028571Y-36698895D02*
X18047618Y-36717942D01*
X18047618Y-36717942D02*
X18066666Y-36756038D01*
X18066666Y-36756038D02*
X18066666Y-36813180D01*
X18066666Y-36813180D02*
X18047618Y-36851276D01*
X18047618Y-36851276D02*
X18028571Y-36870323D01*
X18028571Y-36870323D02*
X17990476Y-36889371D01*
X17990476Y-36889371D02*
X17838095Y-36889371D01*
X18409523Y-36813180D02*
X18409523Y-37079847D01*
X18314285Y-36660800D02*
X18219047Y-36946514D01*
X18219047Y-36946514D02*
X18466666Y-36946514D01*
X18999999Y-36679847D02*
X19038094Y-36679847D01*
X19038094Y-36679847D02*
X19076190Y-36698895D01*
X19076190Y-36698895D02*
X19095237Y-36717942D01*
X19095237Y-36717942D02*
X19114285Y-36756038D01*
X19114285Y-36756038D02*
X19133332Y-36832228D01*
X19133332Y-36832228D02*
X19133332Y-36927466D01*
X19133332Y-36927466D02*
X19114285Y-37003657D01*
X19114285Y-37003657D02*
X19095237Y-37041752D01*
X19095237Y-37041752D02*
X19076190Y-37060800D01*
X19076190Y-37060800D02*
X19038094Y-37079847D01*
X19038094Y-37079847D02*
X18999999Y-37079847D01*
X18999999Y-37079847D02*
X18961904Y-37060800D01*
X18961904Y-37060800D02*
X18942856Y-37041752D01*
X18942856Y-37041752D02*
X18923809Y-37003657D01*
X18923809Y-37003657D02*
X18904761Y-36927466D01*
X18904761Y-36927466D02*
X18904761Y-36832228D01*
X18904761Y-36832228D02*
X18923809Y-36756038D01*
X18923809Y-36756038D02*
X18942856Y-36717942D01*
X18942856Y-36717942D02*
X18961904Y-36698895D01*
X18961904Y-36698895D02*
X18999999Y-36679847D01*
X19304761Y-37041752D02*
X19323808Y-37060800D01*
X19323808Y-37060800D02*
X19304761Y-37079847D01*
X19304761Y-37079847D02*
X19285713Y-37060800D01*
X19285713Y-37060800D02*
X19304761Y-37041752D01*
X19304761Y-37041752D02*
X19304761Y-37079847D01*
X19476189Y-36717942D02*
X19495237Y-36698895D01*
X19495237Y-36698895D02*
X19533332Y-36679847D01*
X19533332Y-36679847D02*
X19628570Y-36679847D01*
X19628570Y-36679847D02*
X19666665Y-36698895D01*
X19666665Y-36698895D02*
X19685713Y-36717942D01*
X19685713Y-36717942D02*
X19704760Y-36756038D01*
X19704760Y-36756038D02*
X19704760Y-36794133D01*
X19704760Y-36794133D02*
X19685713Y-36851276D01*
X19685713Y-36851276D02*
X19457141Y-37079847D01*
X19457141Y-37079847D02*
X19704760Y-37079847D01*
X19838093Y-37232228D02*
X19857141Y-37213180D01*
X19857141Y-37213180D02*
X19895236Y-37156038D01*
X19895236Y-37156038D02*
X19914284Y-37117942D01*
X19914284Y-37117942D02*
X19933331Y-37060800D01*
X19933331Y-37060800D02*
X19952379Y-36965561D01*
X19952379Y-36965561D02*
X19952379Y-36889371D01*
X19952379Y-36889371D02*
X19933331Y-36794133D01*
X19933331Y-36794133D02*
X19914284Y-36736990D01*
X19914284Y-36736990D02*
X19895236Y-36698895D01*
X19895236Y-36698895D02*
X19857141Y-36641752D01*
X19857141Y-36641752D02*
X19838093Y-36622704D01*
X9904765Y-7964204D02*
X10071432Y-7964204D01*
X10142860Y-8226109D02*
X9904765Y-8226109D01*
X9904765Y-8226109D02*
X9904765Y-7726109D01*
X9904765Y-7726109D02*
X10142860Y-7726109D01*
X10571432Y-8202300D02*
X10523813Y-8226109D01*
X10523813Y-8226109D02*
X10428575Y-8226109D01*
X10428575Y-8226109D02*
X10380956Y-8202300D01*
X10380956Y-8202300D02*
X10357146Y-8178490D01*
X10357146Y-8178490D02*
X10333337Y-8130871D01*
X10333337Y-8130871D02*
X10333337Y-7988014D01*
X10333337Y-7988014D02*
X10357146Y-7940395D01*
X10357146Y-7940395D02*
X10380956Y-7916585D01*
X10380956Y-7916585D02*
X10428575Y-7892776D01*
X10428575Y-7892776D02*
X10523813Y-7892776D01*
X10523813Y-7892776D02*
X10571432Y-7916585D01*
X10857146Y-8226109D02*
X10809527Y-8202300D01*
X10809527Y-8202300D02*
X10785717Y-8178490D01*
X10785717Y-8178490D02*
X10761908Y-8130871D01*
X10761908Y-8130871D02*
X10761908Y-7988014D01*
X10761908Y-7988014D02*
X10785717Y-7940395D01*
X10785717Y-7940395D02*
X10809527Y-7916585D01*
X10809527Y-7916585D02*
X10857146Y-7892776D01*
X10857146Y-7892776D02*
X10928574Y-7892776D01*
X10928574Y-7892776D02*
X10976193Y-7916585D01*
X10976193Y-7916585D02*
X11000003Y-7940395D01*
X11000003Y-7940395D02*
X11023812Y-7988014D01*
X11023812Y-7988014D02*
X11023812Y-8130871D01*
X11023812Y-8130871D02*
X11000003Y-8178490D01*
X11000003Y-8178490D02*
X10976193Y-8202300D01*
X10976193Y-8202300D02*
X10928574Y-8226109D01*
X10928574Y-8226109D02*
X10857146Y-8226109D01*
X11500003Y-8226109D02*
X11214289Y-8226109D01*
X11357146Y-8226109D02*
X11357146Y-7726109D01*
X11357146Y-7726109D02*
X11309527Y-7797538D01*
X11309527Y-7797538D02*
X11261908Y-7845157D01*
X11261908Y-7845157D02*
X11214289Y-7868966D01*
X12261907Y-7964204D02*
X12095240Y-7964204D01*
X12095240Y-8226109D02*
X12095240Y-7726109D01*
X12095240Y-7726109D02*
X12333335Y-7726109D01*
X12809525Y-8226109D02*
X12642859Y-7988014D01*
X12523811Y-8226109D02*
X12523811Y-7726109D01*
X12523811Y-7726109D02*
X12714287Y-7726109D01*
X12714287Y-7726109D02*
X12761906Y-7749919D01*
X12761906Y-7749919D02*
X12785716Y-7773728D01*
X12785716Y-7773728D02*
X12809525Y-7821347D01*
X12809525Y-7821347D02*
X12809525Y-7892776D01*
X12809525Y-7892776D02*
X12785716Y-7940395D01*
X12785716Y-7940395D02*
X12761906Y-7964204D01*
X12761906Y-7964204D02*
X12714287Y-7988014D01*
X12714287Y-7988014D02*
X12523811Y-7988014D01*
X13238097Y-7892776D02*
X13238097Y-8226109D01*
X13119049Y-7702300D02*
X13000002Y-8059442D01*
X13000002Y-8059442D02*
X13309525Y-8059442D01*
X13976191Y-7726109D02*
X14023810Y-7726109D01*
X14023810Y-7726109D02*
X14071429Y-7749919D01*
X14071429Y-7749919D02*
X14095239Y-7773728D01*
X14095239Y-7773728D02*
X14119048Y-7821347D01*
X14119048Y-7821347D02*
X14142858Y-7916585D01*
X14142858Y-7916585D02*
X14142858Y-8035633D01*
X14142858Y-8035633D02*
X14119048Y-8130871D01*
X14119048Y-8130871D02*
X14095239Y-8178490D01*
X14095239Y-8178490D02*
X14071429Y-8202300D01*
X14071429Y-8202300D02*
X14023810Y-8226109D01*
X14023810Y-8226109D02*
X13976191Y-8226109D01*
X13976191Y-8226109D02*
X13928572Y-8202300D01*
X13928572Y-8202300D02*
X13904763Y-8178490D01*
X13904763Y-8178490D02*
X13880953Y-8130871D01*
X13880953Y-8130871D02*
X13857144Y-8035633D01*
X13857144Y-8035633D02*
X13857144Y-7916585D01*
X13857144Y-7916585D02*
X13880953Y-7821347D01*
X13880953Y-7821347D02*
X13904763Y-7773728D01*
X13904763Y-7773728D02*
X13928572Y-7749919D01*
X13928572Y-7749919D02*
X13976191Y-7726109D01*
X14357143Y-8178490D02*
X14380953Y-8202300D01*
X14380953Y-8202300D02*
X14357143Y-8226109D01*
X14357143Y-8226109D02*
X14333334Y-8202300D01*
X14333334Y-8202300D02*
X14357143Y-8178490D01*
X14357143Y-8178490D02*
X14357143Y-8226109D01*
X14809524Y-7892776D02*
X14809524Y-8226109D01*
X14690476Y-7702300D02*
X14571429Y-8059442D01*
X14571429Y-8059442D02*
X14880952Y-8059442D01*
X15523809Y-8226109D02*
X15476190Y-8202300D01*
X15476190Y-8202300D02*
X15452380Y-8154680D01*
X15452380Y-8154680D02*
X15452380Y-7726109D01*
X15904761Y-8202300D02*
X15857142Y-8226109D01*
X15857142Y-8226109D02*
X15761904Y-8226109D01*
X15761904Y-8226109D02*
X15714285Y-8202300D01*
X15714285Y-8202300D02*
X15690476Y-8154680D01*
X15690476Y-8154680D02*
X15690476Y-7964204D01*
X15690476Y-7964204D02*
X15714285Y-7916585D01*
X15714285Y-7916585D02*
X15761904Y-7892776D01*
X15761904Y-7892776D02*
X15857142Y-7892776D01*
X15857142Y-7892776D02*
X15904761Y-7916585D01*
X15904761Y-7916585D02*
X15928571Y-7964204D01*
X15928571Y-7964204D02*
X15928571Y-8011823D01*
X15928571Y-8011823D02*
X15690476Y-8059442D01*
X16071428Y-7892776D02*
X16261904Y-7892776D01*
X16142856Y-8226109D02*
X16142856Y-7797538D01*
X16142856Y-7797538D02*
X16166666Y-7749919D01*
X16166666Y-7749919D02*
X16214285Y-7726109D01*
X16214285Y-7726109D02*
X16261904Y-7726109D01*
X16357142Y-7892776D02*
X16547618Y-7892776D01*
X16428570Y-7726109D02*
X16428570Y-8154680D01*
X16428570Y-8154680D02*
X16452380Y-8202300D01*
X16452380Y-8202300D02*
X16499999Y-8226109D01*
X16499999Y-8226109D02*
X16547618Y-8226109D01*
X16785713Y-8226109D02*
X16738094Y-8202300D01*
X16738094Y-8202300D02*
X16714284Y-8178490D01*
X16714284Y-8178490D02*
X16690475Y-8130871D01*
X16690475Y-8130871D02*
X16690475Y-7988014D01*
X16690475Y-7988014D02*
X16714284Y-7940395D01*
X16714284Y-7940395D02*
X16738094Y-7916585D01*
X16738094Y-7916585D02*
X16785713Y-7892776D01*
X16785713Y-7892776D02*
X16857141Y-7892776D01*
X16857141Y-7892776D02*
X16904760Y-7916585D01*
X16904760Y-7916585D02*
X16928570Y-7940395D01*
X16928570Y-7940395D02*
X16952379Y-7988014D01*
X16952379Y-7988014D02*
X16952379Y-8130871D01*
X16952379Y-8130871D02*
X16928570Y-8178490D01*
X16928570Y-8178490D02*
X16904760Y-8202300D01*
X16904760Y-8202300D02*
X16857141Y-8226109D01*
X16857141Y-8226109D02*
X16785713Y-8226109D01*
X17119046Y-7892776D02*
X17238094Y-8226109D01*
X17238094Y-8226109D02*
X17357141Y-7892776D01*
X17738093Y-8202300D02*
X17690474Y-8226109D01*
X17690474Y-8226109D02*
X17595236Y-8226109D01*
X17595236Y-8226109D02*
X17547617Y-8202300D01*
X17547617Y-8202300D02*
X17523808Y-8154680D01*
X17523808Y-8154680D02*
X17523808Y-7964204D01*
X17523808Y-7964204D02*
X17547617Y-7916585D01*
X17547617Y-7916585D02*
X17595236Y-7892776D01*
X17595236Y-7892776D02*
X17690474Y-7892776D01*
X17690474Y-7892776D02*
X17738093Y-7916585D01*
X17738093Y-7916585D02*
X17761903Y-7964204D01*
X17761903Y-7964204D02*
X17761903Y-8011823D01*
X17761903Y-8011823D02*
X17523808Y-8059442D01*
X17976188Y-8226109D02*
X17976188Y-7892776D01*
X17976188Y-7988014D02*
X17999998Y-7940395D01*
X17999998Y-7940395D02*
X18023807Y-7916585D01*
X18023807Y-7916585D02*
X18071426Y-7892776D01*
X18071426Y-7892776D02*
X18119045Y-7892776D01*
X18833331Y-7964204D02*
X18904759Y-7988014D01*
X18904759Y-7988014D02*
X18928569Y-8011823D01*
X18928569Y-8011823D02*
X18952378Y-8059442D01*
X18952378Y-8059442D02*
X18952378Y-8130871D01*
X18952378Y-8130871D02*
X18928569Y-8178490D01*
X18928569Y-8178490D02*
X18904759Y-8202300D01*
X18904759Y-8202300D02*
X18857140Y-8226109D01*
X18857140Y-8226109D02*
X18666664Y-8226109D01*
X18666664Y-8226109D02*
X18666664Y-7726109D01*
X18666664Y-7726109D02*
X18833331Y-7726109D01*
X18833331Y-7726109D02*
X18880950Y-7749919D01*
X18880950Y-7749919D02*
X18904759Y-7773728D01*
X18904759Y-7773728D02*
X18928569Y-7821347D01*
X18928569Y-7821347D02*
X18928569Y-7868966D01*
X18928569Y-7868966D02*
X18904759Y-7916585D01*
X18904759Y-7916585D02*
X18880950Y-7940395D01*
X18880950Y-7940395D02*
X18833331Y-7964204D01*
X18833331Y-7964204D02*
X18666664Y-7964204D01*
X19166664Y-8178490D02*
X19190474Y-8202300D01*
X19190474Y-8202300D02*
X19166664Y-8226109D01*
X19166664Y-8226109D02*
X19142855Y-8202300D01*
X19142855Y-8202300D02*
X19166664Y-8178490D01*
X19166664Y-8178490D02*
X19166664Y-8226109D01*
X19690473Y-8178490D02*
X19666664Y-8202300D01*
X19666664Y-8202300D02*
X19595235Y-8226109D01*
X19595235Y-8226109D02*
X19547616Y-8226109D01*
X19547616Y-8226109D02*
X19476188Y-8202300D01*
X19476188Y-8202300D02*
X19428569Y-8154680D01*
X19428569Y-8154680D02*
X19404759Y-8107061D01*
X19404759Y-8107061D02*
X19380950Y-8011823D01*
X19380950Y-8011823D02*
X19380950Y-7940395D01*
X19380950Y-7940395D02*
X19404759Y-7845157D01*
X19404759Y-7845157D02*
X19428569Y-7797538D01*
X19428569Y-7797538D02*
X19476188Y-7749919D01*
X19476188Y-7749919D02*
X19547616Y-7726109D01*
X19547616Y-7726109D02*
X19595235Y-7726109D01*
X19595235Y-7726109D02*
X19666664Y-7749919D01*
X19666664Y-7749919D02*
X19690473Y-7773728D01*
X20119045Y-7892776D02*
X20119045Y-8226109D01*
X19904759Y-7892776D02*
X19904759Y-8154680D01*
X19904759Y-8154680D02*
X19928569Y-8202300D01*
X19928569Y-8202300D02*
X19976188Y-8226109D01*
X19976188Y-8226109D02*
X20047616Y-8226109D01*
X20047616Y-8226109D02*
X20095235Y-8202300D01*
X20095235Y-8202300D02*
X20119045Y-8178490D01*
X20666664Y-7892776D02*
X20857140Y-7892776D01*
X20738092Y-8226109D02*
X20738092Y-7797538D01*
X20738092Y-7797538D02*
X20761902Y-7749919D01*
X20761902Y-7749919D02*
X20809521Y-7726109D01*
X20809521Y-7726109D02*
X20857140Y-7726109D01*
X21238092Y-8226109D02*
X21238092Y-7964204D01*
X21238092Y-7964204D02*
X21214282Y-7916585D01*
X21214282Y-7916585D02*
X21166663Y-7892776D01*
X21166663Y-7892776D02*
X21071425Y-7892776D01*
X21071425Y-7892776D02*
X21023806Y-7916585D01*
X21238092Y-8202300D02*
X21190473Y-8226109D01*
X21190473Y-8226109D02*
X21071425Y-8226109D01*
X21071425Y-8226109D02*
X21023806Y-8202300D01*
X21023806Y-8202300D02*
X20999997Y-8154680D01*
X20999997Y-8154680D02*
X20999997Y-8107061D01*
X20999997Y-8107061D02*
X21023806Y-8059442D01*
X21023806Y-8059442D02*
X21071425Y-8035633D01*
X21071425Y-8035633D02*
X21190473Y-8035633D01*
X21190473Y-8035633D02*
X21238092Y-8011823D01*
X21690473Y-8202300D02*
X21642854Y-8226109D01*
X21642854Y-8226109D02*
X21547616Y-8226109D01*
X21547616Y-8226109D02*
X21499997Y-8202300D01*
X21499997Y-8202300D02*
X21476187Y-8178490D01*
X21476187Y-8178490D02*
X21452378Y-8130871D01*
X21452378Y-8130871D02*
X21452378Y-7988014D01*
X21452378Y-7988014D02*
X21476187Y-7940395D01*
X21476187Y-7940395D02*
X21499997Y-7916585D01*
X21499997Y-7916585D02*
X21547616Y-7892776D01*
X21547616Y-7892776D02*
X21642854Y-7892776D01*
X21642854Y-7892776D02*
X21690473Y-7916585D01*
X22095234Y-8202300D02*
X22047615Y-8226109D01*
X22047615Y-8226109D02*
X21952377Y-8226109D01*
X21952377Y-8226109D02*
X21904758Y-8202300D01*
X21904758Y-8202300D02*
X21880949Y-8154680D01*
X21880949Y-8154680D02*
X21880949Y-7964204D01*
X21880949Y-7964204D02*
X21904758Y-7916585D01*
X21904758Y-7916585D02*
X21952377Y-7892776D01*
X21952377Y-7892776D02*
X22047615Y-7892776D01*
X22047615Y-7892776D02*
X22095234Y-7916585D01*
X22095234Y-7916585D02*
X22119044Y-7964204D01*
X22119044Y-7964204D02*
X22119044Y-8011823D01*
X22119044Y-8011823D02*
X21880949Y-8059442D01*
M02*
