%TF.GenerationSoftware,KiCad,Pcbnew,10.0.6*%
%TF.CreationDate,2026-09-23T10:07:27-04:00*%
%TF.ProjectId,elicio-v2,656c6963-696f-42d7-9632-2e6b69636164,rev?*%
%TF.SameCoordinates,Original*%
%TF.FileFunction,Other,Comment*%
%FSLAX46Y46*%
G04 Gerber Fmt 4.6, Leading zero omitted, Abs format (unit mm)*
G04 Created by KiCad (PCBNEW 10.0.6) date 2026-09-23 10:07:27*
%MOMM*%
%LPD*%
G01*
G04 APERTURE LIST*
%ADD10C,0.050000*%
%ADD11C,0.100000*%
%ADD12C,0.040000*%
%ADD13C,0.150000*%
%ADD14C,0.070000*%
G04 APERTURE END LIST*
D10*
X4650000Y-14400000D02*
X11650000Y-14400000D01*
X11650000Y-16000000D01*
X4650000Y-16000000D01*
X4650000Y-14400000D01*
G36*
X4650000Y-14400000D02*
G01*
X11650000Y-14400000D01*
X11650000Y-16000000D01*
X4650000Y-16000000D01*
X4650000Y-14400000D01*
G37*
D11*
X3938098Y-10802300D02*
X4009526Y-10826109D01*
X4009526Y-10826109D02*
X4128574Y-10826109D01*
X4128574Y-10826109D02*
X4176193Y-10802300D01*
X4176193Y-10802300D02*
X4200002Y-10778490D01*
X4200002Y-10778490D02*
X4223812Y-10730871D01*
X4223812Y-10730871D02*
X4223812Y-10683252D01*
X4223812Y-10683252D02*
X4200002Y-10635633D01*
X4200002Y-10635633D02*
X4176193Y-10611823D01*
X4176193Y-10611823D02*
X4128574Y-10588014D01*
X4128574Y-10588014D02*
X4033336Y-10564204D01*
X4033336Y-10564204D02*
X3985717Y-10540395D01*
X3985717Y-10540395D02*
X3961907Y-10516585D01*
X3961907Y-10516585D02*
X3938098Y-10468966D01*
X3938098Y-10468966D02*
X3938098Y-10421347D01*
X3938098Y-10421347D02*
X3961907Y-10373728D01*
X3961907Y-10373728D02*
X3985717Y-10349919D01*
X3985717Y-10349919D02*
X4033336Y-10326109D01*
X4033336Y-10326109D02*
X4152383Y-10326109D01*
X4152383Y-10326109D02*
X4223812Y-10349919D01*
X4438097Y-10826109D02*
X4438097Y-10326109D01*
X4938097Y-10349919D02*
X4890478Y-10326109D01*
X4890478Y-10326109D02*
X4819049Y-10326109D01*
X4819049Y-10326109D02*
X4747621Y-10349919D01*
X4747621Y-10349919D02*
X4700002Y-10397538D01*
X4700002Y-10397538D02*
X4676192Y-10445157D01*
X4676192Y-10445157D02*
X4652383Y-10540395D01*
X4652383Y-10540395D02*
X4652383Y-10611823D01*
X4652383Y-10611823D02*
X4676192Y-10707061D01*
X4676192Y-10707061D02*
X4700002Y-10754680D01*
X4700002Y-10754680D02*
X4747621Y-10802300D01*
X4747621Y-10802300D02*
X4819049Y-10826109D01*
X4819049Y-10826109D02*
X4866668Y-10826109D01*
X4866668Y-10826109D02*
X4938097Y-10802300D01*
X4938097Y-10802300D02*
X4961906Y-10778490D01*
X4961906Y-10778490D02*
X4961906Y-10611823D01*
X4961906Y-10611823D02*
X4866668Y-10611823D01*
X5438097Y-10826109D02*
X5152383Y-10826109D01*
X5295240Y-10826109D02*
X5295240Y-10326109D01*
X5295240Y-10326109D02*
X5247621Y-10397538D01*
X5247621Y-10397538D02*
X5200002Y-10445157D01*
X5200002Y-10445157D02*
X5152383Y-10468966D01*
X6009525Y-10802300D02*
X6080953Y-10826109D01*
X6080953Y-10826109D02*
X6200001Y-10826109D01*
X6200001Y-10826109D02*
X6247620Y-10802300D01*
X6247620Y-10802300D02*
X6271429Y-10778490D01*
X6271429Y-10778490D02*
X6295239Y-10730871D01*
X6295239Y-10730871D02*
X6295239Y-10683252D01*
X6295239Y-10683252D02*
X6271429Y-10635633D01*
X6271429Y-10635633D02*
X6247620Y-10611823D01*
X6247620Y-10611823D02*
X6200001Y-10588014D01*
X6200001Y-10588014D02*
X6104763Y-10564204D01*
X6104763Y-10564204D02*
X6057144Y-10540395D01*
X6057144Y-10540395D02*
X6033334Y-10516585D01*
X6033334Y-10516585D02*
X6009525Y-10468966D01*
X6009525Y-10468966D02*
X6009525Y-10421347D01*
X6009525Y-10421347D02*
X6033334Y-10373728D01*
X6033334Y-10373728D02*
X6057144Y-10349919D01*
X6057144Y-10349919D02*
X6104763Y-10326109D01*
X6104763Y-10326109D02*
X6223810Y-10326109D01*
X6223810Y-10326109D02*
X6295239Y-10349919D01*
X6438096Y-10326109D02*
X6723810Y-10326109D01*
X6580953Y-10826109D02*
X6580953Y-10326109D01*
X7176190Y-10826109D02*
X7009524Y-10588014D01*
X6890476Y-10826109D02*
X6890476Y-10326109D01*
X6890476Y-10326109D02*
X7080952Y-10326109D01*
X7080952Y-10326109D02*
X7128571Y-10349919D01*
X7128571Y-10349919D02*
X7152381Y-10373728D01*
X7152381Y-10373728D02*
X7176190Y-10421347D01*
X7176190Y-10421347D02*
X7176190Y-10492776D01*
X7176190Y-10492776D02*
X7152381Y-10540395D01*
X7152381Y-10540395D02*
X7128571Y-10564204D01*
X7128571Y-10564204D02*
X7080952Y-10588014D01*
X7080952Y-10588014D02*
X6890476Y-10588014D01*
X7390476Y-10826109D02*
X7390476Y-10326109D01*
X7628571Y-10826109D02*
X7628571Y-10326109D01*
X7628571Y-10326109D02*
X7819047Y-10326109D01*
X7819047Y-10326109D02*
X7866666Y-10349919D01*
X7866666Y-10349919D02*
X7890476Y-10373728D01*
X7890476Y-10373728D02*
X7914285Y-10421347D01*
X7914285Y-10421347D02*
X7914285Y-10492776D01*
X7914285Y-10492776D02*
X7890476Y-10540395D01*
X7890476Y-10540395D02*
X7866666Y-10564204D01*
X7866666Y-10564204D02*
X7819047Y-10588014D01*
X7819047Y-10588014D02*
X7628571Y-10588014D01*
X8676190Y-10564204D02*
X8509523Y-10564204D01*
X8509523Y-10826109D02*
X8509523Y-10326109D01*
X8509523Y-10326109D02*
X8747618Y-10326109D01*
X9176189Y-10826109D02*
X8938094Y-10826109D01*
X8938094Y-10826109D02*
X8938094Y-10326109D01*
X9319047Y-10683252D02*
X9557142Y-10683252D01*
X9271428Y-10826109D02*
X9438094Y-10326109D01*
X9438094Y-10326109D02*
X9604761Y-10826109D01*
X9699999Y-10326109D02*
X9985713Y-10326109D01*
X9842856Y-10826109D02*
X9842856Y-10326109D01*
X10795236Y-10826109D02*
X10509522Y-10826109D01*
X10652379Y-10826109D02*
X10652379Y-10326109D01*
X10652379Y-10326109D02*
X10604760Y-10397538D01*
X10604760Y-10397538D02*
X10557141Y-10445157D01*
X10557141Y-10445157D02*
X10509522Y-10468966D01*
X11104759Y-10326109D02*
X11152378Y-10326109D01*
X11152378Y-10326109D02*
X11199997Y-10349919D01*
X11199997Y-10349919D02*
X11223807Y-10373728D01*
X11223807Y-10373728D02*
X11247616Y-10421347D01*
X11247616Y-10421347D02*
X11271426Y-10516585D01*
X11271426Y-10516585D02*
X11271426Y-10635633D01*
X11271426Y-10635633D02*
X11247616Y-10730871D01*
X11247616Y-10730871D02*
X11223807Y-10778490D01*
X11223807Y-10778490D02*
X11199997Y-10802300D01*
X11199997Y-10802300D02*
X11152378Y-10826109D01*
X11152378Y-10826109D02*
X11104759Y-10826109D01*
X11104759Y-10826109D02*
X11057140Y-10802300D01*
X11057140Y-10802300D02*
X11033331Y-10778490D01*
X11033331Y-10778490D02*
X11009521Y-10730871D01*
X11009521Y-10730871D02*
X10985712Y-10635633D01*
X10985712Y-10635633D02*
X10985712Y-10516585D01*
X10985712Y-10516585D02*
X11009521Y-10421347D01*
X11009521Y-10421347D02*
X11033331Y-10373728D01*
X11033331Y-10373728D02*
X11057140Y-10349919D01*
X11057140Y-10349919D02*
X11104759Y-10326109D01*
X11485711Y-10778490D02*
X11509521Y-10802300D01*
X11509521Y-10802300D02*
X11485711Y-10826109D01*
X11485711Y-10826109D02*
X11461902Y-10802300D01*
X11461902Y-10802300D02*
X11485711Y-10778490D01*
X11485711Y-10778490D02*
X11485711Y-10826109D01*
X11676187Y-10326109D02*
X12009520Y-10326109D01*
X12009520Y-10326109D02*
X11795235Y-10826109D01*
X12461901Y-10826109D02*
X12176187Y-10826109D01*
X12319044Y-10826109D02*
X12319044Y-10326109D01*
X12319044Y-10326109D02*
X12271425Y-10397538D01*
X12271425Y-10397538D02*
X12223806Y-10445157D01*
X12223806Y-10445157D02*
X12176187Y-10468966D01*
X9238099Y-5302300D02*
X9309527Y-5326109D01*
X9309527Y-5326109D02*
X9428575Y-5326109D01*
X9428575Y-5326109D02*
X9476194Y-5302300D01*
X9476194Y-5302300D02*
X9500003Y-5278490D01*
X9500003Y-5278490D02*
X9523813Y-5230871D01*
X9523813Y-5230871D02*
X9523813Y-5183252D01*
X9523813Y-5183252D02*
X9500003Y-5135633D01*
X9500003Y-5135633D02*
X9476194Y-5111823D01*
X9476194Y-5111823D02*
X9428575Y-5088014D01*
X9428575Y-5088014D02*
X9333337Y-5064204D01*
X9333337Y-5064204D02*
X9285718Y-5040395D01*
X9285718Y-5040395D02*
X9261908Y-5016585D01*
X9261908Y-5016585D02*
X9238099Y-4968966D01*
X9238099Y-4968966D02*
X9238099Y-4921347D01*
X9238099Y-4921347D02*
X9261908Y-4873728D01*
X9261908Y-4873728D02*
X9285718Y-4849919D01*
X9285718Y-4849919D02*
X9333337Y-4826109D01*
X9333337Y-4826109D02*
X9452384Y-4826109D01*
X9452384Y-4826109D02*
X9523813Y-4849919D01*
X9738098Y-5326109D02*
X9738098Y-4826109D01*
X10238098Y-4849919D02*
X10190479Y-4826109D01*
X10190479Y-4826109D02*
X10119050Y-4826109D01*
X10119050Y-4826109D02*
X10047622Y-4849919D01*
X10047622Y-4849919D02*
X10000003Y-4897538D01*
X10000003Y-4897538D02*
X9976193Y-4945157D01*
X9976193Y-4945157D02*
X9952384Y-5040395D01*
X9952384Y-5040395D02*
X9952384Y-5111823D01*
X9952384Y-5111823D02*
X9976193Y-5207061D01*
X9976193Y-5207061D02*
X10000003Y-5254680D01*
X10000003Y-5254680D02*
X10047622Y-5302300D01*
X10047622Y-5302300D02*
X10119050Y-5326109D01*
X10119050Y-5326109D02*
X10166669Y-5326109D01*
X10166669Y-5326109D02*
X10238098Y-5302300D01*
X10238098Y-5302300D02*
X10261907Y-5278490D01*
X10261907Y-5278490D02*
X10261907Y-5111823D01*
X10261907Y-5111823D02*
X10166669Y-5111823D01*
X10452384Y-4873728D02*
X10476193Y-4849919D01*
X10476193Y-4849919D02*
X10523812Y-4826109D01*
X10523812Y-4826109D02*
X10642860Y-4826109D01*
X10642860Y-4826109D02*
X10690479Y-4849919D01*
X10690479Y-4849919D02*
X10714288Y-4873728D01*
X10714288Y-4873728D02*
X10738098Y-4921347D01*
X10738098Y-4921347D02*
X10738098Y-4968966D01*
X10738098Y-4968966D02*
X10714288Y-5040395D01*
X10714288Y-5040395D02*
X10428574Y-5326109D01*
X10428574Y-5326109D02*
X10738098Y-5326109D01*
X11309526Y-5302300D02*
X11380954Y-5326109D01*
X11380954Y-5326109D02*
X11500002Y-5326109D01*
X11500002Y-5326109D02*
X11547621Y-5302300D01*
X11547621Y-5302300D02*
X11571430Y-5278490D01*
X11571430Y-5278490D02*
X11595240Y-5230871D01*
X11595240Y-5230871D02*
X11595240Y-5183252D01*
X11595240Y-5183252D02*
X11571430Y-5135633D01*
X11571430Y-5135633D02*
X11547621Y-5111823D01*
X11547621Y-5111823D02*
X11500002Y-5088014D01*
X11500002Y-5088014D02*
X11404764Y-5064204D01*
X11404764Y-5064204D02*
X11357145Y-5040395D01*
X11357145Y-5040395D02*
X11333335Y-5016585D01*
X11333335Y-5016585D02*
X11309526Y-4968966D01*
X11309526Y-4968966D02*
X11309526Y-4921347D01*
X11309526Y-4921347D02*
X11333335Y-4873728D01*
X11333335Y-4873728D02*
X11357145Y-4849919D01*
X11357145Y-4849919D02*
X11404764Y-4826109D01*
X11404764Y-4826109D02*
X11523811Y-4826109D01*
X11523811Y-4826109D02*
X11595240Y-4849919D01*
X11738097Y-4826109D02*
X12023811Y-4826109D01*
X11880954Y-5326109D02*
X11880954Y-4826109D01*
X12476191Y-5326109D02*
X12309525Y-5088014D01*
X12190477Y-5326109D02*
X12190477Y-4826109D01*
X12190477Y-4826109D02*
X12380953Y-4826109D01*
X12380953Y-4826109D02*
X12428572Y-4849919D01*
X12428572Y-4849919D02*
X12452382Y-4873728D01*
X12452382Y-4873728D02*
X12476191Y-4921347D01*
X12476191Y-4921347D02*
X12476191Y-4992776D01*
X12476191Y-4992776D02*
X12452382Y-5040395D01*
X12452382Y-5040395D02*
X12428572Y-5064204D01*
X12428572Y-5064204D02*
X12380953Y-5088014D01*
X12380953Y-5088014D02*
X12190477Y-5088014D01*
X12690477Y-5326109D02*
X12690477Y-4826109D01*
X12928572Y-5326109D02*
X12928572Y-4826109D01*
X12928572Y-4826109D02*
X13119048Y-4826109D01*
X13119048Y-4826109D02*
X13166667Y-4849919D01*
X13166667Y-4849919D02*
X13190477Y-4873728D01*
X13190477Y-4873728D02*
X13214286Y-4921347D01*
X13214286Y-4921347D02*
X13214286Y-4992776D01*
X13214286Y-4992776D02*
X13190477Y-5040395D01*
X13190477Y-5040395D02*
X13166667Y-5064204D01*
X13166667Y-5064204D02*
X13119048Y-5088014D01*
X13119048Y-5088014D02*
X12928572Y-5088014D01*
X13976191Y-5064204D02*
X13809524Y-5064204D01*
X13809524Y-5326109D02*
X13809524Y-4826109D01*
X13809524Y-4826109D02*
X14047619Y-4826109D01*
X14476190Y-5326109D02*
X14238095Y-5326109D01*
X14238095Y-5326109D02*
X14238095Y-4826109D01*
X14619048Y-5183252D02*
X14857143Y-5183252D01*
X14571429Y-5326109D02*
X14738095Y-4826109D01*
X14738095Y-4826109D02*
X14904762Y-5326109D01*
X15000000Y-4826109D02*
X15285714Y-4826109D01*
X15142857Y-5326109D02*
X15142857Y-4826109D01*
X15809523Y-4873728D02*
X15833332Y-4849919D01*
X15833332Y-4849919D02*
X15880951Y-4826109D01*
X15880951Y-4826109D02*
X15999999Y-4826109D01*
X15999999Y-4826109D02*
X16047618Y-4849919D01*
X16047618Y-4849919D02*
X16071427Y-4873728D01*
X16071427Y-4873728D02*
X16095237Y-4921347D01*
X16095237Y-4921347D02*
X16095237Y-4968966D01*
X16095237Y-4968966D02*
X16071427Y-5040395D01*
X16071427Y-5040395D02*
X15785713Y-5326109D01*
X15785713Y-5326109D02*
X16095237Y-5326109D01*
X16571427Y-5326109D02*
X16285713Y-5326109D01*
X16428570Y-5326109D02*
X16428570Y-4826109D01*
X16428570Y-4826109D02*
X16380951Y-4897538D01*
X16380951Y-4897538D02*
X16333332Y-4945157D01*
X16333332Y-4945157D02*
X16285713Y-4968966D01*
X16785712Y-5278490D02*
X16809522Y-5302300D01*
X16809522Y-5302300D02*
X16785712Y-5326109D01*
X16785712Y-5326109D02*
X16761903Y-5302300D01*
X16761903Y-5302300D02*
X16785712Y-5278490D01*
X16785712Y-5278490D02*
X16785712Y-5326109D01*
X17095236Y-5040395D02*
X17047617Y-5016585D01*
X17047617Y-5016585D02*
X17023807Y-4992776D01*
X17023807Y-4992776D02*
X16999998Y-4945157D01*
X16999998Y-4945157D02*
X16999998Y-4921347D01*
X16999998Y-4921347D02*
X17023807Y-4873728D01*
X17023807Y-4873728D02*
X17047617Y-4849919D01*
X17047617Y-4849919D02*
X17095236Y-4826109D01*
X17095236Y-4826109D02*
X17190474Y-4826109D01*
X17190474Y-4826109D02*
X17238093Y-4849919D01*
X17238093Y-4849919D02*
X17261902Y-4873728D01*
X17261902Y-4873728D02*
X17285712Y-4921347D01*
X17285712Y-4921347D02*
X17285712Y-4945157D01*
X17285712Y-4945157D02*
X17261902Y-4992776D01*
X17261902Y-4992776D02*
X17238093Y-5016585D01*
X17238093Y-5016585D02*
X17190474Y-5040395D01*
X17190474Y-5040395D02*
X17095236Y-5040395D01*
X17095236Y-5040395D02*
X17047617Y-5064204D01*
X17047617Y-5064204D02*
X17023807Y-5088014D01*
X17023807Y-5088014D02*
X16999998Y-5135633D01*
X16999998Y-5135633D02*
X16999998Y-5230871D01*
X16999998Y-5230871D02*
X17023807Y-5278490D01*
X17023807Y-5278490D02*
X17047617Y-5302300D01*
X17047617Y-5302300D02*
X17095236Y-5326109D01*
X17095236Y-5326109D02*
X17190474Y-5326109D01*
X17190474Y-5326109D02*
X17238093Y-5302300D01*
X17238093Y-5302300D02*
X17261902Y-5278490D01*
X17261902Y-5278490D02*
X17285712Y-5230871D01*
X17285712Y-5230871D02*
X17285712Y-5135633D01*
X17285712Y-5135633D02*
X17261902Y-5088014D01*
X17261902Y-5088014D02*
X17238093Y-5064204D01*
X17238093Y-5064204D02*
X17190474Y-5040395D01*
X17761902Y-5326109D02*
X17476188Y-5326109D01*
X17619045Y-5326109D02*
X17619045Y-4826109D01*
X17619045Y-4826109D02*
X17571426Y-4897538D01*
X17571426Y-4897538D02*
X17523807Y-4945157D01*
X17523807Y-4945157D02*
X17476188Y-4968966D01*
X20478572Y-8528490D02*
X20454763Y-8552300D01*
X20454763Y-8552300D02*
X20383334Y-8576109D01*
X20383334Y-8576109D02*
X20335715Y-8576109D01*
X20335715Y-8576109D02*
X20264287Y-8552300D01*
X20264287Y-8552300D02*
X20216668Y-8504680D01*
X20216668Y-8504680D02*
X20192858Y-8457061D01*
X20192858Y-8457061D02*
X20169049Y-8361823D01*
X20169049Y-8361823D02*
X20169049Y-8290395D01*
X20169049Y-8290395D02*
X20192858Y-8195157D01*
X20192858Y-8195157D02*
X20216668Y-8147538D01*
X20216668Y-8147538D02*
X20264287Y-8099919D01*
X20264287Y-8099919D02*
X20335715Y-8076109D01*
X20335715Y-8076109D02*
X20383334Y-8076109D01*
X20383334Y-8076109D02*
X20454763Y-8099919D01*
X20454763Y-8099919D02*
X20478572Y-8123728D01*
X20692858Y-8576109D02*
X20692858Y-8076109D01*
X20692858Y-8314204D02*
X20978572Y-8314204D01*
X20978572Y-8576109D02*
X20978572Y-8076109D01*
X21192859Y-8433252D02*
X21430954Y-8433252D01*
X21145240Y-8576109D02*
X21311906Y-8076109D01*
X21311906Y-8076109D02*
X21478573Y-8576109D01*
X21930953Y-8576109D02*
X21764287Y-8338014D01*
X21645239Y-8576109D02*
X21645239Y-8076109D01*
X21645239Y-8076109D02*
X21835715Y-8076109D01*
X21835715Y-8076109D02*
X21883334Y-8099919D01*
X21883334Y-8099919D02*
X21907144Y-8123728D01*
X21907144Y-8123728D02*
X21930953Y-8171347D01*
X21930953Y-8171347D02*
X21930953Y-8242776D01*
X21930953Y-8242776D02*
X21907144Y-8290395D01*
X21907144Y-8290395D02*
X21883334Y-8314204D01*
X21883334Y-8314204D02*
X21835715Y-8338014D01*
X21835715Y-8338014D02*
X21645239Y-8338014D01*
X22407144Y-8099919D02*
X22359525Y-8076109D01*
X22359525Y-8076109D02*
X22288096Y-8076109D01*
X22288096Y-8076109D02*
X22216668Y-8099919D01*
X22216668Y-8099919D02*
X22169049Y-8147538D01*
X22169049Y-8147538D02*
X22145239Y-8195157D01*
X22145239Y-8195157D02*
X22121430Y-8290395D01*
X22121430Y-8290395D02*
X22121430Y-8361823D01*
X22121430Y-8361823D02*
X22145239Y-8457061D01*
X22145239Y-8457061D02*
X22169049Y-8504680D01*
X22169049Y-8504680D02*
X22216668Y-8552300D01*
X22216668Y-8552300D02*
X22288096Y-8576109D01*
X22288096Y-8576109D02*
X22335715Y-8576109D01*
X22335715Y-8576109D02*
X22407144Y-8552300D01*
X22407144Y-8552300D02*
X22430953Y-8528490D01*
X22430953Y-8528490D02*
X22430953Y-8361823D01*
X22430953Y-8361823D02*
X22335715Y-8361823D01*
X22645239Y-8314204D02*
X22811906Y-8314204D01*
X22883334Y-8576109D02*
X22645239Y-8576109D01*
X22645239Y-8576109D02*
X22645239Y-8076109D01*
X22645239Y-8076109D02*
X22883334Y-8076109D01*
X23407144Y-8076109D02*
X23692858Y-8076109D01*
X23550001Y-8576109D02*
X23550001Y-8076109D01*
X23835715Y-8433252D02*
X24073810Y-8433252D01*
X23788096Y-8576109D02*
X23954762Y-8076109D01*
X23954762Y-8076109D02*
X24121429Y-8576109D01*
X24454762Y-8314204D02*
X24526190Y-8338014D01*
X24526190Y-8338014D02*
X24550000Y-8361823D01*
X24550000Y-8361823D02*
X24573809Y-8409442D01*
X24573809Y-8409442D02*
X24573809Y-8480871D01*
X24573809Y-8480871D02*
X24550000Y-8528490D01*
X24550000Y-8528490D02*
X24526190Y-8552300D01*
X24526190Y-8552300D02*
X24478571Y-8576109D01*
X24478571Y-8576109D02*
X24288095Y-8576109D01*
X24288095Y-8576109D02*
X24288095Y-8076109D01*
X24288095Y-8076109D02*
X24454762Y-8076109D01*
X24454762Y-8076109D02*
X24502381Y-8099919D01*
X24502381Y-8099919D02*
X24526190Y-8123728D01*
X24526190Y-8123728D02*
X24550000Y-8171347D01*
X24550000Y-8171347D02*
X24550000Y-8218966D01*
X24550000Y-8218966D02*
X24526190Y-8266585D01*
X24526190Y-8266585D02*
X24502381Y-8290395D01*
X24502381Y-8290395D02*
X24454762Y-8314204D01*
X24454762Y-8314204D02*
X24288095Y-8314204D01*
X25502380Y-8623728D02*
X25454761Y-8599919D01*
X25454761Y-8599919D02*
X25407142Y-8552300D01*
X25407142Y-8552300D02*
X25335714Y-8480871D01*
X25335714Y-8480871D02*
X25288095Y-8457061D01*
X25288095Y-8457061D02*
X25240476Y-8457061D01*
X25264285Y-8576109D02*
X25216666Y-8552300D01*
X25216666Y-8552300D02*
X25169047Y-8504680D01*
X25169047Y-8504680D02*
X25145238Y-8409442D01*
X25145238Y-8409442D02*
X25145238Y-8242776D01*
X25145238Y-8242776D02*
X25169047Y-8147538D01*
X25169047Y-8147538D02*
X25216666Y-8099919D01*
X25216666Y-8099919D02*
X25264285Y-8076109D01*
X25264285Y-8076109D02*
X25359523Y-8076109D01*
X25359523Y-8076109D02*
X25407142Y-8099919D01*
X25407142Y-8099919D02*
X25454761Y-8147538D01*
X25454761Y-8147538D02*
X25478571Y-8242776D01*
X25478571Y-8242776D02*
X25478571Y-8409442D01*
X25478571Y-8409442D02*
X25454761Y-8504680D01*
X25454761Y-8504680D02*
X25407142Y-8552300D01*
X25407142Y-8552300D02*
X25359523Y-8576109D01*
X25359523Y-8576109D02*
X25264285Y-8576109D01*
X25716667Y-8576109D02*
X25811905Y-8576109D01*
X25811905Y-8576109D02*
X25859524Y-8552300D01*
X25859524Y-8552300D02*
X25883333Y-8528490D01*
X25883333Y-8528490D02*
X25930952Y-8457061D01*
X25930952Y-8457061D02*
X25954762Y-8361823D01*
X25954762Y-8361823D02*
X25954762Y-8171347D01*
X25954762Y-8171347D02*
X25930952Y-8123728D01*
X25930952Y-8123728D02*
X25907143Y-8099919D01*
X25907143Y-8099919D02*
X25859524Y-8076109D01*
X25859524Y-8076109D02*
X25764286Y-8076109D01*
X25764286Y-8076109D02*
X25716667Y-8099919D01*
X25716667Y-8099919D02*
X25692857Y-8123728D01*
X25692857Y-8123728D02*
X25669048Y-8171347D01*
X25669048Y-8171347D02*
X25669048Y-8290395D01*
X25669048Y-8290395D02*
X25692857Y-8338014D01*
X25692857Y-8338014D02*
X25716667Y-8361823D01*
X25716667Y-8361823D02*
X25764286Y-8385633D01*
X25764286Y-8385633D02*
X25859524Y-8385633D01*
X25859524Y-8385633D02*
X25907143Y-8361823D01*
X25907143Y-8361823D02*
X25930952Y-8338014D01*
X25930952Y-8338014D02*
X25954762Y-8290395D01*
X26264285Y-8076109D02*
X26311904Y-8076109D01*
X26311904Y-8076109D02*
X26359523Y-8099919D01*
X26359523Y-8099919D02*
X26383333Y-8123728D01*
X26383333Y-8123728D02*
X26407142Y-8171347D01*
X26407142Y-8171347D02*
X26430952Y-8266585D01*
X26430952Y-8266585D02*
X26430952Y-8385633D01*
X26430952Y-8385633D02*
X26407142Y-8480871D01*
X26407142Y-8480871D02*
X26383333Y-8528490D01*
X26383333Y-8528490D02*
X26359523Y-8552300D01*
X26359523Y-8552300D02*
X26311904Y-8576109D01*
X26311904Y-8576109D02*
X26264285Y-8576109D01*
X26264285Y-8576109D02*
X26216666Y-8552300D01*
X26216666Y-8552300D02*
X26192857Y-8528490D01*
X26192857Y-8528490D02*
X26169047Y-8480871D01*
X26169047Y-8480871D02*
X26145238Y-8385633D01*
X26145238Y-8385633D02*
X26145238Y-8266585D01*
X26145238Y-8266585D02*
X26169047Y-8171347D01*
X26169047Y-8171347D02*
X26192857Y-8123728D01*
X26192857Y-8123728D02*
X26216666Y-8099919D01*
X26216666Y-8099919D02*
X26264285Y-8076109D01*
X27952381Y-26526109D02*
X27952381Y-26883252D01*
X27952381Y-26883252D02*
X27928572Y-26954680D01*
X27928572Y-26954680D02*
X27880953Y-27002300D01*
X27880953Y-27002300D02*
X27809524Y-27026109D01*
X27809524Y-27026109D02*
X27761905Y-27026109D01*
X28142857Y-26526109D02*
X28452381Y-26526109D01*
X28452381Y-26526109D02*
X28285714Y-26716585D01*
X28285714Y-26716585D02*
X28357143Y-26716585D01*
X28357143Y-26716585D02*
X28404762Y-26740395D01*
X28404762Y-26740395D02*
X28428571Y-26764204D01*
X28428571Y-26764204D02*
X28452381Y-26811823D01*
X28452381Y-26811823D02*
X28452381Y-26930871D01*
X28452381Y-26930871D02*
X28428571Y-26978490D01*
X28428571Y-26978490D02*
X28404762Y-27002300D01*
X28404762Y-27002300D02*
X28357143Y-27026109D01*
X28357143Y-27026109D02*
X28214286Y-27026109D01*
X28214286Y-27026109D02*
X28166667Y-27002300D01*
X28166667Y-27002300D02*
X28142857Y-26978490D01*
X29214285Y-26764204D02*
X29285713Y-26788014D01*
X29285713Y-26788014D02*
X29309523Y-26811823D01*
X29309523Y-26811823D02*
X29333332Y-26859442D01*
X29333332Y-26859442D02*
X29333332Y-26930871D01*
X29333332Y-26930871D02*
X29309523Y-26978490D01*
X29309523Y-26978490D02*
X29285713Y-27002300D01*
X29285713Y-27002300D02*
X29238094Y-27026109D01*
X29238094Y-27026109D02*
X29047618Y-27026109D01*
X29047618Y-27026109D02*
X29047618Y-26526109D01*
X29047618Y-26526109D02*
X29214285Y-26526109D01*
X29214285Y-26526109D02*
X29261904Y-26549919D01*
X29261904Y-26549919D02*
X29285713Y-26573728D01*
X29285713Y-26573728D02*
X29309523Y-26621347D01*
X29309523Y-26621347D02*
X29309523Y-26668966D01*
X29309523Y-26668966D02*
X29285713Y-26716585D01*
X29285713Y-26716585D02*
X29261904Y-26740395D01*
X29261904Y-26740395D02*
X29214285Y-26764204D01*
X29214285Y-26764204D02*
X29047618Y-26764204D01*
X29833332Y-27026109D02*
X29666666Y-26788014D01*
X29547618Y-27026109D02*
X29547618Y-26526109D01*
X29547618Y-26526109D02*
X29738094Y-26526109D01*
X29738094Y-26526109D02*
X29785713Y-26549919D01*
X29785713Y-26549919D02*
X29809523Y-26573728D01*
X29809523Y-26573728D02*
X29833332Y-26621347D01*
X29833332Y-26621347D02*
X29833332Y-26692776D01*
X29833332Y-26692776D02*
X29809523Y-26740395D01*
X29809523Y-26740395D02*
X29785713Y-26764204D01*
X29785713Y-26764204D02*
X29738094Y-26788014D01*
X29738094Y-26788014D02*
X29547618Y-26788014D01*
X30047618Y-26764204D02*
X30214285Y-26764204D01*
X30285713Y-27026109D02*
X30047618Y-27026109D01*
X30047618Y-27026109D02*
X30047618Y-26526109D01*
X30047618Y-26526109D02*
X30285713Y-26526109D01*
X30476190Y-26883252D02*
X30714285Y-26883252D01*
X30428571Y-27026109D02*
X30595237Y-26526109D01*
X30595237Y-26526109D02*
X30761904Y-27026109D01*
X30928570Y-27026109D02*
X30928570Y-26526109D01*
X31214284Y-27026109D02*
X30999999Y-26740395D01*
X31214284Y-26526109D02*
X30928570Y-26811823D01*
X31428570Y-26835633D02*
X31809523Y-26835633D01*
X32142856Y-26526109D02*
X32238094Y-26526109D01*
X32238094Y-26526109D02*
X32285713Y-26549919D01*
X32285713Y-26549919D02*
X32333332Y-26597538D01*
X32333332Y-26597538D02*
X32357142Y-26692776D01*
X32357142Y-26692776D02*
X32357142Y-26859442D01*
X32357142Y-26859442D02*
X32333332Y-26954680D01*
X32333332Y-26954680D02*
X32285713Y-27002300D01*
X32285713Y-27002300D02*
X32238094Y-27026109D01*
X32238094Y-27026109D02*
X32142856Y-27026109D01*
X32142856Y-27026109D02*
X32095237Y-27002300D01*
X32095237Y-27002300D02*
X32047618Y-26954680D01*
X32047618Y-26954680D02*
X32023809Y-26859442D01*
X32023809Y-26859442D02*
X32023809Y-26692776D01*
X32023809Y-26692776D02*
X32047618Y-26597538D01*
X32047618Y-26597538D02*
X32095237Y-26549919D01*
X32095237Y-26549919D02*
X32142856Y-26526109D01*
X32738095Y-26764204D02*
X32571428Y-26764204D01*
X32571428Y-27026109D02*
X32571428Y-26526109D01*
X32571428Y-26526109D02*
X32809523Y-26526109D01*
X33166666Y-26764204D02*
X32999999Y-26764204D01*
X32999999Y-27026109D02*
X32999999Y-26526109D01*
X32999999Y-26526109D02*
X33238094Y-26526109D01*
D12*
X4838095Y-25532967D02*
X5066666Y-25532967D01*
X4952380Y-25932967D02*
X4952380Y-25532967D01*
X5276190Y-25532967D02*
X5352381Y-25532967D01*
X5352381Y-25532967D02*
X5390476Y-25552015D01*
X5390476Y-25552015D02*
X5428571Y-25590110D01*
X5428571Y-25590110D02*
X5447619Y-25666300D01*
X5447619Y-25666300D02*
X5447619Y-25799634D01*
X5447619Y-25799634D02*
X5428571Y-25875824D01*
X5428571Y-25875824D02*
X5390476Y-25913920D01*
X5390476Y-25913920D02*
X5352381Y-25932967D01*
X5352381Y-25932967D02*
X5276190Y-25932967D01*
X5276190Y-25932967D02*
X5238095Y-25913920D01*
X5238095Y-25913920D02*
X5200000Y-25875824D01*
X5200000Y-25875824D02*
X5180952Y-25799634D01*
X5180952Y-25799634D02*
X5180952Y-25666300D01*
X5180952Y-25666300D02*
X5200000Y-25590110D01*
X5200000Y-25590110D02*
X5238095Y-25552015D01*
X5238095Y-25552015D02*
X5276190Y-25532967D01*
X5619048Y-25932967D02*
X5619048Y-25532967D01*
X5619048Y-25532967D02*
X5771429Y-25532967D01*
X5771429Y-25532967D02*
X5809524Y-25552015D01*
X5809524Y-25552015D02*
X5828571Y-25571062D01*
X5828571Y-25571062D02*
X5847619Y-25609158D01*
X5847619Y-25609158D02*
X5847619Y-25666300D01*
X5847619Y-25666300D02*
X5828571Y-25704396D01*
X5828571Y-25704396D02*
X5809524Y-25723443D01*
X5809524Y-25723443D02*
X5771429Y-25742491D01*
X5771429Y-25742491D02*
X5619048Y-25742491D01*
X6514286Y-25932967D02*
X6323810Y-25932967D01*
X6323810Y-25932967D02*
X6323810Y-25532967D01*
X6628572Y-25818681D02*
X6819048Y-25818681D01*
X6590477Y-25932967D02*
X6723810Y-25532967D01*
X6723810Y-25532967D02*
X6857143Y-25932967D01*
X7066667Y-25742491D02*
X7066667Y-25932967D01*
X6933334Y-25532967D02*
X7066667Y-25742491D01*
X7066667Y-25742491D02*
X7200000Y-25532967D01*
X7333334Y-25723443D02*
X7466667Y-25723443D01*
X7523810Y-25932967D02*
X7333334Y-25932967D01*
X7333334Y-25932967D02*
X7333334Y-25532967D01*
X7333334Y-25532967D02*
X7523810Y-25532967D01*
X7923810Y-25932967D02*
X7790477Y-25742491D01*
X7695239Y-25932967D02*
X7695239Y-25532967D01*
X7695239Y-25532967D02*
X7847620Y-25532967D01*
X7847620Y-25532967D02*
X7885715Y-25552015D01*
X7885715Y-25552015D02*
X7904762Y-25571062D01*
X7904762Y-25571062D02*
X7923810Y-25609158D01*
X7923810Y-25609158D02*
X7923810Y-25666300D01*
X7923810Y-25666300D02*
X7904762Y-25704396D01*
X7904762Y-25704396D02*
X7885715Y-25723443D01*
X7885715Y-25723443D02*
X7847620Y-25742491D01*
X7847620Y-25742491D02*
X7695239Y-25742491D01*
X5109523Y-26432967D02*
X5109523Y-26032967D01*
X5338094Y-26432967D02*
X5166665Y-26204396D01*
X5338094Y-26032967D02*
X5109523Y-26261539D01*
X5509523Y-26223443D02*
X5642856Y-26223443D01*
X5699999Y-26432967D02*
X5509523Y-26432967D01*
X5509523Y-26432967D02*
X5509523Y-26032967D01*
X5509523Y-26032967D02*
X5699999Y-26032967D01*
X5871428Y-26223443D02*
X6004761Y-26223443D01*
X6061904Y-26432967D02*
X5871428Y-26432967D01*
X5871428Y-26432967D02*
X5871428Y-26032967D01*
X5871428Y-26032967D02*
X6061904Y-26032967D01*
X6233333Y-26432967D02*
X6233333Y-26032967D01*
X6233333Y-26032967D02*
X6385714Y-26032967D01*
X6385714Y-26032967D02*
X6423809Y-26052015D01*
X6423809Y-26052015D02*
X6442856Y-26071062D01*
X6442856Y-26071062D02*
X6461904Y-26109158D01*
X6461904Y-26109158D02*
X6461904Y-26166300D01*
X6461904Y-26166300D02*
X6442856Y-26204396D01*
X6442856Y-26204396D02*
X6423809Y-26223443D01*
X6423809Y-26223443D02*
X6385714Y-26242491D01*
X6385714Y-26242491D02*
X6233333Y-26242491D01*
X7014285Y-26032967D02*
X7090476Y-26032967D01*
X7090476Y-26032967D02*
X7128571Y-26052015D01*
X7128571Y-26052015D02*
X7166666Y-26090110D01*
X7166666Y-26090110D02*
X7185714Y-26166300D01*
X7185714Y-26166300D02*
X7185714Y-26299634D01*
X7185714Y-26299634D02*
X7166666Y-26375824D01*
X7166666Y-26375824D02*
X7128571Y-26413920D01*
X7128571Y-26413920D02*
X7090476Y-26432967D01*
X7090476Y-26432967D02*
X7014285Y-26432967D01*
X7014285Y-26432967D02*
X6976190Y-26413920D01*
X6976190Y-26413920D02*
X6938095Y-26375824D01*
X6938095Y-26375824D02*
X6919047Y-26299634D01*
X6919047Y-26299634D02*
X6919047Y-26166300D01*
X6919047Y-26166300D02*
X6938095Y-26090110D01*
X6938095Y-26090110D02*
X6976190Y-26052015D01*
X6976190Y-26052015D02*
X7014285Y-26032967D01*
X7357143Y-26032967D02*
X7357143Y-26356777D01*
X7357143Y-26356777D02*
X7376190Y-26394872D01*
X7376190Y-26394872D02*
X7395238Y-26413920D01*
X7395238Y-26413920D02*
X7433333Y-26432967D01*
X7433333Y-26432967D02*
X7509524Y-26432967D01*
X7509524Y-26432967D02*
X7547619Y-26413920D01*
X7547619Y-26413920D02*
X7566666Y-26394872D01*
X7566666Y-26394872D02*
X7585714Y-26356777D01*
X7585714Y-26356777D02*
X7585714Y-26032967D01*
X7719048Y-26032967D02*
X7947619Y-26032967D01*
X7833333Y-26432967D02*
X7833333Y-26032967D01*
D13*
X3383333Y-23962295D02*
X3383333Y-23162295D01*
X3840476Y-23962295D02*
X3497618Y-23505152D01*
X3840476Y-23162295D02*
X3383333Y-23619438D01*
X4183333Y-23543247D02*
X4449999Y-23543247D01*
X4564285Y-23962295D02*
X4183333Y-23962295D01*
X4183333Y-23962295D02*
X4183333Y-23162295D01*
X4183333Y-23162295D02*
X4564285Y-23162295D01*
X4907143Y-23543247D02*
X5173809Y-23543247D01*
X5288095Y-23962295D02*
X4907143Y-23962295D01*
X4907143Y-23962295D02*
X4907143Y-23162295D01*
X4907143Y-23162295D02*
X5288095Y-23162295D01*
X5630953Y-23962295D02*
X5630953Y-23162295D01*
X5630953Y-23162295D02*
X5935715Y-23162295D01*
X5935715Y-23162295D02*
X6011905Y-23200390D01*
X6011905Y-23200390D02*
X6050000Y-23238485D01*
X6050000Y-23238485D02*
X6088096Y-23314676D01*
X6088096Y-23314676D02*
X6088096Y-23428961D01*
X6088096Y-23428961D02*
X6050000Y-23505152D01*
X6050000Y-23505152D02*
X6011905Y-23543247D01*
X6011905Y-23543247D02*
X5935715Y-23581342D01*
X5935715Y-23581342D02*
X5630953Y-23581342D01*
X7192858Y-23162295D02*
X7345239Y-23162295D01*
X7345239Y-23162295D02*
X7421429Y-23200390D01*
X7421429Y-23200390D02*
X7497620Y-23276580D01*
X7497620Y-23276580D02*
X7535715Y-23428961D01*
X7535715Y-23428961D02*
X7535715Y-23695628D01*
X7535715Y-23695628D02*
X7497620Y-23848009D01*
X7497620Y-23848009D02*
X7421429Y-23924200D01*
X7421429Y-23924200D02*
X7345239Y-23962295D01*
X7345239Y-23962295D02*
X7192858Y-23962295D01*
X7192858Y-23962295D02*
X7116667Y-23924200D01*
X7116667Y-23924200D02*
X7040477Y-23848009D01*
X7040477Y-23848009D02*
X7002381Y-23695628D01*
X7002381Y-23695628D02*
X7002381Y-23428961D01*
X7002381Y-23428961D02*
X7040477Y-23276580D01*
X7040477Y-23276580D02*
X7116667Y-23200390D01*
X7116667Y-23200390D02*
X7192858Y-23162295D01*
X7878572Y-23162295D02*
X7878572Y-23809914D01*
X7878572Y-23809914D02*
X7916667Y-23886104D01*
X7916667Y-23886104D02*
X7954762Y-23924200D01*
X7954762Y-23924200D02*
X8030953Y-23962295D01*
X8030953Y-23962295D02*
X8183334Y-23962295D01*
X8183334Y-23962295D02*
X8259524Y-23924200D01*
X8259524Y-23924200D02*
X8297619Y-23886104D01*
X8297619Y-23886104D02*
X8335715Y-23809914D01*
X8335715Y-23809914D02*
X8335715Y-23162295D01*
X8602381Y-23162295D02*
X9059524Y-23162295D01*
X8830952Y-23962295D02*
X8830952Y-23162295D01*
X9859524Y-23162295D02*
X10392858Y-23162295D01*
X10392858Y-23162295D02*
X9859524Y-23962295D01*
X9859524Y-23962295D02*
X10392858Y-23962295D01*
X10850001Y-23162295D02*
X11002382Y-23162295D01*
X11002382Y-23162295D02*
X11078572Y-23200390D01*
X11078572Y-23200390D02*
X11154763Y-23276580D01*
X11154763Y-23276580D02*
X11192858Y-23428961D01*
X11192858Y-23428961D02*
X11192858Y-23695628D01*
X11192858Y-23695628D02*
X11154763Y-23848009D01*
X11154763Y-23848009D02*
X11078572Y-23924200D01*
X11078572Y-23924200D02*
X11002382Y-23962295D01*
X11002382Y-23962295D02*
X10850001Y-23962295D01*
X10850001Y-23962295D02*
X10773810Y-23924200D01*
X10773810Y-23924200D02*
X10697620Y-23848009D01*
X10697620Y-23848009D02*
X10659524Y-23695628D01*
X10659524Y-23695628D02*
X10659524Y-23428961D01*
X10659524Y-23428961D02*
X10697620Y-23276580D01*
X10697620Y-23276580D02*
X10773810Y-23200390D01*
X10773810Y-23200390D02*
X10850001Y-23162295D01*
X11535715Y-23962295D02*
X11535715Y-23162295D01*
X11535715Y-23162295D02*
X11992858Y-23962295D01*
X11992858Y-23962295D02*
X11992858Y-23162295D01*
X12373810Y-23543247D02*
X12640476Y-23543247D01*
X12754762Y-23962295D02*
X12373810Y-23962295D01*
X12373810Y-23962295D02*
X12373810Y-23162295D01*
X12373810Y-23162295D02*
X12754762Y-23162295D01*
D14*
X16701407Y-25838095D02*
X16301407Y-25838095D01*
X16701407Y-25609524D02*
X16472836Y-25780953D01*
X16301407Y-25609524D02*
X16529979Y-25838095D01*
X16491883Y-25438095D02*
X16491883Y-25304762D01*
X16701407Y-25247619D02*
X16701407Y-25438095D01*
X16701407Y-25438095D02*
X16301407Y-25438095D01*
X16301407Y-25438095D02*
X16301407Y-25247619D01*
X16491883Y-25076190D02*
X16491883Y-24942857D01*
X16701407Y-24885714D02*
X16701407Y-25076190D01*
X16701407Y-25076190D02*
X16301407Y-25076190D01*
X16301407Y-25076190D02*
X16301407Y-24885714D01*
X16701407Y-24714285D02*
X16301407Y-24714285D01*
X16301407Y-24714285D02*
X16301407Y-24561904D01*
X16301407Y-24561904D02*
X16320455Y-24523809D01*
X16320455Y-24523809D02*
X16339502Y-24504762D01*
X16339502Y-24504762D02*
X16377598Y-24485714D01*
X16377598Y-24485714D02*
X16434740Y-24485714D01*
X16434740Y-24485714D02*
X16472836Y-24504762D01*
X16472836Y-24504762D02*
X16491883Y-24523809D01*
X16491883Y-24523809D02*
X16510931Y-24561904D01*
X16510931Y-24561904D02*
X16510931Y-24714285D01*
X16301407Y-24238095D02*
X16301407Y-24161904D01*
X16301407Y-24161904D02*
X16320455Y-24123809D01*
X16320455Y-24123809D02*
X16358550Y-24085714D01*
X16358550Y-24085714D02*
X16434740Y-24066666D01*
X16434740Y-24066666D02*
X16568074Y-24066666D01*
X16568074Y-24066666D02*
X16644264Y-24085714D01*
X16644264Y-24085714D02*
X16682360Y-24123809D01*
X16682360Y-24123809D02*
X16701407Y-24161904D01*
X16701407Y-24161904D02*
X16701407Y-24238095D01*
X16701407Y-24238095D02*
X16682360Y-24276190D01*
X16682360Y-24276190D02*
X16644264Y-24314285D01*
X16644264Y-24314285D02*
X16568074Y-24333333D01*
X16568074Y-24333333D02*
X16434740Y-24333333D01*
X16434740Y-24333333D02*
X16358550Y-24314285D01*
X16358550Y-24314285D02*
X16320455Y-24276190D01*
X16320455Y-24276190D02*
X16301407Y-24238095D01*
X16301407Y-23895237D02*
X16625217Y-23895237D01*
X16625217Y-23895237D02*
X16663312Y-23876190D01*
X16663312Y-23876190D02*
X16682360Y-23857142D01*
X16682360Y-23857142D02*
X16701407Y-23819047D01*
X16701407Y-23819047D02*
X16701407Y-23742856D01*
X16701407Y-23742856D02*
X16682360Y-23704761D01*
X16682360Y-23704761D02*
X16663312Y-23685714D01*
X16663312Y-23685714D02*
X16625217Y-23666666D01*
X16625217Y-23666666D02*
X16301407Y-23666666D01*
X16301407Y-23533332D02*
X16301407Y-23304761D01*
X16701407Y-23419047D02*
X16301407Y-23419047D01*
M02*
