%TF.GenerationSoftware,KiCad,Pcbnew,10.0.6*%
%TF.CreationDate,2026-09-17T21:07:23-04:00*%
%TF.ProjectId,elicio-v2,656c6963-696f-42d7-9632-2e6b69636164,rev?*%
%TF.SameCoordinates,Original*%
%TF.FileFunction,Paste,Top*%
%TF.FilePolarity,Positive*%
%FSLAX46Y46*%
G04 Gerber Fmt 4.6, Leading zero omitted, Abs format (unit mm)*
G04 Created by KiCad (PCBNEW 10.0.6) date 2026-09-17 21:07:23*
%MOMM*%
%LPD*%
G01*
G04 APERTURE LIST*
G04 Aperture macros list*
%AMRoundRect*
0 Rectangle with rounded corners*
0 $1 Rounding radius*
0 $2 $3 $4 $5 $6 $7 $8 $9 X,Y pos of 4 corners*
0 Add a 4 corners polygon primitive as box body*
4,1,4,$2,$3,$4,$5,$6,$7,$8,$9,$2,$3,0*
0 Add four circle primitives for the rounded corners*
1,1,$1+$1,$2,$3*
1,1,$1+$1,$4,$5*
1,1,$1+$1,$6,$7*
1,1,$1+$1,$8,$9*
0 Add four rect primitives between the rounded corners*
20,1,$1+$1,$2,$3,$4,$5,0*
20,1,$1+$1,$4,$5,$6,$7,0*
20,1,$1+$1,$6,$7,$8,$9,0*
20,1,$1+$1,$8,$9,$2,$3,0*%
G04 Aperture macros list end*
%ADD10RoundRect,0.250000X-0.315000X-0.315000X0.315000X-0.315000X0.315000X0.315000X-0.315000X0.315000X0*%
%ADD11RoundRect,0.050000X-0.337500X-0.050000X0.337500X-0.050000X0.337500X0.050000X-0.337500X0.050000X0*%
%ADD12RoundRect,0.050000X-0.050000X-0.337500X0.050000X-0.337500X0.050000X0.337500X-0.050000X0.337500X0*%
%ADD13RoundRect,0.150000X0.150000X0.200000X-0.150000X0.200000X-0.150000X-0.200000X0.150000X-0.200000X0*%
%ADD14RoundRect,0.135000X-0.135000X-0.185000X0.135000X-0.185000X0.135000X0.185000X-0.135000X0.185000X0*%
%ADD15RoundRect,0.225000X-0.225000X-0.250000X0.225000X-0.250000X0.225000X0.250000X-0.225000X0.250000X0*%
%ADD16RoundRect,0.140000X-0.140000X-0.170000X0.140000X-0.170000X0.140000X0.170000X-0.140000X0.170000X0*%
%ADD17RoundRect,0.150000X-0.587500X-0.150000X0.587500X-0.150000X0.587500X0.150000X-0.587500X0.150000X0*%
%ADD18RoundRect,0.218750X-0.218750X-0.256250X0.218750X-0.256250X0.218750X0.256250X-0.218750X0.256250X0*%
%ADD19RoundRect,0.150000X-0.512500X-0.150000X0.512500X-0.150000X0.512500X0.150000X-0.512500X0.150000X0*%
%ADD20R,1.000000X0.750000*%
%ADD21RoundRect,0.150000X-0.150000X-0.575000X0.150000X-0.575000X0.150000X0.575000X-0.150000X0.575000X0*%
%ADD22RoundRect,0.075000X-0.075000X-0.650000X0.075000X-0.650000X0.075000X0.650000X-0.075000X0.650000X0*%
%ADD23RoundRect,0.150000X0.625000X-0.150000X0.625000X0.150000X-0.625000X0.150000X-0.625000X-0.150000X0*%
%ADD24RoundRect,0.250000X0.650000X-0.350000X0.650000X0.350000X-0.650000X0.350000X-0.650000X-0.350000X0*%
%ADD25C,0.250000*%
%ADD26RoundRect,0.147500X-0.147500X-0.172500X0.147500X-0.172500X0.147500X0.172500X-0.147500X0.172500X0*%
%ADD27R,0.400000X0.600000*%
%ADD28R,0.600000X0.400000*%
G04 APERTURE END LIST*
D10*
%TO.C,U2*%
X10500000Y-20550000D03*
X10500000Y-21950000D03*
X11900000Y-20550000D03*
X11900000Y-21950000D03*
D11*
X9212500Y-19850000D03*
X9212500Y-20250000D03*
X9212500Y-20650000D03*
X9212500Y-21050000D03*
X9212500Y-21450000D03*
X9212500Y-21850000D03*
X9212500Y-22250000D03*
X9212500Y-22650000D03*
D12*
X9800000Y-23237500D03*
X10200000Y-23237500D03*
X10600000Y-23237500D03*
X11000000Y-23237500D03*
X11400000Y-23237500D03*
X11800000Y-23237500D03*
X12200000Y-23237500D03*
X12600000Y-23237500D03*
D11*
X13187500Y-22650000D03*
X13187500Y-22250000D03*
X13187500Y-21850000D03*
X13187500Y-21450000D03*
X13187500Y-21050000D03*
X13187500Y-20650000D03*
X13187500Y-20250000D03*
X13187500Y-19850000D03*
D12*
X12600000Y-19262500D03*
X12200000Y-19262500D03*
X11800000Y-19262500D03*
X11400000Y-19262500D03*
X11000000Y-19262500D03*
X10600000Y-19262500D03*
X10200000Y-19262500D03*
X9800000Y-19262500D03*
%TD*%
D13*
%TO.C,D1*%
X13100000Y5200000D03*
X14500000Y5200000D03*
%TD*%
D14*
%TO.C,R15*%
X16290000Y-7400000D03*
X17310000Y-7400000D03*
%TD*%
D15*
%TO.C,C9*%
X12625000Y-19000000D03*
X14175000Y-19000000D03*
%TD*%
D16*
%TO.C,C10*%
X8520000Y-19400000D03*
X9480000Y-19400000D03*
%TD*%
D14*
%TO.C,R5*%
X12690000Y-6200000D03*
X13710000Y-6200000D03*
%TD*%
D17*
%TO.C,Q2*%
X14162500Y-15250000D03*
X14162500Y-17150000D03*
X16037500Y-16200000D03*
%TD*%
D16*
%TO.C,C6*%
X8220000Y-21200000D03*
X9180000Y-21200000D03*
%TD*%
D14*
%TO.C,R25*%
X13890000Y-11000000D03*
X14910000Y-11000000D03*
%TD*%
%TO.C,R28*%
X16290000Y-11000000D03*
X17310000Y-11000000D03*
%TD*%
D18*
%TO.C,L1*%
X15412500Y-25200000D03*
X16987500Y-25200000D03*
%TD*%
D14*
%TO.C,R6*%
X13890000Y-6200000D03*
X14910000Y-6200000D03*
%TD*%
D16*
%TO.C,C2*%
X6220000Y-26800000D03*
X7180000Y-26800000D03*
%TD*%
D14*
%TO.C,R10*%
X7090000Y400000D03*
X8110000Y400000D03*
%TD*%
%TO.C,R12*%
X3990000Y-26800000D03*
X5010000Y-26800000D03*
%TD*%
%TO.C,R4*%
X8690000Y-23400000D03*
X9710000Y-23400000D03*
%TD*%
D19*
%TO.C,U5*%
X5262500Y6150000D03*
X5262500Y5200000D03*
X5262500Y4250000D03*
X7537500Y4250000D03*
X7537500Y5200000D03*
X7537500Y6150000D03*
%TD*%
D14*
%TO.C,R14*%
X15090000Y-7400000D03*
X16110000Y-7400000D03*
%TD*%
%TO.C,R13*%
X5090000Y-26800000D03*
X6110000Y-26800000D03*
%TD*%
D20*
%TO.C,SW1*%
X1800000Y-19275000D03*
X7800000Y-19275000D03*
X1800000Y-23025000D03*
X7800000Y-23025000D03*
%TD*%
D14*
%TO.C,R26*%
X6290000Y-21200000D03*
X7310000Y-21200000D03*
%TD*%
%TO.C,R2*%
X13890000Y-21000000D03*
X14910000Y-21000000D03*
%TD*%
%TO.C,R23*%
X16290000Y-9800000D03*
X17310000Y-9800000D03*
%TD*%
D16*
%TO.C,C4*%
X4020000Y-23800000D03*
X4980000Y-23800000D03*
%TD*%
D14*
%TO.C,R20*%
X12690000Y-9800000D03*
X13710000Y-9800000D03*
%TD*%
D17*
%TO.C,Q3*%
X15662500Y-15250000D03*
X15662500Y-17150000D03*
X17537500Y-16200000D03*
%TD*%
D14*
%TO.C,R18*%
X8290000Y400000D03*
X9310000Y400000D03*
%TD*%
D16*
%TO.C,C3*%
X2920000Y-23800000D03*
X3880000Y-23800000D03*
%TD*%
D14*
%TO.C,R16*%
X12690000Y-8600000D03*
X13710000Y-8600000D03*
%TD*%
D16*
%TO.C,C1*%
X9820000Y-23400000D03*
X10780000Y-23400000D03*
%TD*%
D17*
%TO.C,Q5*%
X14162500Y-13450000D03*
X14162500Y-15350000D03*
X16037500Y-14400000D03*
%TD*%
%TO.C,Q4*%
X12662500Y-13450000D03*
X12662500Y-15350000D03*
X14537500Y-14400000D03*
%TD*%
D21*
%TO.C,J1*%
X6750000Y6195000D03*
X7550000Y6195000D03*
D22*
X8750000Y6195000D03*
X9750000Y6195000D03*
X10250000Y6195000D03*
X11250000Y6195000D03*
D21*
X12450000Y6195000D03*
X13250000Y6195000D03*
X13250000Y6195000D03*
X12450000Y6195000D03*
D22*
X11750000Y6195000D03*
X10750000Y6195000D03*
X9250000Y6195000D03*
X8250000Y6195000D03*
D21*
X7550000Y6195000D03*
X6750000Y6195000D03*
%TD*%
D14*
%TO.C,R3*%
X14890000Y-21000000D03*
X15910000Y-21000000D03*
%TD*%
%TO.C,R11*%
X2890000Y-26800000D03*
X3910000Y-26800000D03*
%TD*%
D16*
%TO.C,C5*%
X6220000Y-23800000D03*
X7180000Y-23800000D03*
%TD*%
D23*
%TO.C,J2*%
X12400000Y-5150000D03*
X12400000Y-4150000D03*
D24*
X16275000Y-6450000D03*
X16275000Y-2850000D03*
%TD*%
D14*
%TO.C,R1*%
X12890000Y-21000000D03*
X13910000Y-21000000D03*
%TD*%
D25*
%TO.C,U3*%
X3250000Y-24900000D03*
X3650000Y-24900000D03*
X3250000Y-25300000D03*
X3650000Y-25300000D03*
X3250000Y-25700000D03*
X3650000Y-25700000D03*
%TD*%
D16*
%TO.C,C7*%
X8220000Y-22200000D03*
X9180000Y-22200000D03*
%TD*%
D14*
%TO.C,R24*%
X12690000Y-11000000D03*
X13710000Y-11000000D03*
%TD*%
%TO.C,R9*%
X5890000Y400000D03*
X6910000Y400000D03*
%TD*%
D16*
%TO.C,C11*%
X9620000Y-19400000D03*
X10580000Y-19400000D03*
%TD*%
D26*
%TO.C,D2*%
X16015000Y-12600000D03*
X16985000Y-12600000D03*
%TD*%
D14*
%TO.C,R22*%
X15090000Y-9800000D03*
X16110000Y-9800000D03*
%TD*%
%TO.C,R17*%
X13890000Y-8600000D03*
X14910000Y-8600000D03*
%TD*%
D27*
%TO.C,U1*%
X6250000Y-37000000D03*
X7350000Y-37000000D03*
X8150000Y-37000000D03*
X9750000Y-37000000D03*
X10150000Y-36100000D03*
X10550000Y-37000000D03*
X10950000Y-36100000D03*
X11350000Y-37000000D03*
X11750000Y-36100000D03*
X12150000Y-37000000D03*
X12550000Y-36100000D03*
X12950000Y-37000000D03*
X13350000Y-36100000D03*
X13750000Y-37000000D03*
D28*
X17150000Y-37150000D03*
X17150000Y-36350000D03*
X17150000Y-35550000D03*
X17150000Y-34750000D03*
X16250000Y-34350000D03*
X17150000Y-33950000D03*
X16250000Y-33550000D03*
X17150000Y-33150000D03*
X16250000Y-32750000D03*
X17150000Y-32350000D03*
X16250000Y-31950000D03*
X17150000Y-31550000D03*
X16250000Y-31150000D03*
X17150000Y-30750000D03*
X16250000Y-30350000D03*
X17150000Y-29950000D03*
X17150000Y-29150000D03*
X17150000Y-28350000D03*
X17150000Y-27550000D03*
D27*
X16150000Y-27700000D03*
X15350000Y-27700000D03*
X14950000Y-28600000D03*
X14550000Y-27700000D03*
X14150000Y-28600000D03*
X13750000Y-27700000D03*
X13350000Y-28600000D03*
X12950000Y-27700000D03*
X12550000Y-28600000D03*
X11750000Y-28600000D03*
X11350000Y-27700000D03*
X10950000Y-28600000D03*
X10550000Y-27700000D03*
X10150000Y-28600000D03*
X9750000Y-27700000D03*
X9350000Y-28600000D03*
X8550000Y-28600000D03*
X8150000Y-27700000D03*
X7750000Y-28600000D03*
X7350000Y-27700000D03*
X6950000Y-28600000D03*
X6250000Y-27700000D03*
D28*
X10550000Y-34350000D03*
X10550000Y-33550000D03*
X10550000Y-32750000D03*
X10550000Y-31950000D03*
X10550000Y-31150000D03*
X10550000Y-30350000D03*
%TD*%
D14*
%TO.C,R8*%
X16290000Y-6200000D03*
X17310000Y-6200000D03*
%TD*%
D17*
%TO.C,Q1*%
X12662500Y-15250000D03*
X12662500Y-17150000D03*
X14537500Y-16200000D03*
%TD*%
D14*
%TO.C,R7*%
X15090000Y-6200000D03*
X16110000Y-6200000D03*
%TD*%
%TO.C,R19*%
X13090000Y400000D03*
X14110000Y400000D03*
%TD*%
D19*
%TO.C,U4*%
X4262500Y-24400000D03*
X4262500Y-25350000D03*
X4262500Y-26300000D03*
X6537500Y-26300000D03*
X6537500Y-24400000D03*
%TD*%
D16*
%TO.C,C8*%
X12920000Y-20000000D03*
X13880000Y-20000000D03*
%TD*%
D14*
%TO.C,R21*%
X13890000Y-9800000D03*
X14910000Y-9800000D03*
%TD*%
%TO.C,R27*%
X15090000Y-11000000D03*
X16110000Y-11000000D03*
%TD*%
M02*
