<?xml version="1.0" encoding="utf-8" standalone="no"?>
<!DOCTYPE svg PUBLIC "-//W3C//DTD SVG 1.1//EN"
  "http://www.w3.org/Graphics/SVG/1.1/DTD/svg11.dtd">
<svg xmlns:xlink="http://www.w3.org/1999/xlink" width="792pt" height="612pt" viewBox="0 0 792 612" xmlns="http://www.w3.org/2000/svg" version="1.1">
 <title>elicio packing v2 A_501015_series_w19_y8_iII_s3</title>
 
 <defs>
  <style type="text/css">*{stroke-linejoin: round; stroke-linecap: butt}</style>
 </defs>
 <g id="figure_1">
  <g id="patch_1">
   <path d="M 0 612 
L 792 612 
L 792 0 
L 0 0 
z
" style="fill: #ffffff"/>
  </g>
  <g id="axes_1">
   <g id="patch_2">
    <path d="M 206.559593 579.44 
L 585.440407 579.44 
L 585.440407 19.942031 
L 206.559593 19.942031 
z
" style="fill: #ffffff"/>
   </g>
   <g id="patch_3">
    <path d="M 222.130038 563.869556 
L 419.355667 563.869556 
L 419.355667 61.463216 
L 222.130038 61.463216 
L 222.130038 563.869556 
z
" clip-path="url(#pe9458ad0b2)" style="fill: none; stroke: #333333; stroke-width: 1.2; stroke-linejoin: miter"/>
   </g>
   <g id="patch_4">
    <path d="M 237.700482 548.299111 
L 403.785222 548.299111 
L 403.785222 167.342238 
L 237.700482 167.342238 
L 237.700482 548.299111 
z
" clip-path="url(#pe9458ad0b2)" style="fill: none; stroke-dasharray: 2.96,1.28; stroke-dashoffset: 0; stroke: #808080; stroke-width: 0.8; stroke-linejoin: miter"/>
   </g>
   <g id="patch_5">
    <path d="M 245.485704 370.796045 
L 396 370.796045 
L 396 173.570416 
L 245.485704 173.570416 
z
" clip-path="url(#pe9458ad0b2)" style="fill: #f4f1ea; stroke: #8a7a55; stroke-width: 0.6; stroke-linejoin: miter"/>
   </g>
   <g id="patch_6">
    <path d="M 237.700482 382.214371 
L 403.785222 382.214371 
L 403.785222 373.910134 
L 237.700482 373.910134 
z
" clip-path="url(#pe9458ad0b2)" style="fill: #cfcfcf; stroke: #666666; stroke-width: 0.4; stroke-linejoin: miter"/>
   </g>
   <g id="patch_7">
    <path d="M 283.373786 372.353089 
C 293.146533 372.353089 302.520331 368.470336 309.430707 361.559959 
C 316.341083 354.649583 320.223837 345.275786 320.223837 335.503038 
C 320.223837 325.73029 316.341083 316.356493 309.430707 309.446116 
C 302.520331 302.53574 293.146533 298.652986 283.373786 298.652986 
C 273.601038 298.652986 264.22724 302.53574 257.316864 309.446116 
C 250.406488 316.356493 246.523734 325.73029 246.523734 335.503038 
C 246.523734 345.275786 250.406488 354.649583 257.316864 361.559959 
C 264.22724 368.470336 273.601038 372.353089 283.373786 372.353089 
L 283.373786 372.353089 
z
" clip-path="url(#pe9458ad0b2)" style="fill: none; stroke-dasharray: 0.7,1.155; stroke-dashoffset: 0; stroke: #bb3333; stroke-width: 0.7; stroke-linejoin: miter"/>
   </g>
   <g id="patch_8">
    <path d="M 283.373786 361.453778 
C 290.256002 361.453778 296.857268 358.719445 301.72373 353.852982 
C 306.590192 348.98652 309.324526 342.385255 309.324526 335.503038 
C 309.324526 328.620821 306.590192 322.019555 301.72373 317.153093 
C 296.857268 312.286631 290.256002 309.552297 283.373786 309.552297 
C 276.491569 309.552297 269.890303 312.286631 265.023841 317.153093 
C 260.157379 322.019555 257.423045 328.620821 257.423045 335.503038 
C 257.423045 342.385255 260.157379 348.98652 265.023841 353.852982 
C 269.890303 358.719445 276.491569 361.453778 283.373786 361.453778 
L 283.373786 361.453778 
z
" clip-path="url(#pe9458ad0b2)" style="fill: none; stroke: #333333; stroke-width: 0.8; stroke-linejoin: miter"/>
   </g>
   <g id="patch_9">
    <path d="M 330.085119 257.131801 
C 339.857867 257.131801 349.231664 253.249047 356.14204 246.338671 
C 363.052417 239.428294 366.93517 230.054497 366.93517 220.281749 
C 366.93517 210.509001 363.052417 201.135204 356.14204 194.224828 
C 349.231664 187.314451 339.857867 183.431697 330.085119 183.431697 
C 320.312371 183.431697 310.938574 187.314451 304.028197 194.224828 
C 297.117821 201.135204 293.235067 210.509001 293.235067 220.281749 
C 293.235067 230.054497 297.117821 239.428294 304.028197 246.338671 
C 310.938574 253.249047 320.312371 257.131801 330.085119 257.131801 
L 330.085119 257.131801 
z
" clip-path="url(#pe9458ad0b2)" style="fill: none; stroke-dasharray: 0.7,1.155; stroke-dashoffset: 0; stroke: #bb3333; stroke-width: 0.7; stroke-linejoin: miter"/>
   </g>
   <g id="patch_10">
    <path d="M 330.085119 246.23249 
C 336.967336 246.23249 343.568601 243.498156 348.435063 238.631694 
C 353.301526 233.765232 356.035859 227.163966 356.035859 220.281749 
C 356.035859 213.399532 353.301526 206.798267 348.435063 201.931804 
C 343.568601 197.065342 336.967336 194.331009 330.085119 194.331009 
C 323.202902 194.331009 316.601636 197.065342 311.735174 201.931804 
C 306.868712 206.798267 304.134378 213.399532 304.134378 220.281749 
C 304.134378 227.163966 306.868712 233.765232 311.735174 238.631694 
C 316.601636 243.498156 323.202902 246.23249 330.085119 246.23249 
L 330.085119 246.23249 
z
" clip-path="url(#pe9458ad0b2)" style="fill: none; stroke: #333333; stroke-width: 0.8; stroke-linejoin: miter"/>
   </g>
   <g id="patch_11">
    <path d="M 310.362556 154.366868 
C 320.135304 154.366868 329.509101 150.484114 336.419477 143.573738 
C 343.329854 136.663361 347.212608 127.289564 347.212608 117.516816 
C 347.212608 107.744068 343.329854 98.370271 336.419477 91.459895 
C 329.509101 84.549518 320.135304 80.666764 310.362556 80.666764 
C 300.589808 80.666764 291.216011 84.549518 284.305634 91.459895 
C 277.395258 98.370271 273.512504 107.744068 273.512504 117.516816 
C 273.512504 127.289564 277.395258 136.663361 284.305634 143.573738 
C 291.216011 150.484114 300.589808 154.366868 310.362556 154.366868 
L 310.362556 154.366868 
z
" clip-path="url(#pe9458ad0b2)" style="fill: none; stroke-dasharray: 0.7,1.155; stroke-dashoffset: 0; stroke: #bb3333; stroke-width: 0.7; stroke-linejoin: miter"/>
   </g>
   <g id="patch_12">
    <path d="M 310.362556 143.467557 
C 317.244773 143.467557 323.846038 140.733223 328.712501 135.866761 
C 333.578963 131.000299 336.313296 124.399033 336.313296 117.516816 
C 336.313296 110.634599 333.578963 104.033334 328.712501 99.166871 
C 323.846038 94.300409 317.244773 91.566075 310.362556 91.566075 
C 303.480339 91.566075 296.879073 94.300409 292.012611 99.166871 
C 287.146149 104.033334 284.411815 110.634599 284.411815 117.516816 
C 284.411815 124.399033 287.146149 131.000299 292.012611 135.866761 
C 296.879073 140.733223 303.480339 143.467557 310.362556 143.467557 
L 310.362556 143.467557 
z
" clip-path="url(#pe9458ad0b2)" style="fill: none; stroke: #333333; stroke-width: 0.8; stroke-linejoin: miter"/>
   </g>
   <g id="patch_13">
    <path d="M 245.485704 334.465008 
L 354.478815 334.465008 
L 354.478815 173.570416 
L 245.485704 173.570416 
z
" clip-path="url(#pe9458ad0b2)" style="fill: #4c78a8; opacity: 0.55; stroke: #333333; stroke-width: 0.4; stroke-linejoin: miter"/>
   </g>
   <g id="patch_14">
    <path d="M 240.814571 548.299111 
L 348.769652 548.299111 
L 348.769652 386.366489 
L 240.814571 386.366489 
z
" clip-path="url(#pe9458ad0b2)" style="fill: #f58518; opacity: 0.55; stroke: #333333; stroke-width: 0.4; stroke-linejoin: miter"/>
   </g>
   <g id="patch_15">
    <path d="M 247.042749 369.239001 
L 298.94423 369.239001 
L 298.94423 317.337519 
L 247.042749 317.337519 
z
" clip-path="url(#pe9458ad0b2)" style="fill: #54a24b; opacity: 0.55; stroke: #333333; stroke-width: 0.4; stroke-linejoin: miter"/>
   </g>
   <g id="patch_16">
    <path d="M 312.438615 369.239001 
L 334.237237 369.239001 
L 334.237237 354.706586 
L 312.438615 354.706586 
z
" clip-path="url(#pe9458ad0b2)" style="fill: #9d9d9d; opacity: 0.55; stroke: #333333; stroke-width: 0.4; stroke-linejoin: miter"/>
   </g>
   <g id="patch_17">
    <path d="M 335.794282 369.239001 
L 351.364726 369.239001 
L 351.364726 353.668556 
L 335.794282 353.668556 
z
" clip-path="url(#pe9458ad0b2)" style="fill: #9d9d9d; opacity: 0.55; stroke: #333333; stroke-width: 0.4; stroke-linejoin: miter"/>
   </g>
   <g id="patch_18">
    <path d="M 353.700293 369.239001 
L 381.208078 369.239001 
L 381.208078 344.845304 
L 353.700293 344.845304 
z
" clip-path="url(#pe9458ad0b2)" style="fill: #72b7b2; opacity: 0.55; stroke: #333333; stroke-width: 0.4; stroke-linejoin: miter"/>
   </g>
   <g id="patch_19">
    <path d="M 359.668963 325.122741 
L 387.176748 325.122741 
L 387.176748 300.729045 
L 359.668963 300.729045 
z
" clip-path="url(#pe9458ad0b2)" style="fill: #72b7b2; opacity: 0.55; stroke: #333333; stroke-width: 0.4; stroke-linejoin: miter"/>
   </g>
   <g id="patch_20">
    <path d="M 350.845711 546.742067 
L 392.366896 546.742067 
L 392.366896 484.460289 
L 350.845711 484.460289 
z
" clip-path="url(#pe9458ad0b2)" style="fill: #b279a2; opacity: 0.55; stroke: #333333; stroke-width: 0.4; stroke-linejoin: miter"/>
   </g>
   <g id="patch_21">
    <path d="M 248.599793 367.681956 
L 295.311126 367.681956 
L 295.311126 320.970623 
L 248.599793 320.970623 
z
" clip-path="url(#pe9458ad0b2)" style="fill: #9d9d9d; opacity: 0.55; stroke: #333333; stroke-width: 0.4; stroke-linejoin: miter"/>
   </g>
   <g id="patch_22">
    <path d="M 359.668963 298.652986 
L 385.619704 298.652986 
L 385.619704 219.762734 
L 359.668963 219.762734 
z
" clip-path="url(#pe9458ad0b2)" style="fill: #9d9d9d; opacity: 0.55; stroke: #333333; stroke-width: 0.4; stroke-linejoin: miter"/>
   </g>
   <g id="patch_23">
    <path d="M 312.438615 350.554467 
L 322.818911 350.554467 
L 322.818911 340.174171 
L 312.438615 340.174171 
z
" clip-path="url(#pe9458ad0b2)" style="fill: #333333; opacity: 0.55; stroke: #333333; stroke-width: 0.4; stroke-linejoin: miter"/>
   </g>
   <g id="patch_24">
    <path d="M 326.452015 350.554467 
L 336.832311 350.554467 
L 336.832311 340.174171 
L 326.452015 340.174171 
z
" clip-path="url(#pe9458ad0b2)" style="fill: #333333; opacity: 0.55; stroke: #333333; stroke-width: 0.4; stroke-linejoin: miter"/>
   </g>
   <g id="patch_25">
    <path d="M 340.465415 350.554467 
L 350.845711 350.554467 
L 350.845711 340.174171 
L 340.465415 340.174171 
z
" clip-path="url(#pe9458ad0b2)" style="fill: #333333; opacity: 0.55; stroke: #333333; stroke-width: 0.4; stroke-linejoin: miter"/>
   </g>
   <g id="patch_26">
    <path d="M 382.505615 369.239001 
L 392.885911 369.239001 
L 392.885911 358.858704 
L 382.505615 358.858704 
z
" clip-path="url(#pe9458ad0b2)" style="fill: #333333; opacity: 0.55; stroke: #333333; stroke-width: 0.4; stroke-linejoin: miter"/>
   </g>
   <g id="patch_27">
    <path d="M 382.505615 355.225601 
L 392.885911 355.225601 
L 392.885911 344.845304 
L 382.505615 344.845304 
z
" clip-path="url(#pe9458ad0b2)" style="fill: #333333; opacity: 0.55; stroke: #333333; stroke-width: 0.4; stroke-linejoin: miter"/>
   </g>
   <g id="patch_28">
    <path d="M 274.550534 624.075274 
L 366.93517 624.075274 
L 366.93517 548.299111 
L 274.550534 548.299111 
z
" clip-path="url(#pe9458ad0b2)" style="fill: #e45756; opacity: 0.55; stroke: #333333; stroke-width: 0.4; stroke-linejoin: miter"/>
   </g>
   <g id="patch_29">
    <path d="M 257.423045 361.453778 
L 309.324526 361.453778 
L 309.324526 309.552297 
L 257.423045 309.552297 
z
" clip-path="url(#pe9458ad0b2)" style="fill: #9d9d9d; opacity: 0.55; stroke: #333333; stroke-width: 0.4; stroke-linejoin: miter"/>
   </g>
   <g id="patch_30">
    <path d="M 304.134378 246.23249 
L 356.035859 246.23249 
L 356.035859 194.331009 
L 304.134378 194.331009 
z
" clip-path="url(#pe9458ad0b2)" style="fill: #9d9d9d; opacity: 0.55; stroke: #333333; stroke-width: 0.4; stroke-linejoin: miter"/>
   </g>
   <g id="patch_31">
    <path d="M 284.411815 143.467557 
L 336.313296 143.467557 
L 336.313296 91.566075 
L 284.411815 91.566075 
z
" clip-path="url(#pe9458ad0b2)" style="fill: #9d9d9d; opacity: 0.55; stroke: #333333; stroke-width: 0.4; stroke-linejoin: miter"/>
   </g>
   <g id="patch_32">
    <path d="M 301.020289 368.200971 
L 310.362556 368.200971 
L 310.362556 349.516438 
L 301.020289 349.516438 
z
" clip-path="url(#pe9458ad0b2)" style="fill: #d4a574; opacity: 0.55; stroke: #333333; stroke-width: 0.4; stroke-linejoin: miter"/>
   </g>
   <g id="patch_33">
    <path d="M 355.516845 341.731216 
L 374.201378 341.731216 
L 374.201378 332.388949 
L 355.516845 332.388949 
z
" clip-path="url(#pe9458ad0b2)" style="fill: #d4a574; opacity: 0.55; stroke: #333333; stroke-width: 0.4; stroke-linejoin: miter"/>
   </g>
   <g id="patch_34">
    <path d="M 366.416156 218.724705 
L 375.758422 218.724705 
L 375.758422 200.040171 
L 366.416156 200.040171 
z
" clip-path="url(#pe9458ad0b2)" style="fill: #d4a574; opacity: 0.55; stroke: #333333; stroke-width: 0.4; stroke-linejoin: miter"/>
   </g>
   <g id="patch_35">
    <path d="M 366.416156 196.926083 
L 375.758422 196.926083 
L 375.758422 178.241549 
L 366.416156 178.241549 
z
" clip-path="url(#pe9458ad0b2)" style="fill: #d4a574; opacity: 0.55; stroke: #333333; stroke-width: 0.4; stroke-linejoin: miter"/>
   </g>
   <g id="patch_36">
    <path d="M 378.872511 218.724705 
L 388.214778 218.724705 
L 388.214778 200.040171 
L 378.872511 200.040171 
z
" clip-path="url(#pe9458ad0b2)" style="fill: #d4a574; opacity: 0.55; stroke: #333333; stroke-width: 0.4; stroke-linejoin: miter"/>
   </g>
   <g id="patch_37">
    <path d="M 378.872511 196.926083 
L 388.214778 196.926083 
L 388.214778 178.241549 
L 378.872511 178.241549 
z
" clip-path="url(#pe9458ad0b2)" style="fill: #d4a574; opacity: 0.55; stroke: #333333; stroke-width: 0.4; stroke-linejoin: miter"/>
   </g>
   <g id="patch_38">
    <path d="M 377.315467 341.731216 
L 396 341.731216 
L 396 332.388949 
L 377.315467 332.388949 
z
" clip-path="url(#pe9458ad0b2)" style="fill: #d4a574; opacity: 0.55; stroke: #333333; stroke-width: 0.4; stroke-linejoin: miter"/>
   </g>
   <g id="patch_39">
    <path d="M 350.326696 481.3462 
L 369.01123 481.3462 
L 369.01123 472.003934 
L 350.326696 472.003934 
z
" clip-path="url(#pe9458ad0b2)" style="fill: #d4a574; opacity: 0.55; stroke: #333333; stroke-width: 0.4; stroke-linejoin: miter"/>
   </g>
   <g id="patch_40">
    <path d="M 350.326696 468.889845 
L 369.01123 468.889845 
L 369.01123 459.547578 
L 350.326696 459.547578 
z
" clip-path="url(#pe9458ad0b2)" style="fill: #d4a574; opacity: 0.55; stroke: #333333; stroke-width: 0.4; stroke-linejoin: miter"/>
   </g>
   <g id="patch_41">
    <path d="M 350.326696 456.433489 
L 369.01123 456.433489 
L 369.01123 447.091223 
L 350.326696 447.091223 
z
" clip-path="url(#pe9458ad0b2)" style="fill: #d4a574; opacity: 0.55; stroke: #333333; stroke-width: 0.4; stroke-linejoin: miter"/>
   </g>
   <g id="patch_42">
    <path d="M 350.326696 443.977134 
L 369.01123 443.977134 
L 369.01123 434.634867 
L 350.326696 434.634867 
z
" clip-path="url(#pe9458ad0b2)" style="fill: #d4a574; opacity: 0.55; stroke: #333333; stroke-width: 0.4; stroke-linejoin: miter"/>
   </g>
   <g id="patch_43">
    <path d="M 350.326696 431.520778 
L 369.01123 431.520778 
L 369.01123 422.178512 
L 350.326696 422.178512 
z
" clip-path="url(#pe9458ad0b2)" style="fill: #d4a574; opacity: 0.55; stroke: #333333; stroke-width: 0.4; stroke-linejoin: miter"/>
   </g>
   <g id="patch_44">
    <path d="M 350.326696 419.064423 
L 369.01123 419.064423 
L 369.01123 409.722156 
L 350.326696 409.722156 
z
" clip-path="url(#pe9458ad0b2)" style="fill: #d4a574; opacity: 0.55; stroke: #333333; stroke-width: 0.4; stroke-linejoin: miter"/>
   </g>
   <g id="patch_45">
    <path d="M 350.326696 406.608067 
L 369.01123 406.608067 
L 369.01123 397.265801 
L 350.326696 397.265801 
z
" clip-path="url(#pe9458ad0b2)" style="fill: #d4a574; opacity: 0.55; stroke: #333333; stroke-width: 0.4; stroke-linejoin: miter"/>
   </g>
   <g id="patch_46">
    <path d="M 350.326696 394.151712 
L 369.01123 394.151712 
L 369.01123 384.809445 
L 350.326696 384.809445 
z
" clip-path="url(#pe9458ad0b2)" style="fill: #d4a574; opacity: 0.55; stroke: #333333; stroke-width: 0.4; stroke-linejoin: miter"/>
   </g>
   <g id="patch_47">
    <path d="M 370.568274 482.903245 
L 379.910541 482.903245 
L 379.910541 464.218711 
L 370.568274 464.218711 
z
" clip-path="url(#pe9458ad0b2)" style="fill: #d4a574; opacity: 0.55; stroke: #333333; stroke-width: 0.4; stroke-linejoin: miter"/>
   </g>
   <g id="patch_48">
    <path d="M 370.568274 461.104623 
L 379.910541 461.104623 
L 379.910541 442.420089 
L 370.568274 442.420089 
z
" clip-path="url(#pe9458ad0b2)" style="fill: #d4a574; opacity: 0.55; stroke: #333333; stroke-width: 0.4; stroke-linejoin: miter"/>
   </g>
   <g id="patch_49">
    <path d="M 370.568274 439.306 
L 379.910541 439.306 
L 379.910541 420.621467 
L 370.568274 420.621467 
z
" clip-path="url(#pe9458ad0b2)" style="fill: #d4a574; opacity: 0.55; stroke: #333333; stroke-width: 0.4; stroke-linejoin: miter"/>
   </g>
   <g id="patch_50">
    <path d="M 370.568274 417.507378 
L 379.910541 417.507378 
L 379.910541 398.822845 
L 370.568274 398.822845 
z
" clip-path="url(#pe9458ad0b2)" style="fill: #d4a574; opacity: 0.55; stroke: #333333; stroke-width: 0.4; stroke-linejoin: miter"/>
   </g>
   <g id="patch_51">
    <path d="M 372.125319 397.265801 
L 390.809852 397.265801 
L 390.809852 387.923534 
L 372.125319 387.923534 
z
" clip-path="url(#pe9458ad0b2)" style="fill: #d4a574; opacity: 0.55; stroke: #333333; stroke-width: 0.4; stroke-linejoin: miter"/>
   </g>
   <g id="patch_52">
    <path d="M 383.02463 482.903245 
L 392.366896 482.903245 
L 392.366896 464.218711 
L 383.02463 464.218711 
z
" clip-path="url(#pe9458ad0b2)" style="fill: #d4a574; opacity: 0.55; stroke: #333333; stroke-width: 0.4; stroke-linejoin: miter"/>
   </g>
   <g id="patch_53">
    <path d="M 383.02463 461.104623 
L 392.366896 461.104623 
L 392.366896 442.420089 
L 383.02463 442.420089 
z
" clip-path="url(#pe9458ad0b2)" style="fill: #d4a574; opacity: 0.55; stroke: #333333; stroke-width: 0.4; stroke-linejoin: miter"/>
   </g>
   <g id="patch_54">
    <path d="M 383.02463 439.306 
L 392.366896 439.306 
L 392.366896 420.621467 
L 383.02463 420.621467 
z
" clip-path="url(#pe9458ad0b2)" style="fill: #d4a574; opacity: 0.55; stroke: #333333; stroke-width: 0.4; stroke-linejoin: miter"/>
   </g>
   <g id="patch_55">
    <path d="M 383.02463 417.507378 
L 392.366896 417.507378 
L 392.366896 398.822845 
L 383.02463 398.822845 
z
" clip-path="url(#pe9458ad0b2)" style="fill: #d4a574; opacity: 0.55; stroke: #333333; stroke-width: 0.4; stroke-linejoin: miter"/>
   </g>
   <g id="patch_56">
    <path d="M 235.624423 213.015542 
L 364.340096 213.015542 
L 364.340096 173.570416 
L 235.624423 173.570416 
L 235.624423 213.015542 
z
" clip-path="url(#pe9458ad0b2)" style="fill: none; stroke-dasharray: 2.96,1.28; stroke-dashoffset: 0; stroke: #e45756; stroke-width: 0.8; stroke-linejoin: miter"/>
   </g>
   <g id="matplotlib.axis_1">
    <g id="xtick_1">
     <g id="line2d_1">
      <path d="M 222.130038 579.44 
L 222.130038 19.942031 
" clip-path="url(#pe9458ad0b2)" style="fill: none; stroke-dasharray: 0.3,0.495; stroke-dashoffset: 0; stroke: #bfbfbf; stroke-width: 0.3"/>
     </g>
     <g id="line2d_2">
      <defs>
       <path id="m4fb14754eb" d="M 0 0 
L 0 3.5 
" style="stroke: #000000; stroke-width: 0.8"/>
      </defs>
      <g>
       <use xlink:href="#m4fb14754eb" x="222.130038" y="579.44" style="stroke: #000000; stroke-width: 0.8"/>
      </g>
     </g>
     <g id="text_1">
      
      <g transform="translate(219.903163 591.758359) scale(0.07 -0.07)">
       <defs>
        <path id="DejaVuSans-13" d="M 2034 4250 
Q 1547 4250 1301 3770 
Q 1056 3291 1056 2328 
Q 1056 1369 1301 889 
Q 1547 409 2034 409 
Q 2525 409 2770 889 
Q 3016 1369 3016 2328 
Q 3016 3291 2770 3770 
Q 2525 4250 2034 4250 
z
M 2034 4750 
Q 2819 4750 3233 4129 
Q 3647 3509 3647 2328 
Q 3647 1150 3233 529 
Q 2819 -91 2034 -91 
Q 1250 -91 836 529 
Q 422 1150 422 2328 
Q 422 3509 836 4129 
Q 1250 4750 2034 4750 
z
" transform="scale(0.015625)"/>
       </defs>
       <use xlink:href="#DejaVuSans-13"/>
      </g>
     </g>
    </g>
    <g id="xtick_2">
     <g id="line2d_3">
      <path d="M 274.031519 579.44 
L 274.031519 19.942031 
" clip-path="url(#pe9458ad0b2)" style="fill: none; stroke-dasharray: 0.3,0.495; stroke-dashoffset: 0; stroke: #bfbfbf; stroke-width: 0.3"/>
     </g>
     <g id="line2d_4">
      <g>
       <use xlink:href="#m4fb14754eb" x="274.031519" y="579.44" style="stroke: #000000; stroke-width: 0.8"/>
      </g>
     </g>
     <g id="text_2">
      
      <g transform="translate(271.804644 591.758359) scale(0.07 -0.07)">
       <defs>
        <path id="DejaVuSans-18" d="M 691 4666 
L 3169 4666 
L 3169 4134 
L 1269 4134 
L 1269 2991 
Q 1406 3038 1543 3061 
Q 1681 3084 1819 3084 
Q 2600 3084 3056 2656 
Q 3513 2228 3513 1497 
Q 3513 744 3044 326 
Q 2575 -91 1722 -91 
Q 1428 -91 1123 -41 
Q 819 9 494 109 
L 494 744 
Q 775 591 1075 516 
Q 1375 441 1709 441 
Q 2250 441 2565 725 
Q 2881 1009 2881 1497 
Q 2881 1984 2565 2268 
Q 2250 2553 1709 2553 
Q 1456 2553 1204 2497 
Q 953 2441 691 2322 
L 691 4666 
z
" transform="scale(0.015625)"/>
       </defs>
       <use xlink:href="#DejaVuSans-18"/>
      </g>
     </g>
    </g>
    <g id="xtick_3">
     <g id="line2d_5">
      <path d="M 325.933 579.44 
L 325.933 19.942031 
" clip-path="url(#pe9458ad0b2)" style="fill: none; stroke-dasharray: 0.3,0.495; stroke-dashoffset: 0; stroke: #bfbfbf; stroke-width: 0.3"/>
     </g>
     <g id="line2d_6">
      <g>
       <use xlink:href="#m4fb14754eb" x="325.933" y="579.44" style="stroke: #000000; stroke-width: 0.8"/>
      </g>
     </g>
     <g id="text_3">
      
      <g transform="translate(321.47925 591.758359) scale(0.07 -0.07)">
       <defs>
        <path id="DejaVuSans-14" d="M 794 531 
L 1825 531 
L 1825 4091 
L 703 3866 
L 703 4441 
L 1819 4666 
L 2450 4666 
L 2450 531 
L 3481 531 
L 3481 0 
L 794 0 
L 794 531 
z
" transform="scale(0.015625)"/>
       </defs>
       <use xlink:href="#DejaVuSans-14"/>
       <use xlink:href="#DejaVuSans-13" transform="translate(63.625 0)"/>
      </g>
     </g>
    </g>
    <g id="xtick_4">
     <g id="line2d_7">
      <path d="M 377.834482 579.44 
L 377.834482 19.942031 
" clip-path="url(#pe9458ad0b2)" style="fill: none; stroke-dasharray: 0.3,0.495; stroke-dashoffset: 0; stroke: #bfbfbf; stroke-width: 0.3"/>
     </g>
     <g id="line2d_8">
      <g>
       <use xlink:href="#m4fb14754eb" x="377.834482" y="579.44" style="stroke: #000000; stroke-width: 0.8"/>
      </g>
     </g>
     <g id="text_4">
      
      <g transform="translate(373.380732 591.758359) scale(0.07 -0.07)">
       <use xlink:href="#DejaVuSans-14"/>
       <use xlink:href="#DejaVuSans-18" transform="translate(63.625 0)"/>
      </g>
     </g>
    </g>
    <g id="xtick_5">
     <g id="line2d_9">
      <path d="M 429.735963 579.44 
L 429.735963 19.942031 
" clip-path="url(#pe9458ad0b2)" style="fill: none; stroke-dasharray: 0.3,0.495; stroke-dashoffset: 0; stroke: #bfbfbf; stroke-width: 0.3"/>
     </g>
     <g id="line2d_10">
      <g>
       <use xlink:href="#m4fb14754eb" x="429.735963" y="579.44" style="stroke: #000000; stroke-width: 0.8"/>
      </g>
     </g>
     <g id="text_5">
      
      <g transform="translate(425.282213 591.758359) scale(0.07 -0.07)">
       <defs>
        <path id="DejaVuSans-15" d="M 1228 531 
L 3431 531 
L 3431 0 
L 469 0 
L 469 531 
Q 828 903 1448 1529 
Q 2069 2156 2228 2338 
Q 2531 2678 2651 2914 
Q 2772 3150 2772 3378 
Q 2772 3750 2511 3984 
Q 2250 4219 1831 4219 
Q 1534 4219 1204 4116 
Q 875 4013 500 3803 
L 500 4441 
Q 881 4594 1212 4672 
Q 1544 4750 1819 4750 
Q 2544 4750 2975 4387 
Q 3406 4025 3406 3419 
Q 3406 3131 3298 2873 
Q 3191 2616 2906 2266 
Q 2828 2175 2409 1742 
Q 1991 1309 1228 531 
z
" transform="scale(0.015625)"/>
       </defs>
       <use xlink:href="#DejaVuSans-15"/>
       <use xlink:href="#DejaVuSans-13" transform="translate(63.625 0)"/>
      </g>
     </g>
    </g>
    <g id="xtick_6">
     <g id="line2d_11">
      <path d="M 481.637444 579.44 
L 481.637444 19.942031 
" clip-path="url(#pe9458ad0b2)" style="fill: none; stroke-dasharray: 0.3,0.495; stroke-dashoffset: 0; stroke: #bfbfbf; stroke-width: 0.3"/>
     </g>
     <g id="line2d_12">
      <g>
       <use xlink:href="#m4fb14754eb" x="481.637444" y="579.44" style="stroke: #000000; stroke-width: 0.8"/>
      </g>
     </g>
     <g id="text_6">
      
      <g transform="translate(477.183694 591.758359) scale(0.07 -0.07)">
       <use xlink:href="#DejaVuSans-15"/>
       <use xlink:href="#DejaVuSans-18" transform="translate(63.625 0)"/>
      </g>
     </g>
    </g>
    <g id="xtick_7">
     <g id="line2d_13">
      <path d="M 533.538926 579.44 
L 533.538926 19.942031 
" clip-path="url(#pe9458ad0b2)" style="fill: none; stroke-dasharray: 0.3,0.495; stroke-dashoffset: 0; stroke: #bfbfbf; stroke-width: 0.3"/>
     </g>
     <g id="line2d_14">
      <g>
       <use xlink:href="#m4fb14754eb" x="533.538926" y="579.44" style="stroke: #000000; stroke-width: 0.8"/>
      </g>
     </g>
     <g id="text_7">
      
      <g transform="translate(529.085176 591.758359) scale(0.07 -0.07)">
       <defs>
        <path id="DejaVuSans-16" d="M 2597 2516 
Q 3050 2419 3304 2112 
Q 3559 1806 3559 1356 
Q 3559 666 3084 287 
Q 2609 -91 1734 -91 
Q 1441 -91 1130 -33 
Q 819 25 488 141 
L 488 750 
Q 750 597 1062 519 
Q 1375 441 1716 441 
Q 2309 441 2620 675 
Q 2931 909 2931 1356 
Q 2931 1769 2642 2001 
Q 2353 2234 1838 2234 
L 1294 2234 
L 1294 2753 
L 1863 2753 
Q 2328 2753 2575 2939 
Q 2822 3125 2822 3475 
Q 2822 3834 2567 4026 
Q 2313 4219 1838 4219 
Q 1578 4219 1281 4162 
Q 984 4106 628 3988 
L 628 4550 
Q 988 4650 1302 4700 
Q 1616 4750 1894 4750 
Q 2613 4750 3031 4423 
Q 3450 4097 3450 3541 
Q 3450 3153 3228 2886 
Q 3006 2619 2597 2516 
z
" transform="scale(0.015625)"/>
       </defs>
       <use xlink:href="#DejaVuSans-16"/>
       <use xlink:href="#DejaVuSans-13" transform="translate(63.625 0)"/>
      </g>
     </g>
    </g>
    <g id="xtick_8">
     <g id="line2d_15">
      <path d="M 585.440407 579.44 
L 585.440407 19.942031 
" clip-path="url(#pe9458ad0b2)" style="fill: none; stroke-dasharray: 0.3,0.495; stroke-dashoffset: 0; stroke: #bfbfbf; stroke-width: 0.3"/>
     </g>
     <g id="line2d_16">
      <g>
       <use xlink:href="#m4fb14754eb" x="585.440407" y="579.44" style="stroke: #000000; stroke-width: 0.8"/>
      </g>
     </g>
     <g id="text_8">
      
      <g transform="translate(580.986657 591.758359) scale(0.07 -0.07)">
       <use xlink:href="#DejaVuSans-16"/>
       <use xlink:href="#DejaVuSans-18" transform="translate(63.625 0)"/>
      </g>
     </g>
    </g>
    <g id="text_9">
     
     <g transform="translate(383.12 602.758359) scale(0.07 -0.07)">
      <defs>
       <path id="DejaVuSans-58" d="M 544 1381 
L 544 3500 
L 1119 3500 
L 1119 1403 
Q 1119 906 1312 657 
Q 1506 409 1894 409 
Q 2359 409 2629 706 
Q 2900 1003 2900 1516 
L 2900 3500 
L 3475 3500 
L 3475 0 
L 2900 0 
L 2900 538 
Q 2691 219 2414 64 
Q 2138 -91 1772 -91 
Q 1169 -91 856 284 
Q 544 659 544 1381 
z
M 1991 3584 
L 1991 3584 
z
" transform="scale(0.015625)"/>
       <path id="DejaVuSans-3" transform="scale(0.015625)"/>
       <path id="DejaVuSans-b" d="M 1984 4856 
Q 1566 4138 1362 3434 
Q 1159 2731 1159 2009 
Q 1159 1288 1364 580 
Q 1569 -128 1984 -844 
L 1484 -844 
Q 1016 -109 783 600 
Q 550 1309 550 2009 
Q 550 2706 781 3412 
Q 1013 4119 1484 4856 
L 1984 4856 
z
" transform="scale(0.015625)"/>
       <path id="DejaVuSans-50" d="M 3328 2828 
Q 3544 3216 3844 3400 
Q 4144 3584 4550 3584 
Q 5097 3584 5394 3201 
Q 5691 2819 5691 2113 
L 5691 0 
L 5113 0 
L 5113 2094 
Q 5113 2597 4934 2840 
Q 4756 3084 4391 3084 
Q 3944 3084 3684 2787 
Q 3425 2491 3425 1978 
L 3425 0 
L 2847 0 
L 2847 2094 
Q 2847 2600 2669 2842 
Q 2491 3084 2119 3084 
Q 1678 3084 1418 2786 
Q 1159 2488 1159 1978 
L 1159 0 
L 581 0 
L 581 3500 
L 1159 3500 
L 1159 2956 
Q 1356 3278 1631 3431 
Q 1906 3584 2284 3584 
Q 2666 3584 2933 3390 
Q 3200 3197 3328 2828 
z
" transform="scale(0.015625)"/>
       <path id="DejaVuSans-c" d="M 513 4856 
L 1013 4856 
Q 1481 4119 1714 3412 
Q 1947 2706 1947 2009 
Q 1947 1309 1714 600 
Q 1481 -109 1013 -844 
L 513 -844 
Q 928 -128 1133 580 
Q 1338 1288 1338 2009 
Q 1338 2731 1133 3434 
Q 928 4138 513 4856 
z
" transform="scale(0.015625)"/>
      </defs>
      <use xlink:href="#DejaVuSans-58"/>
      <use xlink:href="#DejaVuSans-3" transform="translate(63.375 0)"/>
      <use xlink:href="#DejaVuSans-b" transform="translate(95.15625 0)"/>
      <use xlink:href="#DejaVuSans-50" transform="translate(134.171875 0)"/>
      <use xlink:href="#DejaVuSans-50" transform="translate(231.578125 0)"/>
      <use xlink:href="#DejaVuSans-c" transform="translate(328.984375 0)"/>
     </g>
    </g>
   </g>
   <g id="matplotlib.axis_2">
    <g id="ytick_1">
     <g id="line2d_17">
      <path d="M 206.559593 563.869556 
L 585.440407 563.869556 
" clip-path="url(#pe9458ad0b2)" style="fill: none; stroke-dasharray: 0.3,0.495; stroke-dashoffset: 0; stroke: #bfbfbf; stroke-width: 0.3"/>
     </g>
     <g id="line2d_18">
      <defs>
       <path id="mb6c7d739eb" d="M 0 0 
L -3.5 0 
" style="stroke: #000000; stroke-width: 0.8"/>
      </defs>
      <g>
       <use xlink:href="#mb6c7d739eb" x="206.559593" y="563.869556" style="stroke: #000000; stroke-width: 0.8"/>
      </g>
     </g>
     <g id="text_10">
      
      <g transform="translate(195.105843 566.528735) scale(0.07 -0.07)">
       <use xlink:href="#DejaVuSans-13"/>
      </g>
     </g>
    </g>
    <g id="ytick_2">
     <g id="line2d_19">
      <path d="M 206.559593 460.066593 
L 585.440407 460.066593 
" clip-path="url(#pe9458ad0b2)" style="fill: none; stroke-dasharray: 0.3,0.495; stroke-dashoffset: 0; stroke: #bfbfbf; stroke-width: 0.3"/>
     </g>
     <g id="line2d_20">
      <g>
       <use xlink:href="#mb6c7d739eb" x="206.559593" y="460.066593" style="stroke: #000000; stroke-width: 0.8"/>
      </g>
     </g>
     <g id="text_11">
      
      <g transform="translate(190.652093 462.725773) scale(0.07 -0.07)">
       <use xlink:href="#DejaVuSans-14"/>
       <use xlink:href="#DejaVuSans-13" transform="translate(63.625 0)"/>
      </g>
     </g>
    </g>
    <g id="ytick_3">
     <g id="line2d_21">
      <path d="M 206.559593 356.26363 
L 585.440407 356.26363 
" clip-path="url(#pe9458ad0b2)" style="fill: none; stroke-dasharray: 0.3,0.495; stroke-dashoffset: 0; stroke: #bfbfbf; stroke-width: 0.3"/>
     </g>
     <g id="line2d_22">
      <g>
       <use xlink:href="#mb6c7d739eb" x="206.559593" y="356.26363" style="stroke: #000000; stroke-width: 0.8"/>
      </g>
     </g>
     <g id="text_12">
      
      <g transform="translate(190.652093 358.92281) scale(0.07 -0.07)">
       <use xlink:href="#DejaVuSans-15"/>
       <use xlink:href="#DejaVuSans-13" transform="translate(63.625 0)"/>
      </g>
     </g>
    </g>
    <g id="ytick_4">
     <g id="line2d_23">
      <path d="M 206.559593 252.460668 
L 585.440407 252.460668 
" clip-path="url(#pe9458ad0b2)" style="fill: none; stroke-dasharray: 0.3,0.495; stroke-dashoffset: 0; stroke: #bfbfbf; stroke-width: 0.3"/>
     </g>
     <g id="line2d_24">
      <g>
       <use xlink:href="#mb6c7d739eb" x="206.559593" y="252.460668" style="stroke: #000000; stroke-width: 0.8"/>
      </g>
     </g>
     <g id="text_13">
      
      <g transform="translate(190.652093 255.119847) scale(0.07 -0.07)">
       <use xlink:href="#DejaVuSans-16"/>
       <use xlink:href="#DejaVuSans-13" transform="translate(63.625 0)"/>
      </g>
     </g>
    </g>
    <g id="ytick_5">
     <g id="line2d_25">
      <path d="M 206.559593 148.657705 
L 585.440407 148.657705 
" clip-path="url(#pe9458ad0b2)" style="fill: none; stroke-dasharray: 0.3,0.495; stroke-dashoffset: 0; stroke: #bfbfbf; stroke-width: 0.3"/>
     </g>
     <g id="line2d_26">
      <g>
       <use xlink:href="#mb6c7d739eb" x="206.559593" y="148.657705" style="stroke: #000000; stroke-width: 0.8"/>
      </g>
     </g>
     <g id="text_14">
      
      <g transform="translate(190.652093 151.316885) scale(0.07 -0.07)">
       <defs>
        <path id="DejaVuSans-17" d="M 2419 4116 
L 825 1625 
L 2419 1625 
L 2419 4116 
z
M 2253 4666 
L 3047 4666 
L 3047 1625 
L 3713 1625 
L 3713 1100 
L 3047 1100 
L 3047 0 
L 2419 0 
L 2419 1100 
L 313 1100 
L 313 1709 
L 2253 4666 
z
" transform="scale(0.015625)"/>
       </defs>
       <use xlink:href="#DejaVuSans-17"/>
       <use xlink:href="#DejaVuSans-13" transform="translate(63.625 0)"/>
      </g>
     </g>
    </g>
    <g id="ytick_6">
     <g id="line2d_27">
      <path d="M 206.559593 44.854742 
L 585.440407 44.854742 
" clip-path="url(#pe9458ad0b2)" style="fill: none; stroke-dasharray: 0.3,0.495; stroke-dashoffset: 0; stroke: #bfbfbf; stroke-width: 0.3"/>
     </g>
     <g id="line2d_28">
      <g>
       <use xlink:href="#mb6c7d739eb" x="206.559593" y="44.854742" style="stroke: #000000; stroke-width: 0.8"/>
      </g>
     </g>
     <g id="text_15">
      
      <g transform="translate(190.652093 47.513922) scale(0.07 -0.07)">
       <use xlink:href="#DejaVuSans-18"/>
       <use xlink:href="#DejaVuSans-13" transform="translate(63.625 0)"/>
      </g>
     </g>
    </g>
    <g id="text_16">
     
     <g transform="translate(184.970453 312.176172) rotate(-90) scale(0.07 -0.07)">
      <defs>
       <path id="DejaVuSans-56" d="M 2834 3397 
L 2834 2853 
Q 2591 2978 2328 3040 
Q 2066 3103 1784 3103 
Q 1356 3103 1142 2972 
Q 928 2841 928 2578 
Q 928 2378 1081 2264 
Q 1234 2150 1697 2047 
L 1894 2003 
Q 2506 1872 2764 1633 
Q 3022 1394 3022 966 
Q 3022 478 2636 193 
Q 2250 -91 1575 -91 
Q 1294 -91 989 -36 
Q 684 19 347 128 
L 347 722 
Q 666 556 975 473 
Q 1284 391 1588 391 
Q 1994 391 2212 530 
Q 2431 669 2431 922 
Q 2431 1156 2273 1281 
Q 2116 1406 1581 1522 
L 1381 1569 
Q 847 1681 609 1914 
Q 372 2147 372 2553 
Q 372 3047 722 3315 
Q 1072 3584 1716 3584 
Q 2034 3584 2315 3537 
Q 2597 3491 2834 3397 
z
" transform="scale(0.015625)"/>
      </defs>
      <use xlink:href="#DejaVuSans-56"/>
      <use xlink:href="#DejaVuSans-3" transform="translate(52.09375 0)"/>
      <use xlink:href="#DejaVuSans-b" transform="translate(83.875 0)"/>
      <use xlink:href="#DejaVuSans-50" transform="translate(122.890625 0)"/>
      <use xlink:href="#DejaVuSans-50" transform="translate(220.296875 0)"/>
      <use xlink:href="#DejaVuSans-c" transform="translate(317.703125 0)"/>
     </g>
    </g>
   </g>
   <g id="line2d_29">
    <defs>
     <path id="mdf4e71a249" d="M 0 0.75 
C 0.198902 0.75 0.389685 0.670975 0.53033 0.53033 
C 0.670975 0.389685 0.75 0.198902 0.75 0 
C 0.75 -0.198902 0.670975 -0.389685 0.53033 -0.53033 
C 0.389685 -0.670975 0.198902 -0.75 0 -0.75 
C -0.198902 -0.75 -0.389685 -0.670975 -0.53033 -0.53033 
C -0.670975 -0.389685 -0.75 -0.198902 -0.75 0 
C -0.75 0.198902 -0.670975 0.389685 -0.53033 0.53033 
C -0.389685 0.670975 -0.198902 0.75 0 0.75 
z
" style="stroke: #000000"/>
    </defs>
    <g clip-path="url(#pe9458ad0b2)">
     <use xlink:href="#mdf4e71a249" x="283.373786" y="335.503038" style="stroke: #000000"/>
    </g>
   </g>
   <g id="line2d_30">
    <g clip-path="url(#pe9458ad0b2)">
     <use xlink:href="#mdf4e71a249" x="330.085119" y="220.281749" style="stroke: #000000"/>
    </g>
   </g>
   <g id="line2d_31">
    <g clip-path="url(#pe9458ad0b2)">
     <use xlink:href="#mdf4e71a249" x="310.362556" y="117.516816" style="stroke: #000000"/>
    </g>
   </g>
   <g id="line2d_32">
    <path d="M 283.373786 335.503038 
L 283.373786 262.840964 
" clip-path="url(#pe9458ad0b2)" style="fill: none; stroke: #5c3a1e; stroke-width: 1.6; stroke-linecap: round"/>
   </g>
   <g id="line2d_33">
    <path d="M 330.085119 220.281749 
L 330.085119 292.943823 
" clip-path="url(#pe9458ad0b2)" style="fill: none; stroke: #5c3a1e; stroke-width: 1.6; stroke-linecap: round"/>
   </g>
   <g id="line2d_34">
    <path d="M 310.362556 117.516816 
L 310.362556 181.874653 
" clip-path="url(#pe9458ad0b2)" style="fill: none; stroke: #5c3a1e; stroke-width: 1.6; stroke-linecap: round"/>
   </g>
   <g id="patch_57">
    <path d="M 206.559593 579.44 
L 206.559593 19.942031 
" style="fill: none; stroke: #000000; stroke-width: 0.5; stroke-linejoin: miter; stroke-linecap: square"/>
   </g>
   <g id="patch_58">
    <path d="M 585.440407 579.44 
L 585.440407 19.942031 
" style="fill: none; stroke: #000000; stroke-width: 0.5; stroke-linejoin: miter; stroke-linecap: square"/>
   </g>
   <g id="patch_59">
    <path d="M 206.559593 579.44 
L 585.440407 579.44 
" style="fill: none; stroke: #000000; stroke-width: 0.5; stroke-linejoin: miter; stroke-linecap: square"/>
   </g>
   <g id="patch_60">
    <path d="M 206.559593 19.942031 
L 585.440407 19.942031 
" style="fill: none; stroke: #000000; stroke-width: 0.5; stroke-linejoin: miter; stroke-linecap: square"/>
   </g>
   <g id="text_17">
    
    <g transform="translate(286.487874 332.388949) scale(0.06 -0.06)">
     <defs>
      <path id="DejaVuSans-36" d="M 3425 4513 
L 3425 3897 
Q 3066 4069 2747 4153 
Q 2428 4238 2131 4238 
Q 1616 4238 1336 4038 
Q 1056 3838 1056 3469 
Q 1056 3159 1242 3001 
Q 1428 2844 1947 2747 
L 2328 2669 
Q 3034 2534 3370 2195 
Q 3706 1856 3706 1288 
Q 3706 609 3251 259 
Q 2797 -91 1919 -91 
Q 1588 -91 1214 -16 
Q 841 59 441 206 
L 441 856 
Q 825 641 1194 531 
Q 1563 422 1919 422 
Q 2459 422 2753 634 
Q 3047 847 3047 1241 
Q 3047 1584 2836 1778 
Q 2625 1972 2144 2069 
L 1759 2144 
Q 1053 2284 737 2584 
Q 422 2884 422 3419 
Q 422 4038 858 4394 
Q 1294 4750 2059 4750 
Q 2388 4750 2728 4690 
Q 3069 4631 3425 4513 
z
" transform="scale(0.015625)"/>
      <path id="DejaVuSans-2c" d="M 628 4666 
L 1259 4666 
L 1259 0 
L 628 0 
L 628 4666 
z
" transform="scale(0.015625)"/>
      <path id="DejaVuSans-2a" d="M 3809 666 
L 3809 1919 
L 2778 1919 
L 2778 2438 
L 4434 2438 
L 4434 434 
Q 4069 175 3628 42 
Q 3188 -91 2688 -91 
Q 1594 -91 976 548 
Q 359 1188 359 2328 
Q 359 3472 976 4111 
Q 1594 4750 2688 4750 
Q 3144 4750 3555 4637 
Q 3966 4525 4313 4306 
L 4313 3634 
Q 3963 3931 3569 4081 
Q 3175 4231 2741 4231 
Q 1884 4231 1454 3753 
Q 1025 3275 1025 2328 
Q 1025 1384 1454 906 
Q 1884 428 2741 428 
Q 3075 428 3337 486 
Q 3600 544 3809 666 
z
" transform="scale(0.015625)"/>
     </defs>
     <use xlink:href="#DejaVuSans-36"/>
     <use xlink:href="#DejaVuSans-2c" transform="translate(63.484375 0)"/>
     <use xlink:href="#DejaVuSans-2a" transform="translate(92.984375 0)"/>
     <use xlink:href="#DejaVuSans-14" transform="translate(170.46875 0)"/>
    </g>
   </g>
   <g id="text_18">
    
    <g transform="translate(333.199208 217.16766) scale(0.06 -0.06)">
     <use xlink:href="#DejaVuSans-36"/>
     <use xlink:href="#DejaVuSans-2c" transform="translate(63.484375 0)"/>
     <use xlink:href="#DejaVuSans-2a" transform="translate(92.984375 0)"/>
     <use xlink:href="#DejaVuSans-15" transform="translate(170.46875 0)"/>
    </g>
   </g>
   <g id="text_19">
    
    <g transform="translate(313.476645 114.402727) scale(0.06 -0.06)">
     <defs>
      <path id="DejaVuSans-35" d="M 2841 2188 
Q 3044 2119 3236 1894 
Q 3428 1669 3622 1275 
L 4263 0 
L 3584 0 
L 2988 1197 
Q 2756 1666 2539 1819 
Q 2322 1972 1947 1972 
L 1259 1972 
L 1259 0 
L 628 0 
L 628 4666 
L 2053 4666 
Q 2853 4666 3247 4331 
Q 3641 3997 3641 3322 
Q 3641 2881 3436 2590 
Q 3231 2300 2841 2188 
z
M 1259 4147 
L 1259 2491 
L 2053 2491 
Q 2509 2491 2742 2702 
Q 2975 2913 2975 3322 
Q 2975 3731 2742 3939 
Q 2509 4147 2053 4147 
L 1259 4147 
z
" transform="scale(0.015625)"/>
      <path id="DejaVuSans-28" d="M 628 4666 
L 3578 4666 
L 3578 4134 
L 1259 4134 
L 1259 2753 
L 3481 2753 
L 3481 2222 
L 1259 2222 
L 1259 531 
L 3634 531 
L 3634 0 
L 628 0 
L 628 4666 
z
" transform="scale(0.015625)"/>
      <path id="DejaVuSans-29" d="M 628 4666 
L 3309 4666 
L 3309 4134 
L 1259 4134 
L 1259 2759 
L 3109 2759 
L 3109 2228 
L 1259 2228 
L 1259 0 
L 628 0 
L 628 4666 
z
" transform="scale(0.015625)"/>
     </defs>
     <use xlink:href="#DejaVuSans-35"/>
     <use xlink:href="#DejaVuSans-28" transform="translate(69.484375 0)"/>
     <use xlink:href="#DejaVuSans-29" transform="translate(132.671875 0)"/>
    </g>
   </g>
   <g id="text_20">
    <g id="patch_61">
     <path d="M 425.583844 161.336663 
L 592.820719 161.336663 
Q 594.920719 161.336663 594.920719 159.236663 
L 594.920719 65.615335 
Q 594.920719 63.515335 592.820719 63.515335 
L 425.583844 63.515335 
Q 423.483844 63.515335 423.483844 65.615335 
L 423.483844 159.236663 
Q 423.483844 161.336663 425.583844 161.336663 
z
" style="fill: #ffffff; stroke: #666666; stroke-linejoin: miter"/>
    </g>
    
    <g transform="translate(425.583844 70.774983) scale(0.06 -0.06)">
     <defs>
      <path id="DejaVuSans-44" d="M 2194 1759 
Q 1497 1759 1228 1600 
Q 959 1441 959 1056 
Q 959 750 1161 570 
Q 1363 391 1709 391 
Q 2188 391 2477 730 
Q 2766 1069 2766 1631 
L 2766 1759 
L 2194 1759 
z
M 3341 1997 
L 3341 0 
L 2766 0 
L 2766 531 
Q 2569 213 2275 61 
Q 1981 -91 1556 -91 
Q 1019 -91 701 211 
Q 384 513 384 1019 
Q 384 1609 779 1909 
Q 1175 2209 1959 2209 
L 2766 2209 
L 2766 2266 
Q 2766 2663 2505 2880 
Q 2244 3097 1772 3097 
Q 1472 3097 1187 3025 
Q 903 2953 641 2809 
L 641 3341 
Q 956 3463 1253 3523 
Q 1550 3584 1831 3584 
Q 2591 3584 2966 3190 
Q 3341 2797 3341 1997 
z
" transform="scale(0.015625)"/>
      <path id="DejaVuSans-55" d="M 2631 2963 
Q 2534 3019 2420 3045 
Q 2306 3072 2169 3072 
Q 1681 3072 1420 2755 
Q 1159 2438 1159 1844 
L 1159 0 
L 581 0 
L 581 3500 
L 1159 3500 
L 1159 2956 
Q 1341 3275 1631 3429 
Q 1922 3584 2338 3584 
Q 2397 3584 2469 3576 
Q 2541 3569 2628 3553 
L 2631 2963 
z
" transform="scale(0.015625)"/>
      <path id="DejaVuSans-46" d="M 3122 3366 
L 3122 2828 
Q 2878 2963 2633 3030 
Q 2388 3097 2138 3097 
Q 1578 3097 1268 2742 
Q 959 2388 959 1747 
Q 959 1106 1268 751 
Q 1578 397 2138 397 
Q 2388 397 2633 464 
Q 2878 531 3122 666 
L 3122 134 
Q 2881 22 2623 -34 
Q 2366 -91 2075 -91 
Q 1284 -91 818 406 
Q 353 903 353 1747 
Q 353 2603 823 3093 
Q 1294 3584 2113 3584 
Q 2378 3584 2631 3529 
Q 2884 3475 3122 3366 
z
" transform="scale(0.015625)"/>
      <path id="DejaVuSans-4b" d="M 3513 2113 
L 3513 0 
L 2938 0 
L 2938 2094 
Q 2938 2591 2744 2837 
Q 2550 3084 2163 3084 
Q 1697 3084 1428 2787 
Q 1159 2491 1159 1978 
L 1159 0 
L 581 0 
L 581 4863 
L 1159 4863 
L 1159 2956 
Q 1366 3272 1645 3428 
Q 1925 3584 2291 3584 
Q 2894 3584 3203 3211 
Q 3513 2838 3513 2113 
z
" transform="scale(0.015625)"/>
      <path id="DejaVuSans-24" d="M 2188 4044 
L 1331 1722 
L 3047 1722 
L 2188 4044 
z
M 1831 4666 
L 2547 4666 
L 4325 0 
L 3669 0 
L 3244 1197 
L 1141 1197 
L 716 0 
L 50 0 
L 1831 4666 
z
" transform="scale(0.015625)"/>
      <path id="DejaVuSans-48" d="M 3597 1894 
L 3597 1613 
L 953 1613 
Q 991 1019 1311 708 
Q 1631 397 2203 397 
Q 2534 397 2845 478 
Q 3156 559 3463 722 
L 3463 178 
Q 3153 47 2828 -22 
Q 2503 -91 2169 -91 
Q 1331 -91 842 396 
Q 353 884 353 1716 
Q 353 2575 817 3079 
Q 1281 3584 2069 3584 
Q 2775 3584 3186 3129 
Q 3597 2675 3597 1894 
z
M 3022 2063 
Q 3016 2534 2758 2815 
Q 2500 3097 2075 3097 
Q 1594 3097 1305 2825 
Q 1016 2553 972 2059 
L 3022 2063 
z
" transform="scale(0.015625)"/>
      <path id="DejaVuSans-4f" d="M 603 4863 
L 1178 4863 
L 1178 0 
L 603 0 
L 603 4863 
z
" transform="scale(0.015625)"/>
      <path id="DejaVuSans-4c" d="M 603 3500 
L 1178 3500 
L 1178 0 
L 603 0 
L 603 3500 
z
M 603 4863 
L 1178 4863 
L 1178 4134 
L 603 4134 
L 603 4863 
z
" transform="scale(0.015625)"/>
      <path id="DejaVuSans-49" d="M 2375 4863 
L 2375 4384 
L 1825 4384 
Q 1516 4384 1395 4259 
Q 1275 4134 1275 3809 
L 1275 3500 
L 2222 3500 
L 2222 3053 
L 1275 3053 
L 1275 0 
L 697 0 
L 697 3053 
L 147 3053 
L 147 3500 
L 697 3500 
L 697 3744 
Q 697 4328 969 4595 
Q 1241 4863 1831 4863 
L 2375 4863 
z
" transform="scale(0.015625)"/>
     </defs>
     <use xlink:href="#DejaVuSans-44"/>
     <use xlink:href="#DejaVuSans-55" transform="translate(61.28125 0)"/>
     <use xlink:href="#DejaVuSans-46" transform="translate(100.1875 0)"/>
     <use xlink:href="#DejaVuSans-4b" transform="translate(155.171875 0)"/>
     <use xlink:href="#DejaVuSans-3" transform="translate(218.546875 0)"/>
     <use xlink:href="#DejaVuSans-24" transform="translate(250.328125 0)"/>
     <use xlink:href="#DejaVuSans-3" transform="translate(318.734375 0)"/>
     <use xlink:href="#DejaVuSans-3" transform="translate(350.515625 0)"/>
     <use xlink:href="#DejaVuSans-46" transform="translate(382.296875 0)"/>
     <use xlink:href="#DejaVuSans-48" transform="translate(437.28125 0)"/>
     <use xlink:href="#DejaVuSans-4f" transform="translate(498.8125 0)"/>
     <use xlink:href="#DejaVuSans-4f" transform="translate(526.59375 0)"/>
     <use xlink:href="#DejaVuSans-3" transform="translate(554.375 0)"/>
     <use xlink:href="#DejaVuSans-18" transform="translate(586.15625 0)"/>
     <use xlink:href="#DejaVuSans-13" transform="translate(649.78125 0)"/>
     <use xlink:href="#DejaVuSans-14" transform="translate(713.40625 0)"/>
     <use xlink:href="#DejaVuSans-13" transform="translate(777.03125 0)"/>
     <use xlink:href="#DejaVuSans-14" transform="translate(840.65625 0)"/>
     <use xlink:href="#DejaVuSans-18" transform="translate(904.28125 0)"/>
     <use xlink:href="#DejaVuSans-3" transform="translate(967.90625 0)"/>
     <use xlink:href="#DejaVuSans-3" transform="translate(999.6875 0)"/>
     <use xlink:href="#DejaVuSans-56" transform="translate(1031.46875 0)"/>
     <use xlink:href="#DejaVuSans-48" transform="translate(1083.5625 0)"/>
     <use xlink:href="#DejaVuSans-55" transform="translate(1145.09375 0)"/>
     <use xlink:href="#DejaVuSans-4c" transform="translate(1186.203125 0)"/>
     <use xlink:href="#DejaVuSans-48" transform="translate(1213.984375 0)"/>
     <use xlink:href="#DejaVuSans-56" transform="translate(1275.515625 0)"/>
     <use xlink:href="#DejaVuSans-3" transform="translate(1327.609375 0)"/>
     <use xlink:href="#DejaVuSans-3" transform="translate(1359.390625 0)"/>
     <use xlink:href="#DejaVuSans-4c" transform="translate(1391.171875 0)"/>
     <use xlink:href="#DejaVuSans-49" transform="translate(1418.953125 0)"/>
     <use xlink:href="#DejaVuSans-44" transform="translate(1454.15625 0)"/>
     <use xlink:href="#DejaVuSans-46" transform="translate(1515.4375 0)"/>
     <use xlink:href="#DejaVuSans-48" transform="translate(1570.421875 0)"/>
     <use xlink:href="#DejaVuSans-3" transform="translate(1631.953125 0)"/>
     <use xlink:href="#DejaVuSans-2c" transform="translate(1663.734375 0)"/>
     <use xlink:href="#DejaVuSans-2c" transform="translate(1693.234375 0)"/>
    </g>
    
    <g transform="translate(425.583844 77.976624) scale(0.06 -0.06)">
     <defs>
      <path id="DejaVuSans-3a" d="M 213 4666 
L 850 4666 
L 1831 722 
L 2809 4666 
L 3519 4666 
L 4500 722 
L 5478 4666 
L 6119 4666 
L 4947 0 
L 4153 0 
L 3169 4050 
L 2175 0 
L 1381 0 
L 213 4666 
z
" transform="scale(0.015625)"/>
      <path id="DejaVuSans-1c" d="M 703 97 
L 703 672 
Q 941 559 1184 500 
Q 1428 441 1663 441 
Q 2288 441 2617 861 
Q 2947 1281 2994 2138 
Q 2813 1869 2534 1725 
Q 2256 1581 1919 1581 
Q 1219 1581 811 2004 
Q 403 2428 403 3163 
Q 403 3881 828 4315 
Q 1253 4750 1959 4750 
Q 2769 4750 3195 4129 
Q 3622 3509 3622 2328 
Q 3622 1225 3098 567 
Q 2575 -91 1691 -91 
Q 1453 -91 1209 -44 
Q 966 3 703 97 
z
M 1959 2075 
Q 2384 2075 2632 2365 
Q 2881 2656 2881 3163 
Q 2881 3666 2632 3958 
Q 2384 4250 1959 4250 
Q 1534 4250 1286 3958 
Q 1038 3666 1038 3163 
Q 1038 2656 1286 2365 
Q 1534 2075 1959 2075 
z
" transform="scale(0.015625)"/>
      <path id="DejaVuSans-2f" d="M 628 4666 
L 1259 4666 
L 1259 531 
L 3531 531 
L 3531 0 
L 628 0 
L 628 4666 
z
" transform="scale(0.015625)"/>
      <path id="DejaVuSans-27" d="M 1259 4147 
L 1259 519 
L 2022 519 
Q 2988 519 3436 956 
Q 3884 1394 3884 2338 
Q 3884 3275 3436 3711 
Q 2988 4147 2022 4147 
L 1259 4147 
z
M 628 4666 
L 1925 4666 
Q 3281 4666 3915 4102 
Q 4550 3538 4550 2338 
Q 4550 1131 3912 565 
Q 3275 0 1925 0 
L 628 0 
L 628 4666 
z
" transform="scale(0.015625)"/>
      <path id="DejaVuSans-42" d="M 3263 -1063 
L 3263 -1509 
L -63 -1509 
L -63 -1063 
L 3263 -1063 
z
" transform="scale(0.015625)"/>
      <path id="DejaVuSans-3c" d="M -13 4666 
L 666 4666 
L 1959 2747 
L 3244 4666 
L 3922 4666 
L 2272 2222 
L 2272 0 
L 1638 0 
L 1638 2222 
L -13 4666 
z
" transform="scale(0.015625)"/>
      <path id="DejaVuSans-1b" d="M 2034 2216 
Q 1584 2216 1326 1975 
Q 1069 1734 1069 1313 
Q 1069 891 1326 650 
Q 1584 409 2034 409 
Q 2484 409 2743 651 
Q 3003 894 3003 1313 
Q 3003 1734 2745 1975 
Q 2488 2216 2034 2216 
z
M 1403 2484 
Q 997 2584 770 2862 
Q 544 3141 544 3541 
Q 544 4100 942 4425 
Q 1341 4750 2034 4750 
Q 2731 4750 3128 4425 
Q 3525 4100 3525 3541 
Q 3525 3141 3298 2862 
Q 3072 2584 2669 2484 
Q 3125 2378 3379 2068 
Q 3634 1759 3634 1313 
Q 3634 634 3220 271 
Q 2806 -91 2034 -91 
Q 1263 -91 848 271 
Q 434 634 434 1313 
Q 434 1759 690 2068 
Q 947 2378 1403 2484 
z
M 1172 3481 
Q 1172 3119 1398 2916 
Q 1625 2713 2034 2713 
Q 2441 2713 2670 2916 
Q 2900 3119 2900 3481 
Q 2900 3844 2670 4047 
Q 2441 4250 2034 4250 
Q 1625 4250 1398 4047 
Q 1172 3844 1172 3481 
z
" transform="scale(0.015625)"/>
      <path id="DejaVuSans-57" d="M 1172 4494 
L 1172 3500 
L 2356 3500 
L 2356 3053 
L 1172 3053 
L 1172 1153 
Q 1172 725 1289 603 
Q 1406 481 1766 481 
L 2356 481 
L 2356 0 
L 1766 0 
Q 1100 0 847 248 
Q 594 497 594 1153 
L 594 3053 
L 172 3053 
L 172 3500 
L 594 3500 
L 594 4494 
L 1172 4494 
z
" transform="scale(0.015625)"/>
      <path id="DejaVuSans-51" d="M 3513 2113 
L 3513 0 
L 2938 0 
L 2938 2094 
Q 2938 2591 2744 2837 
Q 2550 3084 2163 3084 
Q 1697 3084 1428 2787 
Q 1159 2491 1159 1978 
L 1159 0 
L 581 0 
L 581 3500 
L 1159 3500 
L 1159 2956 
Q 1366 3272 1645 3428 
Q 1925 3584 2291 3584 
Q 2894 3584 3203 3211 
Q 3513 2838 3513 2113 
z
" transform="scale(0.015625)"/>
      <path id="DejaVuSans-47" d="M 2906 2969 
L 2906 4863 
L 3481 4863 
L 3481 0 
L 2906 0 
L 2906 525 
Q 2725 213 2448 61 
Q 2172 -91 1784 -91 
Q 1150 -91 751 415 
Q 353 922 353 1747 
Q 353 2572 751 3078 
Q 1150 3584 1784 3584 
Q 2172 3584 2448 3432 
Q 2725 3281 2906 2969 
z
M 947 1747 
Q 947 1113 1208 752 
Q 1469 391 1925 391 
Q 2381 391 2643 752 
Q 2906 1113 2906 1747 
Q 2906 2381 2643 2742 
Q 2381 3103 1925 3103 
Q 1469 3103 1208 2742 
Q 947 2381 947 1747 
z
" transform="scale(0.015625)"/>
      <path id="DejaVuSans-52" d="M 1959 3097 
Q 1497 3097 1228 2736 
Q 959 2375 959 1747 
Q 959 1119 1226 758 
Q 1494 397 1959 397 
Q 2419 397 2687 759 
Q 2956 1122 2956 1747 
Q 2956 2369 2687 2733 
Q 2419 3097 1959 3097 
z
M 1959 3584 
Q 2709 3584 3137 3096 
Q 3566 2609 3566 1747 
Q 3566 888 3137 398 
Q 2709 -91 1959 -91 
Q 1206 -91 779 398 
Q 353 888 353 1747 
Q 353 2609 779 3096 
Q 1206 3584 1959 3584 
z
" transform="scale(0.015625)"/>
      <path id="DejaVuSans-13ae" d="M 4531 4863 
L 4531 4384 
L 3981 4384 
Q 3672 4384 3551 4259 
Q 3431 4134 3431 3809 
L 3431 3500 
L 4378 3500 
L 4378 3053 
L 3431 3053 
L 3431 0 
L 2853 0 
L 2853 3053 
L 1275 3053 
L 1275 0 
L 697 0 
L 697 3053 
L 147 3053 
L 147 3500 
L 697 3500 
L 697 3744 
Q 697 4328 969 4595 
Q 1241 4863 1831 4863 
L 2375 4863 
L 2375 4384 
L 1825 4384 
Q 1516 4384 1394 4259 
Q 1275 4134 1275 3809 
L 1275 3500 
L 2853 3500 
L 2853 3744 
Q 2853 4328 3125 4595 
Q 3397 4863 3988 4863 
L 4531 4863 
z
" transform="scale(0.015625)"/>
      <path id="DejaVuSans-e" d="M 2944 4013 
L 2944 2272 
L 4684 2272 
L 4684 1741 
L 2944 1741 
L 2944 0 
L 2419 0 
L 2419 1741 
L 678 1741 
L 678 2272 
L 2419 2272 
L 2419 4013 
L 2944 4013 
z
" transform="scale(0.015625)"/>
     </defs>
     <use xlink:href="#DejaVuSans-3a"/>
     <use xlink:href="#DejaVuSans-3" transform="translate(98.875 0)"/>
     <use xlink:href="#DejaVuSans-14" transform="translate(130.65625 0)"/>
     <use xlink:href="#DejaVuSans-1c" transform="translate(194.28125 0)"/>
     <use xlink:href="#DejaVuSans-3" transform="translate(257.90625 0)"/>
     <use xlink:href="#DejaVuSans-3" transform="translate(289.6875 0)"/>
     <use xlink:href="#DejaVuSans-2f" transform="translate(321.46875 0)"/>
     <use xlink:href="#DejaVuSans-2c" transform="translate(377.1875 0)"/>
     <use xlink:href="#DejaVuSans-27" transform="translate(406.6875 0)"/>
     <use xlink:href="#DejaVuSans-42" transform="translate(483.6875 0)"/>
     <use xlink:href="#DejaVuSans-3c" transform="translate(533.6875 0)"/>
     <use xlink:href="#DejaVuSans-3" transform="translate(594.765625 0)"/>
     <use xlink:href="#DejaVuSans-1b" transform="translate(626.546875 0)"/>
     <use xlink:href="#DejaVuSans-3" transform="translate(690.171875 0)"/>
     <use xlink:href="#DejaVuSans-3" transform="translate(721.953125 0)"/>
     <use xlink:href="#DejaVuSans-56" transform="translate(753.734375 0)"/>
     <use xlink:href="#DejaVuSans-57" transform="translate(805.828125 0)"/>
     <use xlink:href="#DejaVuSans-44" transform="translate(845.03125 0)"/>
     <use xlink:href="#DejaVuSans-51" transform="translate(906.3125 0)"/>
     <use xlink:href="#DejaVuSans-47" transform="translate(969.6875 0)"/>
     <use xlink:href="#DejaVuSans-52" transform="translate(1033.171875 0)"/>
     <use xlink:href="#DejaVuSans-13ae" transform="translate(1094.359375 0)"/>
     <use xlink:href="#DejaVuSans-3" transform="translate(1163.25 0)"/>
     <use xlink:href="#DejaVuSans-16" transform="translate(1195.03125 0)"/>
     <use xlink:href="#DejaVuSans-3" transform="translate(1258.65625 0)"/>
     <use xlink:href="#DejaVuSans-3" transform="translate(1290.4375 0)"/>
     <use xlink:href="#DejaVuSans-44" transform="translate(1322.21875 0)"/>
     <use xlink:href="#DejaVuSans-55" transform="translate(1383.5 0)"/>
     <use xlink:href="#DejaVuSans-46" transform="translate(1422.40625 0)"/>
     <use xlink:href="#DejaVuSans-e" transform="translate(1477.390625 0)"/>
     <use xlink:href="#DejaVuSans-3" transform="translate(1561.1875 0)"/>
     <use xlink:href="#DejaVuSans-13" transform="translate(1592.96875 0)"/>
    </g>
    
    <g transform="translate(425.583844 85.178265) scale(0.06 -0.06)">
     <defs>
      <path id="DejaVuSans-1a" d="M 525 4666 
L 3525 4666 
L 3525 4397 
L 1831 0 
L 1172 0 
L 2766 4134 
L 525 4134 
L 525 4666 
z
" transform="scale(0.015625)"/>
      <path id="DejaVuSans-11" d="M 684 794 
L 1344 794 
L 1344 0 
L 684 0 
L 684 794 
z
" transform="scale(0.015625)"/>
      <path id="DejaVuSans-30" d="M 628 4666 
L 1569 4666 
L 2759 1491 
L 3956 4666 
L 4897 4666 
L 4897 0 
L 4281 0 
L 4281 4097 
L 3078 897 
L 2444 897 
L 1241 4097 
L 1241 0 
L 628 0 
L 628 4666 
z
" transform="scale(0.015625)"/>
      <path id="DejaVuSans-4a" d="M 2906 1791 
Q 2906 2416 2648 2759 
Q 2391 3103 1925 3103 
Q 1463 3103 1205 2759 
Q 947 2416 947 1791 
Q 947 1169 1205 825 
Q 1463 481 1925 481 
Q 2391 481 2648 825 
Q 2906 1169 2906 1791 
z
M 3481 434 
Q 3481 -459 3084 -895 
Q 2688 -1331 1869 -1331 
Q 1566 -1331 1297 -1286 
Q 1028 -1241 775 -1147 
L 775 -588 
Q 1028 -725 1275 -790 
Q 1522 -856 1778 -856 
Q 2344 -856 2625 -561 
Q 2906 -266 2906 331 
L 2906 616 
Q 2728 306 2450 153 
Q 2172 0 1784 0 
Q 1141 0 747 490 
Q 353 981 353 1791 
Q 353 2603 747 3093 
Q 1141 3584 1784 3584 
Q 2172 3584 2450 3431 
Q 2728 3278 2906 2969 
L 2906 3500 
L 3481 3500 
L 3481 434 
z
" transform="scale(0.015625)"/>
     </defs>
     <use xlink:href="#DejaVuSans-46"/>
     <use xlink:href="#DejaVuSans-4b" transform="translate(54.984375 0)"/>
     <use xlink:href="#DejaVuSans-52" transform="translate(118.359375 0)"/>
     <use xlink:href="#DejaVuSans-55" transform="translate(179.546875 0)"/>
     <use xlink:href="#DejaVuSans-47" transform="translate(218.90625 0)"/>
     <use xlink:href="#DejaVuSans-3" transform="translate(282.390625 0)"/>
     <use xlink:href="#DejaVuSans-17" transform="translate(314.171875 0)"/>
     <use xlink:href="#DejaVuSans-1a" transform="translate(377.796875 0)"/>
     <use xlink:href="#DejaVuSans-11" transform="translate(441.421875 0)"/>
     <use xlink:href="#DejaVuSans-1c" transform="translate(473.203125 0)"/>
     <use xlink:href="#DejaVuSans-13" transform="translate(536.828125 0)"/>
     <use xlink:href="#DejaVuSans-3" transform="translate(600.453125 0)"/>
     <use xlink:href="#DejaVuSans-3" transform="translate(632.234375 0)"/>
     <use xlink:href="#DejaVuSans-30" transform="translate(664.015625 0)"/>
     <use xlink:href="#DejaVuSans-14" transform="translate(750.296875 0)"/>
     <use xlink:href="#DejaVuSans-3" transform="translate(813.921875 0)"/>
     <use xlink:href="#DejaVuSans-4a" transform="translate(845.703125 0)"/>
     <use xlink:href="#DejaVuSans-44" transform="translate(909.1875 0)"/>
     <use xlink:href="#DejaVuSans-57" transform="translate(970.46875 0)"/>
     <use xlink:href="#DejaVuSans-48" transform="translate(1009.671875 0)"/>
     <use xlink:href="#DejaVuSans-3" transform="translate(1071.203125 0)"/>
     <use xlink:href="#DejaVuSans-18" transform="translate(1102.984375 0)"/>
     <use xlink:href="#DejaVuSans-13" transform="translate(1166.609375 0)"/>
     <use xlink:href="#DejaVuSans-11" transform="translate(1230.234375 0)"/>
     <use xlink:href="#DejaVuSans-1c" transform="translate(1262.015625 0)"/>
     <use xlink:href="#DejaVuSans-13" transform="translate(1325.640625 0)"/>
    </g>
    
    <g transform="translate(425.583844 92.379905) scale(0.06 -0.06)">
     <defs>
      <path id="DejaVuSans-74" d="M 838 2444 
L 2163 2444 
L 2163 2088 
L 294 2088 
L 294 2431 
Q 400 2528 597 2703 
Q 1672 3656 1672 3950 
Q 1672 4156 1509 4282 
Q 1347 4409 1081 4409 
Q 919 4409 728 4354 
Q 538 4300 313 4191 
L 313 4575 
Q 553 4663 761 4706 
Q 969 4750 1147 4750 
Q 1600 4750 1872 4544 
Q 2144 4338 2144 4000 
Q 2144 3566 1109 2678 
Q 934 2528 838 2444 
z
" transform="scale(0.015625)"/>
      <path id="DejaVuSans-12" d="M 1625 4666 
L 2156 4666 
L 531 -594 
L 0 -594 
L 1625 4666 
z
" transform="scale(0.015625)"/>
     </defs>
     <use xlink:href="#DejaVuSans-49"/>
     <use xlink:href="#DejaVuSans-55" transform="translate(35.203125 0)"/>
     <use xlink:href="#DejaVuSans-48" transform="translate(74.109375 0)"/>
     <use xlink:href="#DejaVuSans-48" transform="translate(135.640625 0)"/>
     <use xlink:href="#DejaVuSans-3" transform="translate(197.171875 0)"/>
     <use xlink:href="#DejaVuSans-14" transform="translate(228.953125 0)"/>
     <use xlink:href="#DejaVuSans-18" transform="translate(292.578125 0)"/>
     <use xlink:href="#DejaVuSans-14" transform="translate(356.203125 0)"/>
     <use xlink:href="#DejaVuSans-11" transform="translate(419.828125 0)"/>
     <use xlink:href="#DejaVuSans-14" transform="translate(451.609375 0)"/>
     <use xlink:href="#DejaVuSans-3" transform="translate(515.234375 0)"/>
     <use xlink:href="#DejaVuSans-50" transform="translate(547.015625 0)"/>
     <use xlink:href="#DejaVuSans-50" transform="translate(644.421875 0)"/>
     <use xlink:href="#DejaVuSans-74" transform="translate(741.828125 0)"/>
     <use xlink:href="#DejaVuSans-3" transform="translate(781.921875 0)"/>
     <use xlink:href="#DejaVuSans-3" transform="translate(813.703125 0)"/>
     <use xlink:href="#DejaVuSans-13" transform="translate(845.484375 0)"/>
     <use xlink:href="#DejaVuSans-17" transform="translate(909.109375 0)"/>
     <use xlink:href="#DejaVuSans-13" transform="translate(972.734375 0)"/>
     <use xlink:href="#DejaVuSans-15" transform="translate(1036.359375 0)"/>
     <use xlink:href="#DejaVuSans-3" transform="translate(1099.984375 0)"/>
     <use xlink:href="#DejaVuSans-15" transform="translate(1131.765625 0)"/>
     <use xlink:href="#DejaVuSans-17" transform="translate(1195.390625 0)"/>
     <use xlink:href="#DejaVuSans-12" transform="translate(1259.015625 0)"/>
     <use xlink:href="#DejaVuSans-15" transform="translate(1292.703125 0)"/>
     <use xlink:href="#DejaVuSans-18" transform="translate(1356.328125 0)"/>
    </g>
    
    <g transform="translate(425.583844 99.581546) scale(0.06 -0.06)">
     <defs>
      <path id="DejaVuSans-45" d="M 3116 1747 
Q 3116 2381 2855 2742 
Q 2594 3103 2138 3103 
Q 1681 3103 1420 2742 
Q 1159 2381 1159 1747 
Q 1159 1113 1420 752 
Q 1681 391 2138 391 
Q 2594 391 2855 752 
Q 3116 1113 3116 1747 
z
M 1159 2969 
Q 1341 3281 1617 3432 
Q 1894 3584 2278 3584 
Q 2916 3584 3314 3078 
Q 3713 2572 3713 1747 
Q 3713 922 3314 415 
Q 2916 -91 2278 -91 
Q 1894 -91 1617 61 
Q 1341 213 1159 525 
L 1159 0 
L 581 0 
L 581 4863 
L 1159 4863 
L 1159 2969 
z
" transform="scale(0.015625)"/>
      <path id="DejaVuSans-5c" d="M 2059 -325 
Q 1816 -950 1584 -1140 
Q 1353 -1331 966 -1331 
L 506 -1331 
L 506 -850 
L 844 -850 
Q 1081 -850 1212 -737 
Q 1344 -625 1503 -206 
L 1606 56 
L 191 3500 
L 800 3500 
L 1894 763 
L 2988 3500 
L 3597 3500 
L 2059 -325 
z
" transform="scale(0.015625)"/>
      <path id="DejaVuSans-af5" d="M 313 1978 
L 2888 1978 
L 2888 1528 
L 313 1528 
L 313 1978 
z
" transform="scale(0.015625)"/>
      <path id="DejaVuSans-4e" d="M 581 4863 
L 1159 4863 
L 1159 1991 
L 2875 3500 
L 3609 3500 
L 1753 1863 
L 3688 0 
L 2938 0 
L 1159 1709 
L 1159 0 
L 581 0 
L 581 4863 
z
" transform="scale(0.015625)"/>
     </defs>
     <use xlink:href="#DejaVuSans-45"/>
     <use xlink:href="#DejaVuSans-52" transform="translate(63.484375 0)"/>
     <use xlink:href="#DejaVuSans-44" transform="translate(124.671875 0)"/>
     <use xlink:href="#DejaVuSans-55" transform="translate(185.953125 0)"/>
     <use xlink:href="#DejaVuSans-47" transform="translate(225.3125 0)"/>
     <use xlink:href="#DejaVuSans-3" transform="translate(288.796875 0)"/>
     <use xlink:href="#DejaVuSans-5c" transform="translate(320.578125 0)"/>
     <use xlink:href="#DejaVuSans-3" transform="translate(379.765625 0)"/>
     <use xlink:href="#DejaVuSans-17" transform="translate(411.546875 0)"/>
     <use xlink:href="#DejaVuSans-11" transform="translate(475.171875 0)"/>
     <use xlink:href="#DejaVuSans-13" transform="translate(506.953125 0)"/>
     <use xlink:href="#DejaVuSans-13" transform="translate(570.578125 0)"/>
     <use xlink:href="#DejaVuSans-af5" transform="translate(634.203125 0)"/>
     <use xlink:href="#DejaVuSans-17" transform="translate(684.203125 0)"/>
     <use xlink:href="#DejaVuSans-11" transform="translate(747.828125 0)"/>
     <use xlink:href="#DejaVuSans-17" transform="translate(779.609375 0)"/>
     <use xlink:href="#DejaVuSans-13" transform="translate(843.234375 0)"/>
     <use xlink:href="#DejaVuSans-3" transform="translate(906.859375 0)"/>
     <use xlink:href="#DejaVuSans-3" transform="translate(938.640625 0)"/>
     <use xlink:href="#DejaVuSans-57" transform="translate(970.421875 0)"/>
     <use xlink:href="#DejaVuSans-4b" transform="translate(1009.625 0)"/>
     <use xlink:href="#DejaVuSans-4c" transform="translate(1073 0)"/>
     <use xlink:href="#DejaVuSans-46" transform="translate(1100.78125 0)"/>
     <use xlink:href="#DejaVuSans-4e" transform="translate(1155.765625 0)"/>
     <use xlink:href="#DejaVuSans-3" transform="translate(1213.671875 0)"/>
     <use xlink:href="#DejaVuSans-13" transform="translate(1245.453125 0)"/>
     <use xlink:href="#DejaVuSans-11" transform="translate(1309.078125 0)"/>
     <use xlink:href="#DejaVuSans-17" transform="translate(1340.859375 0)"/>
     <use xlink:href="#DejaVuSans-13" transform="translate(1404.484375 0)"/>
    </g>
    
    <g transform="translate(425.583844 106.783186) scale(0.06 -0.06)">
     <defs>
      <path id="DejaVuSans-53" d="M 1159 525 
L 1159 -1331 
L 581 -1331 
L 581 3500 
L 1159 3500 
L 1159 2969 
Q 1341 3281 1617 3432 
Q 1894 3584 2278 3584 
Q 2916 3584 3314 3078 
Q 3713 2572 3713 1747 
Q 3713 922 3314 415 
Q 2916 -91 2278 -91 
Q 1894 -91 1617 61 
Q 1341 213 1159 525 
z
M 3116 1747 
Q 3116 2381 2855 2742 
Q 2594 3103 2138 3103 
Q 1681 3103 1420 2742 
Q 1159 2381 1159 1747 
Q 1159 1113 1420 752 
Q 1681 391 2138 391 
Q 2594 391 2855 752 
Q 3116 1113 3116 1747 
z
" transform="scale(0.015625)"/>
     </defs>
     <use xlink:href="#DejaVuSans-56"/>
     <use xlink:href="#DejaVuSans-57" transform="translate(52.09375 0)"/>
     <use xlink:href="#DejaVuSans-44" transform="translate(91.296875 0)"/>
     <use xlink:href="#DejaVuSans-51" transform="translate(152.578125 0)"/>
     <use xlink:href="#DejaVuSans-47" transform="translate(215.953125 0)"/>
     <use xlink:href="#DejaVuSans-52" transform="translate(279.4375 0)"/>
     <use xlink:href="#DejaVuSans-13ae" transform="translate(340.625 0)"/>
     <use xlink:href="#DejaVuSans-3" transform="translate(409.515625 0)"/>
     <use xlink:href="#DejaVuSans-57" transform="translate(441.296875 0)"/>
     <use xlink:href="#DejaVuSans-52" transform="translate(480.5 0)"/>
     <use xlink:href="#DejaVuSans-53" transform="translate(541.6875 0)"/>
     <use xlink:href="#DejaVuSans-3" transform="translate(605.171875 0)"/>
     <use xlink:href="#DejaVuSans-5c" transform="translate(636.953125 0)"/>
     <use xlink:href="#DejaVuSans-3" transform="translate(696.140625 0)"/>
     <use xlink:href="#DejaVuSans-17" transform="translate(727.921875 0)"/>
     <use xlink:href="#DejaVuSans-11" transform="translate(791.546875 0)"/>
     <use xlink:href="#DejaVuSans-18" transform="translate(823.328125 0)"/>
     <use xlink:href="#DejaVuSans-13" transform="translate(886.953125 0)"/>
     <use xlink:href="#DejaVuSans-3" transform="translate(950.578125 0)"/>
     <use xlink:href="#DejaVuSans-3" transform="translate(982.359375 0)"/>
     <use xlink:href="#DejaVuSans-45" transform="translate(1014.140625 0)"/>
     <use xlink:href="#DejaVuSans-52" transform="translate(1077.625 0)"/>
     <use xlink:href="#DejaVuSans-56" transform="translate(1138.8125 0)"/>
     <use xlink:href="#DejaVuSans-56" transform="translate(1190.90625 0)"/>
     <use xlink:href="#DejaVuSans-3" transform="translate(1243 0)"/>
     <use xlink:href="#DejaVuSans-57" transform="translate(1274.78125 0)"/>
     <use xlink:href="#DejaVuSans-52" transform="translate(1313.984375 0)"/>
     <use xlink:href="#DejaVuSans-53" transform="translate(1375.171875 0)"/>
     <use xlink:href="#DejaVuSans-3" transform="translate(1438.65625 0)"/>
     <use xlink:href="#DejaVuSans-5c" transform="translate(1470.4375 0)"/>
     <use xlink:href="#DejaVuSans-3" transform="translate(1529.625 0)"/>
     <use xlink:href="#DejaVuSans-17" transform="translate(1561.40625 0)"/>
     <use xlink:href="#DejaVuSans-11" transform="translate(1625.03125 0)"/>
     <use xlink:href="#DejaVuSans-13" transform="translate(1656.8125 0)"/>
     <use xlink:href="#DejaVuSans-13" transform="translate(1720.4375 0)"/>
    </g>
    
    <g transform="translate(425.583844 113.984827) scale(0.06 -0.06)">
     <defs>
      <path id="DejaVuSans-4d" d="M 603 3500 
L 1178 3500 
L 1178 -63 
Q 1178 -731 923 -1031 
Q 669 -1331 103 -1331 
L -116 -1331 
L -116 -844 
L 38 -844 
Q 366 -844 484 -692 
Q 603 -541 603 -63 
L 603 3500 
z
M 603 4863 
L 1178 4863 
L 1178 4134 
L 603 4134 
L 603 4863 
z
" transform="scale(0.015625)"/>
      <path id="DejaVuSans-73" d="M 2944 4013 
L 2944 2803 
L 4684 2803 
L 4684 2272 
L 2944 2272 
L 2944 1063 
L 2419 1063 
L 2419 2272 
L 678 2272 
L 678 2803 
L 2419 2803 
L 2419 4013 
L 2944 4013 
z
M 678 531 
L 4684 531 
L 4684 0 
L 678 0 
L 678 531 
z
" transform="scale(0.015625)"/>
      <path id="DejaVuSans-c9c" d="M 678 2272 
L 4684 2272 
L 4684 1741 
L 678 1741 
L 678 2272 
z
" transform="scale(0.015625)"/>
     </defs>
     <use xlink:href="#DejaVuSans-44"/>
     <use xlink:href="#DejaVuSans-47" transform="translate(61.28125 0)"/>
     <use xlink:href="#DejaVuSans-4d" transform="translate(124.765625 0)"/>
     <use xlink:href="#DejaVuSans-58" transform="translate(152.546875 0)"/>
     <use xlink:href="#DejaVuSans-56" transform="translate(215.921875 0)"/>
     <use xlink:href="#DejaVuSans-57" transform="translate(268.015625 0)"/>
     <use xlink:href="#DejaVuSans-3" transform="translate(307.21875 0)"/>
     <use xlink:href="#DejaVuSans-73" transform="translate(339 0)"/>
     <use xlink:href="#DejaVuSans-13" transform="translate(422.796875 0)"/>
     <use xlink:href="#DejaVuSans-11" transform="translate(486.421875 0)"/>
     <use xlink:href="#DejaVuSans-1b" transform="translate(518.203125 0)"/>
     <use xlink:href="#DejaVuSans-13" transform="translate(581.828125 0)"/>
     <use xlink:href="#DejaVuSans-3" transform="translate(645.453125 0)"/>
     <use xlink:href="#DejaVuSans-b" transform="translate(677.234375 0)"/>
     <use xlink:href="#DejaVuSans-17" transform="translate(716.25 0)"/>
     <use xlink:href="#DejaVuSans-11" transform="translate(779.875 0)"/>
     <use xlink:href="#DejaVuSans-13" transform="translate(811.65625 0)"/>
     <use xlink:href="#DejaVuSans-c9c" transform="translate(875.28125 0)"/>
     <use xlink:href="#DejaVuSans-15" transform="translate(959.078125 0)"/>
     <use xlink:href="#DejaVuSans-11" transform="translate(1022.703125 0)"/>
     <use xlink:href="#DejaVuSans-1c" transform="translate(1054.484375 0)"/>
     <use xlink:href="#DejaVuSans-c9c" transform="translate(1118.109375 0)"/>
     <use xlink:href="#DejaVuSans-13" transform="translate(1201.90625 0)"/>
     <use xlink:href="#DejaVuSans-11" transform="translate(1265.53125 0)"/>
     <use xlink:href="#DejaVuSans-16" transform="translate(1297.3125 0)"/>
     <use xlink:href="#DejaVuSans-c" transform="translate(1360.9375 0)"/>
    </g>
    
    <g transform="translate(425.583844 121.186468) scale(0.06 -0.06)">
     <defs>
      <path id="DejaVuSans-38" d="M 556 4666 
L 1191 4666 
L 1191 1831 
Q 1191 1081 1462 751 
Q 1734 422 2344 422 
Q 2950 422 3222 751 
Q 3494 1081 3494 1831 
L 3494 4666 
L 4128 4666 
L 4128 1753 
Q 4128 841 3676 375 
Q 3225 -91 2344 -91 
Q 1459 -91 1007 375 
Q 556 841 556 1753 
L 556 4666 
z
" transform="scale(0.015625)"/>
      <path id="DejaVuSans-25" d="M 1259 2228 
L 1259 519 
L 2272 519 
Q 2781 519 3026 730 
Q 3272 941 3272 1375 
Q 3272 1813 3026 2020 
Q 2781 2228 2272 2228 
L 1259 2228 
z
M 1259 4147 
L 1259 2741 
L 2194 2741 
Q 2656 2741 2882 2914 
Q 3109 3088 3109 3444 
Q 3109 3797 2882 3972 
Q 2656 4147 2194 4147 
L 1259 4147 
z
M 628 4666 
L 2241 4666 
Q 2963 4666 3353 4366 
Q 3744 4066 3744 3513 
Q 3744 3084 3544 2831 
Q 3344 2578 2956 2516 
Q 3422 2416 3680 2098 
Q 3938 1781 3938 1306 
Q 3938 681 3513 340 
Q 3088 0 2303 0 
L 628 0 
L 628 4666 
z
" transform="scale(0.015625)"/>
      <path id="DejaVuSans-5a" d="M 269 3500 
L 844 3500 
L 1563 769 
L 2278 3500 
L 2956 3500 
L 3675 769 
L 4391 3500 
L 4966 3500 
L 4050 0 
L 3372 0 
L 2619 2869 
L 1863 0 
L 1184 0 
L 269 3500 
z
" transform="scale(0.015625)"/>
      <path id="DejaVuSans-1d" d="M 750 794 
L 1409 794 
L 1409 0 
L 750 0 
L 750 794 
z
M 750 3309 
L 1409 3309 
L 1409 2516 
L 750 2516 
L 750 3309 
z
" transform="scale(0.015625)"/>
      <path id="DejaVuSans-10" d="M 313 2009 
L 1997 2009 
L 1997 1497 
L 313 1497 
L 313 2009 
z
" transform="scale(0.015625)"/>
     </defs>
     <use xlink:href="#DejaVuSans-38"/>
     <use xlink:href="#DejaVuSans-36" transform="translate(73.1875 0)"/>
     <use xlink:href="#DejaVuSans-25" transform="translate(136.671875 0)"/>
     <use xlink:href="#DejaVuSans-3" transform="translate(205.28125 0)"/>
     <use xlink:href="#DejaVuSans-5a" transform="translate(237.0625 0)"/>
     <use xlink:href="#DejaVuSans-44" transform="translate(318.84375 0)"/>
     <use xlink:href="#DejaVuSans-4f" transform="translate(380.125 0)"/>
     <use xlink:href="#DejaVuSans-4f" transform="translate(407.90625 0)"/>
     <use xlink:href="#DejaVuSans-1d" transform="translate(435.6875 0)"/>
     <use xlink:href="#DejaVuSans-3" transform="translate(469.375 0)"/>
     <use xlink:href="#DejaVuSans-4b" transform="translate(501.15625 0)"/>
     <use xlink:href="#DejaVuSans-52" transform="translate(564.53125 0)"/>
     <use xlink:href="#DejaVuSans-52" transform="translate(625.71875 0)"/>
     <use xlink:href="#DejaVuSans-4e" transform="translate(686.90625 0)"/>
     <use xlink:href="#DejaVuSans-10" transform="translate(744.8125 0)"/>
     <use xlink:href="#DejaVuSans-48" transform="translate(780.890625 0)"/>
     <use xlink:href="#DejaVuSans-51" transform="translate(842.421875 0)"/>
     <use xlink:href="#DejaVuSans-47" transform="translate(905.796875 0)"/>
     <use xlink:href="#DejaVuSans-3" transform="translate(969.28125 0)"/>
     <use xlink:href="#DejaVuSans-48" transform="translate(1001.0625 0)"/>
     <use xlink:href="#DejaVuSans-51" transform="translate(1062.59375 0)"/>
     <use xlink:href="#DejaVuSans-47" transform="translate(1125.96875 0)"/>
     <use xlink:href="#DejaVuSans-3" transform="translate(1189.453125 0)"/>
     <use xlink:href="#DejaVuSans-49" transform="translate(1221.234375 0)"/>
     <use xlink:href="#DejaVuSans-44" transform="translate(1256.4375 0)"/>
     <use xlink:href="#DejaVuSans-46" transform="translate(1317.71875 0)"/>
     <use xlink:href="#DejaVuSans-48" transform="translate(1372.703125 0)"/>
     <use xlink:href="#DejaVuSans-3" transform="translate(1434.234375 0)"/>
     <use xlink:href="#DejaVuSans-b" transform="translate(1466.015625 0)"/>
     <use xlink:href="#DejaVuSans-49" transform="translate(1505.03125 0)"/>
     <use xlink:href="#DejaVuSans-44" transform="translate(1540.234375 0)"/>
     <use xlink:href="#DejaVuSans-4f" transform="translate(1601.515625 0)"/>
     <use xlink:href="#DejaVuSans-4f" transform="translate(1629.296875 0)"/>
     <use xlink:href="#DejaVuSans-45" transform="translate(1657.078125 0)"/>
     <use xlink:href="#DejaVuSans-44" transform="translate(1720.5625 0)"/>
     <use xlink:href="#DejaVuSans-46" transform="translate(1781.84375 0)"/>
     <use xlink:href="#DejaVuSans-4e" transform="translate(1836.828125 0)"/>
     <use xlink:href="#DejaVuSans-c" transform="translate(1894.734375 0)"/>
     <use xlink:href="#DejaVuSans-3" transform="translate(1933.75 0)"/>
     <use xlink:href="#DejaVuSans-3" transform="translate(1965.53125 0)"/>
     <use xlink:href="#DejaVuSans-55" transform="translate(1997.3125 0)"/>
     <use xlink:href="#DejaVuSans-48" transform="translate(2036.21875 0)"/>
     <use xlink:href="#DejaVuSans-46" transform="translate(2097.75 0)"/>
     <use xlink:href="#DejaVuSans-48" transform="translate(2152.734375 0)"/>
     <use xlink:href="#DejaVuSans-56" transform="translate(2214.265625 0)"/>
     <use xlink:href="#DejaVuSans-56" transform="translate(2266.359375 0)"/>
     <use xlink:href="#DejaVuSans-3" transform="translate(2318.453125 0)"/>
     <use xlink:href="#DejaVuSans-14" transform="translate(2350.234375 0)"/>
     <use xlink:href="#DejaVuSans-3" transform="translate(2413.859375 0)"/>
     <use xlink:href="#DejaVuSans-3" transform="translate(2445.640625 0)"/>
     <use xlink:href="#DejaVuSans-4f" transform="translate(2477.421875 0)"/>
     <use xlink:href="#DejaVuSans-4c" transform="translate(2505.203125 0)"/>
     <use xlink:href="#DejaVuSans-4a" transform="translate(2532.984375 0)"/>
     <use xlink:href="#DejaVuSans-3" transform="translate(2596.46875 0)"/>
     <use xlink:href="#DejaVuSans-14" transform="translate(2628.25 0)"/>
     <use xlink:href="#DejaVuSans-11" transform="translate(2691.875 0)"/>
     <use xlink:href="#DejaVuSans-18" transform="translate(2723.65625 0)"/>
    </g>
    
    <g transform="translate(425.583844 128.388108) scale(0.06 -0.06)">
     <defs>
      <path id="DejaVuSans-32" d="M 2522 4238 
Q 1834 4238 1429 3725 
Q 1025 3213 1025 2328 
Q 1025 1447 1429 934 
Q 1834 422 2522 422 
Q 3209 422 3611 934 
Q 4013 1447 4013 2328 
Q 4013 3213 3611 3725 
Q 3209 4238 2522 4238 
z
M 2522 4750 
Q 3503 4750 4090 4092 
Q 4678 3434 4678 2328 
Q 4678 1225 4090 567 
Q 3503 -91 2522 -91 
Q 1538 -91 948 565 
Q 359 1222 359 2328 
Q 359 3434 948 4092 
Q 1538 4750 2522 4750 
z
" transform="scale(0.015625)"/>
      <path id="DejaVuSans-31" d="M 628 4666 
L 1478 4666 
L 3547 763 
L 3547 4666 
L 4159 4666 
L 4159 0 
L 3309 0 
L 1241 3903 
L 1241 0 
L 628 0 
L 628 4666 
z
" transform="scale(0.015625)"/>
      <path id="DejaVuSans-37" d="M -19 4666 
L 3928 4666 
L 3928 4134 
L 2272 4134 
L 2272 0 
L 1638 0 
L 1638 4134 
L -19 4134 
L -19 4666 
z
" transform="scale(0.015625)"/>
      <path id="DejaVuSans-26" d="M 4122 4306 
L 4122 3641 
Q 3803 3938 3442 4084 
Q 3081 4231 2675 4231 
Q 1875 4231 1450 3742 
Q 1025 3253 1025 2328 
Q 1025 1406 1450 917 
Q 1875 428 2675 428 
Q 3081 428 3442 575 
Q 3803 722 4122 1019 
L 4122 359 
Q 3791 134 3420 21 
Q 3050 -91 2638 -91 
Q 1578 -91 968 557 
Q 359 1206 359 2328 
Q 359 3453 968 4101 
Q 1578 4750 2638 4750 
Q 3056 4750 3426 4639 
Q 3797 4528 4122 4306 
z
" transform="scale(0.015625)"/>
     </defs>
     <use xlink:href="#DejaVuSans-55"/>
     <use xlink:href="#DejaVuSans-48" transform="translate(38.90625 0)"/>
     <use xlink:href="#DejaVuSans-56" transform="translate(100.4375 0)"/>
     <use xlink:href="#DejaVuSans-58" transform="translate(152.53125 0)"/>
     <use xlink:href="#DejaVuSans-4f" transform="translate(215.90625 0)"/>
     <use xlink:href="#DejaVuSans-57" transform="translate(243.6875 0)"/>
     <use xlink:href="#DejaVuSans-1d" transform="translate(282.890625 0)"/>
     <use xlink:href="#DejaVuSans-3" transform="translate(316.578125 0)"/>
     <use xlink:href="#DejaVuSans-27" transform="translate(348.359375 0)"/>
     <use xlink:href="#DejaVuSans-32" transform="translate(425.359375 0)"/>
     <use xlink:href="#DejaVuSans-28" transform="translate(504.078125 0)"/>
     <use xlink:href="#DejaVuSans-36" transform="translate(567.265625 0)"/>
     <use xlink:href="#DejaVuSans-3" transform="translate(630.75 0)"/>
     <use xlink:href="#DejaVuSans-31" transform="translate(662.53125 0)"/>
     <use xlink:href="#DejaVuSans-32" transform="translate(737.34375 0)"/>
     <use xlink:href="#DejaVuSans-37" transform="translate(816.0625 0)"/>
     <use xlink:href="#DejaVuSans-3" transform="translate(877.140625 0)"/>
     <use xlink:href="#DejaVuSans-26" transform="translate(908.921875 0)"/>
     <use xlink:href="#DejaVuSans-2f" transform="translate(978.75 0)"/>
     <use xlink:href="#DejaVuSans-32" transform="translate(1030.90625 0)"/>
     <use xlink:href="#DejaVuSans-36" transform="translate(1109.625 0)"/>
     <use xlink:href="#DejaVuSans-28" transform="translate(1173.109375 0)"/>
    </g>
    
    <g transform="translate(425.583844 135.589749) scale(0.06 -0.06)">
     <defs>
      <path id="DejaVuSans-fa7" d="M 3975 4688 
Q 4006 4688 4056 4638 
Q 4109 4588 4166 4506 
Q 4256 4666 4309 4666 
Q 4356 4666 4438 4581 
Q 4488 4528 4488 4463 
Q 4488 4378 4419 4306 
Q 3769 3600 3156 2753 
Q 3409 2134 3856 1388 
Q 3894 1325 3894 1288 
Q 3894 1216 3800 1138 
L 3700 1069 
Q 3713 1031 3713 969 
Q 3713 875 3644 825 
Q 3563 769 3525 769 
Q 3444 769 3381 850 
Q 3006 1331 2606 1981 
Q 2069 1281 1375 113 
Q 1275 -56 1038 -56 
Q 925 -56 913 75 
Q 753 163 753 353 
Q 753 603 788 700 
Q 803 744 888 875 
Q 1525 1869 2238 2700 
Q 1856 3606 1731 4097 
Q 1703 4206 1703 4238 
Q 1703 4281 1759 4363 
Q 1819 4444 1869 4444 
Q 1916 4444 1988 4353 
Q 2016 4406 2056 4444 
Q 2113 4494 2200 4494 
Q 2300 4494 2331 4400 
Q 2500 3875 2775 3400 
Q 3219 3975 3856 4613 
Q 3931 4688 3975 4688 
z
" transform="scale(0.015625)"/>
      <path id="DejaVuSans-59" d="M 191 3500 
L 800 3500 
L 1894 563 
L 2988 3500 
L 3597 3500 
L 2284 0 
L 1503 0 
L 191 3500 
z
" transform="scale(0.015625)"/>
     </defs>
     <use xlink:href="#DejaVuSans-fa7"/>
     <use xlink:href="#DejaVuSans-3" transform="translate(83.796875 0)"/>
     <use xlink:href="#DejaVuSans-50" transform="translate(115.578125 0)"/>
     <use xlink:href="#DejaVuSans-52" transform="translate(212.984375 0)"/>
     <use xlink:href="#DejaVuSans-47" transform="translate(274.171875 0)"/>
     <use xlink:href="#DejaVuSans-58" transform="translate(337.65625 0)"/>
     <use xlink:href="#DejaVuSans-4f" transform="translate(401.03125 0)"/>
     <use xlink:href="#DejaVuSans-48" transform="translate(428.8125 0)"/>
     <use xlink:href="#DejaVuSans-3" transform="translate(490.34375 0)"/>
     <use xlink:href="#DejaVuSans-52" transform="translate(522.125 0)"/>
     <use xlink:href="#DejaVuSans-59" transform="translate(583.3125 0)"/>
     <use xlink:href="#DejaVuSans-48" transform="translate(642.5 0)"/>
     <use xlink:href="#DejaVuSans-55" transform="translate(704.03125 0)"/>
     <use xlink:href="#DejaVuSans-4f" transform="translate(745.140625 0)"/>
     <use xlink:href="#DejaVuSans-44" transform="translate(772.921875 0)"/>
     <use xlink:href="#DejaVuSans-53" transform="translate(834.203125 0)"/>
     <use xlink:href="#DejaVuSans-56" transform="translate(897.6875 0)"/>
     <use xlink:href="#DejaVuSans-3" transform="translate(949.78125 0)"/>
     <use xlink:href="#DejaVuSans-24" transform="translate(981.5625 0)"/>
     <use xlink:href="#DejaVuSans-27" transform="translate(1049.96875 0)"/>
     <use xlink:href="#DejaVuSans-36" transform="translate(1126.96875 0)"/>
     <use xlink:href="#DejaVuSans-14" transform="translate(1190.453125 0)"/>
     <use xlink:href="#DejaVuSans-15" transform="translate(1254.078125 0)"/>
     <use xlink:href="#DejaVuSans-1c" transform="translate(1317.703125 0)"/>
     <use xlink:href="#DejaVuSans-15" transform="translate(1381.328125 0)"/>
     <use xlink:href="#DejaVuSans-42" transform="translate(1444.953125 0)"/>
     <use xlink:href="#DejaVuSans-35" transform="translate(1494.953125 0)"/>
     <use xlink:href="#DejaVuSans-36" transform="translate(1564.4375 0)"/>
     <use xlink:href="#DejaVuSans-30" transform="translate(1627.921875 0)"/>
    </g>
    
    <g transform="translate(425.583844 142.79139) scale(0.06 -0.06)">
     <use xlink:href="#DejaVuSans-fa7"/>
     <use xlink:href="#DejaVuSans-3" transform="translate(83.796875 0)"/>
     <use xlink:href="#DejaVuSans-50" transform="translate(115.578125 0)"/>
     <use xlink:href="#DejaVuSans-52" transform="translate(212.984375 0)"/>
     <use xlink:href="#DejaVuSans-47" transform="translate(274.171875 0)"/>
     <use xlink:href="#DejaVuSans-58" transform="translate(337.65625 0)"/>
     <use xlink:href="#DejaVuSans-4f" transform="translate(401.03125 0)"/>
     <use xlink:href="#DejaVuSans-48" transform="translate(428.8125 0)"/>
     <use xlink:href="#DejaVuSans-3" transform="translate(490.34375 0)"/>
     <use xlink:href="#DejaVuSans-52" transform="translate(522.125 0)"/>
     <use xlink:href="#DejaVuSans-59" transform="translate(583.3125 0)"/>
     <use xlink:href="#DejaVuSans-48" transform="translate(642.5 0)"/>
     <use xlink:href="#DejaVuSans-55" transform="translate(704.03125 0)"/>
     <use xlink:href="#DejaVuSans-4f" transform="translate(745.140625 0)"/>
     <use xlink:href="#DejaVuSans-44" transform="translate(772.921875 0)"/>
     <use xlink:href="#DejaVuSans-53" transform="translate(834.203125 0)"/>
     <use xlink:href="#DejaVuSans-56" transform="translate(897.6875 0)"/>
     <use xlink:href="#DejaVuSans-3" transform="translate(949.78125 0)"/>
     <use xlink:href="#DejaVuSans-56" transform="translate(981.5625 0)"/>
     <use xlink:href="#DejaVuSans-5a" transform="translate(1033.65625 0)"/>
     <use xlink:href="#DejaVuSans-4c" transform="translate(1115.4375 0)"/>
     <use xlink:href="#DejaVuSans-57" transform="translate(1143.21875 0)"/>
     <use xlink:href="#DejaVuSans-46" transform="translate(1182.421875 0)"/>
     <use xlink:href="#DejaVuSans-4b" transform="translate(1237.40625 0)"/>
    </g>
    
    <g transform="translate(425.583844 149.99303) scale(0.06 -0.06)">
     <use xlink:href="#DejaVuSans-fa7"/>
     <use xlink:href="#DejaVuSans-3" transform="translate(83.796875 0)"/>
     <use xlink:href="#DejaVuSans-24" transform="translate(115.578125 0)"/>
     <use xlink:href="#DejaVuSans-27" transform="translate(183.984375 0)"/>
     <use xlink:href="#DejaVuSans-36" transform="translate(260.984375 0)"/>
     <use xlink:href="#DejaVuSans-14" transform="translate(324.46875 0)"/>
     <use xlink:href="#DejaVuSans-15" transform="translate(388.09375 0)"/>
     <use xlink:href="#DejaVuSans-1c" transform="translate(451.71875 0)"/>
     <use xlink:href="#DejaVuSans-15" transform="translate(515.34375 0)"/>
     <use xlink:href="#DejaVuSans-42" transform="translate(578.96875 0)"/>
     <use xlink:href="#DejaVuSans-35" transform="translate(628.96875 0)"/>
     <use xlink:href="#DejaVuSans-36" transform="translate(698.453125 0)"/>
     <use xlink:href="#DejaVuSans-30" transform="translate(761.9375 0)"/>
     <use xlink:href="#DejaVuSans-3" transform="translate(848.21875 0)"/>
     <use xlink:href="#DejaVuSans-52" transform="translate(880 0)"/>
     <use xlink:href="#DejaVuSans-59" transform="translate(941.1875 0)"/>
     <use xlink:href="#DejaVuSans-48" transform="translate(1000.375 0)"/>
     <use xlink:href="#DejaVuSans-55" transform="translate(1061.90625 0)"/>
     <use xlink:href="#DejaVuSans-4f" transform="translate(1103.015625 0)"/>
     <use xlink:href="#DejaVuSans-44" transform="translate(1130.796875 0)"/>
     <use xlink:href="#DejaVuSans-53" transform="translate(1192.078125 0)"/>
     <use xlink:href="#DejaVuSans-56" transform="translate(1255.5625 0)"/>
     <use xlink:href="#DejaVuSans-3" transform="translate(1307.65625 0)"/>
     <use xlink:href="#DejaVuSans-56" transform="translate(1339.4375 0)"/>
     <use xlink:href="#DejaVuSans-5a" transform="translate(1391.53125 0)"/>
     <use xlink:href="#DejaVuSans-4c" transform="translate(1473.3125 0)"/>
     <use xlink:href="#DejaVuSans-57" transform="translate(1501.09375 0)"/>
     <use xlink:href="#DejaVuSans-46" transform="translate(1540.296875 0)"/>
     <use xlink:href="#DejaVuSans-4b" transform="translate(1595.28125 0)"/>
    </g>
    
    <g transform="translate(425.583844 157.194671) scale(0.06 -0.06)">
     <use xlink:href="#DejaVuSans-fa7"/>
     <use xlink:href="#DejaVuSans-3" transform="translate(83.796875 0)"/>
     <use xlink:href="#DejaVuSans-14" transform="translate(115.578125 0)"/>
     <use xlink:href="#DejaVuSans-3" transform="translate(179.203125 0)"/>
     <use xlink:href="#DejaVuSans-52" transform="translate(210.984375 0)"/>
     <use xlink:href="#DejaVuSans-49" transform="translate(272.171875 0)"/>
     <use xlink:href="#DejaVuSans-3" transform="translate(307.375 0)"/>
     <use xlink:href="#DejaVuSans-15" transform="translate(339.15625 0)"/>
     <use xlink:href="#DejaVuSans-18" transform="translate(402.78125 0)"/>
     <use xlink:href="#DejaVuSans-3" transform="translate(466.40625 0)"/>
     <use xlink:href="#DejaVuSans-13" transform="translate(498.1875 0)"/>
     <use xlink:href="#DejaVuSans-17" transform="translate(561.8125 0)"/>
     <use xlink:href="#DejaVuSans-13" transform="translate(625.4375 0)"/>
     <use xlink:href="#DejaVuSans-15" transform="translate(689.0625 0)"/>
     <use xlink:href="#DejaVuSans-3" transform="translate(752.6875 0)"/>
     <use xlink:href="#DejaVuSans-46" transform="translate(784.46875 0)"/>
     <use xlink:href="#DejaVuSans-52" transform="translate(839.453125 0)"/>
     <use xlink:href="#DejaVuSans-58" transform="translate(900.640625 0)"/>
     <use xlink:href="#DejaVuSans-55" transform="translate(964.015625 0)"/>
     <use xlink:href="#DejaVuSans-57" transform="translate(1005.125 0)"/>
     <use xlink:href="#DejaVuSans-5c" transform="translate(1044.328125 0)"/>
     <use xlink:href="#DejaVuSans-44" transform="translate(1103.515625 0)"/>
     <use xlink:href="#DejaVuSans-55" transform="translate(1164.796875 0)"/>
     <use xlink:href="#DejaVuSans-47" transform="translate(1204.15625 0)"/>
     <use xlink:href="#DejaVuSans-56" transform="translate(1267.640625 0)"/>
     <use xlink:href="#DejaVuSans-3" transform="translate(1319.734375 0)"/>
     <use xlink:href="#DejaVuSans-4b" transform="translate(1351.515625 0)"/>
     <use xlink:href="#DejaVuSans-44" transform="translate(1414.890625 0)"/>
     <use xlink:href="#DejaVuSans-59" transform="translate(1476.171875 0)"/>
     <use xlink:href="#DejaVuSans-48" transform="translate(1535.359375 0)"/>
     <use xlink:href="#DejaVuSans-3" transform="translate(1596.890625 0)"/>
     <use xlink:href="#DejaVuSans-51" transform="translate(1628.671875 0)"/>
     <use xlink:href="#DejaVuSans-52" transform="translate(1692.046875 0)"/>
     <use xlink:href="#DejaVuSans-3" transform="translate(1753.234375 0)"/>
     <use xlink:href="#DejaVuSans-56" transform="translate(1785.015625 0)"/>
     <use xlink:href="#DejaVuSans-4c" transform="translate(1837.109375 0)"/>
     <use xlink:href="#DejaVuSans-57" transform="translate(1864.890625 0)"/>
     <use xlink:href="#DejaVuSans-48" transform="translate(1904.09375 0)"/>
    </g>
   </g>
   <g id="text_21">
    
    <g transform="translate(252.627094 13.942031) scale(0.084 -0.084)">
     <defs>
      <path id="DejaVuSans-f" d="M 750 794 
L 1409 794 
L 1409 256 
L 897 -744 
L 494 -744 
L 750 256 
L 750 794 
z
" transform="scale(0.015625)"/>
     </defs>
     <use xlink:href="#DejaVuSans-28"/>
     <use xlink:href="#DejaVuSans-4f" transform="translate(63.1875 0)"/>
     <use xlink:href="#DejaVuSans-4c" transform="translate(90.96875 0)"/>
     <use xlink:href="#DejaVuSans-46" transform="translate(118.75 0)"/>
     <use xlink:href="#DejaVuSans-4c" transform="translate(173.734375 0)"/>
     <use xlink:href="#DejaVuSans-52" transform="translate(201.515625 0)"/>
     <use xlink:href="#DejaVuSans-3" transform="translate(262.703125 0)"/>
     <use xlink:href="#DejaVuSans-53" transform="translate(294.484375 0)"/>
     <use xlink:href="#DejaVuSans-44" transform="translate(357.96875 0)"/>
     <use xlink:href="#DejaVuSans-46" transform="translate(419.25 0)"/>
     <use xlink:href="#DejaVuSans-4e" transform="translate(474.234375 0)"/>
     <use xlink:href="#DejaVuSans-4c" transform="translate(532.140625 0)"/>
     <use xlink:href="#DejaVuSans-51" transform="translate(559.921875 0)"/>
     <use xlink:href="#DejaVuSans-4a" transform="translate(623.296875 0)"/>
     <use xlink:href="#DejaVuSans-3" transform="translate(686.78125 0)"/>
     <use xlink:href="#DejaVuSans-59" transform="translate(718.5625 0)"/>
     <use xlink:href="#DejaVuSans-15" transform="translate(777.75 0)"/>
     <use xlink:href="#DejaVuSans-3" transform="translate(841.375 0)"/>
     <use xlink:href="#DejaVuSans-3" transform="translate(873.15625 0)"/>
     <use xlink:href="#DejaVuSans-24" transform="translate(904.9375 0)"/>
     <use xlink:href="#DejaVuSans-42" transform="translate(973.34375 0)"/>
     <use xlink:href="#DejaVuSans-18" transform="translate(1023.34375 0)"/>
     <use xlink:href="#DejaVuSans-13" transform="translate(1086.96875 0)"/>
     <use xlink:href="#DejaVuSans-14" transform="translate(1150.59375 0)"/>
     <use xlink:href="#DejaVuSans-13" transform="translate(1214.21875 0)"/>
     <use xlink:href="#DejaVuSans-14" transform="translate(1277.84375 0)"/>
     <use xlink:href="#DejaVuSans-18" transform="translate(1341.46875 0)"/>
     <use xlink:href="#DejaVuSans-42" transform="translate(1405.09375 0)"/>
     <use xlink:href="#DejaVuSans-56" transform="translate(1455.09375 0)"/>
     <use xlink:href="#DejaVuSans-48" transform="translate(1507.1875 0)"/>
     <use xlink:href="#DejaVuSans-55" transform="translate(1568.71875 0)"/>
     <use xlink:href="#DejaVuSans-4c" transform="translate(1609.828125 0)"/>
     <use xlink:href="#DejaVuSans-48" transform="translate(1637.609375 0)"/>
     <use xlink:href="#DejaVuSans-56" transform="translate(1699.140625 0)"/>
     <use xlink:href="#DejaVuSans-42" transform="translate(1751.234375 0)"/>
     <use xlink:href="#DejaVuSans-5a" transform="translate(1801.234375 0)"/>
     <use xlink:href="#DejaVuSans-14" transform="translate(1883.015625 0)"/>
     <use xlink:href="#DejaVuSans-1c" transform="translate(1946.640625 0)"/>
     <use xlink:href="#DejaVuSans-42" transform="translate(2010.265625 0)"/>
     <use xlink:href="#DejaVuSans-5c" transform="translate(2060.265625 0)"/>
     <use xlink:href="#DejaVuSans-1b" transform="translate(2119.453125 0)"/>
     <use xlink:href="#DejaVuSans-42" transform="translate(2183.078125 0)"/>
     <use xlink:href="#DejaVuSans-4c" transform="translate(2233.078125 0)"/>
     <use xlink:href="#DejaVuSans-2c" transform="translate(2260.859375 0)"/>
     <use xlink:href="#DejaVuSans-2c" transform="translate(2290.359375 0)"/>
     <use xlink:href="#DejaVuSans-42" transform="translate(2319.859375 0)"/>
     <use xlink:href="#DejaVuSans-56" transform="translate(2369.859375 0)"/>
     <use xlink:href="#DejaVuSans-16" transform="translate(2421.953125 0)"/>
     <use xlink:href="#DejaVuSans-3" transform="translate(2485.578125 0)"/>
     <use xlink:href="#DejaVuSans-3" transform="translate(2517.359375 0)"/>
     <use xlink:href="#DejaVuSans-b" transform="translate(2549.140625 0)"/>
     <use xlink:href="#DejaVuSans-58" transform="translate(2588.15625 0)"/>
     <use xlink:href="#DejaVuSans-f" transform="translate(2651.53125 0)"/>
     <use xlink:href="#DejaVuSans-3" transform="translate(2683.3125 0)"/>
     <use xlink:href="#DejaVuSans-56" transform="translate(2715.09375 0)"/>
     <use xlink:href="#DejaVuSans-c" transform="translate(2767.1875 0)"/>
     <use xlink:href="#DejaVuSans-3" transform="translate(2806.203125 0)"/>
     <use xlink:href="#DejaVuSans-45" transform="translate(2837.984375 0)"/>
     <use xlink:href="#DejaVuSans-52" transform="translate(2901.46875 0)"/>
     <use xlink:href="#DejaVuSans-47" transform="translate(2962.65625 0)"/>
     <use xlink:href="#DejaVuSans-5c" transform="translate(3026.140625 0)"/>
     <use xlink:href="#DejaVuSans-3" transform="translate(3085.328125 0)"/>
     <use xlink:href="#DejaVuSans-49" transform="translate(3117.109375 0)"/>
     <use xlink:href="#DejaVuSans-55" transform="translate(3152.3125 0)"/>
     <use xlink:href="#DejaVuSans-44" transform="translate(3193.421875 0)"/>
     <use xlink:href="#DejaVuSans-50" transform="translate(3254.703125 0)"/>
     <use xlink:href="#DejaVuSans-48" transform="translate(3352.109375 0)"/>
    </g>
   </g>
   <g id="legend_1">
    <g id="patch_62">
     <path d="M 508.772594 576.44 
L 581.240407 576.44 
Q 582.440407 576.44 582.440407 575.24 
L 582.440407 539.838125 
Q 582.440407 538.638125 581.240407 538.638125 
L 508.772594 538.638125 
Q 507.572594 538.638125 507.572594 539.838125 
L 507.572594 575.24 
Q 507.572594 576.44 508.772594 576.44 
z
" style="fill: #ffffff; opacity: 0.9; stroke: #cccccc; stroke-linejoin: miter"/>
    </g>
    <g id="patch_63">
     <path d="M 509.972594 545.597188 
L 521.972594 545.597188 
L 521.972594 541.397187 
L 509.972594 541.397187 
z
" style="fill: #f4f1ea; stroke: #8a7a55; stroke-width: 0.6; stroke-linejoin: miter"/>
    </g>
    <g id="text_22">
     
     <g transform="translate(526.772594 545.597188) scale(0.06 -0.06)">
      <use xlink:href="#DejaVuSans-45"/>
      <use xlink:href="#DejaVuSans-52" transform="translate(63.484375 0)"/>
      <use xlink:href="#DejaVuSans-44" transform="translate(124.671875 0)"/>
      <use xlink:href="#DejaVuSans-55" transform="translate(185.953125 0)"/>
      <use xlink:href="#DejaVuSans-47" transform="translate(225.3125 0)"/>
     </g>
    </g>
    <g id="patch_64">
     <path d="M 509.972594 554.597656 
L 521.972594 554.597656 
L 521.972594 550.397656 
L 509.972594 550.397656 
z
" style="fill: #cfcfcf; stroke: #666666; stroke-width: 0.4; stroke-linejoin: miter"/>
    </g>
    <g id="text_23">
     
     <g transform="translate(526.772594 554.597656) scale(0.06 -0.06)">
      <use xlink:href="#DejaVuSans-55"/>
      <use xlink:href="#DejaVuSans-4c" transform="translate(41.109375 0)"/>
      <use xlink:href="#DejaVuSans-45" transform="translate(68.890625 0)"/>
     </g>
    </g>
    <g id="patch_65">
     <path d="M 509.972594 563.598125 
L 521.972594 563.598125 
L 521.972594 559.398125 
L 509.972594 559.398125 
L 509.972594 563.598125 
z
" style="fill: none; stroke-dasharray: 2.96,1.28; stroke-dashoffset: 0; stroke: #e45756; stroke-width: 0.8; stroke-linejoin: miter"/>
    </g>
    <g id="text_24">
     
     <g transform="translate(526.772594 563.598125) scale(0.06 -0.06)">
      <use xlink:href="#DejaVuSans-44"/>
      <use xlink:href="#DejaVuSans-51" transform="translate(61.28125 0)"/>
      <use xlink:href="#DejaVuSans-57" transform="translate(124.65625 0)"/>
      <use xlink:href="#DejaVuSans-48" transform="translate(163.859375 0)"/>
      <use xlink:href="#DejaVuSans-51" transform="translate(225.390625 0)"/>
      <use xlink:href="#DejaVuSans-51" transform="translate(288.765625 0)"/>
      <use xlink:href="#DejaVuSans-44" transform="translate(352.140625 0)"/>
      <use xlink:href="#DejaVuSans-3" transform="translate(413.421875 0)"/>
      <use xlink:href="#DejaVuSans-4e" transform="translate(445.203125 0)"/>
      <use xlink:href="#DejaVuSans-48" transform="translate(499.546875 0)"/>
      <use xlink:href="#DejaVuSans-48" transform="translate(561.078125 0)"/>
      <use xlink:href="#DejaVuSans-53" transform="translate(622.609375 0)"/>
      <use xlink:href="#DejaVuSans-10" transform="translate(686.09375 0)"/>
      <use xlink:href="#DejaVuSans-52" transform="translate(724.03125 0)"/>
      <use xlink:href="#DejaVuSans-58" transform="translate(785.21875 0)"/>
      <use xlink:href="#DejaVuSans-57" transform="translate(848.59375 0)"/>
     </g>
    </g>
    <g id="line2d_35">
     <path d="M 509.972594 570.498594 
L 515.972594 570.498594 
L 521.972594 570.498594 
" style="fill: none; stroke: #5c3a1e; stroke-width: 1.6; stroke-linecap: round"/>
    </g>
    <g id="text_25">
     
     <g transform="translate(526.772594 572.598594) scale(0.06 -0.06)">
      <use xlink:href="#DejaVuSans-36"/>
      <use xlink:href="#DejaVuSans-2c" transform="translate(63.484375 0)"/>
      <use xlink:href="#DejaVuSans-2a" transform="translate(92.984375 0)"/>
      <use xlink:href="#DejaVuSans-14" transform="translate(170.46875 0)"/>
      <use xlink:href="#DejaVuSans-3" transform="translate(234.09375 0)"/>
      <use xlink:href="#DejaVuSans-57" transform="translate(265.875 0)"/>
      <use xlink:href="#DejaVuSans-44" transform="translate(305.078125 0)"/>
      <use xlink:href="#DejaVuSans-45" transform="translate(366.359375 0)"/>
     </g>
    </g>
   </g>
  </g>
 </g>
 <defs>
  <clipPath id="pe9458ad0b2">
   <rect x="206.559593" y="19.942031" width="378.880814" height="559.497969"/>
  </clipPath>
 </defs>
<desc id="packing-v2">closes=0 first=module overlaps ADS1292_RSM usb_wall=hook-end end face (fallback)</desc>
</svg>
