<svg xmlns="http://www.w3.org/2000/svg" width="528" height="920" viewBox="0 0 528.0 920.4">
<title>v2c process norec w22 c47.90 two 64/64</title>
<rect width="100%" height="100%" fill="#f7f4ef"/>
<rect x="195.0" y="277.2" width="210.0" height="259.2" fill="#fff" stroke="#111" stroke-width="1.2"/>
<rect x="195.0" y="96.0" width="210.0" height="181.2" fill="#fff7e8" stroke="#a67c00" stroke-width="0.7"/>
<rect x="223.8" y="536.4" width="30.0" height="128.5" fill="#f3d27a" stroke="#a67c00" stroke-width="0.7"/>
<rect x="200.4" y="626.5" width="76.8" height="76.8" fill="#c45c26" stroke="#7a2e0b" stroke-width="0.7"/>
<text x="238.8" y="664.9" font-size="7" text-anchor="middle" fill="#fff">P1flat</text>
<rect x="277.8" y="536.4" width="30.0" height="261.7" fill="#f3d27a" stroke="#a67c00" stroke-width="0.7"/>
<rect x="254.4" y="759.7" width="76.8" height="76.8" fill="#c45c26" stroke="#7a2e0b" stroke-width="0.7"/>
<text x="292.8" y="798.1" font-size="7" text-anchor="middle" fill="#fff">P2flat</text>
<rect x="255.0" y="212.4" width="30.0" height="64.8" fill="#f3d27a" stroke="#a67c00" stroke-width="0.7"/>
<rect x="195.0" y="277.2" width="138.0" height="198.0" fill="#6b4c9a" stroke="#111" stroke-width="0.7"/>
<text x="264.0" y="376.2" font-size="7" text-anchor="middle" fill="#fff">U1</text>
<rect x="200.4" y="426.0" width="76.8" height="76.8" fill="#888" stroke="#111" stroke-width="0.7"/>
<text x="238.8" y="464.4" font-size="7" text-anchor="middle" fill="#fff">P1</text>
<rect x="254.4" y="292.8" width="76.8" height="76.8" fill="#888" stroke="#111" stroke-width="0.7"/>
<text x="292.8" y="331.2" font-size="7" text-anchor="middle" fill="#fff">P2</text>
<rect x="231.6" y="174.0" width="76.8" height="76.8" fill="#888" stroke="#111" stroke-width="0.7"/>
<text x="270.0" y="212.4" font-size="7" text-anchor="middle" fill="#fff">P3</text>
<rect x="190.2" y="96.0" width="76.8" height="76.8" fill="#888" stroke="#111" stroke-width="0.7"/>
<text x="228.6" y="134.4" font-size="7" text-anchor="middle" fill="#fff">P4</text>
<rect x="333.0" y="96.0" width="76.8" height="76.8" fill="#888" stroke="#111" stroke-width="0.7"/>
<text x="371.4" y="134.4" font-size="7" text-anchor="middle" fill="#fff">P5</text>
<rect x="318.0" y="641.4" width="90.0" height="67.2" fill="#6b4c9a" stroke="#111" stroke-width="0.7"/>
<text x="363.0" y="675.0" font-size="7" text-anchor="middle" fill="#fff">SW1</text>
<rect x="339.0" y="391.2" width="48.0" height="84.0" fill="#6b4c9a" stroke="#111" stroke-width="0.7"/>
<text x="363.0" y="433.2" font-size="7" text-anchor="middle" fill="#fff">J4</text>
<rect x="318.0" y="573.5" width="63.1" height="63.1" fill="#6b4c9a" stroke="#111" stroke-width="0.7"/>
<text x="349.6" y="605.0" font-size="7" text-anchor="middle" fill="#fff">U2</text>
<rect x="338.4" y="337.2" width="35.5" height="42.0" fill="#6b4c9a" stroke="#111" stroke-width="0.7"/>
<text x="356.2" y="358.2" font-size="7" text-anchor="middle" fill="#fff">U3</text>
<rect x="343.2" y="290.4" width="49.2" height="40.8" fill="#6b4c9a" stroke="#111" stroke-width="0.7"/>
<text x="367.8" y="310.8" font-size="7" text-anchor="middle" fill="#fff">U4</text>
<rect x="402.0" y="557.9" width="69.6" height="78.7" fill="#6b4c9a" stroke="#111" stroke-width="0.7"/>
<text x="436.8" y="597.2" font-size="7" text-anchor="middle" fill="#fff">J2</text>
<rect x="407.4" y="433.0" width="147.7" height="103.4" fill="#6b4c9a" stroke="#111" stroke-width="0.7"/>
<text x="481.3" y="484.7" font-size="7" text-anchor="middle" fill="#fff">J3</text>
<rect x="200.4" y="514.2" width="30.0" height="16.8" fill="#6b4c9a" stroke="#111" stroke-width="0.7"/>
<text x="215.4" y="522.6" font-size="7" text-anchor="middle" fill="#fff">D1</text>
<rect x="234.0" y="513.5" width="35.5" height="17.5" fill="#6b4c9a" stroke="#111" stroke-width="0.7"/>
<text x="251.8" y="522.2" font-size="7" text-anchor="middle" fill="#fff">L1</text>
<rect x="272.4" y="519.7" width="22.3" height="11.3" fill="#6b4c9a" stroke="#111" stroke-width="0.7"/>
<text x="283.6" y="525.4" font-size="7" text-anchor="middle" fill="#fff">D2</text>
<rect x="198.6" y="376.8" width="46.3" height="40.8" fill="#2a6f97" stroke="#111" stroke-width="0.7"/>
<text x="221.8" y="397.2" font-size="7" text-anchor="middle" fill="#fff">Q1</text>
<rect x="198.6" y="333.6" width="46.3" height="40.8" fill="#2a6f97" stroke="#111" stroke-width="0.7"/>
<text x="221.8" y="354.0" font-size="7" text-anchor="middle" fill="#fff">Q2</text>
<rect x="198.6" y="290.4" width="46.3" height="40.8" fill="#2a6f97" stroke="#111" stroke-width="0.7"/>
<text x="221.8" y="310.8" font-size="7" text-anchor="middle" fill="#fff">Q3</text>
<rect x="246.6" y="376.8" width="46.3" height="40.8" fill="#2a6f97" stroke="#111" stroke-width="0.7"/>
<text x="269.8" y="397.2" font-size="7" text-anchor="middle" fill="#fff">Q4</text>
<rect x="285.0" y="453.6" width="46.3" height="40.8" fill="#2a6f97" stroke="#111" stroke-width="0.7"/>
<text x="308.2" y="474.0" font-size="7" text-anchor="middle" fill="#fff">Q5</text>
<rect x="285.2" y="481.3" width="22.3" height="11.3" fill="#6b4c9a" stroke="#111" stroke-width="0.7"/>
<text x="296.4" y="487.0" font-size="7" text-anchor="middle" fill="#fff">R1</text>
<rect x="376.8" y="332.9" width="11.3" height="22.3" fill="#6b4c9a" stroke="#111" stroke-width="0.7"/>
<text x="382.4" y="344.0" font-size="7" text-anchor="middle" fill="#fff">R2</text>
<rect x="376.8" y="356.9" width="11.3" height="22.3" fill="#6b4c9a" stroke="#111" stroke-width="0.7"/>
<text x="382.4" y="368.0" font-size="7" text-anchor="middle" fill="#fff">R3</text>
<rect x="282.0" y="505.6" width="21.8" height="11.0" fill="#6b4c9a" stroke="#111" stroke-width="0.7"/>
<text x="292.9" y="511.1" font-size="7" text-anchor="middle" fill="#fff">C1</text>
<rect x="391.2" y="357.4" width="11.0" height="21.8" fill="#6b4c9a" stroke="#111" stroke-width="0.7"/>
<text x="396.7" y="368.3" font-size="7" text-anchor="middle" fill="#fff">C2</text>
<rect x="391.2" y="333.4" width="11.0" height="21.8" fill="#6b4c9a" stroke="#111" stroke-width="0.7"/>
<text x="396.7" y="344.3" font-size="7" text-anchor="middle" fill="#fff">C3</text>
<rect x="318.0" y="558.4" width="21.8" height="11.0" fill="#6b4c9a" stroke="#111" stroke-width="0.7"/>
<text x="328.9" y="563.9" font-size="7" text-anchor="middle" fill="#fff">C4</text>
<rect x="342.0" y="558.4" width="21.8" height="11.0" fill="#6b4c9a" stroke="#111" stroke-width="0.7"/>
<text x="352.9" y="563.9" font-size="7" text-anchor="middle" fill="#fff">C5</text>
<rect x="285.0" y="433.7" width="35.5" height="17.5" fill="#2a6f97" stroke="#111" stroke-width="0.7"/>
<text x="302.8" y="442.4" font-size="7" text-anchor="middle" fill="#fff">C6</text>
<rect x="294.6" y="414.5" width="35.5" height="17.5" fill="#2a6f97" stroke="#111" stroke-width="0.7"/>
<text x="312.4" y="423.2" font-size="7" text-anchor="middle" fill="#fff">C7</text>
<rect x="294.6" y="395.3" width="35.5" height="17.5" fill="#2a6f97" stroke="#111" stroke-width="0.7"/>
<text x="312.4" y="404.0" font-size="7" text-anchor="middle" fill="#fff">C8</text>
<rect x="294.6" y="376.1" width="35.5" height="17.5" fill="#2a6f97" stroke="#111" stroke-width="0.7"/>
<text x="312.4" y="384.8" font-size="7" text-anchor="middle" fill="#fff">C9</text>
<rect x="366.0" y="558.4" width="21.8" height="11.0" fill="#6b4c9a" stroke="#111" stroke-width="0.7"/>
<text x="376.9" y="563.9" font-size="7" text-anchor="middle" fill="#fff">C10</text>
<rect x="385.2" y="614.8" width="11.0" height="21.8" fill="#6b4c9a" stroke="#111" stroke-width="0.7"/>
<text x="390.7" y="625.7" font-size="7" text-anchor="middle" fill="#fff">C11</text>
<rect x="385.2" y="590.8" width="11.0" height="21.8" fill="#6b4c9a" stroke="#111" stroke-width="0.7"/>
<text x="390.7" y="601.7" font-size="7" text-anchor="middle" fill="#fff">C12</text>
<rect x="198.6" y="521.8" width="21.8" height="11.0" fill="#2a6f97" stroke="#111" stroke-width="0.7"/>
<text x="209.5" y="527.3" font-size="7" text-anchor="middle" fill="#fff">C13</text>
<rect x="285.0" y="497.8" width="21.8" height="11.0" fill="#2a6f97" stroke="#111" stroke-width="0.7"/>
<text x="295.9" y="503.3" font-size="7" text-anchor="middle" fill="#fff">C14</text>
<rect x="323.4" y="433.7" width="35.5" height="17.5" fill="#2a6f97" stroke="#111" stroke-width="0.7"/>
<text x="341.2" y="442.4" font-size="7" text-anchor="middle" fill="#fff">C15</text>
<rect x="333.0" y="483.1" width="22.3" height="11.3" fill="#2a6f97" stroke="#111" stroke-width="0.7"/>
<text x="344.2" y="488.8" font-size="7" text-anchor="middle" fill="#fff">R4</text>
<rect x="333.0" y="420.7" width="22.3" height="11.3" fill="#2a6f97" stroke="#111" stroke-width="0.7"/>
<text x="344.2" y="426.4" font-size="7" text-anchor="middle" fill="#fff">R5</text>
<rect x="333.0" y="377.5" width="22.3" height="11.3" fill="#2a6f97" stroke="#111" stroke-width="0.7"/>
<text x="344.2" y="383.2" font-size="7" text-anchor="middle" fill="#fff">R6</text>
<rect x="337.8" y="363.1" width="22.3" height="11.3" fill="#2a6f97" stroke="#111" stroke-width="0.7"/>
<text x="349.0" y="368.8" font-size="7" text-anchor="middle" fill="#fff">R7</text>
<rect x="337.8" y="348.7" width="22.3" height="11.3" fill="#2a6f97" stroke="#111" stroke-width="0.7"/>
<text x="349.0" y="354.4" font-size="7" text-anchor="middle" fill="#fff">R8</text>
<rect x="337.8" y="334.3" width="22.3" height="11.3" fill="#2a6f97" stroke="#111" stroke-width="0.7"/>
<text x="349.0" y="340.0" font-size="7" text-anchor="middle" fill="#fff">R9</text>
<rect x="337.8" y="319.9" width="22.3" height="11.3" fill="#2a6f97" stroke="#111" stroke-width="0.7"/>
<text x="349.0" y="325.6" font-size="7" text-anchor="middle" fill="#fff">R10</text>
<rect x="337.8" y="305.5" width="22.3" height="11.3" fill="#2a6f97" stroke="#111" stroke-width="0.7"/>
<text x="349.0" y="311.2" font-size="7" text-anchor="middle" fill="#fff">R11</text>
<rect x="337.8" y="291.1" width="22.3" height="11.3" fill="#2a6f97" stroke="#111" stroke-width="0.7"/>
<text x="349.0" y="296.8" font-size="7" text-anchor="middle" fill="#fff">R12</text>
<rect x="357.0" y="483.1" width="22.3" height="11.3" fill="#2a6f97" stroke="#111" stroke-width="0.7"/>
<text x="368.2" y="488.8" font-size="7" text-anchor="middle" fill="#fff">R13</text>
<rect x="357.0" y="420.7" width="22.3" height="11.3" fill="#2a6f97" stroke="#111" stroke-width="0.7"/>
<text x="368.2" y="426.4" font-size="7" text-anchor="middle" fill="#fff">R14</text>
<rect x="357.0" y="377.5" width="22.3" height="11.3" fill="#2a6f97" stroke="#111" stroke-width="0.7"/>
<text x="368.2" y="383.2" font-size="7" text-anchor="middle" fill="#fff">R15</text>
<rect x="361.8" y="439.9" width="22.3" height="11.3" fill="#2a6f97" stroke="#111" stroke-width="0.7"/>
<text x="373.0" y="445.6" font-size="7" text-anchor="middle" fill="#fff">R16</text>
<rect x="361.8" y="363.1" width="22.3" height="11.3" fill="#2a6f97" stroke="#111" stroke-width="0.7"/>
<text x="373.0" y="368.8" font-size="7" text-anchor="middle" fill="#fff">R17</text>
<rect x="361.8" y="348.7" width="22.3" height="11.3" fill="#2a6f97" stroke="#111" stroke-width="0.7"/>
<text x="373.0" y="354.4" font-size="7" text-anchor="middle" fill="#fff">R18</text>
<rect x="361.8" y="334.3" width="22.3" height="11.3" fill="#2a6f97" stroke="#111" stroke-width="0.7"/>
<text x="373.0" y="340.0" font-size="7" text-anchor="middle" fill="#fff">R19</text>
<rect x="361.8" y="319.9" width="22.3" height="11.3" fill="#2a6f97" stroke="#111" stroke-width="0.7"/>
<text x="373.0" y="325.6" font-size="7" text-anchor="middle" fill="#fff">R20</text>
<rect x="361.8" y="305.5" width="22.3" height="11.3" fill="#2a6f97" stroke="#111" stroke-width="0.7"/>
<text x="373.0" y="311.2" font-size="7" text-anchor="middle" fill="#fff">R21</text>
<rect x="361.8" y="291.1" width="22.3" height="11.3" fill="#2a6f97" stroke="#111" stroke-width="0.7"/>
<text x="373.0" y="296.8" font-size="7" text-anchor="middle" fill="#fff">R22</text>
<rect x="376.2" y="468.7" width="22.3" height="11.3" fill="#2a6f97" stroke="#111" stroke-width="0.7"/>
<text x="387.4" y="474.4" font-size="7" text-anchor="middle" fill="#fff">R23</text>
<rect x="376.2" y="454.3" width="22.3" height="11.3" fill="#2a6f97" stroke="#111" stroke-width="0.7"/>
<text x="387.4" y="460.0" font-size="7" text-anchor="middle" fill="#fff">R24</text>
<rect x="256.2" y="510.5" width="11.3" height="22.3" fill="#2a6f97" stroke="#111" stroke-width="0.7"/>
<text x="261.8" y="521.6" font-size="7" text-anchor="middle" fill="#fff">R25</text>
<rect x="333.0" y="457.7" width="11.3" height="22.3" fill="#2a6f97" stroke="#111" stroke-width="0.7"/>
<text x="338.6" y="468.8" font-size="7" text-anchor="middle" fill="#fff">R26</text>
<rect x="381.0" y="414.5" width="11.3" height="22.3" fill="#2a6f97" stroke="#111" stroke-width="0.7"/>
<text x="386.6" y="425.6" font-size="7" text-anchor="middle" fill="#fff">R27</text>
<rect x="385.8" y="390.5" width="11.3" height="22.3" fill="#2a6f97" stroke="#111" stroke-width="0.7"/>
<text x="391.4" y="401.6" font-size="7" text-anchor="middle" fill="#fff">R28</text>
<rect x="385.8" y="366.5" width="11.3" height="22.3" fill="#2a6f97" stroke="#111" stroke-width="0.7"/>
<text x="391.4" y="377.6" font-size="7" text-anchor="middle" fill="#fff">R29</text>
<rect x="385.8" y="342.5" width="11.3" height="22.3" fill="#2a6f97" stroke="#111" stroke-width="0.7"/>
<text x="391.4" y="353.6" font-size="7" text-anchor="middle" fill="#fff">R30</text>
<rect x="309.6" y="496.2" width="39.6" height="39.6" fill="#f7f4ef" stroke="#b33" stroke-width="0.7"/>
<rect x="363.6" y="496.2" width="39.6" height="39.6" fill="#f7f4ef" stroke="#b33" stroke-width="0.7"/>
<rect x="354.7" y="455.3" width="16.7" height="16.7" fill="none" stroke="#b33" stroke-width="0.7"/>
<rect x="366.8" y="394.4" width="16.7" height="16.7" fill="none" stroke="#b33" stroke-width="0.7"/>
<rect x="342.5" y="394.4" width="16.7" height="16.7" fill="none" stroke="#b33" stroke-width="0.7"/>
<text x="12" y="16" font-size="11" fill="#111">process norec w22 chord 47.90 two 64/64 fold neck</text>
</svg>
