<svg xmlns="http://www.w3.org/2000/svg" width="528" height="888" viewBox="0 0 528.0 888.0">
<title>v2c process usb w22 c47.90 two 66/66</title>
<rect width="100%" height="100%" fill="#f7f4ef"/>
<rect x="195.0" y="244.8" width="210.0" height="259.2" fill="#fff" stroke="#111" stroke-width="1.2"/>
<rect x="195.0" y="244.8" width="138.0" height="198.0" fill="#6b4c9a" stroke="#111" stroke-width="0.7"/>
<text x="264.0" y="343.8" font-size="7" text-anchor="middle" fill="#fff">U1</text>
<rect x="236.2" y="665.3" width="127.7" height="113.0" fill="#c45c26" stroke="#111" stroke-width="0.7"/>
<text x="300.0" y="721.8" font-size="7" text-anchor="middle" fill="#fff">J1</text>
<rect x="200.4" y="393.6" width="76.8" height="76.8" fill="#888" stroke="#111" stroke-width="0.7"/>
<text x="238.8" y="432.0" font-size="7" text-anchor="middle" fill="#fff">P1</text>
<rect x="254.4" y="260.4" width="76.8" height="76.8" fill="#888" stroke="#111" stroke-width="0.7"/>
<text x="292.8" y="298.8" font-size="7" text-anchor="middle" fill="#fff">P2</text>
<rect x="231.6" y="141.6" width="76.8" height="76.8" fill="#888" stroke="#111" stroke-width="0.7"/>
<text x="270.0" y="180.0" font-size="7" text-anchor="middle" fill="#fff">P3</text>
<rect x="313.2" y="609.0" width="90.0" height="67.2" fill="#6b4c9a" stroke="#111" stroke-width="0.7"/>
<text x="358.2" y="642.6" font-size="7" text-anchor="middle" fill="#fff">SW1</text>
<rect x="339.0" y="358.8" width="48.0" height="84.0" fill="#6b4c9a" stroke="#111" stroke-width="0.7"/>
<text x="363.0" y="400.8" font-size="7" text-anchor="middle" fill="#fff">J4</text>
<rect x="313.2" y="541.1" width="63.1" height="63.1" fill="#6b4c9a" stroke="#111" stroke-width="0.7"/>
<text x="344.8" y="572.6" font-size="7" text-anchor="middle" fill="#fff">U2</text>
<rect x="338.4" y="304.8" width="35.5" height="42.0" fill="#6b4c9a" stroke="#111" stroke-width="0.7"/>
<text x="356.2" y="325.8" font-size="7" text-anchor="middle" fill="#fff">U3</text>
<rect x="343.2" y="258.0" width="49.2" height="40.8" fill="#6b4c9a" stroke="#111" stroke-width="0.7"/>
<text x="367.8" y="278.4" font-size="7" text-anchor="middle" fill="#fff">U4</text>
<rect x="198.6" y="344.4" width="49.2" height="40.8" fill="#2a6f97" stroke="#111" stroke-width="0.7"/>
<text x="223.2" y="364.8" font-size="7" text-anchor="middle" fill="#fff">U5</text>
<rect x="402.0" y="525.5" width="69.6" height="78.7" fill="#6b4c9a" stroke="#111" stroke-width="0.7"/>
<text x="436.8" y="564.8" font-size="7" text-anchor="middle" fill="#fff">J2</text>
<rect x="407.4" y="400.6" width="147.7" height="103.4" fill="#6b4c9a" stroke="#111" stroke-width="0.7"/>
<text x="481.3" y="452.3" font-size="7" text-anchor="middle" fill="#fff">J3</text>
<rect x="195.6" y="486.6" width="30.0" height="16.8" fill="#6b4c9a" stroke="#111" stroke-width="0.7"/>
<text x="210.6" y="495.0" font-size="7" text-anchor="middle" fill="#fff">D1</text>
<rect x="229.2" y="485.9" width="35.5" height="17.5" fill="#6b4c9a" stroke="#111" stroke-width="0.7"/>
<text x="247.0" y="494.6" font-size="7" text-anchor="middle" fill="#fff">L1</text>
<rect x="267.6" y="492.1" width="22.3" height="11.3" fill="#6b4c9a" stroke="#111" stroke-width="0.7"/>
<text x="278.8" y="497.8" font-size="7" text-anchor="middle" fill="#fff">D2</text>
<rect x="198.6" y="301.2" width="46.3" height="40.8" fill="#2a6f97" stroke="#111" stroke-width="0.7"/>
<text x="221.8" y="321.6" font-size="7" text-anchor="middle" fill="#fff">Q1</text>
<rect x="198.6" y="258.0" width="46.3" height="40.8" fill="#2a6f97" stroke="#111" stroke-width="0.7"/>
<text x="221.8" y="278.4" font-size="7" text-anchor="middle" fill="#fff">Q2</text>
<rect x="251.4" y="344.4" width="46.3" height="40.8" fill="#2a6f97" stroke="#111" stroke-width="0.7"/>
<text x="274.6" y="364.8" font-size="7" text-anchor="middle" fill="#fff">Q3</text>
<rect x="285.0" y="421.2" width="46.3" height="40.8" fill="#2a6f97" stroke="#111" stroke-width="0.7"/>
<text x="308.2" y="441.6" font-size="7" text-anchor="middle" fill="#fff">Q4</text>
<rect x="299.4" y="378.0" width="46.3" height="40.8" fill="#2a6f97" stroke="#111" stroke-width="0.7"/>
<text x="322.6" y="398.4" font-size="7" text-anchor="middle" fill="#fff">Q5</text>
<rect x="285.2" y="448.9" width="22.3" height="11.3" fill="#6b4c9a" stroke="#111" stroke-width="0.7"/>
<text x="296.4" y="454.6" font-size="7" text-anchor="middle" fill="#fff">R1</text>
<rect x="376.8" y="300.5" width="11.3" height="22.3" fill="#6b4c9a" stroke="#111" stroke-width="0.7"/>
<text x="382.4" y="311.6" font-size="7" text-anchor="middle" fill="#fff">R2</text>
<rect x="376.8" y="324.5" width="11.3" height="22.3" fill="#6b4c9a" stroke="#111" stroke-width="0.7"/>
<text x="382.4" y="335.6" font-size="7" text-anchor="middle" fill="#fff">R3</text>
<rect x="267.6" y="478.0" width="21.8" height="11.0" fill="#6b4c9a" stroke="#111" stroke-width="0.7"/>
<text x="278.5" y="483.5" font-size="7" text-anchor="middle" fill="#fff">C1</text>
<rect x="282.0" y="463.6" width="21.8" height="11.0" fill="#6b4c9a" stroke="#111" stroke-width="0.7"/>
<text x="292.9" y="469.1" font-size="7" text-anchor="middle" fill="#fff">C2</text>
<rect x="291.6" y="481.6" width="11.0" height="21.8" fill="#6b4c9a" stroke="#111" stroke-width="0.7"/>
<text x="297.1" y="492.5" font-size="7" text-anchor="middle" fill="#fff">C3</text>
<rect x="391.2" y="325.0" width="11.0" height="21.8" fill="#6b4c9a" stroke="#111" stroke-width="0.7"/>
<text x="396.7" y="335.9" font-size="7" text-anchor="middle" fill="#fff">C4</text>
<rect x="391.2" y="301.0" width="11.0" height="21.8" fill="#6b4c9a" stroke="#111" stroke-width="0.7"/>
<text x="396.7" y="311.9" font-size="7" text-anchor="middle" fill="#fff">C5</text>
<rect x="313.2" y="519.5" width="35.5" height="17.5" fill="#6b4c9a" stroke="#111" stroke-width="0.7"/>
<text x="331.0" y="528.2" font-size="7" text-anchor="middle" fill="#fff">C6</text>
<rect x="351.6" y="519.5" width="35.5" height="17.5" fill="#6b4c9a" stroke="#111" stroke-width="0.7"/>
<text x="369.4" y="528.2" font-size="7" text-anchor="middle" fill="#fff">C7</text>
<rect x="380.4" y="568.7" width="17.5" height="35.5" fill="#6b4c9a" stroke="#111" stroke-width="0.7"/>
<text x="389.2" y="586.4" font-size="7" text-anchor="middle" fill="#fff">C8</text>
<rect x="299.4" y="358.1" width="35.5" height="17.5" fill="#2a6f97" stroke="#111" stroke-width="0.7"/>
<text x="317.2" y="366.8" font-size="7" text-anchor="middle" fill="#fff">C9</text>
<rect x="380.4" y="544.0" width="11.0" height="21.8" fill="#6b4c9a" stroke="#111" stroke-width="0.7"/>
<text x="385.9" y="554.9" font-size="7" text-anchor="middle" fill="#fff">C10</text>
<rect x="198.6" y="489.4" width="21.8" height="11.0" fill="#2a6f97" stroke="#111" stroke-width="0.7"/>
<text x="209.5" y="494.9" font-size="7" text-anchor="middle" fill="#fff">C11</text>
<rect x="285.0" y="465.4" width="21.8" height="11.0" fill="#2a6f97" stroke="#111" stroke-width="0.7"/>
<text x="295.9" y="470.9" font-size="7" text-anchor="middle" fill="#fff">C12</text>
<rect x="299.4" y="345.4" width="21.8" height="11.0" fill="#2a6f97" stroke="#111" stroke-width="0.7"/>
<text x="310.3" y="350.9" font-size="7" text-anchor="middle" fill="#fff">C13</text>
<rect x="323.4" y="345.4" width="21.8" height="11.0" fill="#2a6f97" stroke="#111" stroke-width="0.7"/>
<text x="334.3" y="350.9" font-size="7" text-anchor="middle" fill="#fff">C14</text>
<rect x="333.0" y="444.5" width="35.5" height="17.5" fill="#2a6f97" stroke="#111" stroke-width="0.7"/>
<text x="350.8" y="453.2" font-size="7" text-anchor="middle" fill="#fff">C15</text>
<rect x="333.0" y="431.5" width="22.3" height="11.3" fill="#2a6f97" stroke="#111" stroke-width="0.7"/>
<text x="344.2" y="437.2" font-size="7" text-anchor="middle" fill="#fff">R4</text>
<rect x="337.8" y="364.3" width="22.3" height="11.3" fill="#2a6f97" stroke="#111" stroke-width="0.7"/>
<text x="349.0" y="370.0" font-size="7" text-anchor="middle" fill="#fff">R5</text>
<rect x="337.8" y="330.7" width="22.3" height="11.3" fill="#2a6f97" stroke="#111" stroke-width="0.7"/>
<text x="349.0" y="336.4" font-size="7" text-anchor="middle" fill="#fff">R6</text>
<rect x="337.8" y="316.3" width="22.3" height="11.3" fill="#2a6f97" stroke="#111" stroke-width="0.7"/>
<text x="349.0" y="322.0" font-size="7" text-anchor="middle" fill="#fff">R7</text>
<rect x="337.8" y="301.9" width="22.3" height="11.3" fill="#2a6f97" stroke="#111" stroke-width="0.7"/>
<text x="349.0" y="307.6" font-size="7" text-anchor="middle" fill="#fff">R8</text>
<rect x="337.8" y="287.5" width="22.3" height="11.3" fill="#2a6f97" stroke="#111" stroke-width="0.7"/>
<text x="349.0" y="293.2" font-size="7" text-anchor="middle" fill="#fff">R9</text>
<rect x="337.8" y="273.1" width="22.3" height="11.3" fill="#2a6f97" stroke="#111" stroke-width="0.7"/>
<text x="349.0" y="278.8" font-size="7" text-anchor="middle" fill="#fff">R10</text>
<rect x="337.8" y="258.7" width="22.3" height="11.3" fill="#2a6f97" stroke="#111" stroke-width="0.7"/>
<text x="349.0" y="264.4" font-size="7" text-anchor="middle" fill="#fff">R11</text>
<rect x="347.4" y="417.1" width="22.3" height="11.3" fill="#2a6f97" stroke="#111" stroke-width="0.7"/>
<text x="358.6" y="422.8" font-size="7" text-anchor="middle" fill="#fff">R12</text>
<rect x="347.4" y="402.7" width="22.3" height="11.3" fill="#2a6f97" stroke="#111" stroke-width="0.7"/>
<text x="358.6" y="408.4" font-size="7" text-anchor="middle" fill="#fff">R13</text>
<rect x="347.4" y="388.3" width="22.3" height="11.3" fill="#2a6f97" stroke="#111" stroke-width="0.7"/>
<text x="358.6" y="394.0" font-size="7" text-anchor="middle" fill="#fff">R14</text>
<rect x="347.4" y="349.9" width="22.3" height="11.3" fill="#2a6f97" stroke="#111" stroke-width="0.7"/>
<text x="358.6" y="355.6" font-size="7" text-anchor="middle" fill="#fff">R15</text>
<rect x="357.0" y="431.5" width="22.3" height="11.3" fill="#2a6f97" stroke="#111" stroke-width="0.7"/>
<text x="368.2" y="437.2" font-size="7" text-anchor="middle" fill="#fff">R16</text>
<rect x="361.8" y="373.9" width="22.3" height="11.3" fill="#2a6f97" stroke="#111" stroke-width="0.7"/>
<text x="373.0" y="379.6" font-size="7" text-anchor="middle" fill="#fff">R17</text>
<rect x="361.8" y="335.5" width="22.3" height="11.3" fill="#2a6f97" stroke="#111" stroke-width="0.7"/>
<text x="373.0" y="341.2" font-size="7" text-anchor="middle" fill="#fff">R18</text>
<rect x="361.8" y="321.1" width="22.3" height="11.3" fill="#2a6f97" stroke="#111" stroke-width="0.7"/>
<text x="373.0" y="326.8" font-size="7" text-anchor="middle" fill="#fff">R19</text>
<rect x="361.8" y="306.7" width="22.3" height="11.3" fill="#2a6f97" stroke="#111" stroke-width="0.7"/>
<text x="373.0" y="312.4" font-size="7" text-anchor="middle" fill="#fff">R20</text>
<rect x="361.8" y="292.3" width="22.3" height="11.3" fill="#2a6f97" stroke="#111" stroke-width="0.7"/>
<text x="373.0" y="298.0" font-size="7" text-anchor="middle" fill="#fff">R21</text>
<rect x="361.8" y="277.9" width="22.3" height="11.3" fill="#2a6f97" stroke="#111" stroke-width="0.7"/>
<text x="373.0" y="283.6" font-size="7" text-anchor="middle" fill="#fff">R22</text>
<rect x="361.8" y="263.5" width="22.3" height="11.3" fill="#2a6f97" stroke="#111" stroke-width="0.7"/>
<text x="373.0" y="269.2" font-size="7" text-anchor="middle" fill="#fff">R23</text>
<rect x="361.8" y="249.1" width="22.3" height="11.3" fill="#2a6f97" stroke="#111" stroke-width="0.7"/>
<text x="373.0" y="254.8" font-size="7" text-anchor="middle" fill="#fff">R24</text>
<rect x="371.4" y="450.7" width="22.3" height="11.3" fill="#2a6f97" stroke="#111" stroke-width="0.7"/>
<text x="382.6" y="456.4" font-size="7" text-anchor="middle" fill="#fff">R25</text>
<rect x="371.4" y="417.1" width="22.3" height="11.3" fill="#2a6f97" stroke="#111" stroke-width="0.7"/>
<text x="382.6" y="422.8" font-size="7" text-anchor="middle" fill="#fff">R26</text>
<rect x="371.4" y="402.7" width="22.3" height="11.3" fill="#2a6f97" stroke="#111" stroke-width="0.7"/>
<text x="382.6" y="408.4" font-size="7" text-anchor="middle" fill="#fff">R27</text>
<rect x="371.4" y="388.3" width="22.3" height="11.3" fill="#2a6f97" stroke="#111" stroke-width="0.7"/>
<text x="382.6" y="394.0" font-size="7" text-anchor="middle" fill="#fff">R28</text>
<rect x="371.4" y="359.5" width="22.3" height="11.3" fill="#2a6f97" stroke="#111" stroke-width="0.7"/>
<text x="382.6" y="365.2" font-size="7" text-anchor="middle" fill="#fff">R29</text>
<rect x="256.2" y="478.1" width="11.3" height="22.3" fill="#2a6f97" stroke="#111" stroke-width="0.7"/>
<text x="261.8" y="489.2" font-size="7" text-anchor="middle" fill="#fff">R30</text>
<rect x="309.6" y="463.8" width="39.6" height="39.6" fill="#f7f4ef" stroke="#b33" stroke-width="0.7"/>
<rect x="363.6" y="463.8" width="39.6" height="39.6" fill="#f7f4ef" stroke="#b33" stroke-width="0.7"/>
<text x="12" y="16" font-size="11" fill="#111">process usb w22 chord 47.90 two 66/66 fold neck</text>
</svg>
