<svg xmlns="http://www.w3.org/2000/svg" width="528" height="888" viewBox="0 0 528.0 888.0">
<title>v2c body usb w22 c47.90 two 32/66</title>
<rect width="100%" height="100%" fill="#f7f4ef"/>
<rect x="195.0" y="244.8" width="210.0" height="259.2" fill="#fff" stroke="#111" stroke-width="1.2"/>
<rect x="231.0" y="268.8" width="138.0" height="198.0" fill="#6b4c9a" stroke="#111" stroke-width="0.7"/>
<text x="300.0" y="367.8" font-size="7" text-anchor="middle" fill="#fff">U1</text>
<rect x="236.2" y="665.3" width="127.7" height="113.0" fill="#c45c26" stroke="#111" stroke-width="0.7"/>
<text x="300.0" y="721.8" font-size="7" text-anchor="middle" fill="#fff">J1</text>
<rect x="200.4" y="393.6" width="76.8" height="76.8" fill="#888" stroke="#111" stroke-width="0.7"/>
<text x="238.8" y="432.0" font-size="7" text-anchor="middle" fill="#fff">P1</text>
<rect x="254.4" y="260.4" width="76.8" height="76.8" fill="#888" stroke="#111" stroke-width="0.7"/>
<text x="292.8" y="298.8" font-size="7" text-anchor="middle" fill="#fff">P2</text>
<rect x="231.6" y="141.6" width="76.8" height="76.8" fill="#888" stroke="#111" stroke-width="0.7"/>
<text x="270.0" y="180.0" font-size="7" text-anchor="middle" fill="#fff">P3</text>
<rect x="282.6" y="410.9" width="63.1" height="63.1" fill="#2a6f97" stroke="#111" stroke-width="0.7"/>
<text x="314.2" y="442.4" font-size="7" text-anchor="middle" fill="#fff">U2</text>
<rect x="343.2" y="604.2" width="35.5" height="42.0" fill="#6b4c9a" stroke="#111" stroke-width="0.7"/>
<text x="361.0" y="625.2" font-size="7" text-anchor="middle" fill="#fff">U3</text>
<rect x="225.0" y="346.8" width="49.2" height="40.8" fill="#2a6f97" stroke="#111" stroke-width="0.7"/>
<text x="249.6" y="367.2" font-size="7" text-anchor="middle" fill="#fff">U4</text>
<rect x="277.8" y="346.8" width="49.2" height="40.8" fill="#2a6f97" stroke="#111" stroke-width="0.7"/>
<text x="302.4" y="367.2" font-size="7" text-anchor="middle" fill="#fff">U5</text>
<rect x="402.0" y="597.5" width="69.6" height="78.7" fill="#6b4c9a" stroke="#111" stroke-width="0.7"/>
<text x="436.8" y="636.8" font-size="7" text-anchor="middle" fill="#fff">J2</text>
<rect x="407.4" y="400.6" width="147.7" height="103.4" fill="#6b4c9a" stroke="#111" stroke-width="0.7"/>
<text x="481.3" y="452.3" font-size="7" text-anchor="middle" fill="#fff">J3</text>
<rect x="343.2" y="586.2" width="30.0" height="16.8" fill="#6b4c9a" stroke="#111" stroke-width="0.7"/>
<text x="358.2" y="594.6" font-size="7" text-anchor="middle" fill="#fff">D1</text>
<rect x="343.2" y="566.3" width="35.5" height="17.5" fill="#6b4c9a" stroke="#111" stroke-width="0.7"/>
<text x="361.0" y="575.0" font-size="7" text-anchor="middle" fill="#fff">L1</text>
<rect x="343.2" y="553.3" width="22.3" height="11.3" fill="#6b4c9a" stroke="#111" stroke-width="0.7"/>
<text x="354.4" y="559.0" font-size="7" text-anchor="middle" fill="#fff">D2</text>
<rect x="330.6" y="360.5" width="40.8" height="46.3" fill="#2a6f97" stroke="#111" stroke-width="0.7"/>
<text x="351.0" y="383.6" font-size="7" text-anchor="middle" fill="#fff">Q1</text>
<rect x="285.2" y="472.9" width="22.3" height="11.3" fill="#6b4c9a" stroke="#111" stroke-width="0.7"/>
<text x="296.4" y="478.6" font-size="7" text-anchor="middle" fill="#fff">R1</text>
<rect x="374.4" y="319.7" width="11.3" height="22.3" fill="#6b4c9a" stroke="#111" stroke-width="0.7"/>
<text x="380.0" y="330.8" font-size="7" text-anchor="middle" fill="#fff">R2</text>
<rect x="379.2" y="271.7" width="11.3" height="22.3" fill="#6b4c9a" stroke="#111" stroke-width="0.7"/>
<text x="384.8" y="282.8" font-size="7" text-anchor="middle" fill="#fff">R3</text>
<rect x="225.0" y="333.4" width="21.8" height="11.0" fill="#2a6f97" stroke="#111" stroke-width="0.7"/>
<text x="235.9" y="338.9" font-size="7" text-anchor="middle" fill="#fff">C1</text>
<rect x="225.0" y="319.0" width="21.8" height="11.0" fill="#2a6f97" stroke="#111" stroke-width="0.7"/>
<text x="235.9" y="324.5" font-size="7" text-anchor="middle" fill="#fff">C2</text>
<rect x="225.0" y="304.6" width="21.8" height="11.0" fill="#2a6f97" stroke="#111" stroke-width="0.7"/>
<text x="235.9" y="310.1" font-size="7" text-anchor="middle" fill="#fff">C3</text>
<rect x="225.0" y="290.2" width="21.8" height="11.0" fill="#2a6f97" stroke="#111" stroke-width="0.7"/>
<text x="235.9" y="295.7" font-size="7" text-anchor="middle" fill="#fff">C4</text>
<rect x="225.0" y="275.8" width="21.8" height="11.0" fill="#2a6f97" stroke="#111" stroke-width="0.7"/>
<text x="235.9" y="281.3" font-size="7" text-anchor="middle" fill="#fff">C5</text>
<rect x="282.6" y="389.3" width="35.5" height="17.5" fill="#2a6f97" stroke="#111" stroke-width="0.7"/>
<text x="300.4" y="398.0" font-size="7" text-anchor="middle" fill="#fff">C6</text>
<rect x="340.2" y="323.3" width="17.5" height="35.5" fill="#2a6f97" stroke="#111" stroke-width="0.7"/>
<text x="349.0" y="341.0" font-size="7" text-anchor="middle" fill="#fff">C7</text>
<rect x="340.2" y="284.9" width="17.5" height="35.5" fill="#2a6f97" stroke="#111" stroke-width="0.7"/>
<text x="349.0" y="302.6" font-size="7" text-anchor="middle" fill="#fff">C8</text>
<rect x="349.8" y="438.5" width="17.5" height="35.5" fill="#2a6f97" stroke="#111" stroke-width="0.7"/>
<text x="358.6" y="456.2" font-size="7" text-anchor="middle" fill="#fff">C9</text>
<rect x="349.8" y="424.6" width="21.8" height="11.0" fill="#2a6f97" stroke="#111" stroke-width="0.7"/>
<text x="360.7" y="430.1" font-size="7" text-anchor="middle" fill="#fff">C10</text>
<rect x="349.8" y="410.2" width="21.8" height="11.0" fill="#2a6f97" stroke="#111" stroke-width="0.7"/>
<text x="360.7" y="415.7" font-size="7" text-anchor="middle" fill="#fff">C11</text>
<rect x="359.4" y="337.0" width="11.0" height="21.8" fill="#2a6f97" stroke="#111" stroke-width="0.7"/>
<text x="364.9" y="347.9" font-size="7" text-anchor="middle" fill="#fff">C12</text>
<rect x="359.4" y="313.0" width="11.0" height="21.8" fill="#2a6f97" stroke="#111" stroke-width="0.7"/>
<text x="364.9" y="323.9" font-size="7" text-anchor="middle" fill="#fff">C13</text>
<rect x="359.4" y="289.0" width="11.0" height="21.8" fill="#2a6f97" stroke="#111" stroke-width="0.7"/>
<text x="364.9" y="299.9" font-size="7" text-anchor="middle" fill="#fff">C14</text>
<text x="12" y="16" font-size="11" fill="#111">body usb w22 chord 47.90 two 32/66 fold neck</text>
</svg>
